%TF.GenerationSoftware,KiCad,Pcbnew,(6.0.4)*%
%TF.CreationDate,2022-04-12T10:07:42+02:00*%
%TF.ProjectId,Antenna-controller,416e7465-6e6e-4612-9d63-6f6e74726f6c,rev?*%
%TF.SameCoordinates,Original*%
%TF.FileFunction,Legend,Top*%
%TF.FilePolarity,Positive*%
%FSLAX46Y46*%
G04 Gerber Fmt 4.6, Leading zero omitted, Abs format (unit mm)*
G04 Created by KiCad (PCBNEW (6.0.4)) date 2022-04-12 10:07:42*
%MOMM*%
%LPD*%
G01*
G04 APERTURE LIST*
%ADD10C,0.150000*%
%ADD11C,0.120000*%
G04 APERTURE END LIST*
D10*
%TO.C,R12*%
X137442380Y-67952857D02*
X136966190Y-68286190D01*
X137442380Y-68524285D02*
X136442380Y-68524285D01*
X136442380Y-68143333D01*
X136490000Y-68048095D01*
X136537619Y-68000476D01*
X136632857Y-67952857D01*
X136775714Y-67952857D01*
X136870952Y-68000476D01*
X136918571Y-68048095D01*
X136966190Y-68143333D01*
X136966190Y-68524285D01*
X137442380Y-67000476D02*
X137442380Y-67571904D01*
X137442380Y-67286190D02*
X136442380Y-67286190D01*
X136585238Y-67381428D01*
X136680476Y-67476666D01*
X136728095Y-67571904D01*
X136537619Y-66619523D02*
X136490000Y-66571904D01*
X136442380Y-66476666D01*
X136442380Y-66238571D01*
X136490000Y-66143333D01*
X136537619Y-66095714D01*
X136632857Y-66048095D01*
X136728095Y-66048095D01*
X136870952Y-66095714D01*
X137442380Y-66667142D01*
X137442380Y-66048095D01*
%TO.C,R15*%
X133960226Y-93514594D02*
X133484036Y-93847927D01*
X133960226Y-94086022D02*
X132960226Y-94086022D01*
X132960226Y-93705070D01*
X133007846Y-93609832D01*
X133055465Y-93562213D01*
X133150703Y-93514594D01*
X133293560Y-93514594D01*
X133388798Y-93562213D01*
X133436417Y-93609832D01*
X133484036Y-93705070D01*
X133484036Y-94086022D01*
X133960226Y-92562213D02*
X133960226Y-93133641D01*
X133960226Y-92847927D02*
X132960226Y-92847927D01*
X133103084Y-92943165D01*
X133198322Y-93038403D01*
X133245941Y-93133641D01*
X132960226Y-91657451D02*
X132960226Y-92133641D01*
X133436417Y-92181260D01*
X133388798Y-92133641D01*
X133341179Y-92038403D01*
X133341179Y-91800308D01*
X133388798Y-91705070D01*
X133436417Y-91657451D01*
X133531655Y-91609832D01*
X133769750Y-91609832D01*
X133864988Y-91657451D01*
X133912607Y-91705070D01*
X133960226Y-91800308D01*
X133960226Y-92038403D01*
X133912607Y-92133641D01*
X133864988Y-92181260D01*
%TO.C,Q1*%
X164404761Y-79197619D02*
X164309523Y-79150000D01*
X164214285Y-79054761D01*
X164071428Y-78911904D01*
X163976190Y-78864285D01*
X163880952Y-78864285D01*
X163928571Y-79102380D02*
X163833333Y-79054761D01*
X163738095Y-78959523D01*
X163690476Y-78769047D01*
X163690476Y-78435714D01*
X163738095Y-78245238D01*
X163833333Y-78150000D01*
X163928571Y-78102380D01*
X164119047Y-78102380D01*
X164214285Y-78150000D01*
X164309523Y-78245238D01*
X164357142Y-78435714D01*
X164357142Y-78769047D01*
X164309523Y-78959523D01*
X164214285Y-79054761D01*
X164119047Y-79102380D01*
X163928571Y-79102380D01*
X165309523Y-79102380D02*
X164738095Y-79102380D01*
X165023809Y-79102380D02*
X165023809Y-78102380D01*
X164928571Y-78245238D01*
X164833333Y-78340476D01*
X164738095Y-78388095D01*
%TO.C,U1*%
X143835595Y-103812380D02*
X143835595Y-104621904D01*
X143883214Y-104717142D01*
X143930833Y-104764761D01*
X144026071Y-104812380D01*
X144216547Y-104812380D01*
X144311785Y-104764761D01*
X144359404Y-104717142D01*
X144407023Y-104621904D01*
X144407023Y-103812380D01*
X145407023Y-104812380D02*
X144835595Y-104812380D01*
X145121309Y-104812380D02*
X145121309Y-103812380D01*
X145026071Y-103955238D01*
X144930833Y-104050476D01*
X144835595Y-104098095D01*
%TO.C,R11*%
X143792380Y-67952857D02*
X143316190Y-68286190D01*
X143792380Y-68524285D02*
X142792380Y-68524285D01*
X142792380Y-68143333D01*
X142840000Y-68048095D01*
X142887619Y-68000476D01*
X142982857Y-67952857D01*
X143125714Y-67952857D01*
X143220952Y-68000476D01*
X143268571Y-68048095D01*
X143316190Y-68143333D01*
X143316190Y-68524285D01*
X143792380Y-67000476D02*
X143792380Y-67571904D01*
X143792380Y-67286190D02*
X142792380Y-67286190D01*
X142935238Y-67381428D01*
X143030476Y-67476666D01*
X143078095Y-67571904D01*
X143792380Y-66048095D02*
X143792380Y-66619523D01*
X143792380Y-66333809D02*
X142792380Y-66333809D01*
X142935238Y-66429047D01*
X143030476Y-66524285D01*
X143078095Y-66619523D01*
%TO.C,M1*%
X182840380Y-114601523D02*
X181840380Y-114601523D01*
X182554666Y-114268190D01*
X181840380Y-113934857D01*
X182840380Y-113934857D01*
X182840380Y-112934857D02*
X182840380Y-113506285D01*
X182840380Y-113220571D02*
X181840380Y-113220571D01*
X181983238Y-113315809D01*
X182078476Y-113411047D01*
X182126095Y-113506285D01*
%TO.C,Q2*%
X164904761Y-120385952D02*
X164809523Y-120338333D01*
X164714285Y-120243094D01*
X164571428Y-120100237D01*
X164476190Y-120052618D01*
X164380952Y-120052618D01*
X164428571Y-120290713D02*
X164333333Y-120243094D01*
X164238095Y-120147856D01*
X164190476Y-119957380D01*
X164190476Y-119624047D01*
X164238095Y-119433571D01*
X164333333Y-119338333D01*
X164428571Y-119290713D01*
X164619047Y-119290713D01*
X164714285Y-119338333D01*
X164809523Y-119433571D01*
X164857142Y-119624047D01*
X164857142Y-119957380D01*
X164809523Y-120147856D01*
X164714285Y-120243094D01*
X164619047Y-120290713D01*
X164428571Y-120290713D01*
X165238095Y-119385952D02*
X165285714Y-119338333D01*
X165380952Y-119290713D01*
X165619047Y-119290713D01*
X165714285Y-119338333D01*
X165761904Y-119385952D01*
X165809523Y-119481190D01*
X165809523Y-119576428D01*
X165761904Y-119719285D01*
X165190476Y-120290713D01*
X165809523Y-120290713D01*
%TO.C,REF\u002A\u002A*%
X123166666Y-46752380D02*
X122833333Y-46276190D01*
X122595238Y-46752380D02*
X122595238Y-45752380D01*
X122976190Y-45752380D01*
X123071428Y-45800000D01*
X123119047Y-45847619D01*
X123166666Y-45942857D01*
X123166666Y-46085714D01*
X123119047Y-46180952D01*
X123071428Y-46228571D01*
X122976190Y-46276190D01*
X122595238Y-46276190D01*
X123595238Y-46228571D02*
X123928571Y-46228571D01*
X124071428Y-46752380D02*
X123595238Y-46752380D01*
X123595238Y-45752380D01*
X124071428Y-45752380D01*
X124833333Y-46228571D02*
X124500000Y-46228571D01*
X124500000Y-46752380D02*
X124500000Y-45752380D01*
X124976190Y-45752380D01*
X125500000Y-45752380D02*
X125500000Y-45990476D01*
X125261904Y-45895238D02*
X125500000Y-45990476D01*
X125738095Y-45895238D01*
X125357142Y-46180952D02*
X125500000Y-45990476D01*
X125642857Y-46180952D01*
X126261904Y-45752380D02*
X126261904Y-45990476D01*
X126023809Y-45895238D02*
X126261904Y-45990476D01*
X126500000Y-45895238D01*
X126119047Y-46180952D02*
X126261904Y-45990476D01*
X126404761Y-46180952D01*
%TO.C,s-lite1*%
X190483690Y-58459761D02*
X190578928Y-58507380D01*
X190769404Y-58507380D01*
X190864642Y-58459761D01*
X190912261Y-58364523D01*
X190912261Y-58316904D01*
X190864642Y-58221666D01*
X190769404Y-58174047D01*
X190626547Y-58174047D01*
X190531309Y-58126428D01*
X190483690Y-58031190D01*
X190483690Y-57983571D01*
X190531309Y-57888333D01*
X190626547Y-57840714D01*
X190769404Y-57840714D01*
X190864642Y-57888333D01*
X191340833Y-58126428D02*
X192102738Y-58126428D01*
X192721785Y-58507380D02*
X192626547Y-58459761D01*
X192578928Y-58364523D01*
X192578928Y-57507380D01*
X193102738Y-58507380D02*
X193102738Y-57840714D01*
X193102738Y-57507380D02*
X193055119Y-57555000D01*
X193102738Y-57602619D01*
X193150357Y-57555000D01*
X193102738Y-57507380D01*
X193102738Y-57602619D01*
X193436071Y-57840714D02*
X193817023Y-57840714D01*
X193578928Y-57507380D02*
X193578928Y-58364523D01*
X193626547Y-58459761D01*
X193721785Y-58507380D01*
X193817023Y-58507380D01*
X194531309Y-58459761D02*
X194436071Y-58507380D01*
X194245595Y-58507380D01*
X194150357Y-58459761D01*
X194102738Y-58364523D01*
X194102738Y-57983571D01*
X194150357Y-57888333D01*
X194245595Y-57840714D01*
X194436071Y-57840714D01*
X194531309Y-57888333D01*
X194578928Y-57983571D01*
X194578928Y-58078809D01*
X194102738Y-58174047D01*
X195531309Y-58507380D02*
X194959880Y-58507380D01*
X195245595Y-58507380D02*
X195245595Y-57507380D01*
X195150357Y-57650238D01*
X195055119Y-57745476D01*
X194959880Y-57793095D01*
%TO.C,R13*%
X121722419Y-93520834D02*
X121246229Y-93854167D01*
X121722419Y-94092262D02*
X120722419Y-94092262D01*
X120722419Y-93711310D01*
X120770039Y-93616072D01*
X120817658Y-93568453D01*
X120912896Y-93520834D01*
X121055753Y-93520834D01*
X121150991Y-93568453D01*
X121198610Y-93616072D01*
X121246229Y-93711310D01*
X121246229Y-94092262D01*
X121722419Y-92568453D02*
X121722419Y-93139881D01*
X121722419Y-92854167D02*
X120722419Y-92854167D01*
X120865277Y-92949405D01*
X120960515Y-93044643D01*
X121008134Y-93139881D01*
X120722419Y-92235119D02*
X120722419Y-91616072D01*
X121103372Y-91949405D01*
X121103372Y-91806548D01*
X121150991Y-91711310D01*
X121198610Y-91663691D01*
X121293848Y-91616072D01*
X121531943Y-91616072D01*
X121627181Y-91663691D01*
X121674800Y-91711310D01*
X121722419Y-91806548D01*
X121722419Y-92092262D01*
X121674800Y-92187500D01*
X121627181Y-92235119D01*
%TO.C,R17*%
X145407142Y-79022380D02*
X145073809Y-78546190D01*
X144835714Y-79022380D02*
X144835714Y-78022380D01*
X145216666Y-78022380D01*
X145311904Y-78070000D01*
X145359523Y-78117619D01*
X145407142Y-78212857D01*
X145407142Y-78355714D01*
X145359523Y-78450952D01*
X145311904Y-78498571D01*
X145216666Y-78546190D01*
X144835714Y-78546190D01*
X146359523Y-79022380D02*
X145788095Y-79022380D01*
X146073809Y-79022380D02*
X146073809Y-78022380D01*
X145978571Y-78165238D01*
X145883333Y-78260476D01*
X145788095Y-78308095D01*
X146692857Y-78022380D02*
X147359523Y-78022380D01*
X146930952Y-79022380D01*
%TO.C,R1*%
X148753333Y-94822380D02*
X148420000Y-94346190D01*
X148181904Y-94822380D02*
X148181904Y-93822380D01*
X148562857Y-93822380D01*
X148658095Y-93870000D01*
X148705714Y-93917619D01*
X148753333Y-94012857D01*
X148753333Y-94155714D01*
X148705714Y-94250952D01*
X148658095Y-94298571D01*
X148562857Y-94346190D01*
X148181904Y-94346190D01*
X149705714Y-94822380D02*
X149134285Y-94822380D01*
X149420000Y-94822380D02*
X149420000Y-93822380D01*
X149324761Y-93965238D01*
X149229523Y-94060476D01*
X149134285Y-94108095D01*
%TO.C,U2*%
X133067380Y-50284404D02*
X133876904Y-50284404D01*
X133972142Y-50236785D01*
X134019761Y-50189166D01*
X134067380Y-50093928D01*
X134067380Y-49903452D01*
X134019761Y-49808214D01*
X133972142Y-49760595D01*
X133876904Y-49712976D01*
X133067380Y-49712976D01*
X133162619Y-49284404D02*
X133115000Y-49236785D01*
X133067380Y-49141547D01*
X133067380Y-48903452D01*
X133115000Y-48808214D01*
X133162619Y-48760595D01*
X133257857Y-48712976D01*
X133353095Y-48712976D01*
X133495952Y-48760595D01*
X134067380Y-49332023D01*
X134067380Y-48712976D01*
%TO.C,R16*%
X161917142Y-80292380D02*
X161583809Y-79816190D01*
X161345714Y-80292380D02*
X161345714Y-79292380D01*
X161726666Y-79292380D01*
X161821904Y-79340000D01*
X161869523Y-79387619D01*
X161917142Y-79482857D01*
X161917142Y-79625714D01*
X161869523Y-79720952D01*
X161821904Y-79768571D01*
X161726666Y-79816190D01*
X161345714Y-79816190D01*
X162869523Y-80292380D02*
X162298095Y-80292380D01*
X162583809Y-80292380D02*
X162583809Y-79292380D01*
X162488571Y-79435238D01*
X162393333Y-79530476D01*
X162298095Y-79578095D01*
X163726666Y-79292380D02*
X163536190Y-79292380D01*
X163440952Y-79340000D01*
X163393333Y-79387619D01*
X163298095Y-79530476D01*
X163250476Y-79720952D01*
X163250476Y-80101904D01*
X163298095Y-80197142D01*
X163345714Y-80244761D01*
X163440952Y-80292380D01*
X163631428Y-80292380D01*
X163726666Y-80244761D01*
X163774285Y-80197142D01*
X163821904Y-80101904D01*
X163821904Y-79863809D01*
X163774285Y-79768571D01*
X163726666Y-79720952D01*
X163631428Y-79673333D01*
X163440952Y-79673333D01*
X163345714Y-79720952D01*
X163298095Y-79768571D01*
X163250476Y-79863809D01*
%TO.C,REF\u002A\u002A*%
X123166666Y-115252380D02*
X122833333Y-114776190D01*
X122595238Y-115252380D02*
X122595238Y-114252380D01*
X122976190Y-114252380D01*
X123071428Y-114300000D01*
X123119047Y-114347619D01*
X123166666Y-114442857D01*
X123166666Y-114585714D01*
X123119047Y-114680952D01*
X123071428Y-114728571D01*
X122976190Y-114776190D01*
X122595238Y-114776190D01*
X123595238Y-114728571D02*
X123928571Y-114728571D01*
X124071428Y-115252380D02*
X123595238Y-115252380D01*
X123595238Y-114252380D01*
X124071428Y-114252380D01*
X124833333Y-114728571D02*
X124500000Y-114728571D01*
X124500000Y-115252380D02*
X124500000Y-114252380D01*
X124976190Y-114252380D01*
X125500000Y-114252380D02*
X125500000Y-114490476D01*
X125261904Y-114395238D02*
X125500000Y-114490476D01*
X125738095Y-114395238D01*
X125357142Y-114680952D02*
X125500000Y-114490476D01*
X125642857Y-114680952D01*
X126261904Y-114252380D02*
X126261904Y-114490476D01*
X126023809Y-114395238D02*
X126261904Y-114490476D01*
X126500000Y-114395238D01*
X126119047Y-114680952D02*
X126261904Y-114490476D01*
X126404761Y-114680952D01*
%TO.C,R10*%
X170462380Y-67952857D02*
X169986190Y-68286190D01*
X170462380Y-68524285D02*
X169462380Y-68524285D01*
X169462380Y-68143333D01*
X169510000Y-68048095D01*
X169557619Y-68000476D01*
X169652857Y-67952857D01*
X169795714Y-67952857D01*
X169890952Y-68000476D01*
X169938571Y-68048095D01*
X169986190Y-68143333D01*
X169986190Y-68524285D01*
X170462380Y-67000476D02*
X170462380Y-67571904D01*
X170462380Y-67286190D02*
X169462380Y-67286190D01*
X169605238Y-67381428D01*
X169700476Y-67476666D01*
X169748095Y-67571904D01*
X169462380Y-66381428D02*
X169462380Y-66286190D01*
X169510000Y-66190952D01*
X169557619Y-66143333D01*
X169652857Y-66095714D01*
X169843333Y-66048095D01*
X170081428Y-66048095D01*
X170271904Y-66095714D01*
X170367142Y-66143333D01*
X170414761Y-66190952D01*
X170462380Y-66286190D01*
X170462380Y-66381428D01*
X170414761Y-66476666D01*
X170367142Y-66524285D01*
X170271904Y-66571904D01*
X170081428Y-66619523D01*
X169843333Y-66619523D01*
X169652857Y-66571904D01*
X169557619Y-66524285D01*
X169510000Y-66476666D01*
X169462380Y-66381428D01*
%TO.C,R14*%
X127869998Y-93514594D02*
X127393808Y-93847927D01*
X127869998Y-94086022D02*
X126869998Y-94086022D01*
X126869998Y-93705070D01*
X126917618Y-93609832D01*
X126965237Y-93562213D01*
X127060475Y-93514594D01*
X127203332Y-93514594D01*
X127298570Y-93562213D01*
X127346189Y-93609832D01*
X127393808Y-93705070D01*
X127393808Y-94086022D01*
X127869998Y-92562213D02*
X127869998Y-93133641D01*
X127869998Y-92847927D02*
X126869998Y-92847927D01*
X127012856Y-92943165D01*
X127108094Y-93038403D01*
X127155713Y-93133641D01*
X127203332Y-91705070D02*
X127869998Y-91705070D01*
X126822379Y-91943165D02*
X127536665Y-92181260D01*
X127536665Y-91562213D01*
%TO.C,R5*%
X131092380Y-109386666D02*
X130616190Y-109720000D01*
X131092380Y-109958095D02*
X130092380Y-109958095D01*
X130092380Y-109577142D01*
X130140000Y-109481904D01*
X130187619Y-109434285D01*
X130282857Y-109386666D01*
X130425714Y-109386666D01*
X130520952Y-109434285D01*
X130568571Y-109481904D01*
X130616190Y-109577142D01*
X130616190Y-109958095D01*
X130092380Y-108481904D02*
X130092380Y-108958095D01*
X130568571Y-109005714D01*
X130520952Y-108958095D01*
X130473333Y-108862857D01*
X130473333Y-108624761D01*
X130520952Y-108529523D01*
X130568571Y-108481904D01*
X130663809Y-108434285D01*
X130901904Y-108434285D01*
X130997142Y-108481904D01*
X131044761Y-108529523D01*
X131092380Y-108624761D01*
X131092380Y-108862857D01*
X131044761Y-108958095D01*
X130997142Y-109005714D01*
%TO.C,REF\u002A\u002A*%
X192666666Y-46752380D02*
X192333333Y-46276190D01*
X192095238Y-46752380D02*
X192095238Y-45752380D01*
X192476190Y-45752380D01*
X192571428Y-45800000D01*
X192619047Y-45847619D01*
X192666666Y-45942857D01*
X192666666Y-46085714D01*
X192619047Y-46180952D01*
X192571428Y-46228571D01*
X192476190Y-46276190D01*
X192095238Y-46276190D01*
X193095238Y-46228571D02*
X193428571Y-46228571D01*
X193571428Y-46752380D02*
X193095238Y-46752380D01*
X193095238Y-45752380D01*
X193571428Y-45752380D01*
X194333333Y-46228571D02*
X194000000Y-46228571D01*
X194000000Y-46752380D02*
X194000000Y-45752380D01*
X194476190Y-45752380D01*
X195000000Y-45752380D02*
X195000000Y-45990476D01*
X194761904Y-45895238D02*
X195000000Y-45990476D01*
X195238095Y-45895238D01*
X194857142Y-46180952D02*
X195000000Y-45990476D01*
X195142857Y-46180952D01*
X195761904Y-45752380D02*
X195761904Y-45990476D01*
X195523809Y-45895238D02*
X195761904Y-45990476D01*
X196000000Y-45895238D01*
X195619047Y-46180952D02*
X195761904Y-45990476D01*
X195904761Y-46180952D01*
%TO.C,R2*%
X148833333Y-97082380D02*
X148500000Y-96606190D01*
X148261904Y-97082380D02*
X148261904Y-96082380D01*
X148642857Y-96082380D01*
X148738095Y-96130000D01*
X148785714Y-96177619D01*
X148833333Y-96272857D01*
X148833333Y-96415714D01*
X148785714Y-96510952D01*
X148738095Y-96558571D01*
X148642857Y-96606190D01*
X148261904Y-96606190D01*
X149214285Y-96177619D02*
X149261904Y-96130000D01*
X149357142Y-96082380D01*
X149595238Y-96082380D01*
X149690476Y-96130000D01*
X149738095Y-96177619D01*
X149785714Y-96272857D01*
X149785714Y-96368095D01*
X149738095Y-96510952D01*
X149166666Y-97082380D01*
X149785714Y-97082380D01*
%TO.C,R8*%
X157762380Y-67476666D02*
X157286190Y-67810000D01*
X157762380Y-68048095D02*
X156762380Y-68048095D01*
X156762380Y-67667142D01*
X156810000Y-67571904D01*
X156857619Y-67524285D01*
X156952857Y-67476666D01*
X157095714Y-67476666D01*
X157190952Y-67524285D01*
X157238571Y-67571904D01*
X157286190Y-67667142D01*
X157286190Y-68048095D01*
X157190952Y-66905238D02*
X157143333Y-67000476D01*
X157095714Y-67048095D01*
X157000476Y-67095714D01*
X156952857Y-67095714D01*
X156857619Y-67048095D01*
X156810000Y-67000476D01*
X156762380Y-66905238D01*
X156762380Y-66714761D01*
X156810000Y-66619523D01*
X156857619Y-66571904D01*
X156952857Y-66524285D01*
X157000476Y-66524285D01*
X157095714Y-66571904D01*
X157143333Y-66619523D01*
X157190952Y-66714761D01*
X157190952Y-66905238D01*
X157238571Y-67000476D01*
X157286190Y-67048095D01*
X157381428Y-67095714D01*
X157571904Y-67095714D01*
X157667142Y-67048095D01*
X157714761Y-67000476D01*
X157762380Y-66905238D01*
X157762380Y-66714761D01*
X157714761Y-66619523D01*
X157667142Y-66571904D01*
X157571904Y-66524285D01*
X157381428Y-66524285D01*
X157286190Y-66571904D01*
X157238571Y-66619523D01*
X157190952Y-66714761D01*
%TO.C,J2*%
X152642380Y-49825833D02*
X153356666Y-49825833D01*
X153499523Y-49873452D01*
X153594761Y-49968690D01*
X153642380Y-50111547D01*
X153642380Y-50206785D01*
X152737619Y-49397261D02*
X152690000Y-49349642D01*
X152642380Y-49254404D01*
X152642380Y-49016309D01*
X152690000Y-48921071D01*
X152737619Y-48873452D01*
X152832857Y-48825833D01*
X152928095Y-48825833D01*
X153070952Y-48873452D01*
X153642380Y-49444880D01*
X153642380Y-48825833D01*
%TO.C,R7*%
X151190648Y-67476666D02*
X150714458Y-67810000D01*
X151190648Y-68048095D02*
X150190648Y-68048095D01*
X150190648Y-67667142D01*
X150238268Y-67571904D01*
X150285887Y-67524285D01*
X150381125Y-67476666D01*
X150523982Y-67476666D01*
X150619220Y-67524285D01*
X150666839Y-67571904D01*
X150714458Y-67667142D01*
X150714458Y-68048095D01*
X150190648Y-67143333D02*
X150190648Y-66476666D01*
X151190648Y-66905238D01*
%TO.C,R18*%
X128897142Y-85372380D02*
X128563809Y-84896190D01*
X128325714Y-85372380D02*
X128325714Y-84372380D01*
X128706666Y-84372380D01*
X128801904Y-84420000D01*
X128849523Y-84467619D01*
X128897142Y-84562857D01*
X128897142Y-84705714D01*
X128849523Y-84800952D01*
X128801904Y-84848571D01*
X128706666Y-84896190D01*
X128325714Y-84896190D01*
X129849523Y-85372380D02*
X129278095Y-85372380D01*
X129563809Y-85372380D02*
X129563809Y-84372380D01*
X129468571Y-84515238D01*
X129373333Y-84610476D01*
X129278095Y-84658095D01*
X130420952Y-84800952D02*
X130325714Y-84753333D01*
X130278095Y-84705714D01*
X130230476Y-84610476D01*
X130230476Y-84562857D01*
X130278095Y-84467619D01*
X130325714Y-84420000D01*
X130420952Y-84372380D01*
X130611428Y-84372380D01*
X130706666Y-84420000D01*
X130754285Y-84467619D01*
X130801904Y-84562857D01*
X130801904Y-84610476D01*
X130754285Y-84705714D01*
X130706666Y-84753333D01*
X130611428Y-84800952D01*
X130420952Y-84800952D01*
X130325714Y-84848571D01*
X130278095Y-84896190D01*
X130230476Y-84991428D01*
X130230476Y-85181904D01*
X130278095Y-85277142D01*
X130325714Y-85324761D01*
X130420952Y-85372380D01*
X130611428Y-85372380D01*
X130706666Y-85324761D01*
X130754285Y-85277142D01*
X130801904Y-85181904D01*
X130801904Y-84991428D01*
X130754285Y-84896190D01*
X130706666Y-84848571D01*
X130611428Y-84800952D01*
%TO.C,Q4*%
X175614761Y-120200952D02*
X175519523Y-120153333D01*
X175424285Y-120058094D01*
X175281428Y-119915237D01*
X175186190Y-119867618D01*
X175090952Y-119867618D01*
X175138571Y-120105713D02*
X175043333Y-120058094D01*
X174948095Y-119962856D01*
X174900476Y-119772380D01*
X174900476Y-119439047D01*
X174948095Y-119248571D01*
X175043333Y-119153333D01*
X175138571Y-119105713D01*
X175329047Y-119105713D01*
X175424285Y-119153333D01*
X175519523Y-119248571D01*
X175567142Y-119439047D01*
X175567142Y-119772380D01*
X175519523Y-119962856D01*
X175424285Y-120058094D01*
X175329047Y-120105713D01*
X175138571Y-120105713D01*
X176424285Y-119439047D02*
X176424285Y-120105713D01*
X176186190Y-119058094D02*
X175948095Y-119772380D01*
X176567142Y-119772380D01*
%TO.C,Q3*%
X175904761Y-79197619D02*
X175809523Y-79150000D01*
X175714285Y-79054761D01*
X175571428Y-78911904D01*
X175476190Y-78864285D01*
X175380952Y-78864285D01*
X175428571Y-79102380D02*
X175333333Y-79054761D01*
X175238095Y-78959523D01*
X175190476Y-78769047D01*
X175190476Y-78435714D01*
X175238095Y-78245238D01*
X175333333Y-78150000D01*
X175428571Y-78102380D01*
X175619047Y-78102380D01*
X175714285Y-78150000D01*
X175809523Y-78245238D01*
X175857142Y-78435714D01*
X175857142Y-78769047D01*
X175809523Y-78959523D01*
X175714285Y-79054761D01*
X175619047Y-79102380D01*
X175428571Y-79102380D01*
X176190476Y-78102380D02*
X176809523Y-78102380D01*
X176476190Y-78483333D01*
X176619047Y-78483333D01*
X176714285Y-78530952D01*
X176761904Y-78578571D01*
X176809523Y-78673809D01*
X176809523Y-78911904D01*
X176761904Y-79007142D01*
X176714285Y-79054761D01*
X176619047Y-79102380D01*
X176333333Y-79102380D01*
X176238095Y-79054761D01*
X176190476Y-79007142D01*
%TO.C,REF\u002A\u002A*%
X192666666Y-115252380D02*
X192333333Y-114776190D01*
X192095238Y-115252380D02*
X192095238Y-114252380D01*
X192476190Y-114252380D01*
X192571428Y-114300000D01*
X192619047Y-114347619D01*
X192666666Y-114442857D01*
X192666666Y-114585714D01*
X192619047Y-114680952D01*
X192571428Y-114728571D01*
X192476190Y-114776190D01*
X192095238Y-114776190D01*
X193095238Y-114728571D02*
X193428571Y-114728571D01*
X193571428Y-115252380D02*
X193095238Y-115252380D01*
X193095238Y-114252380D01*
X193571428Y-114252380D01*
X194333333Y-114728571D02*
X194000000Y-114728571D01*
X194000000Y-115252380D02*
X194000000Y-114252380D01*
X194476190Y-114252380D01*
X195000000Y-114252380D02*
X195000000Y-114490476D01*
X194761904Y-114395238D02*
X195000000Y-114490476D01*
X195238095Y-114395238D01*
X194857142Y-114680952D02*
X195000000Y-114490476D01*
X195142857Y-114680952D01*
X195761904Y-114252380D02*
X195761904Y-114490476D01*
X195523809Y-114395238D02*
X195761904Y-114490476D01*
X196000000Y-114395238D01*
X195619047Y-114680952D02*
X195761904Y-114490476D01*
X195904761Y-114680952D01*
%TO.C,R9*%
X164112380Y-67476666D02*
X163636190Y-67810000D01*
X164112380Y-68048095D02*
X163112380Y-68048095D01*
X163112380Y-67667142D01*
X163160000Y-67571904D01*
X163207619Y-67524285D01*
X163302857Y-67476666D01*
X163445714Y-67476666D01*
X163540952Y-67524285D01*
X163588571Y-67571904D01*
X163636190Y-67667142D01*
X163636190Y-68048095D01*
X164112380Y-67000476D02*
X164112380Y-66810000D01*
X164064761Y-66714761D01*
X164017142Y-66667142D01*
X163874285Y-66571904D01*
X163683809Y-66524285D01*
X163302857Y-66524285D01*
X163207619Y-66571904D01*
X163160000Y-66619523D01*
X163112380Y-66714761D01*
X163112380Y-66905238D01*
X163160000Y-67000476D01*
X163207619Y-67048095D01*
X163302857Y-67095714D01*
X163540952Y-67095714D01*
X163636190Y-67048095D01*
X163683809Y-67000476D01*
X163731428Y-66905238D01*
X163731428Y-66714761D01*
X163683809Y-66619523D01*
X163636190Y-66571904D01*
X163540952Y-66524285D01*
%TO.C,J1*%
X181962380Y-96518333D02*
X182676666Y-96518333D01*
X182819523Y-96565952D01*
X182914761Y-96661190D01*
X182962380Y-96804047D01*
X182962380Y-96899285D01*
X182962380Y-95518333D02*
X182962380Y-96089761D01*
X182962380Y-95804047D02*
X181962380Y-95804047D01*
X182105238Y-95899285D01*
X182200476Y-95994523D01*
X182248095Y-96089761D01*
%TO.C,R6*%
X137442380Y-109386666D02*
X136966190Y-109720000D01*
X137442380Y-109958095D02*
X136442380Y-109958095D01*
X136442380Y-109577142D01*
X136490000Y-109481904D01*
X136537619Y-109434285D01*
X136632857Y-109386666D01*
X136775714Y-109386666D01*
X136870952Y-109434285D01*
X136918571Y-109481904D01*
X136966190Y-109577142D01*
X136966190Y-109958095D01*
X136442380Y-108529523D02*
X136442380Y-108720000D01*
X136490000Y-108815238D01*
X136537619Y-108862857D01*
X136680476Y-108958095D01*
X136870952Y-109005714D01*
X137251904Y-109005714D01*
X137347142Y-108958095D01*
X137394761Y-108910476D01*
X137442380Y-108815238D01*
X137442380Y-108624761D01*
X137394761Y-108529523D01*
X137347142Y-108481904D01*
X137251904Y-108434285D01*
X137013809Y-108434285D01*
X136918571Y-108481904D01*
X136870952Y-108529523D01*
X136823333Y-108624761D01*
X136823333Y-108815238D01*
X136870952Y-108910476D01*
X136918571Y-108958095D01*
X137013809Y-109005714D01*
D11*
%TO.C,R12*%
X134620000Y-71350000D02*
X134620000Y-70580000D01*
X134620000Y-63270000D02*
X134620000Y-64040000D01*
X135990000Y-64040000D02*
X133250000Y-64040000D01*
X133250000Y-64040000D02*
X133250000Y-70580000D01*
X135990000Y-70580000D02*
X135990000Y-64040000D01*
X133250000Y-70580000D02*
X135990000Y-70580000D01*
%TO.C,R15*%
X134507846Y-89601737D02*
X134507846Y-96141737D01*
X135877846Y-88831737D02*
X135877846Y-89601737D01*
X137247846Y-96141737D02*
X137247846Y-89601737D01*
X135877846Y-96911737D02*
X135877846Y-96141737D01*
X134507846Y-96141737D02*
X137247846Y-96141737D01*
X137247846Y-89601737D02*
X134507846Y-89601737D01*
%TO.C,Q1*%
X161960000Y-95540000D02*
X161960000Y-98080000D01*
X167040000Y-95540000D02*
X167040000Y-98080000D01*
X159380000Y-79650000D02*
X169620000Y-79650000D01*
X164500000Y-95540000D02*
X164500000Y-98080000D01*
X169620000Y-79650000D02*
X169620000Y-95540000D01*
X159380000Y-95540000D02*
X169620000Y-95540000D01*
X159380000Y-79650000D02*
X159380000Y-95540000D01*
%TO.C,U1*%
X141362500Y-115640000D02*
X147832500Y-115640000D01*
X141362500Y-105360000D02*
X141362500Y-115640000D01*
X147832500Y-105360000D02*
X145597500Y-105360000D01*
X147832500Y-115640000D02*
X147832500Y-105360000D01*
X143597500Y-105360000D02*
X141362500Y-105360000D01*
X143597500Y-105360000D02*
G75*
G03*
X145597500Y-105360000I1000000J0D01*
G01*
%TO.C,R11*%
X142340000Y-70580000D02*
X142340000Y-64040000D01*
X139600000Y-70580000D02*
X142340000Y-70580000D01*
X142340000Y-64040000D02*
X139600000Y-64040000D01*
X139600000Y-64040000D02*
X139600000Y-70580000D01*
X140970000Y-71350000D02*
X140970000Y-70580000D01*
X140970000Y-63270000D02*
X140970000Y-64040000D01*
%TO.C,M1*%
X183200000Y-103814000D02*
X183200000Y-114664000D01*
X188000000Y-104314000D02*
X188300000Y-103814000D01*
X195100000Y-103814000D02*
X193200000Y-103814000D01*
X195800000Y-114664000D02*
X195800000Y-104314000D01*
X194850000Y-104314000D02*
X195100000Y-103814000D01*
X193150000Y-103814000D02*
X193400000Y-104314000D01*
X193200000Y-103814000D02*
X193150000Y-103814000D01*
X193400000Y-104314000D02*
X188000000Y-104314000D01*
X188300000Y-103814000D02*
X183200000Y-103814000D01*
X183200000Y-114664000D02*
X195800000Y-114664000D01*
X195800000Y-104314000D02*
X194850000Y-104314000D01*
%TO.C,Q2*%
X161999000Y-117805000D02*
X161590000Y-117805000D01*
X168410000Y-110565000D02*
X161590000Y-110565000D01*
X161590000Y-117805000D02*
X161590000Y-110565000D01*
X165000000Y-110565000D02*
X165000000Y-109235000D01*
X167290000Y-110565000D02*
X167290000Y-109235000D01*
X168410000Y-117805000D02*
X168410000Y-110565000D01*
X162710000Y-110565000D02*
X162710000Y-109235000D01*
X168410000Y-117805000D02*
X168001000Y-117805000D01*
%TO.C,s-lite1*%
X191015000Y-71739677D02*
X191015000Y-71770323D01*
X191015000Y-70469677D02*
X191015000Y-70500323D01*
X196135000Y-62490000D02*
X192135000Y-62490000D01*
X191015000Y-67929677D02*
X191015000Y-67960323D01*
X189815000Y-58930000D02*
X190575000Y-58930000D01*
X196135000Y-61220000D02*
X192135000Y-61220000D01*
X196135000Y-65030000D02*
X192135000Y-65030000D01*
X192135000Y-72130000D02*
X196135000Y-72130000D01*
X192135000Y-70860000D02*
X196135000Y-70860000D01*
X191015000Y-73085000D02*
X191015000Y-73009677D01*
X192135000Y-61970000D02*
X196135000Y-61970000D01*
X196135000Y-67570000D02*
X192135000Y-67570000D01*
X196135000Y-72650000D02*
X192135000Y-72650000D01*
X191015000Y-61595000D02*
X192135000Y-61595000D01*
X191015000Y-69215000D02*
X192135000Y-69215000D01*
X192135000Y-59850000D02*
X196135000Y-59850000D01*
X191015000Y-64135000D02*
X192135000Y-64135000D01*
X196135000Y-71380000D02*
X192135000Y-71380000D01*
X192135000Y-59610000D02*
X196135000Y-59610000D01*
X196135000Y-70860000D02*
X196135000Y-71380000D01*
X196135000Y-69590000D02*
X196135000Y-70110000D01*
X196135000Y-61970000D02*
X196135000Y-62490000D01*
X191335000Y-60325000D02*
X192135000Y-60325000D01*
X192135000Y-60700000D02*
X196135000Y-60700000D01*
X196135000Y-64510000D02*
X196135000Y-65030000D01*
X191335000Y-58995000D02*
X192135000Y-58995000D01*
X192135000Y-59490000D02*
X196135000Y-59490000D01*
X196135000Y-70110000D02*
X192135000Y-70110000D01*
X189815000Y-59690000D02*
X189815000Y-58930000D01*
X192135000Y-64510000D02*
X196135000Y-64510000D01*
X192135000Y-65780000D02*
X196135000Y-65780000D01*
X196135000Y-63240000D02*
X196135000Y-63760000D01*
X196135000Y-66300000D02*
X192135000Y-66300000D01*
X192135000Y-58995000D02*
X192135000Y-73085000D01*
X196135000Y-59950000D02*
X192135000Y-59950000D01*
X192135000Y-68320000D02*
X196135000Y-68320000D01*
X192135000Y-67050000D02*
X196135000Y-67050000D01*
X196135000Y-59430000D02*
X196135000Y-59950000D01*
X196135000Y-72130000D02*
X196135000Y-72650000D01*
X191015000Y-65405000D02*
X192135000Y-65405000D01*
X191015000Y-70485000D02*
X192135000Y-70485000D01*
X191015000Y-64119677D02*
X191015000Y-64150323D01*
X191015000Y-71755000D02*
X192135000Y-71755000D01*
X196135000Y-65780000D02*
X196135000Y-66300000D01*
X191015000Y-66675000D02*
X192135000Y-66675000D01*
X192135000Y-73085000D02*
X191015000Y-73085000D01*
X196135000Y-68840000D02*
X192135000Y-68840000D01*
X191015000Y-62849677D02*
X191015000Y-62880323D01*
X196135000Y-67050000D02*
X196135000Y-67570000D01*
X191015000Y-67945000D02*
X192135000Y-67945000D01*
X192135000Y-63240000D02*
X196135000Y-63240000D01*
X191015000Y-62865000D02*
X192135000Y-62865000D01*
X192135000Y-59730000D02*
X196135000Y-59730000D01*
X196135000Y-60700000D02*
X196135000Y-61220000D01*
X191015000Y-66659677D02*
X191015000Y-66690323D01*
X196135000Y-63760000D02*
X192135000Y-63760000D01*
X196135000Y-68320000D02*
X196135000Y-68840000D01*
X191015000Y-69199677D02*
X191015000Y-69230323D01*
X192135000Y-69590000D02*
X196135000Y-69590000D01*
X191015000Y-65389677D02*
X191015000Y-65420323D01*
X191015000Y-61579677D02*
X191015000Y-61610323D01*
X192135000Y-59430000D02*
X196135000Y-59430000D01*
%TO.C,R13*%
X122270039Y-89607977D02*
X122270039Y-96147977D01*
X123640039Y-96917977D02*
X123640039Y-96147977D01*
X122270039Y-96147977D02*
X125010039Y-96147977D01*
X125010039Y-89607977D02*
X122270039Y-89607977D01*
X123640039Y-88837977D02*
X123640039Y-89607977D01*
X125010039Y-96147977D02*
X125010039Y-89607977D01*
%TO.C,R17*%
X150090000Y-76200000D02*
X149320000Y-76200000D01*
X149320000Y-77570000D02*
X149320000Y-74830000D01*
X142010000Y-76200000D02*
X142780000Y-76200000D01*
X142780000Y-74830000D02*
X142780000Y-77570000D01*
X142780000Y-77570000D02*
X149320000Y-77570000D01*
X149320000Y-74830000D02*
X142780000Y-74830000D01*
%TO.C,R1*%
X144880000Y-92000000D02*
X145650000Y-92000000D01*
X145650000Y-93370000D02*
X152190000Y-93370000D01*
X152190000Y-90630000D02*
X145650000Y-90630000D01*
X145650000Y-90630000D02*
X145650000Y-93370000D01*
X152190000Y-93370000D02*
X152190000Y-90630000D01*
X152960000Y-92000000D02*
X152190000Y-92000000D01*
%TO.C,U2*%
X135885000Y-51195000D02*
X135885000Y-50395000D01*
X138409677Y-51515000D02*
X138440323Y-51515000D01*
X140590000Y-46395000D02*
X140590000Y-50395000D01*
X138050000Y-46395000D02*
X138050000Y-50395000D01*
X134990000Y-46395000D02*
X135510000Y-46395000D01*
X136260000Y-46395000D02*
X136780000Y-46395000D01*
X135510000Y-46395000D02*
X135510000Y-50395000D01*
X135290000Y-50395000D02*
X135290000Y-46395000D01*
X135250000Y-52715000D02*
X134490000Y-52715000D01*
X134990000Y-50395000D02*
X134990000Y-46395000D01*
X134555000Y-50395000D02*
X144835000Y-50395000D01*
X144835000Y-51515000D02*
X144759677Y-51515000D01*
X144835000Y-50395000D02*
X144835000Y-51515000D01*
X139679677Y-51515000D02*
X139710323Y-51515000D01*
X142219677Y-51515000D02*
X142250323Y-51515000D01*
X139695000Y-51515000D02*
X139695000Y-50395000D01*
X143880000Y-50395000D02*
X143880000Y-46395000D01*
X137155000Y-51515000D02*
X137155000Y-50395000D01*
X141860000Y-46395000D02*
X141860000Y-50395000D01*
X142610000Y-50395000D02*
X142610000Y-46395000D01*
X140949677Y-51515000D02*
X140980323Y-51515000D01*
X134555000Y-51195000D02*
X134555000Y-50395000D01*
X140070000Y-46395000D02*
X140590000Y-46395000D01*
X140965000Y-51515000D02*
X140965000Y-50395000D01*
X143505000Y-51515000D02*
X143505000Y-50395000D01*
X138800000Y-50395000D02*
X138800000Y-46395000D01*
X141340000Y-50395000D02*
X141340000Y-46395000D01*
X139320000Y-46395000D02*
X139320000Y-50395000D01*
X135410000Y-50395000D02*
X135410000Y-46395000D01*
X136780000Y-46395000D02*
X136780000Y-50395000D01*
X134490000Y-52715000D02*
X134490000Y-51955000D01*
X143880000Y-46395000D02*
X144400000Y-46395000D01*
X143130000Y-46395000D02*
X143130000Y-50395000D01*
X141340000Y-46395000D02*
X141860000Y-46395000D01*
X137530000Y-50395000D02*
X137530000Y-46395000D01*
X142235000Y-51515000D02*
X142235000Y-50395000D01*
X137530000Y-46395000D02*
X138050000Y-46395000D01*
X142610000Y-46395000D02*
X143130000Y-46395000D01*
X135170000Y-50395000D02*
X135170000Y-46395000D01*
X138425000Y-51515000D02*
X138425000Y-50395000D01*
X143489677Y-51515000D02*
X143520323Y-51515000D01*
X135050000Y-50395000D02*
X135050000Y-46395000D01*
X140070000Y-50395000D02*
X140070000Y-46395000D01*
X138800000Y-46395000D02*
X139320000Y-46395000D01*
X144400000Y-46395000D02*
X144400000Y-50395000D01*
X137139677Y-51515000D02*
X137170323Y-51515000D01*
X136260000Y-50395000D02*
X136260000Y-46395000D01*
%TO.C,R16*%
X165830000Y-78840000D02*
X165830000Y-76100000D01*
X158520000Y-77470000D02*
X159290000Y-77470000D01*
X159290000Y-76100000D02*
X159290000Y-78840000D01*
X159290000Y-78840000D02*
X165830000Y-78840000D01*
X166600000Y-77470000D02*
X165830000Y-77470000D01*
X165830000Y-76100000D02*
X159290000Y-76100000D01*
%TO.C,R10*%
X169010000Y-70580000D02*
X169010000Y-64040000D01*
X167640000Y-71350000D02*
X167640000Y-70580000D01*
X166270000Y-64040000D02*
X166270000Y-70580000D01*
X167640000Y-63270000D02*
X167640000Y-64040000D01*
X166270000Y-70580000D02*
X169010000Y-70580000D01*
X169010000Y-64040000D02*
X166270000Y-64040000D01*
%TO.C,R14*%
X131157618Y-89601737D02*
X128417618Y-89601737D01*
X129787618Y-96911737D02*
X129787618Y-96141737D01*
X128417618Y-96141737D02*
X131157618Y-96141737D01*
X129787618Y-88831737D02*
X129787618Y-89601737D01*
X128417618Y-89601737D02*
X128417618Y-96141737D01*
X131157618Y-96141737D02*
X131157618Y-89601737D01*
%TO.C,R5*%
X128270000Y-113260000D02*
X128270000Y-112490000D01*
X126900000Y-105950000D02*
X126900000Y-112490000D01*
X126900000Y-112490000D02*
X129640000Y-112490000D01*
X129640000Y-105950000D02*
X126900000Y-105950000D01*
X129640000Y-112490000D02*
X129640000Y-105950000D01*
X128270000Y-105180000D02*
X128270000Y-105950000D01*
%TO.C,R2*%
X144960000Y-99000000D02*
X145730000Y-99000000D01*
X152270000Y-97630000D02*
X145730000Y-97630000D01*
X145730000Y-100370000D02*
X152270000Y-100370000D01*
X153040000Y-99000000D02*
X152270000Y-99000000D01*
X145730000Y-97630000D02*
X145730000Y-100370000D01*
X152270000Y-100370000D02*
X152270000Y-97630000D01*
%TO.C,R8*%
X153570000Y-64040000D02*
X153570000Y-70580000D01*
X156310000Y-64040000D02*
X153570000Y-64040000D01*
X154940000Y-63270000D02*
X154940000Y-64040000D01*
X153570000Y-70580000D02*
X156310000Y-70580000D01*
X154940000Y-71350000D02*
X154940000Y-70580000D01*
X156310000Y-70580000D02*
X156310000Y-64040000D01*
%TO.C,J2*%
X160915000Y-50365000D02*
X160915000Y-46365000D01*
X156355000Y-46365000D02*
X156355000Y-50365000D01*
X159645000Y-46365000D02*
X160165000Y-46365000D01*
X154985000Y-50365000D02*
X154985000Y-46365000D01*
X161870000Y-51485000D02*
X161794677Y-51485000D01*
X159254677Y-51485000D02*
X159285323Y-51485000D01*
X154130000Y-50365000D02*
X161870000Y-50365000D01*
X157984677Y-51485000D02*
X158015323Y-51485000D01*
X160524677Y-51485000D02*
X160555323Y-51485000D01*
X154865000Y-50365000D02*
X154865000Y-46365000D01*
X159270000Y-51485000D02*
X159270000Y-50365000D01*
X157105000Y-46365000D02*
X157625000Y-46365000D01*
X154625000Y-50365000D02*
X154625000Y-46365000D01*
X161435000Y-46365000D02*
X161435000Y-50365000D01*
X161870000Y-50365000D02*
X161870000Y-51485000D01*
X160165000Y-46365000D02*
X160165000Y-50365000D01*
X159645000Y-50365000D02*
X159645000Y-46365000D01*
X155835000Y-46365000D02*
X156355000Y-46365000D01*
X154065000Y-52685000D02*
X154065000Y-51925000D01*
X154565000Y-46365000D02*
X155085000Y-46365000D01*
X155835000Y-50365000D02*
X155835000Y-46365000D01*
X160540000Y-51485000D02*
X160540000Y-50365000D01*
X154565000Y-50365000D02*
X154565000Y-46365000D01*
X156730000Y-51485000D02*
X156730000Y-50365000D01*
X158000000Y-51485000D02*
X158000000Y-50365000D01*
X158895000Y-46365000D02*
X158895000Y-50365000D01*
X155460000Y-51165000D02*
X155460000Y-50365000D01*
X155085000Y-46365000D02*
X155085000Y-50365000D01*
X157105000Y-50365000D02*
X157105000Y-46365000D01*
X158375000Y-50365000D02*
X158375000Y-46365000D01*
X158375000Y-46365000D02*
X158895000Y-46365000D01*
X154130000Y-51165000D02*
X154130000Y-50365000D01*
X154745000Y-50365000D02*
X154745000Y-46365000D01*
X156714677Y-51485000D02*
X156745323Y-51485000D01*
X157625000Y-46365000D02*
X157625000Y-50365000D01*
X160915000Y-46365000D02*
X161435000Y-46365000D01*
X154825000Y-52685000D02*
X154065000Y-52685000D01*
%TO.C,R7*%
X146998268Y-70580000D02*
X149738268Y-70580000D01*
X149738268Y-64040000D02*
X146998268Y-64040000D01*
X148368268Y-63270000D02*
X148368268Y-64040000D01*
X149738268Y-70580000D02*
X149738268Y-64040000D01*
X146998268Y-64040000D02*
X146998268Y-70580000D01*
X148368268Y-71350000D02*
X148368268Y-70580000D01*
%TO.C,R18*%
X126270000Y-81180000D02*
X126270000Y-83920000D01*
X126270000Y-83920000D02*
X132810000Y-83920000D01*
X133580000Y-82550000D02*
X132810000Y-82550000D01*
X132810000Y-81180000D02*
X126270000Y-81180000D01*
X125500000Y-82550000D02*
X126270000Y-82550000D01*
X132810000Y-83920000D02*
X132810000Y-81180000D01*
%TO.C,Q4*%
X179120000Y-117620000D02*
X178711000Y-117620000D01*
X179120000Y-110380000D02*
X172300000Y-110380000D01*
X179120000Y-117620000D02*
X179120000Y-110380000D01*
X172300000Y-117620000D02*
X172300000Y-110380000D01*
X175710000Y-110380000D02*
X175710000Y-109050000D01*
X172709000Y-117620000D02*
X172300000Y-117620000D01*
X178000000Y-110380000D02*
X178000000Y-109050000D01*
X173420000Y-110380000D02*
X173420000Y-109050000D01*
%TO.C,Q3*%
X170880000Y-95540000D02*
X181120000Y-95540000D01*
X176000000Y-95540000D02*
X176000000Y-98080000D01*
X170880000Y-79650000D02*
X181120000Y-79650000D01*
X178540000Y-95540000D02*
X178540000Y-98080000D01*
X173460000Y-95540000D02*
X173460000Y-98080000D01*
X170880000Y-79650000D02*
X170880000Y-95540000D01*
X181120000Y-79650000D02*
X181120000Y-95540000D01*
%TO.C,R9*%
X162660000Y-64040000D02*
X159920000Y-64040000D01*
X159920000Y-64040000D02*
X159920000Y-70580000D01*
X159920000Y-70580000D02*
X162660000Y-70580000D01*
X161290000Y-63270000D02*
X161290000Y-64040000D01*
X162660000Y-70580000D02*
X162660000Y-64040000D01*
X161290000Y-71350000D02*
X161290000Y-70580000D01*
%TO.C,J1*%
X194850000Y-86565000D02*
X195100000Y-86065000D01*
X188000000Y-86565000D02*
X188300000Y-86065000D01*
X195100000Y-86065000D02*
X193200000Y-86065000D01*
X193400000Y-86565000D02*
X188000000Y-86565000D01*
X188300000Y-86065000D02*
X183200000Y-86065000D01*
X183200000Y-96915000D02*
X195800000Y-96915000D01*
X195800000Y-86565000D02*
X194850000Y-86565000D01*
X195800000Y-96915000D02*
X195800000Y-86565000D01*
X193150000Y-86065000D02*
X193400000Y-86565000D01*
X193200000Y-86065000D02*
X193150000Y-86065000D01*
X183200000Y-86065000D02*
X183200000Y-96915000D01*
%TO.C,R6*%
X134620000Y-113260000D02*
X134620000Y-112490000D01*
X133250000Y-112490000D02*
X135990000Y-112490000D01*
X133250000Y-105950000D02*
X133250000Y-112490000D01*
X134620000Y-105180000D02*
X134620000Y-105950000D01*
X135990000Y-105950000D02*
X133250000Y-105950000D01*
X135990000Y-112490000D02*
X135990000Y-105950000D01*
%TD*%
M02*
