%TF.GenerationSoftware,KiCad,Pcbnew,(6.0.4)*%
%TF.CreationDate,2022-04-12T10:07:42+02:00*%
%TF.ProjectId,Antenna-controller,416e7465-6e6e-4612-9d63-6f6e74726f6c,rev?*%
%TF.SameCoordinates,Original*%
%TF.FileFunction,Legend,Bot*%
%TF.FilePolarity,Positive*%
%FSLAX46Y46*%
G04 Gerber Fmt 4.6, Leading zero omitted, Abs format (unit mm)*
G04 Created by KiCad (PCBNEW (6.0.4)) date 2022-04-12 10:07:42*
%MOMM*%
%LPD*%
G01*
G04 APERTURE LIST*
%ADD10C,0.150000*%
%ADD11C,0.120000*%
G04 APERTURE END LIST*
D10*
%TO.C,Q10*%
X136461428Y-60197619D02*
X136556666Y-60150000D01*
X136651904Y-60054761D01*
X136794761Y-59911904D01*
X136890000Y-59864285D01*
X136985238Y-59864285D01*
X136937619Y-60102380D02*
X137032857Y-60054761D01*
X137128095Y-59959523D01*
X137175714Y-59769047D01*
X137175714Y-59435714D01*
X137128095Y-59245238D01*
X137032857Y-59150000D01*
X136937619Y-59102380D01*
X136747142Y-59102380D01*
X136651904Y-59150000D01*
X136556666Y-59245238D01*
X136509047Y-59435714D01*
X136509047Y-59769047D01*
X136556666Y-59959523D01*
X136651904Y-60054761D01*
X136747142Y-60102380D01*
X136937619Y-60102380D01*
X135556666Y-60102380D02*
X136128095Y-60102380D01*
X135842380Y-60102380D02*
X135842380Y-59102380D01*
X135937619Y-59245238D01*
X136032857Y-59340476D01*
X136128095Y-59388095D01*
X134937619Y-59102380D02*
X134842380Y-59102380D01*
X134747142Y-59150000D01*
X134699523Y-59197619D01*
X134651904Y-59292857D01*
X134604285Y-59483333D01*
X134604285Y-59721428D01*
X134651904Y-59911904D01*
X134699523Y-60007142D01*
X134747142Y-60054761D01*
X134842380Y-60102380D01*
X134937619Y-60102380D01*
X135032857Y-60054761D01*
X135080476Y-60007142D01*
X135128095Y-59911904D01*
X135175714Y-59721428D01*
X135175714Y-59483333D01*
X135128095Y-59292857D01*
X135080476Y-59197619D01*
X135032857Y-59150000D01*
X134937619Y-59102380D01*
%TO.C,Q5*%
X148955444Y-60184181D02*
X149050682Y-60136562D01*
X149145920Y-60041323D01*
X149288777Y-59898466D01*
X149384015Y-59850847D01*
X149479253Y-59850847D01*
X149431634Y-60088942D02*
X149526872Y-60041323D01*
X149622110Y-59946085D01*
X149669729Y-59755609D01*
X149669729Y-59422276D01*
X149622110Y-59231800D01*
X149526872Y-59136562D01*
X149431634Y-59088942D01*
X149241158Y-59088942D01*
X149145920Y-59136562D01*
X149050682Y-59231800D01*
X149003063Y-59422276D01*
X149003063Y-59755609D01*
X149050682Y-59946085D01*
X149145920Y-60041323D01*
X149241158Y-60088942D01*
X149431634Y-60088942D01*
X148098301Y-59088942D02*
X148574491Y-59088942D01*
X148622110Y-59565133D01*
X148574491Y-59517514D01*
X148479253Y-59469895D01*
X148241158Y-59469895D01*
X148145920Y-59517514D01*
X148098301Y-59565133D01*
X148050682Y-59660371D01*
X148050682Y-59898466D01*
X148098301Y-59993704D01*
X148145920Y-60041323D01*
X148241158Y-60088942D01*
X148479253Y-60088942D01*
X148574491Y-60041323D01*
X148622110Y-59993704D01*
%TO.C,Q9*%
X142335238Y-60197619D02*
X142430476Y-60150000D01*
X142525714Y-60054761D01*
X142668571Y-59911904D01*
X142763809Y-59864285D01*
X142859047Y-59864285D01*
X142811428Y-60102380D02*
X142906666Y-60054761D01*
X143001904Y-59959523D01*
X143049523Y-59769047D01*
X143049523Y-59435714D01*
X143001904Y-59245238D01*
X142906666Y-59150000D01*
X142811428Y-59102380D01*
X142620952Y-59102380D01*
X142525714Y-59150000D01*
X142430476Y-59245238D01*
X142382857Y-59435714D01*
X142382857Y-59769047D01*
X142430476Y-59959523D01*
X142525714Y-60054761D01*
X142620952Y-60102380D01*
X142811428Y-60102380D01*
X141906666Y-60102380D02*
X141716190Y-60102380D01*
X141620952Y-60054761D01*
X141573333Y-60007142D01*
X141478095Y-59864285D01*
X141430476Y-59673809D01*
X141430476Y-59292857D01*
X141478095Y-59197619D01*
X141525714Y-59150000D01*
X141620952Y-59102380D01*
X141811428Y-59102380D01*
X141906666Y-59150000D01*
X141954285Y-59197619D01*
X142001904Y-59292857D01*
X142001904Y-59530952D01*
X141954285Y-59626190D01*
X141906666Y-59673809D01*
X141811428Y-59721428D01*
X141620952Y-59721428D01*
X141525714Y-59673809D01*
X141478095Y-59626190D01*
X141430476Y-59530952D01*
%TO.C,Q6*%
X155265238Y-60197619D02*
X155360476Y-60150000D01*
X155455714Y-60054761D01*
X155598571Y-59911904D01*
X155693809Y-59864285D01*
X155789047Y-59864285D01*
X155741428Y-60102380D02*
X155836666Y-60054761D01*
X155931904Y-59959523D01*
X155979523Y-59769047D01*
X155979523Y-59435714D01*
X155931904Y-59245238D01*
X155836666Y-59150000D01*
X155741428Y-59102380D01*
X155550952Y-59102380D01*
X155455714Y-59150000D01*
X155360476Y-59245238D01*
X155312857Y-59435714D01*
X155312857Y-59769047D01*
X155360476Y-59959523D01*
X155455714Y-60054761D01*
X155550952Y-60102380D01*
X155741428Y-60102380D01*
X154455714Y-59102380D02*
X154646190Y-59102380D01*
X154741428Y-59150000D01*
X154789047Y-59197619D01*
X154884285Y-59340476D01*
X154931904Y-59530952D01*
X154931904Y-59911904D01*
X154884285Y-60007142D01*
X154836666Y-60054761D01*
X154741428Y-60102380D01*
X154550952Y-60102380D01*
X154455714Y-60054761D01*
X154408095Y-60007142D01*
X154360476Y-59911904D01*
X154360476Y-59673809D01*
X154408095Y-59578571D01*
X154455714Y-59530952D01*
X154550952Y-59483333D01*
X154741428Y-59483333D01*
X154836666Y-59530952D01*
X154884285Y-59578571D01*
X154931904Y-59673809D01*
%TO.C,Q7*%
X161385238Y-60197619D02*
X161480476Y-60150000D01*
X161575714Y-60054761D01*
X161718571Y-59911904D01*
X161813809Y-59864285D01*
X161909047Y-59864285D01*
X161861428Y-60102380D02*
X161956666Y-60054761D01*
X162051904Y-59959523D01*
X162099523Y-59769047D01*
X162099523Y-59435714D01*
X162051904Y-59245238D01*
X161956666Y-59150000D01*
X161861428Y-59102380D01*
X161670952Y-59102380D01*
X161575714Y-59150000D01*
X161480476Y-59245238D01*
X161432857Y-59435714D01*
X161432857Y-59769047D01*
X161480476Y-59959523D01*
X161575714Y-60054761D01*
X161670952Y-60102380D01*
X161861428Y-60102380D01*
X161099523Y-59102380D02*
X160432857Y-59102380D01*
X160861428Y-60102380D01*
%TO.C,Q8*%
X167735238Y-60197619D02*
X167830476Y-60150000D01*
X167925714Y-60054761D01*
X168068571Y-59911904D01*
X168163809Y-59864285D01*
X168259047Y-59864285D01*
X168211428Y-60102380D02*
X168306666Y-60054761D01*
X168401904Y-59959523D01*
X168449523Y-59769047D01*
X168449523Y-59435714D01*
X168401904Y-59245238D01*
X168306666Y-59150000D01*
X168211428Y-59102380D01*
X168020952Y-59102380D01*
X167925714Y-59150000D01*
X167830476Y-59245238D01*
X167782857Y-59435714D01*
X167782857Y-59769047D01*
X167830476Y-59959523D01*
X167925714Y-60054761D01*
X168020952Y-60102380D01*
X168211428Y-60102380D01*
X167211428Y-59530952D02*
X167306666Y-59483333D01*
X167354285Y-59435714D01*
X167401904Y-59340476D01*
X167401904Y-59292857D01*
X167354285Y-59197619D01*
X167306666Y-59150000D01*
X167211428Y-59102380D01*
X167020952Y-59102380D01*
X166925714Y-59150000D01*
X166878095Y-59197619D01*
X166830476Y-59292857D01*
X166830476Y-59340476D01*
X166878095Y-59435714D01*
X166925714Y-59483333D01*
X167020952Y-59530952D01*
X167211428Y-59530952D01*
X167306666Y-59578571D01*
X167354285Y-59626190D01*
X167401904Y-59721428D01*
X167401904Y-59911904D01*
X167354285Y-60007142D01*
X167306666Y-60054761D01*
X167211428Y-60102380D01*
X167020952Y-60102380D01*
X166925714Y-60054761D01*
X166878095Y-60007142D01*
X166830476Y-59911904D01*
X166830476Y-59721428D01*
X166878095Y-59626190D01*
X166925714Y-59578571D01*
X167020952Y-59530952D01*
D11*
%TO.C,Q10*%
X136650000Y-58730000D02*
X133490000Y-58730000D01*
X136650000Y-55570000D02*
X135190000Y-55570000D01*
X136650000Y-55570000D02*
X136650000Y-56500000D01*
X136650000Y-58730000D02*
X136650000Y-57800000D01*
%TO.C,Q5*%
X149620206Y-55556562D02*
X149620206Y-56486562D01*
X149620206Y-55556562D02*
X148160206Y-55556562D01*
X149620206Y-58716562D02*
X149620206Y-57786562D01*
X149620206Y-58716562D02*
X146460206Y-58716562D01*
%TO.C,Q9*%
X143000000Y-55570000D02*
X141540000Y-55570000D01*
X143000000Y-55570000D02*
X143000000Y-56500000D01*
X143000000Y-58730000D02*
X139840000Y-58730000D01*
X143000000Y-58730000D02*
X143000000Y-57800000D01*
%TO.C,Q6*%
X155930000Y-55570000D02*
X155930000Y-56500000D01*
X155930000Y-58730000D02*
X155930000Y-57800000D01*
X155930000Y-55570000D02*
X154470000Y-55570000D01*
X155930000Y-58730000D02*
X152770000Y-58730000D01*
%TO.C,Q7*%
X162050000Y-55570000D02*
X162050000Y-56500000D01*
X162050000Y-58730000D02*
X158890000Y-58730000D01*
X162050000Y-58730000D02*
X162050000Y-57800000D01*
X162050000Y-55570000D02*
X160590000Y-55570000D01*
%TO.C,Q8*%
X168400000Y-55570000D02*
X166940000Y-55570000D01*
X168400000Y-58730000D02*
X165240000Y-58730000D01*
X168400000Y-58730000D02*
X168400000Y-57800000D01*
X168400000Y-55570000D02*
X168400000Y-56500000D01*
%TD*%
M02*
