%TF.GenerationSoftware,KiCad,Pcbnew,6.0.4*%
%TF.CreationDate,2022-04-27T14:32:22+02:00*%
%TF.ProjectId,Antenna-controller,416e7465-6e6e-4612-9d63-6f6e74726f6c,rev?*%
%TF.SameCoordinates,Original*%
%TF.FileFunction,Copper,L1,Top*%
%TF.FilePolarity,Positive*%
%FSLAX46Y46*%
G04 Gerber Fmt 4.6, Leading zero omitted, Abs format (unit mm)*
G04 Created by KiCad (PCBNEW 6.0.4) date 2022-04-27 14:32:22*
%MOMM*%
%LPD*%
G01*
G04 APERTURE LIST*
%TA.AperFunction,ComponentPad*%
%ADD10O,1.600000X1.600000*%
%TD*%
%TA.AperFunction,ComponentPad*%
%ADD11C,1.600000*%
%TD*%
%TA.AperFunction,ComponentPad*%
%ADD12R,1.717500X1.800000*%
%TD*%
%TA.AperFunction,ComponentPad*%
%ADD13O,1.717500X1.800000*%
%TD*%
%TA.AperFunction,ComponentPad*%
%ADD14R,1.905000X2.000000*%
%TD*%
%TA.AperFunction,ComponentPad*%
%ADD15O,1.905000X2.000000*%
%TD*%
%TA.AperFunction,ComponentPad*%
%ADD16R,2.400000X1.600000*%
%TD*%
%TA.AperFunction,ComponentPad*%
%ADD17O,2.400000X1.600000*%
%TD*%
%TA.AperFunction,ComponentPad*%
%ADD18R,3.960000X1.980000*%
%TD*%
%TA.AperFunction,ComponentPad*%
%ADD19O,3.960000X1.980000*%
%TD*%
%TA.AperFunction,ComponentPad*%
%ADD20R,1.700000X1.700000*%
%TD*%
%TA.AperFunction,ComponentPad*%
%ADD21O,1.700000X1.700000*%
%TD*%
%TA.AperFunction,Conductor*%
%ADD22C,0.500000*%
%TD*%
%TA.AperFunction,Conductor*%
%ADD23C,0.750000*%
%TD*%
G04 APERTURE END LIST*
D10*
%TO.P,R13,2*%
%TO.N,5V*%
X128524000Y-99568000D03*
D11*
%TO.P,R13,1*%
%TO.N,imu_scl_5V*%
X128524000Y-89408000D03*
%TD*%
%TO.P,R11,1*%
%TO.N,imu_sda_3.3V*%
X132080000Y-72644000D03*
D10*
%TO.P,R11,2*%
%TO.N,+3V3*%
X132080000Y-82804000D03*
%TD*%
D12*
%TO.P,Q4,1,G*%
%TO.N,rev*%
X176276000Y-116586000D03*
D13*
%TO.P,Q4,2,D*%
%TO.N,Net-(M1-Pad2)*%
X173986000Y-116586000D03*
%TO.P,Q4,3,S*%
%TO.N,GND*%
X171696000Y-116586000D03*
%TD*%
D14*
%TO.P,Q3,1,G*%
%TO.N,rev*%
X171736000Y-107816000D03*
D15*
%TO.P,Q3,2,D*%
%TO.N,+6V*%
X174276000Y-107816000D03*
%TO.P,Q3,3,S*%
%TO.N,Net-(M1-Pad2)*%
X176816000Y-107816000D03*
%TD*%
D12*
%TO.P,Q2,1,G*%
%TO.N,forward*%
X165566000Y-116771000D03*
D13*
%TO.P,Q2,2,D*%
%TO.N,Net-(M1-Pad1)*%
X163276000Y-116771000D03*
%TO.P,Q2,3,S*%
%TO.N,GND*%
X160986000Y-116771000D03*
%TD*%
D14*
%TO.P,Q1,1,G*%
%TO.N,forward*%
X160236000Y-107816000D03*
D15*
%TO.P,Q1,2,D*%
%TO.N,+6V*%
X162776000Y-107816000D03*
%TO.P,Q1,3,S*%
%TO.N,Net-(M1-Pad1)*%
X165316000Y-107816000D03*
%TD*%
D10*
%TO.P,R12,2*%
%TO.N,+3V3*%
X124738000Y-82804000D03*
D11*
%TO.P,R12,1*%
%TO.N,imu_scl_3.3V*%
X124738000Y-72644000D03*
%TD*%
D10*
%TO.P,R15,2*%
%TO.N,5V*%
X160274000Y-99568000D03*
D11*
%TO.P,R15,1*%
%TO.N,SS1_5V*%
X160274000Y-89408000D03*
%TD*%
D16*
%TO.P,U1,1,A1*%
%TO.N,Net-(R5-Pad2)*%
X139517500Y-106690000D03*
D17*
%TO.P,U1,2,C1*%
%TO.N,GND*%
X139517500Y-109230000D03*
%TO.P,U1,3,C2*%
X139517500Y-111770000D03*
%TO.P,U1,4,A2*%
%TO.N,Net-(R6-Pad2)*%
X139517500Y-114310000D03*
%TO.P,U1,5,E2*%
%TO.N,forward*%
X149677500Y-114310000D03*
%TO.P,U1,6,C2*%
%TO.N,+6V*%
X149677500Y-111770000D03*
%TO.P,U1,7,C1*%
X149677500Y-109230000D03*
%TO.P,U1,8,E1*%
%TO.N,rev*%
X149677500Y-106690000D03*
%TD*%
D18*
%TO.P,M1,1,+*%
%TO.N,Net-(M1-Pad1)*%
X189500000Y-112014000D03*
D19*
%TO.P,M1,2,-*%
%TO.N,Net-(M1-Pad2)*%
X189500000Y-107014000D03*
%TD*%
D20*
%TO.P,s-lite1,1,3.3V*%
%TO.N,+3V3*%
X186125000Y-55880000D03*
D21*
%TO.P,s-lite1,2,5V*%
%TO.N,5V*%
X186125000Y-58420000D03*
%TO.P,s-lite1,3,A0/MOSI1*%
%TO.N,MOSI_5V*%
X186125000Y-60960000D03*
%TO.P,s-lite1,4,A1/MISO1*%
%TO.N,MISO_5V*%
X186125000Y-63500000D03*
%TO.P,s-lite1,5,A2/SCK1*%
%TO.N,SCK_5V*%
X186125000Y-66040000D03*
%TO.P,s-lite1,6,AUX1/A5/SS1*%
%TO.N,SS1_5V*%
X186125000Y-68580000D03*
%TO.P,s-lite1,7,A3/SDA0*%
%TO.N,imu_sda_5V*%
X186125000Y-71120000D03*
%TO.P,s-lite1,8,A4/SCL0*%
%TO.N,imu_scl_5V*%
X186125000Y-73660000D03*
%TO.P,s-lite1,9,D1/TX0*%
%TO.N,rev_input_5V*%
X186125000Y-76200000D03*
%TO.P,s-lite1,10,D0/RX0*%
%TO.N,forward_input_5V*%
X186125000Y-78740000D03*
%TO.P,s-lite1,11,GND*%
%TO.N,GND*%
X186125000Y-81280000D03*
%TD*%
D11*
%TO.P,R17,1*%
%TO.N,MISO_5V*%
X147828000Y-89408000D03*
D10*
%TO.P,R17,2*%
%TO.N,5V*%
X147828000Y-99568000D03*
%TD*%
D11*
%TO.P,R1,1*%
%TO.N,forward*%
X168656000Y-102616000D03*
D10*
%TO.P,R1,2*%
%TO.N,GND*%
X158496000Y-102616000D03*
%TD*%
D20*
%TO.P,U2,1,vcc*%
%TO.N,+3V3*%
X133619000Y-56445000D03*
D21*
%TO.P,U2,2,gnd*%
%TO.N,GND*%
X136159000Y-56445000D03*
%TO.P,U2,3,scl*%
%TO.N,imu_scl_3.3V*%
X138699000Y-56445000D03*
%TO.P,U2,4,sda*%
%TO.N,imu_sda_3.3V*%
X141239000Y-56445000D03*
%TO.P,U2,5,xda*%
%TO.N,unconnected-(U2-Pad5)*%
X143779000Y-56445000D03*
%TO.P,U2,6,xdl*%
%TO.N,unconnected-(U2-Pad6)*%
X146319000Y-56445000D03*
%TO.P,U2,7,ado*%
%TO.N,unconnected-(U2-Pad7)*%
X148859000Y-56445000D03*
%TO.P,U2,8,int*%
%TO.N,unconnected-(U2-Pad8)*%
X151399000Y-56445000D03*
%TD*%
D10*
%TO.P,R16,2*%
%TO.N,5V*%
X154178000Y-99568000D03*
D11*
%TO.P,R16,1*%
%TO.N,MOSI_5V*%
X154178000Y-89408000D03*
%TD*%
%TO.P,R10,1*%
%TO.N,SS1_3.3V*%
X162306000Y-72419511D03*
D10*
%TO.P,R10,2*%
%TO.N,+3V3*%
X162306000Y-82579511D03*
%TD*%
%TO.P,R14,2*%
%TO.N,5V*%
X134874000Y-99568000D03*
D11*
%TO.P,R14,1*%
%TO.N,imu_sda_5V*%
X134874000Y-89408000D03*
%TD*%
%TO.P,R5,1*%
%TO.N,rev_input_5V*%
X128270000Y-104140000D03*
D10*
%TO.P,R5,2*%
%TO.N,Net-(R5-Pad2)*%
X128270000Y-114300000D03*
%TD*%
D11*
%TO.P,R2,1*%
%TO.N,GND*%
X184150000Y-102108000D03*
D10*
%TO.P,R2,2*%
%TO.N,rev*%
X173990000Y-102108000D03*
%TD*%
D11*
%TO.P,R8,1*%
%TO.N,MISO_3.3V*%
X147828000Y-72419511D03*
D10*
%TO.P,R8,2*%
%TO.N,+3V3*%
X147828000Y-82579511D03*
%TD*%
D20*
%TO.P,J2,1,Pin_1*%
%TO.N,SCK_3.3V*%
X164592000Y-56388000D03*
D21*
%TO.P,J2,2,Pin_2*%
%TO.N,MISO_3.3V*%
X167132000Y-56388000D03*
%TO.P,J2,3,Pin_3*%
%TO.N,MOSI_3.3V*%
X169672000Y-56388000D03*
%TO.P,J2,4,Pin_4*%
%TO.N,SS1_3.3V*%
X172212000Y-56388000D03*
%TO.P,J2,5,Pin_5*%
%TO.N,+3V3*%
X174752000Y-56388000D03*
%TO.P,J2,6,Pin_6*%
%TO.N,GND*%
X177292000Y-56388000D03*
%TD*%
D11*
%TO.P,R7,1*%
%TO.N,SCK_3.3V*%
X140464757Y-72435000D03*
D10*
%TO.P,R7,2*%
%TO.N,+3V3*%
X140464757Y-82595000D03*
%TD*%
D11*
%TO.P,R18,1*%
%TO.N,SCK_5V*%
X141478000Y-89408000D03*
D10*
%TO.P,R18,2*%
%TO.N,5V*%
X141478000Y-99568000D03*
%TD*%
D11*
%TO.P,R9,1*%
%TO.N,MOSI_3.3V*%
X155956000Y-72419511D03*
D10*
%TO.P,R9,2*%
%TO.N,+3V3*%
X155956000Y-82579511D03*
%TD*%
D19*
%TO.P,J1,2,Pin_2*%
%TO.N,GND*%
X189500000Y-89265000D03*
D18*
%TO.P,J1,1,Pin_1*%
%TO.N,+6V*%
X189500000Y-94265000D03*
%TD*%
D11*
%TO.P,R6,1*%
%TO.N,forward_input_5V*%
X134620000Y-104140000D03*
D10*
%TO.P,R6,2*%
%TO.N,Net-(R6-Pad2)*%
X134620000Y-114300000D03*
%TD*%
D22*
%TO.N,+3V3*%
X162306000Y-82579511D02*
X155956000Y-82579511D01*
X174752000Y-56388000D02*
X174752000Y-70133511D01*
X174752000Y-70133511D02*
X162306000Y-82579511D01*
%TO.N,SS1_3.3V*%
X172212000Y-56388000D02*
X162306000Y-66294000D01*
X162306000Y-66294000D02*
X162306000Y-72419511D01*
%TO.N,MOSI_3.3V*%
X155956000Y-72419511D02*
X155956000Y-70104000D01*
X155956000Y-70104000D02*
X169672000Y-56388000D01*
%TO.N,MISO_3.3V*%
X147828000Y-72419511D02*
X151100489Y-72419511D01*
X151100489Y-72419511D02*
X167132000Y-56388000D01*
%TO.N,SCK_3.3V*%
X140464757Y-72435000D02*
X156511757Y-56388000D01*
X156511757Y-56388000D02*
X164592000Y-56388000D01*
%TO.N,imu_sda_3.3V*%
X132080000Y-72644000D02*
X141239000Y-63485000D01*
X141239000Y-63485000D02*
X141239000Y-56445000D01*
%TO.N,imu_scl_3.3V*%
X138699000Y-56445000D02*
X138699000Y-58683000D01*
X138699000Y-58683000D02*
X124738000Y-72644000D01*
%TO.N,+3V3*%
X133619000Y-56445000D02*
X123444000Y-66620000D01*
X123444000Y-72100213D02*
X123438489Y-72105724D01*
X123444000Y-73187787D02*
X123444000Y-80010000D01*
X123444000Y-66620000D02*
X123444000Y-72100213D01*
X123438489Y-72105724D02*
X123438489Y-73182276D01*
X123438489Y-73182276D02*
X123444000Y-73187787D01*
X123444000Y-80010000D02*
X124738000Y-81304000D01*
X124738000Y-81304000D02*
X124738000Y-82804000D01*
X124738000Y-82804000D02*
X132080000Y-82804000D01*
X140464757Y-82595000D02*
X132289000Y-82595000D01*
X132289000Y-82595000D02*
X132080000Y-82804000D01*
X147828000Y-82579511D02*
X140480246Y-82579511D01*
X140480246Y-82579511D02*
X140464757Y-82595000D01*
X155194000Y-82579511D02*
X147828000Y-82579511D01*
D23*
%TO.N,+6V*%
X149677500Y-109230000D02*
X150358000Y-109230000D01*
X150358000Y-109230000D02*
X153924000Y-105664000D01*
X161544000Y-105664000D02*
X162052000Y-106172000D01*
X153924000Y-105664000D02*
X161544000Y-105664000D01*
X162052000Y-106172000D02*
X162052000Y-107092000D01*
X162052000Y-107092000D02*
X162776000Y-107816000D01*
D22*
%TO.N,rev_input_5V*%
X128270000Y-104140000D02*
X140518462Y-91891538D01*
X140518462Y-91891538D02*
X167906481Y-91891538D01*
X167906481Y-91891538D02*
X183598019Y-76200000D01*
X183598019Y-76200000D02*
X186125000Y-76200000D01*
%TO.N,forward_input_5V*%
X134620000Y-104140000D02*
X141478000Y-97282000D01*
X141478000Y-97282000D02*
X168656000Y-97282000D01*
X168656000Y-97282000D02*
X173736000Y-92202000D01*
X173736000Y-92202000D02*
X173736000Y-87122000D01*
X173736000Y-87122000D02*
X182118000Y-78740000D01*
X182118000Y-78740000D02*
X186125000Y-78740000D01*
%TO.N,SS1_5V*%
X186125000Y-68580000D02*
X181102000Y-68580000D01*
X181102000Y-68580000D02*
X160274000Y-89408000D01*
D23*
%TO.N,rev*%
X149677500Y-106690000D02*
X151753020Y-104614480D01*
X151753020Y-104614480D02*
X168534480Y-104614480D01*
X168534480Y-104614480D02*
X171736000Y-107816000D01*
D22*
%TO.N,+3V3*%
X186125000Y-55880000D02*
X185283489Y-55038489D01*
X185283489Y-55038489D02*
X176101511Y-55038489D01*
X176101511Y-55038489D02*
X174752000Y-56388000D01*
D23*
%TO.N,rev*%
X176276000Y-116586000D02*
X176276000Y-112356000D01*
X176276000Y-112356000D02*
X171736000Y-107816000D01*
%TO.N,Net-(M1-Pad1)*%
X165316000Y-107816000D02*
X163276000Y-109856000D01*
X163276000Y-109856000D02*
X163276000Y-116771000D01*
%TD*%
%TA.AperFunction,Conductor*%
%TO.N,GND*%
G36*
X197433621Y-46028502D02*
G01*
X197480114Y-46082158D01*
X197491500Y-46134500D01*
X197491500Y-121365500D01*
X197471498Y-121433621D01*
X197417842Y-121480114D01*
X197365500Y-121491500D01*
X121134500Y-121491500D01*
X121066379Y-121471498D01*
X121019886Y-121417842D01*
X121008500Y-121365500D01*
X121008500Y-118054568D01*
X122937382Y-118054568D01*
X122937963Y-118059588D01*
X122937963Y-118059592D01*
X122945140Y-118121615D01*
X122966208Y-118303699D01*
X122967587Y-118308573D01*
X122967588Y-118308577D01*
X123006526Y-118446181D01*
X123034494Y-118545017D01*
X123036628Y-118549592D01*
X123036630Y-118549599D01*
X123138347Y-118767731D01*
X123140484Y-118772313D01*
X123143326Y-118776494D01*
X123143326Y-118776495D01*
X123278605Y-118975552D01*
X123278608Y-118975556D01*
X123281451Y-118979739D01*
X123284928Y-118983416D01*
X123284929Y-118983417D01*
X123385238Y-119089491D01*
X123453767Y-119161959D01*
X123457793Y-119165037D01*
X123457794Y-119165038D01*
X123648981Y-119311212D01*
X123648985Y-119311215D01*
X123653001Y-119314285D01*
X123874026Y-119432797D01*
X123878807Y-119434443D01*
X123878811Y-119434445D01*
X124104538Y-119512169D01*
X124111156Y-119514448D01*
X124214689Y-119532331D01*
X124354380Y-119556460D01*
X124354386Y-119556461D01*
X124358290Y-119557135D01*
X124362251Y-119557315D01*
X124362252Y-119557315D01*
X124386931Y-119558436D01*
X124386950Y-119558436D01*
X124388350Y-119558500D01*
X124563015Y-119558500D01*
X124565523Y-119558298D01*
X124565528Y-119558298D01*
X124744944Y-119543863D01*
X124744949Y-119543862D01*
X124749985Y-119543457D01*
X124754893Y-119542252D01*
X124754896Y-119542251D01*
X124988625Y-119484841D01*
X124993539Y-119483634D01*
X124998191Y-119481659D01*
X124998195Y-119481658D01*
X125219741Y-119387617D01*
X125219742Y-119387617D01*
X125224396Y-119385641D01*
X125436615Y-119252000D01*
X125624738Y-119086147D01*
X125783924Y-118892351D01*
X125910078Y-118675596D01*
X125999955Y-118441461D01*
X126051241Y-118195967D01*
X126051834Y-118182920D01*
X126057662Y-118054568D01*
X126062618Y-117945432D01*
X126060242Y-117924891D01*
X126040292Y-117752481D01*
X126033792Y-117696301D01*
X126030874Y-117685987D01*
X125966884Y-117459852D01*
X125966883Y-117459850D01*
X125965506Y-117454983D01*
X125963372Y-117450408D01*
X125963370Y-117450401D01*
X125861653Y-117232269D01*
X125861651Y-117232265D01*
X125859516Y-117227687D01*
X125856674Y-117223505D01*
X125732239Y-117040405D01*
X159633870Y-117040405D01*
X159635258Y-117048530D01*
X159690848Y-117262708D01*
X159694381Y-117272738D01*
X159785264Y-117474491D01*
X159790433Y-117483777D01*
X159914010Y-117667333D01*
X159920669Y-117675616D01*
X160073402Y-117835722D01*
X160081372Y-117842774D01*
X160258901Y-117974858D01*
X160267931Y-117980457D01*
X160465178Y-118080743D01*
X160475039Y-118084746D01*
X160686353Y-118150362D01*
X160696733Y-118152644D01*
X160714043Y-118154939D01*
X160728207Y-118152743D01*
X160732000Y-118139556D01*
X160732000Y-117043115D01*
X160727525Y-117027876D01*
X160726135Y-117026671D01*
X160718452Y-117025000D01*
X159650475Y-117025000D01*
X159635795Y-117029310D01*
X159633870Y-117040405D01*
X125732239Y-117040405D01*
X125721395Y-117024448D01*
X125721392Y-117024444D01*
X125718549Y-117020261D01*
X125617925Y-116913853D01*
X125549713Y-116841721D01*
X125546233Y-116838041D01*
X125542206Y-116834962D01*
X125351019Y-116688788D01*
X125351015Y-116688785D01*
X125346999Y-116685715D01*
X125125974Y-116567203D01*
X125121193Y-116565557D01*
X125121189Y-116565555D01*
X124928405Y-116499174D01*
X159638747Y-116499174D01*
X159640165Y-116512413D01*
X159654804Y-116517000D01*
X160713885Y-116517000D01*
X160729124Y-116512525D01*
X160730329Y-116511135D01*
X160732000Y-116503452D01*
X160732000Y-115404617D01*
X160728027Y-115391086D01*
X160717420Y-115389561D01*
X160597057Y-115414816D01*
X160586859Y-115417876D01*
X160381066Y-115499147D01*
X160371534Y-115503878D01*
X160182364Y-115618670D01*
X160173774Y-115624934D01*
X160006652Y-115769954D01*
X159999232Y-115777584D01*
X159858938Y-115948687D01*
X159852912Y-115957454D01*
X159743452Y-116149748D01*
X159738987Y-116159412D01*
X159663490Y-116367403D01*
X159660719Y-116377670D01*
X159638747Y-116499174D01*
X124928405Y-116499174D01*
X124893633Y-116487201D01*
X124888844Y-116485552D01*
X124785311Y-116467669D01*
X124645620Y-116443540D01*
X124645614Y-116443539D01*
X124641710Y-116442865D01*
X124637749Y-116442685D01*
X124637748Y-116442685D01*
X124613069Y-116441564D01*
X124613050Y-116441564D01*
X124611650Y-116441500D01*
X124436985Y-116441500D01*
X124434477Y-116441702D01*
X124434472Y-116441702D01*
X124255056Y-116456137D01*
X124255051Y-116456138D01*
X124250015Y-116456543D01*
X124245107Y-116457748D01*
X124245104Y-116457749D01*
X124076454Y-116499174D01*
X124006461Y-116516366D01*
X124001809Y-116518341D01*
X124001805Y-116518342D01*
X123881061Y-116569595D01*
X123775604Y-116614359D01*
X123563385Y-116748000D01*
X123375262Y-116913853D01*
X123216076Y-117107649D01*
X123089922Y-117324404D01*
X123000045Y-117558539D01*
X122999012Y-117563485D01*
X122999010Y-117563491D01*
X122963660Y-117732705D01*
X122948759Y-117804033D01*
X122948530Y-117809082D01*
X122948529Y-117809088D01*
X122943704Y-117915349D01*
X122937382Y-118054568D01*
X121008500Y-118054568D01*
X121008500Y-114300000D01*
X126956502Y-114300000D01*
X126976457Y-114528087D01*
X126977881Y-114533400D01*
X126977881Y-114533402D01*
X126979137Y-114538087D01*
X127035716Y-114749243D01*
X127038039Y-114754224D01*
X127038039Y-114754225D01*
X127130151Y-114951762D01*
X127130154Y-114951767D01*
X127132477Y-114956749D01*
X127263802Y-115144300D01*
X127425700Y-115306198D01*
X127430208Y-115309355D01*
X127430211Y-115309357D01*
X127444493Y-115319357D01*
X127613251Y-115437523D01*
X127618233Y-115439846D01*
X127618238Y-115439849D01*
X127789672Y-115519789D01*
X127820757Y-115534284D01*
X127826065Y-115535706D01*
X127826067Y-115535707D01*
X128036598Y-115592119D01*
X128036600Y-115592119D01*
X128041913Y-115593543D01*
X128270000Y-115613498D01*
X128498087Y-115593543D01*
X128503400Y-115592119D01*
X128503402Y-115592119D01*
X128713933Y-115535707D01*
X128713935Y-115535706D01*
X128719243Y-115534284D01*
X128750328Y-115519789D01*
X128921762Y-115439849D01*
X128921767Y-115439846D01*
X128926749Y-115437523D01*
X129095507Y-115319357D01*
X129109789Y-115309357D01*
X129109792Y-115309355D01*
X129114300Y-115306198D01*
X129276198Y-115144300D01*
X129407523Y-114956749D01*
X129409846Y-114951767D01*
X129409849Y-114951762D01*
X129501961Y-114754225D01*
X129501961Y-114754224D01*
X129504284Y-114749243D01*
X129560864Y-114538087D01*
X129562119Y-114533402D01*
X129562119Y-114533400D01*
X129563543Y-114528087D01*
X129583498Y-114300000D01*
X133306502Y-114300000D01*
X133326457Y-114528087D01*
X133327881Y-114533400D01*
X133327881Y-114533402D01*
X133329137Y-114538087D01*
X133385716Y-114749243D01*
X133388039Y-114754224D01*
X133388039Y-114754225D01*
X133480151Y-114951762D01*
X133480154Y-114951767D01*
X133482477Y-114956749D01*
X133613802Y-115144300D01*
X133775700Y-115306198D01*
X133780208Y-115309355D01*
X133780211Y-115309357D01*
X133794493Y-115319357D01*
X133963251Y-115437523D01*
X133968233Y-115439846D01*
X133968238Y-115439849D01*
X134139672Y-115519789D01*
X134170757Y-115534284D01*
X134176065Y-115535706D01*
X134176067Y-115535707D01*
X134386598Y-115592119D01*
X134386600Y-115592119D01*
X134391913Y-115593543D01*
X134620000Y-115613498D01*
X134848087Y-115593543D01*
X134853400Y-115592119D01*
X134853402Y-115592119D01*
X135063933Y-115535707D01*
X135063935Y-115535706D01*
X135069243Y-115534284D01*
X135100328Y-115519789D01*
X135271762Y-115439849D01*
X135271767Y-115439846D01*
X135276749Y-115437523D01*
X135445507Y-115319357D01*
X135459789Y-115309357D01*
X135459792Y-115309355D01*
X135464300Y-115306198D01*
X135626198Y-115144300D01*
X135757523Y-114956749D01*
X135759846Y-114951767D01*
X135759849Y-114951762D01*
X135851961Y-114754225D01*
X135851961Y-114754224D01*
X135854284Y-114749243D01*
X135910864Y-114538087D01*
X135912119Y-114533402D01*
X135912119Y-114533400D01*
X135913543Y-114528087D01*
X135932623Y-114310000D01*
X137804002Y-114310000D01*
X137823957Y-114538087D01*
X137825381Y-114543400D01*
X137825381Y-114543402D01*
X137879114Y-114743933D01*
X137883216Y-114759243D01*
X137885539Y-114764224D01*
X137885539Y-114764225D01*
X137977651Y-114961762D01*
X137977654Y-114961767D01*
X137979977Y-114966749D01*
X137983134Y-114971257D01*
X138107029Y-115148197D01*
X138111302Y-115154300D01*
X138273200Y-115316198D01*
X138277708Y-115319355D01*
X138277711Y-115319357D01*
X138339326Y-115362500D01*
X138460751Y-115447523D01*
X138465733Y-115449846D01*
X138465738Y-115449849D01*
X138649863Y-115535707D01*
X138668257Y-115544284D01*
X138673565Y-115545706D01*
X138673567Y-115545707D01*
X138884098Y-115602119D01*
X138884100Y-115602119D01*
X138889413Y-115603543D01*
X138988980Y-115612254D01*
X139057649Y-115618262D01*
X139057656Y-115618262D01*
X139060373Y-115618500D01*
X139974627Y-115618500D01*
X139977344Y-115618262D01*
X139977351Y-115618262D01*
X140046020Y-115612254D01*
X140145587Y-115603543D01*
X140150900Y-115602119D01*
X140150902Y-115602119D01*
X140361433Y-115545707D01*
X140361435Y-115545706D01*
X140366743Y-115544284D01*
X140385137Y-115535707D01*
X140569262Y-115449849D01*
X140569267Y-115449846D01*
X140574249Y-115447523D01*
X140695674Y-115362500D01*
X140757289Y-115319357D01*
X140757292Y-115319355D01*
X140761800Y-115316198D01*
X140923698Y-115154300D01*
X140927972Y-115148197D01*
X141051866Y-114971257D01*
X141055023Y-114966749D01*
X141057346Y-114961767D01*
X141057349Y-114961762D01*
X141149461Y-114764225D01*
X141149461Y-114764224D01*
X141151784Y-114759243D01*
X141155887Y-114743933D01*
X141209619Y-114543402D01*
X141209619Y-114543400D01*
X141211043Y-114538087D01*
X141230998Y-114310000D01*
X147964002Y-114310000D01*
X147983957Y-114538087D01*
X147985381Y-114543400D01*
X147985381Y-114543402D01*
X148039114Y-114743933D01*
X148043216Y-114759243D01*
X148045539Y-114764224D01*
X148045539Y-114764225D01*
X148137651Y-114961762D01*
X148137654Y-114961767D01*
X148139977Y-114966749D01*
X148143134Y-114971257D01*
X148267029Y-115148197D01*
X148271302Y-115154300D01*
X148433200Y-115316198D01*
X148437708Y-115319355D01*
X148437711Y-115319357D01*
X148499326Y-115362500D01*
X148620751Y-115447523D01*
X148625733Y-115449846D01*
X148625738Y-115449849D01*
X148809863Y-115535707D01*
X148828257Y-115544284D01*
X148833565Y-115545706D01*
X148833567Y-115545707D01*
X149044098Y-115602119D01*
X149044100Y-115602119D01*
X149049413Y-115603543D01*
X149148980Y-115612254D01*
X149217649Y-115618262D01*
X149217656Y-115618262D01*
X149220373Y-115618500D01*
X150134627Y-115618500D01*
X150137344Y-115618262D01*
X150137351Y-115618262D01*
X150206020Y-115612254D01*
X150305587Y-115603543D01*
X150310900Y-115602119D01*
X150310902Y-115602119D01*
X150521433Y-115545707D01*
X150521435Y-115545706D01*
X150526743Y-115544284D01*
X150545137Y-115535707D01*
X150729262Y-115449849D01*
X150729267Y-115449846D01*
X150734249Y-115447523D01*
X150855674Y-115362500D01*
X150917289Y-115319357D01*
X150917292Y-115319355D01*
X150921800Y-115316198D01*
X151083698Y-115154300D01*
X151087972Y-115148197D01*
X151211866Y-114971257D01*
X151215023Y-114966749D01*
X151217346Y-114961767D01*
X151217349Y-114961762D01*
X151309461Y-114764225D01*
X151309461Y-114764224D01*
X151311784Y-114759243D01*
X151315887Y-114743933D01*
X151369619Y-114543402D01*
X151369619Y-114543400D01*
X151371043Y-114538087D01*
X151390998Y-114310000D01*
X151371043Y-114081913D01*
X151369619Y-114076598D01*
X151313207Y-113866067D01*
X151313206Y-113866065D01*
X151311784Y-113860757D01*
X151304798Y-113845775D01*
X151217349Y-113658238D01*
X151217346Y-113658233D01*
X151215023Y-113653251D01*
X151116468Y-113512500D01*
X151086857Y-113470211D01*
X151086855Y-113470208D01*
X151083698Y-113465700D01*
X150921800Y-113303802D01*
X150917292Y-113300645D01*
X150917289Y-113300643D01*
X150833962Y-113242297D01*
X150734249Y-113172477D01*
X150729267Y-113170154D01*
X150729262Y-113170151D01*
X150695043Y-113154195D01*
X150641758Y-113107278D01*
X150622297Y-113039001D01*
X150642839Y-112971041D01*
X150695043Y-112925805D01*
X150729262Y-112909849D01*
X150729267Y-112909846D01*
X150734249Y-112907523D01*
X150839111Y-112834098D01*
X150917289Y-112779357D01*
X150917292Y-112779355D01*
X150921800Y-112776198D01*
X151083698Y-112614300D01*
X151215023Y-112426749D01*
X151217346Y-112421767D01*
X151217349Y-112421762D01*
X151309461Y-112224225D01*
X151309461Y-112224224D01*
X151311784Y-112219243D01*
X151371043Y-111998087D01*
X151390998Y-111770000D01*
X151371043Y-111541913D01*
X151360744Y-111503478D01*
X151313207Y-111326067D01*
X151313206Y-111326065D01*
X151311784Y-111320757D01*
X151217466Y-111118489D01*
X151217349Y-111118238D01*
X151217346Y-111118233D01*
X151215023Y-111113251D01*
X151083698Y-110925700D01*
X150921800Y-110763802D01*
X150917292Y-110760645D01*
X150917289Y-110760643D01*
X150766926Y-110655358D01*
X150734249Y-110632477D01*
X150729267Y-110630154D01*
X150729262Y-110630151D01*
X150695043Y-110614195D01*
X150641758Y-110567278D01*
X150622297Y-110499001D01*
X150642839Y-110431041D01*
X150695043Y-110385805D01*
X150729262Y-110369849D01*
X150729267Y-110369846D01*
X150734249Y-110367523D01*
X150867601Y-110274149D01*
X150917289Y-110239357D01*
X150917292Y-110239355D01*
X150921800Y-110236198D01*
X151083698Y-110074300D01*
X151215023Y-109886749D01*
X151217346Y-109881767D01*
X151217349Y-109881762D01*
X151297136Y-109710656D01*
X151311784Y-109679243D01*
X151359257Y-109502073D01*
X151391869Y-109445589D01*
X152821583Y-108015875D01*
X154253052Y-106584405D01*
X154315364Y-106550379D01*
X154342147Y-106547500D01*
X158660909Y-106547500D01*
X158729030Y-106567502D01*
X158775523Y-106621158D01*
X158785627Y-106691432D01*
X158784108Y-106699407D01*
X158781755Y-106705684D01*
X158775000Y-106767866D01*
X158775000Y-108864134D01*
X158781755Y-108926316D01*
X158832885Y-109062705D01*
X158920239Y-109179261D01*
X159036795Y-109266615D01*
X159173184Y-109317745D01*
X159235366Y-109324500D01*
X161236634Y-109324500D01*
X161298816Y-109317745D01*
X161435205Y-109266615D01*
X161551761Y-109179261D01*
X161639115Y-109062705D01*
X161646573Y-109042811D01*
X161689213Y-108986047D01*
X161755774Y-108961346D01*
X161825123Y-108976553D01*
X161842647Y-108988158D01*
X161960670Y-109081367D01*
X161960675Y-109081370D01*
X161964724Y-109084568D01*
X161969240Y-109087061D01*
X161969243Y-109087063D01*
X162170526Y-109198177D01*
X162170530Y-109198179D01*
X162175050Y-109200674D01*
X162179919Y-109202398D01*
X162179923Y-109202400D01*
X162273324Y-109235475D01*
X162401515Y-109280870D01*
X162404601Y-109281420D01*
X162464845Y-109317853D01*
X162496089Y-109381605D01*
X162487906Y-109452129D01*
X162481027Y-109465932D01*
X162476773Y-109473300D01*
X162464436Y-109494669D01*
X162462395Y-109500949D01*
X162462392Y-109500957D01*
X162460292Y-109507421D01*
X162452728Y-109525683D01*
X162449637Y-109531749D01*
X162449634Y-109531758D01*
X162446638Y-109537637D01*
X162444929Y-109544015D01*
X162429444Y-109601804D01*
X162427578Y-109608106D01*
X162407046Y-109671298D01*
X162406356Y-109677866D01*
X162405645Y-109684628D01*
X162402042Y-109704071D01*
X162398570Y-109717029D01*
X162398225Y-109723619D01*
X162398224Y-109723623D01*
X162395093Y-109783367D01*
X162394577Y-109789931D01*
X162392500Y-109809694D01*
X162392500Y-109829555D01*
X162392327Y-109836150D01*
X162389439Y-109891257D01*
X162388850Y-109902493D01*
X162389882Y-109909007D01*
X162390949Y-109915744D01*
X162392500Y-109935456D01*
X162392500Y-115628633D01*
X162372498Y-115696754D01*
X162349081Y-115723798D01*
X162297521Y-115768540D01*
X162292260Y-115773105D01*
X162230063Y-115848960D01*
X162171406Y-115888952D01*
X162100436Y-115890884D01*
X162041461Y-115856038D01*
X161898598Y-115706278D01*
X161890628Y-115699226D01*
X161713099Y-115567142D01*
X161704069Y-115561543D01*
X161506822Y-115461257D01*
X161496961Y-115457254D01*
X161285647Y-115391638D01*
X161275267Y-115389356D01*
X161257957Y-115387061D01*
X161243793Y-115389257D01*
X161240000Y-115402444D01*
X161240000Y-118137383D01*
X161243973Y-118150914D01*
X161254580Y-118152439D01*
X161374943Y-118127184D01*
X161385141Y-118124124D01*
X161590934Y-118042853D01*
X161600466Y-118038122D01*
X161789636Y-117923330D01*
X161798226Y-117917066D01*
X161965348Y-117772046D01*
X161972766Y-117764417D01*
X162031268Y-117693068D01*
X162089928Y-117653073D01*
X162160898Y-117651141D01*
X162219873Y-117685987D01*
X162324302Y-117795457D01*
X162366757Y-117839962D01*
X162371045Y-117843152D01*
X162371048Y-117843155D01*
X162548635Y-117975283D01*
X162548638Y-117975285D01*
X162552915Y-117978467D01*
X162557665Y-117980882D01*
X162754078Y-118080743D01*
X162759748Y-118083626D01*
X162870545Y-118118029D01*
X162976239Y-118150849D01*
X162976245Y-118150850D01*
X162981342Y-118152433D01*
X163105111Y-118168838D01*
X163206077Y-118182220D01*
X163206081Y-118182220D01*
X163211361Y-118182920D01*
X163216690Y-118182720D01*
X163216692Y-118182720D01*
X163327295Y-118178567D01*
X163443228Y-118174215D01*
X163670314Y-118126567D01*
X163675270Y-118124610D01*
X163675276Y-118124608D01*
X163852627Y-118054568D01*
X163886125Y-118041339D01*
X164057278Y-117937481D01*
X164079928Y-117923737D01*
X164079929Y-117923736D01*
X164084491Y-117920968D01*
X164088521Y-117917471D01*
X164092834Y-117914326D01*
X164093580Y-117915349D01*
X164152616Y-117888340D01*
X164222897Y-117898398D01*
X164271456Y-117937481D01*
X164307048Y-117984971D01*
X164343989Y-118034261D01*
X164460545Y-118121615D01*
X164596934Y-118172745D01*
X164659116Y-118179500D01*
X166472884Y-118179500D01*
X166535066Y-118172745D01*
X166671455Y-118121615D01*
X166760915Y-118054568D01*
X192437382Y-118054568D01*
X192437963Y-118059588D01*
X192437963Y-118059592D01*
X192445140Y-118121615D01*
X192466208Y-118303699D01*
X192467587Y-118308573D01*
X192467588Y-118308577D01*
X192506526Y-118446181D01*
X192534494Y-118545017D01*
X192536628Y-118549592D01*
X192536630Y-118549599D01*
X192638347Y-118767731D01*
X192640484Y-118772313D01*
X192643326Y-118776494D01*
X192643326Y-118776495D01*
X192778605Y-118975552D01*
X192778608Y-118975556D01*
X192781451Y-118979739D01*
X192784928Y-118983416D01*
X192784929Y-118983417D01*
X192885238Y-119089491D01*
X192953767Y-119161959D01*
X192957793Y-119165037D01*
X192957794Y-119165038D01*
X193148981Y-119311212D01*
X193148985Y-119311215D01*
X193153001Y-119314285D01*
X193374026Y-119432797D01*
X193378807Y-119434443D01*
X193378811Y-119434445D01*
X193604538Y-119512169D01*
X193611156Y-119514448D01*
X193714689Y-119532331D01*
X193854380Y-119556460D01*
X193854386Y-119556461D01*
X193858290Y-119557135D01*
X193862251Y-119557315D01*
X193862252Y-119557315D01*
X193886931Y-119558436D01*
X193886950Y-119558436D01*
X193888350Y-119558500D01*
X194063015Y-119558500D01*
X194065523Y-119558298D01*
X194065528Y-119558298D01*
X194244944Y-119543863D01*
X194244949Y-119543862D01*
X194249985Y-119543457D01*
X194254893Y-119542252D01*
X194254896Y-119542251D01*
X194488625Y-119484841D01*
X194493539Y-119483634D01*
X194498191Y-119481659D01*
X194498195Y-119481658D01*
X194719741Y-119387617D01*
X194719742Y-119387617D01*
X194724396Y-119385641D01*
X194936615Y-119252000D01*
X195124738Y-119086147D01*
X195283924Y-118892351D01*
X195410078Y-118675596D01*
X195499955Y-118441461D01*
X195551241Y-118195967D01*
X195551834Y-118182920D01*
X195557662Y-118054568D01*
X195562618Y-117945432D01*
X195560242Y-117924891D01*
X195540292Y-117752481D01*
X195533792Y-117696301D01*
X195530874Y-117685987D01*
X195466884Y-117459852D01*
X195466883Y-117459850D01*
X195465506Y-117454983D01*
X195463372Y-117450408D01*
X195463370Y-117450401D01*
X195361653Y-117232269D01*
X195361651Y-117232265D01*
X195359516Y-117227687D01*
X195356674Y-117223505D01*
X195221395Y-117024448D01*
X195221392Y-117024444D01*
X195218549Y-117020261D01*
X195117925Y-116913853D01*
X195049713Y-116841721D01*
X195046233Y-116838041D01*
X195042206Y-116834962D01*
X194851019Y-116688788D01*
X194851015Y-116688785D01*
X194846999Y-116685715D01*
X194625974Y-116567203D01*
X194621193Y-116565557D01*
X194621189Y-116565555D01*
X194393633Y-116487201D01*
X194388844Y-116485552D01*
X194285311Y-116467669D01*
X194145620Y-116443540D01*
X194145614Y-116443539D01*
X194141710Y-116442865D01*
X194137749Y-116442685D01*
X194137748Y-116442685D01*
X194113069Y-116441564D01*
X194113050Y-116441564D01*
X194111650Y-116441500D01*
X193936985Y-116441500D01*
X193934477Y-116441702D01*
X193934472Y-116441702D01*
X193755056Y-116456137D01*
X193755051Y-116456138D01*
X193750015Y-116456543D01*
X193745107Y-116457748D01*
X193745104Y-116457749D01*
X193576454Y-116499174D01*
X193506461Y-116516366D01*
X193501809Y-116518341D01*
X193501805Y-116518342D01*
X193381061Y-116569595D01*
X193275604Y-116614359D01*
X193063385Y-116748000D01*
X192875262Y-116913853D01*
X192716076Y-117107649D01*
X192589922Y-117324404D01*
X192500045Y-117558539D01*
X192499012Y-117563485D01*
X192499010Y-117563491D01*
X192463660Y-117732705D01*
X192448759Y-117804033D01*
X192448530Y-117809082D01*
X192448529Y-117809088D01*
X192443704Y-117915349D01*
X192437382Y-118054568D01*
X166760915Y-118054568D01*
X166788011Y-118034261D01*
X166875365Y-117917705D01*
X166926495Y-117781316D01*
X166933250Y-117719134D01*
X166933250Y-116855405D01*
X170343870Y-116855405D01*
X170345258Y-116863530D01*
X170400848Y-117077708D01*
X170404381Y-117087738D01*
X170495264Y-117289491D01*
X170500433Y-117298777D01*
X170624010Y-117482333D01*
X170630669Y-117490616D01*
X170783402Y-117650722D01*
X170791372Y-117657774D01*
X170968901Y-117789858D01*
X170977931Y-117795457D01*
X171175178Y-117895743D01*
X171185039Y-117899746D01*
X171396353Y-117965362D01*
X171406733Y-117967644D01*
X171424043Y-117969939D01*
X171438207Y-117967743D01*
X171442000Y-117954556D01*
X171442000Y-116858115D01*
X171437525Y-116842876D01*
X171436135Y-116841671D01*
X171428452Y-116840000D01*
X170360475Y-116840000D01*
X170345795Y-116844310D01*
X170343870Y-116855405D01*
X166933250Y-116855405D01*
X166933250Y-116314174D01*
X170348747Y-116314174D01*
X170350165Y-116327413D01*
X170364804Y-116332000D01*
X171423885Y-116332000D01*
X171439124Y-116327525D01*
X171440329Y-116326135D01*
X171442000Y-116318452D01*
X171442000Y-115219617D01*
X171438027Y-115206086D01*
X171427420Y-115204561D01*
X171307057Y-115229816D01*
X171296859Y-115232876D01*
X171091066Y-115314147D01*
X171081534Y-115318878D01*
X170892364Y-115433670D01*
X170883774Y-115439934D01*
X170716652Y-115584954D01*
X170709232Y-115592584D01*
X170568938Y-115763687D01*
X170562912Y-115772454D01*
X170453452Y-115964748D01*
X170448987Y-115974412D01*
X170373490Y-116182403D01*
X170370719Y-116192670D01*
X170348747Y-116314174D01*
X166933250Y-116314174D01*
X166933250Y-115822866D01*
X166926495Y-115760684D01*
X166875365Y-115624295D01*
X166788011Y-115507739D01*
X166671455Y-115420385D01*
X166535066Y-115369255D01*
X166472884Y-115362500D01*
X164659116Y-115362500D01*
X164596934Y-115369255D01*
X164460545Y-115420385D01*
X164453360Y-115425770D01*
X164453358Y-115425771D01*
X164361065Y-115494941D01*
X164294559Y-115519789D01*
X164225176Y-115504736D01*
X164174946Y-115454562D01*
X164159500Y-115394115D01*
X164159500Y-110274149D01*
X164179502Y-110206028D01*
X164196404Y-110185054D01*
X165030057Y-109351400D01*
X165092370Y-109317375D01*
X165141249Y-109316448D01*
X165172948Y-109322095D01*
X165172954Y-109322096D01*
X165178037Y-109323001D01*
X165265400Y-109324068D01*
X165413093Y-109325873D01*
X165413095Y-109325873D01*
X165418263Y-109325936D01*
X165655744Y-109289596D01*
X165767997Y-109252906D01*
X165879183Y-109216566D01*
X165879189Y-109216563D01*
X165884101Y-109214958D01*
X165888687Y-109212571D01*
X165888691Y-109212569D01*
X166092607Y-109106416D01*
X166097200Y-109104025D01*
X166225902Y-109007393D01*
X166285185Y-108962882D01*
X166285188Y-108962880D01*
X166289320Y-108959777D01*
X166455301Y-108786088D01*
X166532891Y-108672345D01*
X166587774Y-108591891D01*
X166587775Y-108591890D01*
X166590686Y-108587622D01*
X166594926Y-108578489D01*
X166689658Y-108374405D01*
X166689659Y-108374401D01*
X166691837Y-108369710D01*
X166756040Y-108138202D01*
X166760589Y-108095634D01*
X166776644Y-107945407D01*
X166776644Y-107945399D01*
X166777000Y-107942072D01*
X166777000Y-107707598D01*
X166776323Y-107699357D01*
X166763073Y-107538197D01*
X166762322Y-107529063D01*
X166703794Y-107296056D01*
X166607997Y-107075737D01*
X166496894Y-106903998D01*
X166480310Y-106878363D01*
X166480308Y-106878360D01*
X166477502Y-106874023D01*
X166315814Y-106696330D01*
X166220630Y-106621158D01*
X166131330Y-106550633D01*
X166131325Y-106550630D01*
X166127276Y-106547432D01*
X166122760Y-106544939D01*
X166122757Y-106544937D01*
X165921474Y-106433823D01*
X165921470Y-106433821D01*
X165916950Y-106431326D01*
X165912081Y-106429602D01*
X165912077Y-106429600D01*
X165695360Y-106352856D01*
X165695356Y-106352855D01*
X165690485Y-106351130D01*
X165685392Y-106350223D01*
X165685389Y-106350222D01*
X165459052Y-106309905D01*
X165459046Y-106309904D01*
X165453963Y-106308999D01*
X165361474Y-106307869D01*
X165218907Y-106306127D01*
X165218905Y-106306127D01*
X165213737Y-106306064D01*
X164976256Y-106342404D01*
X164864003Y-106379094D01*
X164752817Y-106415434D01*
X164752811Y-106415437D01*
X164747899Y-106417042D01*
X164743313Y-106419429D01*
X164743309Y-106419431D01*
X164661703Y-106461913D01*
X164534800Y-106527975D01*
X164530657Y-106531085D01*
X164530658Y-106531085D01*
X164362095Y-106657646D01*
X164342680Y-106672223D01*
X164176699Y-106845912D01*
X164151465Y-106882903D01*
X164096556Y-106927904D01*
X164026032Y-106936075D01*
X163962284Y-106904821D01*
X163941589Y-106880340D01*
X163940311Y-106878365D01*
X163937502Y-106874023D01*
X163775814Y-106696330D01*
X163680630Y-106621158D01*
X163591330Y-106550633D01*
X163591325Y-106550630D01*
X163587276Y-106547432D01*
X163582760Y-106544939D01*
X163582757Y-106544937D01*
X163381474Y-106433823D01*
X163381470Y-106433821D01*
X163376950Y-106431326D01*
X163372081Y-106429602D01*
X163372077Y-106429600D01*
X163155360Y-106352856D01*
X163155356Y-106352855D01*
X163150485Y-106351130D01*
X163145392Y-106350223D01*
X163145389Y-106350222D01*
X163076294Y-106337914D01*
X163042669Y-106331925D01*
X162979111Y-106300287D01*
X162942748Y-106239310D01*
X162938938Y-106214472D01*
X162937469Y-106186430D01*
X162935673Y-106152168D01*
X162935500Y-106145574D01*
X162935500Y-106125694D01*
X162933422Y-106105920D01*
X162932905Y-106099346D01*
X162929775Y-106039627D01*
X162929775Y-106039626D01*
X162929429Y-106033028D01*
X162927719Y-106026646D01*
X162927718Y-106026639D01*
X162925958Y-106020069D01*
X162922356Y-106000635D01*
X162921645Y-105993870D01*
X162921645Y-105993869D01*
X162920954Y-105987298D01*
X162900427Y-105924122D01*
X162898555Y-105917803D01*
X162883071Y-105860013D01*
X162883069Y-105860008D01*
X162881362Y-105853637D01*
X162878366Y-105847756D01*
X162878364Y-105847752D01*
X162875272Y-105841683D01*
X162867708Y-105823421D01*
X162865605Y-105816949D01*
X162865603Y-105816945D01*
X162863564Y-105810669D01*
X162860263Y-105804951D01*
X162830347Y-105753135D01*
X162827199Y-105747338D01*
X162797047Y-105688161D01*
X162797684Y-105687836D01*
X162778784Y-105624573D01*
X162798466Y-105556359D01*
X162851902Y-105509614D01*
X162904783Y-105497980D01*
X168116332Y-105497980D01*
X168184453Y-105517982D01*
X168205427Y-105534885D01*
X170238095Y-107567553D01*
X170272121Y-107629865D01*
X170275000Y-107656648D01*
X170275000Y-108864134D01*
X170281755Y-108926316D01*
X170332885Y-109062705D01*
X170420239Y-109179261D01*
X170536795Y-109266615D01*
X170673184Y-109317745D01*
X170735366Y-109324500D01*
X171942852Y-109324500D01*
X172010973Y-109344502D01*
X172031947Y-109361405D01*
X175355595Y-112685052D01*
X175389621Y-112747364D01*
X175392500Y-112774147D01*
X175392500Y-115065370D01*
X175372498Y-115133491D01*
X175318842Y-115179984D01*
X175306874Y-115184096D01*
X175306934Y-115184255D01*
X175170545Y-115235385D01*
X175053989Y-115322739D01*
X175004137Y-115389257D01*
X174978972Y-115422834D01*
X174922113Y-115465349D01*
X174851294Y-115470375D01*
X174802936Y-115448360D01*
X174709085Y-115378533D01*
X174559147Y-115302301D01*
X174507010Y-115275793D01*
X174507009Y-115275793D01*
X174502252Y-115273374D01*
X174361973Y-115229816D01*
X174285761Y-115206151D01*
X174285755Y-115206150D01*
X174280658Y-115204567D01*
X174127408Y-115184255D01*
X174055923Y-115174780D01*
X174055919Y-115174780D01*
X174050639Y-115174080D01*
X174045310Y-115174280D01*
X174045308Y-115174280D01*
X173934705Y-115178433D01*
X173818772Y-115182785D01*
X173591686Y-115230433D01*
X173586730Y-115232390D01*
X173586724Y-115232392D01*
X173482952Y-115273374D01*
X173375875Y-115315661D01*
X173282983Y-115372029D01*
X173203295Y-115420385D01*
X173177509Y-115436032D01*
X173173479Y-115439529D01*
X173007521Y-115583540D01*
X173002260Y-115588105D01*
X172940063Y-115663960D01*
X172881406Y-115703952D01*
X172810436Y-115705884D01*
X172751461Y-115671038D01*
X172608598Y-115521278D01*
X172600628Y-115514226D01*
X172423099Y-115382142D01*
X172414069Y-115376543D01*
X172216822Y-115276257D01*
X172206961Y-115272254D01*
X171995647Y-115206638D01*
X171985267Y-115204356D01*
X171967957Y-115202061D01*
X171953793Y-115204257D01*
X171950000Y-115217444D01*
X171950000Y-117952383D01*
X171953973Y-117965914D01*
X171964580Y-117967439D01*
X172084943Y-117942184D01*
X172095141Y-117939124D01*
X172300934Y-117857853D01*
X172310466Y-117853122D01*
X172499636Y-117738330D01*
X172508226Y-117732066D01*
X172675348Y-117587046D01*
X172682766Y-117579417D01*
X172741268Y-117508068D01*
X172799928Y-117468073D01*
X172870898Y-117466141D01*
X172929873Y-117500987D01*
X172989499Y-117563491D01*
X173076757Y-117654962D01*
X173081045Y-117658152D01*
X173081048Y-117658155D01*
X173258635Y-117790283D01*
X173258638Y-117790285D01*
X173262915Y-117793467D01*
X173267665Y-117795882D01*
X173464078Y-117895743D01*
X173469748Y-117898626D01*
X173580545Y-117933030D01*
X173686239Y-117965849D01*
X173686245Y-117965850D01*
X173691342Y-117967433D01*
X173815111Y-117983838D01*
X173916077Y-117997220D01*
X173916081Y-117997220D01*
X173921361Y-117997920D01*
X173926690Y-117997720D01*
X173926692Y-117997720D01*
X174037295Y-117993567D01*
X174153228Y-117989215D01*
X174380314Y-117941567D01*
X174385270Y-117939610D01*
X174385276Y-117939608D01*
X174591164Y-117858298D01*
X174596125Y-117856339D01*
X174794491Y-117735968D01*
X174798521Y-117732471D01*
X174802834Y-117729326D01*
X174803580Y-117730349D01*
X174862616Y-117703340D01*
X174932897Y-117713398D01*
X174981456Y-117752481D01*
X175020092Y-117804033D01*
X175053989Y-117849261D01*
X175170545Y-117936615D01*
X175306934Y-117987745D01*
X175369116Y-117994500D01*
X177182884Y-117994500D01*
X177245066Y-117987745D01*
X177381455Y-117936615D01*
X177498011Y-117849261D01*
X177585365Y-117732705D01*
X177636495Y-117596316D01*
X177643250Y-117534134D01*
X177643250Y-115637866D01*
X177636495Y-115575684D01*
X177585365Y-115439295D01*
X177498011Y-115322739D01*
X177381455Y-115235385D01*
X177245066Y-115184255D01*
X177245915Y-115181991D01*
X177194698Y-115152726D01*
X177161885Y-115089767D01*
X177159500Y-115065370D01*
X177159500Y-113052134D01*
X187011500Y-113052134D01*
X187018255Y-113114316D01*
X187069385Y-113250705D01*
X187156739Y-113367261D01*
X187273295Y-113454615D01*
X187409684Y-113505745D01*
X187471866Y-113512500D01*
X191528134Y-113512500D01*
X191590316Y-113505745D01*
X191726705Y-113454615D01*
X191843261Y-113367261D01*
X191930615Y-113250705D01*
X191981745Y-113114316D01*
X191988500Y-113052134D01*
X191988500Y-110975866D01*
X191981745Y-110913684D01*
X191930615Y-110777295D01*
X191843261Y-110660739D01*
X191726705Y-110573385D01*
X191590316Y-110522255D01*
X191528134Y-110515500D01*
X187471866Y-110515500D01*
X187409684Y-110522255D01*
X187273295Y-110573385D01*
X187156739Y-110660739D01*
X187069385Y-110777295D01*
X187018255Y-110913684D01*
X187011500Y-110975866D01*
X187011500Y-113052134D01*
X177159500Y-113052134D01*
X177159500Y-112435457D01*
X177161051Y-112415745D01*
X177162118Y-112409008D01*
X177163150Y-112402493D01*
X177159673Y-112336150D01*
X177159500Y-112329555D01*
X177159500Y-112309694D01*
X177157423Y-112289931D01*
X177156907Y-112283367D01*
X177153776Y-112223623D01*
X177153775Y-112223619D01*
X177153430Y-112217029D01*
X177149958Y-112204071D01*
X177146355Y-112184628D01*
X177145644Y-112177866D01*
X177144954Y-112171298D01*
X177124422Y-112108106D01*
X177122556Y-112101804D01*
X177107071Y-112044015D01*
X177105362Y-112037637D01*
X177102366Y-112031758D01*
X177102363Y-112031749D01*
X177099272Y-112025683D01*
X177091708Y-112007421D01*
X177089608Y-112000958D01*
X177089606Y-112000953D01*
X177087564Y-111994669D01*
X177054337Y-111937119D01*
X177051214Y-111931366D01*
X177021048Y-111872161D01*
X177012607Y-111861737D01*
X177001412Y-111845449D01*
X176998005Y-111839548D01*
X176998004Y-111839547D01*
X176994704Y-111833831D01*
X176990287Y-111828925D01*
X176990283Y-111828920D01*
X176950253Y-111784462D01*
X176945969Y-111779447D01*
X176939427Y-111771369D01*
X176933472Y-111764015D01*
X176919436Y-111749979D01*
X176914895Y-111745194D01*
X176874856Y-111700726D01*
X176874855Y-111700725D01*
X176870434Y-111695815D01*
X176865094Y-111691935D01*
X176865086Y-111691928D01*
X176859578Y-111687927D01*
X176844543Y-111675086D01*
X174642758Y-109473300D01*
X174608732Y-109410988D01*
X174613797Y-109340172D01*
X174656344Y-109283337D01*
X174692706Y-109264441D01*
X174798080Y-109230000D01*
X174839183Y-109216566D01*
X174839189Y-109216563D01*
X174844101Y-109214958D01*
X174848687Y-109212571D01*
X174848691Y-109212569D01*
X175052607Y-109106416D01*
X175057200Y-109104025D01*
X175185902Y-109007393D01*
X175245185Y-108962882D01*
X175245188Y-108962880D01*
X175249320Y-108959777D01*
X175415301Y-108786088D01*
X175440535Y-108749097D01*
X175495444Y-108704096D01*
X175565968Y-108695925D01*
X175629716Y-108727179D01*
X175650411Y-108751660D01*
X175654498Y-108757977D01*
X175816186Y-108935670D01*
X175893017Y-108996347D01*
X176000670Y-109081367D01*
X176000675Y-109081370D01*
X176004724Y-109084568D01*
X176009240Y-109087061D01*
X176009243Y-109087063D01*
X176210526Y-109198177D01*
X176210530Y-109198179D01*
X176215050Y-109200674D01*
X176219919Y-109202398D01*
X176219923Y-109202400D01*
X176436640Y-109279144D01*
X176436644Y-109279145D01*
X176441515Y-109280870D01*
X176446608Y-109281777D01*
X176446611Y-109281778D01*
X176672948Y-109322095D01*
X176672954Y-109322096D01*
X176678037Y-109323001D01*
X176765400Y-109324068D01*
X176913093Y-109325873D01*
X176913095Y-109325873D01*
X176918263Y-109325936D01*
X177155744Y-109289596D01*
X177267997Y-109252906D01*
X177379183Y-109216566D01*
X177379189Y-109216563D01*
X177384101Y-109214958D01*
X177388687Y-109212571D01*
X177388691Y-109212569D01*
X177592607Y-109106416D01*
X177597200Y-109104025D01*
X177725902Y-109007393D01*
X177785185Y-108962882D01*
X177785188Y-108962880D01*
X177789320Y-108959777D01*
X177955301Y-108786088D01*
X178032891Y-108672345D01*
X178087774Y-108591891D01*
X178087775Y-108591890D01*
X178090686Y-108587622D01*
X178094926Y-108578489D01*
X178189658Y-108374405D01*
X178189659Y-108374401D01*
X178191837Y-108369710D01*
X178256040Y-108138202D01*
X178260589Y-108095634D01*
X178276644Y-107945407D01*
X178276644Y-107945399D01*
X178277000Y-107942072D01*
X178277000Y-107707598D01*
X178276323Y-107699357D01*
X178263073Y-107538197D01*
X178262322Y-107529063D01*
X178203794Y-107296056D01*
X178126760Y-107118888D01*
X187010027Y-107118888D01*
X187047299Y-107362464D01*
X187123853Y-107596682D01*
X187126241Y-107601270D01*
X187126243Y-107601274D01*
X187177302Y-107699357D01*
X187237633Y-107815252D01*
X187240736Y-107819385D01*
X187240738Y-107819388D01*
X187372320Y-107994637D01*
X187385584Y-108012303D01*
X187563731Y-108182545D01*
X187568003Y-108185459D01*
X187568004Y-108185460D01*
X187763011Y-108318485D01*
X187763016Y-108318488D01*
X187767291Y-108321404D01*
X187771980Y-108323580D01*
X187771986Y-108323584D01*
X187986106Y-108422975D01*
X187986111Y-108422977D01*
X187990797Y-108425152D01*
X187995775Y-108426532D01*
X187995779Y-108426534D01*
X188223274Y-108489623D01*
X188228247Y-108491002D01*
X188334864Y-108502396D01*
X188426071Y-108512144D01*
X188426079Y-108512144D01*
X188429406Y-108512500D01*
X190552469Y-108512500D01*
X190555042Y-108512288D01*
X190555053Y-108512288D01*
X190730432Y-108497869D01*
X190730438Y-108497868D01*
X190735583Y-108497445D01*
X190855076Y-108467431D01*
X190969559Y-108438675D01*
X190969563Y-108438674D01*
X190974570Y-108437416D01*
X190979303Y-108435358D01*
X190979306Y-108435357D01*
X191195807Y-108341220D01*
X191195810Y-108341218D01*
X191200544Y-108339160D01*
X191204878Y-108336356D01*
X191204882Y-108336354D01*
X191403092Y-108208126D01*
X191403098Y-108208121D01*
X191407436Y-108205315D01*
X191429257Y-108185460D01*
X191527974Y-108095634D01*
X191589690Y-108039477D01*
X191592889Y-108035426D01*
X191592893Y-108035422D01*
X191739205Y-107850157D01*
X191742410Y-107846099D01*
X191823417Y-107699357D01*
X191858996Y-107634906D01*
X191858997Y-107634903D01*
X191861497Y-107630375D01*
X191943750Y-107398097D01*
X191986963Y-107155505D01*
X191989644Y-106936075D01*
X191989910Y-106914282D01*
X191989910Y-106914280D01*
X191989973Y-106909112D01*
X191952701Y-106665536D01*
X191876147Y-106431318D01*
X191868716Y-106417042D01*
X191764756Y-106217337D01*
X191764755Y-106217336D01*
X191762367Y-106212748D01*
X191739207Y-106181901D01*
X191617521Y-106019832D01*
X191617519Y-106019830D01*
X191614416Y-106015697D01*
X191436269Y-105845455D01*
X191431008Y-105841866D01*
X191236989Y-105709515D01*
X191236984Y-105709512D01*
X191232709Y-105706596D01*
X191228020Y-105704420D01*
X191228014Y-105704416D01*
X191013894Y-105605025D01*
X191013889Y-105605023D01*
X191009203Y-105602848D01*
X191004225Y-105601468D01*
X191004221Y-105601466D01*
X190776726Y-105538377D01*
X190776725Y-105538377D01*
X190771753Y-105536998D01*
X190665136Y-105525604D01*
X190573929Y-105515856D01*
X190573921Y-105515856D01*
X190570594Y-105515500D01*
X188447531Y-105515500D01*
X188444958Y-105515712D01*
X188444947Y-105515712D01*
X188269568Y-105530131D01*
X188269562Y-105530132D01*
X188264417Y-105530555D01*
X188144924Y-105560569D01*
X188030441Y-105589325D01*
X188030437Y-105589326D01*
X188025430Y-105590584D01*
X188020697Y-105592642D01*
X188020694Y-105592643D01*
X187804193Y-105686780D01*
X187804190Y-105686782D01*
X187799456Y-105688840D01*
X187795122Y-105691644D01*
X187795118Y-105691646D01*
X187596908Y-105819874D01*
X187596902Y-105819879D01*
X187592564Y-105822685D01*
X187588739Y-105826165D01*
X187588737Y-105826167D01*
X187562313Y-105850211D01*
X187410310Y-105988523D01*
X187407111Y-105992574D01*
X187407107Y-105992578D01*
X187322788Y-106099346D01*
X187257590Y-106181901D01*
X187224672Y-106241532D01*
X187156301Y-106365385D01*
X187138503Y-106397625D01*
X187056250Y-106629903D01*
X187055343Y-106634995D01*
X187017013Y-106850177D01*
X187013037Y-106872495D01*
X187010027Y-107118888D01*
X178126760Y-107118888D01*
X178107997Y-107075737D01*
X177996894Y-106903998D01*
X177980310Y-106878363D01*
X177980308Y-106878360D01*
X177977502Y-106874023D01*
X177815814Y-106696330D01*
X177720630Y-106621158D01*
X177631330Y-106550633D01*
X177631325Y-106550630D01*
X177627276Y-106547432D01*
X177622760Y-106544939D01*
X177622757Y-106544937D01*
X177421474Y-106433823D01*
X177421470Y-106433821D01*
X177416950Y-106431326D01*
X177412081Y-106429602D01*
X177412077Y-106429600D01*
X177195360Y-106352856D01*
X177195356Y-106352855D01*
X177190485Y-106351130D01*
X177185392Y-106350223D01*
X177185389Y-106350222D01*
X176959052Y-106309905D01*
X176959046Y-106309904D01*
X176953963Y-106308999D01*
X176861474Y-106307869D01*
X176718907Y-106306127D01*
X176718905Y-106306127D01*
X176713737Y-106306064D01*
X176476256Y-106342404D01*
X176364003Y-106379094D01*
X176252817Y-106415434D01*
X176252811Y-106415437D01*
X176247899Y-106417042D01*
X176243313Y-106419429D01*
X176243309Y-106419431D01*
X176161703Y-106461913D01*
X176034800Y-106527975D01*
X176030657Y-106531085D01*
X176030658Y-106531085D01*
X175862095Y-106657646D01*
X175842680Y-106672223D01*
X175676699Y-106845912D01*
X175651465Y-106882903D01*
X175596556Y-106927904D01*
X175526032Y-106936075D01*
X175462284Y-106904821D01*
X175441589Y-106880340D01*
X175440311Y-106878365D01*
X175437502Y-106874023D01*
X175275814Y-106696330D01*
X175180630Y-106621158D01*
X175091330Y-106550633D01*
X175091325Y-106550630D01*
X175087276Y-106547432D01*
X175082760Y-106544939D01*
X175082757Y-106544937D01*
X174881474Y-106433823D01*
X174881470Y-106433821D01*
X174876950Y-106431326D01*
X174872081Y-106429602D01*
X174872077Y-106429600D01*
X174655360Y-106352856D01*
X174655356Y-106352855D01*
X174650485Y-106351130D01*
X174645392Y-106350223D01*
X174645389Y-106350222D01*
X174419052Y-106309905D01*
X174419046Y-106309904D01*
X174413963Y-106308999D01*
X174321474Y-106307869D01*
X174178907Y-106306127D01*
X174178905Y-106306127D01*
X174173737Y-106306064D01*
X173936256Y-106342404D01*
X173824003Y-106379094D01*
X173712817Y-106415434D01*
X173712811Y-106415437D01*
X173707899Y-106417042D01*
X173703313Y-106419429D01*
X173703309Y-106419431D01*
X173621703Y-106461913D01*
X173494800Y-106527975D01*
X173339717Y-106644415D01*
X173273235Y-106669320D01*
X173203839Y-106654328D01*
X173153565Y-106604198D01*
X173146085Y-106587885D01*
X173142269Y-106577707D01*
X173142267Y-106577704D01*
X173139115Y-106569295D01*
X173051761Y-106452739D01*
X172935205Y-106365385D01*
X172798816Y-106314255D01*
X172736634Y-106307500D01*
X171529148Y-106307500D01*
X171461027Y-106287498D01*
X171440053Y-106270595D01*
X169215392Y-104045934D01*
X169202552Y-104030902D01*
X169194665Y-104020046D01*
X169181412Y-104008113D01*
X169144172Y-103947667D01*
X169145524Y-103876684D01*
X169185037Y-103817699D01*
X169212473Y-103800282D01*
X169222285Y-103795707D01*
X169244993Y-103785118D01*
X169307758Y-103755851D01*
X169307764Y-103755847D01*
X169312749Y-103753523D01*
X169462006Y-103649012D01*
X169495789Y-103625357D01*
X169495792Y-103625355D01*
X169500300Y-103622198D01*
X169662198Y-103460300D01*
X169690055Y-103420517D01*
X169720098Y-103377611D01*
X169793523Y-103272749D01*
X169795846Y-103267767D01*
X169795849Y-103267762D01*
X169887961Y-103070225D01*
X169887961Y-103070224D01*
X169890284Y-103065243D01*
X169907726Y-103000151D01*
X169948119Y-102849402D01*
X169948119Y-102849400D01*
X169949543Y-102844087D01*
X169969498Y-102616000D01*
X169949543Y-102387913D01*
X169939244Y-102349478D01*
X169891707Y-102172067D01*
X169891706Y-102172065D01*
X169890284Y-102166757D01*
X169867353Y-102117580D01*
X169862886Y-102108000D01*
X172676502Y-102108000D01*
X172696457Y-102336087D01*
X172697881Y-102341400D01*
X172697881Y-102341402D01*
X172735025Y-102480022D01*
X172755716Y-102557243D01*
X172758039Y-102562224D01*
X172758039Y-102562225D01*
X172850151Y-102759762D01*
X172850154Y-102759767D01*
X172852477Y-102764749D01*
X172983802Y-102952300D01*
X173145700Y-103114198D01*
X173150208Y-103117355D01*
X173150211Y-103117357D01*
X173228389Y-103172098D01*
X173333251Y-103245523D01*
X173338233Y-103247846D01*
X173338238Y-103247849D01*
X173534765Y-103339490D01*
X173540757Y-103342284D01*
X173546065Y-103343706D01*
X173546067Y-103343707D01*
X173756598Y-103400119D01*
X173756600Y-103400119D01*
X173761913Y-103401543D01*
X173990000Y-103421498D01*
X174218087Y-103401543D01*
X174223400Y-103400119D01*
X174223402Y-103400119D01*
X174433933Y-103343707D01*
X174433935Y-103343706D01*
X174439243Y-103342284D01*
X174445235Y-103339490D01*
X174641762Y-103247849D01*
X174641767Y-103247846D01*
X174646749Y-103245523D01*
X174720243Y-103194062D01*
X183428493Y-103194062D01*
X183437789Y-103206077D01*
X183488994Y-103241931D01*
X183498489Y-103247414D01*
X183695947Y-103339490D01*
X183706239Y-103343236D01*
X183916688Y-103399625D01*
X183927481Y-103401528D01*
X184144525Y-103420517D01*
X184155475Y-103420517D01*
X184372519Y-103401528D01*
X184383312Y-103399625D01*
X184593761Y-103343236D01*
X184604053Y-103339490D01*
X184801511Y-103247414D01*
X184811006Y-103241931D01*
X184863048Y-103205491D01*
X184871424Y-103195012D01*
X184864356Y-103181566D01*
X184162812Y-102480022D01*
X184148868Y-102472408D01*
X184147035Y-102472539D01*
X184140420Y-102476790D01*
X183434923Y-103182287D01*
X183428493Y-103194062D01*
X174720243Y-103194062D01*
X174751611Y-103172098D01*
X174829789Y-103117357D01*
X174829792Y-103117355D01*
X174834300Y-103114198D01*
X174996198Y-102952300D01*
X175127523Y-102764749D01*
X175129846Y-102759767D01*
X175129849Y-102759762D01*
X175221961Y-102562225D01*
X175221961Y-102562224D01*
X175224284Y-102557243D01*
X175244976Y-102480022D01*
X175282119Y-102341402D01*
X175282119Y-102341400D01*
X175283543Y-102336087D01*
X175303019Y-102113475D01*
X182837483Y-102113475D01*
X182856472Y-102330519D01*
X182858375Y-102341312D01*
X182914764Y-102551761D01*
X182918510Y-102562053D01*
X183010586Y-102759511D01*
X183016069Y-102769006D01*
X183052509Y-102821048D01*
X183062988Y-102829424D01*
X183076434Y-102822356D01*
X183777978Y-102120812D01*
X183784356Y-102109132D01*
X184514408Y-102109132D01*
X184514539Y-102110965D01*
X184518790Y-102117580D01*
X185224287Y-102823077D01*
X185236062Y-102829507D01*
X185248077Y-102820211D01*
X185283931Y-102769006D01*
X185289414Y-102759511D01*
X185381490Y-102562053D01*
X185385236Y-102551761D01*
X185441625Y-102341312D01*
X185443528Y-102330519D01*
X185462517Y-102113475D01*
X185462517Y-102102525D01*
X185443528Y-101885481D01*
X185441625Y-101874688D01*
X185385236Y-101664239D01*
X185381490Y-101653947D01*
X185289414Y-101456489D01*
X185283931Y-101446994D01*
X185247491Y-101394952D01*
X185237012Y-101386576D01*
X185223566Y-101393644D01*
X184522022Y-102095188D01*
X184514408Y-102109132D01*
X183784356Y-102109132D01*
X183785592Y-102106868D01*
X183785461Y-102105035D01*
X183781210Y-102098420D01*
X183075713Y-101392923D01*
X183063938Y-101386493D01*
X183051923Y-101395789D01*
X183016069Y-101446994D01*
X183010586Y-101456489D01*
X182918510Y-101653947D01*
X182914764Y-101664239D01*
X182858375Y-101874688D01*
X182856472Y-101885481D01*
X182837483Y-102102525D01*
X182837483Y-102113475D01*
X175303019Y-102113475D01*
X175303498Y-102108000D01*
X175283543Y-101879913D01*
X175246981Y-101743461D01*
X175225707Y-101664067D01*
X175225706Y-101664065D01*
X175224284Y-101658757D01*
X175129966Y-101456489D01*
X175129849Y-101456238D01*
X175129846Y-101456233D01*
X175127523Y-101451251D01*
X174996198Y-101263700D01*
X174834300Y-101101802D01*
X174829792Y-101098645D01*
X174829789Y-101098643D01*
X174718886Y-101020988D01*
X183428576Y-101020988D01*
X183435644Y-101034434D01*
X184137188Y-101735978D01*
X184151132Y-101743592D01*
X184152965Y-101743461D01*
X184159580Y-101739210D01*
X184865077Y-101033713D01*
X184871507Y-101021938D01*
X184862211Y-101009923D01*
X184811006Y-100974069D01*
X184801511Y-100968586D01*
X184604053Y-100876510D01*
X184593761Y-100872764D01*
X184383312Y-100816375D01*
X184372519Y-100814472D01*
X184155475Y-100795483D01*
X184144525Y-100795483D01*
X183927481Y-100814472D01*
X183916688Y-100816375D01*
X183706239Y-100872764D01*
X183695947Y-100876510D01*
X183498489Y-100968586D01*
X183488994Y-100974069D01*
X183436952Y-101010509D01*
X183428576Y-101020988D01*
X174718886Y-101020988D01*
X174703920Y-101010509D01*
X174646749Y-100970477D01*
X174641767Y-100968154D01*
X174641762Y-100968151D01*
X174444225Y-100876039D01*
X174444224Y-100876039D01*
X174439243Y-100873716D01*
X174433935Y-100872294D01*
X174433933Y-100872293D01*
X174223402Y-100815881D01*
X174223400Y-100815881D01*
X174218087Y-100814457D01*
X173990000Y-100794502D01*
X173761913Y-100814457D01*
X173756600Y-100815881D01*
X173756598Y-100815881D01*
X173546067Y-100872293D01*
X173546065Y-100872294D01*
X173540757Y-100873716D01*
X173535776Y-100876039D01*
X173535775Y-100876039D01*
X173338238Y-100968151D01*
X173338233Y-100968154D01*
X173333251Y-100970477D01*
X173276080Y-101010509D01*
X173150211Y-101098643D01*
X173150208Y-101098645D01*
X173145700Y-101101802D01*
X172983802Y-101263700D01*
X172852477Y-101451251D01*
X172850154Y-101456233D01*
X172850151Y-101456238D01*
X172850034Y-101456489D01*
X172755716Y-101658757D01*
X172754294Y-101664065D01*
X172754293Y-101664067D01*
X172733019Y-101743461D01*
X172696457Y-101879913D01*
X172676502Y-102108000D01*
X169862886Y-102108000D01*
X169795849Y-101964238D01*
X169795846Y-101964233D01*
X169793523Y-101959251D01*
X169662198Y-101771700D01*
X169500300Y-101609802D01*
X169495792Y-101606645D01*
X169495789Y-101606643D01*
X169417611Y-101551902D01*
X169312749Y-101478477D01*
X169307767Y-101476154D01*
X169307762Y-101476151D01*
X169110225Y-101384039D01*
X169110224Y-101384039D01*
X169105243Y-101381716D01*
X169099935Y-101380294D01*
X169099933Y-101380293D01*
X168889402Y-101323881D01*
X168889400Y-101323881D01*
X168884087Y-101322457D01*
X168656000Y-101302502D01*
X168427913Y-101322457D01*
X168422600Y-101323881D01*
X168422598Y-101323881D01*
X168212067Y-101380293D01*
X168212065Y-101380294D01*
X168206757Y-101381716D01*
X168201776Y-101384039D01*
X168201775Y-101384039D01*
X168004238Y-101476151D01*
X168004233Y-101476154D01*
X167999251Y-101478477D01*
X167894389Y-101551902D01*
X167816211Y-101606643D01*
X167816208Y-101606645D01*
X167811700Y-101609802D01*
X167649802Y-101771700D01*
X167518477Y-101959251D01*
X167516154Y-101964233D01*
X167516151Y-101964238D01*
X167444647Y-102117580D01*
X167421716Y-102166757D01*
X167420294Y-102172065D01*
X167420293Y-102172067D01*
X167372756Y-102349478D01*
X167362457Y-102387913D01*
X167342502Y-102616000D01*
X167362457Y-102844087D01*
X167363881Y-102849400D01*
X167363881Y-102849402D01*
X167404275Y-103000151D01*
X167421716Y-103065243D01*
X167424039Y-103070224D01*
X167424039Y-103070225D01*
X167516151Y-103267762D01*
X167516154Y-103267767D01*
X167518477Y-103272749D01*
X167591902Y-103377611D01*
X167621946Y-103420517D01*
X167649802Y-103460300D01*
X167705387Y-103515885D01*
X167739413Y-103578197D01*
X167734348Y-103649012D01*
X167691801Y-103705848D01*
X167625281Y-103730659D01*
X167616292Y-103730980D01*
X159535001Y-103730980D01*
X159466880Y-103710978D01*
X159420387Y-103657322D01*
X159410283Y-103587048D01*
X159439777Y-103522468D01*
X159445906Y-103515885D01*
X159497916Y-103463875D01*
X159504972Y-103455467D01*
X159629931Y-103277007D01*
X159635414Y-103267511D01*
X159727490Y-103070053D01*
X159731236Y-103059761D01*
X159777394Y-102887497D01*
X159777058Y-102873401D01*
X159769116Y-102870000D01*
X157228033Y-102870000D01*
X157214502Y-102873973D01*
X157213273Y-102882522D01*
X157260764Y-103059761D01*
X157264510Y-103070053D01*
X157356586Y-103267511D01*
X157362069Y-103277007D01*
X157487028Y-103455467D01*
X157494084Y-103463875D01*
X157546094Y-103515885D01*
X157580120Y-103578197D01*
X157575055Y-103649012D01*
X157532508Y-103705848D01*
X157465988Y-103730659D01*
X157456999Y-103730980D01*
X151832477Y-103730980D01*
X151812765Y-103729429D01*
X151806028Y-103728362D01*
X151806029Y-103728362D01*
X151799513Y-103727330D01*
X151792926Y-103727675D01*
X151792922Y-103727675D01*
X151733170Y-103730807D01*
X151726575Y-103730980D01*
X151706714Y-103730980D01*
X151686951Y-103733057D01*
X151680392Y-103733573D01*
X151638753Y-103735755D01*
X151620649Y-103736704D01*
X151620648Y-103736704D01*
X151614049Y-103737050D01*
X151607665Y-103738761D01*
X151607663Y-103738761D01*
X151601094Y-103740521D01*
X151581659Y-103744123D01*
X151574889Y-103744835D01*
X151574885Y-103744836D01*
X151568318Y-103745526D01*
X151505112Y-103766062D01*
X151498865Y-103767913D01*
X151434658Y-103785118D01*
X151428783Y-103788111D01*
X151428776Y-103788114D01*
X151422706Y-103791207D01*
X151404451Y-103798768D01*
X151397975Y-103800873D01*
X151397971Y-103800875D01*
X151391689Y-103802916D01*
X151385974Y-103806215D01*
X151385964Y-103806220D01*
X151334159Y-103836131D01*
X151328387Y-103839266D01*
X151269181Y-103869432D01*
X151264047Y-103873589D01*
X151264046Y-103873590D01*
X151258757Y-103877873D01*
X151242469Y-103889068D01*
X151230851Y-103895776D01*
X151225945Y-103900193D01*
X151225940Y-103900197D01*
X151181482Y-103940227D01*
X151176467Y-103944511D01*
X151172570Y-103947667D01*
X151161035Y-103957008D01*
X151146999Y-103971044D01*
X151142214Y-103975585D01*
X151092835Y-104020046D01*
X151088955Y-104025386D01*
X151088948Y-104025394D01*
X151084947Y-104030902D01*
X151072106Y-104045937D01*
X149773447Y-105344595D01*
X149711135Y-105378621D01*
X149684352Y-105381500D01*
X149220373Y-105381500D01*
X149217656Y-105381738D01*
X149217649Y-105381738D01*
X149148980Y-105387746D01*
X149049413Y-105396457D01*
X149044100Y-105397881D01*
X149044098Y-105397881D01*
X148833567Y-105454293D01*
X148833565Y-105454294D01*
X148828257Y-105455716D01*
X148823276Y-105458039D01*
X148823275Y-105458039D01*
X148625738Y-105550151D01*
X148625733Y-105550154D01*
X148620751Y-105552477D01*
X148550788Y-105601466D01*
X148437711Y-105680643D01*
X148437708Y-105680645D01*
X148433200Y-105683802D01*
X148271302Y-105845700D01*
X148139977Y-106033251D01*
X148137654Y-106038233D01*
X148137651Y-106038238D01*
X148084525Y-106152168D01*
X148043216Y-106240757D01*
X148041794Y-106246065D01*
X148041793Y-106246067D01*
X148002397Y-106393094D01*
X147983957Y-106461913D01*
X147964002Y-106690000D01*
X147983957Y-106918087D01*
X147985381Y-106923400D01*
X147985381Y-106923402D01*
X148036377Y-107113718D01*
X148043216Y-107139243D01*
X148045539Y-107144224D01*
X148045539Y-107144225D01*
X148137651Y-107341762D01*
X148137654Y-107341767D01*
X148139977Y-107346749D01*
X148179344Y-107402971D01*
X148264121Y-107524044D01*
X148271302Y-107534300D01*
X148433200Y-107696198D01*
X148437708Y-107699355D01*
X148437711Y-107699357D01*
X148453178Y-107710187D01*
X148620751Y-107827523D01*
X148625733Y-107829846D01*
X148625738Y-107829849D01*
X148659957Y-107845805D01*
X148713242Y-107892722D01*
X148732703Y-107960999D01*
X148712161Y-108028959D01*
X148659957Y-108074195D01*
X148625738Y-108090151D01*
X148625733Y-108090154D01*
X148620751Y-108092477D01*
X148555449Y-108138202D01*
X148437711Y-108220643D01*
X148437708Y-108220645D01*
X148433200Y-108223802D01*
X148271302Y-108385700D01*
X148268145Y-108390208D01*
X148268143Y-108390211D01*
X148236532Y-108435357D01*
X148139977Y-108573251D01*
X148137654Y-108578233D01*
X148137651Y-108578238D01*
X148057978Y-108749099D01*
X148043216Y-108780757D01*
X148041794Y-108786065D01*
X148041793Y-108786067D01*
X148020875Y-108864134D01*
X147983957Y-109001913D01*
X147964002Y-109230000D01*
X147983957Y-109458087D01*
X147985381Y-109463400D01*
X147985381Y-109463402D01*
X148006982Y-109544015D01*
X148043216Y-109679243D01*
X148045539Y-109684224D01*
X148045539Y-109684225D01*
X148137651Y-109881762D01*
X148137654Y-109881767D01*
X148139977Y-109886749D01*
X148271302Y-110074300D01*
X148433200Y-110236198D01*
X148437708Y-110239355D01*
X148437711Y-110239357D01*
X148487399Y-110274149D01*
X148620751Y-110367523D01*
X148625733Y-110369846D01*
X148625738Y-110369849D01*
X148659957Y-110385805D01*
X148713242Y-110432722D01*
X148732703Y-110500999D01*
X148712161Y-110568959D01*
X148659957Y-110614195D01*
X148625738Y-110630151D01*
X148625733Y-110630154D01*
X148620751Y-110632477D01*
X148588074Y-110655358D01*
X148437711Y-110760643D01*
X148437708Y-110760645D01*
X148433200Y-110763802D01*
X148271302Y-110925700D01*
X148139977Y-111113251D01*
X148137654Y-111118233D01*
X148137651Y-111118238D01*
X148137534Y-111118489D01*
X148043216Y-111320757D01*
X148041794Y-111326065D01*
X148041793Y-111326067D01*
X147994256Y-111503478D01*
X147983957Y-111541913D01*
X147964002Y-111770000D01*
X147983957Y-111998087D01*
X148043216Y-112219243D01*
X148045539Y-112224224D01*
X148045539Y-112224225D01*
X148137651Y-112421762D01*
X148137654Y-112421767D01*
X148139977Y-112426749D01*
X148271302Y-112614300D01*
X148433200Y-112776198D01*
X148437708Y-112779355D01*
X148437711Y-112779357D01*
X148515889Y-112834098D01*
X148620751Y-112907523D01*
X148625733Y-112909846D01*
X148625738Y-112909849D01*
X148659957Y-112925805D01*
X148713242Y-112972722D01*
X148732703Y-113040999D01*
X148712161Y-113108959D01*
X148659957Y-113154195D01*
X148625738Y-113170151D01*
X148625733Y-113170154D01*
X148620751Y-113172477D01*
X148521038Y-113242297D01*
X148437711Y-113300643D01*
X148437708Y-113300645D01*
X148433200Y-113303802D01*
X148271302Y-113465700D01*
X148268145Y-113470208D01*
X148268143Y-113470211D01*
X148238532Y-113512500D01*
X148139977Y-113653251D01*
X148137654Y-113658233D01*
X148137651Y-113658238D01*
X148050202Y-113845775D01*
X148043216Y-113860757D01*
X148041794Y-113866065D01*
X148041793Y-113866067D01*
X147985381Y-114076598D01*
X147983957Y-114081913D01*
X147964002Y-114310000D01*
X141230998Y-114310000D01*
X141211043Y-114081913D01*
X141209619Y-114076598D01*
X141153207Y-113866067D01*
X141153206Y-113866065D01*
X141151784Y-113860757D01*
X141144798Y-113845775D01*
X141057349Y-113658238D01*
X141057346Y-113658233D01*
X141055023Y-113653251D01*
X140956468Y-113512500D01*
X140926857Y-113470211D01*
X140926855Y-113470208D01*
X140923698Y-113465700D01*
X140761800Y-113303802D01*
X140757292Y-113300645D01*
X140757289Y-113300643D01*
X140673962Y-113242297D01*
X140574249Y-113172477D01*
X140569267Y-113170154D01*
X140569262Y-113170151D01*
X140534451Y-113153919D01*
X140481166Y-113107002D01*
X140461705Y-113038725D01*
X140482247Y-112970765D01*
X140534451Y-112925529D01*
X140569011Y-112909414D01*
X140578507Y-112903931D01*
X140756967Y-112778972D01*
X140765375Y-112771916D01*
X140919416Y-112617875D01*
X140926472Y-112609467D01*
X141051431Y-112431007D01*
X141056914Y-112421511D01*
X141148990Y-112224053D01*
X141152736Y-112213761D01*
X141198894Y-112041497D01*
X141198558Y-112027401D01*
X141190616Y-112024000D01*
X137849533Y-112024000D01*
X137836002Y-112027973D01*
X137834773Y-112036522D01*
X137882264Y-112213761D01*
X137886010Y-112224053D01*
X137978086Y-112421511D01*
X137983569Y-112431007D01*
X138108528Y-112609467D01*
X138115584Y-112617875D01*
X138269625Y-112771916D01*
X138278033Y-112778972D01*
X138456493Y-112903931D01*
X138465989Y-112909414D01*
X138500549Y-112925529D01*
X138553834Y-112972446D01*
X138573295Y-113040723D01*
X138552753Y-113108683D01*
X138500549Y-113153919D01*
X138465738Y-113170151D01*
X138465733Y-113170154D01*
X138460751Y-113172477D01*
X138361038Y-113242297D01*
X138277711Y-113300643D01*
X138277708Y-113300645D01*
X138273200Y-113303802D01*
X138111302Y-113465700D01*
X138108145Y-113470208D01*
X138108143Y-113470211D01*
X138078532Y-113512500D01*
X137979977Y-113653251D01*
X137977654Y-113658233D01*
X137977651Y-113658238D01*
X137890202Y-113845775D01*
X137883216Y-113860757D01*
X137881794Y-113866065D01*
X137881793Y-113866067D01*
X137825381Y-114076598D01*
X137823957Y-114081913D01*
X137804002Y-114310000D01*
X135932623Y-114310000D01*
X135933498Y-114300000D01*
X135913543Y-114071913D01*
X135912119Y-114066598D01*
X135855707Y-113856067D01*
X135855706Y-113856065D01*
X135854284Y-113850757D01*
X135764512Y-113658238D01*
X135759849Y-113648238D01*
X135759846Y-113648233D01*
X135757523Y-113643251D01*
X135633200Y-113465700D01*
X135629357Y-113460211D01*
X135629355Y-113460208D01*
X135626198Y-113455700D01*
X135464300Y-113293802D01*
X135459792Y-113290645D01*
X135459789Y-113290643D01*
X135291030Y-113172477D01*
X135276749Y-113162477D01*
X135271767Y-113160154D01*
X135271762Y-113160151D01*
X135074225Y-113068039D01*
X135074224Y-113068039D01*
X135069243Y-113065716D01*
X135063935Y-113064294D01*
X135063933Y-113064293D01*
X134853402Y-113007881D01*
X134853400Y-113007881D01*
X134848087Y-113006457D01*
X134620000Y-112986502D01*
X134391913Y-113006457D01*
X134386600Y-113007881D01*
X134386598Y-113007881D01*
X134176067Y-113064293D01*
X134176065Y-113064294D01*
X134170757Y-113065716D01*
X134165776Y-113068039D01*
X134165775Y-113068039D01*
X133968238Y-113160151D01*
X133968233Y-113160154D01*
X133963251Y-113162477D01*
X133948970Y-113172477D01*
X133780211Y-113290643D01*
X133780208Y-113290645D01*
X133775700Y-113293802D01*
X133613802Y-113455700D01*
X133610645Y-113460208D01*
X133610643Y-113460211D01*
X133606800Y-113465700D01*
X133482477Y-113643251D01*
X133480154Y-113648233D01*
X133480151Y-113648238D01*
X133475488Y-113658238D01*
X133385716Y-113850757D01*
X133384294Y-113856065D01*
X133384293Y-113856067D01*
X133327881Y-114066598D01*
X133326457Y-114071913D01*
X133306502Y-114300000D01*
X129583498Y-114300000D01*
X129563543Y-114071913D01*
X129562119Y-114066598D01*
X129505707Y-113856067D01*
X129505706Y-113856065D01*
X129504284Y-113850757D01*
X129414512Y-113658238D01*
X129409849Y-113648238D01*
X129409846Y-113648233D01*
X129407523Y-113643251D01*
X129283200Y-113465700D01*
X129279357Y-113460211D01*
X129279355Y-113460208D01*
X129276198Y-113455700D01*
X129114300Y-113293802D01*
X129109792Y-113290645D01*
X129109789Y-113290643D01*
X128941030Y-113172477D01*
X128926749Y-113162477D01*
X128921767Y-113160154D01*
X128921762Y-113160151D01*
X128724225Y-113068039D01*
X128724224Y-113068039D01*
X128719243Y-113065716D01*
X128713935Y-113064294D01*
X128713933Y-113064293D01*
X128503402Y-113007881D01*
X128503400Y-113007881D01*
X128498087Y-113006457D01*
X128270000Y-112986502D01*
X128041913Y-113006457D01*
X128036600Y-113007881D01*
X128036598Y-113007881D01*
X127826067Y-113064293D01*
X127826065Y-113064294D01*
X127820757Y-113065716D01*
X127815776Y-113068039D01*
X127815775Y-113068039D01*
X127618238Y-113160151D01*
X127618233Y-113160154D01*
X127613251Y-113162477D01*
X127598970Y-113172477D01*
X127430211Y-113290643D01*
X127430208Y-113290645D01*
X127425700Y-113293802D01*
X127263802Y-113455700D01*
X127260645Y-113460208D01*
X127260643Y-113460211D01*
X127256800Y-113465700D01*
X127132477Y-113643251D01*
X127130154Y-113648233D01*
X127130151Y-113648238D01*
X127125488Y-113658238D01*
X127035716Y-113850757D01*
X127034294Y-113856065D01*
X127034293Y-113856067D01*
X126977881Y-114066598D01*
X126976457Y-114071913D01*
X126956502Y-114300000D01*
X121008500Y-114300000D01*
X121008500Y-109496522D01*
X137834773Y-109496522D01*
X137882264Y-109673761D01*
X137886010Y-109684053D01*
X137978086Y-109881511D01*
X137983569Y-109891007D01*
X138108528Y-110069467D01*
X138115584Y-110077875D01*
X138269625Y-110231916D01*
X138278033Y-110238972D01*
X138456493Y-110363931D01*
X138465989Y-110369414D01*
X138501141Y-110385805D01*
X138554426Y-110432722D01*
X138573887Y-110500999D01*
X138553345Y-110568959D01*
X138501141Y-110614195D01*
X138465989Y-110630586D01*
X138456493Y-110636069D01*
X138278033Y-110761028D01*
X138269625Y-110768084D01*
X138115584Y-110922125D01*
X138108528Y-110930533D01*
X137983569Y-111108993D01*
X137978086Y-111118489D01*
X137886010Y-111315947D01*
X137882264Y-111326239D01*
X137836106Y-111498503D01*
X137836442Y-111512599D01*
X137844384Y-111516000D01*
X139245385Y-111516000D01*
X139260624Y-111511525D01*
X139261829Y-111510135D01*
X139263500Y-111502452D01*
X139263500Y-111497885D01*
X139771500Y-111497885D01*
X139775975Y-111513124D01*
X139777365Y-111514329D01*
X139785048Y-111516000D01*
X141185467Y-111516000D01*
X141198998Y-111512027D01*
X141200227Y-111503478D01*
X141152736Y-111326239D01*
X141148990Y-111315947D01*
X141056914Y-111118489D01*
X141051431Y-111108993D01*
X140926472Y-110930533D01*
X140919416Y-110922125D01*
X140765375Y-110768084D01*
X140756967Y-110761028D01*
X140578507Y-110636069D01*
X140569011Y-110630586D01*
X140533859Y-110614195D01*
X140480574Y-110567278D01*
X140461113Y-110499001D01*
X140481655Y-110431041D01*
X140533859Y-110385805D01*
X140569011Y-110369414D01*
X140578507Y-110363931D01*
X140756967Y-110238972D01*
X140765375Y-110231916D01*
X140919416Y-110077875D01*
X140926472Y-110069467D01*
X141051431Y-109891007D01*
X141056914Y-109881511D01*
X141148990Y-109684053D01*
X141152736Y-109673761D01*
X141198894Y-109501497D01*
X141198558Y-109487401D01*
X141190616Y-109484000D01*
X139789615Y-109484000D01*
X139774376Y-109488475D01*
X139773171Y-109489865D01*
X139771500Y-109497548D01*
X139771500Y-111497885D01*
X139263500Y-111497885D01*
X139263500Y-109502115D01*
X139259025Y-109486876D01*
X139257635Y-109485671D01*
X139249952Y-109484000D01*
X137849533Y-109484000D01*
X137836002Y-109487973D01*
X137834773Y-109496522D01*
X121008500Y-109496522D01*
X121008500Y-107538134D01*
X137809000Y-107538134D01*
X137815755Y-107600316D01*
X137866885Y-107736705D01*
X137954239Y-107853261D01*
X138070795Y-107940615D01*
X138207184Y-107991745D01*
X138218729Y-107992999D01*
X138221410Y-107994113D01*
X138222722Y-107994425D01*
X138222672Y-107994637D01*
X138284290Y-108020238D01*
X138324718Y-108078599D01*
X138327177Y-108149553D01*
X138290884Y-108210572D01*
X138280275Y-108219147D01*
X138269625Y-108228084D01*
X138115584Y-108382125D01*
X138108528Y-108390533D01*
X137983569Y-108568993D01*
X137978086Y-108578489D01*
X137886010Y-108775947D01*
X137882264Y-108786239D01*
X137836106Y-108958503D01*
X137836442Y-108972599D01*
X137844384Y-108976000D01*
X141185467Y-108976000D01*
X141198998Y-108972027D01*
X141200227Y-108963478D01*
X141152736Y-108786239D01*
X141148990Y-108775947D01*
X141056914Y-108578489D01*
X141051431Y-108568993D01*
X140926472Y-108390533D01*
X140919416Y-108382125D01*
X140765375Y-108228084D01*
X140752754Y-108217493D01*
X140753608Y-108216475D01*
X140713276Y-108166016D01*
X140705968Y-108095397D01*
X140738000Y-108032037D01*
X140799202Y-107996053D01*
X140816262Y-107993000D01*
X140827816Y-107991745D01*
X140964205Y-107940615D01*
X141080761Y-107853261D01*
X141168115Y-107736705D01*
X141219245Y-107600316D01*
X141226000Y-107538134D01*
X141226000Y-105841866D01*
X141219245Y-105779684D01*
X141168115Y-105643295D01*
X141080761Y-105526739D01*
X140964205Y-105439385D01*
X140827816Y-105388255D01*
X140765634Y-105381500D01*
X138269366Y-105381500D01*
X138207184Y-105388255D01*
X138070795Y-105439385D01*
X137954239Y-105526739D01*
X137866885Y-105643295D01*
X137815755Y-105779684D01*
X137809000Y-105841866D01*
X137809000Y-107538134D01*
X121008500Y-107538134D01*
X121008500Y-99568000D01*
X127210502Y-99568000D01*
X127230457Y-99796087D01*
X127289716Y-100017243D01*
X127292039Y-100022224D01*
X127292039Y-100022225D01*
X127384151Y-100219762D01*
X127384154Y-100219767D01*
X127386477Y-100224749D01*
X127517802Y-100412300D01*
X127679700Y-100574198D01*
X127684208Y-100577355D01*
X127684211Y-100577357D01*
X127762389Y-100632098D01*
X127867251Y-100705523D01*
X127872233Y-100707846D01*
X127872238Y-100707849D01*
X128060172Y-100795483D01*
X128074757Y-100802284D01*
X128080065Y-100803706D01*
X128080067Y-100803707D01*
X128290598Y-100860119D01*
X128290600Y-100860119D01*
X128295913Y-100861543D01*
X128524000Y-100881498D01*
X128752087Y-100861543D01*
X128757400Y-100860119D01*
X128757402Y-100860119D01*
X128967933Y-100803707D01*
X128967935Y-100803706D01*
X128973243Y-100802284D01*
X128987828Y-100795483D01*
X129175762Y-100707849D01*
X129175767Y-100707846D01*
X129180749Y-100705523D01*
X129285611Y-100632098D01*
X129363789Y-100577357D01*
X129363792Y-100577355D01*
X129368300Y-100574198D01*
X129530198Y-100412300D01*
X129661523Y-100224749D01*
X129663846Y-100219767D01*
X129663849Y-100219762D01*
X129755961Y-100022225D01*
X129755961Y-100022224D01*
X129758284Y-100017243D01*
X129817543Y-99796087D01*
X129837498Y-99568000D01*
X129817543Y-99339913D01*
X129758284Y-99118757D01*
X129755961Y-99113775D01*
X129663849Y-98916238D01*
X129663846Y-98916233D01*
X129661523Y-98911251D01*
X129530198Y-98723700D01*
X129368300Y-98561802D01*
X129363792Y-98558645D01*
X129363789Y-98558643D01*
X129285611Y-98503902D01*
X129180749Y-98430477D01*
X129175767Y-98428154D01*
X129175762Y-98428151D01*
X128978225Y-98336039D01*
X128978224Y-98336039D01*
X128973243Y-98333716D01*
X128967935Y-98332294D01*
X128967933Y-98332293D01*
X128757402Y-98275881D01*
X128757400Y-98275881D01*
X128752087Y-98274457D01*
X128524000Y-98254502D01*
X128295913Y-98274457D01*
X128290600Y-98275881D01*
X128290598Y-98275881D01*
X128080067Y-98332293D01*
X128080065Y-98332294D01*
X128074757Y-98333716D01*
X128069776Y-98336039D01*
X128069775Y-98336039D01*
X127872238Y-98428151D01*
X127872233Y-98428154D01*
X127867251Y-98430477D01*
X127762389Y-98503902D01*
X127684211Y-98558643D01*
X127684208Y-98558645D01*
X127679700Y-98561802D01*
X127517802Y-98723700D01*
X127386477Y-98911251D01*
X127384154Y-98916233D01*
X127384151Y-98916238D01*
X127292039Y-99113775D01*
X127289716Y-99118757D01*
X127230457Y-99339913D01*
X127210502Y-99568000D01*
X121008500Y-99568000D01*
X121008500Y-89408000D01*
X127210502Y-89408000D01*
X127230457Y-89636087D01*
X127289716Y-89857243D01*
X127292039Y-89862224D01*
X127292039Y-89862225D01*
X127384151Y-90059762D01*
X127384154Y-90059767D01*
X127386477Y-90064749D01*
X127517802Y-90252300D01*
X127679700Y-90414198D01*
X127684208Y-90417355D01*
X127684211Y-90417357D01*
X127701673Y-90429584D01*
X127867251Y-90545523D01*
X127872233Y-90547846D01*
X127872238Y-90547849D01*
X127955993Y-90586904D01*
X128074757Y-90642284D01*
X128080065Y-90643706D01*
X128080067Y-90643707D01*
X128290598Y-90700119D01*
X128290600Y-90700119D01*
X128295913Y-90701543D01*
X128524000Y-90721498D01*
X128752087Y-90701543D01*
X128757400Y-90700119D01*
X128757402Y-90700119D01*
X128967933Y-90643707D01*
X128967935Y-90643706D01*
X128973243Y-90642284D01*
X129092007Y-90586904D01*
X129175762Y-90547849D01*
X129175767Y-90547846D01*
X129180749Y-90545523D01*
X129346327Y-90429584D01*
X129363789Y-90417357D01*
X129363792Y-90417355D01*
X129368300Y-90414198D01*
X129530198Y-90252300D01*
X129661523Y-90064749D01*
X129663846Y-90059767D01*
X129663849Y-90059762D01*
X129755961Y-89862225D01*
X129755961Y-89862224D01*
X129758284Y-89857243D01*
X129817543Y-89636087D01*
X129837498Y-89408000D01*
X133560502Y-89408000D01*
X133580457Y-89636087D01*
X133639716Y-89857243D01*
X133642039Y-89862224D01*
X133642039Y-89862225D01*
X133734151Y-90059762D01*
X133734154Y-90059767D01*
X133736477Y-90064749D01*
X133867802Y-90252300D01*
X134029700Y-90414198D01*
X134034208Y-90417355D01*
X134034211Y-90417357D01*
X134051673Y-90429584D01*
X134217251Y-90545523D01*
X134222233Y-90547846D01*
X134222238Y-90547849D01*
X134305993Y-90586904D01*
X134424757Y-90642284D01*
X134430065Y-90643706D01*
X134430067Y-90643707D01*
X134640598Y-90700119D01*
X134640600Y-90700119D01*
X134645913Y-90701543D01*
X134874000Y-90721498D01*
X135102087Y-90701543D01*
X135107400Y-90700119D01*
X135107402Y-90700119D01*
X135317933Y-90643707D01*
X135317935Y-90643706D01*
X135323243Y-90642284D01*
X135442007Y-90586904D01*
X135525762Y-90547849D01*
X135525767Y-90547846D01*
X135530749Y-90545523D01*
X135696327Y-90429584D01*
X135713789Y-90417357D01*
X135713792Y-90417355D01*
X135718300Y-90414198D01*
X135880198Y-90252300D01*
X136011523Y-90064749D01*
X136013846Y-90059767D01*
X136013849Y-90059762D01*
X136105961Y-89862225D01*
X136105961Y-89862224D01*
X136108284Y-89857243D01*
X136167543Y-89636087D01*
X136187498Y-89408000D01*
X140164502Y-89408000D01*
X140184457Y-89636087D01*
X140243716Y-89857243D01*
X140246039Y-89862224D01*
X140246039Y-89862225D01*
X140338151Y-90059762D01*
X140338154Y-90059767D01*
X140340477Y-90064749D01*
X140471802Y-90252300D01*
X140633700Y-90414198D01*
X140638208Y-90417355D01*
X140638211Y-90417357D01*
X140655673Y-90429584D01*
X140821251Y-90545523D01*
X140826233Y-90547846D01*
X140826238Y-90547849D01*
X140909993Y-90586904D01*
X141028757Y-90642284D01*
X141034065Y-90643706D01*
X141034067Y-90643707D01*
X141244598Y-90700119D01*
X141244600Y-90700119D01*
X141249913Y-90701543D01*
X141478000Y-90721498D01*
X141706087Y-90701543D01*
X141711400Y-90700119D01*
X141711402Y-90700119D01*
X141921933Y-90643707D01*
X141921935Y-90643706D01*
X141927243Y-90642284D01*
X142046007Y-90586904D01*
X142129762Y-90547849D01*
X142129767Y-90547846D01*
X142134749Y-90545523D01*
X142300327Y-90429584D01*
X142317789Y-90417357D01*
X142317792Y-90417355D01*
X142322300Y-90414198D01*
X142484198Y-90252300D01*
X142615523Y-90064749D01*
X142617846Y-90059767D01*
X142617849Y-90059762D01*
X142709961Y-89862225D01*
X142709961Y-89862224D01*
X142712284Y-89857243D01*
X142771543Y-89636087D01*
X142791498Y-89408000D01*
X146514502Y-89408000D01*
X146534457Y-89636087D01*
X146593716Y-89857243D01*
X146596039Y-89862224D01*
X146596039Y-89862225D01*
X146688151Y-90059762D01*
X146688154Y-90059767D01*
X146690477Y-90064749D01*
X146821802Y-90252300D01*
X146983700Y-90414198D01*
X146988208Y-90417355D01*
X146988211Y-90417357D01*
X147005673Y-90429584D01*
X147171251Y-90545523D01*
X147176233Y-90547846D01*
X147176238Y-90547849D01*
X147259993Y-90586904D01*
X147378757Y-90642284D01*
X147384065Y-90643706D01*
X147384067Y-90643707D01*
X147594598Y-90700119D01*
X147594600Y-90700119D01*
X147599913Y-90701543D01*
X147828000Y-90721498D01*
X148056087Y-90701543D01*
X148061400Y-90700119D01*
X148061402Y-90700119D01*
X148271933Y-90643707D01*
X148271935Y-90643706D01*
X148277243Y-90642284D01*
X148396007Y-90586904D01*
X148479762Y-90547849D01*
X148479767Y-90547846D01*
X148484749Y-90545523D01*
X148650327Y-90429584D01*
X148667789Y-90417357D01*
X148667792Y-90417355D01*
X148672300Y-90414198D01*
X148834198Y-90252300D01*
X148965523Y-90064749D01*
X148967846Y-90059767D01*
X148967849Y-90059762D01*
X149059961Y-89862225D01*
X149059961Y-89862224D01*
X149062284Y-89857243D01*
X149121543Y-89636087D01*
X149141498Y-89408000D01*
X152864502Y-89408000D01*
X152884457Y-89636087D01*
X152943716Y-89857243D01*
X152946039Y-89862224D01*
X152946039Y-89862225D01*
X153038151Y-90059762D01*
X153038154Y-90059767D01*
X153040477Y-90064749D01*
X153171802Y-90252300D01*
X153333700Y-90414198D01*
X153338208Y-90417355D01*
X153338211Y-90417357D01*
X153355673Y-90429584D01*
X153521251Y-90545523D01*
X153526233Y-90547846D01*
X153526238Y-90547849D01*
X153609993Y-90586904D01*
X153728757Y-90642284D01*
X153734065Y-90643706D01*
X153734067Y-90643707D01*
X153944598Y-90700119D01*
X153944600Y-90700119D01*
X153949913Y-90701543D01*
X154178000Y-90721498D01*
X154406087Y-90701543D01*
X154411400Y-90700119D01*
X154411402Y-90700119D01*
X154621933Y-90643707D01*
X154621935Y-90643706D01*
X154627243Y-90642284D01*
X154746007Y-90586904D01*
X154829762Y-90547849D01*
X154829767Y-90547846D01*
X154834749Y-90545523D01*
X155000327Y-90429584D01*
X155017789Y-90417357D01*
X155017792Y-90417355D01*
X155022300Y-90414198D01*
X155184198Y-90252300D01*
X155315523Y-90064749D01*
X155317846Y-90059767D01*
X155317849Y-90059762D01*
X155409961Y-89862225D01*
X155409961Y-89862224D01*
X155412284Y-89857243D01*
X155471543Y-89636087D01*
X155491498Y-89408000D01*
X155471543Y-89179913D01*
X155425233Y-89007082D01*
X155413707Y-88964067D01*
X155413706Y-88964065D01*
X155412284Y-88958757D01*
X155395034Y-88921764D01*
X155317849Y-88756238D01*
X155317846Y-88756233D01*
X155315523Y-88751251D01*
X155184198Y-88563700D01*
X155022300Y-88401802D01*
X155017792Y-88398645D01*
X155017789Y-88398643D01*
X154939611Y-88343902D01*
X154834749Y-88270477D01*
X154829767Y-88268154D01*
X154829762Y-88268151D01*
X154632225Y-88176039D01*
X154632224Y-88176039D01*
X154627243Y-88173716D01*
X154621935Y-88172294D01*
X154621933Y-88172293D01*
X154411402Y-88115881D01*
X154411400Y-88115881D01*
X154406087Y-88114457D01*
X154178000Y-88094502D01*
X153949913Y-88114457D01*
X153944600Y-88115881D01*
X153944598Y-88115881D01*
X153734067Y-88172293D01*
X153734065Y-88172294D01*
X153728757Y-88173716D01*
X153723776Y-88176039D01*
X153723775Y-88176039D01*
X153526238Y-88268151D01*
X153526233Y-88268154D01*
X153521251Y-88270477D01*
X153416389Y-88343902D01*
X153338211Y-88398643D01*
X153338208Y-88398645D01*
X153333700Y-88401802D01*
X153171802Y-88563700D01*
X153040477Y-88751251D01*
X153038154Y-88756233D01*
X153038151Y-88756238D01*
X152960966Y-88921764D01*
X152943716Y-88958757D01*
X152942294Y-88964065D01*
X152942293Y-88964067D01*
X152930767Y-89007082D01*
X152884457Y-89179913D01*
X152864502Y-89408000D01*
X149141498Y-89408000D01*
X149121543Y-89179913D01*
X149075233Y-89007082D01*
X149063707Y-88964067D01*
X149063706Y-88964065D01*
X149062284Y-88958757D01*
X149045034Y-88921764D01*
X148967849Y-88756238D01*
X148967846Y-88756233D01*
X148965523Y-88751251D01*
X148834198Y-88563700D01*
X148672300Y-88401802D01*
X148667792Y-88398645D01*
X148667789Y-88398643D01*
X148589611Y-88343902D01*
X148484749Y-88270477D01*
X148479767Y-88268154D01*
X148479762Y-88268151D01*
X148282225Y-88176039D01*
X148282224Y-88176039D01*
X148277243Y-88173716D01*
X148271935Y-88172294D01*
X148271933Y-88172293D01*
X148061402Y-88115881D01*
X148061400Y-88115881D01*
X148056087Y-88114457D01*
X147828000Y-88094502D01*
X147599913Y-88114457D01*
X147594600Y-88115881D01*
X147594598Y-88115881D01*
X147384067Y-88172293D01*
X147384065Y-88172294D01*
X147378757Y-88173716D01*
X147373776Y-88176039D01*
X147373775Y-88176039D01*
X147176238Y-88268151D01*
X147176233Y-88268154D01*
X147171251Y-88270477D01*
X147066389Y-88343902D01*
X146988211Y-88398643D01*
X146988208Y-88398645D01*
X146983700Y-88401802D01*
X146821802Y-88563700D01*
X146690477Y-88751251D01*
X146688154Y-88756233D01*
X146688151Y-88756238D01*
X146610966Y-88921764D01*
X146593716Y-88958757D01*
X146592294Y-88964065D01*
X146592293Y-88964067D01*
X146580767Y-89007082D01*
X146534457Y-89179913D01*
X146514502Y-89408000D01*
X142791498Y-89408000D01*
X142771543Y-89179913D01*
X142725233Y-89007082D01*
X142713707Y-88964067D01*
X142713706Y-88964065D01*
X142712284Y-88958757D01*
X142695034Y-88921764D01*
X142617849Y-88756238D01*
X142617846Y-88756233D01*
X142615523Y-88751251D01*
X142484198Y-88563700D01*
X142322300Y-88401802D01*
X142317792Y-88398645D01*
X142317789Y-88398643D01*
X142239611Y-88343902D01*
X142134749Y-88270477D01*
X142129767Y-88268154D01*
X142129762Y-88268151D01*
X141932225Y-88176039D01*
X141932224Y-88176039D01*
X141927243Y-88173716D01*
X141921935Y-88172294D01*
X141921933Y-88172293D01*
X141711402Y-88115881D01*
X141711400Y-88115881D01*
X141706087Y-88114457D01*
X141478000Y-88094502D01*
X141249913Y-88114457D01*
X141244600Y-88115881D01*
X141244598Y-88115881D01*
X141034067Y-88172293D01*
X141034065Y-88172294D01*
X141028757Y-88173716D01*
X141023776Y-88176039D01*
X141023775Y-88176039D01*
X140826238Y-88268151D01*
X140826233Y-88268154D01*
X140821251Y-88270477D01*
X140716389Y-88343902D01*
X140638211Y-88398643D01*
X140638208Y-88398645D01*
X140633700Y-88401802D01*
X140471802Y-88563700D01*
X140340477Y-88751251D01*
X140338154Y-88756233D01*
X140338151Y-88756238D01*
X140260966Y-88921764D01*
X140243716Y-88958757D01*
X140242294Y-88964065D01*
X140242293Y-88964067D01*
X140230767Y-89007082D01*
X140184457Y-89179913D01*
X140164502Y-89408000D01*
X136187498Y-89408000D01*
X136167543Y-89179913D01*
X136121233Y-89007082D01*
X136109707Y-88964067D01*
X136109706Y-88964065D01*
X136108284Y-88958757D01*
X136091034Y-88921764D01*
X136013849Y-88756238D01*
X136013846Y-88756233D01*
X136011523Y-88751251D01*
X135880198Y-88563700D01*
X135718300Y-88401802D01*
X135713792Y-88398645D01*
X135713789Y-88398643D01*
X135635611Y-88343902D01*
X135530749Y-88270477D01*
X135525767Y-88268154D01*
X135525762Y-88268151D01*
X135328225Y-88176039D01*
X135328224Y-88176039D01*
X135323243Y-88173716D01*
X135317935Y-88172294D01*
X135317933Y-88172293D01*
X135107402Y-88115881D01*
X135107400Y-88115881D01*
X135102087Y-88114457D01*
X134874000Y-88094502D01*
X134645913Y-88114457D01*
X134640600Y-88115881D01*
X134640598Y-88115881D01*
X134430067Y-88172293D01*
X134430065Y-88172294D01*
X134424757Y-88173716D01*
X134419776Y-88176039D01*
X134419775Y-88176039D01*
X134222238Y-88268151D01*
X134222233Y-88268154D01*
X134217251Y-88270477D01*
X134112389Y-88343902D01*
X134034211Y-88398643D01*
X134034208Y-88398645D01*
X134029700Y-88401802D01*
X133867802Y-88563700D01*
X133736477Y-88751251D01*
X133734154Y-88756233D01*
X133734151Y-88756238D01*
X133656966Y-88921764D01*
X133639716Y-88958757D01*
X133638294Y-88964065D01*
X133638293Y-88964067D01*
X133626767Y-89007082D01*
X133580457Y-89179913D01*
X133560502Y-89408000D01*
X129837498Y-89408000D01*
X129817543Y-89179913D01*
X129771233Y-89007082D01*
X129759707Y-88964067D01*
X129759706Y-88964065D01*
X129758284Y-88958757D01*
X129741034Y-88921764D01*
X129663849Y-88756238D01*
X129663846Y-88756233D01*
X129661523Y-88751251D01*
X129530198Y-88563700D01*
X129368300Y-88401802D01*
X129363792Y-88398645D01*
X129363789Y-88398643D01*
X129285611Y-88343902D01*
X129180749Y-88270477D01*
X129175767Y-88268154D01*
X129175762Y-88268151D01*
X128978225Y-88176039D01*
X128978224Y-88176039D01*
X128973243Y-88173716D01*
X128967935Y-88172294D01*
X128967933Y-88172293D01*
X128757402Y-88115881D01*
X128757400Y-88115881D01*
X128752087Y-88114457D01*
X128524000Y-88094502D01*
X128295913Y-88114457D01*
X128290600Y-88115881D01*
X128290598Y-88115881D01*
X128080067Y-88172293D01*
X128080065Y-88172294D01*
X128074757Y-88173716D01*
X128069776Y-88176039D01*
X128069775Y-88176039D01*
X127872238Y-88268151D01*
X127872233Y-88268154D01*
X127867251Y-88270477D01*
X127762389Y-88343902D01*
X127684211Y-88398643D01*
X127684208Y-88398645D01*
X127679700Y-88401802D01*
X127517802Y-88563700D01*
X127386477Y-88751251D01*
X127384154Y-88756233D01*
X127384151Y-88756238D01*
X127306966Y-88921764D01*
X127289716Y-88958757D01*
X127288294Y-88964065D01*
X127288293Y-88964067D01*
X127276767Y-89007082D01*
X127230457Y-89179913D01*
X127210502Y-89408000D01*
X121008500Y-89408000D01*
X121008500Y-73155625D01*
X122675290Y-73155625D01*
X122675883Y-73162917D01*
X122675883Y-73162920D01*
X122679574Y-73208294D01*
X122679989Y-73218509D01*
X122679989Y-73226569D01*
X122680414Y-73230213D01*
X122683278Y-73254783D01*
X122683711Y-73259157D01*
X122685085Y-73276047D01*
X122685500Y-73286263D01*
X122685500Y-79942930D01*
X122684067Y-79961880D01*
X122680801Y-79983349D01*
X122681394Y-79990641D01*
X122681394Y-79990644D01*
X122685085Y-80036018D01*
X122685500Y-80046233D01*
X122685500Y-80054293D01*
X122685925Y-80057937D01*
X122688789Y-80082507D01*
X122689222Y-80086882D01*
X122694212Y-80148222D01*
X122695140Y-80159637D01*
X122697396Y-80166601D01*
X122698587Y-80172560D01*
X122699971Y-80178415D01*
X122700818Y-80185681D01*
X122725735Y-80254327D01*
X122727152Y-80258455D01*
X122749649Y-80327899D01*
X122753445Y-80334154D01*
X122755951Y-80339628D01*
X122758670Y-80345058D01*
X122761167Y-80351937D01*
X122765180Y-80358057D01*
X122765180Y-80358058D01*
X122801186Y-80412976D01*
X122803523Y-80416680D01*
X122841405Y-80479107D01*
X122845121Y-80483315D01*
X122845122Y-80483316D01*
X122848803Y-80487484D01*
X122848776Y-80487508D01*
X122851429Y-80490500D01*
X122854132Y-80493733D01*
X122858144Y-80499852D01*
X122863456Y-80504884D01*
X122914383Y-80553128D01*
X122916825Y-80555506D01*
X123942595Y-81581276D01*
X123976621Y-81643588D01*
X123979500Y-81670371D01*
X123979500Y-81672133D01*
X123959498Y-81740254D01*
X123925772Y-81775345D01*
X123893700Y-81797802D01*
X123731802Y-81959700D01*
X123600477Y-82147251D01*
X123598154Y-82152233D01*
X123598151Y-82152238D01*
X123521257Y-82317139D01*
X123503716Y-82354757D01*
X123502294Y-82360065D01*
X123502293Y-82360067D01*
X123461923Y-82510729D01*
X123444457Y-82575913D01*
X123424502Y-82804000D01*
X123444457Y-83032087D01*
X123503716Y-83253243D01*
X123506039Y-83258224D01*
X123506039Y-83258225D01*
X123598151Y-83455762D01*
X123598154Y-83455767D01*
X123600477Y-83460749D01*
X123731802Y-83648300D01*
X123893700Y-83810198D01*
X123898208Y-83813355D01*
X123898211Y-83813357D01*
X123976389Y-83868098D01*
X124081251Y-83941523D01*
X124086233Y-83943846D01*
X124086238Y-83943849D01*
X124283775Y-84035961D01*
X124288757Y-84038284D01*
X124294065Y-84039706D01*
X124294067Y-84039707D01*
X124504598Y-84096119D01*
X124504600Y-84096119D01*
X124509913Y-84097543D01*
X124738000Y-84117498D01*
X124966087Y-84097543D01*
X124971400Y-84096119D01*
X124971402Y-84096119D01*
X125181933Y-84039707D01*
X125181935Y-84039706D01*
X125187243Y-84038284D01*
X125192225Y-84035961D01*
X125389762Y-83943849D01*
X125389767Y-83943846D01*
X125394749Y-83941523D01*
X125499611Y-83868098D01*
X125577789Y-83813357D01*
X125577792Y-83813355D01*
X125582300Y-83810198D01*
X125744198Y-83648300D01*
X125766655Y-83616229D01*
X125822110Y-83571901D01*
X125869867Y-83562500D01*
X130948133Y-83562500D01*
X131016254Y-83582502D01*
X131051345Y-83616228D01*
X131073802Y-83648300D01*
X131235700Y-83810198D01*
X131240208Y-83813355D01*
X131240211Y-83813357D01*
X131318389Y-83868098D01*
X131423251Y-83941523D01*
X131428233Y-83943846D01*
X131428238Y-83943849D01*
X131625775Y-84035961D01*
X131630757Y-84038284D01*
X131636065Y-84039706D01*
X131636067Y-84039707D01*
X131846598Y-84096119D01*
X131846600Y-84096119D01*
X131851913Y-84097543D01*
X132080000Y-84117498D01*
X132308087Y-84097543D01*
X132313400Y-84096119D01*
X132313402Y-84096119D01*
X132523933Y-84039707D01*
X132523935Y-84039706D01*
X132529243Y-84038284D01*
X132534225Y-84035961D01*
X132731762Y-83943849D01*
X132731767Y-83943846D01*
X132736749Y-83941523D01*
X132841611Y-83868098D01*
X132919789Y-83813357D01*
X132919792Y-83813355D01*
X132924300Y-83810198D01*
X133086198Y-83648300D01*
X133217523Y-83460749D01*
X133219848Y-83455764D01*
X133219851Y-83455758D01*
X133233610Y-83426251D01*
X133280527Y-83372965D01*
X133347805Y-83353500D01*
X139332890Y-83353500D01*
X139401011Y-83373502D01*
X139436102Y-83407228D01*
X139458559Y-83439300D01*
X139620457Y-83601198D01*
X139624965Y-83604355D01*
X139624968Y-83604357D01*
X139681283Y-83643789D01*
X139808008Y-83732523D01*
X139812990Y-83734846D01*
X139812995Y-83734849D01*
X139985349Y-83815218D01*
X140015514Y-83829284D01*
X140020822Y-83830706D01*
X140020824Y-83830707D01*
X140231355Y-83887119D01*
X140231357Y-83887119D01*
X140236670Y-83888543D01*
X140464757Y-83908498D01*
X140692844Y-83888543D01*
X140698157Y-83887119D01*
X140698159Y-83887119D01*
X140908690Y-83830707D01*
X140908692Y-83830706D01*
X140914000Y-83829284D01*
X140944165Y-83815218D01*
X141116519Y-83734849D01*
X141116524Y-83734846D01*
X141121506Y-83732523D01*
X141248231Y-83643789D01*
X141304546Y-83604357D01*
X141304549Y-83604355D01*
X141309057Y-83601198D01*
X141470955Y-83439300D01*
X141504257Y-83391740D01*
X141559714Y-83347412D01*
X141607470Y-83338011D01*
X146696133Y-83338011D01*
X146764254Y-83358013D01*
X146799345Y-83391739D01*
X146821802Y-83423811D01*
X146983700Y-83585709D01*
X146988208Y-83588866D01*
X146988211Y-83588868D01*
X147010332Y-83604357D01*
X147171251Y-83717034D01*
X147176233Y-83719357D01*
X147176238Y-83719360D01*
X147362686Y-83806301D01*
X147378757Y-83813795D01*
X147384065Y-83815217D01*
X147384067Y-83815218D01*
X147594598Y-83871630D01*
X147594600Y-83871630D01*
X147599913Y-83873054D01*
X147828000Y-83893009D01*
X148056087Y-83873054D01*
X148061400Y-83871630D01*
X148061402Y-83871630D01*
X148271933Y-83815218D01*
X148271935Y-83815217D01*
X148277243Y-83813795D01*
X148293314Y-83806301D01*
X148479762Y-83719360D01*
X148479767Y-83719357D01*
X148484749Y-83717034D01*
X148645668Y-83604357D01*
X148667789Y-83588868D01*
X148667792Y-83588866D01*
X148672300Y-83585709D01*
X148834198Y-83423811D01*
X148856655Y-83391740D01*
X148912110Y-83347412D01*
X148959867Y-83338011D01*
X154824133Y-83338011D01*
X154892254Y-83358013D01*
X154927345Y-83391739D01*
X154949802Y-83423811D01*
X155111700Y-83585709D01*
X155116208Y-83588866D01*
X155116211Y-83588868D01*
X155138332Y-83604357D01*
X155299251Y-83717034D01*
X155304233Y-83719357D01*
X155304238Y-83719360D01*
X155490686Y-83806301D01*
X155506757Y-83813795D01*
X155512065Y-83815217D01*
X155512067Y-83815218D01*
X155722598Y-83871630D01*
X155722600Y-83871630D01*
X155727913Y-83873054D01*
X155956000Y-83893009D01*
X156184087Y-83873054D01*
X156189400Y-83871630D01*
X156189402Y-83871630D01*
X156399933Y-83815218D01*
X156399935Y-83815217D01*
X156405243Y-83813795D01*
X156421314Y-83806301D01*
X156607762Y-83719360D01*
X156607767Y-83719357D01*
X156612749Y-83717034D01*
X156773668Y-83604357D01*
X156795789Y-83588868D01*
X156795792Y-83588866D01*
X156800300Y-83585709D01*
X156962198Y-83423811D01*
X156984655Y-83391740D01*
X157040110Y-83347412D01*
X157087867Y-83338011D01*
X161174133Y-83338011D01*
X161242254Y-83358013D01*
X161277345Y-83391739D01*
X161299802Y-83423811D01*
X161461700Y-83585709D01*
X161466208Y-83588866D01*
X161466211Y-83588868D01*
X161488332Y-83604357D01*
X161649251Y-83717034D01*
X161654233Y-83719357D01*
X161654238Y-83719360D01*
X161840686Y-83806301D01*
X161856757Y-83813795D01*
X161862065Y-83815217D01*
X161862067Y-83815218D01*
X162072598Y-83871630D01*
X162072600Y-83871630D01*
X162077913Y-83873054D01*
X162306000Y-83893009D01*
X162534087Y-83873054D01*
X162539400Y-83871630D01*
X162539402Y-83871630D01*
X162749933Y-83815218D01*
X162749935Y-83815217D01*
X162755243Y-83813795D01*
X162771314Y-83806301D01*
X162957762Y-83719360D01*
X162957767Y-83719357D01*
X162962749Y-83717034D01*
X163123668Y-83604357D01*
X163145789Y-83588868D01*
X163145792Y-83588866D01*
X163150300Y-83585709D01*
X163312198Y-83423811D01*
X163334655Y-83391740D01*
X163440366Y-83240768D01*
X163443523Y-83236260D01*
X163445846Y-83231278D01*
X163445849Y-83231273D01*
X163537961Y-83033736D01*
X163537961Y-83033735D01*
X163540284Y-83028754D01*
X163599543Y-82807598D01*
X163619498Y-82579511D01*
X163605245Y-82416598D01*
X163619234Y-82346993D01*
X163641671Y-82316521D01*
X175240911Y-70717281D01*
X175255323Y-70704895D01*
X175266918Y-70696362D01*
X175266923Y-70696357D01*
X175272818Y-70692019D01*
X175277557Y-70686441D01*
X175277560Y-70686438D01*
X175307035Y-70651743D01*
X175313965Y-70644227D01*
X175319660Y-70638532D01*
X175337281Y-70616260D01*
X175340072Y-70612856D01*
X175382591Y-70562808D01*
X175382592Y-70562806D01*
X175387333Y-70557226D01*
X175390661Y-70550710D01*
X175394028Y-70545661D01*
X175397195Y-70540532D01*
X175401734Y-70534795D01*
X175432655Y-70468636D01*
X175434561Y-70464736D01*
X175467769Y-70399703D01*
X175469508Y-70392595D01*
X175471607Y-70386952D01*
X175473524Y-70381189D01*
X175476622Y-70374561D01*
X175491487Y-70303094D01*
X175492457Y-70298810D01*
X175508473Y-70233356D01*
X175509808Y-70227901D01*
X175510500Y-70216747D01*
X175510536Y-70216749D01*
X175510775Y-70212756D01*
X175511149Y-70208564D01*
X175512640Y-70201396D01*
X175510546Y-70123990D01*
X175510500Y-70120583D01*
X175510500Y-57580632D01*
X175530502Y-57512511D01*
X175563331Y-57478054D01*
X175631860Y-57429173D01*
X175638004Y-57423051D01*
X175776941Y-57284598D01*
X175790096Y-57271489D01*
X175853391Y-57183405D01*
X175920453Y-57090077D01*
X175921640Y-57090930D01*
X175968960Y-57047362D01*
X176038897Y-57035145D01*
X176104338Y-57062678D01*
X176132166Y-57094511D01*
X176189694Y-57188388D01*
X176195777Y-57196699D01*
X176335213Y-57357667D01*
X176342580Y-57364883D01*
X176506434Y-57500916D01*
X176514881Y-57506831D01*
X176698756Y-57614279D01*
X176708042Y-57618729D01*
X176907001Y-57694703D01*
X176916899Y-57697579D01*
X177020250Y-57718606D01*
X177034299Y-57717410D01*
X177038000Y-57707065D01*
X177038000Y-57706517D01*
X177546000Y-57706517D01*
X177550064Y-57720359D01*
X177563478Y-57722393D01*
X177570184Y-57721534D01*
X177580262Y-57719392D01*
X177784255Y-57658191D01*
X177793842Y-57654433D01*
X177985095Y-57560739D01*
X177993945Y-57555464D01*
X178167328Y-57431792D01*
X178175200Y-57425139D01*
X178326052Y-57274812D01*
X178332730Y-57266965D01*
X178457003Y-57094020D01*
X178462313Y-57085183D01*
X178556670Y-56894267D01*
X178560469Y-56884672D01*
X178622377Y-56680910D01*
X178624555Y-56670837D01*
X178625986Y-56659962D01*
X178623775Y-56645778D01*
X178610617Y-56642000D01*
X177564115Y-56642000D01*
X177548876Y-56646475D01*
X177547671Y-56647865D01*
X177546000Y-56655548D01*
X177546000Y-57706517D01*
X177038000Y-57706517D01*
X177038000Y-56260000D01*
X177058002Y-56191879D01*
X177111658Y-56145386D01*
X177164000Y-56134000D01*
X178610344Y-56134000D01*
X178623875Y-56130027D01*
X178625180Y-56120947D01*
X178583166Y-55953685D01*
X178585970Y-55882744D01*
X178626683Y-55824580D01*
X178692378Y-55797661D01*
X178705370Y-55796989D01*
X184640500Y-55796989D01*
X184708621Y-55816991D01*
X184755114Y-55870647D01*
X184766500Y-55922989D01*
X184766500Y-56778134D01*
X184773255Y-56840316D01*
X184824385Y-56976705D01*
X184911739Y-57093261D01*
X185028295Y-57180615D01*
X185036704Y-57183767D01*
X185036705Y-57183768D01*
X185145451Y-57224535D01*
X185202216Y-57267176D01*
X185226916Y-57333738D01*
X185211709Y-57403087D01*
X185192316Y-57429568D01*
X185166409Y-57456678D01*
X185069664Y-57557916D01*
X185065629Y-57562138D01*
X185062715Y-57566410D01*
X185062714Y-57566411D01*
X185027025Y-57618729D01*
X184939743Y-57746680D01*
X184845688Y-57949305D01*
X184785989Y-58164570D01*
X184762251Y-58386695D01*
X184762548Y-58391848D01*
X184762548Y-58391851D01*
X184768011Y-58486590D01*
X184775110Y-58609715D01*
X184776247Y-58614761D01*
X184776248Y-58614767D01*
X184788707Y-58670050D01*
X184824222Y-58827639D01*
X184908266Y-59034616D01*
X184910965Y-59039020D01*
X185003858Y-59190608D01*
X185024987Y-59225088D01*
X185171250Y-59393938D01*
X185343126Y-59536632D01*
X185413595Y-59577811D01*
X185416445Y-59579476D01*
X185465169Y-59631114D01*
X185478240Y-59700897D01*
X185451509Y-59766669D01*
X185411055Y-59800027D01*
X185398607Y-59806507D01*
X185394474Y-59809610D01*
X185394471Y-59809612D01*
X185370247Y-59827800D01*
X185219965Y-59940635D01*
X185065629Y-60102138D01*
X184939743Y-60286680D01*
X184845688Y-60489305D01*
X184785989Y-60704570D01*
X184762251Y-60926695D01*
X184762548Y-60931848D01*
X184762548Y-60931851D01*
X184768011Y-61026590D01*
X184775110Y-61149715D01*
X184776247Y-61154761D01*
X184776248Y-61154767D01*
X184796119Y-61242939D01*
X184824222Y-61367639D01*
X184908266Y-61574616D01*
X185024987Y-61765088D01*
X185171250Y-61933938D01*
X185343126Y-62076632D01*
X185413595Y-62117811D01*
X185416445Y-62119476D01*
X185465169Y-62171114D01*
X185478240Y-62240897D01*
X185451509Y-62306669D01*
X185411055Y-62340027D01*
X185398607Y-62346507D01*
X185394474Y-62349610D01*
X185394471Y-62349612D01*
X185370247Y-62367800D01*
X185219965Y-62480635D01*
X185065629Y-62642138D01*
X184939743Y-62826680D01*
X184845688Y-63029305D01*
X184785989Y-63244570D01*
X184762251Y-63466695D01*
X184762548Y-63471848D01*
X184762548Y-63471851D01*
X184768749Y-63579390D01*
X184775110Y-63689715D01*
X184776247Y-63694761D01*
X184776248Y-63694767D01*
X184796119Y-63782939D01*
X184824222Y-63907639D01*
X184908266Y-64114616D01*
X185024987Y-64305088D01*
X185171250Y-64473938D01*
X185343126Y-64616632D01*
X185413595Y-64657811D01*
X185416445Y-64659476D01*
X185465169Y-64711114D01*
X185478240Y-64780897D01*
X185451509Y-64846669D01*
X185411055Y-64880027D01*
X185398607Y-64886507D01*
X185394474Y-64889610D01*
X185394471Y-64889612D01*
X185370247Y-64907800D01*
X185219965Y-65020635D01*
X185065629Y-65182138D01*
X184939743Y-65366680D01*
X184845688Y-65569305D01*
X184785989Y-65784570D01*
X184762251Y-66006695D01*
X184762548Y-66011848D01*
X184762548Y-66011851D01*
X184767957Y-66105663D01*
X184775110Y-66229715D01*
X184776247Y-66234761D01*
X184776248Y-66234767D01*
X184788420Y-66288775D01*
X184824222Y-66447639D01*
X184908266Y-66654616D01*
X185024987Y-66845088D01*
X185171250Y-67013938D01*
X185343126Y-67156632D01*
X185413595Y-67197811D01*
X185416445Y-67199476D01*
X185465169Y-67251114D01*
X185478240Y-67320897D01*
X185451509Y-67386669D01*
X185411055Y-67420027D01*
X185398607Y-67426507D01*
X185394474Y-67429610D01*
X185394471Y-67429612D01*
X185370247Y-67447800D01*
X185219965Y-67560635D01*
X185065629Y-67722138D01*
X185035363Y-67766507D01*
X184980455Y-67811507D01*
X184931277Y-67821500D01*
X181169070Y-67821500D01*
X181150120Y-67820067D01*
X181135885Y-67817901D01*
X181135881Y-67817901D01*
X181128651Y-67816801D01*
X181121359Y-67817394D01*
X181121356Y-67817394D01*
X181075982Y-67821085D01*
X181065767Y-67821500D01*
X181057707Y-67821500D01*
X181044417Y-67823049D01*
X181029493Y-67824789D01*
X181025118Y-67825222D01*
X180959661Y-67830546D01*
X180959658Y-67830547D01*
X180952363Y-67831140D01*
X180945399Y-67833396D01*
X180939440Y-67834587D01*
X180933585Y-67835971D01*
X180926319Y-67836818D01*
X180857673Y-67861735D01*
X180853545Y-67863152D01*
X180791064Y-67883393D01*
X180791062Y-67883394D01*
X180784101Y-67885649D01*
X180777846Y-67889445D01*
X180772372Y-67891951D01*
X180766942Y-67894670D01*
X180760063Y-67897167D01*
X180753943Y-67901180D01*
X180753942Y-67901180D01*
X180699024Y-67937186D01*
X180695320Y-67939523D01*
X180632893Y-67977405D01*
X180624516Y-67984803D01*
X180624492Y-67984776D01*
X180621500Y-67987429D01*
X180618267Y-67990132D01*
X180612148Y-67994144D01*
X180607116Y-67999456D01*
X180558872Y-68050383D01*
X180556494Y-68052825D01*
X160536990Y-88072329D01*
X160474678Y-88106355D01*
X160436913Y-88108755D01*
X160279475Y-88094981D01*
X160274000Y-88094502D01*
X160045913Y-88114457D01*
X160040600Y-88115881D01*
X160040598Y-88115881D01*
X159830067Y-88172293D01*
X159830065Y-88172294D01*
X159824757Y-88173716D01*
X159819776Y-88176039D01*
X159819775Y-88176039D01*
X159622238Y-88268151D01*
X159622233Y-88268154D01*
X159617251Y-88270477D01*
X159512389Y-88343902D01*
X159434211Y-88398643D01*
X159434208Y-88398645D01*
X159429700Y-88401802D01*
X159267802Y-88563700D01*
X159136477Y-88751251D01*
X159134154Y-88756233D01*
X159134151Y-88756238D01*
X159056966Y-88921764D01*
X159039716Y-88958757D01*
X159038294Y-88964065D01*
X159038293Y-88964067D01*
X159026767Y-89007082D01*
X158980457Y-89179913D01*
X158960502Y-89408000D01*
X158980457Y-89636087D01*
X159039716Y-89857243D01*
X159042039Y-89862224D01*
X159042039Y-89862225D01*
X159134151Y-90059762D01*
X159134154Y-90059767D01*
X159136477Y-90064749D01*
X159267802Y-90252300D01*
X159429700Y-90414198D01*
X159434208Y-90417355D01*
X159434211Y-90417357D01*
X159451673Y-90429584D01*
X159617251Y-90545523D01*
X159622233Y-90547846D01*
X159622238Y-90547849D01*
X159705993Y-90586904D01*
X159824757Y-90642284D01*
X159830065Y-90643706D01*
X159830067Y-90643707D01*
X160040598Y-90700119D01*
X160040600Y-90700119D01*
X160045913Y-90701543D01*
X160274000Y-90721498D01*
X160502087Y-90701543D01*
X160507400Y-90700119D01*
X160507402Y-90700119D01*
X160717933Y-90643707D01*
X160717935Y-90643706D01*
X160723243Y-90642284D01*
X160842007Y-90586904D01*
X160925762Y-90547849D01*
X160925767Y-90547846D01*
X160930749Y-90545523D01*
X161096327Y-90429584D01*
X161113789Y-90417357D01*
X161113792Y-90417355D01*
X161118300Y-90414198D01*
X161280198Y-90252300D01*
X161411523Y-90064749D01*
X161413846Y-90059767D01*
X161413849Y-90059762D01*
X161505961Y-89862225D01*
X161505961Y-89862224D01*
X161508284Y-89857243D01*
X161567543Y-89636087D01*
X161587498Y-89408000D01*
X161573245Y-89245087D01*
X161587234Y-89175482D01*
X161609671Y-89145010D01*
X181379276Y-69375405D01*
X181441588Y-69341379D01*
X181468371Y-69338500D01*
X184927491Y-69338500D01*
X184995612Y-69358502D01*
X185024402Y-69385595D01*
X185024987Y-69385088D01*
X185171250Y-69553938D01*
X185343126Y-69696632D01*
X185353538Y-69702716D01*
X185416445Y-69739476D01*
X185465169Y-69791114D01*
X185478240Y-69860897D01*
X185451509Y-69926669D01*
X185411055Y-69960027D01*
X185398607Y-69966507D01*
X185394474Y-69969610D01*
X185394471Y-69969612D01*
X185296152Y-70043432D01*
X185219965Y-70100635D01*
X185065629Y-70262138D01*
X185062715Y-70266410D01*
X185062714Y-70266411D01*
X184988939Y-70374561D01*
X184939743Y-70446680D01*
X184924003Y-70480590D01*
X184849484Y-70641128D01*
X184845688Y-70649305D01*
X184785989Y-70864570D01*
X184762251Y-71086695D01*
X184762548Y-71091848D01*
X184762548Y-71091851D01*
X184767850Y-71183804D01*
X184775110Y-71309715D01*
X184776247Y-71314761D01*
X184776248Y-71314767D01*
X184797745Y-71410154D01*
X184824222Y-71527639D01*
X184908266Y-71734616D01*
X185024987Y-71925088D01*
X185171250Y-72093938D01*
X185343126Y-72236632D01*
X185403800Y-72272087D01*
X185416445Y-72279476D01*
X185465169Y-72331114D01*
X185478240Y-72400897D01*
X185451509Y-72466669D01*
X185411055Y-72500027D01*
X185398607Y-72506507D01*
X185394474Y-72509610D01*
X185394471Y-72509612D01*
X185370247Y-72527800D01*
X185219965Y-72640635D01*
X185065629Y-72802138D01*
X184939743Y-72986680D01*
X184925024Y-73018389D01*
X184849025Y-73182117D01*
X184845688Y-73189305D01*
X184785989Y-73404570D01*
X184762251Y-73626695D01*
X184762548Y-73631848D01*
X184762548Y-73631851D01*
X184768011Y-73726590D01*
X184775110Y-73849715D01*
X184776247Y-73854761D01*
X184776248Y-73854767D01*
X184787516Y-73904764D01*
X184824222Y-74067639D01*
X184908266Y-74274616D01*
X185024987Y-74465088D01*
X185171250Y-74633938D01*
X185343126Y-74776632D01*
X185413595Y-74817811D01*
X185416445Y-74819476D01*
X185465169Y-74871114D01*
X185478240Y-74940897D01*
X185451509Y-75006669D01*
X185411055Y-75040027D01*
X185398607Y-75046507D01*
X185394474Y-75049610D01*
X185394471Y-75049612D01*
X185370247Y-75067800D01*
X185219965Y-75180635D01*
X185065629Y-75342138D01*
X185035363Y-75386507D01*
X184980455Y-75431507D01*
X184931277Y-75441500D01*
X183665089Y-75441500D01*
X183646139Y-75440067D01*
X183631904Y-75437901D01*
X183631900Y-75437901D01*
X183624670Y-75436801D01*
X183617378Y-75437394D01*
X183617375Y-75437394D01*
X183572001Y-75441085D01*
X183561786Y-75441500D01*
X183553726Y-75441500D01*
X183550092Y-75441924D01*
X183550086Y-75441924D01*
X183537061Y-75443443D01*
X183525499Y-75444791D01*
X183521151Y-75445221D01*
X183448383Y-75451140D01*
X183441422Y-75453395D01*
X183435482Y-75454582D01*
X183429607Y-75455971D01*
X183422338Y-75456818D01*
X183353689Y-75481736D01*
X183349561Y-75483153D01*
X183287083Y-75503393D01*
X183287081Y-75503394D01*
X183280120Y-75505649D01*
X183273865Y-75509445D01*
X183268391Y-75511951D01*
X183262961Y-75514670D01*
X183256082Y-75517167D01*
X183249962Y-75521180D01*
X183249961Y-75521180D01*
X183195043Y-75557186D01*
X183191339Y-75559523D01*
X183128912Y-75597405D01*
X183120535Y-75604803D01*
X183120511Y-75604776D01*
X183117519Y-75607429D01*
X183114286Y-75610132D01*
X183108167Y-75614144D01*
X183103135Y-75619456D01*
X183054891Y-75670383D01*
X183052513Y-75672825D01*
X167629205Y-91096133D01*
X167566893Y-91130159D01*
X167540110Y-91133038D01*
X140585532Y-91133038D01*
X140566582Y-91131605D01*
X140552347Y-91129439D01*
X140552343Y-91129439D01*
X140545113Y-91128339D01*
X140537821Y-91128932D01*
X140537818Y-91128932D01*
X140492444Y-91132623D01*
X140482229Y-91133038D01*
X140474169Y-91133038D01*
X140460879Y-91134587D01*
X140445955Y-91136327D01*
X140441580Y-91136760D01*
X140376123Y-91142084D01*
X140376120Y-91142085D01*
X140368825Y-91142678D01*
X140361861Y-91144934D01*
X140355902Y-91146125D01*
X140350047Y-91147509D01*
X140342781Y-91148356D01*
X140274135Y-91173273D01*
X140270007Y-91174690D01*
X140207526Y-91194931D01*
X140207524Y-91194932D01*
X140200563Y-91197187D01*
X140194308Y-91200983D01*
X140188834Y-91203489D01*
X140183404Y-91206208D01*
X140176525Y-91208705D01*
X140170405Y-91212718D01*
X140170404Y-91212718D01*
X140115486Y-91248724D01*
X140111782Y-91251061D01*
X140049355Y-91288943D01*
X140040978Y-91296341D01*
X140040954Y-91296314D01*
X140037962Y-91298967D01*
X140034729Y-91301670D01*
X140028610Y-91305682D01*
X140023578Y-91310994D01*
X139975334Y-91361921D01*
X139972956Y-91364363D01*
X128532990Y-102804329D01*
X128470678Y-102838355D01*
X128432913Y-102840755D01*
X128275475Y-102826981D01*
X128270000Y-102826502D01*
X128041913Y-102846457D01*
X128036600Y-102847881D01*
X128036598Y-102847881D01*
X127826067Y-102904293D01*
X127826065Y-102904294D01*
X127820757Y-102905716D01*
X127815776Y-102908039D01*
X127815775Y-102908039D01*
X127618238Y-103000151D01*
X127618233Y-103000154D01*
X127613251Y-103002477D01*
X127531441Y-103059761D01*
X127430211Y-103130643D01*
X127430208Y-103130645D01*
X127425700Y-103133802D01*
X127263802Y-103295700D01*
X127132477Y-103483251D01*
X127130154Y-103488233D01*
X127130151Y-103488238D01*
X127067685Y-103622198D01*
X127035716Y-103690757D01*
X127034294Y-103696065D01*
X127034293Y-103696067D01*
X126985809Y-103877010D01*
X126976457Y-103911913D01*
X126956502Y-104140000D01*
X126976457Y-104368087D01*
X127035716Y-104589243D01*
X127038039Y-104594224D01*
X127038039Y-104594225D01*
X127130151Y-104791762D01*
X127130154Y-104791767D01*
X127132477Y-104796749D01*
X127263802Y-104984300D01*
X127425700Y-105146198D01*
X127430208Y-105149355D01*
X127430211Y-105149357D01*
X127508389Y-105204098D01*
X127613251Y-105277523D01*
X127618233Y-105279846D01*
X127618238Y-105279849D01*
X127757088Y-105344595D01*
X127820757Y-105374284D01*
X127826065Y-105375706D01*
X127826067Y-105375707D01*
X128036598Y-105432119D01*
X128036600Y-105432119D01*
X128041913Y-105433543D01*
X128270000Y-105453498D01*
X128498087Y-105433543D01*
X128503400Y-105432119D01*
X128503402Y-105432119D01*
X128713933Y-105375707D01*
X128713935Y-105375706D01*
X128719243Y-105374284D01*
X128782912Y-105344595D01*
X128921762Y-105279849D01*
X128921767Y-105279846D01*
X128926749Y-105277523D01*
X129031611Y-105204098D01*
X129109789Y-105149357D01*
X129109792Y-105149355D01*
X129114300Y-105146198D01*
X129276198Y-104984300D01*
X129407523Y-104796749D01*
X129409846Y-104791767D01*
X129409849Y-104791762D01*
X129501961Y-104594225D01*
X129501961Y-104594224D01*
X129504284Y-104589243D01*
X129563543Y-104368087D01*
X129583498Y-104140000D01*
X129583019Y-104134525D01*
X129569245Y-103977087D01*
X129583234Y-103907482D01*
X129605671Y-103877010D01*
X133457051Y-100025630D01*
X133519363Y-99991604D01*
X133590178Y-99996669D01*
X133647014Y-100039216D01*
X133660341Y-100061475D01*
X133734151Y-100219762D01*
X133734154Y-100219767D01*
X133736477Y-100224749D01*
X133867802Y-100412300D01*
X134029700Y-100574198D01*
X134034208Y-100577355D01*
X134034211Y-100577357D01*
X134112389Y-100632098D01*
X134217251Y-100705523D01*
X134222233Y-100707846D01*
X134222238Y-100707849D01*
X134410172Y-100795483D01*
X134424757Y-100802284D01*
X134430065Y-100803706D01*
X134430067Y-100803707D01*
X134640598Y-100860119D01*
X134640600Y-100860119D01*
X134645913Y-100861543D01*
X134874000Y-100881498D01*
X135102087Y-100861543D01*
X135107400Y-100860119D01*
X135107402Y-100860119D01*
X135317933Y-100803707D01*
X135317935Y-100803706D01*
X135323243Y-100802284D01*
X135337828Y-100795483D01*
X135525762Y-100707849D01*
X135525767Y-100707846D01*
X135530749Y-100705523D01*
X135635611Y-100632098D01*
X135713789Y-100577357D01*
X135713792Y-100577355D01*
X135718300Y-100574198D01*
X135880198Y-100412300D01*
X136011523Y-100224749D01*
X136013846Y-100219767D01*
X136013849Y-100219762D01*
X136105961Y-100022225D01*
X136105961Y-100022224D01*
X136108284Y-100017243D01*
X136167543Y-99796087D01*
X136187498Y-99568000D01*
X136167543Y-99339913D01*
X136108284Y-99118757D01*
X136105961Y-99113775D01*
X136013849Y-98916238D01*
X136013846Y-98916233D01*
X136011523Y-98911251D01*
X135880198Y-98723700D01*
X135718300Y-98561802D01*
X135713792Y-98558645D01*
X135713789Y-98558643D01*
X135635611Y-98503902D01*
X135530749Y-98430477D01*
X135525767Y-98428154D01*
X135525762Y-98428151D01*
X135367475Y-98354341D01*
X135314190Y-98307424D01*
X135294729Y-98239146D01*
X135315271Y-98171186D01*
X135331630Y-98151051D01*
X140795738Y-92686943D01*
X140858050Y-92652917D01*
X140884833Y-92650038D01*
X167839411Y-92650038D01*
X167858361Y-92651471D01*
X167872596Y-92653637D01*
X167872600Y-92653637D01*
X167879830Y-92654737D01*
X167887122Y-92654144D01*
X167887125Y-92654144D01*
X167932499Y-92650453D01*
X167942714Y-92650038D01*
X167950774Y-92650038D01*
X167964064Y-92648489D01*
X167978988Y-92646749D01*
X167983363Y-92646316D01*
X168048820Y-92640992D01*
X168048823Y-92640991D01*
X168056118Y-92640398D01*
X168063082Y-92638142D01*
X168069041Y-92636951D01*
X168074896Y-92635567D01*
X168082162Y-92634720D01*
X168150808Y-92609803D01*
X168154936Y-92608386D01*
X168217417Y-92588145D01*
X168217419Y-92588144D01*
X168224380Y-92585889D01*
X168230635Y-92582093D01*
X168236109Y-92579587D01*
X168241539Y-92576868D01*
X168248418Y-92574371D01*
X168309457Y-92534352D01*
X168313161Y-92532015D01*
X168375588Y-92494133D01*
X168383965Y-92486735D01*
X168383989Y-92486762D01*
X168386981Y-92484109D01*
X168390214Y-92481406D01*
X168396333Y-92477394D01*
X168449609Y-92421155D01*
X168451987Y-92418713D01*
X172762405Y-88108295D01*
X172824717Y-88074269D01*
X172895532Y-88079334D01*
X172952368Y-88121881D01*
X172977179Y-88188401D01*
X172977500Y-88197390D01*
X172977500Y-91835629D01*
X172957498Y-91903750D01*
X172940595Y-91924724D01*
X168378724Y-96486595D01*
X168316412Y-96520621D01*
X168289629Y-96523500D01*
X141545070Y-96523500D01*
X141526120Y-96522067D01*
X141511885Y-96519901D01*
X141511881Y-96519901D01*
X141504651Y-96518801D01*
X141497359Y-96519394D01*
X141497356Y-96519394D01*
X141451982Y-96523085D01*
X141441767Y-96523500D01*
X141433707Y-96523500D01*
X141430073Y-96523924D01*
X141430067Y-96523924D01*
X141417042Y-96525443D01*
X141405480Y-96526791D01*
X141401132Y-96527221D01*
X141379059Y-96529016D01*
X141335662Y-96532546D01*
X141335659Y-96532547D01*
X141328364Y-96533140D01*
X141321400Y-96535396D01*
X141315461Y-96536583D01*
X141309590Y-96537970D01*
X141302319Y-96538818D01*
X141295443Y-96541314D01*
X141295434Y-96541316D01*
X141233702Y-96563725D01*
X141229598Y-96565135D01*
X141160101Y-96587648D01*
X141153846Y-96591444D01*
X141148387Y-96593943D01*
X141142939Y-96596671D01*
X141136063Y-96599167D01*
X141075010Y-96639195D01*
X141071337Y-96641513D01*
X141008893Y-96679405D01*
X141000517Y-96686802D01*
X141000493Y-96686775D01*
X140997499Y-96689430D01*
X140994268Y-96692132D01*
X140988148Y-96696144D01*
X140983116Y-96701456D01*
X140934872Y-96752383D01*
X140932494Y-96754825D01*
X134882990Y-102804329D01*
X134820678Y-102838355D01*
X134782913Y-102840755D01*
X134625475Y-102826981D01*
X134620000Y-102826502D01*
X134391913Y-102846457D01*
X134386600Y-102847881D01*
X134386598Y-102847881D01*
X134176067Y-102904293D01*
X134176065Y-102904294D01*
X134170757Y-102905716D01*
X134165776Y-102908039D01*
X134165775Y-102908039D01*
X133968238Y-103000151D01*
X133968233Y-103000154D01*
X133963251Y-103002477D01*
X133881441Y-103059761D01*
X133780211Y-103130643D01*
X133780208Y-103130645D01*
X133775700Y-103133802D01*
X133613802Y-103295700D01*
X133482477Y-103483251D01*
X133480154Y-103488233D01*
X133480151Y-103488238D01*
X133417685Y-103622198D01*
X133385716Y-103690757D01*
X133384294Y-103696065D01*
X133384293Y-103696067D01*
X133335809Y-103877010D01*
X133326457Y-103911913D01*
X133306502Y-104140000D01*
X133326457Y-104368087D01*
X133385716Y-104589243D01*
X133388039Y-104594224D01*
X133388039Y-104594225D01*
X133480151Y-104791762D01*
X133480154Y-104791767D01*
X133482477Y-104796749D01*
X133613802Y-104984300D01*
X133775700Y-105146198D01*
X133780208Y-105149355D01*
X133780211Y-105149357D01*
X133858389Y-105204098D01*
X133963251Y-105277523D01*
X133968233Y-105279846D01*
X133968238Y-105279849D01*
X134107088Y-105344595D01*
X134170757Y-105374284D01*
X134176065Y-105375706D01*
X134176067Y-105375707D01*
X134386598Y-105432119D01*
X134386600Y-105432119D01*
X134391913Y-105433543D01*
X134620000Y-105453498D01*
X134848087Y-105433543D01*
X134853400Y-105432119D01*
X134853402Y-105432119D01*
X135063933Y-105375707D01*
X135063935Y-105375706D01*
X135069243Y-105374284D01*
X135132912Y-105344595D01*
X135271762Y-105279849D01*
X135271767Y-105279846D01*
X135276749Y-105277523D01*
X135381611Y-105204098D01*
X135459789Y-105149357D01*
X135459792Y-105149355D01*
X135464300Y-105146198D01*
X135626198Y-104984300D01*
X135757523Y-104796749D01*
X135759846Y-104791767D01*
X135759849Y-104791762D01*
X135851961Y-104594225D01*
X135851961Y-104594224D01*
X135854284Y-104589243D01*
X135913543Y-104368087D01*
X135933498Y-104140000D01*
X135933019Y-104134525D01*
X135919245Y-103977087D01*
X135933234Y-103907482D01*
X135955671Y-103877010D01*
X137488178Y-102344503D01*
X157214606Y-102344503D01*
X157214942Y-102358599D01*
X157222884Y-102362000D01*
X158223885Y-102362000D01*
X158239124Y-102357525D01*
X158240329Y-102356135D01*
X158242000Y-102348452D01*
X158242000Y-102343885D01*
X158750000Y-102343885D01*
X158754475Y-102359124D01*
X158755865Y-102360329D01*
X158763548Y-102362000D01*
X159763967Y-102362000D01*
X159777498Y-102358027D01*
X159778727Y-102349478D01*
X159731236Y-102172239D01*
X159727490Y-102161947D01*
X159635414Y-101964489D01*
X159629931Y-101954993D01*
X159504972Y-101776533D01*
X159497916Y-101768125D01*
X159343875Y-101614084D01*
X159335467Y-101607028D01*
X159157007Y-101482069D01*
X159147511Y-101476586D01*
X158950053Y-101384510D01*
X158939761Y-101380764D01*
X158767497Y-101334606D01*
X158753401Y-101334942D01*
X158750000Y-101342884D01*
X158750000Y-102343885D01*
X158242000Y-102343885D01*
X158242000Y-101348033D01*
X158238027Y-101334502D01*
X158229478Y-101333273D01*
X158052239Y-101380764D01*
X158041947Y-101384510D01*
X157844489Y-101476586D01*
X157834993Y-101482069D01*
X157656533Y-101607028D01*
X157648125Y-101614084D01*
X157494084Y-101768125D01*
X157487028Y-101776533D01*
X157362069Y-101954993D01*
X157356586Y-101964489D01*
X157264510Y-102161947D01*
X157260764Y-102172239D01*
X157214606Y-102344503D01*
X137488178Y-102344503D01*
X139998892Y-99833789D01*
X140061204Y-99799763D01*
X140132019Y-99804828D01*
X140188855Y-99847375D01*
X140209694Y-99890272D01*
X140243716Y-100017243D01*
X140246039Y-100022224D01*
X140246039Y-100022225D01*
X140338151Y-100219762D01*
X140338154Y-100219767D01*
X140340477Y-100224749D01*
X140471802Y-100412300D01*
X140633700Y-100574198D01*
X140638208Y-100577355D01*
X140638211Y-100577357D01*
X140716389Y-100632098D01*
X140821251Y-100705523D01*
X140826233Y-100707846D01*
X140826238Y-100707849D01*
X141014172Y-100795483D01*
X141028757Y-100802284D01*
X141034065Y-100803706D01*
X141034067Y-100803707D01*
X141244598Y-100860119D01*
X141244600Y-100860119D01*
X141249913Y-100861543D01*
X141478000Y-100881498D01*
X141706087Y-100861543D01*
X141711400Y-100860119D01*
X141711402Y-100860119D01*
X141921933Y-100803707D01*
X141921935Y-100803706D01*
X141927243Y-100802284D01*
X141941828Y-100795483D01*
X142129762Y-100707849D01*
X142129767Y-100707846D01*
X142134749Y-100705523D01*
X142239611Y-100632098D01*
X142317789Y-100577357D01*
X142317792Y-100577355D01*
X142322300Y-100574198D01*
X142484198Y-100412300D01*
X142615523Y-100224749D01*
X142617846Y-100219767D01*
X142617849Y-100219762D01*
X142709961Y-100022225D01*
X142709961Y-100022224D01*
X142712284Y-100017243D01*
X142771543Y-99796087D01*
X142791498Y-99568000D01*
X142771543Y-99339913D01*
X142712284Y-99118757D01*
X142709961Y-99113775D01*
X142617849Y-98916238D01*
X142617846Y-98916233D01*
X142615523Y-98911251D01*
X142484198Y-98723700D01*
X142322300Y-98561802D01*
X142317792Y-98558645D01*
X142317789Y-98558643D01*
X142239611Y-98503902D01*
X142134749Y-98430477D01*
X142129767Y-98428154D01*
X142129762Y-98428151D01*
X141932225Y-98336039D01*
X141932224Y-98336039D01*
X141927243Y-98333716D01*
X141800272Y-98299694D01*
X141739650Y-98262742D01*
X141708628Y-98198881D01*
X141717057Y-98128387D01*
X141743789Y-98088892D01*
X141755276Y-98077405D01*
X141817588Y-98043379D01*
X141844371Y-98040500D01*
X147515987Y-98040500D01*
X147584108Y-98060502D01*
X147630601Y-98114158D01*
X147640705Y-98184432D01*
X147611211Y-98249012D01*
X147548598Y-98288207D01*
X147384067Y-98332293D01*
X147384065Y-98332294D01*
X147378757Y-98333716D01*
X147373776Y-98336039D01*
X147373775Y-98336039D01*
X147176238Y-98428151D01*
X147176233Y-98428154D01*
X147171251Y-98430477D01*
X147066389Y-98503902D01*
X146988211Y-98558643D01*
X146988208Y-98558645D01*
X146983700Y-98561802D01*
X146821802Y-98723700D01*
X146690477Y-98911251D01*
X146688154Y-98916233D01*
X146688151Y-98916238D01*
X146596039Y-99113775D01*
X146593716Y-99118757D01*
X146534457Y-99339913D01*
X146514502Y-99568000D01*
X146534457Y-99796087D01*
X146593716Y-100017243D01*
X146596039Y-100022224D01*
X146596039Y-100022225D01*
X146688151Y-100219762D01*
X146688154Y-100219767D01*
X146690477Y-100224749D01*
X146821802Y-100412300D01*
X146983700Y-100574198D01*
X146988208Y-100577355D01*
X146988211Y-100577357D01*
X147066389Y-100632098D01*
X147171251Y-100705523D01*
X147176233Y-100707846D01*
X147176238Y-100707849D01*
X147364172Y-100795483D01*
X147378757Y-100802284D01*
X147384065Y-100803706D01*
X147384067Y-100803707D01*
X147594598Y-100860119D01*
X147594600Y-100860119D01*
X147599913Y-100861543D01*
X147828000Y-100881498D01*
X148056087Y-100861543D01*
X148061400Y-100860119D01*
X148061402Y-100860119D01*
X148271933Y-100803707D01*
X148271935Y-100803706D01*
X148277243Y-100802284D01*
X148291828Y-100795483D01*
X148479762Y-100707849D01*
X148479767Y-100707846D01*
X148484749Y-100705523D01*
X148589611Y-100632098D01*
X148667789Y-100577357D01*
X148667792Y-100577355D01*
X148672300Y-100574198D01*
X148834198Y-100412300D01*
X148965523Y-100224749D01*
X148967846Y-100219767D01*
X148967849Y-100219762D01*
X149059961Y-100022225D01*
X149059961Y-100022224D01*
X149062284Y-100017243D01*
X149121543Y-99796087D01*
X149141498Y-99568000D01*
X149121543Y-99339913D01*
X149062284Y-99118757D01*
X149059961Y-99113775D01*
X148967849Y-98916238D01*
X148967846Y-98916233D01*
X148965523Y-98911251D01*
X148834198Y-98723700D01*
X148672300Y-98561802D01*
X148667792Y-98558645D01*
X148667789Y-98558643D01*
X148589611Y-98503902D01*
X148484749Y-98430477D01*
X148479767Y-98428154D01*
X148479762Y-98428151D01*
X148282225Y-98336039D01*
X148282224Y-98336039D01*
X148277243Y-98333716D01*
X148271935Y-98332294D01*
X148271933Y-98332293D01*
X148107402Y-98288207D01*
X148046779Y-98251255D01*
X148015758Y-98187394D01*
X148024186Y-98116900D01*
X148069389Y-98062153D01*
X148140013Y-98040500D01*
X153865987Y-98040500D01*
X153934108Y-98060502D01*
X153980601Y-98114158D01*
X153990705Y-98184432D01*
X153961211Y-98249012D01*
X153898598Y-98288207D01*
X153734067Y-98332293D01*
X153734065Y-98332294D01*
X153728757Y-98333716D01*
X153723776Y-98336039D01*
X153723775Y-98336039D01*
X153526238Y-98428151D01*
X153526233Y-98428154D01*
X153521251Y-98430477D01*
X153416389Y-98503902D01*
X153338211Y-98558643D01*
X153338208Y-98558645D01*
X153333700Y-98561802D01*
X153171802Y-98723700D01*
X153040477Y-98911251D01*
X153038154Y-98916233D01*
X153038151Y-98916238D01*
X152946039Y-99113775D01*
X152943716Y-99118757D01*
X152884457Y-99339913D01*
X152864502Y-99568000D01*
X152884457Y-99796087D01*
X152943716Y-100017243D01*
X152946039Y-100022224D01*
X152946039Y-100022225D01*
X153038151Y-100219762D01*
X153038154Y-100219767D01*
X153040477Y-100224749D01*
X153171802Y-100412300D01*
X153333700Y-100574198D01*
X153338208Y-100577355D01*
X153338211Y-100577357D01*
X153416389Y-100632098D01*
X153521251Y-100705523D01*
X153526233Y-100707846D01*
X153526238Y-100707849D01*
X153714172Y-100795483D01*
X153728757Y-100802284D01*
X153734065Y-100803706D01*
X153734067Y-100803707D01*
X153944598Y-100860119D01*
X153944600Y-100860119D01*
X153949913Y-100861543D01*
X154178000Y-100881498D01*
X154406087Y-100861543D01*
X154411400Y-100860119D01*
X154411402Y-100860119D01*
X154621933Y-100803707D01*
X154621935Y-100803706D01*
X154627243Y-100802284D01*
X154641828Y-100795483D01*
X154829762Y-100707849D01*
X154829767Y-100707846D01*
X154834749Y-100705523D01*
X154939611Y-100632098D01*
X155017789Y-100577357D01*
X155017792Y-100577355D01*
X155022300Y-100574198D01*
X155184198Y-100412300D01*
X155315523Y-100224749D01*
X155317846Y-100219767D01*
X155317849Y-100219762D01*
X155409961Y-100022225D01*
X155409961Y-100022224D01*
X155412284Y-100017243D01*
X155471543Y-99796087D01*
X155491498Y-99568000D01*
X155471543Y-99339913D01*
X155412284Y-99118757D01*
X155409961Y-99113775D01*
X155317849Y-98916238D01*
X155317846Y-98916233D01*
X155315523Y-98911251D01*
X155184198Y-98723700D01*
X155022300Y-98561802D01*
X155017792Y-98558645D01*
X155017789Y-98558643D01*
X154939611Y-98503902D01*
X154834749Y-98430477D01*
X154829767Y-98428154D01*
X154829762Y-98428151D01*
X154632225Y-98336039D01*
X154632224Y-98336039D01*
X154627243Y-98333716D01*
X154621935Y-98332294D01*
X154621933Y-98332293D01*
X154457402Y-98288207D01*
X154396779Y-98251255D01*
X154365758Y-98187394D01*
X154374186Y-98116900D01*
X154419389Y-98062153D01*
X154490013Y-98040500D01*
X159961987Y-98040500D01*
X160030108Y-98060502D01*
X160076601Y-98114158D01*
X160086705Y-98184432D01*
X160057211Y-98249012D01*
X159994598Y-98288207D01*
X159830067Y-98332293D01*
X159830065Y-98332294D01*
X159824757Y-98333716D01*
X159819776Y-98336039D01*
X159819775Y-98336039D01*
X159622238Y-98428151D01*
X159622233Y-98428154D01*
X159617251Y-98430477D01*
X159512389Y-98503902D01*
X159434211Y-98558643D01*
X159434208Y-98558645D01*
X159429700Y-98561802D01*
X159267802Y-98723700D01*
X159136477Y-98911251D01*
X159134154Y-98916233D01*
X159134151Y-98916238D01*
X159042039Y-99113775D01*
X159039716Y-99118757D01*
X158980457Y-99339913D01*
X158960502Y-99568000D01*
X158980457Y-99796087D01*
X159039716Y-100017243D01*
X159042039Y-100022224D01*
X159042039Y-100022225D01*
X159134151Y-100219762D01*
X159134154Y-100219767D01*
X159136477Y-100224749D01*
X159267802Y-100412300D01*
X159429700Y-100574198D01*
X159434208Y-100577355D01*
X159434211Y-100577357D01*
X159512389Y-100632098D01*
X159617251Y-100705523D01*
X159622233Y-100707846D01*
X159622238Y-100707849D01*
X159810172Y-100795483D01*
X159824757Y-100802284D01*
X159830065Y-100803706D01*
X159830067Y-100803707D01*
X160040598Y-100860119D01*
X160040600Y-100860119D01*
X160045913Y-100861543D01*
X160274000Y-100881498D01*
X160502087Y-100861543D01*
X160507400Y-100860119D01*
X160507402Y-100860119D01*
X160717933Y-100803707D01*
X160717935Y-100803706D01*
X160723243Y-100802284D01*
X160737828Y-100795483D01*
X160925762Y-100707849D01*
X160925767Y-100707846D01*
X160930749Y-100705523D01*
X161035611Y-100632098D01*
X161113789Y-100577357D01*
X161113792Y-100577355D01*
X161118300Y-100574198D01*
X161280198Y-100412300D01*
X161411523Y-100224749D01*
X161413846Y-100219767D01*
X161413849Y-100219762D01*
X161505961Y-100022225D01*
X161505961Y-100022224D01*
X161508284Y-100017243D01*
X161567543Y-99796087D01*
X161587498Y-99568000D01*
X161567543Y-99339913D01*
X161508284Y-99118757D01*
X161505961Y-99113775D01*
X161413849Y-98916238D01*
X161413846Y-98916233D01*
X161411523Y-98911251D01*
X161280198Y-98723700D01*
X161118300Y-98561802D01*
X161113792Y-98558645D01*
X161113789Y-98558643D01*
X161035611Y-98503902D01*
X160930749Y-98430477D01*
X160925767Y-98428154D01*
X160925762Y-98428151D01*
X160728225Y-98336039D01*
X160728224Y-98336039D01*
X160723243Y-98333716D01*
X160717935Y-98332294D01*
X160717933Y-98332293D01*
X160553402Y-98288207D01*
X160492779Y-98251255D01*
X160461758Y-98187394D01*
X160470186Y-98116900D01*
X160515389Y-98062153D01*
X160586013Y-98040500D01*
X168588930Y-98040500D01*
X168607880Y-98041933D01*
X168622115Y-98044099D01*
X168622119Y-98044099D01*
X168629349Y-98045199D01*
X168636641Y-98044606D01*
X168636644Y-98044606D01*
X168682018Y-98040915D01*
X168692233Y-98040500D01*
X168700293Y-98040500D01*
X168713583Y-98038951D01*
X168728507Y-98037211D01*
X168732882Y-98036778D01*
X168798339Y-98031454D01*
X168798342Y-98031453D01*
X168805637Y-98030860D01*
X168812601Y-98028604D01*
X168818560Y-98027413D01*
X168824415Y-98026029D01*
X168831681Y-98025182D01*
X168900327Y-98000265D01*
X168904455Y-97998848D01*
X168966936Y-97978607D01*
X168966938Y-97978606D01*
X168973899Y-97976351D01*
X168980154Y-97972555D01*
X168985628Y-97970049D01*
X168991058Y-97967330D01*
X168997937Y-97964833D01*
X169058976Y-97924814D01*
X169062680Y-97922477D01*
X169125107Y-97884595D01*
X169133484Y-97877197D01*
X169133508Y-97877224D01*
X169136500Y-97874571D01*
X169139733Y-97871868D01*
X169145852Y-97867856D01*
X169199128Y-97811617D01*
X169201506Y-97809175D01*
X171707547Y-95303134D01*
X187011500Y-95303134D01*
X187018255Y-95365316D01*
X187069385Y-95501705D01*
X187156739Y-95618261D01*
X187273295Y-95705615D01*
X187409684Y-95756745D01*
X187471866Y-95763500D01*
X191528134Y-95763500D01*
X191590316Y-95756745D01*
X191726705Y-95705615D01*
X191843261Y-95618261D01*
X191930615Y-95501705D01*
X191981745Y-95365316D01*
X191988500Y-95303134D01*
X191988500Y-93226866D01*
X191981745Y-93164684D01*
X191930615Y-93028295D01*
X191843261Y-92911739D01*
X191726705Y-92824385D01*
X191590316Y-92773255D01*
X191528134Y-92766500D01*
X187471866Y-92766500D01*
X187409684Y-92773255D01*
X187273295Y-92824385D01*
X187156739Y-92911739D01*
X187069385Y-93028295D01*
X187018255Y-93164684D01*
X187011500Y-93226866D01*
X187011500Y-95303134D01*
X171707547Y-95303134D01*
X174224911Y-92785770D01*
X174239323Y-92773384D01*
X174250918Y-92764851D01*
X174250923Y-92764846D01*
X174256818Y-92760508D01*
X174261557Y-92754930D01*
X174261560Y-92754927D01*
X174291035Y-92720232D01*
X174297965Y-92712716D01*
X174303660Y-92707021D01*
X174321281Y-92684749D01*
X174324072Y-92681345D01*
X174366591Y-92631297D01*
X174366592Y-92631295D01*
X174371333Y-92625715D01*
X174374661Y-92619199D01*
X174378028Y-92614150D01*
X174381195Y-92609021D01*
X174385734Y-92603284D01*
X174416655Y-92537125D01*
X174418561Y-92533225D01*
X174419184Y-92532005D01*
X174451769Y-92468192D01*
X174453508Y-92461084D01*
X174455607Y-92455441D01*
X174457524Y-92449678D01*
X174460622Y-92443050D01*
X174475487Y-92371583D01*
X174476457Y-92367299D01*
X174492473Y-92301845D01*
X174493808Y-92296390D01*
X174494500Y-92285236D01*
X174494536Y-92285238D01*
X174494775Y-92281245D01*
X174495149Y-92277053D01*
X174496640Y-92269885D01*
X174494546Y-92192479D01*
X174494500Y-92189072D01*
X174494500Y-89537194D01*
X187036135Y-89537194D01*
X187047006Y-89608236D01*
X187049395Y-89618263D01*
X187122709Y-89842570D01*
X187126706Y-89852079D01*
X187235669Y-90061395D01*
X187241163Y-90070120D01*
X187382854Y-90258835D01*
X187389697Y-90266542D01*
X187560310Y-90429584D01*
X187568316Y-90436067D01*
X187763274Y-90569057D01*
X187772226Y-90574143D01*
X187986285Y-90673506D01*
X187995945Y-90677060D01*
X188223369Y-90740130D01*
X188233473Y-90742057D01*
X188426102Y-90762644D01*
X188432794Y-90763000D01*
X189227885Y-90763000D01*
X189243124Y-90758525D01*
X189244329Y-90757135D01*
X189246000Y-90749452D01*
X189246000Y-90744885D01*
X189754000Y-90744885D01*
X189758475Y-90760124D01*
X189759865Y-90761329D01*
X189767548Y-90763000D01*
X190549857Y-90763000D01*
X190555030Y-90762788D01*
X190730350Y-90748374D01*
X190740512Y-90746691D01*
X190969396Y-90689200D01*
X190979151Y-90685879D01*
X191195557Y-90591782D01*
X191204655Y-90586904D01*
X191402787Y-90458727D01*
X191410956Y-90452437D01*
X191585501Y-90293613D01*
X191592526Y-90286080D01*
X191738787Y-90100880D01*
X191744492Y-90092293D01*
X191858536Y-89885703D01*
X191862766Y-89876291D01*
X191941539Y-89653844D01*
X191944173Y-89643873D01*
X191963239Y-89536837D01*
X191961779Y-89523540D01*
X191947222Y-89519000D01*
X189772115Y-89519000D01*
X189756876Y-89523475D01*
X189755671Y-89524865D01*
X189754000Y-89532548D01*
X189754000Y-90744885D01*
X189246000Y-90744885D01*
X189246000Y-89537115D01*
X189241525Y-89521876D01*
X189240135Y-89520671D01*
X189232452Y-89519000D01*
X187051466Y-89519000D01*
X187038122Y-89522918D01*
X187036135Y-89537194D01*
X174494500Y-89537194D01*
X174494500Y-88993163D01*
X187036761Y-88993163D01*
X187038221Y-89006460D01*
X187052778Y-89011000D01*
X189227885Y-89011000D01*
X189243124Y-89006525D01*
X189244329Y-89005135D01*
X189246000Y-88997452D01*
X189246000Y-88992885D01*
X189754000Y-88992885D01*
X189758475Y-89008124D01*
X189759865Y-89009329D01*
X189767548Y-89011000D01*
X191948534Y-89011000D01*
X191961878Y-89007082D01*
X191963865Y-88992806D01*
X191952994Y-88921764D01*
X191950605Y-88911737D01*
X191877291Y-88687430D01*
X191873294Y-88677921D01*
X191764331Y-88468605D01*
X191758837Y-88459880D01*
X191617146Y-88271165D01*
X191610303Y-88263458D01*
X191439690Y-88100416D01*
X191431684Y-88093933D01*
X191236726Y-87960943D01*
X191227774Y-87955857D01*
X191013715Y-87856494D01*
X191004055Y-87852940D01*
X190776631Y-87789870D01*
X190766527Y-87787943D01*
X190573898Y-87767356D01*
X190567206Y-87767000D01*
X189772115Y-87767000D01*
X189756876Y-87771475D01*
X189755671Y-87772865D01*
X189754000Y-87780548D01*
X189754000Y-88992885D01*
X189246000Y-88992885D01*
X189246000Y-87785115D01*
X189241525Y-87769876D01*
X189240135Y-87768671D01*
X189232452Y-87767000D01*
X188450143Y-87767000D01*
X188444970Y-87767212D01*
X188269650Y-87781626D01*
X188259488Y-87783309D01*
X188030604Y-87840800D01*
X188020849Y-87844121D01*
X187804443Y-87938218D01*
X187795345Y-87943096D01*
X187597213Y-88071273D01*
X187589044Y-88077563D01*
X187414499Y-88236387D01*
X187407474Y-88243920D01*
X187261213Y-88429120D01*
X187255508Y-88437707D01*
X187141464Y-88644297D01*
X187137234Y-88653709D01*
X187058461Y-88876156D01*
X187055827Y-88886127D01*
X187036761Y-88993163D01*
X174494500Y-88993163D01*
X174494500Y-87488371D01*
X174514502Y-87420250D01*
X174531405Y-87399276D01*
X180382715Y-81547966D01*
X184793257Y-81547966D01*
X184823565Y-81682446D01*
X184826645Y-81692275D01*
X184906770Y-81889603D01*
X184911413Y-81898794D01*
X185022694Y-82080388D01*
X185028777Y-82088699D01*
X185168213Y-82249667D01*
X185175580Y-82256883D01*
X185339434Y-82392916D01*
X185347881Y-82398831D01*
X185531756Y-82506279D01*
X185541042Y-82510729D01*
X185740001Y-82586703D01*
X185749899Y-82589579D01*
X185853250Y-82610606D01*
X185867299Y-82609410D01*
X185871000Y-82599065D01*
X185871000Y-82598517D01*
X186379000Y-82598517D01*
X186383064Y-82612359D01*
X186396478Y-82614393D01*
X186403184Y-82613534D01*
X186413262Y-82611392D01*
X186617255Y-82550191D01*
X186626842Y-82546433D01*
X186818095Y-82452739D01*
X186826945Y-82447464D01*
X187000328Y-82323792D01*
X187008200Y-82317139D01*
X187159052Y-82166812D01*
X187165730Y-82158965D01*
X187290003Y-81986020D01*
X187295313Y-81977183D01*
X187389670Y-81786267D01*
X187393469Y-81776672D01*
X187455377Y-81572910D01*
X187457555Y-81562837D01*
X187458986Y-81551962D01*
X187456775Y-81537778D01*
X187443617Y-81534000D01*
X186397115Y-81534000D01*
X186381876Y-81538475D01*
X186380671Y-81539865D01*
X186379000Y-81547548D01*
X186379000Y-82598517D01*
X185871000Y-82598517D01*
X185871000Y-81552115D01*
X185866525Y-81536876D01*
X185865135Y-81535671D01*
X185857452Y-81534000D01*
X184808225Y-81534000D01*
X184794694Y-81537973D01*
X184793257Y-81547966D01*
X180382715Y-81547966D01*
X182395276Y-79535405D01*
X182457588Y-79501379D01*
X182484371Y-79498500D01*
X184927491Y-79498500D01*
X184995612Y-79518502D01*
X185024402Y-79545595D01*
X185024987Y-79545088D01*
X185171250Y-79713938D01*
X185343126Y-79856632D01*
X185416955Y-79899774D01*
X185465679Y-79951412D01*
X185478750Y-80021195D01*
X185452019Y-80086967D01*
X185411562Y-80120327D01*
X185403457Y-80124546D01*
X185394738Y-80130036D01*
X185224433Y-80257905D01*
X185216726Y-80264748D01*
X185069590Y-80418717D01*
X185063104Y-80426727D01*
X184943098Y-80602649D01*
X184938000Y-80611623D01*
X184848338Y-80804783D01*
X184844775Y-80814470D01*
X184789389Y-81014183D01*
X184790912Y-81022607D01*
X184803292Y-81026000D01*
X187443344Y-81026000D01*
X187456875Y-81022027D01*
X187458180Y-81012947D01*
X187416214Y-80845875D01*
X187412894Y-80836124D01*
X187327972Y-80640814D01*
X187323105Y-80631739D01*
X187207426Y-80452926D01*
X187201136Y-80444757D01*
X187057806Y-80287240D01*
X187050273Y-80280215D01*
X186883139Y-80148222D01*
X186874556Y-80142520D01*
X186837602Y-80122120D01*
X186787631Y-80071687D01*
X186772859Y-80002245D01*
X186797975Y-79935839D01*
X186825327Y-79909232D01*
X186848797Y-79892491D01*
X187004860Y-79781173D01*
X187163096Y-79623489D01*
X187293453Y-79442077D01*
X187392430Y-79241811D01*
X187457370Y-79028069D01*
X187486529Y-78806590D01*
X187488156Y-78740000D01*
X187469852Y-78517361D01*
X187415431Y-78300702D01*
X187326354Y-78095840D01*
X187252384Y-77981500D01*
X187207822Y-77912617D01*
X187207820Y-77912614D01*
X187205014Y-77908277D01*
X187054670Y-77743051D01*
X187050619Y-77739852D01*
X187050615Y-77739848D01*
X186883414Y-77607800D01*
X186883410Y-77607798D01*
X186879359Y-77604598D01*
X186838053Y-77581796D01*
X186788084Y-77531364D01*
X186773312Y-77461921D01*
X186798428Y-77395516D01*
X186825780Y-77368909D01*
X186869603Y-77337650D01*
X187004860Y-77241173D01*
X187163096Y-77083489D01*
X187293453Y-76902077D01*
X187392430Y-76701811D01*
X187457370Y-76488069D01*
X187486529Y-76266590D01*
X187488156Y-76200000D01*
X187469852Y-75977361D01*
X187415431Y-75760702D01*
X187326354Y-75555840D01*
X187254512Y-75444789D01*
X187207822Y-75372617D01*
X187207820Y-75372614D01*
X187205014Y-75368277D01*
X187054670Y-75203051D01*
X187050619Y-75199852D01*
X187050615Y-75199848D01*
X186883414Y-75067800D01*
X186883410Y-75067798D01*
X186879359Y-75064598D01*
X186838053Y-75041796D01*
X186788084Y-74991364D01*
X186773312Y-74921921D01*
X186798428Y-74855516D01*
X186825780Y-74828909D01*
X186869603Y-74797650D01*
X187004860Y-74701173D01*
X187163096Y-74543489D01*
X187222594Y-74460689D01*
X187290435Y-74366277D01*
X187293453Y-74362077D01*
X187392430Y-74161811D01*
X187457370Y-73948069D01*
X187486529Y-73726590D01*
X187486895Y-73711630D01*
X187488074Y-73663365D01*
X187488074Y-73663361D01*
X187488156Y-73660000D01*
X187469852Y-73437361D01*
X187415431Y-73220702D01*
X187326354Y-73015840D01*
X187237785Y-72878933D01*
X187207822Y-72832617D01*
X187207820Y-72832614D01*
X187205014Y-72828277D01*
X187054670Y-72663051D01*
X187050619Y-72659852D01*
X187050615Y-72659848D01*
X186883414Y-72527800D01*
X186883410Y-72527798D01*
X186879359Y-72524598D01*
X186838053Y-72501796D01*
X186788084Y-72451364D01*
X186773312Y-72381921D01*
X186798428Y-72315516D01*
X186825780Y-72288909D01*
X186869603Y-72257650D01*
X187004860Y-72161173D01*
X187163096Y-72003489D01*
X187178004Y-71982743D01*
X187290435Y-71826277D01*
X187293453Y-71822077D01*
X187304513Y-71799700D01*
X187390136Y-71626453D01*
X187390137Y-71626451D01*
X187392430Y-71621811D01*
X187457370Y-71408069D01*
X187486529Y-71186590D01*
X187487632Y-71141457D01*
X187488074Y-71123365D01*
X187488074Y-71123361D01*
X187488156Y-71120000D01*
X187469852Y-70897361D01*
X187415431Y-70680702D01*
X187326354Y-70475840D01*
X187281315Y-70406221D01*
X187207822Y-70292617D01*
X187207820Y-70292614D01*
X187205014Y-70288277D01*
X187054670Y-70123051D01*
X187050619Y-70119852D01*
X187050615Y-70119848D01*
X186883414Y-69987800D01*
X186883410Y-69987798D01*
X186879359Y-69984598D01*
X186838053Y-69961796D01*
X186788084Y-69911364D01*
X186773312Y-69841921D01*
X186798428Y-69775516D01*
X186825780Y-69748909D01*
X186890540Y-69702716D01*
X187004860Y-69621173D01*
X187163096Y-69463489D01*
X187293453Y-69282077D01*
X187392430Y-69081811D01*
X187457370Y-68868069D01*
X187486529Y-68646590D01*
X187488156Y-68580000D01*
X187469852Y-68357361D01*
X187415431Y-68140702D01*
X187326354Y-67935840D01*
X187261290Y-67835267D01*
X187207822Y-67752617D01*
X187207820Y-67752614D01*
X187205014Y-67748277D01*
X187054670Y-67583051D01*
X187050619Y-67579852D01*
X187050615Y-67579848D01*
X186883414Y-67447800D01*
X186883410Y-67447798D01*
X186879359Y-67444598D01*
X186838053Y-67421796D01*
X186788084Y-67371364D01*
X186773312Y-67301921D01*
X186798428Y-67235516D01*
X186825780Y-67208909D01*
X186869603Y-67177650D01*
X187004860Y-67081173D01*
X187163096Y-66923489D01*
X187222594Y-66840689D01*
X187290435Y-66746277D01*
X187293453Y-66742077D01*
X187333835Y-66660371D01*
X187390136Y-66546453D01*
X187390137Y-66546451D01*
X187392430Y-66541811D01*
X187457370Y-66328069D01*
X187486529Y-66106590D01*
X187487840Y-66052950D01*
X187488074Y-66043365D01*
X187488074Y-66043361D01*
X187488156Y-66040000D01*
X187469852Y-65817361D01*
X187415431Y-65600702D01*
X187326354Y-65395840D01*
X187205014Y-65208277D01*
X187054670Y-65043051D01*
X187050619Y-65039852D01*
X187050615Y-65039848D01*
X186883414Y-64907800D01*
X186883410Y-64907798D01*
X186879359Y-64904598D01*
X186838053Y-64881796D01*
X186788084Y-64831364D01*
X186773312Y-64761921D01*
X186798428Y-64695516D01*
X186825780Y-64668909D01*
X186869603Y-64637650D01*
X187004860Y-64541173D01*
X187163096Y-64383489D01*
X187222594Y-64300689D01*
X187290435Y-64206277D01*
X187293453Y-64202077D01*
X187374581Y-64037927D01*
X187390136Y-64006453D01*
X187390137Y-64006451D01*
X187392430Y-64001811D01*
X187457370Y-63788069D01*
X187486529Y-63566590D01*
X187486611Y-63563240D01*
X187488074Y-63503365D01*
X187488074Y-63503361D01*
X187488156Y-63500000D01*
X187469852Y-63277361D01*
X187415431Y-63060702D01*
X187326354Y-62855840D01*
X187205014Y-62668277D01*
X187054670Y-62503051D01*
X187050619Y-62499852D01*
X187050615Y-62499848D01*
X186883414Y-62367800D01*
X186883410Y-62367798D01*
X186879359Y-62364598D01*
X186838053Y-62341796D01*
X186788084Y-62291364D01*
X186773312Y-62221921D01*
X186798428Y-62155516D01*
X186825780Y-62128909D01*
X186869603Y-62097650D01*
X187004860Y-62001173D01*
X187163096Y-61843489D01*
X187222594Y-61760689D01*
X187290435Y-61666277D01*
X187293453Y-61662077D01*
X187392430Y-61461811D01*
X187457370Y-61248069D01*
X187486529Y-61026590D01*
X187488156Y-60960000D01*
X187469852Y-60737361D01*
X187415431Y-60520702D01*
X187326354Y-60315840D01*
X187205014Y-60128277D01*
X187054670Y-59963051D01*
X187050619Y-59959852D01*
X187050615Y-59959848D01*
X186883414Y-59827800D01*
X186883410Y-59827798D01*
X186879359Y-59824598D01*
X186838053Y-59801796D01*
X186788084Y-59751364D01*
X186773312Y-59681921D01*
X186798428Y-59615516D01*
X186825780Y-59588909D01*
X186869603Y-59557650D01*
X187004860Y-59461173D01*
X187163096Y-59303489D01*
X187222594Y-59220689D01*
X187290435Y-59126277D01*
X187293453Y-59122077D01*
X187301046Y-59106715D01*
X187390136Y-58926453D01*
X187390137Y-58926451D01*
X187392430Y-58921811D01*
X187439697Y-58766238D01*
X187455865Y-58713023D01*
X187455865Y-58713021D01*
X187457370Y-58708069D01*
X187486529Y-58486590D01*
X187488156Y-58420000D01*
X187469852Y-58197361D01*
X187415431Y-57980702D01*
X187326354Y-57775840D01*
X187259003Y-57671731D01*
X187207822Y-57592617D01*
X187207820Y-57592614D01*
X187205014Y-57588277D01*
X187190875Y-57572738D01*
X187057798Y-57426488D01*
X187026746Y-57362642D01*
X187035141Y-57292143D01*
X187080317Y-57237375D01*
X187106761Y-57223706D01*
X187213297Y-57183767D01*
X187221705Y-57180615D01*
X187338261Y-57093261D01*
X187425615Y-56976705D01*
X187476745Y-56840316D01*
X187483500Y-56778134D01*
X187483500Y-54981866D01*
X187476745Y-54919684D01*
X187425615Y-54783295D01*
X187338261Y-54666739D01*
X187221705Y-54579385D01*
X187085316Y-54528255D01*
X187023134Y-54521500D01*
X185892800Y-54521500D01*
X185824679Y-54501498D01*
X185811220Y-54491524D01*
X185801720Y-54483453D01*
X185794205Y-54476524D01*
X185788510Y-54470829D01*
X185772225Y-54457945D01*
X185766238Y-54453208D01*
X185762834Y-54450417D01*
X185712786Y-54407898D01*
X185712784Y-54407897D01*
X185707204Y-54403156D01*
X185700688Y-54399828D01*
X185695639Y-54396461D01*
X185690510Y-54393294D01*
X185684773Y-54388755D01*
X185618614Y-54357834D01*
X185614714Y-54355928D01*
X185549681Y-54322720D01*
X185542573Y-54320981D01*
X185536930Y-54318882D01*
X185531167Y-54316965D01*
X185524539Y-54313867D01*
X185453072Y-54299002D01*
X185448788Y-54298032D01*
X185377879Y-54280681D01*
X185372277Y-54280333D01*
X185372274Y-54280333D01*
X185366725Y-54279989D01*
X185366727Y-54279953D01*
X185362734Y-54279714D01*
X185358542Y-54279340D01*
X185351374Y-54277849D01*
X185287609Y-54279574D01*
X185273968Y-54279943D01*
X185270561Y-54279989D01*
X176168581Y-54279989D01*
X176149631Y-54278556D01*
X176135396Y-54276390D01*
X176135392Y-54276390D01*
X176128162Y-54275290D01*
X176120870Y-54275883D01*
X176120867Y-54275883D01*
X176075493Y-54279574D01*
X176065278Y-54279989D01*
X176057218Y-54279989D01*
X176053584Y-54280413D01*
X176053578Y-54280413D01*
X176040553Y-54281932D01*
X176028991Y-54283280D01*
X176024643Y-54283710D01*
X175951875Y-54289629D01*
X175944914Y-54291884D01*
X175938974Y-54293071D01*
X175933099Y-54294460D01*
X175925830Y-54295307D01*
X175857181Y-54320225D01*
X175853053Y-54321642D01*
X175790575Y-54341882D01*
X175790573Y-54341883D01*
X175783612Y-54344138D01*
X175777357Y-54347934D01*
X175771883Y-54350440D01*
X175766453Y-54353159D01*
X175759574Y-54355656D01*
X175753454Y-54359669D01*
X175753453Y-54359669D01*
X175698535Y-54395675D01*
X175694831Y-54398012D01*
X175632404Y-54435894D01*
X175624027Y-54443292D01*
X175624003Y-54443265D01*
X175621011Y-54445918D01*
X175617778Y-54448621D01*
X175611659Y-54452633D01*
X175558383Y-54508872D01*
X175556005Y-54511314D01*
X175059296Y-55008023D01*
X174996984Y-55042049D01*
X174948105Y-55042975D01*
X174880284Y-55030894D01*
X174806452Y-55029992D01*
X174662081Y-55028228D01*
X174662079Y-55028228D01*
X174656911Y-55028165D01*
X174436091Y-55061955D01*
X174223756Y-55131357D01*
X174193443Y-55147137D01*
X174108782Y-55191209D01*
X174025607Y-55234507D01*
X174021474Y-55237610D01*
X174021471Y-55237612D01*
X173851100Y-55365530D01*
X173846965Y-55368635D01*
X173790536Y-55427684D01*
X173728559Y-55492540D01*
X173692629Y-55530138D01*
X173585201Y-55687621D01*
X173530293Y-55732621D01*
X173459768Y-55740792D01*
X173396021Y-55709538D01*
X173375324Y-55685054D01*
X173294822Y-55560617D01*
X173294820Y-55560614D01*
X173292014Y-55556277D01*
X173141670Y-55391051D01*
X173137619Y-55387852D01*
X173137615Y-55387848D01*
X172970414Y-55255800D01*
X172970410Y-55255798D01*
X172966359Y-55252598D01*
X172941580Y-55238919D01*
X172914136Y-55223769D01*
X172770789Y-55144638D01*
X172765920Y-55142914D01*
X172765916Y-55142912D01*
X172565087Y-55071795D01*
X172565083Y-55071794D01*
X172560212Y-55070069D01*
X172555119Y-55069162D01*
X172555116Y-55069161D01*
X172345373Y-55031800D01*
X172345367Y-55031799D01*
X172340284Y-55030894D01*
X172266452Y-55029992D01*
X172122081Y-55028228D01*
X172122079Y-55028228D01*
X172116911Y-55028165D01*
X171896091Y-55061955D01*
X171683756Y-55131357D01*
X171653443Y-55147137D01*
X171568782Y-55191209D01*
X171485607Y-55234507D01*
X171481474Y-55237610D01*
X171481471Y-55237612D01*
X171311100Y-55365530D01*
X171306965Y-55368635D01*
X171250536Y-55427684D01*
X171188559Y-55492540D01*
X171152629Y-55530138D01*
X171045201Y-55687621D01*
X170990293Y-55732621D01*
X170919768Y-55740792D01*
X170856021Y-55709538D01*
X170835324Y-55685054D01*
X170754822Y-55560617D01*
X170754820Y-55560614D01*
X170752014Y-55556277D01*
X170601670Y-55391051D01*
X170597619Y-55387852D01*
X170597615Y-55387848D01*
X170430414Y-55255800D01*
X170430410Y-55255798D01*
X170426359Y-55252598D01*
X170401580Y-55238919D01*
X170374136Y-55223769D01*
X170230789Y-55144638D01*
X170225920Y-55142914D01*
X170225916Y-55142912D01*
X170025087Y-55071795D01*
X170025083Y-55071794D01*
X170020212Y-55070069D01*
X170015119Y-55069162D01*
X170015116Y-55069161D01*
X169805373Y-55031800D01*
X169805367Y-55031799D01*
X169800284Y-55030894D01*
X169726452Y-55029992D01*
X169582081Y-55028228D01*
X169582079Y-55028228D01*
X169576911Y-55028165D01*
X169356091Y-55061955D01*
X169143756Y-55131357D01*
X169113443Y-55147137D01*
X169028782Y-55191209D01*
X168945607Y-55234507D01*
X168941474Y-55237610D01*
X168941471Y-55237612D01*
X168771100Y-55365530D01*
X168766965Y-55368635D01*
X168710536Y-55427684D01*
X168648559Y-55492540D01*
X168612629Y-55530138D01*
X168505201Y-55687621D01*
X168450293Y-55732621D01*
X168379768Y-55740792D01*
X168316021Y-55709538D01*
X168295324Y-55685054D01*
X168214822Y-55560617D01*
X168214820Y-55560614D01*
X168212014Y-55556277D01*
X168061670Y-55391051D01*
X168057619Y-55387852D01*
X168057615Y-55387848D01*
X167890414Y-55255800D01*
X167890410Y-55255798D01*
X167886359Y-55252598D01*
X167861580Y-55238919D01*
X167834136Y-55223769D01*
X167690789Y-55144638D01*
X167685920Y-55142914D01*
X167685916Y-55142912D01*
X167485087Y-55071795D01*
X167485083Y-55071794D01*
X167480212Y-55070069D01*
X167475119Y-55069162D01*
X167475116Y-55069161D01*
X167265373Y-55031800D01*
X167265367Y-55031799D01*
X167260284Y-55030894D01*
X167186452Y-55029992D01*
X167042081Y-55028228D01*
X167042079Y-55028228D01*
X167036911Y-55028165D01*
X166816091Y-55061955D01*
X166603756Y-55131357D01*
X166573443Y-55147137D01*
X166488782Y-55191209D01*
X166405607Y-55234507D01*
X166401474Y-55237610D01*
X166401471Y-55237612D01*
X166231100Y-55365530D01*
X166226965Y-55368635D01*
X166151074Y-55448051D01*
X166146283Y-55453064D01*
X166084759Y-55488494D01*
X166013846Y-55485037D01*
X165956060Y-55443791D01*
X165937207Y-55410243D01*
X165895767Y-55299703D01*
X165892615Y-55291295D01*
X165805261Y-55174739D01*
X165688705Y-55087385D01*
X165552316Y-55036255D01*
X165490134Y-55029500D01*
X163693866Y-55029500D01*
X163631684Y-55036255D01*
X163495295Y-55087385D01*
X163378739Y-55174739D01*
X163291385Y-55291295D01*
X163240255Y-55427684D01*
X163233500Y-55489866D01*
X163233500Y-55503500D01*
X163213498Y-55571621D01*
X163159842Y-55618114D01*
X163107500Y-55629500D01*
X156578827Y-55629500D01*
X156559877Y-55628067D01*
X156545642Y-55625901D01*
X156545638Y-55625901D01*
X156538408Y-55624801D01*
X156531116Y-55625394D01*
X156531113Y-55625394D01*
X156485739Y-55629085D01*
X156475524Y-55629500D01*
X156467464Y-55629500D01*
X156454174Y-55631049D01*
X156439250Y-55632789D01*
X156434875Y-55633222D01*
X156369418Y-55638546D01*
X156369415Y-55638547D01*
X156362120Y-55639140D01*
X156355156Y-55641396D01*
X156349197Y-55642587D01*
X156343342Y-55643971D01*
X156336076Y-55644818D01*
X156267430Y-55669735D01*
X156263302Y-55671152D01*
X156200821Y-55691393D01*
X156200819Y-55691394D01*
X156193858Y-55693649D01*
X156187603Y-55697445D01*
X156182129Y-55699951D01*
X156176699Y-55702670D01*
X156169820Y-55705167D01*
X156163700Y-55709180D01*
X156163699Y-55709180D01*
X156108781Y-55745186D01*
X156105077Y-55747523D01*
X156042650Y-55785405D01*
X156034273Y-55792803D01*
X156034249Y-55792776D01*
X156031257Y-55795429D01*
X156028024Y-55798132D01*
X156021905Y-55802144D01*
X156016873Y-55807456D01*
X155968629Y-55858383D01*
X155966251Y-55860825D01*
X140727747Y-71099329D01*
X140665435Y-71133355D01*
X140627670Y-71135755D01*
X140470232Y-71121981D01*
X140464757Y-71121502D01*
X140236670Y-71141457D01*
X140231357Y-71142881D01*
X140231355Y-71142881D01*
X140020824Y-71199293D01*
X140020822Y-71199294D01*
X140015514Y-71200716D01*
X140010533Y-71203039D01*
X140010532Y-71203039D01*
X139812995Y-71295151D01*
X139812990Y-71295154D01*
X139808008Y-71297477D01*
X139753847Y-71335401D01*
X139624968Y-71425643D01*
X139624965Y-71425645D01*
X139620457Y-71428802D01*
X139458559Y-71590700D01*
X139455402Y-71595208D01*
X139455400Y-71595211D01*
X139436775Y-71621811D01*
X139327234Y-71778251D01*
X139324911Y-71783233D01*
X139324908Y-71783238D01*
X139234813Y-71976449D01*
X139230473Y-71985757D01*
X139229051Y-71991065D01*
X139229050Y-71991067D01*
X139184446Y-72157529D01*
X139171214Y-72206913D01*
X139151259Y-72435000D01*
X139171214Y-72663087D01*
X139172638Y-72668400D01*
X139172638Y-72668402D01*
X139227658Y-72873736D01*
X139230473Y-72884243D01*
X139232796Y-72889224D01*
X139232796Y-72889225D01*
X139324908Y-73086762D01*
X139324911Y-73086767D01*
X139327234Y-73091749D01*
X139387926Y-73178426D01*
X139444455Y-73259157D01*
X139458559Y-73279300D01*
X139620457Y-73441198D01*
X139624965Y-73444355D01*
X139624968Y-73444357D01*
X139681283Y-73483789D01*
X139808008Y-73572523D01*
X139812990Y-73574846D01*
X139812995Y-73574849D01*
X140010532Y-73666961D01*
X140015514Y-73669284D01*
X140020822Y-73670706D01*
X140020824Y-73670707D01*
X140231355Y-73727119D01*
X140231357Y-73727119D01*
X140236670Y-73728543D01*
X140464757Y-73748498D01*
X140692844Y-73728543D01*
X140698157Y-73727119D01*
X140698159Y-73727119D01*
X140908690Y-73670707D01*
X140908692Y-73670706D01*
X140914000Y-73669284D01*
X140918982Y-73666961D01*
X141116519Y-73574849D01*
X141116524Y-73574846D01*
X141121506Y-73572523D01*
X141248231Y-73483789D01*
X141304546Y-73444357D01*
X141304549Y-73444355D01*
X141309057Y-73441198D01*
X141470955Y-73279300D01*
X141485060Y-73259157D01*
X141541588Y-73178426D01*
X141602280Y-73091749D01*
X141604603Y-73086767D01*
X141604606Y-73086762D01*
X141696718Y-72889225D01*
X141696718Y-72889224D01*
X141699041Y-72884243D01*
X141701857Y-72873736D01*
X141756876Y-72668402D01*
X141756876Y-72668400D01*
X141758300Y-72663087D01*
X141778255Y-72435000D01*
X141773531Y-72381010D01*
X141764002Y-72272087D01*
X141777991Y-72202482D01*
X141800428Y-72172010D01*
X156789033Y-57183405D01*
X156851345Y-57149379D01*
X156878128Y-57146500D01*
X163107500Y-57146500D01*
X163175621Y-57166502D01*
X163222114Y-57220158D01*
X163233500Y-57272500D01*
X163233500Y-57286134D01*
X163240255Y-57348316D01*
X163291385Y-57484705D01*
X163378739Y-57601261D01*
X163495295Y-57688615D01*
X163631684Y-57739745D01*
X163693866Y-57746500D01*
X164396629Y-57746500D01*
X164464750Y-57766502D01*
X164511243Y-57820158D01*
X164521347Y-57890432D01*
X164491853Y-57955012D01*
X164485724Y-57961595D01*
X150823213Y-71624106D01*
X150760901Y-71658132D01*
X150734118Y-71661011D01*
X148959867Y-71661011D01*
X148891746Y-71641009D01*
X148856655Y-71607283D01*
X148834198Y-71575211D01*
X148672300Y-71413313D01*
X148667792Y-71410156D01*
X148667789Y-71410154D01*
X148582533Y-71350457D01*
X148484749Y-71281988D01*
X148479767Y-71279665D01*
X148479762Y-71279662D01*
X148282225Y-71187550D01*
X148282224Y-71187550D01*
X148277243Y-71185227D01*
X148271935Y-71183805D01*
X148271933Y-71183804D01*
X148061402Y-71127392D01*
X148061400Y-71127392D01*
X148056087Y-71125968D01*
X147828000Y-71106013D01*
X147599913Y-71125968D01*
X147594600Y-71127392D01*
X147594598Y-71127392D01*
X147384067Y-71183804D01*
X147384065Y-71183805D01*
X147378757Y-71185227D01*
X147373776Y-71187550D01*
X147373775Y-71187550D01*
X147176238Y-71279662D01*
X147176233Y-71279665D01*
X147171251Y-71281988D01*
X147073467Y-71350457D01*
X146988211Y-71410154D01*
X146988208Y-71410156D01*
X146983700Y-71413313D01*
X146821802Y-71575211D01*
X146690477Y-71762762D01*
X146688154Y-71767744D01*
X146688151Y-71767749D01*
X146612964Y-71928990D01*
X146593716Y-71970268D01*
X146592294Y-71975576D01*
X146592293Y-71975578D01*
X146578654Y-72026479D01*
X146534457Y-72191424D01*
X146514502Y-72419511D01*
X146534457Y-72647598D01*
X146535881Y-72652911D01*
X146535881Y-72652913D01*
X146581847Y-72824457D01*
X146593716Y-72868754D01*
X146596039Y-72873735D01*
X146596039Y-72873736D01*
X146688151Y-73071273D01*
X146688154Y-73071278D01*
X146690477Y-73076260D01*
X146759421Y-73174722D01*
X146815481Y-73254783D01*
X146821802Y-73263811D01*
X146983700Y-73425709D01*
X146988208Y-73428866D01*
X146988211Y-73428868D01*
X147007711Y-73442522D01*
X147171251Y-73557034D01*
X147176233Y-73559357D01*
X147176238Y-73559360D01*
X147362686Y-73646301D01*
X147378757Y-73653795D01*
X147384065Y-73655217D01*
X147384067Y-73655218D01*
X147594598Y-73711630D01*
X147594600Y-73711630D01*
X147599913Y-73713054D01*
X147828000Y-73733009D01*
X148056087Y-73713054D01*
X148061400Y-73711630D01*
X148061402Y-73711630D01*
X148271933Y-73655218D01*
X148271935Y-73655217D01*
X148277243Y-73653795D01*
X148293314Y-73646301D01*
X148479762Y-73559360D01*
X148479767Y-73559357D01*
X148484749Y-73557034D01*
X148648289Y-73442522D01*
X148667789Y-73428868D01*
X148667792Y-73428866D01*
X148672300Y-73425709D01*
X148834198Y-73263811D01*
X148856655Y-73231740D01*
X148912110Y-73187412D01*
X148959867Y-73178011D01*
X151033419Y-73178011D01*
X151052369Y-73179444D01*
X151066604Y-73181610D01*
X151066608Y-73181610D01*
X151073838Y-73182710D01*
X151081130Y-73182117D01*
X151081133Y-73182117D01*
X151126507Y-73178426D01*
X151136722Y-73178011D01*
X151144782Y-73178011D01*
X151158072Y-73176462D01*
X151172996Y-73174722D01*
X151177371Y-73174289D01*
X151242828Y-73168965D01*
X151242831Y-73168964D01*
X151250126Y-73168371D01*
X151257090Y-73166115D01*
X151263049Y-73164924D01*
X151268904Y-73163540D01*
X151276170Y-73162693D01*
X151344816Y-73137776D01*
X151348944Y-73136359D01*
X151411425Y-73116118D01*
X151411427Y-73116117D01*
X151418388Y-73113862D01*
X151424643Y-73110066D01*
X151430117Y-73107560D01*
X151435547Y-73104841D01*
X151442426Y-73102344D01*
X151448547Y-73098331D01*
X151503465Y-73062325D01*
X151507169Y-73059988D01*
X151569596Y-73022106D01*
X151577973Y-73014708D01*
X151577997Y-73014735D01*
X151580989Y-73012082D01*
X151584222Y-73009379D01*
X151590341Y-73005367D01*
X151643617Y-72949128D01*
X151645995Y-72946686D01*
X166823441Y-57769240D01*
X166885753Y-57735214D01*
X166937657Y-57734865D01*
X166969447Y-57741333D01*
X167032212Y-57774515D01*
X167067074Y-57836363D01*
X167062964Y-57907240D01*
X167033421Y-57953898D01*
X155467089Y-69520230D01*
X155452677Y-69532616D01*
X155441082Y-69541149D01*
X155441077Y-69541154D01*
X155435182Y-69545492D01*
X155430443Y-69551070D01*
X155430440Y-69551073D01*
X155400965Y-69585768D01*
X155394035Y-69593284D01*
X155388340Y-69598979D01*
X155386060Y-69601861D01*
X155370719Y-69621251D01*
X155367928Y-69624655D01*
X155325409Y-69674703D01*
X155320667Y-69680285D01*
X155317339Y-69686801D01*
X155313972Y-69691850D01*
X155310805Y-69696979D01*
X155306266Y-69702716D01*
X155275345Y-69768875D01*
X155273442Y-69772769D01*
X155240231Y-69837808D01*
X155238492Y-69844916D01*
X155236393Y-69850559D01*
X155234476Y-69856322D01*
X155231378Y-69862950D01*
X155218125Y-69926669D01*
X155216514Y-69934412D01*
X155215544Y-69938696D01*
X155198192Y-70009610D01*
X155197500Y-70020764D01*
X155197464Y-70020762D01*
X155197225Y-70024755D01*
X155196851Y-70028947D01*
X155195360Y-70036115D01*
X155195558Y-70043432D01*
X155197454Y-70113521D01*
X155197500Y-70116928D01*
X155197500Y-71287644D01*
X155177498Y-71355765D01*
X155143772Y-71390856D01*
X155111700Y-71413313D01*
X154949802Y-71575211D01*
X154818477Y-71762762D01*
X154816154Y-71767744D01*
X154816151Y-71767749D01*
X154740964Y-71928990D01*
X154721716Y-71970268D01*
X154720294Y-71975576D01*
X154720293Y-71975578D01*
X154706654Y-72026479D01*
X154662457Y-72191424D01*
X154642502Y-72419511D01*
X154662457Y-72647598D01*
X154663881Y-72652911D01*
X154663881Y-72652913D01*
X154709847Y-72824457D01*
X154721716Y-72868754D01*
X154724039Y-72873735D01*
X154724039Y-72873736D01*
X154816151Y-73071273D01*
X154816154Y-73071278D01*
X154818477Y-73076260D01*
X154887421Y-73174722D01*
X154943481Y-73254783D01*
X154949802Y-73263811D01*
X155111700Y-73425709D01*
X155116208Y-73428866D01*
X155116211Y-73428868D01*
X155135711Y-73442522D01*
X155299251Y-73557034D01*
X155304233Y-73559357D01*
X155304238Y-73559360D01*
X155490686Y-73646301D01*
X155506757Y-73653795D01*
X155512065Y-73655217D01*
X155512067Y-73655218D01*
X155722598Y-73711630D01*
X155722600Y-73711630D01*
X155727913Y-73713054D01*
X155956000Y-73733009D01*
X156184087Y-73713054D01*
X156189400Y-73711630D01*
X156189402Y-73711630D01*
X156399933Y-73655218D01*
X156399935Y-73655217D01*
X156405243Y-73653795D01*
X156421314Y-73646301D01*
X156607762Y-73559360D01*
X156607767Y-73559357D01*
X156612749Y-73557034D01*
X156776289Y-73442522D01*
X156795789Y-73428868D01*
X156795792Y-73428866D01*
X156800300Y-73425709D01*
X156962198Y-73263811D01*
X156968520Y-73254783D01*
X157024579Y-73174722D01*
X157093523Y-73076260D01*
X157095846Y-73071278D01*
X157095849Y-73071273D01*
X157187961Y-72873736D01*
X157187961Y-72873735D01*
X157190284Y-72868754D01*
X157202154Y-72824457D01*
X157248119Y-72652913D01*
X157248119Y-72652911D01*
X157249543Y-72647598D01*
X157269498Y-72419511D01*
X157249543Y-72191424D01*
X157205346Y-72026479D01*
X157191707Y-71975578D01*
X157191706Y-71975576D01*
X157190284Y-71970268D01*
X157171036Y-71928990D01*
X157095849Y-71767749D01*
X157095846Y-71767744D01*
X157093523Y-71762762D01*
X156962198Y-71575211D01*
X156800300Y-71413313D01*
X156768229Y-71390856D01*
X156723901Y-71335401D01*
X156714500Y-71287644D01*
X156714500Y-70470371D01*
X156734502Y-70402250D01*
X156751405Y-70381276D01*
X169363441Y-57769240D01*
X169425753Y-57735214D01*
X169477657Y-57734865D01*
X169509447Y-57741333D01*
X169572212Y-57774515D01*
X169607074Y-57836363D01*
X169602964Y-57907240D01*
X169573421Y-57953898D01*
X161817089Y-65710230D01*
X161802677Y-65722616D01*
X161791082Y-65731149D01*
X161791077Y-65731154D01*
X161785182Y-65735492D01*
X161780443Y-65741070D01*
X161780440Y-65741073D01*
X161750965Y-65775768D01*
X161744035Y-65783284D01*
X161738340Y-65788979D01*
X161736060Y-65791861D01*
X161720719Y-65811251D01*
X161717928Y-65814655D01*
X161675409Y-65864703D01*
X161670667Y-65870285D01*
X161667339Y-65876801D01*
X161663972Y-65881850D01*
X161660805Y-65886979D01*
X161656266Y-65892716D01*
X161625345Y-65958875D01*
X161623442Y-65962769D01*
X161590231Y-66027808D01*
X161588492Y-66034916D01*
X161586393Y-66040559D01*
X161584476Y-66046322D01*
X161581378Y-66052950D01*
X161579888Y-66060112D01*
X161579888Y-66060113D01*
X161566514Y-66124412D01*
X161565544Y-66128696D01*
X161548192Y-66199610D01*
X161547500Y-66210764D01*
X161547464Y-66210762D01*
X161547225Y-66214755D01*
X161546851Y-66218947D01*
X161545360Y-66226115D01*
X161545558Y-66233432D01*
X161547454Y-66303521D01*
X161547500Y-66306928D01*
X161547500Y-71287644D01*
X161527498Y-71355765D01*
X161493772Y-71390856D01*
X161461700Y-71413313D01*
X161299802Y-71575211D01*
X161168477Y-71762762D01*
X161166154Y-71767744D01*
X161166151Y-71767749D01*
X161090964Y-71928990D01*
X161071716Y-71970268D01*
X161070294Y-71975576D01*
X161070293Y-71975578D01*
X161056654Y-72026479D01*
X161012457Y-72191424D01*
X160992502Y-72419511D01*
X161012457Y-72647598D01*
X161013881Y-72652911D01*
X161013881Y-72652913D01*
X161059847Y-72824457D01*
X161071716Y-72868754D01*
X161074039Y-72873735D01*
X161074039Y-72873736D01*
X161166151Y-73071273D01*
X161166154Y-73071278D01*
X161168477Y-73076260D01*
X161237421Y-73174722D01*
X161293481Y-73254783D01*
X161299802Y-73263811D01*
X161461700Y-73425709D01*
X161466208Y-73428866D01*
X161466211Y-73428868D01*
X161485711Y-73442522D01*
X161649251Y-73557034D01*
X161654233Y-73559357D01*
X161654238Y-73559360D01*
X161840686Y-73646301D01*
X161856757Y-73653795D01*
X161862065Y-73655217D01*
X161862067Y-73655218D01*
X162072598Y-73711630D01*
X162072600Y-73711630D01*
X162077913Y-73713054D01*
X162306000Y-73733009D01*
X162534087Y-73713054D01*
X162539400Y-73711630D01*
X162539402Y-73711630D01*
X162749933Y-73655218D01*
X162749935Y-73655217D01*
X162755243Y-73653795D01*
X162771314Y-73646301D01*
X162957762Y-73559360D01*
X162957767Y-73559357D01*
X162962749Y-73557034D01*
X163126289Y-73442522D01*
X163145789Y-73428868D01*
X163145792Y-73428866D01*
X163150300Y-73425709D01*
X163312198Y-73263811D01*
X163318520Y-73254783D01*
X163374579Y-73174722D01*
X163443523Y-73076260D01*
X163445846Y-73071278D01*
X163445849Y-73071273D01*
X163537961Y-72873736D01*
X163537961Y-72873735D01*
X163540284Y-72868754D01*
X163552154Y-72824457D01*
X163598119Y-72652913D01*
X163598119Y-72652911D01*
X163599543Y-72647598D01*
X163619498Y-72419511D01*
X163599543Y-72191424D01*
X163555346Y-72026479D01*
X163541707Y-71975578D01*
X163541706Y-71975576D01*
X163540284Y-71970268D01*
X163521036Y-71928990D01*
X163445849Y-71767749D01*
X163445846Y-71767744D01*
X163443523Y-71762762D01*
X163312198Y-71575211D01*
X163150300Y-71413313D01*
X163118229Y-71390856D01*
X163073901Y-71335401D01*
X163064500Y-71287644D01*
X163064500Y-66660371D01*
X163084502Y-66592250D01*
X163101405Y-66571276D01*
X171903441Y-57769240D01*
X171965753Y-57735214D01*
X172017657Y-57734865D01*
X172050597Y-57741567D01*
X172055772Y-57741757D01*
X172055774Y-57741757D01*
X172268673Y-57749564D01*
X172268677Y-57749564D01*
X172273837Y-57749753D01*
X172278957Y-57749097D01*
X172278959Y-57749097D01*
X172490288Y-57722025D01*
X172490289Y-57722025D01*
X172495416Y-57721368D01*
X172500366Y-57719883D01*
X172704429Y-57658661D01*
X172704434Y-57658659D01*
X172709384Y-57657174D01*
X172909994Y-57558896D01*
X173091860Y-57429173D01*
X173098004Y-57423051D01*
X173236941Y-57284598D01*
X173250096Y-57271489D01*
X173313391Y-57183405D01*
X173380453Y-57090077D01*
X173381776Y-57091028D01*
X173428645Y-57047857D01*
X173498580Y-57035625D01*
X173564026Y-57063144D01*
X173591875Y-57094994D01*
X173651987Y-57193088D01*
X173798250Y-57361938D01*
X173943033Y-57482139D01*
X173947985Y-57486250D01*
X173987620Y-57545152D01*
X173993500Y-57583194D01*
X173993500Y-69767140D01*
X173973498Y-69835261D01*
X173956595Y-69856235D01*
X162568990Y-81243840D01*
X162506678Y-81277866D01*
X162468913Y-81280266D01*
X162311475Y-81266492D01*
X162306000Y-81266013D01*
X162077913Y-81285968D01*
X162072600Y-81287392D01*
X162072598Y-81287392D01*
X161862067Y-81343804D01*
X161862065Y-81343805D01*
X161856757Y-81345227D01*
X161851776Y-81347550D01*
X161851775Y-81347550D01*
X161654238Y-81439662D01*
X161654233Y-81439665D01*
X161649251Y-81441988D01*
X161551467Y-81510457D01*
X161466211Y-81570154D01*
X161466208Y-81570156D01*
X161461700Y-81573313D01*
X161299802Y-81735211D01*
X161277345Y-81767282D01*
X161221890Y-81811610D01*
X161174133Y-81821011D01*
X157087867Y-81821011D01*
X157019746Y-81801009D01*
X156984655Y-81767283D01*
X156962198Y-81735211D01*
X156800300Y-81573313D01*
X156795792Y-81570156D01*
X156795789Y-81570154D01*
X156710533Y-81510457D01*
X156612749Y-81441988D01*
X156607767Y-81439665D01*
X156607762Y-81439662D01*
X156410225Y-81347550D01*
X156410224Y-81347550D01*
X156405243Y-81345227D01*
X156399935Y-81343805D01*
X156399933Y-81343804D01*
X156189402Y-81287392D01*
X156189400Y-81287392D01*
X156184087Y-81285968D01*
X155956000Y-81266013D01*
X155727913Y-81285968D01*
X155722600Y-81287392D01*
X155722598Y-81287392D01*
X155512067Y-81343804D01*
X155512065Y-81343805D01*
X155506757Y-81345227D01*
X155501776Y-81347550D01*
X155501775Y-81347550D01*
X155304238Y-81439662D01*
X155304233Y-81439665D01*
X155299251Y-81441988D01*
X155201467Y-81510457D01*
X155116211Y-81570154D01*
X155116208Y-81570156D01*
X155111700Y-81573313D01*
X154949802Y-81735211D01*
X154927345Y-81767282D01*
X154871890Y-81811610D01*
X154824133Y-81821011D01*
X148959867Y-81821011D01*
X148891746Y-81801009D01*
X148856655Y-81767283D01*
X148834198Y-81735211D01*
X148672300Y-81573313D01*
X148667792Y-81570156D01*
X148667789Y-81570154D01*
X148582533Y-81510457D01*
X148484749Y-81441988D01*
X148479767Y-81439665D01*
X148479762Y-81439662D01*
X148282225Y-81347550D01*
X148282224Y-81347550D01*
X148277243Y-81345227D01*
X148271935Y-81343805D01*
X148271933Y-81343804D01*
X148061402Y-81287392D01*
X148061400Y-81287392D01*
X148056087Y-81285968D01*
X147828000Y-81266013D01*
X147599913Y-81285968D01*
X147594600Y-81287392D01*
X147594598Y-81287392D01*
X147384067Y-81343804D01*
X147384065Y-81343805D01*
X147378757Y-81345227D01*
X147373776Y-81347550D01*
X147373775Y-81347550D01*
X147176238Y-81439662D01*
X147176233Y-81439665D01*
X147171251Y-81441988D01*
X147073467Y-81510457D01*
X146988211Y-81570154D01*
X146988208Y-81570156D01*
X146983700Y-81573313D01*
X146821802Y-81735211D01*
X146799345Y-81767282D01*
X146743890Y-81811610D01*
X146696133Y-81821011D01*
X141585778Y-81821011D01*
X141517657Y-81801009D01*
X141482567Y-81767284D01*
X141470955Y-81750700D01*
X141309057Y-81588802D01*
X141304549Y-81585645D01*
X141304546Y-81585643D01*
X141196485Y-81509978D01*
X141121506Y-81457477D01*
X141116524Y-81455154D01*
X141116519Y-81455151D01*
X140918982Y-81363039D01*
X140918981Y-81363039D01*
X140914000Y-81360716D01*
X140908692Y-81359294D01*
X140908690Y-81359293D01*
X140698159Y-81302881D01*
X140698157Y-81302881D01*
X140692844Y-81301457D01*
X140464757Y-81281502D01*
X140236670Y-81301457D01*
X140231357Y-81302881D01*
X140231355Y-81302881D01*
X140020824Y-81359293D01*
X140020822Y-81359294D01*
X140015514Y-81360716D01*
X140010533Y-81363039D01*
X140010532Y-81363039D01*
X139812995Y-81455151D01*
X139812990Y-81455154D01*
X139808008Y-81457477D01*
X139733029Y-81509978D01*
X139624968Y-81585643D01*
X139624965Y-81585645D01*
X139620457Y-81588802D01*
X139458559Y-81750700D01*
X139436102Y-81782771D01*
X139380647Y-81827099D01*
X139332890Y-81836500D01*
X133015188Y-81836500D01*
X132947067Y-81816498D01*
X132932674Y-81804899D01*
X132932400Y-81805226D01*
X132928196Y-81801698D01*
X132924300Y-81797802D01*
X132919792Y-81794645D01*
X132919789Y-81794643D01*
X132834911Y-81735211D01*
X132736749Y-81666477D01*
X132731767Y-81664154D01*
X132731762Y-81664151D01*
X132534225Y-81572039D01*
X132534224Y-81572039D01*
X132529243Y-81569716D01*
X132523935Y-81568294D01*
X132523933Y-81568293D01*
X132313402Y-81511881D01*
X132313400Y-81511881D01*
X132308087Y-81510457D01*
X132080000Y-81490502D01*
X131851913Y-81510457D01*
X131846600Y-81511881D01*
X131846598Y-81511881D01*
X131636067Y-81568293D01*
X131636065Y-81568294D01*
X131630757Y-81569716D01*
X131625776Y-81572039D01*
X131625775Y-81572039D01*
X131428238Y-81664151D01*
X131428233Y-81664154D01*
X131423251Y-81666477D01*
X131325089Y-81735211D01*
X131240211Y-81794643D01*
X131240208Y-81794645D01*
X131235700Y-81797802D01*
X131073802Y-81959700D01*
X131051345Y-81991771D01*
X130995890Y-82036099D01*
X130948133Y-82045500D01*
X125869867Y-82045500D01*
X125801746Y-82025498D01*
X125766655Y-81991772D01*
X125744198Y-81959700D01*
X125582300Y-81797802D01*
X125550229Y-81775345D01*
X125505901Y-81719890D01*
X125496500Y-81672133D01*
X125496500Y-81371063D01*
X125497933Y-81352114D01*
X125498627Y-81347550D01*
X125501198Y-81330651D01*
X125498940Y-81302881D01*
X125496915Y-81277991D01*
X125496500Y-81267777D01*
X125496500Y-81259707D01*
X125496078Y-81256087D01*
X125496077Y-81256069D01*
X125493208Y-81231461D01*
X125492775Y-81227086D01*
X125487454Y-81161661D01*
X125487453Y-81161658D01*
X125486860Y-81154363D01*
X125484604Y-81147399D01*
X125483413Y-81141440D01*
X125482029Y-81135585D01*
X125481182Y-81128319D01*
X125456265Y-81059673D01*
X125454848Y-81055545D01*
X125434607Y-80993064D01*
X125434606Y-80993062D01*
X125432351Y-80986101D01*
X125428555Y-80979846D01*
X125426049Y-80974372D01*
X125423330Y-80968942D01*
X125420833Y-80962063D01*
X125380809Y-80901016D01*
X125378472Y-80897312D01*
X125343509Y-80839693D01*
X125343505Y-80839688D01*
X125340595Y-80834892D01*
X125333197Y-80826516D01*
X125333223Y-80826493D01*
X125330574Y-80823503D01*
X125327866Y-80820264D01*
X125323856Y-80814148D01*
X125318549Y-80809121D01*
X125318546Y-80809117D01*
X125267617Y-80760872D01*
X125265175Y-80758494D01*
X124239405Y-79732724D01*
X124205379Y-79670412D01*
X124202500Y-79643629D01*
X124202500Y-74019378D01*
X124222502Y-73951257D01*
X124276158Y-73904764D01*
X124346432Y-73894660D01*
X124361102Y-73897669D01*
X124509913Y-73937543D01*
X124738000Y-73957498D01*
X124966087Y-73937543D01*
X124971400Y-73936119D01*
X124971402Y-73936119D01*
X125181933Y-73879707D01*
X125181935Y-73879706D01*
X125187243Y-73878284D01*
X125259593Y-73844547D01*
X125389762Y-73783849D01*
X125389767Y-73783846D01*
X125394749Y-73781523D01*
X125499611Y-73708098D01*
X125577789Y-73653357D01*
X125577792Y-73653355D01*
X125582300Y-73650198D01*
X125744198Y-73488300D01*
X125875523Y-73300749D01*
X125877846Y-73295767D01*
X125877849Y-73295762D01*
X125969961Y-73098225D01*
X125969961Y-73098224D01*
X125972284Y-73093243D01*
X125981198Y-73059978D01*
X126030119Y-72877402D01*
X126030119Y-72877400D01*
X126031543Y-72872087D01*
X126051498Y-72644000D01*
X126041052Y-72524598D01*
X126037245Y-72481087D01*
X126051234Y-72411482D01*
X126073671Y-72381010D01*
X139187911Y-59266770D01*
X139202323Y-59254384D01*
X139213918Y-59245851D01*
X139213923Y-59245846D01*
X139219818Y-59241508D01*
X139224557Y-59235930D01*
X139224560Y-59235927D01*
X139254035Y-59201232D01*
X139260965Y-59193716D01*
X139266661Y-59188020D01*
X139268924Y-59185159D01*
X139268929Y-59185154D01*
X139284293Y-59165734D01*
X139287082Y-59162333D01*
X139329592Y-59112296D01*
X139329594Y-59112294D01*
X139334333Y-59106715D01*
X139337662Y-59100195D01*
X139341028Y-59095148D01*
X139344193Y-59090024D01*
X139348735Y-59084283D01*
X139369890Y-59039020D01*
X139379634Y-59018170D01*
X139381565Y-59014218D01*
X139411442Y-58955708D01*
X139411443Y-58955706D01*
X139414769Y-58949192D01*
X139416508Y-58942086D01*
X139418609Y-58936436D01*
X139420524Y-58930679D01*
X139423622Y-58924050D01*
X139438491Y-58852565D01*
X139439461Y-58848282D01*
X139455473Y-58782844D01*
X139456808Y-58777390D01*
X139457500Y-58766236D01*
X139457535Y-58766238D01*
X139457775Y-58762266D01*
X139458152Y-58758045D01*
X139459641Y-58750885D01*
X139457546Y-58673458D01*
X139457500Y-58670050D01*
X139457500Y-57637632D01*
X139477502Y-57569511D01*
X139510331Y-57535054D01*
X139578860Y-57486173D01*
X139587009Y-57478053D01*
X139700216Y-57365240D01*
X139737096Y-57328489D01*
X139778055Y-57271489D01*
X139867453Y-57147077D01*
X139868776Y-57148028D01*
X139915645Y-57104857D01*
X139985580Y-57092625D01*
X140051026Y-57120144D01*
X140078875Y-57151994D01*
X140138987Y-57250088D01*
X140285250Y-57418938D01*
X140433124Y-57541705D01*
X140434985Y-57543250D01*
X140474620Y-57602152D01*
X140480500Y-57640194D01*
X140480500Y-63118629D01*
X140460498Y-63186750D01*
X140443595Y-63207724D01*
X132342990Y-71308329D01*
X132280678Y-71342355D01*
X132242913Y-71344755D01*
X132085475Y-71330981D01*
X132080000Y-71330502D01*
X131851913Y-71350457D01*
X131846600Y-71351881D01*
X131846598Y-71351881D01*
X131636067Y-71408293D01*
X131636065Y-71408294D01*
X131630757Y-71409716D01*
X131625776Y-71412039D01*
X131625775Y-71412039D01*
X131428238Y-71504151D01*
X131428233Y-71504154D01*
X131423251Y-71506477D01*
X131325089Y-71575211D01*
X131240211Y-71634643D01*
X131240208Y-71634645D01*
X131235700Y-71637802D01*
X131073802Y-71799700D01*
X131070645Y-71804208D01*
X131070643Y-71804211D01*
X131015902Y-71882389D01*
X130942477Y-71987251D01*
X130940154Y-71992233D01*
X130940151Y-71992238D01*
X130848039Y-72189775D01*
X130845716Y-72194757D01*
X130844294Y-72200065D01*
X130844293Y-72200067D01*
X130789821Y-72403357D01*
X130786457Y-72415913D01*
X130766502Y-72644000D01*
X130786457Y-72872087D01*
X130787881Y-72877400D01*
X130787881Y-72877402D01*
X130836803Y-73059978D01*
X130845716Y-73093243D01*
X130848039Y-73098224D01*
X130848039Y-73098225D01*
X130940151Y-73295762D01*
X130940154Y-73295767D01*
X130942477Y-73300749D01*
X131073802Y-73488300D01*
X131235700Y-73650198D01*
X131240208Y-73653355D01*
X131240211Y-73653357D01*
X131318389Y-73708098D01*
X131423251Y-73781523D01*
X131428233Y-73783846D01*
X131428238Y-73783849D01*
X131558407Y-73844547D01*
X131630757Y-73878284D01*
X131636065Y-73879706D01*
X131636067Y-73879707D01*
X131846598Y-73936119D01*
X131846600Y-73936119D01*
X131851913Y-73937543D01*
X132080000Y-73957498D01*
X132308087Y-73937543D01*
X132313400Y-73936119D01*
X132313402Y-73936119D01*
X132523933Y-73879707D01*
X132523935Y-73879706D01*
X132529243Y-73878284D01*
X132601593Y-73844547D01*
X132731762Y-73783849D01*
X132731767Y-73783846D01*
X132736749Y-73781523D01*
X132841611Y-73708098D01*
X132919789Y-73653357D01*
X132919792Y-73653355D01*
X132924300Y-73650198D01*
X133086198Y-73488300D01*
X133217523Y-73300749D01*
X133219846Y-73295767D01*
X133219849Y-73295762D01*
X133311961Y-73098225D01*
X133311961Y-73098224D01*
X133314284Y-73093243D01*
X133323198Y-73059978D01*
X133372119Y-72877402D01*
X133372119Y-72877400D01*
X133373543Y-72872087D01*
X133393498Y-72644000D01*
X133383052Y-72524598D01*
X133379245Y-72481087D01*
X133393234Y-72411482D01*
X133415671Y-72381010D01*
X141727911Y-64068770D01*
X141742323Y-64056384D01*
X141753918Y-64047851D01*
X141753923Y-64047846D01*
X141759818Y-64043508D01*
X141764557Y-64037930D01*
X141764560Y-64037927D01*
X141794035Y-64003232D01*
X141800965Y-63995716D01*
X141806660Y-63990021D01*
X141824281Y-63967749D01*
X141827072Y-63964345D01*
X141869591Y-63914297D01*
X141869592Y-63914295D01*
X141874333Y-63908715D01*
X141877661Y-63902199D01*
X141881028Y-63897150D01*
X141884195Y-63892021D01*
X141888734Y-63886284D01*
X141919655Y-63820125D01*
X141921561Y-63816225D01*
X141954769Y-63751192D01*
X141956508Y-63744084D01*
X141958607Y-63738441D01*
X141960524Y-63732678D01*
X141963622Y-63726050D01*
X141978487Y-63654583D01*
X141979457Y-63650299D01*
X141995473Y-63584845D01*
X141996808Y-63579390D01*
X141997500Y-63568236D01*
X141997536Y-63568238D01*
X141997775Y-63564245D01*
X141998149Y-63560053D01*
X141999640Y-63552885D01*
X141997546Y-63475479D01*
X141997500Y-63472072D01*
X141997500Y-57637632D01*
X142017502Y-57569511D01*
X142050331Y-57535054D01*
X142118860Y-57486173D01*
X142127009Y-57478053D01*
X142240216Y-57365240D01*
X142277096Y-57328489D01*
X142318055Y-57271489D01*
X142407453Y-57147077D01*
X142408776Y-57148028D01*
X142455645Y-57104857D01*
X142525580Y-57092625D01*
X142591026Y-57120144D01*
X142618875Y-57151994D01*
X142678987Y-57250088D01*
X142825250Y-57418938D01*
X142997126Y-57561632D01*
X143190000Y-57674338D01*
X143194825Y-57676180D01*
X143194826Y-57676181D01*
X143235642Y-57691767D01*
X143398692Y-57754030D01*
X143403760Y-57755061D01*
X143403763Y-57755062D01*
X143459993Y-57766502D01*
X143617597Y-57798567D01*
X143622772Y-57798757D01*
X143622774Y-57798757D01*
X143835673Y-57806564D01*
X143835677Y-57806564D01*
X143840837Y-57806753D01*
X143845957Y-57806097D01*
X143845959Y-57806097D01*
X144057288Y-57779025D01*
X144057289Y-57779025D01*
X144062416Y-57778368D01*
X144067366Y-57776883D01*
X144271429Y-57715661D01*
X144271434Y-57715659D01*
X144276384Y-57714174D01*
X144476994Y-57615896D01*
X144658860Y-57486173D01*
X144667009Y-57478053D01*
X144780216Y-57365240D01*
X144817096Y-57328489D01*
X144858055Y-57271489D01*
X144947453Y-57147077D01*
X144948776Y-57148028D01*
X144995645Y-57104857D01*
X145065580Y-57092625D01*
X145131026Y-57120144D01*
X145158875Y-57151994D01*
X145218987Y-57250088D01*
X145365250Y-57418938D01*
X145537126Y-57561632D01*
X145730000Y-57674338D01*
X145734825Y-57676180D01*
X145734826Y-57676181D01*
X145775642Y-57691767D01*
X145938692Y-57754030D01*
X145943760Y-57755061D01*
X145943763Y-57755062D01*
X145999993Y-57766502D01*
X146157597Y-57798567D01*
X146162772Y-57798757D01*
X146162774Y-57798757D01*
X146375673Y-57806564D01*
X146375677Y-57806564D01*
X146380837Y-57806753D01*
X146385957Y-57806097D01*
X146385959Y-57806097D01*
X146597288Y-57779025D01*
X146597289Y-57779025D01*
X146602416Y-57778368D01*
X146607366Y-57776883D01*
X146811429Y-57715661D01*
X146811434Y-57715659D01*
X146816384Y-57714174D01*
X147016994Y-57615896D01*
X147198860Y-57486173D01*
X147207009Y-57478053D01*
X147320216Y-57365240D01*
X147357096Y-57328489D01*
X147398055Y-57271489D01*
X147487453Y-57147077D01*
X147488776Y-57148028D01*
X147535645Y-57104857D01*
X147605580Y-57092625D01*
X147671026Y-57120144D01*
X147698875Y-57151994D01*
X147758987Y-57250088D01*
X147905250Y-57418938D01*
X148077126Y-57561632D01*
X148270000Y-57674338D01*
X148274825Y-57676180D01*
X148274826Y-57676181D01*
X148315642Y-57691767D01*
X148478692Y-57754030D01*
X148483760Y-57755061D01*
X148483763Y-57755062D01*
X148539993Y-57766502D01*
X148697597Y-57798567D01*
X148702772Y-57798757D01*
X148702774Y-57798757D01*
X148915673Y-57806564D01*
X148915677Y-57806564D01*
X148920837Y-57806753D01*
X148925957Y-57806097D01*
X148925959Y-57806097D01*
X149137288Y-57779025D01*
X149137289Y-57779025D01*
X149142416Y-57778368D01*
X149147366Y-57776883D01*
X149351429Y-57715661D01*
X149351434Y-57715659D01*
X149356384Y-57714174D01*
X149556994Y-57615896D01*
X149738860Y-57486173D01*
X149747009Y-57478053D01*
X149860216Y-57365240D01*
X149897096Y-57328489D01*
X149938055Y-57271489D01*
X150027453Y-57147077D01*
X150028776Y-57148028D01*
X150075645Y-57104857D01*
X150145580Y-57092625D01*
X150211026Y-57120144D01*
X150238875Y-57151994D01*
X150298987Y-57250088D01*
X150445250Y-57418938D01*
X150617126Y-57561632D01*
X150810000Y-57674338D01*
X150814825Y-57676180D01*
X150814826Y-57676181D01*
X150855642Y-57691767D01*
X151018692Y-57754030D01*
X151023760Y-57755061D01*
X151023763Y-57755062D01*
X151079993Y-57766502D01*
X151237597Y-57798567D01*
X151242772Y-57798757D01*
X151242774Y-57798757D01*
X151455673Y-57806564D01*
X151455677Y-57806564D01*
X151460837Y-57806753D01*
X151465957Y-57806097D01*
X151465959Y-57806097D01*
X151677288Y-57779025D01*
X151677289Y-57779025D01*
X151682416Y-57778368D01*
X151687366Y-57776883D01*
X151891429Y-57715661D01*
X151891434Y-57715659D01*
X151896384Y-57714174D01*
X152096994Y-57615896D01*
X152278860Y-57486173D01*
X152287009Y-57478053D01*
X152400216Y-57365240D01*
X152437096Y-57328489D01*
X152478055Y-57271489D01*
X152564435Y-57151277D01*
X152567453Y-57147077D01*
X152580995Y-57119678D01*
X152664136Y-56951453D01*
X152664137Y-56951451D01*
X152666430Y-56946811D01*
X152720841Y-56767724D01*
X152729865Y-56738023D01*
X152729865Y-56738021D01*
X152731370Y-56733069D01*
X152760529Y-56511590D01*
X152762156Y-56445000D01*
X152743852Y-56222361D01*
X152689431Y-56005702D01*
X152600354Y-55800840D01*
X152541288Y-55709538D01*
X152481822Y-55617617D01*
X152481820Y-55617614D01*
X152479014Y-55613277D01*
X152328670Y-55448051D01*
X152324619Y-55444852D01*
X152324615Y-55444848D01*
X152157414Y-55312800D01*
X152157410Y-55312798D01*
X152153359Y-55309598D01*
X152117028Y-55289542D01*
X152101136Y-55280769D01*
X151957789Y-55201638D01*
X151952920Y-55199914D01*
X151952916Y-55199912D01*
X151752087Y-55128795D01*
X151752083Y-55128794D01*
X151747212Y-55127069D01*
X151742119Y-55126162D01*
X151742116Y-55126161D01*
X151532373Y-55088800D01*
X151532367Y-55088799D01*
X151527284Y-55087894D01*
X151453452Y-55086992D01*
X151309081Y-55085228D01*
X151309079Y-55085228D01*
X151303911Y-55085165D01*
X151083091Y-55118955D01*
X150870756Y-55188357D01*
X150672607Y-55291507D01*
X150668474Y-55294610D01*
X150668471Y-55294612D01*
X150498100Y-55422530D01*
X150493965Y-55425635D01*
X150490393Y-55429373D01*
X150394100Y-55530138D01*
X150339629Y-55587138D01*
X150232201Y-55744621D01*
X150177293Y-55789621D01*
X150106768Y-55797792D01*
X150043021Y-55766538D01*
X150022324Y-55742054D01*
X149941822Y-55617617D01*
X149941820Y-55617614D01*
X149939014Y-55613277D01*
X149788670Y-55448051D01*
X149784619Y-55444852D01*
X149784615Y-55444848D01*
X149617414Y-55312800D01*
X149617410Y-55312798D01*
X149613359Y-55309598D01*
X149577028Y-55289542D01*
X149561136Y-55280769D01*
X149417789Y-55201638D01*
X149412920Y-55199914D01*
X149412916Y-55199912D01*
X149212087Y-55128795D01*
X149212083Y-55128794D01*
X149207212Y-55127069D01*
X149202119Y-55126162D01*
X149202116Y-55126161D01*
X148992373Y-55088800D01*
X148992367Y-55088799D01*
X148987284Y-55087894D01*
X148913452Y-55086992D01*
X148769081Y-55085228D01*
X148769079Y-55085228D01*
X148763911Y-55085165D01*
X148543091Y-55118955D01*
X148330756Y-55188357D01*
X148132607Y-55291507D01*
X148128474Y-55294610D01*
X148128471Y-55294612D01*
X147958100Y-55422530D01*
X147953965Y-55425635D01*
X147950393Y-55429373D01*
X147854100Y-55530138D01*
X147799629Y-55587138D01*
X147692201Y-55744621D01*
X147637293Y-55789621D01*
X147566768Y-55797792D01*
X147503021Y-55766538D01*
X147482324Y-55742054D01*
X147401822Y-55617617D01*
X147401820Y-55617614D01*
X147399014Y-55613277D01*
X147248670Y-55448051D01*
X147244619Y-55444852D01*
X147244615Y-55444848D01*
X147077414Y-55312800D01*
X147077410Y-55312798D01*
X147073359Y-55309598D01*
X147037028Y-55289542D01*
X147021136Y-55280769D01*
X146877789Y-55201638D01*
X146872920Y-55199914D01*
X146872916Y-55199912D01*
X146672087Y-55128795D01*
X146672083Y-55128794D01*
X146667212Y-55127069D01*
X146662119Y-55126162D01*
X146662116Y-55126161D01*
X146452373Y-55088800D01*
X146452367Y-55088799D01*
X146447284Y-55087894D01*
X146373452Y-55086992D01*
X146229081Y-55085228D01*
X146229079Y-55085228D01*
X146223911Y-55085165D01*
X146003091Y-55118955D01*
X145790756Y-55188357D01*
X145592607Y-55291507D01*
X145588474Y-55294610D01*
X145588471Y-55294612D01*
X145418100Y-55422530D01*
X145413965Y-55425635D01*
X145410393Y-55429373D01*
X145314100Y-55530138D01*
X145259629Y-55587138D01*
X145152201Y-55744621D01*
X145097293Y-55789621D01*
X145026768Y-55797792D01*
X144963021Y-55766538D01*
X144942324Y-55742054D01*
X144861822Y-55617617D01*
X144861820Y-55617614D01*
X144859014Y-55613277D01*
X144708670Y-55448051D01*
X144704619Y-55444852D01*
X144704615Y-55444848D01*
X144537414Y-55312800D01*
X144537410Y-55312798D01*
X144533359Y-55309598D01*
X144497028Y-55289542D01*
X144481136Y-55280769D01*
X144337789Y-55201638D01*
X144332920Y-55199914D01*
X144332916Y-55199912D01*
X144132087Y-55128795D01*
X144132083Y-55128794D01*
X144127212Y-55127069D01*
X144122119Y-55126162D01*
X144122116Y-55126161D01*
X143912373Y-55088800D01*
X143912367Y-55088799D01*
X143907284Y-55087894D01*
X143833452Y-55086992D01*
X143689081Y-55085228D01*
X143689079Y-55085228D01*
X143683911Y-55085165D01*
X143463091Y-55118955D01*
X143250756Y-55188357D01*
X143052607Y-55291507D01*
X143048474Y-55294610D01*
X143048471Y-55294612D01*
X142878100Y-55422530D01*
X142873965Y-55425635D01*
X142870393Y-55429373D01*
X142774100Y-55530138D01*
X142719629Y-55587138D01*
X142612201Y-55744621D01*
X142557293Y-55789621D01*
X142486768Y-55797792D01*
X142423021Y-55766538D01*
X142402324Y-55742054D01*
X142321822Y-55617617D01*
X142321820Y-55617614D01*
X142319014Y-55613277D01*
X142168670Y-55448051D01*
X142164619Y-55444852D01*
X142164615Y-55444848D01*
X141997414Y-55312800D01*
X141997410Y-55312798D01*
X141993359Y-55309598D01*
X141957028Y-55289542D01*
X141941136Y-55280769D01*
X141797789Y-55201638D01*
X141792920Y-55199914D01*
X141792916Y-55199912D01*
X141592087Y-55128795D01*
X141592083Y-55128794D01*
X141587212Y-55127069D01*
X141582119Y-55126162D01*
X141582116Y-55126161D01*
X141372373Y-55088800D01*
X141372367Y-55088799D01*
X141367284Y-55087894D01*
X141293452Y-55086992D01*
X141149081Y-55085228D01*
X141149079Y-55085228D01*
X141143911Y-55085165D01*
X140923091Y-55118955D01*
X140710756Y-55188357D01*
X140512607Y-55291507D01*
X140508474Y-55294610D01*
X140508471Y-55294612D01*
X140338100Y-55422530D01*
X140333965Y-55425635D01*
X140330393Y-55429373D01*
X140234100Y-55530138D01*
X140179629Y-55587138D01*
X140072201Y-55744621D01*
X140017293Y-55789621D01*
X139946768Y-55797792D01*
X139883021Y-55766538D01*
X139862324Y-55742054D01*
X139781822Y-55617617D01*
X139781820Y-55617614D01*
X139779014Y-55613277D01*
X139628670Y-55448051D01*
X139624619Y-55444852D01*
X139624615Y-55444848D01*
X139457414Y-55312800D01*
X139457410Y-55312798D01*
X139453359Y-55309598D01*
X139417028Y-55289542D01*
X139401136Y-55280769D01*
X139257789Y-55201638D01*
X139252920Y-55199914D01*
X139252916Y-55199912D01*
X139052087Y-55128795D01*
X139052083Y-55128794D01*
X139047212Y-55127069D01*
X139042119Y-55126162D01*
X139042116Y-55126161D01*
X138832373Y-55088800D01*
X138832367Y-55088799D01*
X138827284Y-55087894D01*
X138753452Y-55086992D01*
X138609081Y-55085228D01*
X138609079Y-55085228D01*
X138603911Y-55085165D01*
X138383091Y-55118955D01*
X138170756Y-55188357D01*
X137972607Y-55291507D01*
X137968474Y-55294610D01*
X137968471Y-55294612D01*
X137798100Y-55422530D01*
X137793965Y-55425635D01*
X137790393Y-55429373D01*
X137694100Y-55530138D01*
X137639629Y-55587138D01*
X137636720Y-55591403D01*
X137636714Y-55591411D01*
X137613187Y-55625901D01*
X137532204Y-55744618D01*
X137531898Y-55745066D01*
X137476987Y-55790069D01*
X137406462Y-55798240D01*
X137342715Y-55766986D01*
X137322018Y-55742502D01*
X137241426Y-55617926D01*
X137235136Y-55609757D01*
X137091806Y-55452240D01*
X137084273Y-55445215D01*
X136917139Y-55313222D01*
X136908552Y-55307517D01*
X136722117Y-55204599D01*
X136712705Y-55200369D01*
X136511959Y-55129280D01*
X136501988Y-55126646D01*
X136430837Y-55113972D01*
X136417540Y-55115432D01*
X136413000Y-55129989D01*
X136413000Y-57763517D01*
X136417064Y-57777359D01*
X136430478Y-57779393D01*
X136437184Y-57778534D01*
X136447262Y-57776392D01*
X136651255Y-57715191D01*
X136660842Y-57711433D01*
X136852095Y-57617739D01*
X136860945Y-57612464D01*
X137034328Y-57488792D01*
X137042200Y-57482139D01*
X137193052Y-57331812D01*
X137199730Y-57323965D01*
X137327022Y-57146819D01*
X137328279Y-57147722D01*
X137375373Y-57104362D01*
X137445311Y-57092145D01*
X137510751Y-57119678D01*
X137538579Y-57151511D01*
X137598987Y-57250088D01*
X137745250Y-57418938D01*
X137893124Y-57541705D01*
X137894985Y-57543250D01*
X137934620Y-57602152D01*
X137940500Y-57640194D01*
X137940500Y-58316629D01*
X137920498Y-58384750D01*
X137903595Y-58405724D01*
X125000990Y-71308329D01*
X124938678Y-71342355D01*
X124900913Y-71344755D01*
X124743475Y-71330981D01*
X124738000Y-71330502D01*
X124509913Y-71350457D01*
X124361110Y-71390329D01*
X124290135Y-71388639D01*
X124231339Y-71348845D01*
X124203391Y-71283581D01*
X124202500Y-71268622D01*
X124202500Y-66986371D01*
X124222502Y-66918250D01*
X124239405Y-66897276D01*
X133296276Y-57840405D01*
X133358588Y-57806379D01*
X133385371Y-57803500D01*
X134517134Y-57803500D01*
X134579316Y-57796745D01*
X134715705Y-57745615D01*
X134832261Y-57658261D01*
X134919615Y-57541705D01*
X134934906Y-57500916D01*
X134963798Y-57423848D01*
X135006440Y-57367084D01*
X135073001Y-57342384D01*
X135142350Y-57357592D01*
X135177017Y-57385580D01*
X135202218Y-57414673D01*
X135209580Y-57421883D01*
X135373434Y-57557916D01*
X135381881Y-57563831D01*
X135565756Y-57671279D01*
X135575042Y-57675729D01*
X135774001Y-57751703D01*
X135783899Y-57754579D01*
X135887250Y-57775606D01*
X135901299Y-57774410D01*
X135905000Y-57764065D01*
X135905000Y-55128102D01*
X135901082Y-55114758D01*
X135886806Y-55112771D01*
X135848324Y-55118660D01*
X135838288Y-55121051D01*
X135635868Y-55187212D01*
X135626359Y-55191209D01*
X135437463Y-55289542D01*
X135428738Y-55295036D01*
X135258433Y-55422905D01*
X135250726Y-55429748D01*
X135173478Y-55510584D01*
X135111954Y-55546014D01*
X135041042Y-55542557D01*
X134983255Y-55501311D01*
X134964402Y-55467763D01*
X134922767Y-55356703D01*
X134919615Y-55348295D01*
X134832261Y-55231739D01*
X134715705Y-55144385D01*
X134579316Y-55093255D01*
X134517134Y-55086500D01*
X132720866Y-55086500D01*
X132658684Y-55093255D01*
X132522295Y-55144385D01*
X132405739Y-55231739D01*
X132318385Y-55348295D01*
X132267255Y-55484684D01*
X132260500Y-55546866D01*
X132260500Y-56678629D01*
X132240498Y-56746750D01*
X132223595Y-56767724D01*
X122955089Y-66036230D01*
X122940677Y-66048616D01*
X122929082Y-66057149D01*
X122929077Y-66057154D01*
X122923182Y-66061492D01*
X122918443Y-66067070D01*
X122918440Y-66067073D01*
X122888965Y-66101768D01*
X122882035Y-66109284D01*
X122876340Y-66114979D01*
X122874060Y-66117861D01*
X122858719Y-66137251D01*
X122855928Y-66140655D01*
X122813409Y-66190703D01*
X122808667Y-66196285D01*
X122805339Y-66202801D01*
X122801972Y-66207850D01*
X122798805Y-66212979D01*
X122794266Y-66218716D01*
X122763345Y-66284875D01*
X122761442Y-66288769D01*
X122728231Y-66353808D01*
X122726492Y-66360916D01*
X122724393Y-66366559D01*
X122722476Y-66372322D01*
X122719378Y-66378950D01*
X122717888Y-66386112D01*
X122717888Y-66386113D01*
X122704514Y-66450412D01*
X122703544Y-66454696D01*
X122686192Y-66525610D01*
X122685500Y-66536764D01*
X122685464Y-66536762D01*
X122685225Y-66540755D01*
X122684851Y-66544947D01*
X122683360Y-66552115D01*
X122683558Y-66559432D01*
X122685454Y-66629521D01*
X122685500Y-66632928D01*
X122685500Y-71976449D01*
X122682625Y-72000300D01*
X122682859Y-72000336D01*
X122682015Y-72005880D01*
X122680681Y-72011334D01*
X122679989Y-72022488D01*
X122679953Y-72022486D01*
X122679714Y-72026479D01*
X122679340Y-72030671D01*
X122677849Y-72037839D01*
X122678047Y-72045156D01*
X122679943Y-72115245D01*
X122679989Y-72118652D01*
X122679989Y-73115206D01*
X122678556Y-73134156D01*
X122675290Y-73155625D01*
X121008500Y-73155625D01*
X121008500Y-49554568D01*
X122937382Y-49554568D01*
X122966208Y-49803699D01*
X122967587Y-49808573D01*
X122967588Y-49808577D01*
X123006526Y-49946181D01*
X123034494Y-50045017D01*
X123036628Y-50049592D01*
X123036630Y-50049599D01*
X123138347Y-50267731D01*
X123140484Y-50272313D01*
X123143326Y-50276494D01*
X123143326Y-50276495D01*
X123278605Y-50475552D01*
X123278608Y-50475556D01*
X123281451Y-50479739D01*
X123284928Y-50483416D01*
X123284929Y-50483417D01*
X123385238Y-50589491D01*
X123453767Y-50661959D01*
X123457793Y-50665037D01*
X123457794Y-50665038D01*
X123648981Y-50811212D01*
X123648985Y-50811215D01*
X123653001Y-50814285D01*
X123874026Y-50932797D01*
X123878807Y-50934443D01*
X123878811Y-50934445D01*
X124104538Y-51012169D01*
X124111156Y-51014448D01*
X124214689Y-51032331D01*
X124354380Y-51056460D01*
X124354386Y-51056461D01*
X124358290Y-51057135D01*
X124362251Y-51057315D01*
X124362252Y-51057315D01*
X124386931Y-51058436D01*
X124386950Y-51058436D01*
X124388350Y-51058500D01*
X124563015Y-51058500D01*
X124565523Y-51058298D01*
X124565528Y-51058298D01*
X124744944Y-51043863D01*
X124744949Y-51043862D01*
X124749985Y-51043457D01*
X124754893Y-51042252D01*
X124754896Y-51042251D01*
X124988625Y-50984841D01*
X124993539Y-50983634D01*
X124998191Y-50981659D01*
X124998195Y-50981658D01*
X125219741Y-50887617D01*
X125219742Y-50887617D01*
X125224396Y-50885641D01*
X125436615Y-50752000D01*
X125624738Y-50586147D01*
X125783924Y-50392351D01*
X125910078Y-50175596D01*
X125999955Y-49941461D01*
X126051241Y-49695967D01*
X126057662Y-49554568D01*
X192437382Y-49554568D01*
X192466208Y-49803699D01*
X192467587Y-49808573D01*
X192467588Y-49808577D01*
X192506526Y-49946181D01*
X192534494Y-50045017D01*
X192536628Y-50049592D01*
X192536630Y-50049599D01*
X192638347Y-50267731D01*
X192640484Y-50272313D01*
X192643326Y-50276494D01*
X192643326Y-50276495D01*
X192778605Y-50475552D01*
X192778608Y-50475556D01*
X192781451Y-50479739D01*
X192784928Y-50483416D01*
X192784929Y-50483417D01*
X192885238Y-50589491D01*
X192953767Y-50661959D01*
X192957793Y-50665037D01*
X192957794Y-50665038D01*
X193148981Y-50811212D01*
X193148985Y-50811215D01*
X193153001Y-50814285D01*
X193374026Y-50932797D01*
X193378807Y-50934443D01*
X193378811Y-50934445D01*
X193604538Y-51012169D01*
X193611156Y-51014448D01*
X193714689Y-51032331D01*
X193854380Y-51056460D01*
X193854386Y-51056461D01*
X193858290Y-51057135D01*
X193862251Y-51057315D01*
X193862252Y-51057315D01*
X193886931Y-51058436D01*
X193886950Y-51058436D01*
X193888350Y-51058500D01*
X194063015Y-51058500D01*
X194065523Y-51058298D01*
X194065528Y-51058298D01*
X194244944Y-51043863D01*
X194244949Y-51043862D01*
X194249985Y-51043457D01*
X194254893Y-51042252D01*
X194254896Y-51042251D01*
X194488625Y-50984841D01*
X194493539Y-50983634D01*
X194498191Y-50981659D01*
X194498195Y-50981658D01*
X194719741Y-50887617D01*
X194719742Y-50887617D01*
X194724396Y-50885641D01*
X194936615Y-50752000D01*
X195124738Y-50586147D01*
X195283924Y-50392351D01*
X195410078Y-50175596D01*
X195499955Y-49941461D01*
X195551241Y-49695967D01*
X195562618Y-49445432D01*
X195533792Y-49196301D01*
X195494810Y-49058539D01*
X195466884Y-48959852D01*
X195466883Y-48959850D01*
X195465506Y-48954983D01*
X195463372Y-48950408D01*
X195463370Y-48950401D01*
X195361653Y-48732269D01*
X195361651Y-48732265D01*
X195359516Y-48727687D01*
X195356674Y-48723505D01*
X195221395Y-48524448D01*
X195221392Y-48524444D01*
X195218549Y-48520261D01*
X195117925Y-48413853D01*
X195049713Y-48341721D01*
X195046233Y-48338041D01*
X195042206Y-48334962D01*
X194851019Y-48188788D01*
X194851015Y-48188785D01*
X194846999Y-48185715D01*
X194625974Y-48067203D01*
X194621193Y-48065557D01*
X194621189Y-48065555D01*
X194393633Y-47987201D01*
X194388844Y-47985552D01*
X194285311Y-47967669D01*
X194145620Y-47943540D01*
X194145614Y-47943539D01*
X194141710Y-47942865D01*
X194137749Y-47942685D01*
X194137748Y-47942685D01*
X194113069Y-47941564D01*
X194113050Y-47941564D01*
X194111650Y-47941500D01*
X193936985Y-47941500D01*
X193934477Y-47941702D01*
X193934472Y-47941702D01*
X193755056Y-47956137D01*
X193755051Y-47956138D01*
X193750015Y-47956543D01*
X193745107Y-47957748D01*
X193745104Y-47957749D01*
X193513326Y-48014680D01*
X193506461Y-48016366D01*
X193501809Y-48018341D01*
X193501805Y-48018342D01*
X193381061Y-48069595D01*
X193275604Y-48114359D01*
X193063385Y-48248000D01*
X192875262Y-48413853D01*
X192716076Y-48607649D01*
X192589922Y-48824404D01*
X192500045Y-49058539D01*
X192448759Y-49304033D01*
X192437382Y-49554568D01*
X126057662Y-49554568D01*
X126062618Y-49445432D01*
X126033792Y-49196301D01*
X125994810Y-49058539D01*
X125966884Y-48959852D01*
X125966883Y-48959850D01*
X125965506Y-48954983D01*
X125963372Y-48950408D01*
X125963370Y-48950401D01*
X125861653Y-48732269D01*
X125861651Y-48732265D01*
X125859516Y-48727687D01*
X125856674Y-48723505D01*
X125721395Y-48524448D01*
X125721392Y-48524444D01*
X125718549Y-48520261D01*
X125617925Y-48413853D01*
X125549713Y-48341721D01*
X125546233Y-48338041D01*
X125542206Y-48334962D01*
X125351019Y-48188788D01*
X125351015Y-48188785D01*
X125346999Y-48185715D01*
X125125974Y-48067203D01*
X125121193Y-48065557D01*
X125121189Y-48065555D01*
X124893633Y-47987201D01*
X124888844Y-47985552D01*
X124785311Y-47967669D01*
X124645620Y-47943540D01*
X124645614Y-47943539D01*
X124641710Y-47942865D01*
X124637749Y-47942685D01*
X124637748Y-47942685D01*
X124613069Y-47941564D01*
X124613050Y-47941564D01*
X124611650Y-47941500D01*
X124436985Y-47941500D01*
X124434477Y-47941702D01*
X124434472Y-47941702D01*
X124255056Y-47956137D01*
X124255051Y-47956138D01*
X124250015Y-47956543D01*
X124245107Y-47957748D01*
X124245104Y-47957749D01*
X124013326Y-48014680D01*
X124006461Y-48016366D01*
X124001809Y-48018341D01*
X124001805Y-48018342D01*
X123881061Y-48069595D01*
X123775604Y-48114359D01*
X123563385Y-48248000D01*
X123375262Y-48413853D01*
X123216076Y-48607649D01*
X123089922Y-48824404D01*
X123000045Y-49058539D01*
X122948759Y-49304033D01*
X122937382Y-49554568D01*
X121008500Y-49554568D01*
X121008500Y-46134500D01*
X121028502Y-46066379D01*
X121082158Y-46019886D01*
X121134500Y-46008500D01*
X197365500Y-46008500D01*
X197433621Y-46028502D01*
G37*
%TD.AperFunction*%
%TD*%
M02*
