%TF.GenerationSoftware,KiCad,Pcbnew,(6.0.4)*%
%TF.CreationDate,2022-04-12T10:07:42+02:00*%
%TF.ProjectId,Antenna-controller,416e7465-6e6e-4612-9d63-6f6e74726f6c,rev?*%
%TF.SameCoordinates,Original*%
%TF.FileFunction,Copper,L2,Bot*%
%TF.FilePolarity,Positive*%
%FSLAX46Y46*%
G04 Gerber Fmt 4.6, Leading zero omitted, Abs format (unit mm)*
G04 Created by KiCad (PCBNEW (6.0.4)) date 2022-04-12 10:07:42*
%MOMM*%
%LPD*%
G01*
G04 APERTURE LIST*
%TA.AperFunction,ComponentPad*%
%ADD10C,1.600000*%
%TD*%
%TA.AperFunction,ComponentPad*%
%ADD11O,1.600000X1.600000*%
%TD*%
%TA.AperFunction,ComponentPad*%
%ADD12R,1.905000X2.000000*%
%TD*%
%TA.AperFunction,ComponentPad*%
%ADD13O,1.905000X2.000000*%
%TD*%
%TA.AperFunction,ComponentPad*%
%ADD14R,2.400000X1.600000*%
%TD*%
%TA.AperFunction,ComponentPad*%
%ADD15O,2.400000X1.600000*%
%TD*%
%TA.AperFunction,ComponentPad*%
%ADD16R,3.960000X1.980000*%
%TD*%
%TA.AperFunction,ComponentPad*%
%ADD17O,3.960000X1.980000*%
%TD*%
%TA.AperFunction,ComponentPad*%
%ADD18R,1.717500X1.800000*%
%TD*%
%TA.AperFunction,ComponentPad*%
%ADD19O,1.717500X1.800000*%
%TD*%
%TA.AperFunction,ComponentPad*%
%ADD20R,1.000000X1.000000*%
%TD*%
%TA.AperFunction,ComponentPad*%
%ADD21O,1.000000X1.000000*%
%TD*%
%TA.AperFunction,SMDPad,CuDef*%
%ADD22R,1.900000X0.800000*%
%TD*%
%TA.AperFunction,ViaPad*%
%ADD23C,0.800000*%
%TD*%
%TA.AperFunction,Conductor*%
%ADD24C,0.500000*%
%TD*%
%TA.AperFunction,Conductor*%
%ADD25C,0.750000*%
%TD*%
G04 APERTURE END LIST*
D10*
%TO.P,R12,1*%
%TO.N,imu_scl_3.3V*%
X134620000Y-62230000D03*
D11*
%TO.P,R12,2*%
%TO.N,+3V3*%
X134620000Y-72390000D03*
%TD*%
D10*
%TO.P,R15,1*%
%TO.N,SS1_5V*%
X135877846Y-97951737D03*
D11*
%TO.P,R15,2*%
%TO.N,5V*%
X135877846Y-87791737D03*
%TD*%
D12*
%TO.P,Q1,1,D*%
%TO.N,+6V*%
X161960000Y-99230000D03*
D13*
%TO.P,Q1,2,G*%
%TO.N,forward*%
X164500000Y-99230000D03*
%TO.P,Q1,3,S*%
%TO.N,Net-(M1-Pad1)*%
X167040000Y-99230000D03*
%TD*%
D14*
%TO.P,U1,1,A1*%
%TO.N,Net-(R5-Pad2)*%
X139517500Y-106690000D03*
D15*
%TO.P,U1,2,C1*%
%TO.N,GND*%
X139517500Y-109230000D03*
%TO.P,U1,3,C2*%
X139517500Y-111770000D03*
%TO.P,U1,4,A2*%
%TO.N,Net-(R6-Pad2)*%
X139517500Y-114310000D03*
%TO.P,U1,5,E2*%
%TO.N,forward*%
X149677500Y-114310000D03*
%TO.P,U1,6,C2*%
%TO.N,+6V*%
X149677500Y-111770000D03*
%TO.P,U1,7,C1*%
X149677500Y-109230000D03*
%TO.P,U1,8,E1*%
%TO.N,rev*%
X149677500Y-106690000D03*
%TD*%
D10*
%TO.P,R11,1*%
%TO.N,imu_sda_3.3V*%
X140970000Y-62230000D03*
D11*
%TO.P,R11,2*%
%TO.N,+3V3*%
X140970000Y-72390000D03*
%TD*%
D16*
%TO.P,M1,1,+*%
%TO.N,Net-(M1-Pad1)*%
X189500000Y-112014000D03*
D17*
%TO.P,M1,2,-*%
%TO.N,Net-(M1-Pad2)*%
X189500000Y-107014000D03*
%TD*%
D18*
%TO.P,Q2,1,D*%
%TO.N,Net-(M1-Pad1)*%
X167290000Y-108185000D03*
D19*
%TO.P,Q2,2,G*%
%TO.N,forward*%
X165000000Y-108185000D03*
%TO.P,Q2,3,S*%
%TO.N,GND*%
X162710000Y-108185000D03*
%TD*%
D20*
%TO.P,s-lite1,1,3.3V*%
%TO.N,+3V3*%
X190575000Y-59690000D03*
D21*
%TO.P,s-lite1,2,5V*%
%TO.N,5V*%
X190575000Y-60960000D03*
%TO.P,s-lite1,3,A0/MOSI1*%
%TO.N,MOSI_5V*%
X190575000Y-62230000D03*
%TO.P,s-lite1,4,A1/MISO1*%
%TO.N,MISO_5V*%
X190575000Y-63500000D03*
%TO.P,s-lite1,5,A2/SCK1*%
%TO.N,SCK_5V*%
X190575000Y-64770000D03*
%TO.P,s-lite1,6,AUX1/A5/SS1*%
%TO.N,SS1_5V*%
X190575000Y-66040000D03*
%TO.P,s-lite1,7,A3/SDA0*%
%TO.N,imu_sda_5V*%
X190575000Y-67310000D03*
%TO.P,s-lite1,8,A4/SCL0*%
%TO.N,imu_scl_5V*%
X190575000Y-68580000D03*
%TO.P,s-lite1,9,D1/TX0*%
%TO.N,rev_input_5V*%
X190575000Y-69850000D03*
%TO.P,s-lite1,10,D0/RX0*%
%TO.N,forward_input_5V*%
X190575000Y-71120000D03*
%TO.P,s-lite1,11,GND*%
%TO.N,GND*%
X190575000Y-72390000D03*
%TD*%
D10*
%TO.P,R13,1*%
%TO.N,imu_scl_5V*%
X123640039Y-97957977D03*
D11*
%TO.P,R13,2*%
%TO.N,5V*%
X123640039Y-87797977D03*
%TD*%
D10*
%TO.P,R17,1*%
%TO.N,MISO_5V*%
X151130000Y-76200000D03*
D11*
%TO.P,R17,2*%
%TO.N,5V*%
X140970000Y-76200000D03*
%TD*%
D10*
%TO.P,R1,1*%
%TO.N,forward*%
X154000000Y-92000000D03*
D11*
%TO.P,R1,2*%
%TO.N,GND*%
X143840000Y-92000000D03*
%TD*%
D20*
%TO.P,U2,1,vcc*%
%TO.N,+3V3*%
X135250000Y-51955000D03*
D21*
%TO.P,U2,2,gnd*%
%TO.N,GND*%
X136520000Y-51955000D03*
%TO.P,U2,3,scl*%
%TO.N,imu_scl_3.3V*%
X137790000Y-51955000D03*
%TO.P,U2,4,sda*%
%TO.N,imu_sda_3.3V*%
X139060000Y-51955000D03*
%TO.P,U2,5,xda*%
%TO.N,unconnected-(U2-Pad5)*%
X140330000Y-51955000D03*
%TO.P,U2,6,xdl*%
%TO.N,unconnected-(U2-Pad6)*%
X141600000Y-51955000D03*
%TO.P,U2,7,ado*%
%TO.N,unconnected-(U2-Pad7)*%
X142870000Y-51955000D03*
%TO.P,U2,8,int*%
%TO.N,unconnected-(U2-Pad8)*%
X144140000Y-51955000D03*
%TD*%
D10*
%TO.P,R16,1*%
%TO.N,MOSI_5V*%
X167640000Y-77470000D03*
D11*
%TO.P,R16,2*%
%TO.N,5V*%
X157480000Y-77470000D03*
%TD*%
D10*
%TO.P,R10,1*%
%TO.N,SS1_3.3V*%
X167640000Y-62230000D03*
D11*
%TO.P,R10,2*%
%TO.N,+3V3*%
X167640000Y-72390000D03*
%TD*%
D10*
%TO.P,R14,1*%
%TO.N,imu_sda_5V*%
X129787618Y-97951737D03*
D11*
%TO.P,R14,2*%
%TO.N,5V*%
X129787618Y-87791737D03*
%TD*%
D10*
%TO.P,R5,1*%
%TO.N,rev_input_5V*%
X128270000Y-104140000D03*
D11*
%TO.P,R5,2*%
%TO.N,Net-(R5-Pad2)*%
X128270000Y-114300000D03*
%TD*%
D10*
%TO.P,R2,1*%
%TO.N,GND*%
X143920000Y-99000000D03*
D11*
%TO.P,R2,2*%
%TO.N,rev*%
X154080000Y-99000000D03*
%TD*%
D10*
%TO.P,R8,1*%
%TO.N,MISO_3.3V*%
X154940000Y-62230000D03*
D11*
%TO.P,R8,2*%
%TO.N,+3V3*%
X154940000Y-72390000D03*
%TD*%
D20*
%TO.P,J2,1,Pin_1*%
%TO.N,SCK_3.3V*%
X154825000Y-51925000D03*
D21*
%TO.P,J2,2,Pin_2*%
%TO.N,MISO_3.3V*%
X156095000Y-51925000D03*
%TO.P,J2,3,Pin_3*%
%TO.N,MOSI_3.3V*%
X157365000Y-51925000D03*
%TO.P,J2,4,Pin_4*%
%TO.N,SS1_3.3V*%
X158635000Y-51925000D03*
%TO.P,J2,5,Pin_5*%
%TO.N,+3V3*%
X159905000Y-51925000D03*
%TO.P,J2,6,Pin_6*%
%TO.N,GND*%
X161175000Y-51925000D03*
%TD*%
D10*
%TO.P,R7,1*%
%TO.N,SCK_3.3V*%
X148368268Y-62230000D03*
D11*
%TO.P,R7,2*%
%TO.N,+3V3*%
X148368268Y-72390000D03*
%TD*%
D10*
%TO.P,R18,1*%
%TO.N,SCK_5V*%
X134620000Y-82550000D03*
D11*
%TO.P,R18,2*%
%TO.N,5V*%
X124460000Y-82550000D03*
%TD*%
D18*
%TO.P,Q4,1,D*%
%TO.N,Net-(M1-Pad2)*%
X178000000Y-108000000D03*
D19*
%TO.P,Q4,2,G*%
%TO.N,rev*%
X175710000Y-108000000D03*
%TO.P,Q4,3,S*%
%TO.N,GND*%
X173420000Y-108000000D03*
%TD*%
D12*
%TO.P,Q3,1,D*%
%TO.N,+6V*%
X173460000Y-99230000D03*
D13*
%TO.P,Q3,2,G*%
%TO.N,rev*%
X176000000Y-99230000D03*
%TO.P,Q3,3,S*%
%TO.N,Net-(M1-Pad2)*%
X178540000Y-99230000D03*
%TD*%
D10*
%TO.P,R9,1*%
%TO.N,MOSI_3.3V*%
X161290000Y-62230000D03*
D11*
%TO.P,R9,2*%
%TO.N,+3V3*%
X161290000Y-72390000D03*
%TD*%
D16*
%TO.P,J1,1,Pin_1*%
%TO.N,+6V*%
X189500000Y-94265000D03*
D17*
%TO.P,J1,2,Pin_2*%
%TO.N,GND*%
X189500000Y-89265000D03*
%TD*%
D10*
%TO.P,R6,1*%
%TO.N,forward_input_5V*%
X134620000Y-104140000D03*
D11*
%TO.P,R6,2*%
%TO.N,Net-(R6-Pad2)*%
X134620000Y-114300000D03*
%TD*%
D22*
%TO.P,Q10,1,G*%
%TO.N,+3V3*%
X134390000Y-58100000D03*
%TO.P,Q10,2,S*%
%TO.N,imu_scl_3.3V*%
X134390000Y-56200000D03*
%TO.P,Q10,3,D*%
%TO.N,imu_scl_5V*%
X137390000Y-57150000D03*
%TD*%
%TO.P,Q5,1,G*%
%TO.N,+3V3*%
X147360206Y-58086562D03*
%TO.P,Q5,2,S*%
%TO.N,SCK_3.3V*%
X147360206Y-56186562D03*
%TO.P,Q5,3,D*%
%TO.N,SCK_5V*%
X150360206Y-57136562D03*
%TD*%
%TO.P,Q9,1,G*%
%TO.N,+3V3*%
X140740000Y-58100000D03*
%TO.P,Q9,2,S*%
%TO.N,imu_sda_3.3V*%
X140740000Y-56200000D03*
%TO.P,Q9,3,D*%
%TO.N,imu_sda_5V*%
X143740000Y-57150000D03*
%TD*%
%TO.P,Q6,1,G*%
%TO.N,+3V3*%
X153670000Y-58100000D03*
%TO.P,Q6,2,S*%
%TO.N,MISO_3.3V*%
X153670000Y-56200000D03*
%TO.P,Q6,3,D*%
%TO.N,MISO_5V*%
X156670000Y-57150000D03*
%TD*%
%TO.P,Q7,1,G*%
%TO.N,+3V3*%
X159790000Y-58100000D03*
%TO.P,Q7,2,S*%
%TO.N,MOSI_3.3V*%
X159790000Y-56200000D03*
%TO.P,Q7,3,D*%
%TO.N,MOSI_5V*%
X162790000Y-57150000D03*
%TD*%
%TO.P,Q8,1,G*%
%TO.N,+3V3*%
X166140000Y-58100000D03*
%TO.P,Q8,2,S*%
%TO.N,SS1_3.3V*%
X166140000Y-56200000D03*
%TO.P,Q8,3,D*%
%TO.N,SS1_5V*%
X169140000Y-57150000D03*
%TD*%
D23*
%TO.N,GND*%
X176500000Y-64500000D03*
%TD*%
D24*
%TO.N,SCK_3.3V*%
X147360206Y-55839794D02*
X148590000Y-54610000D01*
X154825000Y-52421744D02*
X154825000Y-51925000D01*
X148590000Y-54610000D02*
X152636744Y-54610000D01*
X147360206Y-56186562D02*
X147360206Y-55839794D01*
X152636744Y-54610000D02*
X154825000Y-52421744D01*
D25*
%TO.N,Net-(M1-Pad1)*%
X167040000Y-99230000D02*
X167040000Y-107935000D01*
X171119000Y-112014000D02*
X189500000Y-112014000D01*
X167290000Y-108185000D02*
X171119000Y-112014000D01*
X167040000Y-107935000D02*
X167290000Y-108185000D01*
%TO.N,Net-(M1-Pad2)*%
X178986000Y-107014000D02*
X189500000Y-107014000D01*
X178540000Y-99230000D02*
X178540000Y-107460000D01*
X178540000Y-107460000D02*
X178000000Y-108000000D01*
X178986000Y-107014000D02*
X178000000Y-108000000D01*
%TO.N,+6V*%
X151960000Y-109230000D02*
X161960000Y-99230000D01*
X161960000Y-99230000D02*
X163634520Y-97555480D01*
X171785480Y-97555480D02*
X173460000Y-99230000D01*
X163634520Y-97555480D02*
X171785480Y-97555480D01*
X149677500Y-111770000D02*
X149677500Y-109230000D01*
X173460000Y-99230000D02*
X178425000Y-94265000D01*
X149677500Y-109230000D02*
X151960000Y-109230000D01*
X178425000Y-94265000D02*
X189500000Y-94265000D01*
%TO.N,forward*%
X165000000Y-108185000D02*
X165000000Y-99730000D01*
X165000000Y-99730000D02*
X164500000Y-99230000D01*
D24*
%TO.N,SS1_3.3V*%
X164550000Y-54610000D02*
X160610000Y-54610000D01*
X160610000Y-54610000D02*
X158635000Y-52635000D01*
X158635000Y-52635000D02*
X158635000Y-51925000D01*
X166140000Y-56200000D02*
X164550000Y-54610000D01*
%TO.N,Net-(R5-Pad2)*%
X133360000Y-106690000D02*
X139517500Y-106690000D01*
X133350000Y-106680000D02*
X133360000Y-106690000D01*
X128270000Y-111760000D02*
X133350000Y-106680000D01*
X128270000Y-114300000D02*
X128270000Y-111760000D01*
%TO.N,SS1_5V*%
X169140000Y-57150000D02*
X169340480Y-57350480D01*
X189985506Y-57350480D02*
X191574511Y-58939485D01*
X191574511Y-58939485D02*
X191574511Y-65184012D01*
X169340480Y-57350480D02*
X189985506Y-57350480D01*
X190718523Y-66040000D02*
X190575000Y-66040000D01*
X191574511Y-65184012D02*
X190718523Y-66040000D01*
%TO.N,Net-(R6-Pad2)*%
X134620000Y-114300000D02*
X139507500Y-114300000D01*
X139507500Y-114300000D02*
X139517500Y-114310000D01*
%TO.N,+3V3*%
X142240000Y-54610000D02*
X143510000Y-53340000D01*
X157636580Y-55767558D02*
X158237660Y-56368638D01*
X158237660Y-57099464D02*
X159238196Y-58100000D01*
X135890000Y-66040000D02*
X135890000Y-71120000D01*
X144780000Y-56056356D02*
X144780000Y-53340000D01*
X166140000Y-58100000D02*
X188985000Y-58100000D01*
X146350000Y-50500000D02*
X146050000Y-50800000D01*
X159790000Y-58100000D02*
X160513942Y-58100000D01*
X159238196Y-58100000D02*
X159790000Y-58100000D01*
X155803420Y-55767558D02*
X157636580Y-55767558D01*
X136017000Y-65913000D02*
X135890000Y-66040000D01*
X141290000Y-58100000D02*
X142240000Y-57150000D01*
X134390000Y-58100000D02*
X134390000Y-59460000D01*
X161239511Y-57374431D02*
X161239511Y-56360592D01*
X142240000Y-57150000D02*
X142240000Y-54610000D01*
X135250000Y-51440000D02*
X135250000Y-51955000D01*
X155170000Y-57150000D02*
X155170000Y-56400978D01*
X137160000Y-49530000D02*
X135250000Y-51440000D01*
X161239511Y-56360592D02*
X161720103Y-55880000D01*
X152146000Y-56573334D02*
X151579666Y-56007000D01*
X159905000Y-51925000D02*
X159905000Y-51778381D01*
X148844000Y-56303746D02*
X148844000Y-56769000D01*
X158626619Y-50500000D02*
X146350000Y-50500000D01*
X154940000Y-72390000D02*
X161290000Y-72390000D01*
X131953000Y-55252000D02*
X131953000Y-62103000D01*
X148368268Y-72390000D02*
X154940000Y-72390000D01*
X158237660Y-56368638D02*
X158237660Y-57099464D01*
X164465000Y-57023000D02*
X165542000Y-58100000D01*
X131953000Y-62103000D02*
X135890000Y-66040000D01*
X135250000Y-51955000D02*
X131953000Y-55252000D01*
X153670000Y-58100000D02*
X154220000Y-58100000D01*
X152842000Y-58100000D02*
X152146000Y-57404000D01*
X163830000Y-55880000D02*
X164465000Y-56515000D01*
X149140746Y-56007000D02*
X148844000Y-56303746D01*
X136017000Y-61087000D02*
X136017000Y-65913000D01*
X188985000Y-58100000D02*
X190575000Y-59690000D01*
X161720103Y-55880000D02*
X163830000Y-55880000D01*
X144780000Y-53340000D02*
X146000000Y-52120000D01*
X140740000Y-58100000D02*
X141290000Y-58100000D01*
X161290000Y-72390000D02*
X167640000Y-72390000D01*
X155170000Y-56400978D02*
X155803420Y-55767558D01*
X146810206Y-58086562D02*
X144780000Y-56056356D01*
X164465000Y-56515000D02*
X164465000Y-57023000D01*
X135890000Y-71120000D02*
X134620000Y-72390000D01*
X147360206Y-58086562D02*
X146810206Y-58086562D01*
X144780000Y-49530000D02*
X137160000Y-49530000D01*
X153670000Y-58100000D02*
X152842000Y-58100000D01*
X135496511Y-72390000D02*
X140970000Y-72390000D01*
X148844000Y-56769000D02*
X147526438Y-58086562D01*
X134390000Y-59460000D02*
X136017000Y-61087000D01*
X151579666Y-56007000D02*
X149140746Y-56007000D01*
X152146000Y-57404000D02*
X152146000Y-56573334D01*
X146000000Y-52120000D02*
X146000000Y-51000000D01*
X154220000Y-58100000D02*
X155170000Y-57150000D01*
X146050000Y-50800000D02*
X144780000Y-49530000D01*
X160513942Y-58100000D02*
X161239511Y-57374431D01*
X159905000Y-51778381D02*
X158626619Y-50500000D01*
X143510000Y-53340000D02*
X144780000Y-53340000D01*
X147526438Y-58086562D02*
X147360206Y-58086562D01*
X140970000Y-72390000D02*
X148368268Y-72390000D01*
X165542000Y-58100000D02*
X166140000Y-58100000D01*
%TO.N,imu_scl_3.3V*%
X132842000Y-57298978D02*
X133940978Y-56200000D01*
X134620000Y-62230000D02*
X132842000Y-60452000D01*
X134390000Y-56200000D02*
X137790000Y-52800000D01*
X133940978Y-56200000D02*
X134390000Y-56200000D01*
X132842000Y-60452000D02*
X132842000Y-57298978D01*
X137790000Y-52800000D02*
X137790000Y-51955000D01*
%TO.N,imu_sda_3.3V*%
X140740000Y-56200000D02*
X139060000Y-54520000D01*
X140290978Y-56200000D02*
X140740000Y-56200000D01*
X139060000Y-54520000D02*
X139060000Y-51955000D01*
X139192000Y-57298978D02*
X140290978Y-56200000D01*
X140970000Y-62230000D02*
X139192000Y-60452000D01*
X139192000Y-60452000D02*
X139192000Y-57298978D01*
%TO.N,SCK_5V*%
X190431477Y-64770000D02*
X190575000Y-64770000D01*
X151372213Y-60500000D02*
X186161477Y-60500000D01*
X150360206Y-59487993D02*
X151372213Y-60500000D01*
X186161477Y-60500000D02*
X190431477Y-64770000D01*
X150360206Y-57136562D02*
X150360206Y-59487993D01*
%TO.N,MISO_5V*%
X156670000Y-57150000D02*
X156670000Y-57170000D01*
X159249520Y-59749520D02*
X186680997Y-59749520D01*
X156670000Y-57170000D02*
X159249520Y-59749520D01*
X186680997Y-59749520D02*
X190431477Y-63500000D01*
X190431477Y-63500000D02*
X190575000Y-63500000D01*
%TO.N,5V*%
X123646279Y-87791737D02*
X123640039Y-87797977D01*
X140970000Y-76200000D02*
X136017000Y-81153000D01*
X123640039Y-87797977D02*
X123640039Y-83369961D01*
X136017000Y-81153000D02*
X136017000Y-87652583D01*
X129787618Y-87791737D02*
X123646279Y-87791737D01*
X140970000Y-78740000D02*
X140970000Y-76200000D01*
X156210000Y-80010000D02*
X142240000Y-80010000D01*
X142240000Y-80010000D02*
X140970000Y-78740000D01*
X123640039Y-83369961D02*
X124460000Y-82550000D01*
X135877846Y-87791737D02*
X129787618Y-87791737D01*
X157480000Y-78740000D02*
X156210000Y-80010000D01*
X136017000Y-87652583D02*
X135877846Y-87791737D01*
X157480000Y-78740000D02*
X157480000Y-77470000D01*
%TO.N,MOSI_5V*%
X190431477Y-62230000D02*
X190575000Y-62230000D01*
X187201477Y-59000000D02*
X190431477Y-62230000D01*
X162790000Y-57150000D02*
X164640000Y-59000000D01*
X164640000Y-59000000D02*
X187201477Y-59000000D01*
%TO.N,rev_input_5V*%
X184090018Y-69850000D02*
X190575000Y-69850000D01*
X153521013Y-97650489D02*
X156289529Y-97650489D01*
X156289529Y-97650489D02*
X184090018Y-69850000D01*
X128270000Y-104140000D02*
X129569511Y-102840489D01*
X129569511Y-102840489D02*
X150159511Y-102840489D01*
X152000000Y-101000000D02*
X152000000Y-99171502D01*
X150159511Y-102840489D02*
X152000000Y-101000000D01*
X152000000Y-99171502D02*
X153521013Y-97650489D01*
%TO.N,MOSI_3.3V*%
X159790000Y-56200000D02*
X157365000Y-53775000D01*
X157365000Y-53775000D02*
X157365000Y-51925000D01*
%TO.N,MISO_3.3V*%
X156095000Y-53775000D02*
X156095000Y-51925000D01*
X153670000Y-56200000D02*
X156095000Y-53775000D01*
%TO.N,imu_scl_5V*%
X145482213Y-68580000D02*
X190575000Y-68580000D01*
X137390000Y-57150000D02*
X137390000Y-60487787D01*
X137390000Y-60487787D02*
X145482213Y-68580000D01*
%TO.N,imu_sda_5V*%
X190431477Y-67310000D02*
X190575000Y-67310000D01*
X189910997Y-67830480D02*
X190431477Y-67310000D01*
X143740000Y-57150000D02*
X143740000Y-65740000D01*
X145830480Y-67830480D02*
X189910997Y-67830480D01*
X143740000Y-65740000D02*
X145830480Y-67830480D01*
%TO.N,forward_input_5V*%
X183880000Y-71120000D02*
X190575000Y-71120000D01*
X150860000Y-104140000D02*
X183880000Y-71120000D01*
X134620000Y-104140000D02*
X150860000Y-104140000D01*
%TD*%
%TA.AperFunction,Conductor*%
%TO.N,GND*%
G36*
X197433621Y-46028502D02*
G01*
X197480114Y-46082158D01*
X197491500Y-46134500D01*
X197491500Y-121365500D01*
X197471498Y-121433621D01*
X197417842Y-121480114D01*
X197365500Y-121491500D01*
X121134500Y-121491500D01*
X121066379Y-121471498D01*
X121019886Y-121417842D01*
X121008500Y-121365500D01*
X121008500Y-118054568D01*
X122937382Y-118054568D01*
X122966208Y-118303699D01*
X122967587Y-118308573D01*
X122967588Y-118308577D01*
X123006526Y-118446181D01*
X123034494Y-118545017D01*
X123036628Y-118549592D01*
X123036630Y-118549599D01*
X123138347Y-118767731D01*
X123140484Y-118772313D01*
X123143326Y-118776494D01*
X123143326Y-118776495D01*
X123278605Y-118975552D01*
X123278608Y-118975556D01*
X123281451Y-118979739D01*
X123284928Y-118983416D01*
X123284929Y-118983417D01*
X123385238Y-119089491D01*
X123453767Y-119161959D01*
X123457793Y-119165037D01*
X123457794Y-119165038D01*
X123648981Y-119311212D01*
X123648985Y-119311215D01*
X123653001Y-119314285D01*
X123874026Y-119432797D01*
X123878807Y-119434443D01*
X123878811Y-119434445D01*
X124104538Y-119512169D01*
X124111156Y-119514448D01*
X124214689Y-119532331D01*
X124354380Y-119556460D01*
X124354386Y-119556461D01*
X124358290Y-119557135D01*
X124362251Y-119557315D01*
X124362252Y-119557315D01*
X124386931Y-119558436D01*
X124386950Y-119558436D01*
X124388350Y-119558500D01*
X124563015Y-119558500D01*
X124565523Y-119558298D01*
X124565528Y-119558298D01*
X124744944Y-119543863D01*
X124744949Y-119543862D01*
X124749985Y-119543457D01*
X124754893Y-119542252D01*
X124754896Y-119542251D01*
X124988625Y-119484841D01*
X124993539Y-119483634D01*
X124998191Y-119481659D01*
X124998195Y-119481658D01*
X125219741Y-119387617D01*
X125219742Y-119387617D01*
X125224396Y-119385641D01*
X125436615Y-119252000D01*
X125624738Y-119086147D01*
X125783924Y-118892351D01*
X125910078Y-118675596D01*
X125999955Y-118441461D01*
X126051241Y-118195967D01*
X126057662Y-118054568D01*
X192437382Y-118054568D01*
X192466208Y-118303699D01*
X192467587Y-118308573D01*
X192467588Y-118308577D01*
X192506526Y-118446181D01*
X192534494Y-118545017D01*
X192536628Y-118549592D01*
X192536630Y-118549599D01*
X192638347Y-118767731D01*
X192640484Y-118772313D01*
X192643326Y-118776494D01*
X192643326Y-118776495D01*
X192778605Y-118975552D01*
X192778608Y-118975556D01*
X192781451Y-118979739D01*
X192784928Y-118983416D01*
X192784929Y-118983417D01*
X192885238Y-119089491D01*
X192953767Y-119161959D01*
X192957793Y-119165037D01*
X192957794Y-119165038D01*
X193148981Y-119311212D01*
X193148985Y-119311215D01*
X193153001Y-119314285D01*
X193374026Y-119432797D01*
X193378807Y-119434443D01*
X193378811Y-119434445D01*
X193604538Y-119512169D01*
X193611156Y-119514448D01*
X193714689Y-119532331D01*
X193854380Y-119556460D01*
X193854386Y-119556461D01*
X193858290Y-119557135D01*
X193862251Y-119557315D01*
X193862252Y-119557315D01*
X193886931Y-119558436D01*
X193886950Y-119558436D01*
X193888350Y-119558500D01*
X194063015Y-119558500D01*
X194065523Y-119558298D01*
X194065528Y-119558298D01*
X194244944Y-119543863D01*
X194244949Y-119543862D01*
X194249985Y-119543457D01*
X194254893Y-119542252D01*
X194254896Y-119542251D01*
X194488625Y-119484841D01*
X194493539Y-119483634D01*
X194498191Y-119481659D01*
X194498195Y-119481658D01*
X194719741Y-119387617D01*
X194719742Y-119387617D01*
X194724396Y-119385641D01*
X194936615Y-119252000D01*
X195124738Y-119086147D01*
X195283924Y-118892351D01*
X195410078Y-118675596D01*
X195499955Y-118441461D01*
X195551241Y-118195967D01*
X195562618Y-117945432D01*
X195533792Y-117696301D01*
X195494810Y-117558539D01*
X195466884Y-117459852D01*
X195466883Y-117459850D01*
X195465506Y-117454983D01*
X195463372Y-117450408D01*
X195463370Y-117450401D01*
X195361653Y-117232269D01*
X195361651Y-117232265D01*
X195359516Y-117227687D01*
X195356674Y-117223505D01*
X195221395Y-117024448D01*
X195221392Y-117024444D01*
X195218549Y-117020261D01*
X195117925Y-116913853D01*
X195049713Y-116841721D01*
X195046233Y-116838041D01*
X195042206Y-116834962D01*
X194851019Y-116688788D01*
X194851015Y-116688785D01*
X194846999Y-116685715D01*
X194625974Y-116567203D01*
X194621193Y-116565557D01*
X194621189Y-116565555D01*
X194393633Y-116487201D01*
X194388844Y-116485552D01*
X194285311Y-116467669D01*
X194145620Y-116443540D01*
X194145614Y-116443539D01*
X194141710Y-116442865D01*
X194137749Y-116442685D01*
X194137748Y-116442685D01*
X194113069Y-116441564D01*
X194113050Y-116441564D01*
X194111650Y-116441500D01*
X193936985Y-116441500D01*
X193934477Y-116441702D01*
X193934472Y-116441702D01*
X193755056Y-116456137D01*
X193755051Y-116456138D01*
X193750015Y-116456543D01*
X193745107Y-116457748D01*
X193745104Y-116457749D01*
X193513326Y-116514680D01*
X193506461Y-116516366D01*
X193501809Y-116518341D01*
X193501805Y-116518342D01*
X193381061Y-116569595D01*
X193275604Y-116614359D01*
X193063385Y-116748000D01*
X192875262Y-116913853D01*
X192716076Y-117107649D01*
X192589922Y-117324404D01*
X192500045Y-117558539D01*
X192448759Y-117804033D01*
X192437382Y-118054568D01*
X126057662Y-118054568D01*
X126062618Y-117945432D01*
X126033792Y-117696301D01*
X125994810Y-117558539D01*
X125966884Y-117459852D01*
X125966883Y-117459850D01*
X125965506Y-117454983D01*
X125963372Y-117450408D01*
X125963370Y-117450401D01*
X125861653Y-117232269D01*
X125861651Y-117232265D01*
X125859516Y-117227687D01*
X125856674Y-117223505D01*
X125721395Y-117024448D01*
X125721392Y-117024444D01*
X125718549Y-117020261D01*
X125617925Y-116913853D01*
X125549713Y-116841721D01*
X125546233Y-116838041D01*
X125542206Y-116834962D01*
X125351019Y-116688788D01*
X125351015Y-116688785D01*
X125346999Y-116685715D01*
X125125974Y-116567203D01*
X125121193Y-116565557D01*
X125121189Y-116565555D01*
X124893633Y-116487201D01*
X124888844Y-116485552D01*
X124785311Y-116467669D01*
X124645620Y-116443540D01*
X124645614Y-116443539D01*
X124641710Y-116442865D01*
X124637749Y-116442685D01*
X124637748Y-116442685D01*
X124613069Y-116441564D01*
X124613050Y-116441564D01*
X124611650Y-116441500D01*
X124436985Y-116441500D01*
X124434477Y-116441702D01*
X124434472Y-116441702D01*
X124255056Y-116456137D01*
X124255051Y-116456138D01*
X124250015Y-116456543D01*
X124245107Y-116457748D01*
X124245104Y-116457749D01*
X124013326Y-116514680D01*
X124006461Y-116516366D01*
X124001809Y-116518341D01*
X124001805Y-116518342D01*
X123881061Y-116569595D01*
X123775604Y-116614359D01*
X123563385Y-116748000D01*
X123375262Y-116913853D01*
X123216076Y-117107649D01*
X123089922Y-117324404D01*
X123000045Y-117558539D01*
X122948759Y-117804033D01*
X122937382Y-118054568D01*
X121008500Y-118054568D01*
X121008500Y-114300000D01*
X126956502Y-114300000D01*
X126976457Y-114528087D01*
X126977881Y-114533400D01*
X126977881Y-114533402D01*
X126979137Y-114538087D01*
X127035716Y-114749243D01*
X127038039Y-114754224D01*
X127038039Y-114754225D01*
X127130151Y-114951762D01*
X127130154Y-114951767D01*
X127132477Y-114956749D01*
X127263802Y-115144300D01*
X127425700Y-115306198D01*
X127430208Y-115309355D01*
X127430211Y-115309357D01*
X127439981Y-115316198D01*
X127613251Y-115437523D01*
X127618233Y-115439846D01*
X127618238Y-115439849D01*
X127815775Y-115531961D01*
X127820757Y-115534284D01*
X127826065Y-115535706D01*
X127826067Y-115535707D01*
X128036598Y-115592119D01*
X128036600Y-115592119D01*
X128041913Y-115593543D01*
X128270000Y-115613498D01*
X128498087Y-115593543D01*
X128503400Y-115592119D01*
X128503402Y-115592119D01*
X128713933Y-115535707D01*
X128713935Y-115535706D01*
X128719243Y-115534284D01*
X128724225Y-115531961D01*
X128921762Y-115439849D01*
X128921767Y-115439846D01*
X128926749Y-115437523D01*
X129100019Y-115316198D01*
X129109789Y-115309357D01*
X129109792Y-115309355D01*
X129114300Y-115306198D01*
X129276198Y-115144300D01*
X129407523Y-114956749D01*
X129409846Y-114951767D01*
X129409849Y-114951762D01*
X129501961Y-114754225D01*
X129501961Y-114754224D01*
X129504284Y-114749243D01*
X129560864Y-114538087D01*
X129562119Y-114533402D01*
X129562119Y-114533400D01*
X129563543Y-114528087D01*
X129583498Y-114300000D01*
X133306502Y-114300000D01*
X133326457Y-114528087D01*
X133327881Y-114533400D01*
X133327881Y-114533402D01*
X133329137Y-114538087D01*
X133385716Y-114749243D01*
X133388039Y-114754224D01*
X133388039Y-114754225D01*
X133480151Y-114951762D01*
X133480154Y-114951767D01*
X133482477Y-114956749D01*
X133613802Y-115144300D01*
X133775700Y-115306198D01*
X133780208Y-115309355D01*
X133780211Y-115309357D01*
X133789981Y-115316198D01*
X133963251Y-115437523D01*
X133968233Y-115439846D01*
X133968238Y-115439849D01*
X134165775Y-115531961D01*
X134170757Y-115534284D01*
X134176065Y-115535706D01*
X134176067Y-115535707D01*
X134386598Y-115592119D01*
X134386600Y-115592119D01*
X134391913Y-115593543D01*
X134620000Y-115613498D01*
X134848087Y-115593543D01*
X134853400Y-115592119D01*
X134853402Y-115592119D01*
X135063933Y-115535707D01*
X135063935Y-115535706D01*
X135069243Y-115534284D01*
X135074225Y-115531961D01*
X135271762Y-115439849D01*
X135271767Y-115439846D01*
X135276749Y-115437523D01*
X135450019Y-115316198D01*
X135459789Y-115309357D01*
X135459792Y-115309355D01*
X135464300Y-115306198D01*
X135626198Y-115144300D01*
X135648655Y-115112229D01*
X135704110Y-115067901D01*
X135751867Y-115058500D01*
X137978631Y-115058500D01*
X138046752Y-115078502D01*
X138081843Y-115112228D01*
X138111302Y-115154300D01*
X138273200Y-115316198D01*
X138277708Y-115319355D01*
X138277711Y-115319357D01*
X138355889Y-115374098D01*
X138460751Y-115447523D01*
X138465733Y-115449846D01*
X138465738Y-115449849D01*
X138649863Y-115535707D01*
X138668257Y-115544284D01*
X138673565Y-115545706D01*
X138673567Y-115545707D01*
X138884098Y-115602119D01*
X138884100Y-115602119D01*
X138889413Y-115603543D01*
X138988980Y-115612254D01*
X139057649Y-115618262D01*
X139057656Y-115618262D01*
X139060373Y-115618500D01*
X139974627Y-115618500D01*
X139977344Y-115618262D01*
X139977351Y-115618262D01*
X140046020Y-115612254D01*
X140145587Y-115603543D01*
X140150900Y-115602119D01*
X140150902Y-115602119D01*
X140361433Y-115545707D01*
X140361435Y-115545706D01*
X140366743Y-115544284D01*
X140385137Y-115535707D01*
X140569262Y-115449849D01*
X140569267Y-115449846D01*
X140574249Y-115447523D01*
X140679111Y-115374098D01*
X140757289Y-115319357D01*
X140757292Y-115319355D01*
X140761800Y-115316198D01*
X140923698Y-115154300D01*
X140927972Y-115148197D01*
X141051866Y-114971257D01*
X141055023Y-114966749D01*
X141057346Y-114961767D01*
X141057349Y-114961762D01*
X141149461Y-114764225D01*
X141149461Y-114764224D01*
X141151784Y-114759243D01*
X141155887Y-114743933D01*
X141209619Y-114543402D01*
X141209619Y-114543400D01*
X141211043Y-114538087D01*
X141230998Y-114310000D01*
X147964002Y-114310000D01*
X147983957Y-114538087D01*
X147985381Y-114543400D01*
X147985381Y-114543402D01*
X148039114Y-114743933D01*
X148043216Y-114759243D01*
X148045539Y-114764224D01*
X148045539Y-114764225D01*
X148137651Y-114961762D01*
X148137654Y-114961767D01*
X148139977Y-114966749D01*
X148143134Y-114971257D01*
X148267029Y-115148197D01*
X148271302Y-115154300D01*
X148433200Y-115316198D01*
X148437708Y-115319355D01*
X148437711Y-115319357D01*
X148515889Y-115374098D01*
X148620751Y-115447523D01*
X148625733Y-115449846D01*
X148625738Y-115449849D01*
X148809863Y-115535707D01*
X148828257Y-115544284D01*
X148833565Y-115545706D01*
X148833567Y-115545707D01*
X149044098Y-115602119D01*
X149044100Y-115602119D01*
X149049413Y-115603543D01*
X149148980Y-115612254D01*
X149217649Y-115618262D01*
X149217656Y-115618262D01*
X149220373Y-115618500D01*
X150134627Y-115618500D01*
X150137344Y-115618262D01*
X150137351Y-115618262D01*
X150206020Y-115612254D01*
X150305587Y-115603543D01*
X150310900Y-115602119D01*
X150310902Y-115602119D01*
X150521433Y-115545707D01*
X150521435Y-115545706D01*
X150526743Y-115544284D01*
X150545137Y-115535707D01*
X150729262Y-115449849D01*
X150729267Y-115449846D01*
X150734249Y-115447523D01*
X150839111Y-115374098D01*
X150917289Y-115319357D01*
X150917292Y-115319355D01*
X150921800Y-115316198D01*
X151083698Y-115154300D01*
X151087972Y-115148197D01*
X151211866Y-114971257D01*
X151215023Y-114966749D01*
X151217346Y-114961767D01*
X151217349Y-114961762D01*
X151309461Y-114764225D01*
X151309461Y-114764224D01*
X151311784Y-114759243D01*
X151315887Y-114743933D01*
X151369619Y-114543402D01*
X151369619Y-114543400D01*
X151371043Y-114538087D01*
X151390998Y-114310000D01*
X151371043Y-114081913D01*
X151369619Y-114076598D01*
X151313207Y-113866067D01*
X151313206Y-113866065D01*
X151311784Y-113860757D01*
X151304798Y-113845775D01*
X151217349Y-113658238D01*
X151217346Y-113658233D01*
X151215023Y-113653251D01*
X151116468Y-113512500D01*
X151086857Y-113470211D01*
X151086855Y-113470208D01*
X151083698Y-113465700D01*
X150921800Y-113303802D01*
X150917292Y-113300645D01*
X150917289Y-113300643D01*
X150825332Y-113236254D01*
X150734249Y-113172477D01*
X150729267Y-113170154D01*
X150729262Y-113170151D01*
X150695043Y-113154195D01*
X150641758Y-113107278D01*
X150622297Y-113039001D01*
X150642839Y-112971041D01*
X150695043Y-112925805D01*
X150729262Y-112909849D01*
X150729267Y-112909846D01*
X150734249Y-112907523D01*
X150856017Y-112822260D01*
X150917289Y-112779357D01*
X150917292Y-112779355D01*
X150921800Y-112776198D01*
X151083698Y-112614300D01*
X151087806Y-112608434D01*
X151211866Y-112431257D01*
X151215023Y-112426749D01*
X151217346Y-112421767D01*
X151217349Y-112421762D01*
X151309461Y-112224225D01*
X151309461Y-112224224D01*
X151311784Y-112219243D01*
X151371043Y-111998087D01*
X151390998Y-111770000D01*
X151371043Y-111541913D01*
X151369619Y-111536598D01*
X151313207Y-111326067D01*
X151313206Y-111326065D01*
X151311784Y-111320757D01*
X151291497Y-111277251D01*
X151217349Y-111118238D01*
X151217346Y-111118233D01*
X151215023Y-111113251D01*
X151083698Y-110925700D01*
X150921800Y-110763802D01*
X150917292Y-110760645D01*
X150917289Y-110760643D01*
X150766926Y-110655358D01*
X150734249Y-110632477D01*
X150729267Y-110630154D01*
X150729262Y-110630151D01*
X150695043Y-110614195D01*
X150641758Y-110567278D01*
X150622297Y-110499001D01*
X150642839Y-110431041D01*
X150695043Y-110385805D01*
X150729262Y-110369849D01*
X150729267Y-110369846D01*
X150734249Y-110367523D01*
X150839111Y-110294098D01*
X150917289Y-110239357D01*
X150917292Y-110239355D01*
X150921800Y-110236198D01*
X151007593Y-110150405D01*
X151069905Y-110116379D01*
X151096688Y-110113500D01*
X151880543Y-110113500D01*
X151900255Y-110115051D01*
X151913507Y-110117150D01*
X151920094Y-110116805D01*
X151920098Y-110116805D01*
X151979850Y-110113673D01*
X151986445Y-110113500D01*
X152006306Y-110113500D01*
X152026069Y-110111423D01*
X152032628Y-110110907D01*
X152048427Y-110110079D01*
X152092377Y-110107776D01*
X152092381Y-110107775D01*
X152098971Y-110107430D01*
X152111929Y-110103958D01*
X152131372Y-110100355D01*
X152131795Y-110100311D01*
X152144702Y-110098954D01*
X152207894Y-110078422D01*
X152214196Y-110076556D01*
X152271985Y-110061071D01*
X152278363Y-110059362D01*
X152284242Y-110056366D01*
X152284251Y-110056363D01*
X152290317Y-110053272D01*
X152308579Y-110045708D01*
X152315043Y-110043608D01*
X152315051Y-110043605D01*
X152321331Y-110041564D01*
X152327050Y-110038262D01*
X152327055Y-110038260D01*
X152378867Y-110008346D01*
X152384637Y-110005213D01*
X152443839Y-109975047D01*
X152454259Y-109966609D01*
X152470552Y-109955411D01*
X152470903Y-109955209D01*
X152482169Y-109948704D01*
X152487075Y-109944287D01*
X152487080Y-109944283D01*
X152531538Y-109904253D01*
X152536554Y-109899969D01*
X152549409Y-109889559D01*
X152549412Y-109889556D01*
X152551986Y-109887472D01*
X152566031Y-109873427D01*
X152570816Y-109868886D01*
X152615274Y-109828856D01*
X152615275Y-109828855D01*
X152620185Y-109824434D01*
X152628075Y-109813574D01*
X152640912Y-109798546D01*
X153985053Y-108454405D01*
X161357870Y-108454405D01*
X161359258Y-108462530D01*
X161414848Y-108676708D01*
X161418381Y-108686738D01*
X161509264Y-108888491D01*
X161514433Y-108897777D01*
X161638010Y-109081333D01*
X161644669Y-109089616D01*
X161797402Y-109249722D01*
X161805372Y-109256774D01*
X161982901Y-109388858D01*
X161991931Y-109394457D01*
X162189178Y-109494743D01*
X162199039Y-109498746D01*
X162410353Y-109564362D01*
X162420733Y-109566644D01*
X162438043Y-109568939D01*
X162452207Y-109566743D01*
X162456000Y-109553556D01*
X162456000Y-108457115D01*
X162451525Y-108441876D01*
X162450135Y-108440671D01*
X162442452Y-108439000D01*
X161374475Y-108439000D01*
X161359795Y-108443310D01*
X161357870Y-108454405D01*
X153985053Y-108454405D01*
X154526284Y-107913174D01*
X161362747Y-107913174D01*
X161364165Y-107926413D01*
X161378804Y-107931000D01*
X162437885Y-107931000D01*
X162453124Y-107926525D01*
X162454329Y-107925135D01*
X162456000Y-107917452D01*
X162456000Y-106818617D01*
X162452027Y-106805086D01*
X162441420Y-106803561D01*
X162321057Y-106828816D01*
X162310859Y-106831876D01*
X162105066Y-106913147D01*
X162095534Y-106917878D01*
X161906364Y-107032670D01*
X161897774Y-107038934D01*
X161730652Y-107183954D01*
X161723232Y-107191584D01*
X161582938Y-107362687D01*
X161576912Y-107371454D01*
X161467452Y-107563748D01*
X161462987Y-107573412D01*
X161387490Y-107781403D01*
X161384719Y-107791670D01*
X161362747Y-107913174D01*
X154526284Y-107913174D01*
X157067497Y-105371961D01*
X161664052Y-100775405D01*
X161726364Y-100741379D01*
X161753147Y-100738500D01*
X162960634Y-100738500D01*
X163022816Y-100731745D01*
X163159205Y-100680615D01*
X163275761Y-100593261D01*
X163363115Y-100476705D01*
X163370573Y-100456811D01*
X163413213Y-100400047D01*
X163479774Y-100375346D01*
X163549123Y-100390553D01*
X163566647Y-100402158D01*
X163684670Y-100495367D01*
X163684675Y-100495370D01*
X163688724Y-100498568D01*
X163693240Y-100501061D01*
X163693243Y-100501063D01*
X163894526Y-100612177D01*
X163894530Y-100612179D01*
X163899050Y-100614674D01*
X163903919Y-100616398D01*
X163903923Y-100616400D01*
X164032560Y-100661953D01*
X164090097Y-100703548D01*
X164116012Y-100769645D01*
X164116500Y-100780726D01*
X164116500Y-107042633D01*
X164096498Y-107110754D01*
X164073081Y-107137798D01*
X164021521Y-107182540D01*
X164016260Y-107187105D01*
X163954063Y-107262960D01*
X163895406Y-107302952D01*
X163824436Y-107304884D01*
X163765461Y-107270038D01*
X163622598Y-107120278D01*
X163614628Y-107113226D01*
X163437099Y-106981142D01*
X163428069Y-106975543D01*
X163230822Y-106875257D01*
X163220961Y-106871254D01*
X163009647Y-106805638D01*
X162999267Y-106803356D01*
X162981957Y-106801061D01*
X162967793Y-106803257D01*
X162964000Y-106816444D01*
X162964000Y-109551383D01*
X162967973Y-109564914D01*
X162978580Y-109566439D01*
X163098943Y-109541184D01*
X163109141Y-109538124D01*
X163314934Y-109456853D01*
X163324466Y-109452122D01*
X163513636Y-109337330D01*
X163522226Y-109331066D01*
X163689348Y-109186046D01*
X163696766Y-109178417D01*
X163755268Y-109107068D01*
X163813928Y-109067073D01*
X163884898Y-109065141D01*
X163943873Y-109099987D01*
X164067899Y-109230000D01*
X164090757Y-109253962D01*
X164095045Y-109257152D01*
X164095048Y-109257155D01*
X164272635Y-109389283D01*
X164272638Y-109389285D01*
X164276915Y-109392467D01*
X164281665Y-109394882D01*
X164478078Y-109494743D01*
X164483748Y-109497626D01*
X164594545Y-109532030D01*
X164700239Y-109564849D01*
X164700245Y-109564850D01*
X164705342Y-109566433D01*
X164829111Y-109582838D01*
X164930077Y-109596220D01*
X164930081Y-109596220D01*
X164935361Y-109596920D01*
X164940690Y-109596720D01*
X164940692Y-109596720D01*
X165051295Y-109592567D01*
X165167228Y-109588215D01*
X165394314Y-109540567D01*
X165399270Y-109538610D01*
X165399276Y-109538608D01*
X165589708Y-109463402D01*
X165610125Y-109455339D01*
X165781278Y-109351481D01*
X165803928Y-109337737D01*
X165803929Y-109337736D01*
X165808491Y-109334968D01*
X165812521Y-109331471D01*
X165816834Y-109328326D01*
X165817580Y-109329349D01*
X165876616Y-109302340D01*
X165946897Y-109312398D01*
X165995456Y-109351481D01*
X166031048Y-109398971D01*
X166067989Y-109448261D01*
X166184545Y-109535615D01*
X166320934Y-109586745D01*
X166383116Y-109593500D01*
X167396852Y-109593500D01*
X167464973Y-109613502D01*
X167485947Y-109630405D01*
X170438085Y-112582542D01*
X170450926Y-112597577D01*
X170454927Y-112603084D01*
X170454932Y-112603090D01*
X170458815Y-112608434D01*
X170463725Y-112612855D01*
X170463726Y-112612856D01*
X170508194Y-112652895D01*
X170512979Y-112657436D01*
X170527015Y-112671472D01*
X170529575Y-112673545D01*
X170529576Y-112673546D01*
X170542443Y-112683966D01*
X170547453Y-112688246D01*
X170591921Y-112728284D01*
X170591926Y-112728288D01*
X170596831Y-112732704D01*
X170602543Y-112736002D01*
X170602546Y-112736004D01*
X170608446Y-112739410D01*
X170624742Y-112750610D01*
X170635161Y-112759047D01*
X170694363Y-112789213D01*
X170700133Y-112792346D01*
X170751945Y-112822260D01*
X170751950Y-112822262D01*
X170757669Y-112825564D01*
X170763949Y-112827605D01*
X170763957Y-112827608D01*
X170770421Y-112829708D01*
X170788683Y-112837272D01*
X170794749Y-112840363D01*
X170794758Y-112840366D01*
X170800637Y-112843362D01*
X170807015Y-112845071D01*
X170864804Y-112860556D01*
X170871106Y-112862422D01*
X170934298Y-112882954D01*
X170947205Y-112884311D01*
X170947628Y-112884355D01*
X170967071Y-112887958D01*
X170980029Y-112891430D01*
X170986619Y-112891775D01*
X170986623Y-112891776D01*
X171030573Y-112894079D01*
X171046372Y-112894907D01*
X171052931Y-112895423D01*
X171072694Y-112897500D01*
X171092555Y-112897500D01*
X171099150Y-112897673D01*
X171158902Y-112900805D01*
X171158906Y-112900805D01*
X171165493Y-112901150D01*
X171178747Y-112899051D01*
X171198456Y-112897500D01*
X186885500Y-112897500D01*
X186953621Y-112917502D01*
X187000114Y-112971158D01*
X187011500Y-113023500D01*
X187011500Y-113052134D01*
X187018255Y-113114316D01*
X187069385Y-113250705D01*
X187156739Y-113367261D01*
X187273295Y-113454615D01*
X187409684Y-113505745D01*
X187471866Y-113512500D01*
X191528134Y-113512500D01*
X191590316Y-113505745D01*
X191726705Y-113454615D01*
X191843261Y-113367261D01*
X191930615Y-113250705D01*
X191981745Y-113114316D01*
X191988500Y-113052134D01*
X191988500Y-110975866D01*
X191981745Y-110913684D01*
X191930615Y-110777295D01*
X191843261Y-110660739D01*
X191726705Y-110573385D01*
X191590316Y-110522255D01*
X191528134Y-110515500D01*
X187471866Y-110515500D01*
X187409684Y-110522255D01*
X187273295Y-110573385D01*
X187156739Y-110660739D01*
X187069385Y-110777295D01*
X187018255Y-110913684D01*
X187011500Y-110975866D01*
X187011500Y-111004500D01*
X186991498Y-111072621D01*
X186937842Y-111119114D01*
X186885500Y-111130500D01*
X171537147Y-111130500D01*
X171469026Y-111110498D01*
X171448052Y-111093595D01*
X168694155Y-108339697D01*
X168660129Y-108277385D01*
X168659271Y-108269405D01*
X172067870Y-108269405D01*
X172069258Y-108277530D01*
X172124848Y-108491708D01*
X172128381Y-108501738D01*
X172219264Y-108703491D01*
X172224433Y-108712777D01*
X172348010Y-108896333D01*
X172354669Y-108904616D01*
X172507402Y-109064722D01*
X172515372Y-109071774D01*
X172692901Y-109203858D01*
X172701931Y-109209457D01*
X172899178Y-109309743D01*
X172909039Y-109313746D01*
X173120353Y-109379362D01*
X173130733Y-109381644D01*
X173148043Y-109383939D01*
X173162207Y-109381743D01*
X173166000Y-109368556D01*
X173166000Y-108272115D01*
X173161525Y-108256876D01*
X173160135Y-108255671D01*
X173152452Y-108254000D01*
X172084475Y-108254000D01*
X172069795Y-108258310D01*
X172067870Y-108269405D01*
X168659271Y-108269405D01*
X168657250Y-108250602D01*
X168657250Y-107728174D01*
X172072747Y-107728174D01*
X172074165Y-107741413D01*
X172088804Y-107746000D01*
X173147885Y-107746000D01*
X173163124Y-107741525D01*
X173164329Y-107740135D01*
X173166000Y-107732452D01*
X173166000Y-106633617D01*
X173162027Y-106620086D01*
X173151420Y-106618561D01*
X173031057Y-106643816D01*
X173020859Y-106646876D01*
X172815066Y-106728147D01*
X172805534Y-106732878D01*
X172616364Y-106847670D01*
X172607774Y-106853934D01*
X172440652Y-106998954D01*
X172433232Y-107006584D01*
X172292938Y-107177687D01*
X172286912Y-107186454D01*
X172177452Y-107378748D01*
X172172987Y-107388412D01*
X172097490Y-107596403D01*
X172094719Y-107606670D01*
X172072747Y-107728174D01*
X168657250Y-107728174D01*
X168657250Y-107236866D01*
X168650495Y-107174684D01*
X168599365Y-107038295D01*
X168512011Y-106921739D01*
X168395455Y-106834385D01*
X168259066Y-106783255D01*
X168196884Y-106776500D01*
X168049500Y-106776500D01*
X167981379Y-106756498D01*
X167934886Y-106702842D01*
X167923500Y-106650500D01*
X167923500Y-100504174D01*
X167943502Y-100436053D01*
X167973847Y-100403414D01*
X168009185Y-100376882D01*
X168009188Y-100376880D01*
X168013320Y-100373777D01*
X168179301Y-100200088D01*
X168309410Y-100009357D01*
X168311774Y-100005891D01*
X168311775Y-100005890D01*
X168314686Y-100001622D01*
X168385904Y-99848197D01*
X168413658Y-99788405D01*
X168413659Y-99788401D01*
X168415837Y-99783710D01*
X168480040Y-99552202D01*
X168487922Y-99478448D01*
X168500644Y-99359407D01*
X168500644Y-99359399D01*
X168501000Y-99356072D01*
X168501000Y-99121598D01*
X168500124Y-99110934D01*
X168488317Y-98967334D01*
X168486322Y-98943063D01*
X168427794Y-98710056D01*
X168386559Y-98615221D01*
X168377739Y-98544776D01*
X168408406Y-98480744D01*
X168468822Y-98443456D01*
X168502109Y-98438980D01*
X171367331Y-98438980D01*
X171435452Y-98458982D01*
X171456426Y-98475884D01*
X171962095Y-98981552D01*
X171996120Y-99043865D01*
X171999000Y-99070648D01*
X171999000Y-100278134D01*
X172005755Y-100340316D01*
X172056885Y-100476705D01*
X172144239Y-100593261D01*
X172260795Y-100680615D01*
X172397184Y-100731745D01*
X172459366Y-100738500D01*
X174460634Y-100738500D01*
X174522816Y-100731745D01*
X174659205Y-100680615D01*
X174775761Y-100593261D01*
X174863115Y-100476705D01*
X174870573Y-100456811D01*
X174913213Y-100400047D01*
X174979774Y-100375346D01*
X175049123Y-100390553D01*
X175066647Y-100402158D01*
X175184670Y-100495367D01*
X175184675Y-100495370D01*
X175188724Y-100498568D01*
X175193240Y-100501061D01*
X175193243Y-100501063D01*
X175394526Y-100612177D01*
X175394530Y-100612179D01*
X175399050Y-100614674D01*
X175403919Y-100616398D01*
X175403923Y-100616400D01*
X175620640Y-100693144D01*
X175620644Y-100693145D01*
X175625515Y-100694870D01*
X175630608Y-100695777D01*
X175630611Y-100695778D01*
X175856948Y-100736095D01*
X175856954Y-100736096D01*
X175862037Y-100737001D01*
X175949400Y-100738068D01*
X176097093Y-100739873D01*
X176097095Y-100739873D01*
X176102263Y-100739936D01*
X176339744Y-100703596D01*
X176467152Y-100661953D01*
X176563183Y-100630566D01*
X176563189Y-100630563D01*
X176568101Y-100628958D01*
X176572687Y-100626571D01*
X176572691Y-100626569D01*
X176776607Y-100520416D01*
X176781200Y-100518025D01*
X176933473Y-100403695D01*
X176969185Y-100376882D01*
X176969188Y-100376880D01*
X176973320Y-100373777D01*
X177139301Y-100200088D01*
X177164535Y-100163097D01*
X177219444Y-100118096D01*
X177289968Y-100109925D01*
X177353716Y-100141179D01*
X177374411Y-100165660D01*
X177378498Y-100171977D01*
X177540186Y-100349670D01*
X177544237Y-100352869D01*
X177544241Y-100352873D01*
X177608592Y-100403694D01*
X177649655Y-100461611D01*
X177656500Y-100502576D01*
X177656500Y-106465500D01*
X177636498Y-106533621D01*
X177582842Y-106580114D01*
X177530500Y-106591500D01*
X177093116Y-106591500D01*
X177030934Y-106598255D01*
X176894545Y-106649385D01*
X176777989Y-106736739D01*
X176728137Y-106803257D01*
X176702972Y-106836834D01*
X176646113Y-106879349D01*
X176575294Y-106884375D01*
X176526936Y-106862360D01*
X176433085Y-106792533D01*
X176305572Y-106727702D01*
X176231010Y-106689793D01*
X176231009Y-106689793D01*
X176226252Y-106687374D01*
X176085973Y-106643816D01*
X176009761Y-106620151D01*
X176009755Y-106620150D01*
X176004658Y-106618567D01*
X175851408Y-106598255D01*
X175779923Y-106588780D01*
X175779919Y-106588780D01*
X175774639Y-106588080D01*
X175769310Y-106588280D01*
X175769308Y-106588280D01*
X175658705Y-106592433D01*
X175542772Y-106596785D01*
X175315686Y-106644433D01*
X175310730Y-106646390D01*
X175310724Y-106646392D01*
X175206952Y-106687374D01*
X175099875Y-106729661D01*
X175006983Y-106786029D01*
X174927295Y-106834385D01*
X174901509Y-106850032D01*
X174897479Y-106853529D01*
X174750418Y-106981142D01*
X174726260Y-107002105D01*
X174664063Y-107077960D01*
X174605406Y-107117952D01*
X174534436Y-107119884D01*
X174475461Y-107085038D01*
X174332598Y-106935278D01*
X174324628Y-106928226D01*
X174147099Y-106796142D01*
X174138069Y-106790543D01*
X173940822Y-106690257D01*
X173930961Y-106686254D01*
X173719647Y-106620638D01*
X173709267Y-106618356D01*
X173691957Y-106616061D01*
X173677793Y-106618257D01*
X173674000Y-106631444D01*
X173674000Y-109366383D01*
X173677973Y-109379914D01*
X173688580Y-109381439D01*
X173808943Y-109356184D01*
X173819141Y-109353124D01*
X174024934Y-109271853D01*
X174034466Y-109267122D01*
X174223636Y-109152330D01*
X174232226Y-109146066D01*
X174399348Y-109001046D01*
X174406766Y-108993417D01*
X174465268Y-108922068D01*
X174523928Y-108882073D01*
X174594898Y-108880141D01*
X174653873Y-108914987D01*
X174685494Y-108948134D01*
X174800757Y-109068962D01*
X174805045Y-109072152D01*
X174805048Y-109072155D01*
X174982635Y-109204283D01*
X174982638Y-109204285D01*
X174986915Y-109207467D01*
X174991665Y-109209882D01*
X175188078Y-109309743D01*
X175193748Y-109312626D01*
X175304545Y-109347030D01*
X175410239Y-109379849D01*
X175410245Y-109379850D01*
X175415342Y-109381433D01*
X175539111Y-109397838D01*
X175640077Y-109411220D01*
X175640081Y-109411220D01*
X175645361Y-109411920D01*
X175650690Y-109411720D01*
X175650692Y-109411720D01*
X175761295Y-109407567D01*
X175877228Y-109403215D01*
X176104314Y-109355567D01*
X176109270Y-109353610D01*
X176109276Y-109353608D01*
X176315164Y-109272298D01*
X176320125Y-109270339D01*
X176518491Y-109149968D01*
X176522521Y-109146471D01*
X176526834Y-109143326D01*
X176527580Y-109144349D01*
X176586616Y-109117340D01*
X176656897Y-109127398D01*
X176705456Y-109166481D01*
X176767842Y-109249722D01*
X176777989Y-109263261D01*
X176894545Y-109350615D01*
X177030934Y-109401745D01*
X177093116Y-109408500D01*
X178906884Y-109408500D01*
X178969066Y-109401745D01*
X179105455Y-109350615D01*
X179222011Y-109263261D01*
X179309365Y-109146705D01*
X179360495Y-109010316D01*
X179367250Y-108948134D01*
X179367250Y-108023500D01*
X179387252Y-107955379D01*
X179440908Y-107908886D01*
X179493250Y-107897500D01*
X187236429Y-107897500D01*
X187304550Y-107917502D01*
X187337189Y-107947847D01*
X187370149Y-107991745D01*
X187385584Y-108012303D01*
X187563731Y-108182545D01*
X187568003Y-108185459D01*
X187568004Y-108185460D01*
X187763011Y-108318485D01*
X187763016Y-108318488D01*
X187767291Y-108321404D01*
X187771980Y-108323580D01*
X187771986Y-108323584D01*
X187986106Y-108422975D01*
X187986111Y-108422977D01*
X187990797Y-108425152D01*
X187995775Y-108426532D01*
X187995779Y-108426534D01*
X188223274Y-108489623D01*
X188228247Y-108491002D01*
X188328705Y-108501738D01*
X188426071Y-108512144D01*
X188426079Y-108512144D01*
X188429406Y-108512500D01*
X190552469Y-108512500D01*
X190555042Y-108512288D01*
X190555053Y-108512288D01*
X190730432Y-108497869D01*
X190730438Y-108497868D01*
X190735583Y-108497445D01*
X190855076Y-108467431D01*
X190969559Y-108438675D01*
X190969563Y-108438674D01*
X190974570Y-108437416D01*
X190979303Y-108435358D01*
X190979306Y-108435357D01*
X191195807Y-108341220D01*
X191195810Y-108341218D01*
X191200544Y-108339160D01*
X191204878Y-108336356D01*
X191204882Y-108336354D01*
X191403092Y-108208126D01*
X191403098Y-108208121D01*
X191407436Y-108205315D01*
X191429257Y-108185460D01*
X191527974Y-108095634D01*
X191589690Y-108039477D01*
X191592889Y-108035426D01*
X191592893Y-108035422D01*
X191739205Y-107850157D01*
X191742410Y-107846099D01*
X191823417Y-107699357D01*
X191858996Y-107634906D01*
X191858997Y-107634903D01*
X191861497Y-107630375D01*
X191943750Y-107398097D01*
X191966561Y-107270038D01*
X191986057Y-107160593D01*
X191986057Y-107160589D01*
X191986963Y-107155505D01*
X191988837Y-107002105D01*
X191989910Y-106914282D01*
X191989910Y-106914280D01*
X191989973Y-106909112D01*
X191952701Y-106665536D01*
X191876147Y-106431318D01*
X191762367Y-106212748D01*
X191750631Y-106197116D01*
X191617521Y-106019832D01*
X191617519Y-106019830D01*
X191614416Y-106015697D01*
X191436269Y-105845455D01*
X191431008Y-105841866D01*
X191236989Y-105709515D01*
X191236984Y-105709512D01*
X191232709Y-105706596D01*
X191228020Y-105704420D01*
X191228014Y-105704416D01*
X191013894Y-105605025D01*
X191013889Y-105605023D01*
X191009203Y-105602848D01*
X191004225Y-105601468D01*
X191004221Y-105601466D01*
X190776726Y-105538377D01*
X190776725Y-105538377D01*
X190771753Y-105536998D01*
X190665136Y-105525604D01*
X190573929Y-105515856D01*
X190573921Y-105515856D01*
X190570594Y-105515500D01*
X188447531Y-105515500D01*
X188444958Y-105515712D01*
X188444947Y-105515712D01*
X188269568Y-105530131D01*
X188269562Y-105530132D01*
X188264417Y-105530555D01*
X188164573Y-105555634D01*
X188030441Y-105589325D01*
X188030437Y-105589326D01*
X188025430Y-105590584D01*
X188020697Y-105592642D01*
X188020694Y-105592643D01*
X187804193Y-105686780D01*
X187804190Y-105686782D01*
X187799456Y-105688840D01*
X187795122Y-105691644D01*
X187795118Y-105691646D01*
X187596908Y-105819874D01*
X187596902Y-105819879D01*
X187592564Y-105822685D01*
X187588739Y-105826165D01*
X187588737Y-105826167D01*
X187562313Y-105850211D01*
X187410310Y-105988523D01*
X187407111Y-105992574D01*
X187407107Y-105992578D01*
X187336019Y-106082592D01*
X187278102Y-106123655D01*
X187237137Y-106130500D01*
X179549500Y-106130500D01*
X179481379Y-106110498D01*
X179434886Y-106056842D01*
X179423500Y-106004500D01*
X179423500Y-100504174D01*
X179443502Y-100436053D01*
X179473847Y-100403414D01*
X179509185Y-100376882D01*
X179509188Y-100376880D01*
X179513320Y-100373777D01*
X179679301Y-100200088D01*
X179809410Y-100009357D01*
X179811774Y-100005891D01*
X179811775Y-100005890D01*
X179814686Y-100001622D01*
X179885904Y-99848197D01*
X179913658Y-99788405D01*
X179913659Y-99788401D01*
X179915837Y-99783710D01*
X179980040Y-99552202D01*
X179987922Y-99478448D01*
X180000644Y-99359407D01*
X180000644Y-99359399D01*
X180001000Y-99356072D01*
X180001000Y-99121598D01*
X180000124Y-99110934D01*
X179988317Y-98967334D01*
X179986322Y-98943063D01*
X179927794Y-98710056D01*
X179831997Y-98489737D01*
X179721426Y-98318821D01*
X179704310Y-98292363D01*
X179704308Y-98292360D01*
X179701502Y-98288023D01*
X179539814Y-98110330D01*
X179389606Y-97991703D01*
X179355330Y-97964633D01*
X179355325Y-97964630D01*
X179351276Y-97961432D01*
X179346760Y-97958939D01*
X179346757Y-97958937D01*
X179145474Y-97847823D01*
X179145470Y-97847821D01*
X179140950Y-97845326D01*
X179136081Y-97843602D01*
X179136077Y-97843600D01*
X178919360Y-97766856D01*
X178919356Y-97766855D01*
X178914485Y-97765130D01*
X178909392Y-97764223D01*
X178909389Y-97764222D01*
X178683052Y-97723905D01*
X178683046Y-97723904D01*
X178677963Y-97722999D01*
X178585474Y-97721869D01*
X178442907Y-97720127D01*
X178442905Y-97720127D01*
X178437737Y-97720064D01*
X178200256Y-97756404D01*
X178088003Y-97793094D01*
X177976817Y-97829434D01*
X177976811Y-97829437D01*
X177971899Y-97831042D01*
X177967313Y-97833429D01*
X177967309Y-97833431D01*
X177834613Y-97902509D01*
X177758800Y-97941975D01*
X177566680Y-98086223D01*
X177400699Y-98259912D01*
X177375465Y-98296903D01*
X177320556Y-98341904D01*
X177250032Y-98350075D01*
X177186284Y-98318821D01*
X177165589Y-98294340D01*
X177164311Y-98292365D01*
X177161502Y-98288023D01*
X176999814Y-98110330D01*
X176849606Y-97991703D01*
X176815330Y-97964633D01*
X176815325Y-97964630D01*
X176811276Y-97961432D01*
X176806760Y-97958939D01*
X176806757Y-97958937D01*
X176605474Y-97847823D01*
X176605470Y-97847821D01*
X176600950Y-97845326D01*
X176596081Y-97843602D01*
X176596077Y-97843600D01*
X176429949Y-97784771D01*
X176414913Y-97779447D01*
X176357378Y-97737853D01*
X176331462Y-97671755D01*
X176345396Y-97602139D01*
X176367879Y-97571579D01*
X178754053Y-95185405D01*
X178816365Y-95151379D01*
X178843148Y-95148500D01*
X186885500Y-95148500D01*
X186953621Y-95168502D01*
X187000114Y-95222158D01*
X187011500Y-95274500D01*
X187011500Y-95303134D01*
X187018255Y-95365316D01*
X187069385Y-95501705D01*
X187156739Y-95618261D01*
X187273295Y-95705615D01*
X187409684Y-95756745D01*
X187471866Y-95763500D01*
X191528134Y-95763500D01*
X191590316Y-95756745D01*
X191726705Y-95705615D01*
X191843261Y-95618261D01*
X191930615Y-95501705D01*
X191981745Y-95365316D01*
X191988500Y-95303134D01*
X191988500Y-93226866D01*
X191981745Y-93164684D01*
X191930615Y-93028295D01*
X191843261Y-92911739D01*
X191726705Y-92824385D01*
X191590316Y-92773255D01*
X191528134Y-92766500D01*
X187471866Y-92766500D01*
X187409684Y-92773255D01*
X187273295Y-92824385D01*
X187156739Y-92911739D01*
X187069385Y-93028295D01*
X187018255Y-93164684D01*
X187011500Y-93226866D01*
X187011500Y-93255500D01*
X186991498Y-93323621D01*
X186937842Y-93370114D01*
X186885500Y-93381500D01*
X178504450Y-93381500D01*
X178484739Y-93379949D01*
X178478009Y-93378883D01*
X178471493Y-93377851D01*
X178464906Y-93378196D01*
X178464902Y-93378196D01*
X178405169Y-93381327D01*
X178398574Y-93381500D01*
X178378694Y-93381500D01*
X178358912Y-93383579D01*
X178352353Y-93384095D01*
X178325429Y-93385506D01*
X178292627Y-93387225D01*
X178292625Y-93387225D01*
X178286029Y-93387571D01*
X178273074Y-93391042D01*
X178253645Y-93394642D01*
X178246874Y-93395354D01*
X178246867Y-93395356D01*
X178240298Y-93396046D01*
X178177112Y-93416576D01*
X178170817Y-93418441D01*
X178106637Y-93435638D01*
X178100755Y-93438635D01*
X178094683Y-93441728D01*
X178076421Y-93449292D01*
X178069957Y-93451392D01*
X178069949Y-93451395D01*
X178063669Y-93453436D01*
X178057950Y-93456738D01*
X178057945Y-93456740D01*
X178006133Y-93486654D01*
X178000363Y-93489787D01*
X177941161Y-93519953D01*
X177936029Y-93524109D01*
X177930741Y-93528391D01*
X177914448Y-93539589D01*
X177902831Y-93546296D01*
X177897925Y-93550713D01*
X177897920Y-93550717D01*
X177853462Y-93590747D01*
X177848446Y-93595031D01*
X177835591Y-93605441D01*
X177833014Y-93607528D01*
X177818969Y-93621573D01*
X177814184Y-93626114D01*
X177764815Y-93670566D01*
X177756925Y-93681426D01*
X177744088Y-93696454D01*
X173755947Y-97684595D01*
X173693635Y-97718621D01*
X173666852Y-97721500D01*
X173253148Y-97721500D01*
X173185027Y-97701498D01*
X173164053Y-97684595D01*
X172466392Y-96986934D01*
X172453552Y-96971902D01*
X172445665Y-96961046D01*
X172396296Y-96916594D01*
X172391511Y-96912053D01*
X172377466Y-96898008D01*
X172374889Y-96895921D01*
X172362034Y-96885511D01*
X172357018Y-96881227D01*
X172312560Y-96841197D01*
X172312555Y-96841193D01*
X172307649Y-96836776D01*
X172296032Y-96830069D01*
X172279739Y-96818871D01*
X172279738Y-96818870D01*
X172269319Y-96810433D01*
X172210117Y-96780267D01*
X172204347Y-96777134D01*
X172152535Y-96747220D01*
X172152530Y-96747218D01*
X172146811Y-96743916D01*
X172140531Y-96741875D01*
X172140523Y-96741872D01*
X172134059Y-96739772D01*
X172115797Y-96732208D01*
X172109731Y-96729117D01*
X172109722Y-96729114D01*
X172103843Y-96726118D01*
X172080175Y-96719776D01*
X172039676Y-96708924D01*
X172033374Y-96707058D01*
X171970182Y-96686526D01*
X171956852Y-96685125D01*
X171937409Y-96681522D01*
X171924451Y-96678050D01*
X171917861Y-96677705D01*
X171917857Y-96677704D01*
X171873907Y-96675401D01*
X171858108Y-96674573D01*
X171851549Y-96674057D01*
X171831786Y-96671980D01*
X171811925Y-96671980D01*
X171805330Y-96671807D01*
X171745578Y-96668675D01*
X171745574Y-96668675D01*
X171738987Y-96668330D01*
X171725733Y-96670429D01*
X171706024Y-96671980D01*
X163713977Y-96671980D01*
X163694265Y-96670429D01*
X163687528Y-96669362D01*
X163687529Y-96669362D01*
X163681013Y-96668330D01*
X163674426Y-96668675D01*
X163674422Y-96668675D01*
X163614670Y-96671807D01*
X163608075Y-96671980D01*
X163588214Y-96671980D01*
X163568451Y-96674057D01*
X163561892Y-96674573D01*
X163546093Y-96675401D01*
X163502143Y-96677704D01*
X163502139Y-96677705D01*
X163495549Y-96678050D01*
X163482591Y-96681522D01*
X163463148Y-96685125D01*
X163449818Y-96686526D01*
X163386626Y-96707058D01*
X163380324Y-96708924D01*
X163339825Y-96719776D01*
X163316157Y-96726118D01*
X163310278Y-96729114D01*
X163310269Y-96729117D01*
X163304203Y-96732208D01*
X163285941Y-96739772D01*
X163279477Y-96741872D01*
X163279469Y-96741875D01*
X163273189Y-96743916D01*
X163267470Y-96747218D01*
X163267465Y-96747220D01*
X163215653Y-96777134D01*
X163209883Y-96780267D01*
X163150681Y-96810433D01*
X163145549Y-96814589D01*
X163140262Y-96818870D01*
X163123966Y-96830070D01*
X163118066Y-96833476D01*
X163118063Y-96833478D01*
X163112351Y-96836776D01*
X163107446Y-96841192D01*
X163107441Y-96841196D01*
X163062973Y-96881234D01*
X163057963Y-96885514D01*
X163049443Y-96892414D01*
X163042535Y-96898008D01*
X163028499Y-96912044D01*
X163023714Y-96916585D01*
X162974335Y-96961046D01*
X162970455Y-96966386D01*
X162970448Y-96966394D01*
X162966447Y-96971902D01*
X162953606Y-96986937D01*
X162255948Y-97684595D01*
X162193636Y-97718621D01*
X162166853Y-97721500D01*
X160959366Y-97721500D01*
X160897184Y-97728255D01*
X160760795Y-97779385D01*
X160644239Y-97866739D01*
X160556885Y-97983295D01*
X160505755Y-98119684D01*
X160499000Y-98181866D01*
X160499000Y-99389353D01*
X160478998Y-99457474D01*
X160462095Y-99478448D01*
X151630947Y-108309595D01*
X151568635Y-108343621D01*
X151541852Y-108346500D01*
X151096688Y-108346500D01*
X151028567Y-108326498D01*
X151007593Y-108309595D01*
X150921800Y-108223802D01*
X150917292Y-108220645D01*
X150917289Y-108220643D01*
X150815762Y-108149553D01*
X150734249Y-108092477D01*
X150729267Y-108090154D01*
X150729262Y-108090151D01*
X150695043Y-108074195D01*
X150641758Y-108027278D01*
X150622297Y-107959001D01*
X150642839Y-107891041D01*
X150695043Y-107845805D01*
X150729262Y-107829849D01*
X150729267Y-107829846D01*
X150734249Y-107827523D01*
X150857067Y-107741525D01*
X150917289Y-107699357D01*
X150917292Y-107699355D01*
X150921800Y-107696198D01*
X151083698Y-107534300D01*
X151215023Y-107346749D01*
X151217346Y-107341767D01*
X151217349Y-107341762D01*
X151309461Y-107144225D01*
X151309461Y-107144224D01*
X151311784Y-107139243D01*
X151328206Y-107077958D01*
X151369619Y-106923402D01*
X151369619Y-106923400D01*
X151371043Y-106918087D01*
X151390998Y-106690000D01*
X151371043Y-106461913D01*
X151311784Y-106240757D01*
X151287889Y-106189514D01*
X151217349Y-106038238D01*
X151217346Y-106038233D01*
X151215023Y-106033251D01*
X151135275Y-105919360D01*
X151086857Y-105850211D01*
X151086855Y-105850208D01*
X151083698Y-105845700D01*
X150921800Y-105683802D01*
X150917292Y-105680645D01*
X150917289Y-105680643D01*
X150786873Y-105589325D01*
X150734249Y-105552477D01*
X150729267Y-105550154D01*
X150729262Y-105550151D01*
X150531725Y-105458039D01*
X150531724Y-105458039D01*
X150526743Y-105455716D01*
X150521435Y-105454294D01*
X150521433Y-105454293D01*
X150310902Y-105397881D01*
X150310900Y-105397881D01*
X150305587Y-105396457D01*
X150206020Y-105387746D01*
X150137351Y-105381738D01*
X150137344Y-105381738D01*
X150134627Y-105381500D01*
X149220373Y-105381500D01*
X149217656Y-105381738D01*
X149217649Y-105381738D01*
X149148980Y-105387746D01*
X149049413Y-105396457D01*
X149044100Y-105397881D01*
X149044098Y-105397881D01*
X148833567Y-105454293D01*
X148833565Y-105454294D01*
X148828257Y-105455716D01*
X148823276Y-105458039D01*
X148823275Y-105458039D01*
X148625738Y-105550151D01*
X148625733Y-105550154D01*
X148620751Y-105552477D01*
X148568127Y-105589325D01*
X148437711Y-105680643D01*
X148437708Y-105680645D01*
X148433200Y-105683802D01*
X148271302Y-105845700D01*
X148268145Y-105850208D01*
X148268143Y-105850211D01*
X148219725Y-105919360D01*
X148139977Y-106033251D01*
X148137654Y-106038233D01*
X148137651Y-106038238D01*
X148067111Y-106189514D01*
X148043216Y-106240757D01*
X147983957Y-106461913D01*
X147964002Y-106690000D01*
X147983957Y-106918087D01*
X147985381Y-106923400D01*
X147985381Y-106923402D01*
X148026795Y-107077958D01*
X148043216Y-107139243D01*
X148045539Y-107144224D01*
X148045539Y-107144225D01*
X148137651Y-107341762D01*
X148137654Y-107341767D01*
X148139977Y-107346749D01*
X148271302Y-107534300D01*
X148433200Y-107696198D01*
X148437708Y-107699355D01*
X148437711Y-107699357D01*
X148497933Y-107741525D01*
X148620751Y-107827523D01*
X148625733Y-107829846D01*
X148625738Y-107829849D01*
X148659957Y-107845805D01*
X148713242Y-107892722D01*
X148732703Y-107960999D01*
X148712161Y-108028959D01*
X148659957Y-108074195D01*
X148625738Y-108090151D01*
X148625733Y-108090154D01*
X148620751Y-108092477D01*
X148539238Y-108149553D01*
X148437711Y-108220643D01*
X148437708Y-108220645D01*
X148433200Y-108223802D01*
X148271302Y-108385700D01*
X148268145Y-108390208D01*
X148268143Y-108390211D01*
X148221062Y-108457450D01*
X148139977Y-108573251D01*
X148137654Y-108578233D01*
X148137651Y-108578238D01*
X148087057Y-108686738D01*
X148043216Y-108780757D01*
X148041794Y-108786065D01*
X148041793Y-108786067D01*
X147985381Y-108996598D01*
X147983957Y-109001913D01*
X147964002Y-109230000D01*
X147983957Y-109458087D01*
X147985381Y-109463400D01*
X147985381Y-109463402D01*
X148025601Y-109613502D01*
X148043216Y-109679243D01*
X148045539Y-109684224D01*
X148045539Y-109684225D01*
X148137651Y-109881762D01*
X148137654Y-109881767D01*
X148139977Y-109886749D01*
X148185669Y-109952004D01*
X148251282Y-110045708D01*
X148271302Y-110074300D01*
X148433200Y-110236198D01*
X148437708Y-110239355D01*
X148437711Y-110239357D01*
X148515889Y-110294098D01*
X148620751Y-110367523D01*
X148625733Y-110369846D01*
X148625738Y-110369849D01*
X148659957Y-110385805D01*
X148713242Y-110432722D01*
X148732703Y-110500999D01*
X148712161Y-110568959D01*
X148659957Y-110614195D01*
X148625738Y-110630151D01*
X148625733Y-110630154D01*
X148620751Y-110632477D01*
X148588074Y-110655358D01*
X148437711Y-110760643D01*
X148437708Y-110760645D01*
X148433200Y-110763802D01*
X148271302Y-110925700D01*
X148139977Y-111113251D01*
X148137654Y-111118233D01*
X148137651Y-111118238D01*
X148063503Y-111277251D01*
X148043216Y-111320757D01*
X148041794Y-111326065D01*
X148041793Y-111326067D01*
X147985381Y-111536598D01*
X147983957Y-111541913D01*
X147964002Y-111770000D01*
X147983957Y-111998087D01*
X148043216Y-112219243D01*
X148045539Y-112224224D01*
X148045539Y-112224225D01*
X148137651Y-112421762D01*
X148137654Y-112421767D01*
X148139977Y-112426749D01*
X148143134Y-112431257D01*
X148267195Y-112608434D01*
X148271302Y-112614300D01*
X148433200Y-112776198D01*
X148437708Y-112779355D01*
X148437711Y-112779357D01*
X148498983Y-112822260D01*
X148620751Y-112907523D01*
X148625733Y-112909846D01*
X148625738Y-112909849D01*
X148659957Y-112925805D01*
X148713242Y-112972722D01*
X148732703Y-113040999D01*
X148712161Y-113108959D01*
X148659957Y-113154195D01*
X148625738Y-113170151D01*
X148625733Y-113170154D01*
X148620751Y-113172477D01*
X148529668Y-113236254D01*
X148437711Y-113300643D01*
X148437708Y-113300645D01*
X148433200Y-113303802D01*
X148271302Y-113465700D01*
X148268145Y-113470208D01*
X148268143Y-113470211D01*
X148238532Y-113512500D01*
X148139977Y-113653251D01*
X148137654Y-113658233D01*
X148137651Y-113658238D01*
X148050202Y-113845775D01*
X148043216Y-113860757D01*
X148041794Y-113866065D01*
X148041793Y-113866067D01*
X147985381Y-114076598D01*
X147983957Y-114081913D01*
X147964002Y-114310000D01*
X141230998Y-114310000D01*
X141211043Y-114081913D01*
X141209619Y-114076598D01*
X141153207Y-113866067D01*
X141153206Y-113866065D01*
X141151784Y-113860757D01*
X141144798Y-113845775D01*
X141057349Y-113658238D01*
X141057346Y-113658233D01*
X141055023Y-113653251D01*
X140956468Y-113512500D01*
X140926857Y-113470211D01*
X140926855Y-113470208D01*
X140923698Y-113465700D01*
X140761800Y-113303802D01*
X140757292Y-113300645D01*
X140757289Y-113300643D01*
X140665332Y-113236254D01*
X140574249Y-113172477D01*
X140569267Y-113170154D01*
X140569262Y-113170151D01*
X140534451Y-113153919D01*
X140481166Y-113107002D01*
X140461705Y-113038725D01*
X140482247Y-112970765D01*
X140534451Y-112925529D01*
X140569011Y-112909414D01*
X140578507Y-112903931D01*
X140756967Y-112778972D01*
X140765375Y-112771916D01*
X140919416Y-112617875D01*
X140926472Y-112609467D01*
X141051431Y-112431007D01*
X141056914Y-112421511D01*
X141148990Y-112224053D01*
X141152736Y-112213761D01*
X141198894Y-112041497D01*
X141198558Y-112027401D01*
X141190616Y-112024000D01*
X137849533Y-112024000D01*
X137836002Y-112027973D01*
X137834773Y-112036522D01*
X137882264Y-112213761D01*
X137886010Y-112224053D01*
X137978086Y-112421511D01*
X137983569Y-112431007D01*
X138108528Y-112609467D01*
X138115584Y-112617875D01*
X138269625Y-112771916D01*
X138278033Y-112778972D01*
X138456493Y-112903931D01*
X138465989Y-112909414D01*
X138500549Y-112925529D01*
X138553834Y-112972446D01*
X138573295Y-113040723D01*
X138552753Y-113108683D01*
X138500549Y-113153919D01*
X138465738Y-113170151D01*
X138465733Y-113170154D01*
X138460751Y-113172477D01*
X138369668Y-113236254D01*
X138277711Y-113300643D01*
X138277708Y-113300645D01*
X138273200Y-113303802D01*
X138111302Y-113465700D01*
X138095848Y-113487771D01*
X138040392Y-113532099D01*
X137992635Y-113541500D01*
X135751867Y-113541500D01*
X135683746Y-113521498D01*
X135648655Y-113487772D01*
X135626198Y-113455700D01*
X135464300Y-113293802D01*
X135459792Y-113290645D01*
X135459789Y-113290643D01*
X135291030Y-113172477D01*
X135276749Y-113162477D01*
X135271767Y-113160154D01*
X135271762Y-113160151D01*
X135074225Y-113068039D01*
X135074224Y-113068039D01*
X135069243Y-113065716D01*
X135063935Y-113064294D01*
X135063933Y-113064293D01*
X134853402Y-113007881D01*
X134853400Y-113007881D01*
X134848087Y-113006457D01*
X134620000Y-112986502D01*
X134391913Y-113006457D01*
X134386600Y-113007881D01*
X134386598Y-113007881D01*
X134176067Y-113064293D01*
X134176065Y-113064294D01*
X134170757Y-113065716D01*
X134165776Y-113068039D01*
X134165775Y-113068039D01*
X133968238Y-113160151D01*
X133968233Y-113160154D01*
X133963251Y-113162477D01*
X133948970Y-113172477D01*
X133780211Y-113290643D01*
X133780208Y-113290645D01*
X133775700Y-113293802D01*
X133613802Y-113455700D01*
X133610645Y-113460208D01*
X133610643Y-113460211D01*
X133603641Y-113470211D01*
X133482477Y-113643251D01*
X133480154Y-113648233D01*
X133480151Y-113648238D01*
X133475488Y-113658238D01*
X133385716Y-113850757D01*
X133384294Y-113856065D01*
X133384293Y-113856067D01*
X133327881Y-114066598D01*
X133326457Y-114071913D01*
X133306502Y-114300000D01*
X129583498Y-114300000D01*
X129563543Y-114071913D01*
X129562119Y-114066598D01*
X129505707Y-113856067D01*
X129505706Y-113856065D01*
X129504284Y-113850757D01*
X129414512Y-113658238D01*
X129409849Y-113648238D01*
X129409846Y-113648233D01*
X129407523Y-113643251D01*
X129286359Y-113470211D01*
X129279357Y-113460211D01*
X129279355Y-113460208D01*
X129276198Y-113455700D01*
X129114300Y-113293802D01*
X129082229Y-113271345D01*
X129037901Y-113215890D01*
X129028500Y-113168133D01*
X129028500Y-112126371D01*
X129048502Y-112058250D01*
X129065405Y-112037276D01*
X131606159Y-109496522D01*
X137834773Y-109496522D01*
X137882264Y-109673761D01*
X137886010Y-109684053D01*
X137978086Y-109881511D01*
X137983569Y-109891007D01*
X138108528Y-110069467D01*
X138115584Y-110077875D01*
X138269625Y-110231916D01*
X138278033Y-110238972D01*
X138456493Y-110363931D01*
X138465989Y-110369414D01*
X138501141Y-110385805D01*
X138554426Y-110432722D01*
X138573887Y-110500999D01*
X138553345Y-110568959D01*
X138501141Y-110614195D01*
X138465989Y-110630586D01*
X138456493Y-110636069D01*
X138278033Y-110761028D01*
X138269625Y-110768084D01*
X138115584Y-110922125D01*
X138108528Y-110930533D01*
X137983569Y-111108993D01*
X137978086Y-111118489D01*
X137886010Y-111315947D01*
X137882264Y-111326239D01*
X137836106Y-111498503D01*
X137836442Y-111512599D01*
X137844384Y-111516000D01*
X139245385Y-111516000D01*
X139260624Y-111511525D01*
X139261829Y-111510135D01*
X139263500Y-111502452D01*
X139263500Y-111497885D01*
X139771500Y-111497885D01*
X139775975Y-111513124D01*
X139777365Y-111514329D01*
X139785048Y-111516000D01*
X141185467Y-111516000D01*
X141198998Y-111512027D01*
X141200227Y-111503478D01*
X141152736Y-111326239D01*
X141148990Y-111315947D01*
X141056914Y-111118489D01*
X141051431Y-111108993D01*
X140926472Y-110930533D01*
X140919416Y-110922125D01*
X140765375Y-110768084D01*
X140756967Y-110761028D01*
X140578507Y-110636069D01*
X140569011Y-110630586D01*
X140533859Y-110614195D01*
X140480574Y-110567278D01*
X140461113Y-110499001D01*
X140481655Y-110431041D01*
X140533859Y-110385805D01*
X140569011Y-110369414D01*
X140578507Y-110363931D01*
X140756967Y-110238972D01*
X140765375Y-110231916D01*
X140919416Y-110077875D01*
X140926472Y-110069467D01*
X141051431Y-109891007D01*
X141056914Y-109881511D01*
X141148990Y-109684053D01*
X141152736Y-109673761D01*
X141198894Y-109501497D01*
X141198558Y-109487401D01*
X141190616Y-109484000D01*
X139789615Y-109484000D01*
X139774376Y-109488475D01*
X139773171Y-109489865D01*
X139771500Y-109497548D01*
X139771500Y-111497885D01*
X139263500Y-111497885D01*
X139263500Y-109502115D01*
X139259025Y-109486876D01*
X139257635Y-109485671D01*
X139249952Y-109484000D01*
X137849533Y-109484000D01*
X137836002Y-109487973D01*
X137834773Y-109496522D01*
X131606159Y-109496522D01*
X133617276Y-107485405D01*
X133679588Y-107451379D01*
X133706371Y-107448500D01*
X137686209Y-107448500D01*
X137754330Y-107468502D01*
X137800823Y-107522158D01*
X137811472Y-107560892D01*
X137812264Y-107568181D01*
X137815755Y-107600316D01*
X137866885Y-107736705D01*
X137954239Y-107853261D01*
X138070795Y-107940615D01*
X138207184Y-107991745D01*
X138218729Y-107992999D01*
X138221410Y-107994113D01*
X138222722Y-107994425D01*
X138222672Y-107994637D01*
X138284290Y-108020238D01*
X138324718Y-108078599D01*
X138327177Y-108149553D01*
X138290884Y-108210572D01*
X138280275Y-108219147D01*
X138269625Y-108228084D01*
X138115584Y-108382125D01*
X138108528Y-108390533D01*
X137983569Y-108568993D01*
X137978086Y-108578489D01*
X137886010Y-108775947D01*
X137882264Y-108786239D01*
X137836106Y-108958503D01*
X137836442Y-108972599D01*
X137844384Y-108976000D01*
X141185467Y-108976000D01*
X141198998Y-108972027D01*
X141200227Y-108963478D01*
X141152736Y-108786239D01*
X141148990Y-108775947D01*
X141056914Y-108578489D01*
X141051431Y-108568993D01*
X140926472Y-108390533D01*
X140919416Y-108382125D01*
X140765375Y-108228084D01*
X140752754Y-108217493D01*
X140753608Y-108216475D01*
X140713276Y-108166016D01*
X140705968Y-108095397D01*
X140738000Y-108032037D01*
X140799202Y-107996053D01*
X140816262Y-107993000D01*
X140827816Y-107991745D01*
X140964205Y-107940615D01*
X141080761Y-107853261D01*
X141168115Y-107736705D01*
X141219245Y-107600316D01*
X141226000Y-107538134D01*
X141226000Y-105841866D01*
X141219245Y-105779684D01*
X141168115Y-105643295D01*
X141080761Y-105526739D01*
X140964205Y-105439385D01*
X140827816Y-105388255D01*
X140765634Y-105381500D01*
X138269366Y-105381500D01*
X138207184Y-105388255D01*
X138070795Y-105439385D01*
X137954239Y-105526739D01*
X137866885Y-105643295D01*
X137815755Y-105779684D01*
X137814902Y-105787540D01*
X137811472Y-105819108D01*
X137784230Y-105884670D01*
X137725866Y-105925096D01*
X137686209Y-105931500D01*
X133489218Y-105931500D01*
X133463560Y-105928860D01*
X133425050Y-105920850D01*
X133425047Y-105920850D01*
X133417885Y-105919360D01*
X133408401Y-105919617D01*
X133386038Y-105918229D01*
X133385362Y-105918126D01*
X133383883Y-105917901D01*
X133383880Y-105917901D01*
X133376651Y-105916801D01*
X133369360Y-105917394D01*
X133369357Y-105917394D01*
X133312369Y-105922030D01*
X133305560Y-105922399D01*
X133269685Y-105923369D01*
X133241079Y-105924143D01*
X133231896Y-105926578D01*
X133209829Y-105930370D01*
X133200364Y-105931140D01*
X133138981Y-105951025D01*
X133132496Y-105952934D01*
X133070116Y-105969474D01*
X133063658Y-105972929D01*
X133063654Y-105972931D01*
X133061742Y-105973954D01*
X133041139Y-105982721D01*
X133039064Y-105983393D01*
X133039062Y-105983394D01*
X133032101Y-105985649D01*
X133025842Y-105989447D01*
X133025840Y-105989448D01*
X132976946Y-106019117D01*
X132971030Y-106022492D01*
X132914166Y-106052918D01*
X132908677Y-106057766D01*
X132908671Y-106057770D01*
X132907043Y-106059207D01*
X132889007Y-106072482D01*
X132880893Y-106077405D01*
X132876685Y-106081121D01*
X132876684Y-106081122D01*
X132875020Y-106082592D01*
X132872516Y-106084803D01*
X132833350Y-106123969D01*
X132827663Y-106129315D01*
X132781596Y-106170000D01*
X132777368Y-106175983D01*
X132774005Y-106180741D01*
X132760203Y-106197116D01*
X127781089Y-111176230D01*
X127766677Y-111188616D01*
X127755082Y-111197149D01*
X127755077Y-111197154D01*
X127749182Y-111201492D01*
X127744443Y-111207070D01*
X127744440Y-111207073D01*
X127714965Y-111241768D01*
X127708035Y-111249284D01*
X127702340Y-111254979D01*
X127700060Y-111257861D01*
X127684719Y-111277251D01*
X127681928Y-111280655D01*
X127639409Y-111330703D01*
X127634667Y-111336285D01*
X127631339Y-111342801D01*
X127627972Y-111347850D01*
X127624805Y-111352979D01*
X127620266Y-111358716D01*
X127589345Y-111424875D01*
X127587442Y-111428769D01*
X127554231Y-111493808D01*
X127552492Y-111500916D01*
X127550393Y-111506559D01*
X127548476Y-111512322D01*
X127545378Y-111518950D01*
X127543888Y-111526112D01*
X127543888Y-111526113D01*
X127530514Y-111590412D01*
X127529544Y-111594696D01*
X127512192Y-111665610D01*
X127511500Y-111676764D01*
X127511464Y-111676762D01*
X127511225Y-111680755D01*
X127510851Y-111684947D01*
X127509360Y-111692115D01*
X127509558Y-111699432D01*
X127511454Y-111769521D01*
X127511500Y-111772928D01*
X127511500Y-113168133D01*
X127491498Y-113236254D01*
X127457772Y-113271345D01*
X127425700Y-113293802D01*
X127263802Y-113455700D01*
X127260645Y-113460208D01*
X127260643Y-113460211D01*
X127253641Y-113470211D01*
X127132477Y-113643251D01*
X127130154Y-113648233D01*
X127130151Y-113648238D01*
X127125488Y-113658238D01*
X127035716Y-113850757D01*
X127034294Y-113856065D01*
X127034293Y-113856067D01*
X126977881Y-114066598D01*
X126976457Y-114071913D01*
X126956502Y-114300000D01*
X121008500Y-114300000D01*
X121008500Y-104140000D01*
X126956502Y-104140000D01*
X126976457Y-104368087D01*
X127035716Y-104589243D01*
X127038039Y-104594224D01*
X127038039Y-104594225D01*
X127130151Y-104791762D01*
X127130154Y-104791767D01*
X127132477Y-104796749D01*
X127263802Y-104984300D01*
X127425700Y-105146198D01*
X127430208Y-105149355D01*
X127430211Y-105149357D01*
X127508389Y-105204098D01*
X127613251Y-105277523D01*
X127618233Y-105279846D01*
X127618238Y-105279849D01*
X127815775Y-105371961D01*
X127820757Y-105374284D01*
X127826065Y-105375706D01*
X127826067Y-105375707D01*
X128036598Y-105432119D01*
X128036600Y-105432119D01*
X128041913Y-105433543D01*
X128270000Y-105453498D01*
X128498087Y-105433543D01*
X128503400Y-105432119D01*
X128503402Y-105432119D01*
X128713933Y-105375707D01*
X128713935Y-105375706D01*
X128719243Y-105374284D01*
X128724225Y-105371961D01*
X128921762Y-105279849D01*
X128921767Y-105279846D01*
X128926749Y-105277523D01*
X129031611Y-105204098D01*
X129109789Y-105149357D01*
X129109792Y-105149355D01*
X129114300Y-105146198D01*
X129276198Y-104984300D01*
X129407523Y-104796749D01*
X129409846Y-104791767D01*
X129409849Y-104791762D01*
X129501961Y-104594225D01*
X129501961Y-104594224D01*
X129504284Y-104589243D01*
X129563543Y-104368087D01*
X129583498Y-104140000D01*
X129569245Y-103977087D01*
X129583234Y-103907482D01*
X129605671Y-103877010D01*
X129846787Y-103635894D01*
X129909099Y-103601868D01*
X129935882Y-103598989D01*
X133246098Y-103598989D01*
X133314219Y-103618991D01*
X133360712Y-103672647D01*
X133370816Y-103742921D01*
X133367805Y-103757600D01*
X133326457Y-103911913D01*
X133306502Y-104140000D01*
X133326457Y-104368087D01*
X133385716Y-104589243D01*
X133388039Y-104594224D01*
X133388039Y-104594225D01*
X133480151Y-104791762D01*
X133480154Y-104791767D01*
X133482477Y-104796749D01*
X133613802Y-104984300D01*
X133775700Y-105146198D01*
X133780208Y-105149355D01*
X133780211Y-105149357D01*
X133858389Y-105204098D01*
X133963251Y-105277523D01*
X133968233Y-105279846D01*
X133968238Y-105279849D01*
X134165775Y-105371961D01*
X134170757Y-105374284D01*
X134176065Y-105375706D01*
X134176067Y-105375707D01*
X134386598Y-105432119D01*
X134386600Y-105432119D01*
X134391913Y-105433543D01*
X134620000Y-105453498D01*
X134848087Y-105433543D01*
X134853400Y-105432119D01*
X134853402Y-105432119D01*
X135063933Y-105375707D01*
X135063935Y-105375706D01*
X135069243Y-105374284D01*
X135074225Y-105371961D01*
X135271762Y-105279849D01*
X135271767Y-105279846D01*
X135276749Y-105277523D01*
X135381611Y-105204098D01*
X135459789Y-105149357D01*
X135459792Y-105149355D01*
X135464300Y-105146198D01*
X135626198Y-104984300D01*
X135648655Y-104952229D01*
X135704110Y-104907901D01*
X135751867Y-104898500D01*
X150792930Y-104898500D01*
X150811880Y-104899933D01*
X150826115Y-104902099D01*
X150826119Y-104902099D01*
X150833349Y-104903199D01*
X150840641Y-104902606D01*
X150840644Y-104902606D01*
X150886018Y-104898915D01*
X150896233Y-104898500D01*
X150904293Y-104898500D01*
X150917583Y-104896951D01*
X150932507Y-104895211D01*
X150936882Y-104894778D01*
X151002339Y-104889454D01*
X151002342Y-104889453D01*
X151009637Y-104888860D01*
X151016601Y-104886604D01*
X151022560Y-104885413D01*
X151028415Y-104884029D01*
X151035681Y-104883182D01*
X151104327Y-104858265D01*
X151108455Y-104856848D01*
X151170936Y-104836607D01*
X151170938Y-104836606D01*
X151177899Y-104834351D01*
X151184154Y-104830555D01*
X151189628Y-104828049D01*
X151195058Y-104825330D01*
X151201937Y-104822833D01*
X151234846Y-104801257D01*
X151262976Y-104782814D01*
X151266680Y-104780477D01*
X151329107Y-104742595D01*
X151337484Y-104735197D01*
X151337508Y-104735224D01*
X151340500Y-104732571D01*
X151343733Y-104729868D01*
X151349852Y-104725856D01*
X151403128Y-104669617D01*
X151405506Y-104667175D01*
X162465153Y-93607528D01*
X166535487Y-89537194D01*
X187036135Y-89537194D01*
X187047006Y-89608236D01*
X187049395Y-89618263D01*
X187122709Y-89842570D01*
X187126706Y-89852079D01*
X187235669Y-90061395D01*
X187241163Y-90070120D01*
X187382854Y-90258835D01*
X187389697Y-90266542D01*
X187560310Y-90429584D01*
X187568316Y-90436067D01*
X187763274Y-90569057D01*
X187772226Y-90574143D01*
X187986285Y-90673506D01*
X187995945Y-90677060D01*
X188223369Y-90740130D01*
X188233473Y-90742057D01*
X188426102Y-90762644D01*
X188432794Y-90763000D01*
X189227885Y-90763000D01*
X189243124Y-90758525D01*
X189244329Y-90757135D01*
X189246000Y-90749452D01*
X189246000Y-90744885D01*
X189754000Y-90744885D01*
X189758475Y-90760124D01*
X189759865Y-90761329D01*
X189767548Y-90763000D01*
X190549857Y-90763000D01*
X190555030Y-90762788D01*
X190730350Y-90748374D01*
X190740512Y-90746691D01*
X190969396Y-90689200D01*
X190979151Y-90685879D01*
X191195557Y-90591782D01*
X191204655Y-90586904D01*
X191402787Y-90458727D01*
X191410956Y-90452437D01*
X191585501Y-90293613D01*
X191592526Y-90286080D01*
X191738787Y-90100880D01*
X191744492Y-90092293D01*
X191858536Y-89885703D01*
X191862766Y-89876291D01*
X191941539Y-89653844D01*
X191944173Y-89643873D01*
X191963239Y-89536837D01*
X191961779Y-89523540D01*
X191947222Y-89519000D01*
X189772115Y-89519000D01*
X189756876Y-89523475D01*
X189755671Y-89524865D01*
X189754000Y-89532548D01*
X189754000Y-90744885D01*
X189246000Y-90744885D01*
X189246000Y-89537115D01*
X189241525Y-89521876D01*
X189240135Y-89520671D01*
X189232452Y-89519000D01*
X187051466Y-89519000D01*
X187038122Y-89522918D01*
X187036135Y-89537194D01*
X166535487Y-89537194D01*
X167079518Y-88993163D01*
X187036761Y-88993163D01*
X187038221Y-89006460D01*
X187052778Y-89011000D01*
X189227885Y-89011000D01*
X189243124Y-89006525D01*
X189244329Y-89005135D01*
X189246000Y-88997452D01*
X189246000Y-88992885D01*
X189754000Y-88992885D01*
X189758475Y-89008124D01*
X189759865Y-89009329D01*
X189767548Y-89011000D01*
X191948534Y-89011000D01*
X191961878Y-89007082D01*
X191963865Y-88992806D01*
X191952994Y-88921764D01*
X191950605Y-88911737D01*
X191877291Y-88687430D01*
X191873294Y-88677921D01*
X191764331Y-88468605D01*
X191758837Y-88459880D01*
X191617146Y-88271165D01*
X191610303Y-88263458D01*
X191439690Y-88100416D01*
X191431684Y-88093933D01*
X191236726Y-87960943D01*
X191227774Y-87955857D01*
X191013715Y-87856494D01*
X191004055Y-87852940D01*
X190776631Y-87789870D01*
X190766527Y-87787943D01*
X190573898Y-87767356D01*
X190567206Y-87767000D01*
X189772115Y-87767000D01*
X189756876Y-87771475D01*
X189755671Y-87772865D01*
X189754000Y-87780548D01*
X189754000Y-88992885D01*
X189246000Y-88992885D01*
X189246000Y-87785115D01*
X189241525Y-87769876D01*
X189240135Y-87768671D01*
X189232452Y-87767000D01*
X188450143Y-87767000D01*
X188444970Y-87767212D01*
X188269650Y-87781626D01*
X188259488Y-87783309D01*
X188030604Y-87840800D01*
X188020849Y-87844121D01*
X187804443Y-87938218D01*
X187795345Y-87943096D01*
X187597213Y-88071273D01*
X187589044Y-88077563D01*
X187414499Y-88236387D01*
X187407474Y-88243920D01*
X187261213Y-88429120D01*
X187255508Y-88437707D01*
X187141464Y-88644297D01*
X187137234Y-88653709D01*
X187058461Y-88876156D01*
X187055827Y-88886127D01*
X187036761Y-88993163D01*
X167079518Y-88993163D01*
X173525625Y-82547055D01*
X173587937Y-82513029D01*
X173658752Y-82518094D01*
X173715588Y-82560641D01*
X173740450Y-82627910D01*
X173755612Y-82859245D01*
X173756017Y-82865426D01*
X173756819Y-82869459D01*
X173756820Y-82869465D01*
X173812970Y-83151747D01*
X173813776Y-83155797D01*
X173815103Y-83159706D01*
X173815104Y-83159710D01*
X173896059Y-83398197D01*
X173908941Y-83436145D01*
X173910765Y-83439843D01*
X174037104Y-83696033D01*
X174039885Y-83701673D01*
X174042179Y-83705106D01*
X174152170Y-83869719D01*
X174204367Y-83947838D01*
X174207081Y-83950932D01*
X174207085Y-83950938D01*
X174236372Y-83984333D01*
X174399573Y-84170427D01*
X174402662Y-84173136D01*
X174619062Y-84362915D01*
X174619068Y-84362919D01*
X174622162Y-84365633D01*
X174625588Y-84367922D01*
X174625593Y-84367926D01*
X174809405Y-84490744D01*
X174868327Y-84530115D01*
X174872026Y-84531939D01*
X174872031Y-84531942D01*
X175008313Y-84599148D01*
X175133855Y-84661059D01*
X175137760Y-84662384D01*
X175137761Y-84662385D01*
X175410290Y-84754896D01*
X175410294Y-84754897D01*
X175414203Y-84756224D01*
X175418247Y-84757028D01*
X175418253Y-84757030D01*
X175700535Y-84813180D01*
X175700541Y-84813181D01*
X175704574Y-84813983D01*
X175708679Y-84814252D01*
X175708686Y-84814253D01*
X175995881Y-84833076D01*
X176000000Y-84833346D01*
X176004119Y-84833076D01*
X176291314Y-84814253D01*
X176291321Y-84814252D01*
X176295426Y-84813983D01*
X176299459Y-84813181D01*
X176299465Y-84813180D01*
X176581747Y-84757030D01*
X176581753Y-84757028D01*
X176585797Y-84756224D01*
X176589706Y-84754897D01*
X176589710Y-84754896D01*
X176862239Y-84662385D01*
X176862240Y-84662384D01*
X176866145Y-84661059D01*
X176991687Y-84599148D01*
X177127969Y-84531942D01*
X177127974Y-84531939D01*
X177131673Y-84530115D01*
X177190595Y-84490744D01*
X177374407Y-84367926D01*
X177374412Y-84367922D01*
X177377838Y-84365633D01*
X177380932Y-84362919D01*
X177380938Y-84362915D01*
X177597338Y-84173136D01*
X177600427Y-84170427D01*
X177763628Y-83984333D01*
X177792915Y-83950938D01*
X177792919Y-83950932D01*
X177795633Y-83947838D01*
X177847831Y-83869719D01*
X177957821Y-83705106D01*
X177960115Y-83701673D01*
X177962897Y-83696033D01*
X178089235Y-83439843D01*
X178091059Y-83436145D01*
X178103941Y-83398197D01*
X178184896Y-83159710D01*
X178184897Y-83159706D01*
X178186224Y-83155797D01*
X178187030Y-83151747D01*
X178243180Y-82869465D01*
X178243181Y-82869459D01*
X178243983Y-82865426D01*
X178244389Y-82859245D01*
X178263076Y-82574119D01*
X178263346Y-82570000D01*
X178247086Y-82321913D01*
X178244253Y-82278686D01*
X178244252Y-82278679D01*
X178243983Y-82274574D01*
X178209409Y-82100757D01*
X178187030Y-81988253D01*
X178187028Y-81988247D01*
X178186224Y-81984203D01*
X178091059Y-81703855D01*
X178000082Y-81519371D01*
X177961942Y-81442031D01*
X177961939Y-81442026D01*
X177960115Y-81438327D01*
X177888339Y-81330906D01*
X177797926Y-81195593D01*
X177797922Y-81195588D01*
X177795633Y-81192162D01*
X177792919Y-81189068D01*
X177792915Y-81189062D01*
X177603136Y-80972662D01*
X177600427Y-80969573D01*
X177534721Y-80911950D01*
X177380938Y-80777085D01*
X177380932Y-80777081D01*
X177377838Y-80774367D01*
X177374412Y-80772078D01*
X177374407Y-80772074D01*
X177135106Y-80612179D01*
X177131673Y-80609885D01*
X177127974Y-80608061D01*
X177127969Y-80608058D01*
X176959377Y-80524918D01*
X176866145Y-80478941D01*
X176862239Y-80477615D01*
X176589710Y-80385104D01*
X176589706Y-80385103D01*
X176585797Y-80383776D01*
X176581753Y-80382972D01*
X176581747Y-80382970D01*
X176299465Y-80326820D01*
X176299459Y-80326819D01*
X176295426Y-80326017D01*
X176291319Y-80325748D01*
X176291313Y-80325747D01*
X176174968Y-80318122D01*
X176057909Y-80310449D01*
X175991243Y-80286036D01*
X175948359Y-80229454D01*
X175942872Y-80158670D01*
X175977055Y-80095625D01*
X183416705Y-72655975D01*
X189602601Y-72655975D01*
X189631552Y-72756941D01*
X189636067Y-72768345D01*
X189720794Y-72933207D01*
X189727435Y-72943512D01*
X189842568Y-73088772D01*
X189851091Y-73097598D01*
X189992245Y-73217730D01*
X190002317Y-73224730D01*
X190164116Y-73315156D01*
X190175356Y-73320067D01*
X190303768Y-73361790D01*
X190317867Y-73362193D01*
X190321000Y-73355821D01*
X190321000Y-73347564D01*
X190829000Y-73347564D01*
X190832973Y-73361095D01*
X190841188Y-73362276D01*
X190935337Y-73335989D01*
X190946787Y-73331548D01*
X191112226Y-73247979D01*
X191122585Y-73241404D01*
X191268639Y-73127295D01*
X191277527Y-73118831D01*
X191398643Y-72978517D01*
X191405711Y-72968497D01*
X191497262Y-72807337D01*
X191502256Y-72796121D01*
X191547142Y-72661190D01*
X191547643Y-72647097D01*
X191541454Y-72644000D01*
X190847115Y-72644000D01*
X190831876Y-72648475D01*
X190830671Y-72649865D01*
X190829000Y-72657548D01*
X190829000Y-73347564D01*
X190321000Y-73347564D01*
X190321000Y-72662115D01*
X190316525Y-72646876D01*
X190315135Y-72645671D01*
X190307452Y-72644000D01*
X189617282Y-72644000D01*
X189603751Y-72647973D01*
X189602601Y-72655975D01*
X183416705Y-72655975D01*
X184157275Y-71915405D01*
X184219587Y-71881379D01*
X184246370Y-71878500D01*
X189507555Y-71878500D01*
X189575676Y-71898502D01*
X189622169Y-71952158D01*
X189632273Y-72022432D01*
X189627657Y-72042599D01*
X189603506Y-72118732D01*
X189603202Y-72132831D01*
X189609763Y-72136000D01*
X191533183Y-72136000D01*
X191546714Y-72132027D01*
X191547806Y-72124433D01*
X191513231Y-72009919D01*
X191508560Y-71998586D01*
X191421537Y-71834918D01*
X191414435Y-71824228D01*
X191393398Y-71756420D01*
X191409827Y-71692264D01*
X191497723Y-71537542D01*
X191497725Y-71537537D01*
X191500769Y-71532179D01*
X191563197Y-71344513D01*
X191587985Y-71148295D01*
X191588380Y-71120000D01*
X191569080Y-70923167D01*
X191511916Y-70733831D01*
X191419066Y-70559204D01*
X191415167Y-70554424D01*
X191414715Y-70553743D01*
X191393676Y-70485935D01*
X191410105Y-70421775D01*
X191497723Y-70267542D01*
X191497725Y-70267537D01*
X191500769Y-70262179D01*
X191563197Y-70074513D01*
X191587985Y-69878295D01*
X191588380Y-69850000D01*
X191569080Y-69653167D01*
X191511916Y-69463831D01*
X191419066Y-69289204D01*
X191415167Y-69284424D01*
X191414715Y-69283743D01*
X191393676Y-69215935D01*
X191410105Y-69151775D01*
X191411148Y-69149940D01*
X191457179Y-69068911D01*
X191497723Y-68997542D01*
X191497725Y-68997537D01*
X191500769Y-68992179D01*
X191563197Y-68804513D01*
X191587985Y-68608295D01*
X191588380Y-68580000D01*
X191569080Y-68383167D01*
X191511916Y-68193831D01*
X191419066Y-68019204D01*
X191415167Y-68014424D01*
X191414715Y-68013743D01*
X191393676Y-67945935D01*
X191410105Y-67881775D01*
X191497723Y-67727542D01*
X191497725Y-67727537D01*
X191500769Y-67722179D01*
X191563197Y-67534513D01*
X191587985Y-67338295D01*
X191588380Y-67310000D01*
X191569080Y-67113167D01*
X191511916Y-66923831D01*
X191419066Y-66749204D01*
X191415167Y-66744424D01*
X191414715Y-66743743D01*
X191393676Y-66675935D01*
X191410105Y-66611775D01*
X191497723Y-66457542D01*
X191497725Y-66457537D01*
X191500769Y-66452179D01*
X191543146Y-66324789D01*
X191552055Y-66298009D01*
X191582518Y-66248686D01*
X192063422Y-65767782D01*
X192077832Y-65755397D01*
X192089437Y-65746856D01*
X192095329Y-65742520D01*
X192129552Y-65702237D01*
X192136482Y-65694721D01*
X192142171Y-65689032D01*
X192144429Y-65686178D01*
X192144438Y-65686168D01*
X192159785Y-65666770D01*
X192162573Y-65663370D01*
X192205106Y-65613305D01*
X192205109Y-65613301D01*
X192209844Y-65607727D01*
X192213171Y-65601212D01*
X192216530Y-65596175D01*
X192219703Y-65591037D01*
X192224245Y-65585296D01*
X192255166Y-65519137D01*
X192257072Y-65515237D01*
X192281461Y-65467474D01*
X192290280Y-65450204D01*
X192292019Y-65443095D01*
X192294115Y-65437461D01*
X192296034Y-65431691D01*
X192299133Y-65425062D01*
X192304261Y-65400412D01*
X192314001Y-65353583D01*
X192314972Y-65349294D01*
X192332319Y-65278402D01*
X192333011Y-65267248D01*
X192333046Y-65267250D01*
X192333286Y-65263278D01*
X192333663Y-65259057D01*
X192335152Y-65251897D01*
X192333057Y-65174470D01*
X192333011Y-65171062D01*
X192333011Y-59006548D01*
X192334444Y-58987599D01*
X192336608Y-58973371D01*
X192337709Y-58966136D01*
X192335622Y-58940468D01*
X192333426Y-58913476D01*
X192333011Y-58903262D01*
X192333011Y-58895192D01*
X192329719Y-58866954D01*
X192329286Y-58862578D01*
X192323965Y-58797147D01*
X192323964Y-58797144D01*
X192323371Y-58789848D01*
X192321115Y-58782883D01*
X192319924Y-58776925D01*
X192318540Y-58771070D01*
X192317693Y-58763804D01*
X192292776Y-58695158D01*
X192291359Y-58691030D01*
X192271118Y-58628549D01*
X192271117Y-58628547D01*
X192268862Y-58621586D01*
X192265066Y-58615331D01*
X192262560Y-58609857D01*
X192259841Y-58604427D01*
X192257344Y-58597548D01*
X192217320Y-58536501D01*
X192214983Y-58532797D01*
X192180020Y-58475178D01*
X192180016Y-58475173D01*
X192177106Y-58470377D01*
X192169708Y-58462001D01*
X192169734Y-58461978D01*
X192167085Y-58458988D01*
X192164377Y-58455749D01*
X192160367Y-58449633D01*
X192155060Y-58444606D01*
X192155057Y-58444602D01*
X192104128Y-58396357D01*
X192101686Y-58393979D01*
X190569276Y-56861569D01*
X190556890Y-56847157D01*
X190548357Y-56835562D01*
X190548352Y-56835557D01*
X190544014Y-56829662D01*
X190538436Y-56824923D01*
X190538433Y-56824920D01*
X190503738Y-56795445D01*
X190496222Y-56788515D01*
X190490527Y-56782820D01*
X190484386Y-56777962D01*
X190468255Y-56765199D01*
X190464851Y-56762408D01*
X190414803Y-56719889D01*
X190414801Y-56719888D01*
X190409221Y-56715147D01*
X190402705Y-56711819D01*
X190397656Y-56708452D01*
X190392527Y-56705285D01*
X190386790Y-56700746D01*
X190320631Y-56669825D01*
X190316731Y-56667919D01*
X190251698Y-56634711D01*
X190244590Y-56632972D01*
X190238947Y-56630873D01*
X190233184Y-56628956D01*
X190226556Y-56625858D01*
X190155089Y-56610993D01*
X190150805Y-56610023D01*
X190079896Y-56592672D01*
X190074294Y-56592324D01*
X190074291Y-56592324D01*
X190068742Y-56591980D01*
X190068744Y-56591944D01*
X190064751Y-56591705D01*
X190060559Y-56591331D01*
X190053391Y-56589840D01*
X189987181Y-56591631D01*
X189975985Y-56591934D01*
X189972578Y-56591980D01*
X170661189Y-56591980D01*
X170593068Y-56571978D01*
X170546575Y-56518322D01*
X170544015Y-56512156D01*
X170543767Y-56511704D01*
X170540615Y-56503295D01*
X170453261Y-56386739D01*
X170336705Y-56299385D01*
X170200316Y-56248255D01*
X170138134Y-56241500D01*
X168141866Y-56241500D01*
X168079684Y-56248255D01*
X167943295Y-56299385D01*
X167826739Y-56386739D01*
X167821358Y-56393919D01*
X167815008Y-56400269D01*
X167812761Y-56398022D01*
X167768456Y-56431143D01*
X167697637Y-56436162D01*
X167635347Y-56402097D01*
X167601362Y-56339762D01*
X167598500Y-56313059D01*
X167598500Y-55751866D01*
X167591745Y-55689684D01*
X167540615Y-55553295D01*
X167453261Y-55436739D01*
X167336705Y-55349385D01*
X167200316Y-55298255D01*
X167138134Y-55291500D01*
X166356371Y-55291500D01*
X166288250Y-55271498D01*
X166267276Y-55254595D01*
X165133770Y-54121089D01*
X165121384Y-54106677D01*
X165112851Y-54095082D01*
X165112846Y-54095077D01*
X165108508Y-54089182D01*
X165102930Y-54084443D01*
X165102927Y-54084440D01*
X165068232Y-54054965D01*
X165060716Y-54048035D01*
X165055021Y-54042340D01*
X165043183Y-54032974D01*
X165032749Y-54024719D01*
X165029345Y-54021928D01*
X164979297Y-53979409D01*
X164979295Y-53979408D01*
X164973715Y-53974667D01*
X164967199Y-53971339D01*
X164962150Y-53967972D01*
X164957021Y-53964805D01*
X164951284Y-53960266D01*
X164885125Y-53929345D01*
X164881225Y-53927439D01*
X164816192Y-53894231D01*
X164809084Y-53892492D01*
X164803441Y-53890393D01*
X164797678Y-53888476D01*
X164791050Y-53885378D01*
X164719583Y-53870513D01*
X164715299Y-53869543D01*
X164680958Y-53861140D01*
X164644390Y-53852192D01*
X164638788Y-53851844D01*
X164638785Y-53851844D01*
X164633236Y-53851500D01*
X164633238Y-53851464D01*
X164629245Y-53851225D01*
X164625053Y-53850851D01*
X164617885Y-53849360D01*
X164554120Y-53851085D01*
X164540479Y-53851454D01*
X164537072Y-53851500D01*
X160976371Y-53851500D01*
X160908250Y-53831498D01*
X160887276Y-53814595D01*
X160166752Y-53094071D01*
X160132726Y-53031759D01*
X160137791Y-52960944D01*
X160180338Y-52904108D01*
X160221960Y-52883619D01*
X160271463Y-52869798D01*
X160276967Y-52867018D01*
X160276969Y-52867017D01*
X160442493Y-52783405D01*
X160442495Y-52783404D01*
X160447996Y-52780625D01*
X160461973Y-52769705D01*
X160527967Y-52743525D01*
X160601020Y-52759004D01*
X160764121Y-52850159D01*
X160775356Y-52855067D01*
X160903768Y-52896790D01*
X160917867Y-52897193D01*
X160921000Y-52890821D01*
X160921000Y-52882564D01*
X161429000Y-52882564D01*
X161432973Y-52896095D01*
X161441188Y-52897276D01*
X161535337Y-52870989D01*
X161546787Y-52866548D01*
X161712226Y-52782979D01*
X161722585Y-52776404D01*
X161868639Y-52662295D01*
X161877527Y-52653831D01*
X161998643Y-52513517D01*
X162005711Y-52503497D01*
X162097262Y-52342337D01*
X162102256Y-52331121D01*
X162147142Y-52196190D01*
X162147643Y-52182097D01*
X162141454Y-52179000D01*
X161447115Y-52179000D01*
X161431876Y-52183475D01*
X161430671Y-52184865D01*
X161429000Y-52192548D01*
X161429000Y-52882564D01*
X160921000Y-52882564D01*
X160921000Y-51652885D01*
X161429000Y-51652885D01*
X161433475Y-51668124D01*
X161434865Y-51669329D01*
X161442548Y-51671000D01*
X162133183Y-51671000D01*
X162146714Y-51667027D01*
X162147806Y-51659433D01*
X162113231Y-51544919D01*
X162108560Y-51533586D01*
X162021540Y-51369923D01*
X162014751Y-51359706D01*
X161897603Y-51216067D01*
X161888959Y-51207363D01*
X161746144Y-51089216D01*
X161735973Y-51082356D01*
X161572924Y-50994196D01*
X161561619Y-50989444D01*
X161446308Y-50953750D01*
X161432205Y-50953544D01*
X161429000Y-50960299D01*
X161429000Y-51652885D01*
X160921000Y-51652885D01*
X160921000Y-50967076D01*
X160917027Y-50953545D01*
X160909232Y-50952425D01*
X160801479Y-50984138D01*
X160790111Y-50988731D01*
X160625846Y-51074607D01*
X160610426Y-51084697D01*
X160609003Y-51082522D01*
X160553864Y-51105314D01*
X160484005Y-51092657D01*
X160474055Y-51086839D01*
X160471675Y-51084870D01*
X160297701Y-50990802D01*
X160205684Y-50962318D01*
X160171648Y-50951782D01*
X160119812Y-50920512D01*
X159210389Y-50011089D01*
X159198003Y-49996677D01*
X159189470Y-49985082D01*
X159189465Y-49985077D01*
X159185127Y-49979182D01*
X159179549Y-49974443D01*
X159179546Y-49974440D01*
X159144851Y-49944965D01*
X159137335Y-49938035D01*
X159131640Y-49932340D01*
X159125499Y-49927482D01*
X159109368Y-49914719D01*
X159105964Y-49911928D01*
X159055916Y-49869409D01*
X159055914Y-49869408D01*
X159050334Y-49864667D01*
X159043818Y-49861339D01*
X159038769Y-49857972D01*
X159033640Y-49854805D01*
X159027903Y-49850266D01*
X158961744Y-49819345D01*
X158957844Y-49817439D01*
X158930936Y-49803699D01*
X158892811Y-49784231D01*
X158885703Y-49782492D01*
X158880060Y-49780393D01*
X158874297Y-49778476D01*
X158867669Y-49775378D01*
X158796202Y-49760513D01*
X158791918Y-49759543D01*
X158757577Y-49751140D01*
X158721009Y-49742192D01*
X158715407Y-49741844D01*
X158715404Y-49741844D01*
X158709855Y-49741500D01*
X158709857Y-49741464D01*
X158705864Y-49741225D01*
X158701672Y-49740851D01*
X158694504Y-49739360D01*
X158630739Y-49741085D01*
X158617098Y-49741454D01*
X158613691Y-49741500D01*
X146417070Y-49741500D01*
X146398120Y-49740067D01*
X146383885Y-49737901D01*
X146383881Y-49737901D01*
X146376651Y-49736801D01*
X146369359Y-49737394D01*
X146369356Y-49737394D01*
X146323982Y-49741085D01*
X146313767Y-49741500D01*
X146305707Y-49741500D01*
X146292417Y-49743049D01*
X146277493Y-49744789D01*
X146273118Y-49745222D01*
X146207661Y-49750546D01*
X146207658Y-49750547D01*
X146200363Y-49751140D01*
X146193400Y-49753396D01*
X146187454Y-49754584D01*
X146181587Y-49755971D01*
X146174319Y-49756818D01*
X146167443Y-49759314D01*
X146166719Y-49759485D01*
X146095824Y-49755689D01*
X146048640Y-49725959D01*
X145877249Y-49554568D01*
X192437382Y-49554568D01*
X192466208Y-49803699D01*
X192467587Y-49808573D01*
X192467588Y-49808577D01*
X192517534Y-49985082D01*
X192534494Y-50045017D01*
X192536628Y-50049592D01*
X192536630Y-50049599D01*
X192638347Y-50267731D01*
X192640484Y-50272313D01*
X192643326Y-50276494D01*
X192643326Y-50276495D01*
X192778605Y-50475552D01*
X192778608Y-50475556D01*
X192781451Y-50479739D01*
X192784928Y-50483416D01*
X192784929Y-50483417D01*
X192885238Y-50589491D01*
X192953767Y-50661959D01*
X192957793Y-50665037D01*
X192957794Y-50665038D01*
X193148981Y-50811212D01*
X193148985Y-50811215D01*
X193153001Y-50814285D01*
X193374026Y-50932797D01*
X193378807Y-50934443D01*
X193378811Y-50934445D01*
X193544882Y-50991628D01*
X193611156Y-51014448D01*
X193685423Y-51027276D01*
X193854380Y-51056460D01*
X193854386Y-51056461D01*
X193858290Y-51057135D01*
X193862251Y-51057315D01*
X193862252Y-51057315D01*
X193886931Y-51058436D01*
X193886950Y-51058436D01*
X193888350Y-51058500D01*
X194063015Y-51058500D01*
X194065523Y-51058298D01*
X194065528Y-51058298D01*
X194244944Y-51043863D01*
X194244949Y-51043862D01*
X194249985Y-51043457D01*
X194254893Y-51042252D01*
X194254896Y-51042251D01*
X194488625Y-50984841D01*
X194493539Y-50983634D01*
X194498191Y-50981659D01*
X194498195Y-50981658D01*
X194719741Y-50887617D01*
X194719742Y-50887617D01*
X194724396Y-50885641D01*
X194936615Y-50752000D01*
X195124738Y-50586147D01*
X195283924Y-50392351D01*
X195410078Y-50175596D01*
X195499955Y-49941461D01*
X195501319Y-49934936D01*
X195550206Y-49700921D01*
X195551241Y-49695967D01*
X195562618Y-49445432D01*
X195533792Y-49196301D01*
X195494810Y-49058539D01*
X195466884Y-48959852D01*
X195466883Y-48959850D01*
X195465506Y-48954983D01*
X195463372Y-48950408D01*
X195463370Y-48950401D01*
X195361653Y-48732269D01*
X195361651Y-48732265D01*
X195359516Y-48727687D01*
X195356674Y-48723505D01*
X195221395Y-48524448D01*
X195221392Y-48524444D01*
X195218549Y-48520261D01*
X195117925Y-48413853D01*
X195049713Y-48341721D01*
X195046233Y-48338041D01*
X195042206Y-48334962D01*
X194851019Y-48188788D01*
X194851015Y-48188785D01*
X194846999Y-48185715D01*
X194625974Y-48067203D01*
X194621193Y-48065557D01*
X194621189Y-48065555D01*
X194393633Y-47987201D01*
X194388844Y-47985552D01*
X194285311Y-47967669D01*
X194145620Y-47943540D01*
X194145614Y-47943539D01*
X194141710Y-47942865D01*
X194137749Y-47942685D01*
X194137748Y-47942685D01*
X194113069Y-47941564D01*
X194113050Y-47941564D01*
X194111650Y-47941500D01*
X193936985Y-47941500D01*
X193934477Y-47941702D01*
X193934472Y-47941702D01*
X193755056Y-47956137D01*
X193755051Y-47956138D01*
X193750015Y-47956543D01*
X193745107Y-47957748D01*
X193745104Y-47957749D01*
X193513326Y-48014680D01*
X193506461Y-48016366D01*
X193501809Y-48018341D01*
X193501805Y-48018342D01*
X193381061Y-48069595D01*
X193275604Y-48114359D01*
X193063385Y-48248000D01*
X192875262Y-48413853D01*
X192716076Y-48607649D01*
X192589922Y-48824404D01*
X192588109Y-48829127D01*
X192588108Y-48829129D01*
X192541556Y-48950401D01*
X192500045Y-49058539D01*
X192448759Y-49304033D01*
X192437382Y-49554568D01*
X145877249Y-49554568D01*
X145363770Y-49041089D01*
X145351384Y-49026677D01*
X145342851Y-49015082D01*
X145342846Y-49015077D01*
X145338508Y-49009182D01*
X145332930Y-49004443D01*
X145332927Y-49004440D01*
X145298232Y-48974965D01*
X145290716Y-48968035D01*
X145285021Y-48962340D01*
X145275722Y-48954983D01*
X145262749Y-48944719D01*
X145259345Y-48941928D01*
X145209297Y-48899409D01*
X145209295Y-48899408D01*
X145203715Y-48894667D01*
X145197199Y-48891339D01*
X145192150Y-48887972D01*
X145187021Y-48884805D01*
X145181284Y-48880266D01*
X145115125Y-48849345D01*
X145111225Y-48847439D01*
X145046192Y-48814231D01*
X145039084Y-48812492D01*
X145033441Y-48810393D01*
X145027678Y-48808476D01*
X145021050Y-48805378D01*
X144949583Y-48790513D01*
X144945299Y-48789543D01*
X144874390Y-48772192D01*
X144868788Y-48771844D01*
X144868785Y-48771844D01*
X144863236Y-48771500D01*
X144863238Y-48771464D01*
X144859245Y-48771225D01*
X144855053Y-48770851D01*
X144847885Y-48769360D01*
X144784120Y-48771085D01*
X144770479Y-48771454D01*
X144767072Y-48771500D01*
X137227070Y-48771500D01*
X137208120Y-48770067D01*
X137193885Y-48767901D01*
X137193881Y-48767901D01*
X137186651Y-48766801D01*
X137179359Y-48767394D01*
X137179356Y-48767394D01*
X137133982Y-48771085D01*
X137123767Y-48771500D01*
X137115707Y-48771500D01*
X137112073Y-48771924D01*
X137112067Y-48771924D01*
X137099042Y-48773443D01*
X137087480Y-48774791D01*
X137083132Y-48775221D01*
X137010364Y-48781140D01*
X137003403Y-48783395D01*
X136997463Y-48784582D01*
X136991588Y-48785971D01*
X136984319Y-48786818D01*
X136915670Y-48811736D01*
X136911542Y-48813153D01*
X136849064Y-48833393D01*
X136849062Y-48833394D01*
X136842101Y-48835649D01*
X136835846Y-48839445D01*
X136830372Y-48841951D01*
X136824942Y-48844670D01*
X136818063Y-48847167D01*
X136811943Y-48851180D01*
X136811942Y-48851180D01*
X136757024Y-48887186D01*
X136753320Y-48889523D01*
X136690893Y-48927405D01*
X136682516Y-48934803D01*
X136682492Y-48934776D01*
X136679500Y-48937429D01*
X136676267Y-48940132D01*
X136670148Y-48944144D01*
X136640951Y-48974965D01*
X136616872Y-49000383D01*
X136614494Y-49002825D01*
X134761089Y-50856230D01*
X134746677Y-50868616D01*
X134735082Y-50877149D01*
X134735077Y-50877154D01*
X134729182Y-50881492D01*
X134724443Y-50887070D01*
X134724440Y-50887073D01*
X134701081Y-50914569D01*
X134642647Y-50952933D01*
X134639684Y-50953255D01*
X134503295Y-51004385D01*
X134386739Y-51091739D01*
X134299385Y-51208295D01*
X134248255Y-51344684D01*
X134241500Y-51406866D01*
X134241500Y-51838629D01*
X134221498Y-51906750D01*
X134204595Y-51927724D01*
X131464089Y-54668230D01*
X131449677Y-54680616D01*
X131438082Y-54689149D01*
X131438077Y-54689154D01*
X131432182Y-54693492D01*
X131427443Y-54699070D01*
X131427440Y-54699073D01*
X131397965Y-54733768D01*
X131391035Y-54741284D01*
X131385340Y-54746979D01*
X131383060Y-54749861D01*
X131367719Y-54769251D01*
X131364928Y-54772655D01*
X131341233Y-54800546D01*
X131317667Y-54828285D01*
X131314339Y-54834801D01*
X131310972Y-54839850D01*
X131307805Y-54844979D01*
X131303266Y-54850716D01*
X131272345Y-54916875D01*
X131270442Y-54920769D01*
X131237231Y-54985808D01*
X131235492Y-54992916D01*
X131233393Y-54998559D01*
X131231476Y-55004322D01*
X131228378Y-55010950D01*
X131226888Y-55018112D01*
X131226888Y-55018113D01*
X131213514Y-55082412D01*
X131212544Y-55086696D01*
X131195192Y-55157610D01*
X131194844Y-55163212D01*
X131194844Y-55163215D01*
X131194526Y-55168344D01*
X131194500Y-55168764D01*
X131194464Y-55168762D01*
X131194225Y-55172755D01*
X131193851Y-55176947D01*
X131192360Y-55184115D01*
X131192558Y-55191432D01*
X131194454Y-55261521D01*
X131194500Y-55264928D01*
X131194500Y-62035930D01*
X131193067Y-62054880D01*
X131189801Y-62076349D01*
X131190394Y-62083641D01*
X131190394Y-62083644D01*
X131194085Y-62129018D01*
X131194500Y-62139233D01*
X131194500Y-62147293D01*
X131194925Y-62150937D01*
X131197789Y-62175507D01*
X131198222Y-62179882D01*
X131202299Y-62230000D01*
X131204140Y-62252637D01*
X131206396Y-62259601D01*
X131207587Y-62265560D01*
X131208971Y-62271415D01*
X131209818Y-62278681D01*
X131234735Y-62347327D01*
X131236152Y-62351455D01*
X131258649Y-62420899D01*
X131262445Y-62427154D01*
X131264951Y-62432628D01*
X131267670Y-62438058D01*
X131270167Y-62444937D01*
X131274180Y-62451057D01*
X131274180Y-62451058D01*
X131310186Y-62505976D01*
X131312523Y-62509680D01*
X131350405Y-62572107D01*
X131354121Y-62576315D01*
X131354122Y-62576316D01*
X131357803Y-62580484D01*
X131357776Y-62580508D01*
X131360429Y-62583500D01*
X131363132Y-62586733D01*
X131367144Y-62592852D01*
X131372456Y-62597884D01*
X131423383Y-62646128D01*
X131425825Y-62648506D01*
X135094595Y-66317276D01*
X135128621Y-66379588D01*
X135131500Y-66406371D01*
X135131500Y-70753629D01*
X135111498Y-70821750D01*
X135094595Y-70842724D01*
X134882990Y-71054329D01*
X134820678Y-71088355D01*
X134782913Y-71090755D01*
X134625475Y-71076981D01*
X134620000Y-71076502D01*
X134391913Y-71096457D01*
X134386600Y-71097881D01*
X134386598Y-71097881D01*
X134176067Y-71154293D01*
X134176065Y-71154294D01*
X134170757Y-71155716D01*
X134165776Y-71158039D01*
X134165775Y-71158039D01*
X133968238Y-71250151D01*
X133968233Y-71250154D01*
X133963251Y-71252477D01*
X133913306Y-71287449D01*
X133780211Y-71380643D01*
X133780208Y-71380645D01*
X133775700Y-71383802D01*
X133613802Y-71545700D01*
X133482477Y-71733251D01*
X133480154Y-71738233D01*
X133480151Y-71738238D01*
X133397538Y-71915405D01*
X133385716Y-71940757D01*
X133384294Y-71946065D01*
X133384293Y-71946067D01*
X133334162Y-72133158D01*
X133326457Y-72161913D01*
X133306502Y-72390000D01*
X133326457Y-72618087D01*
X133327881Y-72623400D01*
X133327881Y-72623402D01*
X133337031Y-72657548D01*
X133385716Y-72839243D01*
X133388039Y-72844224D01*
X133388039Y-72844225D01*
X133480151Y-73041762D01*
X133480154Y-73041767D01*
X133482477Y-73046749D01*
X133485634Y-73051257D01*
X133602200Y-73217730D01*
X133613802Y-73234300D01*
X133775700Y-73396198D01*
X133780208Y-73399355D01*
X133780211Y-73399357D01*
X133858389Y-73454098D01*
X133963251Y-73527523D01*
X133968233Y-73529846D01*
X133968238Y-73529849D01*
X134165775Y-73621961D01*
X134170757Y-73624284D01*
X134176065Y-73625706D01*
X134176067Y-73625707D01*
X134386598Y-73682119D01*
X134386600Y-73682119D01*
X134391913Y-73683543D01*
X134620000Y-73703498D01*
X134848087Y-73683543D01*
X134853400Y-73682119D01*
X134853402Y-73682119D01*
X135063933Y-73625707D01*
X135063935Y-73625706D01*
X135069243Y-73624284D01*
X135074225Y-73621961D01*
X135271762Y-73529849D01*
X135271767Y-73529846D01*
X135276749Y-73527523D01*
X135381611Y-73454098D01*
X135459789Y-73399357D01*
X135459792Y-73399355D01*
X135464300Y-73396198D01*
X135626198Y-73234300D01*
X135648655Y-73202229D01*
X135704110Y-73157901D01*
X135751867Y-73148500D01*
X139838133Y-73148500D01*
X139906254Y-73168502D01*
X139941345Y-73202228D01*
X139963802Y-73234300D01*
X140125700Y-73396198D01*
X140130208Y-73399355D01*
X140130211Y-73399357D01*
X140208389Y-73454098D01*
X140313251Y-73527523D01*
X140318233Y-73529846D01*
X140318238Y-73529849D01*
X140515775Y-73621961D01*
X140520757Y-73624284D01*
X140526065Y-73625706D01*
X140526067Y-73625707D01*
X140736598Y-73682119D01*
X140736600Y-73682119D01*
X140741913Y-73683543D01*
X140970000Y-73703498D01*
X141198087Y-73683543D01*
X141203400Y-73682119D01*
X141203402Y-73682119D01*
X141413933Y-73625707D01*
X141413935Y-73625706D01*
X141419243Y-73624284D01*
X141424225Y-73621961D01*
X141621762Y-73529849D01*
X141621767Y-73529846D01*
X141626749Y-73527523D01*
X141731611Y-73454098D01*
X141809789Y-73399357D01*
X141809792Y-73399355D01*
X141814300Y-73396198D01*
X141976198Y-73234300D01*
X141998655Y-73202229D01*
X142054110Y-73157901D01*
X142101867Y-73148500D01*
X147236401Y-73148500D01*
X147304522Y-73168502D01*
X147339613Y-73202228D01*
X147362070Y-73234300D01*
X147523968Y-73396198D01*
X147528476Y-73399355D01*
X147528479Y-73399357D01*
X147606657Y-73454098D01*
X147711519Y-73527523D01*
X147716501Y-73529846D01*
X147716506Y-73529849D01*
X147914043Y-73621961D01*
X147919025Y-73624284D01*
X147924333Y-73625706D01*
X147924335Y-73625707D01*
X148134866Y-73682119D01*
X148134868Y-73682119D01*
X148140181Y-73683543D01*
X148368268Y-73703498D01*
X148596355Y-73683543D01*
X148601668Y-73682119D01*
X148601670Y-73682119D01*
X148812201Y-73625707D01*
X148812203Y-73625706D01*
X148817511Y-73624284D01*
X148822493Y-73621961D01*
X149020030Y-73529849D01*
X149020035Y-73529846D01*
X149025017Y-73527523D01*
X149129879Y-73454098D01*
X149208057Y-73399357D01*
X149208060Y-73399355D01*
X149212568Y-73396198D01*
X149374466Y-73234300D01*
X149396923Y-73202229D01*
X149452378Y-73157901D01*
X149500135Y-73148500D01*
X153808133Y-73148500D01*
X153876254Y-73168502D01*
X153911345Y-73202228D01*
X153933802Y-73234300D01*
X154095700Y-73396198D01*
X154100208Y-73399355D01*
X154100211Y-73399357D01*
X154178389Y-73454098D01*
X154283251Y-73527523D01*
X154288233Y-73529846D01*
X154288238Y-73529849D01*
X154485775Y-73621961D01*
X154490757Y-73624284D01*
X154496065Y-73625706D01*
X154496067Y-73625707D01*
X154706598Y-73682119D01*
X154706600Y-73682119D01*
X154711913Y-73683543D01*
X154940000Y-73703498D01*
X155168087Y-73683543D01*
X155173400Y-73682119D01*
X155173402Y-73682119D01*
X155383933Y-73625707D01*
X155383935Y-73625706D01*
X155389243Y-73624284D01*
X155394225Y-73621961D01*
X155591762Y-73529849D01*
X155591767Y-73529846D01*
X155596749Y-73527523D01*
X155701611Y-73454098D01*
X155779789Y-73399357D01*
X155779792Y-73399355D01*
X155784300Y-73396198D01*
X155946198Y-73234300D01*
X155968655Y-73202229D01*
X156024110Y-73157901D01*
X156071867Y-73148500D01*
X160158133Y-73148500D01*
X160226254Y-73168502D01*
X160261345Y-73202228D01*
X160283802Y-73234300D01*
X160445700Y-73396198D01*
X160450208Y-73399355D01*
X160450211Y-73399357D01*
X160528389Y-73454098D01*
X160633251Y-73527523D01*
X160638233Y-73529846D01*
X160638238Y-73529849D01*
X160835775Y-73621961D01*
X160840757Y-73624284D01*
X160846065Y-73625706D01*
X160846067Y-73625707D01*
X161056598Y-73682119D01*
X161056600Y-73682119D01*
X161061913Y-73683543D01*
X161290000Y-73703498D01*
X161518087Y-73683543D01*
X161523400Y-73682119D01*
X161523402Y-73682119D01*
X161733933Y-73625707D01*
X161733935Y-73625706D01*
X161739243Y-73624284D01*
X161744225Y-73621961D01*
X161941762Y-73529849D01*
X161941767Y-73529846D01*
X161946749Y-73527523D01*
X162051611Y-73454098D01*
X162129789Y-73399357D01*
X162129792Y-73399355D01*
X162134300Y-73396198D01*
X162296198Y-73234300D01*
X162318655Y-73202229D01*
X162374110Y-73157901D01*
X162421867Y-73148500D01*
X166508133Y-73148500D01*
X166576254Y-73168502D01*
X166611345Y-73202228D01*
X166633802Y-73234300D01*
X166795700Y-73396198D01*
X166800208Y-73399355D01*
X166800211Y-73399357D01*
X166878389Y-73454098D01*
X166983251Y-73527523D01*
X166988233Y-73529846D01*
X166988238Y-73529849D01*
X167185775Y-73621961D01*
X167190757Y-73624284D01*
X167196065Y-73625706D01*
X167196067Y-73625707D01*
X167406598Y-73682119D01*
X167406600Y-73682119D01*
X167411913Y-73683543D01*
X167640000Y-73703498D01*
X167868087Y-73683543D01*
X167873400Y-73682119D01*
X167873402Y-73682119D01*
X168083933Y-73625707D01*
X168083935Y-73625706D01*
X168089243Y-73624284D01*
X168094225Y-73621961D01*
X168291762Y-73529849D01*
X168291767Y-73529846D01*
X168296749Y-73527523D01*
X168401611Y-73454098D01*
X168479789Y-73399357D01*
X168479792Y-73399355D01*
X168484300Y-73396198D01*
X168646198Y-73234300D01*
X168657801Y-73217730D01*
X168774366Y-73051257D01*
X168777523Y-73046749D01*
X168779846Y-73041767D01*
X168779849Y-73041762D01*
X168871961Y-72844225D01*
X168871961Y-72844224D01*
X168874284Y-72839243D01*
X168922970Y-72657548D01*
X168932119Y-72623402D01*
X168932119Y-72623400D01*
X168933543Y-72618087D01*
X168953498Y-72390000D01*
X168933543Y-72161913D01*
X168925838Y-72133158D01*
X168875707Y-71946067D01*
X168875706Y-71946065D01*
X168874284Y-71940757D01*
X168862462Y-71915405D01*
X168779849Y-71738238D01*
X168779846Y-71738233D01*
X168777523Y-71733251D01*
X168646198Y-71545700D01*
X168484300Y-71383802D01*
X168479792Y-71380645D01*
X168479789Y-71380643D01*
X168346694Y-71287449D01*
X168296749Y-71252477D01*
X168291767Y-71250154D01*
X168291762Y-71250151D01*
X168094225Y-71158039D01*
X168094224Y-71158039D01*
X168089243Y-71155716D01*
X168083935Y-71154294D01*
X168083933Y-71154293D01*
X167873402Y-71097881D01*
X167873400Y-71097881D01*
X167868087Y-71096457D01*
X167640000Y-71076502D01*
X167411913Y-71096457D01*
X167406600Y-71097881D01*
X167406598Y-71097881D01*
X167196067Y-71154293D01*
X167196065Y-71154294D01*
X167190757Y-71155716D01*
X167185776Y-71158039D01*
X167185775Y-71158039D01*
X166988238Y-71250151D01*
X166988233Y-71250154D01*
X166983251Y-71252477D01*
X166933306Y-71287449D01*
X166800211Y-71380643D01*
X166800208Y-71380645D01*
X166795700Y-71383802D01*
X166633802Y-71545700D01*
X166611345Y-71577771D01*
X166555890Y-71622099D01*
X166508133Y-71631500D01*
X162421867Y-71631500D01*
X162353746Y-71611498D01*
X162318655Y-71577772D01*
X162296198Y-71545700D01*
X162134300Y-71383802D01*
X162129792Y-71380645D01*
X162129789Y-71380643D01*
X161996694Y-71287449D01*
X161946749Y-71252477D01*
X161941767Y-71250154D01*
X161941762Y-71250151D01*
X161744225Y-71158039D01*
X161744224Y-71158039D01*
X161739243Y-71155716D01*
X161733935Y-71154294D01*
X161733933Y-71154293D01*
X161523402Y-71097881D01*
X161523400Y-71097881D01*
X161518087Y-71096457D01*
X161290000Y-71076502D01*
X161061913Y-71096457D01*
X161056600Y-71097881D01*
X161056598Y-71097881D01*
X160846067Y-71154293D01*
X160846065Y-71154294D01*
X160840757Y-71155716D01*
X160835776Y-71158039D01*
X160835775Y-71158039D01*
X160638238Y-71250151D01*
X160638233Y-71250154D01*
X160633251Y-71252477D01*
X160583306Y-71287449D01*
X160450211Y-71380643D01*
X160450208Y-71380645D01*
X160445700Y-71383802D01*
X160283802Y-71545700D01*
X160261345Y-71577771D01*
X160205890Y-71622099D01*
X160158133Y-71631500D01*
X156071867Y-71631500D01*
X156003746Y-71611498D01*
X155968655Y-71577772D01*
X155946198Y-71545700D01*
X155784300Y-71383802D01*
X155779792Y-71380645D01*
X155779789Y-71380643D01*
X155646694Y-71287449D01*
X155596749Y-71252477D01*
X155591767Y-71250154D01*
X155591762Y-71250151D01*
X155394225Y-71158039D01*
X155394224Y-71158039D01*
X155389243Y-71155716D01*
X155383935Y-71154294D01*
X155383933Y-71154293D01*
X155173402Y-71097881D01*
X155173400Y-71097881D01*
X155168087Y-71096457D01*
X154940000Y-71076502D01*
X154711913Y-71096457D01*
X154706600Y-71097881D01*
X154706598Y-71097881D01*
X154496067Y-71154293D01*
X154496065Y-71154294D01*
X154490757Y-71155716D01*
X154485776Y-71158039D01*
X154485775Y-71158039D01*
X154288238Y-71250151D01*
X154288233Y-71250154D01*
X154283251Y-71252477D01*
X154233306Y-71287449D01*
X154100211Y-71380643D01*
X154100208Y-71380645D01*
X154095700Y-71383802D01*
X153933802Y-71545700D01*
X153911345Y-71577771D01*
X153855890Y-71622099D01*
X153808133Y-71631500D01*
X149500135Y-71631500D01*
X149432014Y-71611498D01*
X149396923Y-71577772D01*
X149374466Y-71545700D01*
X149212568Y-71383802D01*
X149208060Y-71380645D01*
X149208057Y-71380643D01*
X149074962Y-71287449D01*
X149025017Y-71252477D01*
X149020035Y-71250154D01*
X149020030Y-71250151D01*
X148822493Y-71158039D01*
X148822492Y-71158039D01*
X148817511Y-71155716D01*
X148812203Y-71154294D01*
X148812201Y-71154293D01*
X148601670Y-71097881D01*
X148601668Y-71097881D01*
X148596355Y-71096457D01*
X148368268Y-71076502D01*
X148140181Y-71096457D01*
X148134868Y-71097881D01*
X148134866Y-71097881D01*
X147924335Y-71154293D01*
X147924333Y-71154294D01*
X147919025Y-71155716D01*
X147914044Y-71158039D01*
X147914043Y-71158039D01*
X147716506Y-71250151D01*
X147716501Y-71250154D01*
X147711519Y-71252477D01*
X147661574Y-71287449D01*
X147528479Y-71380643D01*
X147528476Y-71380645D01*
X147523968Y-71383802D01*
X147362070Y-71545700D01*
X147339613Y-71577771D01*
X147284158Y-71622099D01*
X147236401Y-71631500D01*
X142101867Y-71631500D01*
X142033746Y-71611498D01*
X141998655Y-71577772D01*
X141976198Y-71545700D01*
X141814300Y-71383802D01*
X141809792Y-71380645D01*
X141809789Y-71380643D01*
X141676694Y-71287449D01*
X141626749Y-71252477D01*
X141621767Y-71250154D01*
X141621762Y-71250151D01*
X141424225Y-71158039D01*
X141424224Y-71158039D01*
X141419243Y-71155716D01*
X141413935Y-71154294D01*
X141413933Y-71154293D01*
X141203402Y-71097881D01*
X141203400Y-71097881D01*
X141198087Y-71096457D01*
X140970000Y-71076502D01*
X140741913Y-71096457D01*
X140736600Y-71097881D01*
X140736598Y-71097881D01*
X140526067Y-71154293D01*
X140526065Y-71154294D01*
X140520757Y-71155716D01*
X140515776Y-71158039D01*
X140515775Y-71158039D01*
X140318238Y-71250151D01*
X140318233Y-71250154D01*
X140313251Y-71252477D01*
X140263306Y-71287449D01*
X140130211Y-71380643D01*
X140130208Y-71380645D01*
X140125700Y-71383802D01*
X139963802Y-71545700D01*
X139941345Y-71577771D01*
X139885890Y-71622099D01*
X139838133Y-71631500D01*
X136686323Y-71631500D01*
X136618202Y-71611498D01*
X136571709Y-71557842D01*
X136561605Y-71487568D01*
X136574107Y-71448198D01*
X136602439Y-71392714D01*
X136602440Y-71392712D01*
X136605769Y-71386192D01*
X136607508Y-71379085D01*
X136609607Y-71373441D01*
X136611524Y-71367678D01*
X136614622Y-71361050D01*
X136616845Y-71350365D01*
X136629486Y-71289588D01*
X136630457Y-71285299D01*
X136638488Y-71252477D01*
X136647808Y-71214390D01*
X136648500Y-71203236D01*
X136648536Y-71203238D01*
X136648775Y-71199245D01*
X136649149Y-71195053D01*
X136650640Y-71187885D01*
X136648546Y-71110479D01*
X136648500Y-71107072D01*
X136648500Y-66377967D01*
X136666493Y-66314588D01*
X136666734Y-66314284D01*
X136697655Y-66248125D01*
X136699561Y-66244225D01*
X136710433Y-66222934D01*
X136732769Y-66179192D01*
X136734508Y-66172084D01*
X136736607Y-66166441D01*
X136738524Y-66160678D01*
X136741622Y-66154050D01*
X136756487Y-66082583D01*
X136757457Y-66078299D01*
X136773473Y-66012845D01*
X136774808Y-66007390D01*
X136775500Y-65996236D01*
X136775536Y-65996238D01*
X136775775Y-65992245D01*
X136776149Y-65988053D01*
X136777640Y-65980885D01*
X136775546Y-65903479D01*
X136775500Y-65900072D01*
X136775500Y-61250158D01*
X136795502Y-61182037D01*
X136849158Y-61135544D01*
X136919432Y-61125440D01*
X136984012Y-61154934D01*
X136990595Y-61161063D01*
X144898443Y-69068911D01*
X144910829Y-69083323D01*
X144919362Y-69094918D01*
X144919367Y-69094923D01*
X144923705Y-69100818D01*
X144929283Y-69105557D01*
X144929286Y-69105560D01*
X144963981Y-69135035D01*
X144971497Y-69141965D01*
X144977192Y-69147660D01*
X144980074Y-69149940D01*
X144999464Y-69165281D01*
X145002868Y-69168072D01*
X145052916Y-69210591D01*
X145058498Y-69215333D01*
X145065014Y-69218661D01*
X145070063Y-69222028D01*
X145075192Y-69225195D01*
X145080929Y-69229734D01*
X145147088Y-69260655D01*
X145150982Y-69262558D01*
X145216021Y-69295769D01*
X145223129Y-69297508D01*
X145228772Y-69299607D01*
X145234535Y-69301524D01*
X145241163Y-69304622D01*
X145248325Y-69306112D01*
X145248326Y-69306112D01*
X145312625Y-69319486D01*
X145316909Y-69320456D01*
X145387823Y-69337808D01*
X145393425Y-69338156D01*
X145393428Y-69338156D01*
X145398977Y-69338500D01*
X145398975Y-69338536D01*
X145402968Y-69338775D01*
X145407160Y-69339149D01*
X145414328Y-69340640D01*
X145491733Y-69338546D01*
X145495141Y-69338500D01*
X183224647Y-69338500D01*
X183292768Y-69358502D01*
X183339261Y-69412158D01*
X183349365Y-69482432D01*
X183319871Y-69547012D01*
X183313742Y-69553595D01*
X156012253Y-96855084D01*
X155949941Y-96889110D01*
X155923158Y-96891989D01*
X153588082Y-96891989D01*
X153569134Y-96890556D01*
X153561793Y-96889439D01*
X153554896Y-96888390D01*
X153554894Y-96888390D01*
X153547664Y-96887290D01*
X153540372Y-96887883D01*
X153540369Y-96887883D01*
X153494995Y-96891574D01*
X153484780Y-96891989D01*
X153476720Y-96891989D01*
X153463430Y-96893538D01*
X153448506Y-96895278D01*
X153444131Y-96895711D01*
X153378674Y-96901035D01*
X153378671Y-96901036D01*
X153371376Y-96901629D01*
X153364412Y-96903885D01*
X153358453Y-96905076D01*
X153352598Y-96906460D01*
X153345332Y-96907307D01*
X153276686Y-96932224D01*
X153272558Y-96933641D01*
X153210077Y-96953882D01*
X153210075Y-96953883D01*
X153203114Y-96956138D01*
X153196859Y-96959934D01*
X153191385Y-96962440D01*
X153185955Y-96965159D01*
X153179076Y-96967656D01*
X153118029Y-97007680D01*
X153114340Y-97010007D01*
X153094148Y-97022260D01*
X153056706Y-97044980D01*
X153056701Y-97044984D01*
X153051905Y-97047894D01*
X153043529Y-97055292D01*
X153043506Y-97055266D01*
X153040516Y-97057915D01*
X153037277Y-97060623D01*
X153031161Y-97064633D01*
X153026134Y-97069940D01*
X153026130Y-97069943D01*
X152977885Y-97120872D01*
X152975507Y-97123314D01*
X151511089Y-98587732D01*
X151496677Y-98600118D01*
X151485082Y-98608651D01*
X151485077Y-98608656D01*
X151479182Y-98612994D01*
X151474443Y-98618572D01*
X151474440Y-98618575D01*
X151444965Y-98653270D01*
X151438035Y-98660786D01*
X151432340Y-98666481D01*
X151430060Y-98669363D01*
X151414719Y-98688753D01*
X151411928Y-98692157D01*
X151400748Y-98705317D01*
X151364667Y-98747787D01*
X151361339Y-98754303D01*
X151357972Y-98759352D01*
X151354805Y-98764481D01*
X151350266Y-98770218D01*
X151319345Y-98836377D01*
X151317442Y-98840271D01*
X151284231Y-98905310D01*
X151282492Y-98912418D01*
X151280393Y-98918061D01*
X151278476Y-98923824D01*
X151275378Y-98930452D01*
X151261148Y-98998868D01*
X151260514Y-99001914D01*
X151259544Y-99006198D01*
X151242192Y-99077112D01*
X151241500Y-99088266D01*
X151241464Y-99088264D01*
X151241225Y-99092257D01*
X151240851Y-99096449D01*
X151239360Y-99103617D01*
X151241151Y-99169827D01*
X151241454Y-99181023D01*
X151241500Y-99184430D01*
X151241500Y-100633629D01*
X151221498Y-100701750D01*
X151204595Y-100722724D01*
X149882235Y-102045084D01*
X149819923Y-102079110D01*
X149793140Y-102081989D01*
X129636581Y-102081989D01*
X129617631Y-102080556D01*
X129603396Y-102078390D01*
X129603392Y-102078390D01*
X129596162Y-102077290D01*
X129588870Y-102077883D01*
X129588867Y-102077883D01*
X129543493Y-102081574D01*
X129533278Y-102081989D01*
X129525218Y-102081989D01*
X129511928Y-102083538D01*
X129497004Y-102085278D01*
X129492629Y-102085711D01*
X129427172Y-102091035D01*
X129427169Y-102091036D01*
X129419874Y-102091629D01*
X129412910Y-102093885D01*
X129406951Y-102095076D01*
X129401096Y-102096460D01*
X129393830Y-102097307D01*
X129325184Y-102122224D01*
X129321056Y-102123641D01*
X129258575Y-102143882D01*
X129258573Y-102143883D01*
X129251612Y-102146138D01*
X129245357Y-102149934D01*
X129239883Y-102152440D01*
X129234453Y-102155159D01*
X129227574Y-102157656D01*
X129221454Y-102161669D01*
X129221453Y-102161669D01*
X129166535Y-102197675D01*
X129162831Y-102200012D01*
X129100404Y-102237894D01*
X129092027Y-102245292D01*
X129092003Y-102245265D01*
X129089011Y-102247918D01*
X129085778Y-102250621D01*
X129079659Y-102254633D01*
X129074627Y-102259945D01*
X129026383Y-102310872D01*
X129024005Y-102313314D01*
X128532990Y-102804329D01*
X128470678Y-102838355D01*
X128432913Y-102840755D01*
X128275475Y-102826981D01*
X128270000Y-102826502D01*
X128041913Y-102846457D01*
X128036600Y-102847881D01*
X128036598Y-102847881D01*
X127826067Y-102904293D01*
X127826065Y-102904294D01*
X127820757Y-102905716D01*
X127815776Y-102908039D01*
X127815775Y-102908039D01*
X127618238Y-103000151D01*
X127618233Y-103000154D01*
X127613251Y-103002477D01*
X127508389Y-103075902D01*
X127430211Y-103130643D01*
X127430208Y-103130645D01*
X127425700Y-103133802D01*
X127263802Y-103295700D01*
X127132477Y-103483251D01*
X127130154Y-103488233D01*
X127130151Y-103488238D01*
X127078508Y-103598989D01*
X127035716Y-103690757D01*
X127034294Y-103696065D01*
X127034293Y-103696067D01*
X127017805Y-103757600D01*
X126976457Y-103911913D01*
X126956502Y-104140000D01*
X121008500Y-104140000D01*
X121008500Y-100086062D01*
X143198493Y-100086062D01*
X143207789Y-100098077D01*
X143258994Y-100133931D01*
X143268489Y-100139414D01*
X143465947Y-100231490D01*
X143476239Y-100235236D01*
X143686688Y-100291625D01*
X143697481Y-100293528D01*
X143914525Y-100312517D01*
X143925475Y-100312517D01*
X144142519Y-100293528D01*
X144153312Y-100291625D01*
X144363761Y-100235236D01*
X144374053Y-100231490D01*
X144571511Y-100139414D01*
X144581006Y-100133931D01*
X144633048Y-100097491D01*
X144641424Y-100087012D01*
X144634356Y-100073566D01*
X143932812Y-99372022D01*
X143918868Y-99364408D01*
X143917035Y-99364539D01*
X143910420Y-99368790D01*
X143204923Y-100074287D01*
X143198493Y-100086062D01*
X121008500Y-100086062D01*
X121008500Y-97957977D01*
X122326541Y-97957977D01*
X122346496Y-98186064D01*
X122347920Y-98191377D01*
X122347920Y-98191379D01*
X122388254Y-98341904D01*
X122405755Y-98407220D01*
X122408078Y-98412201D01*
X122408078Y-98412202D01*
X122500190Y-98609739D01*
X122500193Y-98609744D01*
X122502516Y-98614726D01*
X122556734Y-98692157D01*
X122629472Y-98796037D01*
X122633841Y-98802277D01*
X122795739Y-98964175D01*
X122800247Y-98967332D01*
X122800250Y-98967334D01*
X122878428Y-99022075D01*
X122983290Y-99095500D01*
X122988272Y-99097823D01*
X122988277Y-99097826D01*
X123172432Y-99183698D01*
X123190796Y-99192261D01*
X123196104Y-99193683D01*
X123196106Y-99193684D01*
X123406637Y-99250096D01*
X123406639Y-99250096D01*
X123411952Y-99251520D01*
X123640039Y-99271475D01*
X123868126Y-99251520D01*
X123873439Y-99250096D01*
X123873441Y-99250096D01*
X124083972Y-99193684D01*
X124083974Y-99193683D01*
X124089282Y-99192261D01*
X124107646Y-99183698D01*
X124291801Y-99097826D01*
X124291806Y-99097823D01*
X124296788Y-99095500D01*
X124401650Y-99022075D01*
X124479828Y-98967334D01*
X124479831Y-98967332D01*
X124484339Y-98964175D01*
X124646237Y-98802277D01*
X124650607Y-98796037D01*
X124723344Y-98692157D01*
X124777562Y-98614726D01*
X124779885Y-98609744D01*
X124779888Y-98609739D01*
X124872000Y-98412202D01*
X124872000Y-98412201D01*
X124874323Y-98407220D01*
X124891825Y-98341904D01*
X124932158Y-98191379D01*
X124932158Y-98191377D01*
X124933582Y-98186064D01*
X124953537Y-97957977D01*
X124952991Y-97951737D01*
X128474120Y-97951737D01*
X128494075Y-98179824D01*
X128495499Y-98185137D01*
X128495499Y-98185139D01*
X128537505Y-98341904D01*
X128553334Y-98400980D01*
X128555657Y-98405961D01*
X128555657Y-98405962D01*
X128647769Y-98603499D01*
X128647772Y-98603504D01*
X128650095Y-98608486D01*
X128666007Y-98631210D01*
X128760870Y-98766688D01*
X128781420Y-98796037D01*
X128943318Y-98957935D01*
X128947826Y-98961092D01*
X128947829Y-98961094D01*
X129006126Y-99001914D01*
X129130869Y-99089260D01*
X129135851Y-99091583D01*
X129135856Y-99091586D01*
X129331302Y-99182723D01*
X129338375Y-99186021D01*
X129343683Y-99187443D01*
X129343685Y-99187444D01*
X129554216Y-99243856D01*
X129554218Y-99243856D01*
X129559531Y-99245280D01*
X129787618Y-99265235D01*
X130015705Y-99245280D01*
X130021018Y-99243856D01*
X130021020Y-99243856D01*
X130231551Y-99187444D01*
X130231553Y-99187443D01*
X130236861Y-99186021D01*
X130243934Y-99182723D01*
X130439380Y-99091586D01*
X130439385Y-99091583D01*
X130444367Y-99089260D01*
X130569110Y-99001914D01*
X130627407Y-98961094D01*
X130627410Y-98961092D01*
X130631918Y-98957935D01*
X130793816Y-98796037D01*
X130814367Y-98766688D01*
X130909229Y-98631210D01*
X130925141Y-98608486D01*
X130927464Y-98603504D01*
X130927467Y-98603499D01*
X131019579Y-98405962D01*
X131019579Y-98405961D01*
X131021902Y-98400980D01*
X131037732Y-98341904D01*
X131079737Y-98185139D01*
X131079737Y-98185137D01*
X131081161Y-98179824D01*
X131101116Y-97951737D01*
X134564348Y-97951737D01*
X134584303Y-98179824D01*
X134585727Y-98185137D01*
X134585727Y-98185139D01*
X134627733Y-98341904D01*
X134643562Y-98400980D01*
X134645885Y-98405961D01*
X134645885Y-98405962D01*
X134737997Y-98603499D01*
X134738000Y-98603504D01*
X134740323Y-98608486D01*
X134756235Y-98631210D01*
X134851098Y-98766688D01*
X134871648Y-98796037D01*
X135033546Y-98957935D01*
X135038054Y-98961092D01*
X135038057Y-98961094D01*
X135096354Y-99001914D01*
X135221097Y-99089260D01*
X135226079Y-99091583D01*
X135226084Y-99091586D01*
X135421530Y-99182723D01*
X135428603Y-99186021D01*
X135433911Y-99187443D01*
X135433913Y-99187444D01*
X135644444Y-99243856D01*
X135644446Y-99243856D01*
X135649759Y-99245280D01*
X135877846Y-99265235D01*
X136105933Y-99245280D01*
X136111246Y-99243856D01*
X136111248Y-99243856D01*
X136321779Y-99187444D01*
X136321781Y-99187443D01*
X136327089Y-99186021D01*
X136334162Y-99182723D01*
X136529608Y-99091586D01*
X136529613Y-99091583D01*
X136534595Y-99089260D01*
X136654252Y-99005475D01*
X142607483Y-99005475D01*
X142626472Y-99222519D01*
X142628375Y-99233312D01*
X142684764Y-99443761D01*
X142688510Y-99454053D01*
X142780586Y-99651511D01*
X142786069Y-99661006D01*
X142822509Y-99713048D01*
X142832988Y-99721424D01*
X142846434Y-99714356D01*
X143547978Y-99012812D01*
X143554356Y-99001132D01*
X144284408Y-99001132D01*
X144284539Y-99002965D01*
X144288790Y-99009580D01*
X144994287Y-99715077D01*
X145006062Y-99721507D01*
X145018077Y-99712211D01*
X145053931Y-99661006D01*
X145059414Y-99651511D01*
X145151490Y-99454053D01*
X145155236Y-99443761D01*
X145211625Y-99233312D01*
X145213528Y-99222519D01*
X145232517Y-99005475D01*
X145232517Y-98994525D01*
X145213528Y-98777481D01*
X145211625Y-98766688D01*
X145155236Y-98556239D01*
X145151490Y-98545947D01*
X145059414Y-98348489D01*
X145053931Y-98338994D01*
X145017491Y-98286952D01*
X145007012Y-98278576D01*
X144993566Y-98285644D01*
X144292022Y-98987188D01*
X144284408Y-99001132D01*
X143554356Y-99001132D01*
X143555592Y-98998868D01*
X143555461Y-98997035D01*
X143551210Y-98990420D01*
X142845713Y-98284923D01*
X142833938Y-98278493D01*
X142821923Y-98287789D01*
X142786069Y-98338994D01*
X142780586Y-98348489D01*
X142688510Y-98545947D01*
X142684764Y-98556239D01*
X142628375Y-98766688D01*
X142626472Y-98777481D01*
X142607483Y-98994525D01*
X142607483Y-99005475D01*
X136654252Y-99005475D01*
X136659338Y-99001914D01*
X136717635Y-98961094D01*
X136717638Y-98961092D01*
X136722146Y-98957935D01*
X136884044Y-98796037D01*
X136904595Y-98766688D01*
X136999457Y-98631210D01*
X137015369Y-98608486D01*
X137017692Y-98603504D01*
X137017695Y-98603499D01*
X137109807Y-98405962D01*
X137109807Y-98405961D01*
X137112130Y-98400980D01*
X137127960Y-98341904D01*
X137169965Y-98185139D01*
X137169965Y-98185137D01*
X137171389Y-98179824D01*
X137191344Y-97951737D01*
X137187954Y-97912988D01*
X143198576Y-97912988D01*
X143205644Y-97926434D01*
X143907188Y-98627978D01*
X143921132Y-98635592D01*
X143922965Y-98635461D01*
X143929580Y-98631210D01*
X144635077Y-97925713D01*
X144641507Y-97913938D01*
X144632211Y-97901923D01*
X144581006Y-97866069D01*
X144571511Y-97860586D01*
X144374053Y-97768510D01*
X144363761Y-97764764D01*
X144153312Y-97708375D01*
X144142519Y-97706472D01*
X143925475Y-97687483D01*
X143914525Y-97687483D01*
X143697481Y-97706472D01*
X143686688Y-97708375D01*
X143476239Y-97764764D01*
X143465947Y-97768510D01*
X143268489Y-97860586D01*
X143258994Y-97866069D01*
X143206952Y-97902509D01*
X143198576Y-97912988D01*
X137187954Y-97912988D01*
X137171389Y-97723650D01*
X137166786Y-97706472D01*
X137113553Y-97507804D01*
X137113552Y-97507802D01*
X137112130Y-97502494D01*
X137109807Y-97497512D01*
X137017695Y-97299975D01*
X137017692Y-97299970D01*
X137015369Y-97294988D01*
X136941944Y-97190126D01*
X136887203Y-97111948D01*
X136887201Y-97111945D01*
X136884044Y-97107437D01*
X136722146Y-96945539D01*
X136717638Y-96942382D01*
X136717635Y-96942380D01*
X136592963Y-96855084D01*
X136534595Y-96814214D01*
X136529613Y-96811891D01*
X136529608Y-96811888D01*
X136332071Y-96719776D01*
X136332070Y-96719776D01*
X136327089Y-96717453D01*
X136321781Y-96716031D01*
X136321779Y-96716030D01*
X136111248Y-96659618D01*
X136111246Y-96659618D01*
X136105933Y-96658194D01*
X135877846Y-96638239D01*
X135649759Y-96658194D01*
X135644446Y-96659618D01*
X135644444Y-96659618D01*
X135433913Y-96716030D01*
X135433911Y-96716031D01*
X135428603Y-96717453D01*
X135423622Y-96719776D01*
X135423621Y-96719776D01*
X135226084Y-96811888D01*
X135226079Y-96811891D01*
X135221097Y-96814214D01*
X135162729Y-96855084D01*
X135038057Y-96942380D01*
X135038054Y-96942382D01*
X135033546Y-96945539D01*
X134871648Y-97107437D01*
X134868491Y-97111945D01*
X134868489Y-97111948D01*
X134813748Y-97190126D01*
X134740323Y-97294988D01*
X134738000Y-97299970D01*
X134737997Y-97299975D01*
X134645885Y-97497512D01*
X134643562Y-97502494D01*
X134642140Y-97507802D01*
X134642139Y-97507804D01*
X134588906Y-97706472D01*
X134584303Y-97723650D01*
X134564348Y-97951737D01*
X131101116Y-97951737D01*
X131081161Y-97723650D01*
X131076558Y-97706472D01*
X131023325Y-97507804D01*
X131023324Y-97507802D01*
X131021902Y-97502494D01*
X131019579Y-97497512D01*
X130927467Y-97299975D01*
X130927464Y-97299970D01*
X130925141Y-97294988D01*
X130851716Y-97190126D01*
X130796975Y-97111948D01*
X130796973Y-97111945D01*
X130793816Y-97107437D01*
X130631918Y-96945539D01*
X130627410Y-96942382D01*
X130627407Y-96942380D01*
X130502735Y-96855084D01*
X130444367Y-96814214D01*
X130439385Y-96811891D01*
X130439380Y-96811888D01*
X130241843Y-96719776D01*
X130241842Y-96719776D01*
X130236861Y-96717453D01*
X130231553Y-96716031D01*
X130231551Y-96716030D01*
X130021020Y-96659618D01*
X130021018Y-96659618D01*
X130015705Y-96658194D01*
X129787618Y-96638239D01*
X129559531Y-96658194D01*
X129554218Y-96659618D01*
X129554216Y-96659618D01*
X129343685Y-96716030D01*
X129343683Y-96716031D01*
X129338375Y-96717453D01*
X129333394Y-96719776D01*
X129333393Y-96719776D01*
X129135856Y-96811888D01*
X129135851Y-96811891D01*
X129130869Y-96814214D01*
X129072501Y-96855084D01*
X128947829Y-96942380D01*
X128947826Y-96942382D01*
X128943318Y-96945539D01*
X128781420Y-97107437D01*
X128778263Y-97111945D01*
X128778261Y-97111948D01*
X128723520Y-97190126D01*
X128650095Y-97294988D01*
X128647772Y-97299970D01*
X128647769Y-97299975D01*
X128555657Y-97497512D01*
X128553334Y-97502494D01*
X128551912Y-97507802D01*
X128551911Y-97507804D01*
X128498678Y-97706472D01*
X128494075Y-97723650D01*
X128474120Y-97951737D01*
X124952991Y-97951737D01*
X124933582Y-97729890D01*
X124930949Y-97720064D01*
X124875746Y-97514044D01*
X124875745Y-97514042D01*
X124874323Y-97508734D01*
X124869090Y-97497512D01*
X124779888Y-97306215D01*
X124779885Y-97306210D01*
X124777562Y-97301228D01*
X124646237Y-97113677D01*
X124484339Y-96951779D01*
X124479831Y-96948622D01*
X124479828Y-96948620D01*
X124386728Y-96883431D01*
X124296788Y-96820454D01*
X124291806Y-96818131D01*
X124291801Y-96818128D01*
X124094264Y-96726016D01*
X124094263Y-96726016D01*
X124089282Y-96723693D01*
X124083974Y-96722271D01*
X124083972Y-96722270D01*
X123873441Y-96665858D01*
X123873439Y-96665858D01*
X123868126Y-96664434D01*
X123640039Y-96644479D01*
X123411952Y-96664434D01*
X123406639Y-96665858D01*
X123406637Y-96665858D01*
X123196106Y-96722270D01*
X123196104Y-96722271D01*
X123190796Y-96723693D01*
X123185815Y-96726016D01*
X123185814Y-96726016D01*
X122988277Y-96818128D01*
X122988272Y-96818131D01*
X122983290Y-96820454D01*
X122893350Y-96883431D01*
X122800250Y-96948620D01*
X122800247Y-96948622D01*
X122795739Y-96951779D01*
X122633841Y-97113677D01*
X122502516Y-97301228D01*
X122500193Y-97306210D01*
X122500190Y-97306215D01*
X122410988Y-97497512D01*
X122405755Y-97508734D01*
X122404333Y-97514042D01*
X122404332Y-97514044D01*
X122349129Y-97720064D01*
X122346496Y-97729890D01*
X122326541Y-97957977D01*
X121008500Y-97957977D01*
X121008500Y-92266522D01*
X142557273Y-92266522D01*
X142604764Y-92443761D01*
X142608510Y-92454053D01*
X142700586Y-92651511D01*
X142706069Y-92661007D01*
X142831028Y-92839467D01*
X142838084Y-92847875D01*
X142992125Y-93001916D01*
X143000533Y-93008972D01*
X143178993Y-93133931D01*
X143188489Y-93139414D01*
X143385947Y-93231490D01*
X143396239Y-93235236D01*
X143568503Y-93281394D01*
X143582599Y-93281058D01*
X143586000Y-93273116D01*
X143586000Y-93267967D01*
X144094000Y-93267967D01*
X144097973Y-93281498D01*
X144106522Y-93282727D01*
X144283761Y-93235236D01*
X144294053Y-93231490D01*
X144491511Y-93139414D01*
X144501007Y-93133931D01*
X144679467Y-93008972D01*
X144687875Y-93001916D01*
X144841916Y-92847875D01*
X144848972Y-92839467D01*
X144973931Y-92661007D01*
X144979414Y-92651511D01*
X145071490Y-92454053D01*
X145075236Y-92443761D01*
X145121394Y-92271497D01*
X145121058Y-92257401D01*
X145113116Y-92254000D01*
X144112115Y-92254000D01*
X144096876Y-92258475D01*
X144095671Y-92259865D01*
X144094000Y-92267548D01*
X144094000Y-93267967D01*
X143586000Y-93267967D01*
X143586000Y-92272115D01*
X143581525Y-92256876D01*
X143580135Y-92255671D01*
X143572452Y-92254000D01*
X142572033Y-92254000D01*
X142558502Y-92257973D01*
X142557273Y-92266522D01*
X121008500Y-92266522D01*
X121008500Y-92000000D01*
X152686502Y-92000000D01*
X152706457Y-92228087D01*
X152707881Y-92233400D01*
X152707881Y-92233402D01*
X152717031Y-92267548D01*
X152765716Y-92449243D01*
X152768039Y-92454224D01*
X152768039Y-92454225D01*
X152860151Y-92651762D01*
X152860154Y-92651767D01*
X152862477Y-92656749D01*
X152865634Y-92661257D01*
X152983629Y-92829771D01*
X152993802Y-92844300D01*
X153155700Y-93006198D01*
X153160208Y-93009355D01*
X153160211Y-93009357D01*
X153238389Y-93064098D01*
X153343251Y-93137523D01*
X153348233Y-93139846D01*
X153348238Y-93139849D01*
X153544765Y-93231490D01*
X153550757Y-93234284D01*
X153556065Y-93235706D01*
X153556067Y-93235707D01*
X153766598Y-93292119D01*
X153766600Y-93292119D01*
X153771913Y-93293543D01*
X154000000Y-93313498D01*
X154228087Y-93293543D01*
X154233400Y-93292119D01*
X154233402Y-93292119D01*
X154443933Y-93235707D01*
X154443935Y-93235706D01*
X154449243Y-93234284D01*
X154455235Y-93231490D01*
X154651762Y-93139849D01*
X154651767Y-93139846D01*
X154656749Y-93137523D01*
X154761611Y-93064098D01*
X154839789Y-93009357D01*
X154839792Y-93009355D01*
X154844300Y-93006198D01*
X155006198Y-92844300D01*
X155016372Y-92829771D01*
X155134366Y-92661257D01*
X155137523Y-92656749D01*
X155139846Y-92651767D01*
X155139849Y-92651762D01*
X155231961Y-92454225D01*
X155231961Y-92454224D01*
X155234284Y-92449243D01*
X155282970Y-92267548D01*
X155292119Y-92233402D01*
X155292119Y-92233400D01*
X155293543Y-92228087D01*
X155313498Y-92000000D01*
X155293543Y-91771913D01*
X155283244Y-91733478D01*
X155235707Y-91556067D01*
X155235706Y-91556065D01*
X155234284Y-91550757D01*
X155139966Y-91348489D01*
X155139849Y-91348238D01*
X155139846Y-91348233D01*
X155137523Y-91343251D01*
X155006198Y-91155700D01*
X154844300Y-90993802D01*
X154839792Y-90990645D01*
X154839789Y-90990643D01*
X154761611Y-90935902D01*
X154656749Y-90862477D01*
X154651767Y-90860154D01*
X154651762Y-90860151D01*
X154454225Y-90768039D01*
X154454224Y-90768039D01*
X154449243Y-90765716D01*
X154443935Y-90764294D01*
X154443933Y-90764293D01*
X154233402Y-90707881D01*
X154233400Y-90707881D01*
X154228087Y-90706457D01*
X154000000Y-90686502D01*
X153771913Y-90706457D01*
X153766600Y-90707881D01*
X153766598Y-90707881D01*
X153556067Y-90764293D01*
X153556065Y-90764294D01*
X153550757Y-90765716D01*
X153545776Y-90768039D01*
X153545775Y-90768039D01*
X153348238Y-90860151D01*
X153348233Y-90860154D01*
X153343251Y-90862477D01*
X153238389Y-90935902D01*
X153160211Y-90990643D01*
X153160208Y-90990645D01*
X153155700Y-90993802D01*
X152993802Y-91155700D01*
X152862477Y-91343251D01*
X152860154Y-91348233D01*
X152860151Y-91348238D01*
X152860034Y-91348489D01*
X152765716Y-91550757D01*
X152764294Y-91556065D01*
X152764293Y-91556067D01*
X152716756Y-91733478D01*
X152706457Y-91771913D01*
X152686502Y-92000000D01*
X121008500Y-92000000D01*
X121008500Y-91728503D01*
X142558606Y-91728503D01*
X142558942Y-91742599D01*
X142566884Y-91746000D01*
X143567885Y-91746000D01*
X143583124Y-91741525D01*
X143584329Y-91740135D01*
X143586000Y-91732452D01*
X143586000Y-91727885D01*
X144094000Y-91727885D01*
X144098475Y-91743124D01*
X144099865Y-91744329D01*
X144107548Y-91746000D01*
X145107967Y-91746000D01*
X145121498Y-91742027D01*
X145122727Y-91733478D01*
X145075236Y-91556239D01*
X145071490Y-91545947D01*
X144979414Y-91348489D01*
X144973931Y-91338993D01*
X144848972Y-91160533D01*
X144841916Y-91152125D01*
X144687875Y-90998084D01*
X144679467Y-90991028D01*
X144501007Y-90866069D01*
X144491511Y-90860586D01*
X144294053Y-90768510D01*
X144283761Y-90764764D01*
X144111497Y-90718606D01*
X144097401Y-90718942D01*
X144094000Y-90726884D01*
X144094000Y-91727885D01*
X143586000Y-91727885D01*
X143586000Y-90732033D01*
X143582027Y-90718502D01*
X143573478Y-90717273D01*
X143396239Y-90764764D01*
X143385947Y-90768510D01*
X143188489Y-90860586D01*
X143178993Y-90866069D01*
X143000533Y-90991028D01*
X142992125Y-90998084D01*
X142838084Y-91152125D01*
X142831028Y-91160533D01*
X142706069Y-91338993D01*
X142700586Y-91348489D01*
X142608510Y-91545947D01*
X142604764Y-91556239D01*
X142558606Y-91728503D01*
X121008500Y-91728503D01*
X121008500Y-87797977D01*
X122326541Y-87797977D01*
X122346496Y-88026064D01*
X122347920Y-88031377D01*
X122347920Y-88031379D01*
X122364682Y-88093933D01*
X122405755Y-88247220D01*
X122408078Y-88252201D01*
X122408078Y-88252202D01*
X122500190Y-88449739D01*
X122500193Y-88449744D01*
X122502516Y-88454726D01*
X122569394Y-88550237D01*
X122629472Y-88636037D01*
X122633841Y-88642277D01*
X122795739Y-88804175D01*
X122800247Y-88807332D01*
X122800250Y-88807334D01*
X122878428Y-88862075D01*
X122983290Y-88935500D01*
X122988272Y-88937823D01*
X122988277Y-88937826D01*
X123145201Y-89011000D01*
X123190796Y-89032261D01*
X123196104Y-89033683D01*
X123196106Y-89033684D01*
X123406637Y-89090096D01*
X123406639Y-89090096D01*
X123411952Y-89091520D01*
X123640039Y-89111475D01*
X123868126Y-89091520D01*
X123873439Y-89090096D01*
X123873441Y-89090096D01*
X124083972Y-89033684D01*
X124083974Y-89033683D01*
X124089282Y-89032261D01*
X124134877Y-89011000D01*
X124291801Y-88937826D01*
X124291806Y-88937823D01*
X124296788Y-88935500D01*
X124401650Y-88862075D01*
X124479828Y-88807334D01*
X124479831Y-88807332D01*
X124484339Y-88804175D01*
X124646237Y-88642277D01*
X124649396Y-88637766D01*
X124673063Y-88603966D01*
X124728521Y-88559638D01*
X124776276Y-88550237D01*
X128655751Y-88550237D01*
X128723872Y-88570239D01*
X128758963Y-88603965D01*
X128781420Y-88636037D01*
X128943318Y-88797935D01*
X128947826Y-88801092D01*
X128947829Y-88801094D01*
X128956741Y-88807334D01*
X129130869Y-88929260D01*
X129135851Y-88931583D01*
X129135856Y-88931586D01*
X129306162Y-89011000D01*
X129338375Y-89026021D01*
X129343683Y-89027443D01*
X129343685Y-89027444D01*
X129554216Y-89083856D01*
X129554218Y-89083856D01*
X129559531Y-89085280D01*
X129787618Y-89105235D01*
X130015705Y-89085280D01*
X130021018Y-89083856D01*
X130021020Y-89083856D01*
X130231551Y-89027444D01*
X130231553Y-89027443D01*
X130236861Y-89026021D01*
X130269074Y-89011000D01*
X130439380Y-88931586D01*
X130439385Y-88931583D01*
X130444367Y-88929260D01*
X130618495Y-88807334D01*
X130627407Y-88801094D01*
X130627410Y-88801092D01*
X130631918Y-88797935D01*
X130793816Y-88636037D01*
X130816273Y-88603966D01*
X130871728Y-88559638D01*
X130919485Y-88550237D01*
X134745979Y-88550237D01*
X134814100Y-88570239D01*
X134849191Y-88603965D01*
X134871648Y-88636037D01*
X135033546Y-88797935D01*
X135038054Y-88801092D01*
X135038057Y-88801094D01*
X135046969Y-88807334D01*
X135221097Y-88929260D01*
X135226079Y-88931583D01*
X135226084Y-88931586D01*
X135396390Y-89011000D01*
X135428603Y-89026021D01*
X135433911Y-89027443D01*
X135433913Y-89027444D01*
X135644444Y-89083856D01*
X135644446Y-89083856D01*
X135649759Y-89085280D01*
X135877846Y-89105235D01*
X136105933Y-89085280D01*
X136111246Y-89083856D01*
X136111248Y-89083856D01*
X136321779Y-89027444D01*
X136321781Y-89027443D01*
X136327089Y-89026021D01*
X136359302Y-89011000D01*
X136529608Y-88931586D01*
X136529613Y-88931583D01*
X136534595Y-88929260D01*
X136708723Y-88807334D01*
X136717635Y-88801094D01*
X136717638Y-88801092D01*
X136722146Y-88797935D01*
X136884044Y-88636037D01*
X136906501Y-88603966D01*
X137001281Y-88468605D01*
X137015369Y-88448486D01*
X137017692Y-88443504D01*
X137017695Y-88443499D01*
X137109807Y-88245962D01*
X137109807Y-88245961D01*
X137112130Y-88240980D01*
X137151532Y-88093933D01*
X137169965Y-88025139D01*
X137169965Y-88025137D01*
X137171389Y-88019824D01*
X137191344Y-87791737D01*
X137171389Y-87563650D01*
X137112130Y-87342494D01*
X137109807Y-87337512D01*
X137017695Y-87139975D01*
X137017692Y-87139970D01*
X137015369Y-87134988D01*
X136906500Y-86979507D01*
X136887203Y-86951948D01*
X136887201Y-86951945D01*
X136884044Y-86947437D01*
X136812405Y-86875798D01*
X136778379Y-86813486D01*
X136775500Y-86786703D01*
X136775500Y-82570000D01*
X162236654Y-82570000D01*
X162236924Y-82574119D01*
X162255612Y-82859245D01*
X162256017Y-82865426D01*
X162256819Y-82869459D01*
X162256820Y-82869465D01*
X162312970Y-83151747D01*
X162313776Y-83155797D01*
X162315103Y-83159706D01*
X162315104Y-83159710D01*
X162396059Y-83398197D01*
X162408941Y-83436145D01*
X162410765Y-83439843D01*
X162537104Y-83696033D01*
X162539885Y-83701673D01*
X162542179Y-83705106D01*
X162652170Y-83869719D01*
X162704367Y-83947838D01*
X162707081Y-83950932D01*
X162707085Y-83950938D01*
X162736372Y-83984333D01*
X162899573Y-84170427D01*
X162902662Y-84173136D01*
X163119062Y-84362915D01*
X163119068Y-84362919D01*
X163122162Y-84365633D01*
X163125588Y-84367922D01*
X163125593Y-84367926D01*
X163309405Y-84490744D01*
X163368327Y-84530115D01*
X163372026Y-84531939D01*
X163372031Y-84531942D01*
X163508313Y-84599148D01*
X163633855Y-84661059D01*
X163637760Y-84662384D01*
X163637761Y-84662385D01*
X163910290Y-84754896D01*
X163910294Y-84754897D01*
X163914203Y-84756224D01*
X163918247Y-84757028D01*
X163918253Y-84757030D01*
X164200535Y-84813180D01*
X164200541Y-84813181D01*
X164204574Y-84813983D01*
X164208679Y-84814252D01*
X164208686Y-84814253D01*
X164495881Y-84833076D01*
X164500000Y-84833346D01*
X164504119Y-84833076D01*
X164791314Y-84814253D01*
X164791321Y-84814252D01*
X164795426Y-84813983D01*
X164799459Y-84813181D01*
X164799465Y-84813180D01*
X165081747Y-84757030D01*
X165081753Y-84757028D01*
X165085797Y-84756224D01*
X165089706Y-84754897D01*
X165089710Y-84754896D01*
X165362239Y-84662385D01*
X165362240Y-84662384D01*
X165366145Y-84661059D01*
X165491687Y-84599148D01*
X165627969Y-84531942D01*
X165627974Y-84531939D01*
X165631673Y-84530115D01*
X165690595Y-84490744D01*
X165874407Y-84367926D01*
X165874412Y-84367922D01*
X165877838Y-84365633D01*
X165880932Y-84362919D01*
X165880938Y-84362915D01*
X166097338Y-84173136D01*
X166100427Y-84170427D01*
X166263628Y-83984333D01*
X166292915Y-83950938D01*
X166292919Y-83950932D01*
X166295633Y-83947838D01*
X166347831Y-83869719D01*
X166457821Y-83705106D01*
X166460115Y-83701673D01*
X166462897Y-83696033D01*
X166589235Y-83439843D01*
X166591059Y-83436145D01*
X166603941Y-83398197D01*
X166684896Y-83159710D01*
X166684897Y-83159706D01*
X166686224Y-83155797D01*
X166687030Y-83151747D01*
X166743180Y-82869465D01*
X166743181Y-82869459D01*
X166743983Y-82865426D01*
X166744389Y-82859245D01*
X166763076Y-82574119D01*
X166763346Y-82570000D01*
X166747086Y-82321913D01*
X166744253Y-82278686D01*
X166744252Y-82278679D01*
X166743983Y-82274574D01*
X166709409Y-82100757D01*
X166687030Y-81988253D01*
X166687028Y-81988247D01*
X166686224Y-81984203D01*
X166591059Y-81703855D01*
X166500082Y-81519371D01*
X166461942Y-81442031D01*
X166461939Y-81442026D01*
X166460115Y-81438327D01*
X166388339Y-81330906D01*
X166297926Y-81195593D01*
X166297922Y-81195588D01*
X166295633Y-81192162D01*
X166292919Y-81189068D01*
X166292915Y-81189062D01*
X166103136Y-80972662D01*
X166100427Y-80969573D01*
X166034721Y-80911950D01*
X165880938Y-80777085D01*
X165880932Y-80777081D01*
X165877838Y-80774367D01*
X165874412Y-80772078D01*
X165874407Y-80772074D01*
X165635106Y-80612179D01*
X165631673Y-80609885D01*
X165627974Y-80608061D01*
X165627969Y-80608058D01*
X165459377Y-80524918D01*
X165366145Y-80478941D01*
X165362239Y-80477615D01*
X165089710Y-80385104D01*
X165089706Y-80385103D01*
X165085797Y-80383776D01*
X165081753Y-80382972D01*
X165081747Y-80382970D01*
X164799465Y-80326820D01*
X164799459Y-80326819D01*
X164795426Y-80326017D01*
X164791321Y-80325748D01*
X164791314Y-80325747D01*
X164504119Y-80306924D01*
X164500000Y-80306654D01*
X164495881Y-80306924D01*
X164208686Y-80325747D01*
X164208679Y-80325748D01*
X164204574Y-80326017D01*
X164200541Y-80326819D01*
X164200535Y-80326820D01*
X163918253Y-80382970D01*
X163918247Y-80382972D01*
X163914203Y-80383776D01*
X163910294Y-80385103D01*
X163910290Y-80385104D01*
X163637761Y-80477615D01*
X163633855Y-80478941D01*
X163540623Y-80524918D01*
X163372031Y-80608058D01*
X163372026Y-80608061D01*
X163368327Y-80609885D01*
X163364894Y-80612179D01*
X163125593Y-80772074D01*
X163125588Y-80772078D01*
X163122162Y-80774367D01*
X163119068Y-80777081D01*
X163119062Y-80777085D01*
X162965279Y-80911950D01*
X162899573Y-80969573D01*
X162896864Y-80972662D01*
X162707085Y-81189062D01*
X162707081Y-81189068D01*
X162704367Y-81192162D01*
X162702078Y-81195588D01*
X162702074Y-81195593D01*
X162611661Y-81330906D01*
X162539885Y-81438327D01*
X162538061Y-81442026D01*
X162538058Y-81442031D01*
X162499918Y-81519371D01*
X162408941Y-81703855D01*
X162313776Y-81984203D01*
X162312972Y-81988247D01*
X162312970Y-81988253D01*
X162290592Y-82100757D01*
X162256017Y-82274574D01*
X162255748Y-82278679D01*
X162255747Y-82278686D01*
X162252914Y-82321913D01*
X162236654Y-82570000D01*
X136775500Y-82570000D01*
X136775500Y-81519371D01*
X136795502Y-81451250D01*
X136812405Y-81430276D01*
X139996405Y-78246276D01*
X140058717Y-78212250D01*
X140129532Y-78217315D01*
X140186368Y-78259862D01*
X140211179Y-78326382D01*
X140211500Y-78335371D01*
X140211500Y-78672930D01*
X140210067Y-78691880D01*
X140207964Y-78705707D01*
X140206801Y-78713349D01*
X140207394Y-78720641D01*
X140207394Y-78720644D01*
X140211085Y-78766018D01*
X140211500Y-78776233D01*
X140211500Y-78784293D01*
X140211925Y-78787937D01*
X140214789Y-78812507D01*
X140215222Y-78816882D01*
X140221140Y-78889637D01*
X140223396Y-78896601D01*
X140224587Y-78902560D01*
X140225971Y-78908415D01*
X140226818Y-78915681D01*
X140251735Y-78984327D01*
X140253152Y-78988455D01*
X140275649Y-79057899D01*
X140279445Y-79064154D01*
X140281951Y-79069628D01*
X140284670Y-79075058D01*
X140287167Y-79081937D01*
X140291180Y-79088057D01*
X140291180Y-79088058D01*
X140327186Y-79142976D01*
X140329523Y-79146680D01*
X140367405Y-79209107D01*
X140371121Y-79213315D01*
X140371122Y-79213316D01*
X140374803Y-79217484D01*
X140374776Y-79217508D01*
X140377429Y-79220500D01*
X140380132Y-79223733D01*
X140384144Y-79229852D01*
X140389456Y-79234884D01*
X140440383Y-79283128D01*
X140442825Y-79285506D01*
X141656230Y-80498911D01*
X141668616Y-80513323D01*
X141677149Y-80524918D01*
X141677154Y-80524923D01*
X141681492Y-80530818D01*
X141687070Y-80535557D01*
X141687073Y-80535560D01*
X141721768Y-80565035D01*
X141729284Y-80571965D01*
X141734979Y-80577660D01*
X141737861Y-80579940D01*
X141757251Y-80595281D01*
X141760655Y-80598072D01*
X141803849Y-80634768D01*
X141816285Y-80645333D01*
X141822801Y-80648661D01*
X141827850Y-80652028D01*
X141832979Y-80655195D01*
X141838716Y-80659734D01*
X141904875Y-80690655D01*
X141908769Y-80692558D01*
X141973808Y-80725769D01*
X141980916Y-80727508D01*
X141986559Y-80729607D01*
X141992322Y-80731524D01*
X141998950Y-80734622D01*
X142006112Y-80736112D01*
X142006113Y-80736112D01*
X142070412Y-80749486D01*
X142074696Y-80750456D01*
X142145610Y-80767808D01*
X142151212Y-80768156D01*
X142151215Y-80768156D01*
X142156764Y-80768500D01*
X142156762Y-80768536D01*
X142160755Y-80768775D01*
X142164947Y-80769149D01*
X142172115Y-80770640D01*
X142249520Y-80768546D01*
X142252928Y-80768500D01*
X156142930Y-80768500D01*
X156161880Y-80769933D01*
X156176115Y-80772099D01*
X156176119Y-80772099D01*
X156183349Y-80773199D01*
X156190641Y-80772606D01*
X156190644Y-80772606D01*
X156236018Y-80768915D01*
X156246233Y-80768500D01*
X156254293Y-80768500D01*
X156271680Y-80766473D01*
X156282507Y-80765211D01*
X156286882Y-80764778D01*
X156352339Y-80759454D01*
X156352342Y-80759453D01*
X156359637Y-80758860D01*
X156366601Y-80756604D01*
X156372560Y-80755413D01*
X156378415Y-80754029D01*
X156385681Y-80753182D01*
X156454327Y-80728265D01*
X156458455Y-80726848D01*
X156520936Y-80706607D01*
X156520938Y-80706606D01*
X156527899Y-80704351D01*
X156534154Y-80700555D01*
X156539628Y-80698049D01*
X156545058Y-80695330D01*
X156551937Y-80692833D01*
X156586380Y-80670251D01*
X156612976Y-80652814D01*
X156616680Y-80650477D01*
X156679107Y-80612595D01*
X156687484Y-80605197D01*
X156687508Y-80605224D01*
X156690500Y-80602571D01*
X156693733Y-80599868D01*
X156699852Y-80595856D01*
X156753128Y-80539617D01*
X156755506Y-80537175D01*
X157968911Y-79323770D01*
X157983323Y-79311384D01*
X157994918Y-79302851D01*
X157994923Y-79302846D01*
X158000818Y-79298508D01*
X158005557Y-79292930D01*
X158005560Y-79292927D01*
X158035035Y-79258232D01*
X158041965Y-79250716D01*
X158047660Y-79245021D01*
X158065281Y-79222749D01*
X158068072Y-79219345D01*
X158110591Y-79169297D01*
X158110592Y-79169295D01*
X158115333Y-79163715D01*
X158118661Y-79157199D01*
X158122028Y-79152150D01*
X158125195Y-79147021D01*
X158129734Y-79141284D01*
X158160655Y-79075125D01*
X158162561Y-79071225D01*
X158195769Y-79006192D01*
X158197508Y-78999084D01*
X158199607Y-78993441D01*
X158201524Y-78987678D01*
X158204622Y-78981050D01*
X158219487Y-78909583D01*
X158220457Y-78905299D01*
X158236473Y-78839845D01*
X158237808Y-78834390D01*
X158238500Y-78823236D01*
X158238536Y-78823238D01*
X158238775Y-78819245D01*
X158239149Y-78815053D01*
X158240640Y-78807885D01*
X158238546Y-78730479D01*
X158238500Y-78727072D01*
X158238500Y-78601867D01*
X158258502Y-78533746D01*
X158292228Y-78498655D01*
X158324300Y-78476198D01*
X158486198Y-78314300D01*
X158617523Y-78126749D01*
X158619846Y-78121767D01*
X158619849Y-78121762D01*
X158711961Y-77924225D01*
X158711961Y-77924224D01*
X158714284Y-77919243D01*
X158773543Y-77698087D01*
X158793498Y-77470000D01*
X166326502Y-77470000D01*
X166346457Y-77698087D01*
X166405716Y-77919243D01*
X166408039Y-77924224D01*
X166408039Y-77924225D01*
X166500151Y-78121762D01*
X166500154Y-78121767D01*
X166502477Y-78126749D01*
X166633802Y-78314300D01*
X166795700Y-78476198D01*
X166800208Y-78479355D01*
X166800211Y-78479357D01*
X166827769Y-78498653D01*
X166983251Y-78607523D01*
X166988233Y-78609846D01*
X166988238Y-78609849D01*
X167143955Y-78682460D01*
X167190757Y-78704284D01*
X167196065Y-78705706D01*
X167196067Y-78705707D01*
X167406598Y-78762119D01*
X167406600Y-78762119D01*
X167411913Y-78763543D01*
X167640000Y-78783498D01*
X167868087Y-78763543D01*
X167873400Y-78762119D01*
X167873402Y-78762119D01*
X168083933Y-78705707D01*
X168083935Y-78705706D01*
X168089243Y-78704284D01*
X168136045Y-78682460D01*
X168291762Y-78609849D01*
X168291767Y-78609846D01*
X168296749Y-78607523D01*
X168452231Y-78498653D01*
X168479789Y-78479357D01*
X168479792Y-78479355D01*
X168484300Y-78476198D01*
X168646198Y-78314300D01*
X168777523Y-78126749D01*
X168779846Y-78121767D01*
X168779849Y-78121762D01*
X168871961Y-77924225D01*
X168871961Y-77924224D01*
X168874284Y-77919243D01*
X168933543Y-77698087D01*
X168953498Y-77470000D01*
X168933543Y-77241913D01*
X168881637Y-77048197D01*
X168875707Y-77026067D01*
X168875706Y-77026065D01*
X168874284Y-77020757D01*
X168871961Y-77015775D01*
X168779849Y-76818238D01*
X168779846Y-76818233D01*
X168777523Y-76813251D01*
X168704098Y-76708389D01*
X168649357Y-76630211D01*
X168649355Y-76630208D01*
X168646198Y-76625700D01*
X168484300Y-76463802D01*
X168479792Y-76460645D01*
X168479789Y-76460643D01*
X168340216Y-76362913D01*
X168296749Y-76332477D01*
X168291767Y-76330154D01*
X168291762Y-76330151D01*
X168094225Y-76238039D01*
X168094224Y-76238039D01*
X168089243Y-76235716D01*
X168083935Y-76234294D01*
X168083933Y-76234293D01*
X167873402Y-76177881D01*
X167873400Y-76177881D01*
X167868087Y-76176457D01*
X167640000Y-76156502D01*
X167411913Y-76176457D01*
X167406600Y-76177881D01*
X167406598Y-76177881D01*
X167196067Y-76234293D01*
X167196065Y-76234294D01*
X167190757Y-76235716D01*
X167185776Y-76238039D01*
X167185775Y-76238039D01*
X166988238Y-76330151D01*
X166988233Y-76330154D01*
X166983251Y-76332477D01*
X166939784Y-76362913D01*
X166800211Y-76460643D01*
X166800208Y-76460645D01*
X166795700Y-76463802D01*
X166633802Y-76625700D01*
X166630645Y-76630208D01*
X166630643Y-76630211D01*
X166575902Y-76708389D01*
X166502477Y-76813251D01*
X166500154Y-76818233D01*
X166500151Y-76818238D01*
X166408039Y-77015775D01*
X166405716Y-77020757D01*
X166404294Y-77026065D01*
X166404293Y-77026067D01*
X166398363Y-77048197D01*
X166346457Y-77241913D01*
X166326502Y-77470000D01*
X158793498Y-77470000D01*
X158773543Y-77241913D01*
X158721637Y-77048197D01*
X158715707Y-77026067D01*
X158715706Y-77026065D01*
X158714284Y-77020757D01*
X158711961Y-77015775D01*
X158619849Y-76818238D01*
X158619846Y-76818233D01*
X158617523Y-76813251D01*
X158544098Y-76708389D01*
X158489357Y-76630211D01*
X158489355Y-76630208D01*
X158486198Y-76625700D01*
X158324300Y-76463802D01*
X158319792Y-76460645D01*
X158319789Y-76460643D01*
X158180216Y-76362913D01*
X158136749Y-76332477D01*
X158131767Y-76330154D01*
X158131762Y-76330151D01*
X157934225Y-76238039D01*
X157934224Y-76238039D01*
X157929243Y-76235716D01*
X157923935Y-76234294D01*
X157923933Y-76234293D01*
X157713402Y-76177881D01*
X157713400Y-76177881D01*
X157708087Y-76176457D01*
X157480000Y-76156502D01*
X157251913Y-76176457D01*
X157246600Y-76177881D01*
X157246598Y-76177881D01*
X157036067Y-76234293D01*
X157036065Y-76234294D01*
X157030757Y-76235716D01*
X157025776Y-76238039D01*
X157025775Y-76238039D01*
X156828238Y-76330151D01*
X156828233Y-76330154D01*
X156823251Y-76332477D01*
X156779784Y-76362913D01*
X156640211Y-76460643D01*
X156640208Y-76460645D01*
X156635700Y-76463802D01*
X156473802Y-76625700D01*
X156470645Y-76630208D01*
X156470643Y-76630211D01*
X156415902Y-76708389D01*
X156342477Y-76813251D01*
X156340154Y-76818233D01*
X156340151Y-76818238D01*
X156248039Y-77015775D01*
X156245716Y-77020757D01*
X156244294Y-77026065D01*
X156244293Y-77026067D01*
X156238363Y-77048197D01*
X156186457Y-77241913D01*
X156166502Y-77470000D01*
X156186457Y-77698087D01*
X156245716Y-77919243D01*
X156248039Y-77924224D01*
X156248039Y-77924225D01*
X156340151Y-78121762D01*
X156340154Y-78121767D01*
X156342477Y-78126749D01*
X156473802Y-78314300D01*
X156564316Y-78404814D01*
X156598342Y-78467126D01*
X156593277Y-78537941D01*
X156564320Y-78582999D01*
X155932722Y-79214597D01*
X155870412Y-79248621D01*
X155843629Y-79251500D01*
X142606371Y-79251500D01*
X142538250Y-79231498D01*
X142517276Y-79214595D01*
X141765405Y-78462724D01*
X141731379Y-78400412D01*
X141728500Y-78373629D01*
X141728500Y-77331867D01*
X141748502Y-77263746D01*
X141782228Y-77228655D01*
X141814300Y-77206198D01*
X141976198Y-77044300D01*
X141996172Y-77015775D01*
X142104366Y-76861257D01*
X142107523Y-76856749D01*
X142109846Y-76851767D01*
X142109849Y-76851762D01*
X142201961Y-76654225D01*
X142201961Y-76654224D01*
X142204284Y-76649243D01*
X142210593Y-76625700D01*
X142262119Y-76433402D01*
X142262119Y-76433400D01*
X142263543Y-76428087D01*
X142283498Y-76200000D01*
X149816502Y-76200000D01*
X149836457Y-76428087D01*
X149837881Y-76433400D01*
X149837881Y-76433402D01*
X149889408Y-76625700D01*
X149895716Y-76649243D01*
X149898039Y-76654224D01*
X149898039Y-76654225D01*
X149990151Y-76851762D01*
X149990154Y-76851767D01*
X149992477Y-76856749D01*
X149995634Y-76861257D01*
X150103829Y-77015775D01*
X150123802Y-77044300D01*
X150285700Y-77206198D01*
X150290208Y-77209355D01*
X150290211Y-77209357D01*
X150336706Y-77241913D01*
X150473251Y-77337523D01*
X150478233Y-77339846D01*
X150478238Y-77339849D01*
X150675775Y-77431961D01*
X150680757Y-77434284D01*
X150686065Y-77435706D01*
X150686067Y-77435707D01*
X150896598Y-77492119D01*
X150896600Y-77492119D01*
X150901913Y-77493543D01*
X151130000Y-77513498D01*
X151358087Y-77493543D01*
X151363400Y-77492119D01*
X151363402Y-77492119D01*
X151573933Y-77435707D01*
X151573935Y-77435706D01*
X151579243Y-77434284D01*
X151584225Y-77431961D01*
X151781762Y-77339849D01*
X151781767Y-77339846D01*
X151786749Y-77337523D01*
X151923294Y-77241913D01*
X151969789Y-77209357D01*
X151969792Y-77209355D01*
X151974300Y-77206198D01*
X152136198Y-77044300D01*
X152156172Y-77015775D01*
X152264366Y-76861257D01*
X152267523Y-76856749D01*
X152269846Y-76851767D01*
X152269849Y-76851762D01*
X152361961Y-76654225D01*
X152361961Y-76654224D01*
X152364284Y-76649243D01*
X152370593Y-76625700D01*
X152422119Y-76433402D01*
X152422119Y-76433400D01*
X152423543Y-76428087D01*
X152443498Y-76200000D01*
X152423543Y-75971913D01*
X152364284Y-75750757D01*
X152361961Y-75745775D01*
X152269849Y-75548238D01*
X152269846Y-75548233D01*
X152267523Y-75543251D01*
X152136198Y-75355700D01*
X151974300Y-75193802D01*
X151969792Y-75190645D01*
X151969789Y-75190643D01*
X151891611Y-75135902D01*
X151786749Y-75062477D01*
X151781767Y-75060154D01*
X151781762Y-75060151D01*
X151584225Y-74968039D01*
X151584224Y-74968039D01*
X151579243Y-74965716D01*
X151573935Y-74964294D01*
X151573933Y-74964293D01*
X151363402Y-74907881D01*
X151363400Y-74907881D01*
X151358087Y-74906457D01*
X151130000Y-74886502D01*
X150901913Y-74906457D01*
X150896600Y-74907881D01*
X150896598Y-74907881D01*
X150686067Y-74964293D01*
X150686065Y-74964294D01*
X150680757Y-74965716D01*
X150675776Y-74968039D01*
X150675775Y-74968039D01*
X150478238Y-75060151D01*
X150478233Y-75060154D01*
X150473251Y-75062477D01*
X150368389Y-75135902D01*
X150290211Y-75190643D01*
X150290208Y-75190645D01*
X150285700Y-75193802D01*
X150123802Y-75355700D01*
X149992477Y-75543251D01*
X149990154Y-75548233D01*
X149990151Y-75548238D01*
X149898039Y-75745775D01*
X149895716Y-75750757D01*
X149836457Y-75971913D01*
X149816502Y-76200000D01*
X142283498Y-76200000D01*
X142263543Y-75971913D01*
X142204284Y-75750757D01*
X142201961Y-75745775D01*
X142109849Y-75548238D01*
X142109846Y-75548233D01*
X142107523Y-75543251D01*
X141976198Y-75355700D01*
X141814300Y-75193802D01*
X141809792Y-75190645D01*
X141809789Y-75190643D01*
X141731611Y-75135902D01*
X141626749Y-75062477D01*
X141621767Y-75060154D01*
X141621762Y-75060151D01*
X141424225Y-74968039D01*
X141424224Y-74968039D01*
X141419243Y-74965716D01*
X141413935Y-74964294D01*
X141413933Y-74964293D01*
X141203402Y-74907881D01*
X141203400Y-74907881D01*
X141198087Y-74906457D01*
X140970000Y-74886502D01*
X140741913Y-74906457D01*
X140736600Y-74907881D01*
X140736598Y-74907881D01*
X140526067Y-74964293D01*
X140526065Y-74964294D01*
X140520757Y-74965716D01*
X140515776Y-74968039D01*
X140515775Y-74968039D01*
X140318238Y-75060151D01*
X140318233Y-75060154D01*
X140313251Y-75062477D01*
X140208389Y-75135902D01*
X140130211Y-75190643D01*
X140130208Y-75190645D01*
X140125700Y-75193802D01*
X139963802Y-75355700D01*
X139832477Y-75543251D01*
X139830154Y-75548233D01*
X139830151Y-75548238D01*
X139738039Y-75745775D01*
X139735716Y-75750757D01*
X139676457Y-75971913D01*
X139656502Y-76200000D01*
X139656981Y-76205475D01*
X139670755Y-76362913D01*
X139656766Y-76432518D01*
X139634329Y-76462990D01*
X135528089Y-80569230D01*
X135513677Y-80581616D01*
X135502082Y-80590149D01*
X135502077Y-80590154D01*
X135496182Y-80594492D01*
X135491443Y-80600070D01*
X135491440Y-80600073D01*
X135461965Y-80634768D01*
X135455035Y-80642284D01*
X135449340Y-80647979D01*
X135447060Y-80650861D01*
X135431719Y-80670251D01*
X135428928Y-80673655D01*
X135387482Y-80722440D01*
X135381667Y-80729285D01*
X135378339Y-80735801D01*
X135374972Y-80740850D01*
X135371805Y-80745979D01*
X135367266Y-80751716D01*
X135336345Y-80817875D01*
X135334442Y-80821769D01*
X135301231Y-80886808D01*
X135299492Y-80893916D01*
X135297393Y-80899559D01*
X135295476Y-80905322D01*
X135292378Y-80911950D01*
X135290888Y-80919112D01*
X135290888Y-80919113D01*
X135277514Y-80983412D01*
X135276544Y-80987696D01*
X135259192Y-81058610D01*
X135258500Y-81069764D01*
X135258464Y-81069762D01*
X135258225Y-81073755D01*
X135257851Y-81077947D01*
X135256360Y-81085115D01*
X135256558Y-81092432D01*
X135258454Y-81162521D01*
X135258500Y-81165928D01*
X135258500Y-81206188D01*
X135238498Y-81274309D01*
X135184842Y-81320802D01*
X135114568Y-81330906D01*
X135079252Y-81320383D01*
X135069243Y-81315716D01*
X134914711Y-81274309D01*
X134853402Y-81257881D01*
X134853400Y-81257881D01*
X134848087Y-81256457D01*
X134620000Y-81236502D01*
X134391913Y-81256457D01*
X134386600Y-81257881D01*
X134386598Y-81257881D01*
X134176067Y-81314293D01*
X134176065Y-81314294D01*
X134170757Y-81315716D01*
X134165776Y-81318039D01*
X134165775Y-81318039D01*
X133968238Y-81410151D01*
X133968233Y-81410154D01*
X133963251Y-81412477D01*
X133921044Y-81442031D01*
X133780211Y-81540643D01*
X133780208Y-81540645D01*
X133775700Y-81543802D01*
X133613802Y-81705700D01*
X133482477Y-81893251D01*
X133480154Y-81898233D01*
X133480151Y-81898238D01*
X133438177Y-81988253D01*
X133385716Y-82100757D01*
X133384294Y-82106065D01*
X133384293Y-82106067D01*
X133338040Y-82278686D01*
X133326457Y-82321913D01*
X133306502Y-82550000D01*
X133326457Y-82778087D01*
X133327881Y-82783400D01*
X133327881Y-82783402D01*
X133350502Y-82867822D01*
X133385716Y-82999243D01*
X133388039Y-83004224D01*
X133388039Y-83004225D01*
X133480151Y-83201762D01*
X133480154Y-83201767D01*
X133482477Y-83206749D01*
X133549226Y-83302076D01*
X133604617Y-83381182D01*
X133613802Y-83394300D01*
X133775700Y-83556198D01*
X133780208Y-83559355D01*
X133780211Y-83559357D01*
X133858389Y-83614098D01*
X133963251Y-83687523D01*
X133968233Y-83689846D01*
X133968238Y-83689849D01*
X134165773Y-83781960D01*
X134170757Y-83784284D01*
X134176065Y-83785706D01*
X134176067Y-83785707D01*
X134386598Y-83842119D01*
X134386600Y-83842119D01*
X134391913Y-83843543D01*
X134620000Y-83863498D01*
X134848087Y-83843543D01*
X134853400Y-83842119D01*
X134853402Y-83842119D01*
X135018297Y-83797935D01*
X135069243Y-83784284D01*
X135079250Y-83779618D01*
X135149440Y-83768956D01*
X135214253Y-83797935D01*
X135253110Y-83857354D01*
X135258500Y-83893812D01*
X135258500Y-86562433D01*
X135238498Y-86630554D01*
X135204772Y-86665645D01*
X135204108Y-86666110D01*
X135038057Y-86782380D01*
X135038054Y-86782382D01*
X135033546Y-86785539D01*
X134871648Y-86947437D01*
X134849191Y-86979508D01*
X134793736Y-87023836D01*
X134745979Y-87033237D01*
X130919485Y-87033237D01*
X130851364Y-87013235D01*
X130816273Y-86979509D01*
X130793816Y-86947437D01*
X130631918Y-86785539D01*
X130627410Y-86782382D01*
X130627407Y-86782380D01*
X130461356Y-86666110D01*
X130444367Y-86654214D01*
X130439385Y-86651891D01*
X130439380Y-86651888D01*
X130241843Y-86559776D01*
X130241842Y-86559776D01*
X130236861Y-86557453D01*
X130231553Y-86556031D01*
X130231551Y-86556030D01*
X130021020Y-86499618D01*
X130021018Y-86499618D01*
X130015705Y-86498194D01*
X129787618Y-86478239D01*
X129559531Y-86498194D01*
X129554218Y-86499618D01*
X129554216Y-86499618D01*
X129343685Y-86556030D01*
X129343683Y-86556031D01*
X129338375Y-86557453D01*
X129333394Y-86559776D01*
X129333393Y-86559776D01*
X129135856Y-86651888D01*
X129135851Y-86651891D01*
X129130869Y-86654214D01*
X129113880Y-86666110D01*
X128947829Y-86782380D01*
X128947826Y-86782382D01*
X128943318Y-86785539D01*
X128781420Y-86947437D01*
X128758963Y-86979508D01*
X128703508Y-87023836D01*
X128655751Y-87033237D01*
X124767537Y-87033237D01*
X124699416Y-87013235D01*
X124664324Y-86979507D01*
X124649400Y-86958193D01*
X124649395Y-86958187D01*
X124646237Y-86953677D01*
X124484339Y-86791779D01*
X124452268Y-86769322D01*
X124407940Y-86713867D01*
X124398539Y-86666110D01*
X124398539Y-83984333D01*
X124418541Y-83916212D01*
X124472197Y-83869719D01*
X124513556Y-83858812D01*
X124577405Y-83853226D01*
X124682606Y-83844023D01*
X124682611Y-83844022D01*
X124688087Y-83843543D01*
X124693400Y-83842119D01*
X124693402Y-83842119D01*
X124903933Y-83785707D01*
X124903935Y-83785706D01*
X124909243Y-83784284D01*
X124914227Y-83781960D01*
X125111762Y-83689849D01*
X125111767Y-83689846D01*
X125116749Y-83687523D01*
X125221611Y-83614098D01*
X125299789Y-83559357D01*
X125299792Y-83559355D01*
X125304300Y-83556198D01*
X125466198Y-83394300D01*
X125475384Y-83381182D01*
X125530774Y-83302076D01*
X125597523Y-83206749D01*
X125599846Y-83201767D01*
X125599849Y-83201762D01*
X125691961Y-83004225D01*
X125691961Y-83004224D01*
X125694284Y-82999243D01*
X125729499Y-82867822D01*
X125752119Y-82783402D01*
X125752119Y-82783400D01*
X125753543Y-82778087D01*
X125773498Y-82550000D01*
X125753543Y-82321913D01*
X125741960Y-82278686D01*
X125695707Y-82106067D01*
X125695706Y-82106065D01*
X125694284Y-82100757D01*
X125641823Y-81988253D01*
X125599849Y-81898238D01*
X125599846Y-81898233D01*
X125597523Y-81893251D01*
X125466198Y-81705700D01*
X125304300Y-81543802D01*
X125299792Y-81540645D01*
X125299789Y-81540643D01*
X125158956Y-81442031D01*
X125116749Y-81412477D01*
X125111767Y-81410154D01*
X125111762Y-81410151D01*
X124914225Y-81318039D01*
X124914224Y-81318039D01*
X124909243Y-81315716D01*
X124903935Y-81314294D01*
X124903933Y-81314293D01*
X124693402Y-81257881D01*
X124693400Y-81257881D01*
X124688087Y-81256457D01*
X124460000Y-81236502D01*
X124231913Y-81256457D01*
X124226600Y-81257881D01*
X124226598Y-81257881D01*
X124016067Y-81314293D01*
X124016065Y-81314294D01*
X124010757Y-81315716D01*
X124005776Y-81318039D01*
X124005775Y-81318039D01*
X123808238Y-81410151D01*
X123808233Y-81410154D01*
X123803251Y-81412477D01*
X123761044Y-81442031D01*
X123620211Y-81540643D01*
X123620208Y-81540645D01*
X123615700Y-81543802D01*
X123453802Y-81705700D01*
X123322477Y-81893251D01*
X123320154Y-81898233D01*
X123320151Y-81898238D01*
X123278177Y-81988253D01*
X123225716Y-82100757D01*
X123224294Y-82106065D01*
X123224293Y-82106067D01*
X123178040Y-82278686D01*
X123166457Y-82321913D01*
X123146502Y-82550000D01*
X123146981Y-82555475D01*
X123160331Y-82708061D01*
X123146342Y-82777666D01*
X123122243Y-82809229D01*
X123119221Y-82811453D01*
X123114480Y-82817034D01*
X123085004Y-82851729D01*
X123078074Y-82859245D01*
X123072379Y-82864940D01*
X123070099Y-82867822D01*
X123054758Y-82887212D01*
X123051967Y-82890616D01*
X123009448Y-82940664D01*
X123004706Y-82946246D01*
X123001378Y-82952762D01*
X122998011Y-82957811D01*
X122994844Y-82962940D01*
X122990305Y-82968677D01*
X122959384Y-83034836D01*
X122957481Y-83038730D01*
X122924270Y-83103769D01*
X122922531Y-83110877D01*
X122920432Y-83116520D01*
X122918515Y-83122283D01*
X122915417Y-83128911D01*
X122913927Y-83136073D01*
X122913927Y-83136074D01*
X122900553Y-83200373D01*
X122899583Y-83204657D01*
X122882231Y-83275571D01*
X122881539Y-83286725D01*
X122881503Y-83286723D01*
X122881264Y-83290716D01*
X122880890Y-83294908D01*
X122879399Y-83302076D01*
X122879597Y-83309393D01*
X122881493Y-83379482D01*
X122881539Y-83382889D01*
X122881539Y-86666110D01*
X122861537Y-86734231D01*
X122827811Y-86769322D01*
X122795739Y-86791779D01*
X122633841Y-86953677D01*
X122630684Y-86958185D01*
X122630682Y-86958188D01*
X122592138Y-87013235D01*
X122502516Y-87141228D01*
X122500193Y-87146210D01*
X122500190Y-87146215D01*
X122410988Y-87337512D01*
X122405755Y-87348734D01*
X122346496Y-87569890D01*
X122326541Y-87797977D01*
X121008500Y-87797977D01*
X121008500Y-49554568D01*
X122937382Y-49554568D01*
X122966208Y-49803699D01*
X122967587Y-49808573D01*
X122967588Y-49808577D01*
X123017534Y-49985082D01*
X123034494Y-50045017D01*
X123036628Y-50049592D01*
X123036630Y-50049599D01*
X123138347Y-50267731D01*
X123140484Y-50272313D01*
X123143326Y-50276494D01*
X123143326Y-50276495D01*
X123278605Y-50475552D01*
X123278608Y-50475556D01*
X123281451Y-50479739D01*
X123284928Y-50483416D01*
X123284929Y-50483417D01*
X123385238Y-50589491D01*
X123453767Y-50661959D01*
X123457793Y-50665037D01*
X123457794Y-50665038D01*
X123648981Y-50811212D01*
X123648985Y-50811215D01*
X123653001Y-50814285D01*
X123874026Y-50932797D01*
X123878807Y-50934443D01*
X123878811Y-50934445D01*
X124044882Y-50991628D01*
X124111156Y-51014448D01*
X124185423Y-51027276D01*
X124354380Y-51056460D01*
X124354386Y-51056461D01*
X124358290Y-51057135D01*
X124362251Y-51057315D01*
X124362252Y-51057315D01*
X124386931Y-51058436D01*
X124386950Y-51058436D01*
X124388350Y-51058500D01*
X124563015Y-51058500D01*
X124565523Y-51058298D01*
X124565528Y-51058298D01*
X124744944Y-51043863D01*
X124744949Y-51043862D01*
X124749985Y-51043457D01*
X124754893Y-51042252D01*
X124754896Y-51042251D01*
X124988625Y-50984841D01*
X124993539Y-50983634D01*
X124998191Y-50981659D01*
X124998195Y-50981658D01*
X125219741Y-50887617D01*
X125219742Y-50887617D01*
X125224396Y-50885641D01*
X125436615Y-50752000D01*
X125624738Y-50586147D01*
X125783924Y-50392351D01*
X125910078Y-50175596D01*
X125999955Y-49941461D01*
X126001319Y-49934936D01*
X126050206Y-49700921D01*
X126051241Y-49695967D01*
X126062618Y-49445432D01*
X126033792Y-49196301D01*
X125994810Y-49058539D01*
X125966884Y-48959852D01*
X125966883Y-48959850D01*
X125965506Y-48954983D01*
X125963372Y-48950408D01*
X125963370Y-48950401D01*
X125861653Y-48732269D01*
X125861651Y-48732265D01*
X125859516Y-48727687D01*
X125856674Y-48723505D01*
X125721395Y-48524448D01*
X125721392Y-48524444D01*
X125718549Y-48520261D01*
X125617925Y-48413853D01*
X125549713Y-48341721D01*
X125546233Y-48338041D01*
X125542206Y-48334962D01*
X125351019Y-48188788D01*
X125351015Y-48188785D01*
X125346999Y-48185715D01*
X125125974Y-48067203D01*
X125121193Y-48065557D01*
X125121189Y-48065555D01*
X124893633Y-47987201D01*
X124888844Y-47985552D01*
X124785311Y-47967669D01*
X124645620Y-47943540D01*
X124645614Y-47943539D01*
X124641710Y-47942865D01*
X124637749Y-47942685D01*
X124637748Y-47942685D01*
X124613069Y-47941564D01*
X124613050Y-47941564D01*
X124611650Y-47941500D01*
X124436985Y-47941500D01*
X124434477Y-47941702D01*
X124434472Y-47941702D01*
X124255056Y-47956137D01*
X124255051Y-47956138D01*
X124250015Y-47956543D01*
X124245107Y-47957748D01*
X124245104Y-47957749D01*
X124013326Y-48014680D01*
X124006461Y-48016366D01*
X124001809Y-48018341D01*
X124001805Y-48018342D01*
X123881061Y-48069595D01*
X123775604Y-48114359D01*
X123563385Y-48248000D01*
X123375262Y-48413853D01*
X123216076Y-48607649D01*
X123089922Y-48824404D01*
X123088109Y-48829127D01*
X123088108Y-48829129D01*
X123041556Y-48950401D01*
X123000045Y-49058539D01*
X122948759Y-49304033D01*
X122937382Y-49554568D01*
X121008500Y-49554568D01*
X121008500Y-46134500D01*
X121028502Y-46066379D01*
X121082158Y-46019886D01*
X121134500Y-46008500D01*
X197365500Y-46008500D01*
X197433621Y-46028502D01*
G37*
%TD.AperFunction*%
%TA.AperFunction,Conductor*%
G36*
X145334194Y-57690365D02*
G01*
X145362719Y-57711756D01*
X145864801Y-58213838D01*
X145898827Y-58276150D01*
X145901706Y-58302933D01*
X145901706Y-58534696D01*
X145908461Y-58596878D01*
X145959591Y-58733267D01*
X146046945Y-58849823D01*
X146163501Y-58937177D01*
X146299890Y-58988307D01*
X146362072Y-58995062D01*
X148358340Y-58995062D01*
X148420522Y-58988307D01*
X148556911Y-58937177D01*
X148673467Y-58849823D01*
X148760821Y-58733267D01*
X148811951Y-58596878D01*
X148818706Y-58534696D01*
X148818706Y-57973503D01*
X148838708Y-57905382D01*
X148892364Y-57858889D01*
X148962638Y-57848785D01*
X149027218Y-57878279D01*
X149034940Y-57886567D01*
X149035214Y-57886293D01*
X149041564Y-57892643D01*
X149046945Y-57899823D01*
X149163501Y-57987177D01*
X149299890Y-58038307D01*
X149362072Y-58045062D01*
X149475706Y-58045062D01*
X149543827Y-58065064D01*
X149590320Y-58118720D01*
X149601706Y-58171062D01*
X149601706Y-59420923D01*
X149600273Y-59439873D01*
X149597007Y-59461342D01*
X149597600Y-59468634D01*
X149597600Y-59468637D01*
X149601291Y-59514011D01*
X149601706Y-59524226D01*
X149601706Y-59532286D01*
X149602131Y-59535930D01*
X149604995Y-59560500D01*
X149605428Y-59564875D01*
X149611346Y-59637630D01*
X149613602Y-59644594D01*
X149614793Y-59650553D01*
X149616177Y-59656408D01*
X149617024Y-59663674D01*
X149641941Y-59732320D01*
X149643358Y-59736448D01*
X149660497Y-59789352D01*
X149665855Y-59805892D01*
X149669651Y-59812147D01*
X149672157Y-59817621D01*
X149674876Y-59823051D01*
X149677373Y-59829930D01*
X149681386Y-59836050D01*
X149681386Y-59836051D01*
X149717392Y-59890969D01*
X149719729Y-59894673D01*
X149757611Y-59957100D01*
X149761327Y-59961308D01*
X149761328Y-59961309D01*
X149765009Y-59965477D01*
X149764982Y-59965501D01*
X149767635Y-59968493D01*
X149770338Y-59971726D01*
X149774350Y-59977845D01*
X149779662Y-59982877D01*
X149830589Y-60031121D01*
X149833031Y-60033499D01*
X150788443Y-60988911D01*
X150800829Y-61003323D01*
X150809362Y-61014918D01*
X150809367Y-61014923D01*
X150813705Y-61020818D01*
X150819283Y-61025557D01*
X150819286Y-61025560D01*
X150853981Y-61055035D01*
X150861497Y-61061965D01*
X150867192Y-61067660D01*
X150870074Y-61069940D01*
X150889464Y-61085281D01*
X150892868Y-61088072D01*
X150936853Y-61125440D01*
X150948498Y-61135333D01*
X150955014Y-61138661D01*
X150960063Y-61142028D01*
X150965192Y-61145195D01*
X150970929Y-61149734D01*
X151037088Y-61180655D01*
X151040982Y-61182558D01*
X151106021Y-61215769D01*
X151113129Y-61217508D01*
X151118772Y-61219607D01*
X151124535Y-61221524D01*
X151131163Y-61224622D01*
X151138325Y-61226112D01*
X151138326Y-61226112D01*
X151202625Y-61239486D01*
X151206909Y-61240456D01*
X151277823Y-61257808D01*
X151283425Y-61258156D01*
X151283428Y-61258156D01*
X151288977Y-61258500D01*
X151288975Y-61258536D01*
X151292968Y-61258775D01*
X151297160Y-61259149D01*
X151304328Y-61260640D01*
X151381733Y-61258546D01*
X151385141Y-61258500D01*
X153780824Y-61258500D01*
X153848945Y-61278502D01*
X153895438Y-61332158D01*
X153905542Y-61402432D01*
X153884037Y-61456771D01*
X153805634Y-61568742D01*
X153805633Y-61568744D01*
X153802477Y-61573251D01*
X153800154Y-61578233D01*
X153800151Y-61578238D01*
X153788536Y-61603147D01*
X153705716Y-61780757D01*
X153646457Y-62001913D01*
X153626502Y-62230000D01*
X153646457Y-62458087D01*
X153647881Y-62463400D01*
X153647881Y-62463402D01*
X153680062Y-62583500D01*
X153705716Y-62679243D01*
X153708039Y-62684224D01*
X153708039Y-62684225D01*
X153800151Y-62881762D01*
X153800154Y-62881767D01*
X153802477Y-62886749D01*
X153933802Y-63074300D01*
X154095700Y-63236198D01*
X154100208Y-63239355D01*
X154100211Y-63239357D01*
X154178389Y-63294098D01*
X154283251Y-63367523D01*
X154288231Y-63369845D01*
X154288238Y-63369849D01*
X154485773Y-63461960D01*
X154490757Y-63464284D01*
X154496065Y-63465706D01*
X154496067Y-63465707D01*
X154706598Y-63522119D01*
X154706600Y-63522119D01*
X154711913Y-63523543D01*
X154940000Y-63543498D01*
X155168087Y-63523543D01*
X155173400Y-63522119D01*
X155173402Y-63522119D01*
X155383933Y-63465707D01*
X155383935Y-63465706D01*
X155389243Y-63464284D01*
X155394227Y-63461960D01*
X155591762Y-63369849D01*
X155591769Y-63369845D01*
X155596749Y-63367523D01*
X155701611Y-63294098D01*
X155779789Y-63239357D01*
X155779792Y-63239355D01*
X155784300Y-63236198D01*
X155946198Y-63074300D01*
X156077523Y-62886749D01*
X156079846Y-62881767D01*
X156079849Y-62881762D01*
X156171961Y-62684225D01*
X156171961Y-62684224D01*
X156174284Y-62679243D01*
X156199939Y-62583500D01*
X156232119Y-62463402D01*
X156232119Y-62463400D01*
X156233543Y-62458087D01*
X156253498Y-62230000D01*
X156233543Y-62001913D01*
X156174284Y-61780757D01*
X156091464Y-61603147D01*
X156079849Y-61578238D01*
X156079846Y-61578233D01*
X156077523Y-61573251D01*
X156074367Y-61568744D01*
X156074366Y-61568742D01*
X155995963Y-61456771D01*
X155973275Y-61389497D01*
X155990560Y-61320636D01*
X156042330Y-61272052D01*
X156099176Y-61258500D01*
X160130824Y-61258500D01*
X160198945Y-61278502D01*
X160245438Y-61332158D01*
X160255542Y-61402432D01*
X160234037Y-61456771D01*
X160155634Y-61568742D01*
X160155633Y-61568744D01*
X160152477Y-61573251D01*
X160150154Y-61578233D01*
X160150151Y-61578238D01*
X160138536Y-61603147D01*
X160055716Y-61780757D01*
X159996457Y-62001913D01*
X159976502Y-62230000D01*
X159996457Y-62458087D01*
X159997881Y-62463400D01*
X159997881Y-62463402D01*
X160030062Y-62583500D01*
X160055716Y-62679243D01*
X160058039Y-62684224D01*
X160058039Y-62684225D01*
X160150151Y-62881762D01*
X160150154Y-62881767D01*
X160152477Y-62886749D01*
X160283802Y-63074300D01*
X160445700Y-63236198D01*
X160450208Y-63239355D01*
X160450211Y-63239357D01*
X160528389Y-63294098D01*
X160633251Y-63367523D01*
X160638231Y-63369845D01*
X160638238Y-63369849D01*
X160835773Y-63461960D01*
X160840757Y-63464284D01*
X160846065Y-63465706D01*
X160846067Y-63465707D01*
X161056598Y-63522119D01*
X161056600Y-63522119D01*
X161061913Y-63523543D01*
X161290000Y-63543498D01*
X161518087Y-63523543D01*
X161523400Y-63522119D01*
X161523402Y-63522119D01*
X161733933Y-63465707D01*
X161733935Y-63465706D01*
X161739243Y-63464284D01*
X161744227Y-63461960D01*
X161941762Y-63369849D01*
X161941769Y-63369845D01*
X161946749Y-63367523D01*
X162051611Y-63294098D01*
X162129789Y-63239357D01*
X162129792Y-63239355D01*
X162134300Y-63236198D01*
X162296198Y-63074300D01*
X162427523Y-62886749D01*
X162429846Y-62881767D01*
X162429849Y-62881762D01*
X162521961Y-62684225D01*
X162521961Y-62684224D01*
X162524284Y-62679243D01*
X162549939Y-62583500D01*
X162582119Y-62463402D01*
X162582119Y-62463400D01*
X162583543Y-62458087D01*
X162603498Y-62230000D01*
X162583543Y-62001913D01*
X162524284Y-61780757D01*
X162441464Y-61603147D01*
X162429849Y-61578238D01*
X162429846Y-61578233D01*
X162427523Y-61573251D01*
X162424367Y-61568744D01*
X162424366Y-61568742D01*
X162345963Y-61456771D01*
X162323275Y-61389497D01*
X162340560Y-61320636D01*
X162392330Y-61272052D01*
X162449176Y-61258500D01*
X166480824Y-61258500D01*
X166548945Y-61278502D01*
X166595438Y-61332158D01*
X166605542Y-61402432D01*
X166584037Y-61456771D01*
X166505634Y-61568742D01*
X166505633Y-61568744D01*
X166502477Y-61573251D01*
X166500154Y-61578233D01*
X166500151Y-61578238D01*
X166488536Y-61603147D01*
X166405716Y-61780757D01*
X166346457Y-62001913D01*
X166326502Y-62230000D01*
X166346457Y-62458087D01*
X166347881Y-62463400D01*
X166347881Y-62463402D01*
X166380062Y-62583500D01*
X166405716Y-62679243D01*
X166408039Y-62684224D01*
X166408039Y-62684225D01*
X166500151Y-62881762D01*
X166500154Y-62881767D01*
X166502477Y-62886749D01*
X166633802Y-63074300D01*
X166795700Y-63236198D01*
X166800208Y-63239355D01*
X166800211Y-63239357D01*
X166878389Y-63294098D01*
X166983251Y-63367523D01*
X166988231Y-63369845D01*
X166988238Y-63369849D01*
X167185773Y-63461960D01*
X167190757Y-63464284D01*
X167196065Y-63465706D01*
X167196067Y-63465707D01*
X167406598Y-63522119D01*
X167406600Y-63522119D01*
X167411913Y-63523543D01*
X167640000Y-63543498D01*
X167868087Y-63523543D01*
X167873400Y-63522119D01*
X167873402Y-63522119D01*
X168083933Y-63465707D01*
X168083935Y-63465706D01*
X168089243Y-63464284D01*
X168094227Y-63461960D01*
X168291762Y-63369849D01*
X168291769Y-63369845D01*
X168296749Y-63367523D01*
X168401611Y-63294098D01*
X168479789Y-63239357D01*
X168479792Y-63239355D01*
X168484300Y-63236198D01*
X168646198Y-63074300D01*
X168777523Y-62886749D01*
X168779846Y-62881767D01*
X168779849Y-62881762D01*
X168871961Y-62684225D01*
X168871961Y-62684224D01*
X168874284Y-62679243D01*
X168899939Y-62583500D01*
X168932119Y-62463402D01*
X168932119Y-62463400D01*
X168933543Y-62458087D01*
X168953498Y-62230000D01*
X168933543Y-62001913D01*
X168874284Y-61780757D01*
X168791464Y-61603147D01*
X168779849Y-61578238D01*
X168779846Y-61578233D01*
X168777523Y-61573251D01*
X168774367Y-61568744D01*
X168774366Y-61568742D01*
X168695963Y-61456771D01*
X168673275Y-61389497D01*
X168690560Y-61320636D01*
X168742330Y-61272052D01*
X168799176Y-61258500D01*
X185795106Y-61258500D01*
X185863227Y-61278502D01*
X185884201Y-61295405D01*
X189569915Y-64981119D01*
X189601939Y-65035483D01*
X189632783Y-65143050D01*
X189635602Y-65148535D01*
X189696614Y-65267250D01*
X189723187Y-65318956D01*
X189727016Y-65323787D01*
X189728839Y-65326088D01*
X189729414Y-65327509D01*
X189730353Y-65328966D01*
X189730076Y-65329144D01*
X189755474Y-65391898D01*
X189742301Y-65461662D01*
X189738846Y-65467474D01*
X189643567Y-65640787D01*
X189641706Y-65646654D01*
X189641705Y-65646656D01*
X189629171Y-65686168D01*
X189583765Y-65829306D01*
X189561719Y-66025851D01*
X189578268Y-66222934D01*
X189591692Y-66269748D01*
X189630868Y-66406371D01*
X189632783Y-66413050D01*
X189723187Y-66588956D01*
X189727016Y-66593787D01*
X189728839Y-66596088D01*
X189729414Y-66597509D01*
X189730353Y-66598966D01*
X189730076Y-66599144D01*
X189755474Y-66661898D01*
X189742301Y-66731662D01*
X189738846Y-66737474D01*
X189643567Y-66910787D01*
X189641706Y-66916654D01*
X189641705Y-66916656D01*
X189620317Y-66984079D01*
X189580653Y-67042963D01*
X189515451Y-67071055D01*
X189500215Y-67071980D01*
X146196851Y-67071980D01*
X146128730Y-67051978D01*
X146107756Y-67035075D01*
X144535405Y-65462724D01*
X144501379Y-65400412D01*
X144498500Y-65373629D01*
X144498500Y-62230000D01*
X147054770Y-62230000D01*
X147074725Y-62458087D01*
X147076149Y-62463400D01*
X147076149Y-62463402D01*
X147108330Y-62583500D01*
X147133984Y-62679243D01*
X147136307Y-62684224D01*
X147136307Y-62684225D01*
X147228419Y-62881762D01*
X147228422Y-62881767D01*
X147230745Y-62886749D01*
X147362070Y-63074300D01*
X147523968Y-63236198D01*
X147528476Y-63239355D01*
X147528479Y-63239357D01*
X147606657Y-63294098D01*
X147711519Y-63367523D01*
X147716499Y-63369845D01*
X147716506Y-63369849D01*
X147914041Y-63461960D01*
X147919025Y-63464284D01*
X147924333Y-63465706D01*
X147924335Y-63465707D01*
X148134866Y-63522119D01*
X148134868Y-63522119D01*
X148140181Y-63523543D01*
X148368268Y-63543498D01*
X148596355Y-63523543D01*
X148601668Y-63522119D01*
X148601670Y-63522119D01*
X148812201Y-63465707D01*
X148812203Y-63465706D01*
X148817511Y-63464284D01*
X148822495Y-63461960D01*
X149020030Y-63369849D01*
X149020037Y-63369845D01*
X149025017Y-63367523D01*
X149129879Y-63294098D01*
X149208057Y-63239357D01*
X149208060Y-63239355D01*
X149212568Y-63236198D01*
X149374466Y-63074300D01*
X149505791Y-62886749D01*
X149508114Y-62881767D01*
X149508117Y-62881762D01*
X149600229Y-62684225D01*
X149600229Y-62684224D01*
X149602552Y-62679243D01*
X149628207Y-62583500D01*
X149660387Y-62463402D01*
X149660387Y-62463400D01*
X149661811Y-62458087D01*
X149681766Y-62230000D01*
X149661811Y-62001913D01*
X149602552Y-61780757D01*
X149519732Y-61603147D01*
X149508117Y-61578238D01*
X149508114Y-61578233D01*
X149505791Y-61573251D01*
X149386182Y-61402432D01*
X149377625Y-61390211D01*
X149377623Y-61390208D01*
X149374466Y-61385700D01*
X149212568Y-61223802D01*
X149208060Y-61220645D01*
X149208057Y-61220643D01*
X149122968Y-61161063D01*
X149025017Y-61092477D01*
X149020035Y-61090154D01*
X149020030Y-61090151D01*
X148822493Y-60998039D01*
X148822492Y-60998039D01*
X148817511Y-60995716D01*
X148812203Y-60994294D01*
X148812201Y-60994293D01*
X148601670Y-60937881D01*
X148601668Y-60937881D01*
X148596355Y-60936457D01*
X148368268Y-60916502D01*
X148140181Y-60936457D01*
X148134868Y-60937881D01*
X148134866Y-60937881D01*
X147924335Y-60994293D01*
X147924333Y-60994294D01*
X147919025Y-60995716D01*
X147914044Y-60998039D01*
X147914043Y-60998039D01*
X147716506Y-61090151D01*
X147716501Y-61090154D01*
X147711519Y-61092477D01*
X147613568Y-61161063D01*
X147528479Y-61220643D01*
X147528476Y-61220645D01*
X147523968Y-61223802D01*
X147362070Y-61385700D01*
X147358913Y-61390208D01*
X147358911Y-61390211D01*
X147350354Y-61402432D01*
X147230745Y-61573251D01*
X147228422Y-61578233D01*
X147228419Y-61578238D01*
X147216804Y-61603147D01*
X147133984Y-61780757D01*
X147074725Y-62001913D01*
X147054770Y-62230000D01*
X144498500Y-62230000D01*
X144498500Y-58184500D01*
X144518502Y-58116379D01*
X144572158Y-58069886D01*
X144624500Y-58058500D01*
X144738134Y-58058500D01*
X144800316Y-58051745D01*
X144936705Y-58000615D01*
X145053261Y-57913261D01*
X145140615Y-57796705D01*
X145155642Y-57756621D01*
X145198284Y-57699857D01*
X145264846Y-57675157D01*
X145334194Y-57690365D01*
G37*
%TD.AperFunction*%
%TD*%
M02*
