%TF.GenerationSoftware,KiCad,Pcbnew,(6.0.4)*%
%TF.CreationDate,2022-04-12T10:07:42+02:00*%
%TF.ProjectId,Antenna-controller,416e7465-6e6e-4612-9d63-6f6e74726f6c,rev?*%
%TF.SameCoordinates,Original*%
%TF.FileFunction,Soldermask,Top*%
%TF.FilePolarity,Negative*%
%FSLAX46Y46*%
G04 Gerber Fmt 4.6, Leading zero omitted, Abs format (unit mm)*
G04 Created by KiCad (PCBNEW (6.0.4)) date 2022-04-12 10:07:42*
%MOMM*%
%LPD*%
G01*
G04 APERTURE LIST*
%ADD10C,1.600000*%
%ADD11O,1.600000X1.600000*%
%ADD12O,3.500000X3.500000*%
%ADD13R,1.905000X2.000000*%
%ADD14O,1.905000X2.000000*%
%ADD15R,2.400000X1.600000*%
%ADD16O,2.400000X1.600000*%
%ADD17R,3.960000X1.980000*%
%ADD18O,3.960000X1.980000*%
%ADD19R,1.717500X1.800000*%
%ADD20O,1.717500X1.800000*%
%ADD21R,5.700000X6.200000*%
%ADD22C,2.100000*%
%ADD23R,1.000000X1.000000*%
%ADD24O,1.000000X1.000000*%
G04 APERTURE END LIST*
D10*
%TO.C,R12*%
X134620000Y-62230000D03*
D11*
X134620000Y-72390000D03*
%TD*%
D10*
%TO.C,R15*%
X135877846Y-97951737D03*
D11*
X135877846Y-87791737D03*
%TD*%
D12*
%TO.C,Q1*%
X164500000Y-82570000D03*
D13*
X161960000Y-99230000D03*
D14*
X164500000Y-99230000D03*
X167040000Y-99230000D03*
%TD*%
D15*
%TO.C,U1*%
X139517500Y-106690000D03*
D16*
X139517500Y-109230000D03*
X139517500Y-111770000D03*
X139517500Y-114310000D03*
X149677500Y-114310000D03*
X149677500Y-111770000D03*
X149677500Y-109230000D03*
X149677500Y-106690000D03*
%TD*%
D10*
%TO.C,R11*%
X140970000Y-62230000D03*
D11*
X140970000Y-72390000D03*
%TD*%
D17*
%TO.C,M1*%
X189500000Y-112014000D03*
D18*
X189500000Y-107014000D03*
%TD*%
D19*
%TO.C,Q2*%
X167290000Y-108185000D03*
D20*
X165000000Y-108185000D03*
X162710000Y-108185000D03*
D21*
X165000000Y-115618333D03*
%TD*%
D22*
%TO.C,REF\u002A\u002A*%
X124500000Y-49500000D03*
%TD*%
D23*
%TO.C,s-lite1*%
X190575000Y-59690000D03*
D24*
X190575000Y-60960000D03*
X190575000Y-62230000D03*
X190575000Y-63500000D03*
X190575000Y-64770000D03*
X190575000Y-66040000D03*
X190575000Y-67310000D03*
X190575000Y-68580000D03*
X190575000Y-69850000D03*
X190575000Y-71120000D03*
X190575000Y-72390000D03*
%TD*%
D10*
%TO.C,R13*%
X123640039Y-97957977D03*
D11*
X123640039Y-87797977D03*
%TD*%
D10*
%TO.C,R17*%
X151130000Y-76200000D03*
D11*
X140970000Y-76200000D03*
%TD*%
D10*
%TO.C,R1*%
X154000000Y-92000000D03*
D11*
X143840000Y-92000000D03*
%TD*%
D23*
%TO.C,U2*%
X135250000Y-51955000D03*
D24*
X136520000Y-51955000D03*
X137790000Y-51955000D03*
X139060000Y-51955000D03*
X140330000Y-51955000D03*
X141600000Y-51955000D03*
X142870000Y-51955000D03*
X144140000Y-51955000D03*
%TD*%
D10*
%TO.C,R16*%
X167640000Y-77470000D03*
D11*
X157480000Y-77470000D03*
%TD*%
D22*
%TO.C,REF\u002A\u002A*%
X124500000Y-118000000D03*
%TD*%
D10*
%TO.C,R10*%
X167640000Y-62230000D03*
D11*
X167640000Y-72390000D03*
%TD*%
D10*
%TO.C,R14*%
X129787618Y-97951737D03*
D11*
X129787618Y-87791737D03*
%TD*%
D10*
%TO.C,R5*%
X128270000Y-104140000D03*
D11*
X128270000Y-114300000D03*
%TD*%
D22*
%TO.C,REF\u002A\u002A*%
X194000000Y-49500000D03*
%TD*%
D10*
%TO.C,R2*%
X143920000Y-99000000D03*
D11*
X154080000Y-99000000D03*
%TD*%
D10*
%TO.C,R8*%
X154940000Y-62230000D03*
D11*
X154940000Y-72390000D03*
%TD*%
D23*
%TO.C,J2*%
X154825000Y-51925000D03*
D24*
X156095000Y-51925000D03*
X157365000Y-51925000D03*
X158635000Y-51925000D03*
X159905000Y-51925000D03*
X161175000Y-51925000D03*
%TD*%
D10*
%TO.C,R7*%
X148368268Y-62230000D03*
D11*
X148368268Y-72390000D03*
%TD*%
D10*
%TO.C,R18*%
X134620000Y-82550000D03*
D11*
X124460000Y-82550000D03*
%TD*%
D19*
%TO.C,Q4*%
X178000000Y-108000000D03*
D20*
X175710000Y-108000000D03*
X173420000Y-108000000D03*
D21*
X175710000Y-115433333D03*
%TD*%
D12*
%TO.C,Q3*%
X176000000Y-82570000D03*
D13*
X173460000Y-99230000D03*
D14*
X176000000Y-99230000D03*
X178540000Y-99230000D03*
%TD*%
D22*
%TO.C,REF\u002A\u002A*%
X194000000Y-118000000D03*
%TD*%
D10*
%TO.C,R9*%
X161290000Y-62230000D03*
D11*
X161290000Y-72390000D03*
%TD*%
D17*
%TO.C,J1*%
X189500000Y-94265000D03*
D18*
X189500000Y-89265000D03*
%TD*%
D10*
%TO.C,R6*%
X134620000Y-104140000D03*
D11*
X134620000Y-114300000D03*
%TD*%
M02*
