%TF.GenerationSoftware,KiCad,Pcbnew,(6.0.4)*%
%TF.CreationDate,2022-04-12T10:07:42+02:00*%
%TF.ProjectId,Antenna-controller,416e7465-6e6e-4612-9d63-6f6e74726f6c,rev?*%
%TF.SameCoordinates,Original*%
%TF.FileFunction,Copper,L1,Top*%
%TF.FilePolarity,Positive*%
%FSLAX46Y46*%
G04 Gerber Fmt 4.6, Leading zero omitted, Abs format (unit mm)*
G04 Created by KiCad (PCBNEW (6.0.4)) date 2022-04-12 10:07:42*
%MOMM*%
%LPD*%
G01*
G04 APERTURE LIST*
%TA.AperFunction,ComponentPad*%
%ADD10C,1.600000*%
%TD*%
%TA.AperFunction,ComponentPad*%
%ADD11O,1.600000X1.600000*%
%TD*%
%TA.AperFunction,ComponentPad*%
%ADD12R,1.905000X2.000000*%
%TD*%
%TA.AperFunction,ComponentPad*%
%ADD13O,1.905000X2.000000*%
%TD*%
%TA.AperFunction,ComponentPad*%
%ADD14R,2.400000X1.600000*%
%TD*%
%TA.AperFunction,ComponentPad*%
%ADD15O,2.400000X1.600000*%
%TD*%
%TA.AperFunction,ComponentPad*%
%ADD16R,3.960000X1.980000*%
%TD*%
%TA.AperFunction,ComponentPad*%
%ADD17O,3.960000X1.980000*%
%TD*%
%TA.AperFunction,ComponentPad*%
%ADD18R,1.717500X1.800000*%
%TD*%
%TA.AperFunction,ComponentPad*%
%ADD19O,1.717500X1.800000*%
%TD*%
%TA.AperFunction,SMDPad,CuDef*%
%ADD20R,5.700000X6.200000*%
%TD*%
%TA.AperFunction,ComponentPad*%
%ADD21R,1.000000X1.000000*%
%TD*%
%TA.AperFunction,ComponentPad*%
%ADD22O,1.000000X1.000000*%
%TD*%
%TA.AperFunction,ViaPad*%
%ADD23C,0.800000*%
%TD*%
%TA.AperFunction,Conductor*%
%ADD24C,0.500000*%
%TD*%
%TA.AperFunction,Conductor*%
%ADD25C,0.750000*%
%TD*%
G04 APERTURE END LIST*
D10*
%TO.P,R12,1*%
%TO.N,imu_scl_3.3V*%
X134620000Y-62230000D03*
D11*
%TO.P,R12,2*%
%TO.N,+3V3*%
X134620000Y-72390000D03*
%TD*%
D10*
%TO.P,R15,1*%
%TO.N,SS1_5V*%
X135877846Y-97951737D03*
D11*
%TO.P,R15,2*%
%TO.N,5V*%
X135877846Y-87791737D03*
%TD*%
D12*
%TO.P,Q1,1,D*%
%TO.N,+6V*%
X161960000Y-99230000D03*
D13*
%TO.P,Q1,2,G*%
%TO.N,forward*%
X164500000Y-99230000D03*
%TO.P,Q1,3,S*%
%TO.N,Net-(M1-Pad1)*%
X167040000Y-99230000D03*
%TD*%
D14*
%TO.P,U1,1,A1*%
%TO.N,Net-(R5-Pad2)*%
X139517500Y-106690000D03*
D15*
%TO.P,U1,2,C1*%
%TO.N,GND*%
X139517500Y-109230000D03*
%TO.P,U1,3,C2*%
X139517500Y-111770000D03*
%TO.P,U1,4,A2*%
%TO.N,Net-(R6-Pad2)*%
X139517500Y-114310000D03*
%TO.P,U1,5,E2*%
%TO.N,forward*%
X149677500Y-114310000D03*
%TO.P,U1,6,C2*%
%TO.N,+6V*%
X149677500Y-111770000D03*
%TO.P,U1,7,C1*%
X149677500Y-109230000D03*
%TO.P,U1,8,E1*%
%TO.N,rev*%
X149677500Y-106690000D03*
%TD*%
D10*
%TO.P,R11,1*%
%TO.N,imu_sda_3.3V*%
X140970000Y-62230000D03*
D11*
%TO.P,R11,2*%
%TO.N,+3V3*%
X140970000Y-72390000D03*
%TD*%
D16*
%TO.P,M1,1,+*%
%TO.N,Net-(M1-Pad1)*%
X189500000Y-112014000D03*
D17*
%TO.P,M1,2,-*%
%TO.N,Net-(M1-Pad2)*%
X189500000Y-107014000D03*
%TD*%
D18*
%TO.P,Q2,1,D*%
%TO.N,Net-(M1-Pad1)*%
X167290000Y-108185000D03*
D19*
%TO.P,Q2,2,G*%
%TO.N,forward*%
X165000000Y-108185000D03*
%TO.P,Q2,3,S*%
%TO.N,GND*%
X162710000Y-108185000D03*
D20*
%TO.P,Q2,4*%
%TO.N,N/C*%
X165000000Y-115618333D03*
%TD*%
D21*
%TO.P,s-lite1,1,3.3V*%
%TO.N,+3V3*%
X190575000Y-59690000D03*
D22*
%TO.P,s-lite1,2,5V*%
%TO.N,5V*%
X190575000Y-60960000D03*
%TO.P,s-lite1,3,A0/MOSI1*%
%TO.N,MOSI_5V*%
X190575000Y-62230000D03*
%TO.P,s-lite1,4,A1/MISO1*%
%TO.N,MISO_5V*%
X190575000Y-63500000D03*
%TO.P,s-lite1,5,A2/SCK1*%
%TO.N,SCK_5V*%
X190575000Y-64770000D03*
%TO.P,s-lite1,6,AUX1/A5/SS1*%
%TO.N,SS1_5V*%
X190575000Y-66040000D03*
%TO.P,s-lite1,7,A3/SDA0*%
%TO.N,imu_sda_5V*%
X190575000Y-67310000D03*
%TO.P,s-lite1,8,A4/SCL0*%
%TO.N,imu_scl_5V*%
X190575000Y-68580000D03*
%TO.P,s-lite1,9,D1/TX0*%
%TO.N,rev_input_5V*%
X190575000Y-69850000D03*
%TO.P,s-lite1,10,D0/RX0*%
%TO.N,forward_input_5V*%
X190575000Y-71120000D03*
%TO.P,s-lite1,11,GND*%
%TO.N,GND*%
X190575000Y-72390000D03*
%TD*%
D10*
%TO.P,R13,1*%
%TO.N,imu_scl_5V*%
X123640039Y-97957977D03*
D11*
%TO.P,R13,2*%
%TO.N,5V*%
X123640039Y-87797977D03*
%TD*%
D10*
%TO.P,R17,1*%
%TO.N,MISO_5V*%
X151130000Y-76200000D03*
D11*
%TO.P,R17,2*%
%TO.N,5V*%
X140970000Y-76200000D03*
%TD*%
D10*
%TO.P,R1,1*%
%TO.N,forward*%
X154000000Y-92000000D03*
D11*
%TO.P,R1,2*%
%TO.N,GND*%
X143840000Y-92000000D03*
%TD*%
D21*
%TO.P,U2,1,vcc*%
%TO.N,+3V3*%
X135250000Y-51955000D03*
D22*
%TO.P,U2,2,gnd*%
%TO.N,GND*%
X136520000Y-51955000D03*
%TO.P,U2,3,scl*%
%TO.N,imu_scl_3.3V*%
X137790000Y-51955000D03*
%TO.P,U2,4,sda*%
%TO.N,imu_sda_3.3V*%
X139060000Y-51955000D03*
%TO.P,U2,5,xda*%
%TO.N,unconnected-(U2-Pad5)*%
X140330000Y-51955000D03*
%TO.P,U2,6,xdl*%
%TO.N,unconnected-(U2-Pad6)*%
X141600000Y-51955000D03*
%TO.P,U2,7,ado*%
%TO.N,unconnected-(U2-Pad7)*%
X142870000Y-51955000D03*
%TO.P,U2,8,int*%
%TO.N,unconnected-(U2-Pad8)*%
X144140000Y-51955000D03*
%TD*%
D10*
%TO.P,R16,1*%
%TO.N,MOSI_5V*%
X167640000Y-77470000D03*
D11*
%TO.P,R16,2*%
%TO.N,5V*%
X157480000Y-77470000D03*
%TD*%
D10*
%TO.P,R10,1*%
%TO.N,SS1_3.3V*%
X167640000Y-62230000D03*
D11*
%TO.P,R10,2*%
%TO.N,+3V3*%
X167640000Y-72390000D03*
%TD*%
D10*
%TO.P,R14,1*%
%TO.N,imu_sda_5V*%
X129787618Y-97951737D03*
D11*
%TO.P,R14,2*%
%TO.N,5V*%
X129787618Y-87791737D03*
%TD*%
D10*
%TO.P,R5,1*%
%TO.N,rev_input_5V*%
X128270000Y-104140000D03*
D11*
%TO.P,R5,2*%
%TO.N,Net-(R5-Pad2)*%
X128270000Y-114300000D03*
%TD*%
D10*
%TO.P,R2,1*%
%TO.N,GND*%
X143920000Y-99000000D03*
D11*
%TO.P,R2,2*%
%TO.N,rev*%
X154080000Y-99000000D03*
%TD*%
D10*
%TO.P,R8,1*%
%TO.N,MISO_3.3V*%
X154940000Y-62230000D03*
D11*
%TO.P,R8,2*%
%TO.N,+3V3*%
X154940000Y-72390000D03*
%TD*%
D21*
%TO.P,J2,1,Pin_1*%
%TO.N,SCK_3.3V*%
X154825000Y-51925000D03*
D22*
%TO.P,J2,2,Pin_2*%
%TO.N,MISO_3.3V*%
X156095000Y-51925000D03*
%TO.P,J2,3,Pin_3*%
%TO.N,MOSI_3.3V*%
X157365000Y-51925000D03*
%TO.P,J2,4,Pin_4*%
%TO.N,SS1_3.3V*%
X158635000Y-51925000D03*
%TO.P,J2,5,Pin_5*%
%TO.N,+3V3*%
X159905000Y-51925000D03*
%TO.P,J2,6,Pin_6*%
%TO.N,GND*%
X161175000Y-51925000D03*
%TD*%
D10*
%TO.P,R7,1*%
%TO.N,SCK_3.3V*%
X148368268Y-62230000D03*
D11*
%TO.P,R7,2*%
%TO.N,+3V3*%
X148368268Y-72390000D03*
%TD*%
D10*
%TO.P,R18,1*%
%TO.N,SCK_5V*%
X134620000Y-82550000D03*
D11*
%TO.P,R18,2*%
%TO.N,5V*%
X124460000Y-82550000D03*
%TD*%
D18*
%TO.P,Q4,1,D*%
%TO.N,Net-(M1-Pad2)*%
X178000000Y-108000000D03*
D19*
%TO.P,Q4,2,G*%
%TO.N,rev*%
X175710000Y-108000000D03*
%TO.P,Q4,3,S*%
%TO.N,GND*%
X173420000Y-108000000D03*
D20*
%TO.P,Q4,4*%
%TO.N,N/C*%
X175710000Y-115433333D03*
%TD*%
D12*
%TO.P,Q3,1,D*%
%TO.N,+6V*%
X173460000Y-99230000D03*
D13*
%TO.P,Q3,2,G*%
%TO.N,rev*%
X176000000Y-99230000D03*
%TO.P,Q3,3,S*%
%TO.N,Net-(M1-Pad2)*%
X178540000Y-99230000D03*
%TD*%
D10*
%TO.P,R9,1*%
%TO.N,MOSI_3.3V*%
X161290000Y-62230000D03*
D11*
%TO.P,R9,2*%
%TO.N,+3V3*%
X161290000Y-72390000D03*
%TD*%
D16*
%TO.P,J1,1,Pin_1*%
%TO.N,+6V*%
X189500000Y-94265000D03*
D17*
%TO.P,J1,2,Pin_2*%
%TO.N,GND*%
X189500000Y-89265000D03*
%TD*%
D10*
%TO.P,R6,1*%
%TO.N,forward_input_5V*%
X134620000Y-104140000D03*
D11*
%TO.P,R6,2*%
%TO.N,Net-(R6-Pad2)*%
X134620000Y-114300000D03*
%TD*%
D23*
%TO.N,GND*%
X176500000Y-64500000D03*
%TD*%
D24*
%TO.N,SCK_3.3V*%
X155000000Y-52100000D02*
X154825000Y-51925000D01*
X148368268Y-62230000D02*
X148368268Y-62197732D01*
X155000000Y-55566000D02*
X155000000Y-52100000D01*
X148368268Y-62197732D02*
X155000000Y-55566000D01*
D25*
%TO.N,forward*%
X158875000Y-114310000D02*
X165000000Y-108185000D01*
X159020000Y-92000000D02*
X154000000Y-92000000D01*
X149677500Y-114310000D02*
X158875000Y-114310000D01*
X164500000Y-99230000D02*
X164500000Y-97480000D01*
X164500000Y-97480000D02*
X159020000Y-92000000D01*
%TO.N,rev*%
X161505480Y-106425480D02*
X174135480Y-106425480D01*
X154080000Y-102287500D02*
X149677500Y-106690000D01*
X174574520Y-106425480D02*
X174135480Y-106425480D01*
X174135480Y-106425480D02*
X175710000Y-108000000D01*
X176000000Y-105000000D02*
X174574520Y-106425480D01*
X154080000Y-99000000D02*
X154080000Y-102287500D01*
X176000000Y-99230000D02*
X176000000Y-105000000D01*
X154080000Y-99000000D02*
X161505480Y-106425480D01*
D24*
%TO.N,SS1_3.3V*%
X158655433Y-55404433D02*
X158655433Y-51945433D01*
X158655433Y-51945433D02*
X158635000Y-51925000D01*
X167640000Y-62230000D02*
X165481000Y-62230000D01*
X165481000Y-62230000D02*
X158655433Y-55404433D01*
%TO.N,SS1_5V*%
X143179094Y-90650489D02*
X177349511Y-90650489D01*
X192749520Y-75250480D02*
X192749520Y-67507414D01*
X191282106Y-66040000D02*
X190575000Y-66040000D01*
X177349511Y-90650489D02*
X192749520Y-75250480D01*
X192749520Y-67507414D02*
X191282106Y-66040000D01*
X135877846Y-97951737D02*
X143179094Y-90650489D01*
%TO.N,SCK_5V*%
X188825969Y-74674031D02*
X188825969Y-66375508D01*
X138070000Y-86000000D02*
X177500000Y-86000000D01*
X188825969Y-66375508D02*
X190431477Y-64770000D01*
X190431477Y-64770000D02*
X190575000Y-64770000D01*
X134620000Y-82550000D02*
X138070000Y-86000000D01*
X177500000Y-86000000D02*
X188825969Y-74674031D01*
%TO.N,MISO_5V*%
X177611304Y-81000000D02*
X180000000Y-81000000D01*
X163568217Y-80320479D02*
X165431783Y-80320479D01*
X175068217Y-80320479D02*
X176931783Y-80320479D01*
X188076449Y-65855028D02*
X190431477Y-63500000D01*
X190431477Y-63500000D02*
X190575000Y-63500000D01*
X162888696Y-81000000D02*
X163568217Y-80320479D01*
X151130000Y-76200000D02*
X155930000Y-81000000D01*
X176931783Y-80320479D02*
X177611304Y-81000000D01*
X180000000Y-81000000D02*
X188076449Y-72923551D01*
X188076449Y-72923551D02*
X188076449Y-65855028D01*
X174388696Y-81000000D02*
X175068217Y-80320479D01*
X166111304Y-81000000D02*
X174388696Y-81000000D01*
X165431783Y-80320479D02*
X166111304Y-81000000D01*
X155930000Y-81000000D02*
X162888696Y-81000000D01*
%TO.N,5V*%
X158779511Y-76170489D02*
X157480000Y-77470000D01*
X186577409Y-64814068D02*
X186577409Y-71362609D01*
X186577409Y-71362609D02*
X181769529Y-76170489D01*
X181769529Y-76170489D02*
X158779511Y-76170489D01*
X190431477Y-60960000D02*
X186577409Y-64814068D01*
X190575000Y-60960000D02*
X190431477Y-60960000D01*
%TO.N,MOSI_5V*%
X168110000Y-77000000D02*
X182000000Y-77000000D01*
X187326929Y-65334548D02*
X190431477Y-62230000D01*
X182000000Y-77000000D02*
X187326929Y-71673071D01*
X190431477Y-62230000D02*
X190575000Y-62230000D01*
X167640000Y-77470000D02*
X168110000Y-77000000D01*
X187326929Y-71673071D02*
X187326929Y-65334548D01*
%TO.N,MOSI_3.3V*%
X161290000Y-62230000D02*
X161290000Y-59563000D01*
X157365000Y-55638000D02*
X157365000Y-52060000D01*
X161290000Y-59563000D02*
X157365000Y-55638000D01*
%TO.N,MISO_3.3V*%
X156000000Y-52020000D02*
X156095000Y-51925000D01*
X154940000Y-62230000D02*
X154940000Y-58420000D01*
X156000000Y-57360000D02*
X156000000Y-52020000D01*
X154940000Y-58420000D02*
X156000000Y-57360000D01*
%TO.N,imu_scl_5V*%
X189575489Y-69435988D02*
X190431477Y-68580000D01*
X176728587Y-89151449D02*
X189575489Y-76304547D01*
X190431477Y-68580000D02*
X190575000Y-68580000D01*
X127000000Y-96000000D02*
X130679373Y-96000000D01*
X123640039Y-97957977D02*
X125042023Y-97957977D01*
X130679373Y-96000000D02*
X137527925Y-89151449D01*
X189575489Y-76304547D02*
X189575489Y-69435988D01*
X137527925Y-89151449D02*
X176728587Y-89151449D01*
X125042023Y-97957977D02*
X127000000Y-96000000D01*
%TO.N,imu_sda_5V*%
X191282106Y-67310000D02*
X190575000Y-67310000D01*
X192000000Y-74940018D02*
X192000000Y-68027894D01*
X129787618Y-97951737D02*
X137838386Y-89900969D01*
X192000000Y-68027894D02*
X191282106Y-67310000D01*
X177039049Y-89900969D02*
X192000000Y-74940018D01*
X137838386Y-89900969D02*
X177039049Y-89900969D01*
%TD*%
%TA.AperFunction,Conductor*%
%TO.N,GND*%
G36*
X197433621Y-46028502D02*
G01*
X197480114Y-46082158D01*
X197491500Y-46134500D01*
X197491500Y-121365500D01*
X197471498Y-121433621D01*
X197417842Y-121480114D01*
X197365500Y-121491500D01*
X121134500Y-121491500D01*
X121066379Y-121471498D01*
X121019886Y-121417842D01*
X121008500Y-121365500D01*
X121008500Y-118054568D01*
X122937382Y-118054568D01*
X122966208Y-118303699D01*
X122967587Y-118308573D01*
X122967588Y-118308577D01*
X123006526Y-118446181D01*
X123034494Y-118545017D01*
X123036628Y-118549592D01*
X123036630Y-118549599D01*
X123137758Y-118766467D01*
X123140484Y-118772313D01*
X123143326Y-118776494D01*
X123143326Y-118776495D01*
X123278605Y-118975552D01*
X123278608Y-118975556D01*
X123281451Y-118979739D01*
X123284928Y-118983416D01*
X123284929Y-118983417D01*
X123385238Y-119089491D01*
X123453767Y-119161959D01*
X123457793Y-119165037D01*
X123457794Y-119165038D01*
X123648981Y-119311212D01*
X123648985Y-119311215D01*
X123653001Y-119314285D01*
X123874026Y-119432797D01*
X123878807Y-119434443D01*
X123878811Y-119434445D01*
X124104538Y-119512169D01*
X124111156Y-119514448D01*
X124214689Y-119532331D01*
X124354380Y-119556460D01*
X124354386Y-119556461D01*
X124358290Y-119557135D01*
X124362251Y-119557315D01*
X124362252Y-119557315D01*
X124386931Y-119558436D01*
X124386950Y-119558436D01*
X124388350Y-119558500D01*
X124563015Y-119558500D01*
X124565523Y-119558298D01*
X124565528Y-119558298D01*
X124744944Y-119543863D01*
X124744949Y-119543862D01*
X124749985Y-119543457D01*
X124754893Y-119542252D01*
X124754896Y-119542251D01*
X124988625Y-119484841D01*
X124993539Y-119483634D01*
X124998191Y-119481659D01*
X124998195Y-119481658D01*
X125219741Y-119387617D01*
X125219742Y-119387617D01*
X125224396Y-119385641D01*
X125436615Y-119252000D01*
X125624738Y-119086147D01*
X125783924Y-118892351D01*
X125910078Y-118675596D01*
X125922342Y-118643649D01*
X125998143Y-118446181D01*
X125999955Y-118441461D01*
X126051241Y-118195967D01*
X126062618Y-117945432D01*
X126033792Y-117696301D01*
X125994810Y-117558539D01*
X125966884Y-117459852D01*
X125966883Y-117459850D01*
X125965506Y-117454983D01*
X125963372Y-117450408D01*
X125963370Y-117450401D01*
X125861653Y-117232269D01*
X125861651Y-117232265D01*
X125859516Y-117227687D01*
X125856674Y-117223505D01*
X125721395Y-117024448D01*
X125721392Y-117024444D01*
X125718549Y-117020261D01*
X125617925Y-116913853D01*
X125549713Y-116841721D01*
X125546233Y-116838041D01*
X125542206Y-116834962D01*
X125351019Y-116688788D01*
X125351015Y-116688785D01*
X125346999Y-116685715D01*
X125125974Y-116567203D01*
X125121193Y-116565557D01*
X125121189Y-116565555D01*
X124893633Y-116487201D01*
X124888844Y-116485552D01*
X124785311Y-116467669D01*
X124645620Y-116443540D01*
X124645614Y-116443539D01*
X124641710Y-116442865D01*
X124637749Y-116442685D01*
X124637748Y-116442685D01*
X124613069Y-116441564D01*
X124613050Y-116441564D01*
X124611650Y-116441500D01*
X124436985Y-116441500D01*
X124434477Y-116441702D01*
X124434472Y-116441702D01*
X124255056Y-116456137D01*
X124255051Y-116456138D01*
X124250015Y-116456543D01*
X124245107Y-116457748D01*
X124245104Y-116457749D01*
X124013326Y-116514680D01*
X124006461Y-116516366D01*
X124001809Y-116518341D01*
X124001805Y-116518342D01*
X123881061Y-116569595D01*
X123775604Y-116614359D01*
X123563385Y-116748000D01*
X123375262Y-116913853D01*
X123216076Y-117107649D01*
X123089922Y-117324404D01*
X123000045Y-117558539D01*
X122948759Y-117804033D01*
X122937382Y-118054568D01*
X121008500Y-118054568D01*
X121008500Y-114300000D01*
X126956502Y-114300000D01*
X126976457Y-114528087D01*
X126977881Y-114533400D01*
X126977881Y-114533402D01*
X126979137Y-114538087D01*
X127035716Y-114749243D01*
X127038039Y-114754224D01*
X127038039Y-114754225D01*
X127130151Y-114951762D01*
X127130154Y-114951767D01*
X127132477Y-114956749D01*
X127151736Y-114984253D01*
X127250784Y-115125708D01*
X127263802Y-115144300D01*
X127425700Y-115306198D01*
X127430208Y-115309355D01*
X127430211Y-115309357D01*
X127439981Y-115316198D01*
X127613251Y-115437523D01*
X127618233Y-115439846D01*
X127618238Y-115439849D01*
X127815775Y-115531961D01*
X127820757Y-115534284D01*
X127826065Y-115535706D01*
X127826067Y-115535707D01*
X128036598Y-115592119D01*
X128036600Y-115592119D01*
X128041913Y-115593543D01*
X128270000Y-115613498D01*
X128498087Y-115593543D01*
X128503400Y-115592119D01*
X128503402Y-115592119D01*
X128713933Y-115535707D01*
X128713935Y-115535706D01*
X128719243Y-115534284D01*
X128724225Y-115531961D01*
X128921762Y-115439849D01*
X128921767Y-115439846D01*
X128926749Y-115437523D01*
X129100019Y-115316198D01*
X129109789Y-115309357D01*
X129109792Y-115309355D01*
X129114300Y-115306198D01*
X129276198Y-115144300D01*
X129289217Y-115125708D01*
X129388264Y-114984253D01*
X129407523Y-114956749D01*
X129409846Y-114951767D01*
X129409849Y-114951762D01*
X129501961Y-114754225D01*
X129501961Y-114754224D01*
X129504284Y-114749243D01*
X129560864Y-114538087D01*
X129562119Y-114533402D01*
X129562119Y-114533400D01*
X129563543Y-114528087D01*
X129583498Y-114300000D01*
X133306502Y-114300000D01*
X133326457Y-114528087D01*
X133327881Y-114533400D01*
X133327881Y-114533402D01*
X133329137Y-114538087D01*
X133385716Y-114749243D01*
X133388039Y-114754224D01*
X133388039Y-114754225D01*
X133480151Y-114951762D01*
X133480154Y-114951767D01*
X133482477Y-114956749D01*
X133501736Y-114984253D01*
X133600784Y-115125708D01*
X133613802Y-115144300D01*
X133775700Y-115306198D01*
X133780208Y-115309355D01*
X133780211Y-115309357D01*
X133789981Y-115316198D01*
X133963251Y-115437523D01*
X133968233Y-115439846D01*
X133968238Y-115439849D01*
X134165775Y-115531961D01*
X134170757Y-115534284D01*
X134176065Y-115535706D01*
X134176067Y-115535707D01*
X134386598Y-115592119D01*
X134386600Y-115592119D01*
X134391913Y-115593543D01*
X134620000Y-115613498D01*
X134848087Y-115593543D01*
X134853400Y-115592119D01*
X134853402Y-115592119D01*
X135063933Y-115535707D01*
X135063935Y-115535706D01*
X135069243Y-115534284D01*
X135074225Y-115531961D01*
X135271762Y-115439849D01*
X135271767Y-115439846D01*
X135276749Y-115437523D01*
X135450019Y-115316198D01*
X135459789Y-115309357D01*
X135459792Y-115309355D01*
X135464300Y-115306198D01*
X135626198Y-115144300D01*
X135639217Y-115125708D01*
X135738264Y-114984253D01*
X135757523Y-114956749D01*
X135759846Y-114951767D01*
X135759849Y-114951762D01*
X135851961Y-114754225D01*
X135851961Y-114754224D01*
X135854284Y-114749243D01*
X135910864Y-114538087D01*
X135912119Y-114533402D01*
X135912119Y-114533400D01*
X135913543Y-114528087D01*
X135932623Y-114310000D01*
X137804002Y-114310000D01*
X137823957Y-114538087D01*
X137825381Y-114543400D01*
X137825381Y-114543402D01*
X137879114Y-114743933D01*
X137883216Y-114759243D01*
X137885539Y-114764224D01*
X137885539Y-114764225D01*
X137977651Y-114961762D01*
X137977654Y-114961767D01*
X137979977Y-114966749D01*
X138025669Y-115032004D01*
X138107029Y-115148197D01*
X138111302Y-115154300D01*
X138273200Y-115316198D01*
X138277708Y-115319355D01*
X138277711Y-115319357D01*
X138355889Y-115374098D01*
X138460751Y-115447523D01*
X138465733Y-115449846D01*
X138465738Y-115449849D01*
X138649863Y-115535707D01*
X138668257Y-115544284D01*
X138673565Y-115545706D01*
X138673567Y-115545707D01*
X138884098Y-115602119D01*
X138884100Y-115602119D01*
X138889413Y-115603543D01*
X138988980Y-115612254D01*
X139057649Y-115618262D01*
X139057656Y-115618262D01*
X139060373Y-115618500D01*
X139974627Y-115618500D01*
X139977344Y-115618262D01*
X139977351Y-115618262D01*
X140046020Y-115612254D01*
X140145587Y-115603543D01*
X140150900Y-115602119D01*
X140150902Y-115602119D01*
X140361433Y-115545707D01*
X140361435Y-115545706D01*
X140366743Y-115544284D01*
X140385137Y-115535707D01*
X140569262Y-115449849D01*
X140569267Y-115449846D01*
X140574249Y-115447523D01*
X140679111Y-115374098D01*
X140757289Y-115319357D01*
X140757292Y-115319355D01*
X140761800Y-115316198D01*
X140923698Y-115154300D01*
X140927972Y-115148197D01*
X141009331Y-115032004D01*
X141055023Y-114966749D01*
X141057346Y-114961767D01*
X141057349Y-114961762D01*
X141149461Y-114764225D01*
X141149461Y-114764224D01*
X141151784Y-114759243D01*
X141155887Y-114743933D01*
X141209619Y-114543402D01*
X141209619Y-114543400D01*
X141211043Y-114538087D01*
X141230998Y-114310000D01*
X147964002Y-114310000D01*
X147983957Y-114538087D01*
X147985381Y-114543400D01*
X147985381Y-114543402D01*
X148039114Y-114743933D01*
X148043216Y-114759243D01*
X148045539Y-114764224D01*
X148045539Y-114764225D01*
X148137651Y-114961762D01*
X148137654Y-114961767D01*
X148139977Y-114966749D01*
X148185669Y-115032004D01*
X148267029Y-115148197D01*
X148271302Y-115154300D01*
X148433200Y-115316198D01*
X148437708Y-115319355D01*
X148437711Y-115319357D01*
X148515889Y-115374098D01*
X148620751Y-115447523D01*
X148625733Y-115449846D01*
X148625738Y-115449849D01*
X148809863Y-115535707D01*
X148828257Y-115544284D01*
X148833565Y-115545706D01*
X148833567Y-115545707D01*
X149044098Y-115602119D01*
X149044100Y-115602119D01*
X149049413Y-115603543D01*
X149148980Y-115612254D01*
X149217649Y-115618262D01*
X149217656Y-115618262D01*
X149220373Y-115618500D01*
X150134627Y-115618500D01*
X150137344Y-115618262D01*
X150137351Y-115618262D01*
X150206020Y-115612254D01*
X150305587Y-115603543D01*
X150310900Y-115602119D01*
X150310902Y-115602119D01*
X150521433Y-115545707D01*
X150521435Y-115545706D01*
X150526743Y-115544284D01*
X150545137Y-115535707D01*
X150729262Y-115449849D01*
X150729267Y-115449846D01*
X150734249Y-115447523D01*
X150839111Y-115374098D01*
X150917289Y-115319357D01*
X150917292Y-115319355D01*
X150921800Y-115316198D01*
X151007593Y-115230405D01*
X151069905Y-115196379D01*
X151096688Y-115193500D01*
X158795543Y-115193500D01*
X158815255Y-115195051D01*
X158828507Y-115197150D01*
X158835094Y-115196805D01*
X158835098Y-115196805D01*
X158894850Y-115193673D01*
X158901445Y-115193500D01*
X158921306Y-115193500D01*
X158941069Y-115191423D01*
X158947628Y-115190907D01*
X158963427Y-115190079D01*
X159007377Y-115187776D01*
X159007381Y-115187775D01*
X159013971Y-115187430D01*
X159026929Y-115183958D01*
X159046372Y-115180355D01*
X159046795Y-115180311D01*
X159059702Y-115178954D01*
X159122894Y-115158422D01*
X159129196Y-115156556D01*
X159186985Y-115141071D01*
X159193363Y-115139362D01*
X159199242Y-115136366D01*
X159199251Y-115136363D01*
X159205317Y-115133272D01*
X159223579Y-115125708D01*
X159230043Y-115123608D01*
X159230051Y-115123605D01*
X159236331Y-115121564D01*
X159242050Y-115118262D01*
X159242055Y-115118260D01*
X159293867Y-115088346D01*
X159299637Y-115085213D01*
X159358839Y-115055047D01*
X159369259Y-115046609D01*
X159385552Y-115035411D01*
X159385903Y-115035209D01*
X159397169Y-115028704D01*
X159402075Y-115024287D01*
X159402080Y-115024283D01*
X159446538Y-114984253D01*
X159451554Y-114979969D01*
X159464409Y-114969559D01*
X159464412Y-114969556D01*
X159466986Y-114967472D01*
X159481031Y-114953427D01*
X159485816Y-114948886D01*
X159530274Y-114908856D01*
X159530275Y-114908855D01*
X159535185Y-114904434D01*
X159543075Y-114893574D01*
X159555912Y-114878546D01*
X161426405Y-113008053D01*
X161488717Y-112974027D01*
X161559532Y-112979092D01*
X161616368Y-113021639D01*
X161641179Y-113088159D01*
X161641500Y-113097148D01*
X161641500Y-118766467D01*
X161648255Y-118828649D01*
X161699385Y-118965038D01*
X161786739Y-119081594D01*
X161903295Y-119168948D01*
X162039684Y-119220078D01*
X162101866Y-119226833D01*
X167898134Y-119226833D01*
X167960316Y-119220078D01*
X168096705Y-119168948D01*
X168213261Y-119081594D01*
X168300615Y-118965038D01*
X168351745Y-118828649D01*
X168358500Y-118766467D01*
X168358500Y-118581467D01*
X172351500Y-118581467D01*
X172358255Y-118643649D01*
X172409385Y-118780038D01*
X172496739Y-118896594D01*
X172613295Y-118983948D01*
X172749684Y-119035078D01*
X172811866Y-119041833D01*
X178608134Y-119041833D01*
X178670316Y-119035078D01*
X178806705Y-118983948D01*
X178923261Y-118896594D01*
X179010615Y-118780038D01*
X179061745Y-118643649D01*
X179068500Y-118581467D01*
X179068500Y-118054568D01*
X192437382Y-118054568D01*
X192466208Y-118303699D01*
X192467587Y-118308573D01*
X192467588Y-118308577D01*
X192506526Y-118446181D01*
X192534494Y-118545017D01*
X192536628Y-118549592D01*
X192536630Y-118549599D01*
X192637758Y-118766467D01*
X192640484Y-118772313D01*
X192643326Y-118776494D01*
X192643326Y-118776495D01*
X192778605Y-118975552D01*
X192778608Y-118975556D01*
X192781451Y-118979739D01*
X192784928Y-118983416D01*
X192784929Y-118983417D01*
X192885238Y-119089491D01*
X192953767Y-119161959D01*
X192957793Y-119165037D01*
X192957794Y-119165038D01*
X193148981Y-119311212D01*
X193148985Y-119311215D01*
X193153001Y-119314285D01*
X193374026Y-119432797D01*
X193378807Y-119434443D01*
X193378811Y-119434445D01*
X193604538Y-119512169D01*
X193611156Y-119514448D01*
X193714689Y-119532331D01*
X193854380Y-119556460D01*
X193854386Y-119556461D01*
X193858290Y-119557135D01*
X193862251Y-119557315D01*
X193862252Y-119557315D01*
X193886931Y-119558436D01*
X193886950Y-119558436D01*
X193888350Y-119558500D01*
X194063015Y-119558500D01*
X194065523Y-119558298D01*
X194065528Y-119558298D01*
X194244944Y-119543863D01*
X194244949Y-119543862D01*
X194249985Y-119543457D01*
X194254893Y-119542252D01*
X194254896Y-119542251D01*
X194488625Y-119484841D01*
X194493539Y-119483634D01*
X194498191Y-119481659D01*
X194498195Y-119481658D01*
X194719741Y-119387617D01*
X194719742Y-119387617D01*
X194724396Y-119385641D01*
X194936615Y-119252000D01*
X195124738Y-119086147D01*
X195283924Y-118892351D01*
X195410078Y-118675596D01*
X195422342Y-118643649D01*
X195498143Y-118446181D01*
X195499955Y-118441461D01*
X195551241Y-118195967D01*
X195562618Y-117945432D01*
X195533792Y-117696301D01*
X195494810Y-117558539D01*
X195466884Y-117459852D01*
X195466883Y-117459850D01*
X195465506Y-117454983D01*
X195463372Y-117450408D01*
X195463370Y-117450401D01*
X195361653Y-117232269D01*
X195361651Y-117232265D01*
X195359516Y-117227687D01*
X195356674Y-117223505D01*
X195221395Y-117024448D01*
X195221392Y-117024444D01*
X195218549Y-117020261D01*
X195117925Y-116913853D01*
X195049713Y-116841721D01*
X195046233Y-116838041D01*
X195042206Y-116834962D01*
X194851019Y-116688788D01*
X194851015Y-116688785D01*
X194846999Y-116685715D01*
X194625974Y-116567203D01*
X194621193Y-116565557D01*
X194621189Y-116565555D01*
X194393633Y-116487201D01*
X194388844Y-116485552D01*
X194285311Y-116467669D01*
X194145620Y-116443540D01*
X194145614Y-116443539D01*
X194141710Y-116442865D01*
X194137749Y-116442685D01*
X194137748Y-116442685D01*
X194113069Y-116441564D01*
X194113050Y-116441564D01*
X194111650Y-116441500D01*
X193936985Y-116441500D01*
X193934477Y-116441702D01*
X193934472Y-116441702D01*
X193755056Y-116456137D01*
X193755051Y-116456138D01*
X193750015Y-116456543D01*
X193745107Y-116457748D01*
X193745104Y-116457749D01*
X193513326Y-116514680D01*
X193506461Y-116516366D01*
X193501809Y-116518341D01*
X193501805Y-116518342D01*
X193381061Y-116569595D01*
X193275604Y-116614359D01*
X193063385Y-116748000D01*
X192875262Y-116913853D01*
X192716076Y-117107649D01*
X192589922Y-117324404D01*
X192500045Y-117558539D01*
X192448759Y-117804033D01*
X192437382Y-118054568D01*
X179068500Y-118054568D01*
X179068500Y-113052134D01*
X187011500Y-113052134D01*
X187018255Y-113114316D01*
X187069385Y-113250705D01*
X187156739Y-113367261D01*
X187273295Y-113454615D01*
X187409684Y-113505745D01*
X187471866Y-113512500D01*
X191528134Y-113512500D01*
X191590316Y-113505745D01*
X191726705Y-113454615D01*
X191843261Y-113367261D01*
X191930615Y-113250705D01*
X191981745Y-113114316D01*
X191988500Y-113052134D01*
X191988500Y-110975866D01*
X191981745Y-110913684D01*
X191930615Y-110777295D01*
X191843261Y-110660739D01*
X191726705Y-110573385D01*
X191590316Y-110522255D01*
X191528134Y-110515500D01*
X187471866Y-110515500D01*
X187409684Y-110522255D01*
X187273295Y-110573385D01*
X187156739Y-110660739D01*
X187069385Y-110777295D01*
X187018255Y-110913684D01*
X187011500Y-110975866D01*
X187011500Y-113052134D01*
X179068500Y-113052134D01*
X179068500Y-112285199D01*
X179061745Y-112223017D01*
X179010615Y-112086628D01*
X178923261Y-111970072D01*
X178806705Y-111882718D01*
X178670316Y-111831588D01*
X178608134Y-111824833D01*
X172811866Y-111824833D01*
X172749684Y-111831588D01*
X172613295Y-111882718D01*
X172496739Y-111970072D01*
X172409385Y-112086628D01*
X172358255Y-112223017D01*
X172351500Y-112285199D01*
X172351500Y-118581467D01*
X168358500Y-118581467D01*
X168358500Y-112470199D01*
X168351745Y-112408017D01*
X168300615Y-112271628D01*
X168213261Y-112155072D01*
X168096705Y-112067718D01*
X167960316Y-112016588D01*
X167898134Y-112009833D01*
X162728815Y-112009833D01*
X162660694Y-111989831D01*
X162614201Y-111936175D01*
X162604097Y-111865901D01*
X162633591Y-111801321D01*
X162639720Y-111794738D01*
X164805000Y-109629458D01*
X164867312Y-109595432D01*
X164910649Y-109593645D01*
X164930075Y-109596220D01*
X164930082Y-109596220D01*
X164935361Y-109596920D01*
X164940690Y-109596720D01*
X164940692Y-109596720D01*
X165051295Y-109592567D01*
X165167228Y-109588215D01*
X165394314Y-109540567D01*
X165399270Y-109538610D01*
X165399276Y-109538608D01*
X165589708Y-109463402D01*
X165610125Y-109455339D01*
X165781278Y-109351481D01*
X165803928Y-109337737D01*
X165803929Y-109337736D01*
X165808491Y-109334968D01*
X165812521Y-109331471D01*
X165816834Y-109328326D01*
X165817580Y-109329349D01*
X165876616Y-109302340D01*
X165946897Y-109312398D01*
X165995456Y-109351481D01*
X166018062Y-109381644D01*
X166067989Y-109448261D01*
X166184545Y-109535615D01*
X166320934Y-109586745D01*
X166383116Y-109593500D01*
X168196884Y-109593500D01*
X168259066Y-109586745D01*
X168395455Y-109535615D01*
X168512011Y-109448261D01*
X168599365Y-109331705D01*
X168650495Y-109195316D01*
X168657250Y-109133134D01*
X168657250Y-108269405D01*
X172067870Y-108269405D01*
X172069258Y-108277530D01*
X172124848Y-108491708D01*
X172128381Y-108501738D01*
X172219264Y-108703491D01*
X172224433Y-108712777D01*
X172348010Y-108896333D01*
X172354669Y-108904616D01*
X172507402Y-109064722D01*
X172515372Y-109071774D01*
X172692901Y-109203858D01*
X172701931Y-109209457D01*
X172899178Y-109309743D01*
X172909039Y-109313746D01*
X173120353Y-109379362D01*
X173130733Y-109381644D01*
X173148043Y-109383939D01*
X173162207Y-109381743D01*
X173166000Y-109368556D01*
X173166000Y-108272115D01*
X173161525Y-108256876D01*
X173160135Y-108255671D01*
X173152452Y-108254000D01*
X172084475Y-108254000D01*
X172069795Y-108258310D01*
X172067870Y-108269405D01*
X168657250Y-108269405D01*
X168657250Y-107434980D01*
X168677252Y-107366859D01*
X168730908Y-107320366D01*
X168783250Y-107308980D01*
X172022039Y-107308980D01*
X172090160Y-107328982D01*
X172136653Y-107382638D01*
X172146757Y-107452912D01*
X172140478Y-107477971D01*
X172097490Y-107596403D01*
X172094719Y-107606670D01*
X172072747Y-107728174D01*
X172074165Y-107741413D01*
X172088804Y-107746000D01*
X173548000Y-107746000D01*
X173616121Y-107766002D01*
X173662614Y-107819658D01*
X173674000Y-107872000D01*
X173674000Y-109366383D01*
X173677973Y-109379914D01*
X173688580Y-109381439D01*
X173808943Y-109356184D01*
X173819141Y-109353124D01*
X174024934Y-109271853D01*
X174034466Y-109267122D01*
X174223636Y-109152330D01*
X174232226Y-109146066D01*
X174399348Y-109001046D01*
X174406766Y-108993417D01*
X174465268Y-108922068D01*
X174523928Y-108882073D01*
X174594898Y-108880141D01*
X174653873Y-108914987D01*
X174685494Y-108948134D01*
X174800757Y-109068962D01*
X174805045Y-109072152D01*
X174805048Y-109072155D01*
X174982635Y-109204283D01*
X174982638Y-109204285D01*
X174986915Y-109207467D01*
X174991665Y-109209882D01*
X175188078Y-109309743D01*
X175193748Y-109312626D01*
X175304545Y-109347030D01*
X175410239Y-109379849D01*
X175410245Y-109379850D01*
X175415342Y-109381433D01*
X175513606Y-109394457D01*
X175640077Y-109411220D01*
X175640081Y-109411220D01*
X175645361Y-109411920D01*
X175650690Y-109411720D01*
X175650692Y-109411720D01*
X175761295Y-109407567D01*
X175877228Y-109403215D01*
X176104314Y-109355567D01*
X176109270Y-109353610D01*
X176109276Y-109353608D01*
X176315164Y-109272298D01*
X176320125Y-109270339D01*
X176518491Y-109149968D01*
X176522521Y-109146471D01*
X176526834Y-109143326D01*
X176527580Y-109144349D01*
X176586616Y-109117340D01*
X176656897Y-109127398D01*
X176705456Y-109166481D01*
X176767842Y-109249722D01*
X176777989Y-109263261D01*
X176894545Y-109350615D01*
X177030934Y-109401745D01*
X177093116Y-109408500D01*
X178906884Y-109408500D01*
X178969066Y-109401745D01*
X179105455Y-109350615D01*
X179222011Y-109263261D01*
X179309365Y-109146705D01*
X179360495Y-109010316D01*
X179367250Y-108948134D01*
X179367250Y-107118888D01*
X187010027Y-107118888D01*
X187047299Y-107362464D01*
X187123853Y-107596682D01*
X187126241Y-107601270D01*
X187126243Y-107601274D01*
X187177302Y-107699357D01*
X187237633Y-107815252D01*
X187240736Y-107819385D01*
X187240738Y-107819388D01*
X187372320Y-107994637D01*
X187385584Y-108012303D01*
X187563731Y-108182545D01*
X187568003Y-108185459D01*
X187568004Y-108185460D01*
X187763011Y-108318485D01*
X187763016Y-108318488D01*
X187767291Y-108321404D01*
X187771980Y-108323580D01*
X187771986Y-108323584D01*
X187986106Y-108422975D01*
X187986111Y-108422977D01*
X187990797Y-108425152D01*
X187995775Y-108426532D01*
X187995779Y-108426534D01*
X188223274Y-108489623D01*
X188228247Y-108491002D01*
X188328705Y-108501738D01*
X188426071Y-108512144D01*
X188426079Y-108512144D01*
X188429406Y-108512500D01*
X190552469Y-108512500D01*
X190555042Y-108512288D01*
X190555053Y-108512288D01*
X190730432Y-108497869D01*
X190730438Y-108497868D01*
X190735583Y-108497445D01*
X190855076Y-108467431D01*
X190969559Y-108438675D01*
X190969563Y-108438674D01*
X190974570Y-108437416D01*
X190979303Y-108435358D01*
X190979306Y-108435357D01*
X191195807Y-108341220D01*
X191195810Y-108341218D01*
X191200544Y-108339160D01*
X191204878Y-108336356D01*
X191204882Y-108336354D01*
X191403092Y-108208126D01*
X191403098Y-108208121D01*
X191407436Y-108205315D01*
X191429257Y-108185460D01*
X191527974Y-108095634D01*
X191589690Y-108039477D01*
X191592889Y-108035426D01*
X191592893Y-108035422D01*
X191739205Y-107850157D01*
X191742410Y-107846099D01*
X191823417Y-107699357D01*
X191858996Y-107634906D01*
X191858997Y-107634903D01*
X191861497Y-107630375D01*
X191943750Y-107398097D01*
X191953785Y-107341762D01*
X191986057Y-107160593D01*
X191986057Y-107160589D01*
X191986963Y-107155505D01*
X191989705Y-106931038D01*
X191989910Y-106914282D01*
X191989910Y-106914280D01*
X191989973Y-106909112D01*
X191952701Y-106665536D01*
X191876147Y-106431318D01*
X191839973Y-106361827D01*
X191764756Y-106217337D01*
X191764755Y-106217336D01*
X191762367Y-106212748D01*
X191739207Y-106181901D01*
X191617521Y-106019832D01*
X191617519Y-106019830D01*
X191614416Y-106015697D01*
X191436269Y-105845455D01*
X191431008Y-105841866D01*
X191236989Y-105709515D01*
X191236984Y-105709512D01*
X191232709Y-105706596D01*
X191228020Y-105704420D01*
X191228014Y-105704416D01*
X191013894Y-105605025D01*
X191013889Y-105605023D01*
X191009203Y-105602848D01*
X191004225Y-105601468D01*
X191004221Y-105601466D01*
X190776726Y-105538377D01*
X190776725Y-105538377D01*
X190771753Y-105536998D01*
X190665136Y-105525604D01*
X190573929Y-105515856D01*
X190573921Y-105515856D01*
X190570594Y-105515500D01*
X188447531Y-105515500D01*
X188444958Y-105515712D01*
X188444947Y-105515712D01*
X188269568Y-105530131D01*
X188269562Y-105530132D01*
X188264417Y-105530555D01*
X188164573Y-105555634D01*
X188030441Y-105589325D01*
X188030437Y-105589326D01*
X188025430Y-105590584D01*
X188020697Y-105592642D01*
X188020694Y-105592643D01*
X187804193Y-105686780D01*
X187804190Y-105686782D01*
X187799456Y-105688840D01*
X187795122Y-105691644D01*
X187795118Y-105691646D01*
X187596908Y-105819874D01*
X187596902Y-105819879D01*
X187592564Y-105822685D01*
X187588739Y-105826165D01*
X187588737Y-105826167D01*
X187562313Y-105850211D01*
X187410310Y-105988523D01*
X187407111Y-105992574D01*
X187407107Y-105992578D01*
X187298861Y-106129643D01*
X187257590Y-106181901D01*
X187138503Y-106397625D01*
X187056250Y-106629903D01*
X187055343Y-106634995D01*
X187014843Y-106862359D01*
X187013037Y-106872495D01*
X187012974Y-106877658D01*
X187010495Y-107080616D01*
X187010027Y-107118888D01*
X179367250Y-107118888D01*
X179367250Y-107051866D01*
X179360495Y-106989684D01*
X179309365Y-106853295D01*
X179222011Y-106736739D01*
X179105455Y-106649385D01*
X178969066Y-106598255D01*
X178906884Y-106591500D01*
X177093116Y-106591500D01*
X177030934Y-106598255D01*
X176894545Y-106649385D01*
X176777989Y-106736739D01*
X176772608Y-106743919D01*
X176702972Y-106836834D01*
X176646113Y-106879349D01*
X176575294Y-106884375D01*
X176526936Y-106862360D01*
X176433085Y-106792533D01*
X176226252Y-106687374D01*
X176093757Y-106646233D01*
X176009761Y-106620151D01*
X176009755Y-106620150D01*
X176004658Y-106618567D01*
X175942576Y-106610339D01*
X175927641Y-106608359D01*
X175862739Y-106579579D01*
X175823700Y-106520280D01*
X175822917Y-106449288D01*
X175855102Y-106394356D01*
X176568546Y-105680912D01*
X176583574Y-105668075D01*
X176594434Y-105660185D01*
X176638886Y-105610816D01*
X176643427Y-105606031D01*
X176657472Y-105591986D01*
X176659627Y-105589325D01*
X176669969Y-105576554D01*
X176674253Y-105571538D01*
X176714283Y-105527080D01*
X176714287Y-105527075D01*
X176718704Y-105522169D01*
X176725411Y-105510552D01*
X176736609Y-105494259D01*
X176740891Y-105488971D01*
X176745047Y-105483839D01*
X176775213Y-105424637D01*
X176778346Y-105418867D01*
X176808260Y-105367055D01*
X176808262Y-105367050D01*
X176811564Y-105361331D01*
X176813605Y-105355051D01*
X176813608Y-105355043D01*
X176815708Y-105348579D01*
X176823272Y-105330317D01*
X176826363Y-105324251D01*
X176826366Y-105324242D01*
X176829362Y-105318363D01*
X176846556Y-105254196D01*
X176848422Y-105247894D01*
X176868954Y-105184702D01*
X176870355Y-105171372D01*
X176873958Y-105151929D01*
X176877430Y-105138971D01*
X176880906Y-105072646D01*
X176881423Y-105066071D01*
X176883156Y-105049579D01*
X176883500Y-105046306D01*
X176883500Y-105026432D01*
X176883673Y-105019838D01*
X176886804Y-104960099D01*
X176886804Y-104960095D01*
X176887149Y-104953507D01*
X176885051Y-104940260D01*
X176883500Y-104920550D01*
X176883500Y-100504174D01*
X176903502Y-100436053D01*
X176933847Y-100403414D01*
X176969185Y-100376882D01*
X176969188Y-100376880D01*
X176973320Y-100373777D01*
X177139301Y-100200088D01*
X177164535Y-100163097D01*
X177219444Y-100118096D01*
X177289968Y-100109925D01*
X177353716Y-100141179D01*
X177374411Y-100165660D01*
X177378498Y-100171977D01*
X177540186Y-100349670D01*
X177608238Y-100403414D01*
X177724670Y-100495367D01*
X177724675Y-100495370D01*
X177728724Y-100498568D01*
X177733240Y-100501061D01*
X177733243Y-100501063D01*
X177934526Y-100612177D01*
X177934530Y-100612179D01*
X177939050Y-100614674D01*
X177943919Y-100616398D01*
X177943923Y-100616400D01*
X178160640Y-100693144D01*
X178160644Y-100693145D01*
X178165515Y-100694870D01*
X178170608Y-100695777D01*
X178170611Y-100695778D01*
X178396948Y-100736095D01*
X178396954Y-100736096D01*
X178402037Y-100737001D01*
X178489400Y-100738068D01*
X178637093Y-100739873D01*
X178637095Y-100739873D01*
X178642263Y-100739936D01*
X178879744Y-100703596D01*
X178991997Y-100666906D01*
X179103183Y-100630566D01*
X179103189Y-100630563D01*
X179108101Y-100628958D01*
X179112687Y-100626571D01*
X179112691Y-100626569D01*
X179316607Y-100520416D01*
X179321200Y-100518025D01*
X179473477Y-100403692D01*
X179509185Y-100376882D01*
X179509188Y-100376880D01*
X179513320Y-100373777D01*
X179679301Y-100200088D01*
X179802703Y-100019188D01*
X179811774Y-100005891D01*
X179811775Y-100005890D01*
X179814686Y-100001622D01*
X179818965Y-99992405D01*
X179913658Y-99788405D01*
X179913659Y-99788401D01*
X179915837Y-99783710D01*
X179980040Y-99552202D01*
X179991043Y-99449243D01*
X180000644Y-99359407D01*
X180000644Y-99359399D01*
X180001000Y-99356072D01*
X180001000Y-99121598D01*
X179998855Y-99095500D01*
X179988317Y-98967334D01*
X179986322Y-98943063D01*
X179927794Y-98710056D01*
X179831997Y-98489737D01*
X179721426Y-98318821D01*
X179704310Y-98292363D01*
X179704308Y-98292360D01*
X179701502Y-98288023D01*
X179539814Y-98110330D01*
X179430434Y-98023947D01*
X179355330Y-97964633D01*
X179355325Y-97964630D01*
X179351276Y-97961432D01*
X179346760Y-97958939D01*
X179346757Y-97958937D01*
X179145474Y-97847823D01*
X179145470Y-97847821D01*
X179140950Y-97845326D01*
X179136081Y-97843602D01*
X179136077Y-97843600D01*
X178919360Y-97766856D01*
X178919356Y-97766855D01*
X178914485Y-97765130D01*
X178909392Y-97764223D01*
X178909389Y-97764222D01*
X178683052Y-97723905D01*
X178683046Y-97723904D01*
X178677963Y-97722999D01*
X178585474Y-97721869D01*
X178442907Y-97720127D01*
X178442905Y-97720127D01*
X178437737Y-97720064D01*
X178200256Y-97756404D01*
X178101066Y-97788824D01*
X177976817Y-97829434D01*
X177976811Y-97829437D01*
X177971899Y-97831042D01*
X177967313Y-97833429D01*
X177967309Y-97833431D01*
X177834613Y-97902509D01*
X177758800Y-97941975D01*
X177754657Y-97945085D01*
X177754658Y-97945085D01*
X177590514Y-98068328D01*
X177566680Y-98086223D01*
X177400699Y-98259912D01*
X177375465Y-98296903D01*
X177320556Y-98341904D01*
X177250032Y-98350075D01*
X177186284Y-98318821D01*
X177165589Y-98294340D01*
X177164311Y-98292365D01*
X177161502Y-98288023D01*
X176999814Y-98110330D01*
X176890434Y-98023947D01*
X176815330Y-97964633D01*
X176815325Y-97964630D01*
X176811276Y-97961432D01*
X176806760Y-97958939D01*
X176806757Y-97958937D01*
X176605474Y-97847823D01*
X176605470Y-97847821D01*
X176600950Y-97845326D01*
X176596081Y-97843602D01*
X176596077Y-97843600D01*
X176379360Y-97766856D01*
X176379356Y-97766855D01*
X176374485Y-97765130D01*
X176369392Y-97764223D01*
X176369389Y-97764222D01*
X176143052Y-97723905D01*
X176143046Y-97723904D01*
X176137963Y-97722999D01*
X176045474Y-97721869D01*
X175902907Y-97720127D01*
X175902905Y-97720127D01*
X175897737Y-97720064D01*
X175660256Y-97756404D01*
X175561066Y-97788824D01*
X175436817Y-97829434D01*
X175436811Y-97829437D01*
X175431899Y-97831042D01*
X175427313Y-97833429D01*
X175427309Y-97833431D01*
X175294613Y-97902509D01*
X175218800Y-97941975D01*
X175063717Y-98058415D01*
X174997235Y-98083320D01*
X174927839Y-98068328D01*
X174877565Y-98018198D01*
X174870085Y-98001885D01*
X174866269Y-97991707D01*
X174866267Y-97991703D01*
X174863115Y-97983295D01*
X174775761Y-97866739D01*
X174659205Y-97779385D01*
X174522816Y-97728255D01*
X174460634Y-97721500D01*
X172459366Y-97721500D01*
X172397184Y-97728255D01*
X172260795Y-97779385D01*
X172144239Y-97866739D01*
X172056885Y-97983295D01*
X172005755Y-98119684D01*
X171999000Y-98181866D01*
X171999000Y-100278134D01*
X172005755Y-100340316D01*
X172056885Y-100476705D01*
X172144239Y-100593261D01*
X172260795Y-100680615D01*
X172397184Y-100731745D01*
X172459366Y-100738500D01*
X174460634Y-100738500D01*
X174522816Y-100731745D01*
X174659205Y-100680615D01*
X174775761Y-100593261D01*
X174863115Y-100476705D01*
X174870573Y-100456811D01*
X174913213Y-100400047D01*
X174979774Y-100375346D01*
X175049123Y-100390553D01*
X175066645Y-100402156D01*
X175068590Y-100403692D01*
X175109654Y-100461609D01*
X175116500Y-100502576D01*
X175116500Y-104581852D01*
X175096498Y-104649973D01*
X175079595Y-104670947D01*
X174245744Y-105504798D01*
X174183432Y-105538824D01*
X174150055Y-105541530D01*
X174095579Y-105538675D01*
X174095574Y-105538675D01*
X174088987Y-105538330D01*
X174075733Y-105540429D01*
X174056024Y-105541980D01*
X161923627Y-105541980D01*
X161855506Y-105521978D01*
X161834532Y-105505075D01*
X155429893Y-99100435D01*
X155395867Y-99038123D01*
X155394131Y-99010982D01*
X155393019Y-99010982D01*
X155393019Y-99005475D01*
X155393498Y-99000000D01*
X155373543Y-98771913D01*
X155357692Y-98712755D01*
X155315707Y-98556067D01*
X155315706Y-98556065D01*
X155314284Y-98550757D01*
X155284264Y-98486379D01*
X155219849Y-98348238D01*
X155219846Y-98348233D01*
X155217523Y-98343251D01*
X155144098Y-98238389D01*
X155089357Y-98160211D01*
X155089355Y-98160208D01*
X155086198Y-98155700D01*
X154924300Y-97993802D01*
X154919792Y-97990645D01*
X154919789Y-97990643D01*
X154793920Y-97902509D01*
X154736749Y-97862477D01*
X154731767Y-97860154D01*
X154731762Y-97860151D01*
X154534225Y-97768039D01*
X154534224Y-97768039D01*
X154529243Y-97765716D01*
X154523935Y-97764294D01*
X154523933Y-97764293D01*
X154313402Y-97707881D01*
X154313400Y-97707881D01*
X154308087Y-97706457D01*
X154080000Y-97686502D01*
X153851913Y-97706457D01*
X153846600Y-97707881D01*
X153846598Y-97707881D01*
X153636067Y-97764293D01*
X153636065Y-97764294D01*
X153630757Y-97765716D01*
X153625776Y-97768039D01*
X153625775Y-97768039D01*
X153428238Y-97860151D01*
X153428233Y-97860154D01*
X153423251Y-97862477D01*
X153366080Y-97902509D01*
X153240211Y-97990643D01*
X153240208Y-97990645D01*
X153235700Y-97993802D01*
X153073802Y-98155700D01*
X153070645Y-98160208D01*
X153070643Y-98160211D01*
X153015902Y-98238389D01*
X152942477Y-98343251D01*
X152940154Y-98348233D01*
X152940151Y-98348238D01*
X152875736Y-98486379D01*
X152845716Y-98550757D01*
X152844294Y-98556065D01*
X152844293Y-98556067D01*
X152802308Y-98712755D01*
X152786457Y-98771913D01*
X152766502Y-99000000D01*
X152786457Y-99228087D01*
X152787881Y-99233400D01*
X152787881Y-99233402D01*
X152825025Y-99372022D01*
X152845716Y-99449243D01*
X152848039Y-99454224D01*
X152848039Y-99454225D01*
X152940151Y-99651762D01*
X152940154Y-99651767D01*
X152942477Y-99656749D01*
X153073802Y-99844300D01*
X153159595Y-99930093D01*
X153193621Y-99992405D01*
X153196500Y-100019188D01*
X153196500Y-101869352D01*
X153176498Y-101937473D01*
X153159595Y-101958447D01*
X149773447Y-105344595D01*
X149711135Y-105378621D01*
X149684352Y-105381500D01*
X149220373Y-105381500D01*
X149217656Y-105381738D01*
X149217649Y-105381738D01*
X149148980Y-105387746D01*
X149049413Y-105396457D01*
X149044100Y-105397881D01*
X149044098Y-105397881D01*
X148833567Y-105454293D01*
X148833565Y-105454294D01*
X148828257Y-105455716D01*
X148823276Y-105458039D01*
X148823275Y-105458039D01*
X148625738Y-105550151D01*
X148625733Y-105550154D01*
X148620751Y-105552477D01*
X148537435Y-105610816D01*
X148437711Y-105680643D01*
X148437708Y-105680645D01*
X148433200Y-105683802D01*
X148271302Y-105845700D01*
X148139977Y-106033251D01*
X148137654Y-106038233D01*
X148137651Y-106038238D01*
X148072553Y-106177843D01*
X148043216Y-106240757D01*
X147983957Y-106461913D01*
X147964002Y-106690000D01*
X147983957Y-106918087D01*
X147985381Y-106923400D01*
X147985381Y-106923402D01*
X148036377Y-107113718D01*
X148043216Y-107139243D01*
X148045539Y-107144224D01*
X148045539Y-107144225D01*
X148137651Y-107341762D01*
X148137654Y-107341767D01*
X148139977Y-107346749D01*
X148179344Y-107402971D01*
X148242437Y-107493076D01*
X148271302Y-107534300D01*
X148433200Y-107696198D01*
X148437708Y-107699355D01*
X148437711Y-107699357D01*
X148501312Y-107743891D01*
X148620751Y-107827523D01*
X148625733Y-107829846D01*
X148625738Y-107829849D01*
X148659957Y-107845805D01*
X148713242Y-107892722D01*
X148732703Y-107960999D01*
X148712161Y-108028959D01*
X148659957Y-108074195D01*
X148625738Y-108090151D01*
X148625733Y-108090154D01*
X148620751Y-108092477D01*
X148539238Y-108149553D01*
X148437711Y-108220643D01*
X148437708Y-108220645D01*
X148433200Y-108223802D01*
X148271302Y-108385700D01*
X148268145Y-108390208D01*
X148268143Y-108390211D01*
X148241953Y-108427614D01*
X148139977Y-108573251D01*
X148137654Y-108578233D01*
X148137651Y-108578238D01*
X148087057Y-108686738D01*
X148043216Y-108780757D01*
X148041794Y-108786065D01*
X148041793Y-108786067D01*
X147985381Y-108996598D01*
X147983957Y-109001913D01*
X147964002Y-109230000D01*
X147983957Y-109458087D01*
X147985381Y-109463400D01*
X147985381Y-109463402D01*
X148018879Y-109588415D01*
X148043216Y-109679243D01*
X148045539Y-109684224D01*
X148045539Y-109684225D01*
X148137651Y-109881762D01*
X148137654Y-109881767D01*
X148139977Y-109886749D01*
X148271302Y-110074300D01*
X148433200Y-110236198D01*
X148437708Y-110239355D01*
X148437711Y-110239357D01*
X148515889Y-110294098D01*
X148620751Y-110367523D01*
X148625733Y-110369846D01*
X148625738Y-110369849D01*
X148659957Y-110385805D01*
X148713242Y-110432722D01*
X148732703Y-110500999D01*
X148712161Y-110568959D01*
X148659957Y-110614195D01*
X148625738Y-110630151D01*
X148625733Y-110630154D01*
X148620751Y-110632477D01*
X148588074Y-110655358D01*
X148437711Y-110760643D01*
X148437708Y-110760645D01*
X148433200Y-110763802D01*
X148271302Y-110925700D01*
X148139977Y-111113251D01*
X148137654Y-111118233D01*
X148137651Y-111118238D01*
X148137534Y-111118489D01*
X148043216Y-111320757D01*
X148041794Y-111326065D01*
X148041793Y-111326067D01*
X147994256Y-111503478D01*
X147983957Y-111541913D01*
X147964002Y-111770000D01*
X147983957Y-111998087D01*
X147985381Y-112003400D01*
X147985381Y-112003402D01*
X148009935Y-112095036D01*
X148043216Y-112219243D01*
X148045539Y-112224224D01*
X148045539Y-112224225D01*
X148137651Y-112421762D01*
X148137654Y-112421767D01*
X148139977Y-112426749D01*
X148271302Y-112614300D01*
X148433200Y-112776198D01*
X148437708Y-112779355D01*
X148437711Y-112779357D01*
X148515889Y-112834098D01*
X148620751Y-112907523D01*
X148625733Y-112909846D01*
X148625738Y-112909849D01*
X148659957Y-112925805D01*
X148713242Y-112972722D01*
X148732703Y-113040999D01*
X148712161Y-113108959D01*
X148659957Y-113154195D01*
X148625738Y-113170151D01*
X148625733Y-113170154D01*
X148620751Y-113172477D01*
X148521038Y-113242297D01*
X148437711Y-113300643D01*
X148437708Y-113300645D01*
X148433200Y-113303802D01*
X148271302Y-113465700D01*
X148268145Y-113470208D01*
X148268143Y-113470211D01*
X148238532Y-113512500D01*
X148139977Y-113653251D01*
X148137654Y-113658233D01*
X148137651Y-113658238D01*
X148050202Y-113845775D01*
X148043216Y-113860757D01*
X148041794Y-113866065D01*
X148041793Y-113866067D01*
X147985381Y-114076598D01*
X147983957Y-114081913D01*
X147964002Y-114310000D01*
X141230998Y-114310000D01*
X141211043Y-114081913D01*
X141209619Y-114076598D01*
X141153207Y-113866067D01*
X141153206Y-113866065D01*
X141151784Y-113860757D01*
X141144798Y-113845775D01*
X141057349Y-113658238D01*
X141057346Y-113658233D01*
X141055023Y-113653251D01*
X140956468Y-113512500D01*
X140926857Y-113470211D01*
X140926855Y-113470208D01*
X140923698Y-113465700D01*
X140761800Y-113303802D01*
X140757292Y-113300645D01*
X140757289Y-113300643D01*
X140673962Y-113242297D01*
X140574249Y-113172477D01*
X140569267Y-113170154D01*
X140569262Y-113170151D01*
X140534451Y-113153919D01*
X140481166Y-113107002D01*
X140461705Y-113038725D01*
X140482247Y-112970765D01*
X140534451Y-112925529D01*
X140569011Y-112909414D01*
X140578507Y-112903931D01*
X140756967Y-112778972D01*
X140765375Y-112771916D01*
X140919416Y-112617875D01*
X140926472Y-112609467D01*
X141051431Y-112431007D01*
X141056914Y-112421511D01*
X141148990Y-112224053D01*
X141152736Y-112213761D01*
X141198894Y-112041497D01*
X141198558Y-112027401D01*
X141190616Y-112024000D01*
X137849533Y-112024000D01*
X137836002Y-112027973D01*
X137834773Y-112036522D01*
X137882264Y-112213761D01*
X137886010Y-112224053D01*
X137978086Y-112421511D01*
X137983569Y-112431007D01*
X138108528Y-112609467D01*
X138115584Y-112617875D01*
X138269625Y-112771916D01*
X138278033Y-112778972D01*
X138456493Y-112903931D01*
X138465989Y-112909414D01*
X138500549Y-112925529D01*
X138553834Y-112972446D01*
X138573295Y-113040723D01*
X138552753Y-113108683D01*
X138500549Y-113153919D01*
X138465738Y-113170151D01*
X138465733Y-113170154D01*
X138460751Y-113172477D01*
X138361038Y-113242297D01*
X138277711Y-113300643D01*
X138277708Y-113300645D01*
X138273200Y-113303802D01*
X138111302Y-113465700D01*
X138108145Y-113470208D01*
X138108143Y-113470211D01*
X138078532Y-113512500D01*
X137979977Y-113653251D01*
X137977654Y-113658233D01*
X137977651Y-113658238D01*
X137890202Y-113845775D01*
X137883216Y-113860757D01*
X137881794Y-113866065D01*
X137881793Y-113866067D01*
X137825381Y-114076598D01*
X137823957Y-114081913D01*
X137804002Y-114310000D01*
X135932623Y-114310000D01*
X135933498Y-114300000D01*
X135913543Y-114071913D01*
X135912119Y-114066598D01*
X135855707Y-113856067D01*
X135855706Y-113856065D01*
X135854284Y-113850757D01*
X135764512Y-113658238D01*
X135759849Y-113648238D01*
X135759846Y-113648233D01*
X135757523Y-113643251D01*
X135633200Y-113465700D01*
X135629357Y-113460211D01*
X135629355Y-113460208D01*
X135626198Y-113455700D01*
X135464300Y-113293802D01*
X135459792Y-113290645D01*
X135459789Y-113290643D01*
X135291030Y-113172477D01*
X135276749Y-113162477D01*
X135271767Y-113160154D01*
X135271762Y-113160151D01*
X135074225Y-113068039D01*
X135074224Y-113068039D01*
X135069243Y-113065716D01*
X135063935Y-113064294D01*
X135063933Y-113064293D01*
X134853402Y-113007881D01*
X134853400Y-113007881D01*
X134848087Y-113006457D01*
X134620000Y-112986502D01*
X134391913Y-113006457D01*
X134386600Y-113007881D01*
X134386598Y-113007881D01*
X134176067Y-113064293D01*
X134176065Y-113064294D01*
X134170757Y-113065716D01*
X134165776Y-113068039D01*
X134165775Y-113068039D01*
X133968238Y-113160151D01*
X133968233Y-113160154D01*
X133963251Y-113162477D01*
X133948970Y-113172477D01*
X133780211Y-113290643D01*
X133780208Y-113290645D01*
X133775700Y-113293802D01*
X133613802Y-113455700D01*
X133610645Y-113460208D01*
X133610643Y-113460211D01*
X133606800Y-113465700D01*
X133482477Y-113643251D01*
X133480154Y-113648233D01*
X133480151Y-113648238D01*
X133475488Y-113658238D01*
X133385716Y-113850757D01*
X133384294Y-113856065D01*
X133384293Y-113856067D01*
X133327881Y-114066598D01*
X133326457Y-114071913D01*
X133306502Y-114300000D01*
X129583498Y-114300000D01*
X129563543Y-114071913D01*
X129562119Y-114066598D01*
X129505707Y-113856067D01*
X129505706Y-113856065D01*
X129504284Y-113850757D01*
X129414512Y-113658238D01*
X129409849Y-113648238D01*
X129409846Y-113648233D01*
X129407523Y-113643251D01*
X129283200Y-113465700D01*
X129279357Y-113460211D01*
X129279355Y-113460208D01*
X129276198Y-113455700D01*
X129114300Y-113293802D01*
X129109792Y-113290645D01*
X129109789Y-113290643D01*
X128941030Y-113172477D01*
X128926749Y-113162477D01*
X128921767Y-113160154D01*
X128921762Y-113160151D01*
X128724225Y-113068039D01*
X128724224Y-113068039D01*
X128719243Y-113065716D01*
X128713935Y-113064294D01*
X128713933Y-113064293D01*
X128503402Y-113007881D01*
X128503400Y-113007881D01*
X128498087Y-113006457D01*
X128270000Y-112986502D01*
X128041913Y-113006457D01*
X128036600Y-113007881D01*
X128036598Y-113007881D01*
X127826067Y-113064293D01*
X127826065Y-113064294D01*
X127820757Y-113065716D01*
X127815776Y-113068039D01*
X127815775Y-113068039D01*
X127618238Y-113160151D01*
X127618233Y-113160154D01*
X127613251Y-113162477D01*
X127598970Y-113172477D01*
X127430211Y-113290643D01*
X127430208Y-113290645D01*
X127425700Y-113293802D01*
X127263802Y-113455700D01*
X127260645Y-113460208D01*
X127260643Y-113460211D01*
X127256800Y-113465700D01*
X127132477Y-113643251D01*
X127130154Y-113648233D01*
X127130151Y-113648238D01*
X127125488Y-113658238D01*
X127035716Y-113850757D01*
X127034294Y-113856065D01*
X127034293Y-113856067D01*
X126977881Y-114066598D01*
X126976457Y-114071913D01*
X126956502Y-114300000D01*
X121008500Y-114300000D01*
X121008500Y-109496522D01*
X137834773Y-109496522D01*
X137882264Y-109673761D01*
X137886010Y-109684053D01*
X137978086Y-109881511D01*
X137983569Y-109891007D01*
X138108528Y-110069467D01*
X138115584Y-110077875D01*
X138269625Y-110231916D01*
X138278033Y-110238972D01*
X138456493Y-110363931D01*
X138465989Y-110369414D01*
X138501141Y-110385805D01*
X138554426Y-110432722D01*
X138573887Y-110500999D01*
X138553345Y-110568959D01*
X138501141Y-110614195D01*
X138465989Y-110630586D01*
X138456493Y-110636069D01*
X138278033Y-110761028D01*
X138269625Y-110768084D01*
X138115584Y-110922125D01*
X138108528Y-110930533D01*
X137983569Y-111108993D01*
X137978086Y-111118489D01*
X137886010Y-111315947D01*
X137882264Y-111326239D01*
X137836106Y-111498503D01*
X137836442Y-111512599D01*
X137844384Y-111516000D01*
X139245385Y-111516000D01*
X139260624Y-111511525D01*
X139261829Y-111510135D01*
X139263500Y-111502452D01*
X139263500Y-111497885D01*
X139771500Y-111497885D01*
X139775975Y-111513124D01*
X139777365Y-111514329D01*
X139785048Y-111516000D01*
X141185467Y-111516000D01*
X141198998Y-111512027D01*
X141200227Y-111503478D01*
X141152736Y-111326239D01*
X141148990Y-111315947D01*
X141056914Y-111118489D01*
X141051431Y-111108993D01*
X140926472Y-110930533D01*
X140919416Y-110922125D01*
X140765375Y-110768084D01*
X140756967Y-110761028D01*
X140578507Y-110636069D01*
X140569011Y-110630586D01*
X140533859Y-110614195D01*
X140480574Y-110567278D01*
X140461113Y-110499001D01*
X140481655Y-110431041D01*
X140533859Y-110385805D01*
X140569011Y-110369414D01*
X140578507Y-110363931D01*
X140756967Y-110238972D01*
X140765375Y-110231916D01*
X140919416Y-110077875D01*
X140926472Y-110069467D01*
X141051431Y-109891007D01*
X141056914Y-109881511D01*
X141148990Y-109684053D01*
X141152736Y-109673761D01*
X141198894Y-109501497D01*
X141198558Y-109487401D01*
X141190616Y-109484000D01*
X139789615Y-109484000D01*
X139774376Y-109488475D01*
X139773171Y-109489865D01*
X139771500Y-109497548D01*
X139771500Y-111497885D01*
X139263500Y-111497885D01*
X139263500Y-109502115D01*
X139259025Y-109486876D01*
X139257635Y-109485671D01*
X139249952Y-109484000D01*
X137849533Y-109484000D01*
X137836002Y-109487973D01*
X137834773Y-109496522D01*
X121008500Y-109496522D01*
X121008500Y-107538134D01*
X137809000Y-107538134D01*
X137815755Y-107600316D01*
X137866885Y-107736705D01*
X137954239Y-107853261D01*
X138070795Y-107940615D01*
X138207184Y-107991745D01*
X138218729Y-107992999D01*
X138221410Y-107994113D01*
X138222722Y-107994425D01*
X138222672Y-107994637D01*
X138284290Y-108020238D01*
X138324718Y-108078599D01*
X138327177Y-108149553D01*
X138290884Y-108210572D01*
X138280275Y-108219147D01*
X138269625Y-108228084D01*
X138115584Y-108382125D01*
X138108528Y-108390533D01*
X137983569Y-108568993D01*
X137978086Y-108578489D01*
X137886010Y-108775947D01*
X137882264Y-108786239D01*
X137836106Y-108958503D01*
X137836442Y-108972599D01*
X137844384Y-108976000D01*
X141185467Y-108976000D01*
X141198998Y-108972027D01*
X141200227Y-108963478D01*
X141152736Y-108786239D01*
X141148990Y-108775947D01*
X141056914Y-108578489D01*
X141051431Y-108568993D01*
X140926472Y-108390533D01*
X140919416Y-108382125D01*
X140765375Y-108228084D01*
X140752754Y-108217493D01*
X140753608Y-108216475D01*
X140713276Y-108166016D01*
X140705968Y-108095397D01*
X140738000Y-108032037D01*
X140799202Y-107996053D01*
X140816262Y-107993000D01*
X140827816Y-107991745D01*
X140964205Y-107940615D01*
X141080761Y-107853261D01*
X141168115Y-107736705D01*
X141219245Y-107600316D01*
X141226000Y-107538134D01*
X141226000Y-105841866D01*
X141219245Y-105779684D01*
X141168115Y-105643295D01*
X141080761Y-105526739D01*
X140964205Y-105439385D01*
X140827816Y-105388255D01*
X140765634Y-105381500D01*
X138269366Y-105381500D01*
X138207184Y-105388255D01*
X138070795Y-105439385D01*
X137954239Y-105526739D01*
X137866885Y-105643295D01*
X137815755Y-105779684D01*
X137809000Y-105841866D01*
X137809000Y-107538134D01*
X121008500Y-107538134D01*
X121008500Y-104140000D01*
X126956502Y-104140000D01*
X126976457Y-104368087D01*
X126977881Y-104373400D01*
X126977881Y-104373402D01*
X127033736Y-104581852D01*
X127035716Y-104589243D01*
X127038039Y-104594224D01*
X127038039Y-104594225D01*
X127130151Y-104791762D01*
X127130154Y-104791767D01*
X127132477Y-104796749D01*
X127135634Y-104801257D01*
X127226108Y-104930467D01*
X127263802Y-104984300D01*
X127425700Y-105146198D01*
X127430208Y-105149355D01*
X127430211Y-105149357D01*
X127461652Y-105171372D01*
X127613251Y-105277523D01*
X127618233Y-105279846D01*
X127618238Y-105279849D01*
X127757088Y-105344595D01*
X127820757Y-105374284D01*
X127826065Y-105375706D01*
X127826067Y-105375707D01*
X128036598Y-105432119D01*
X128036600Y-105432119D01*
X128041913Y-105433543D01*
X128270000Y-105453498D01*
X128498087Y-105433543D01*
X128503400Y-105432119D01*
X128503402Y-105432119D01*
X128713933Y-105375707D01*
X128713935Y-105375706D01*
X128719243Y-105374284D01*
X128782912Y-105344595D01*
X128921762Y-105279849D01*
X128921767Y-105279846D01*
X128926749Y-105277523D01*
X129078348Y-105171372D01*
X129109789Y-105149357D01*
X129109792Y-105149355D01*
X129114300Y-105146198D01*
X129276198Y-104984300D01*
X129313893Y-104930467D01*
X129404366Y-104801257D01*
X129407523Y-104796749D01*
X129409846Y-104791767D01*
X129409849Y-104791762D01*
X129501961Y-104594225D01*
X129501961Y-104594224D01*
X129504284Y-104589243D01*
X129506265Y-104581852D01*
X129562119Y-104373402D01*
X129562119Y-104373400D01*
X129563543Y-104368087D01*
X129583498Y-104140000D01*
X133306502Y-104140000D01*
X133326457Y-104368087D01*
X133327881Y-104373400D01*
X133327881Y-104373402D01*
X133383736Y-104581852D01*
X133385716Y-104589243D01*
X133388039Y-104594224D01*
X133388039Y-104594225D01*
X133480151Y-104791762D01*
X133480154Y-104791767D01*
X133482477Y-104796749D01*
X133485634Y-104801257D01*
X133576108Y-104930467D01*
X133613802Y-104984300D01*
X133775700Y-105146198D01*
X133780208Y-105149355D01*
X133780211Y-105149357D01*
X133811652Y-105171372D01*
X133963251Y-105277523D01*
X133968233Y-105279846D01*
X133968238Y-105279849D01*
X134107088Y-105344595D01*
X134170757Y-105374284D01*
X134176065Y-105375706D01*
X134176067Y-105375707D01*
X134386598Y-105432119D01*
X134386600Y-105432119D01*
X134391913Y-105433543D01*
X134620000Y-105453498D01*
X134848087Y-105433543D01*
X134853400Y-105432119D01*
X134853402Y-105432119D01*
X135063933Y-105375707D01*
X135063935Y-105375706D01*
X135069243Y-105374284D01*
X135132912Y-105344595D01*
X135271762Y-105279849D01*
X135271767Y-105279846D01*
X135276749Y-105277523D01*
X135428348Y-105171372D01*
X135459789Y-105149357D01*
X135459792Y-105149355D01*
X135464300Y-105146198D01*
X135626198Y-104984300D01*
X135663893Y-104930467D01*
X135754366Y-104801257D01*
X135757523Y-104796749D01*
X135759846Y-104791767D01*
X135759849Y-104791762D01*
X135851961Y-104594225D01*
X135851961Y-104594224D01*
X135854284Y-104589243D01*
X135856265Y-104581852D01*
X135912119Y-104373402D01*
X135912119Y-104373400D01*
X135913543Y-104368087D01*
X135933498Y-104140000D01*
X135913543Y-103911913D01*
X135854284Y-103690757D01*
X135851961Y-103685775D01*
X135759849Y-103488238D01*
X135759846Y-103488233D01*
X135757523Y-103483251D01*
X135626198Y-103295700D01*
X135464300Y-103133802D01*
X135459792Y-103130645D01*
X135459789Y-103130643D01*
X135381611Y-103075902D01*
X135276749Y-103002477D01*
X135271767Y-103000154D01*
X135271762Y-103000151D01*
X135074225Y-102908039D01*
X135074224Y-102908039D01*
X135069243Y-102905716D01*
X135063935Y-102904294D01*
X135063933Y-102904293D01*
X134853402Y-102847881D01*
X134853400Y-102847881D01*
X134848087Y-102846457D01*
X134620000Y-102826502D01*
X134391913Y-102846457D01*
X134386600Y-102847881D01*
X134386598Y-102847881D01*
X134176067Y-102904293D01*
X134176065Y-102904294D01*
X134170757Y-102905716D01*
X134165776Y-102908039D01*
X134165775Y-102908039D01*
X133968238Y-103000151D01*
X133968233Y-103000154D01*
X133963251Y-103002477D01*
X133858389Y-103075902D01*
X133780211Y-103130643D01*
X133780208Y-103130645D01*
X133775700Y-103133802D01*
X133613802Y-103295700D01*
X133482477Y-103483251D01*
X133480154Y-103488233D01*
X133480151Y-103488238D01*
X133388039Y-103685775D01*
X133385716Y-103690757D01*
X133326457Y-103911913D01*
X133306502Y-104140000D01*
X129583498Y-104140000D01*
X129563543Y-103911913D01*
X129504284Y-103690757D01*
X129501961Y-103685775D01*
X129409849Y-103488238D01*
X129409846Y-103488233D01*
X129407523Y-103483251D01*
X129276198Y-103295700D01*
X129114300Y-103133802D01*
X129109792Y-103130645D01*
X129109789Y-103130643D01*
X129031611Y-103075902D01*
X128926749Y-103002477D01*
X128921767Y-103000154D01*
X128921762Y-103000151D01*
X128724225Y-102908039D01*
X128724224Y-102908039D01*
X128719243Y-102905716D01*
X128713935Y-102904294D01*
X128713933Y-102904293D01*
X128503402Y-102847881D01*
X128503400Y-102847881D01*
X128498087Y-102846457D01*
X128270000Y-102826502D01*
X128041913Y-102846457D01*
X128036600Y-102847881D01*
X128036598Y-102847881D01*
X127826067Y-102904293D01*
X127826065Y-102904294D01*
X127820757Y-102905716D01*
X127815776Y-102908039D01*
X127815775Y-102908039D01*
X127618238Y-103000151D01*
X127618233Y-103000154D01*
X127613251Y-103002477D01*
X127508389Y-103075902D01*
X127430211Y-103130643D01*
X127430208Y-103130645D01*
X127425700Y-103133802D01*
X127263802Y-103295700D01*
X127132477Y-103483251D01*
X127130154Y-103488233D01*
X127130151Y-103488238D01*
X127038039Y-103685775D01*
X127035716Y-103690757D01*
X126976457Y-103911913D01*
X126956502Y-104140000D01*
X121008500Y-104140000D01*
X121008500Y-100086062D01*
X143198493Y-100086062D01*
X143207789Y-100098077D01*
X143258994Y-100133931D01*
X143268489Y-100139414D01*
X143465947Y-100231490D01*
X143476239Y-100235236D01*
X143686688Y-100291625D01*
X143697481Y-100293528D01*
X143914525Y-100312517D01*
X143925475Y-100312517D01*
X144142519Y-100293528D01*
X144153312Y-100291625D01*
X144363761Y-100235236D01*
X144374053Y-100231490D01*
X144571511Y-100139414D01*
X144581006Y-100133931D01*
X144633048Y-100097491D01*
X144641424Y-100087012D01*
X144634356Y-100073566D01*
X143932812Y-99372022D01*
X143918868Y-99364408D01*
X143917035Y-99364539D01*
X143910420Y-99368790D01*
X143204923Y-100074287D01*
X143198493Y-100086062D01*
X121008500Y-100086062D01*
X121008500Y-97957977D01*
X122326541Y-97957977D01*
X122346496Y-98186064D01*
X122347920Y-98191377D01*
X122347920Y-98191379D01*
X122388254Y-98341904D01*
X122405755Y-98407220D01*
X122408078Y-98412201D01*
X122408078Y-98412202D01*
X122500190Y-98609739D01*
X122500193Y-98609744D01*
X122502516Y-98614726D01*
X122571460Y-98713188D01*
X122629472Y-98796037D01*
X122633841Y-98802277D01*
X122795739Y-98964175D01*
X122800247Y-98967332D01*
X122800250Y-98967334D01*
X122846902Y-99000000D01*
X122983290Y-99095500D01*
X122988272Y-99097823D01*
X122988277Y-99097826D01*
X123172432Y-99183698D01*
X123190796Y-99192261D01*
X123196104Y-99193683D01*
X123196106Y-99193684D01*
X123406637Y-99250096D01*
X123406639Y-99250096D01*
X123411952Y-99251520D01*
X123640039Y-99271475D01*
X123868126Y-99251520D01*
X123873439Y-99250096D01*
X123873441Y-99250096D01*
X124083972Y-99193684D01*
X124083974Y-99193683D01*
X124089282Y-99192261D01*
X124107646Y-99183698D01*
X124291801Y-99097826D01*
X124291806Y-99097823D01*
X124296788Y-99095500D01*
X124433176Y-99000000D01*
X124479828Y-98967334D01*
X124479831Y-98967332D01*
X124484339Y-98964175D01*
X124646237Y-98802277D01*
X124668694Y-98770206D01*
X124724149Y-98725878D01*
X124771906Y-98716477D01*
X124974953Y-98716477D01*
X124993903Y-98717910D01*
X125008138Y-98720076D01*
X125008142Y-98720076D01*
X125015372Y-98721176D01*
X125022664Y-98720583D01*
X125022667Y-98720583D01*
X125068041Y-98716892D01*
X125078256Y-98716477D01*
X125086316Y-98716477D01*
X125099606Y-98714928D01*
X125114530Y-98713188D01*
X125118905Y-98712755D01*
X125184362Y-98707431D01*
X125184365Y-98707430D01*
X125191660Y-98706837D01*
X125198624Y-98704581D01*
X125204583Y-98703390D01*
X125210438Y-98702006D01*
X125217704Y-98701159D01*
X125286350Y-98676242D01*
X125290478Y-98674825D01*
X125352959Y-98654584D01*
X125352961Y-98654583D01*
X125359922Y-98652328D01*
X125366177Y-98648532D01*
X125371651Y-98646026D01*
X125377081Y-98643307D01*
X125383960Y-98640810D01*
X125392119Y-98635461D01*
X125444999Y-98600791D01*
X125448703Y-98598454D01*
X125511130Y-98560572D01*
X125519507Y-98553174D01*
X125519531Y-98553201D01*
X125522523Y-98550548D01*
X125525756Y-98547845D01*
X125531875Y-98543833D01*
X125585151Y-98487594D01*
X125587529Y-98485152D01*
X127277276Y-96795405D01*
X127339588Y-96761379D01*
X127366371Y-96758500D01*
X128826167Y-96758500D01*
X128894288Y-96778502D01*
X128940781Y-96832158D01*
X128950885Y-96902432D01*
X128921391Y-96967012D01*
X128915262Y-96973595D01*
X128781420Y-97107437D01*
X128778263Y-97111945D01*
X128778261Y-97111948D01*
X128773892Y-97118188D01*
X128650095Y-97294988D01*
X128647772Y-97299970D01*
X128647769Y-97299975D01*
X128573070Y-97460169D01*
X128553334Y-97502494D01*
X128551912Y-97507802D01*
X128551911Y-97507804D01*
X128504029Y-97686502D01*
X128494075Y-97723650D01*
X128474120Y-97951737D01*
X128494075Y-98179824D01*
X128495499Y-98185137D01*
X128495499Y-98185139D01*
X128537505Y-98341904D01*
X128553334Y-98400980D01*
X128555657Y-98405961D01*
X128555657Y-98405962D01*
X128647769Y-98603499D01*
X128647772Y-98603504D01*
X128650095Y-98608486D01*
X128714986Y-98701159D01*
X128763334Y-98770207D01*
X128781420Y-98796037D01*
X128943318Y-98957935D01*
X128947826Y-98961092D01*
X128947829Y-98961094D01*
X129007627Y-99002965D01*
X129130869Y-99089260D01*
X129135851Y-99091583D01*
X129135856Y-99091586D01*
X129333393Y-99183698D01*
X129338375Y-99186021D01*
X129343683Y-99187443D01*
X129343685Y-99187444D01*
X129554216Y-99243856D01*
X129554218Y-99243856D01*
X129559531Y-99245280D01*
X129787618Y-99265235D01*
X130015705Y-99245280D01*
X130021018Y-99243856D01*
X130021020Y-99243856D01*
X130231551Y-99187444D01*
X130231553Y-99187443D01*
X130236861Y-99186021D01*
X130241843Y-99183698D01*
X130439380Y-99091586D01*
X130439385Y-99091583D01*
X130444367Y-99089260D01*
X130567609Y-99002965D01*
X130627407Y-98961094D01*
X130627410Y-98961092D01*
X130631918Y-98957935D01*
X130793816Y-98796037D01*
X130811903Y-98770207D01*
X130860250Y-98701159D01*
X130925141Y-98608486D01*
X130927464Y-98603504D01*
X130927467Y-98603499D01*
X131019579Y-98405962D01*
X131019579Y-98405961D01*
X131021902Y-98400980D01*
X131037732Y-98341904D01*
X131079737Y-98185139D01*
X131079737Y-98185137D01*
X131081161Y-98179824D01*
X131101116Y-97951737D01*
X131092025Y-97847823D01*
X131086863Y-97788824D01*
X131100852Y-97719219D01*
X131123289Y-97688747D01*
X138115662Y-90696374D01*
X138177974Y-90662348D01*
X138204757Y-90659469D01*
X141793243Y-90659469D01*
X141861364Y-90679471D01*
X141907857Y-90733127D01*
X141917961Y-90803401D01*
X141888467Y-90867981D01*
X141882338Y-90874564D01*
X136140836Y-96616066D01*
X136078524Y-96650092D01*
X136040759Y-96652492D01*
X135883321Y-96638718D01*
X135877846Y-96638239D01*
X135649759Y-96658194D01*
X135644446Y-96659618D01*
X135644444Y-96659618D01*
X135433913Y-96716030D01*
X135433911Y-96716031D01*
X135428603Y-96717453D01*
X135423622Y-96719776D01*
X135423621Y-96719776D01*
X135226084Y-96811888D01*
X135226079Y-96811891D01*
X135221097Y-96814214D01*
X135142592Y-96869184D01*
X135038057Y-96942380D01*
X135038054Y-96942382D01*
X135033546Y-96945539D01*
X134871648Y-97107437D01*
X134868491Y-97111945D01*
X134868489Y-97111948D01*
X134864120Y-97118188D01*
X134740323Y-97294988D01*
X134738000Y-97299970D01*
X134737997Y-97299975D01*
X134663298Y-97460169D01*
X134643562Y-97502494D01*
X134642140Y-97507802D01*
X134642139Y-97507804D01*
X134594257Y-97686502D01*
X134584303Y-97723650D01*
X134564348Y-97951737D01*
X134584303Y-98179824D01*
X134585727Y-98185137D01*
X134585727Y-98185139D01*
X134627733Y-98341904D01*
X134643562Y-98400980D01*
X134645885Y-98405961D01*
X134645885Y-98405962D01*
X134737997Y-98603499D01*
X134738000Y-98603504D01*
X134740323Y-98608486D01*
X134805214Y-98701159D01*
X134853562Y-98770207D01*
X134871648Y-98796037D01*
X135033546Y-98957935D01*
X135038054Y-98961092D01*
X135038057Y-98961094D01*
X135097855Y-99002965D01*
X135221097Y-99089260D01*
X135226079Y-99091583D01*
X135226084Y-99091586D01*
X135423621Y-99183698D01*
X135428603Y-99186021D01*
X135433911Y-99187443D01*
X135433913Y-99187444D01*
X135644444Y-99243856D01*
X135644446Y-99243856D01*
X135649759Y-99245280D01*
X135877846Y-99265235D01*
X136105933Y-99245280D01*
X136111246Y-99243856D01*
X136111248Y-99243856D01*
X136321779Y-99187444D01*
X136321781Y-99187443D01*
X136327089Y-99186021D01*
X136332071Y-99183698D01*
X136529608Y-99091586D01*
X136529613Y-99091583D01*
X136534595Y-99089260D01*
X136654252Y-99005475D01*
X142607483Y-99005475D01*
X142626472Y-99222519D01*
X142628375Y-99233312D01*
X142684764Y-99443761D01*
X142688510Y-99454053D01*
X142780586Y-99651511D01*
X142786069Y-99661006D01*
X142822509Y-99713048D01*
X142832988Y-99721424D01*
X142846434Y-99714356D01*
X143547978Y-99012812D01*
X143554356Y-99001132D01*
X144284408Y-99001132D01*
X144284539Y-99002965D01*
X144288790Y-99009580D01*
X144994287Y-99715077D01*
X145006062Y-99721507D01*
X145018077Y-99712211D01*
X145053931Y-99661006D01*
X145059414Y-99651511D01*
X145151490Y-99454053D01*
X145155236Y-99443761D01*
X145211625Y-99233312D01*
X145213528Y-99222519D01*
X145232517Y-99005475D01*
X145232517Y-98994525D01*
X145213528Y-98777481D01*
X145211625Y-98766688D01*
X145155236Y-98556239D01*
X145151490Y-98545947D01*
X145059414Y-98348489D01*
X145053931Y-98338994D01*
X145017491Y-98286952D01*
X145007012Y-98278576D01*
X144993566Y-98285644D01*
X144292022Y-98987188D01*
X144284408Y-99001132D01*
X143554356Y-99001132D01*
X143555592Y-98998868D01*
X143555461Y-98997035D01*
X143551210Y-98990420D01*
X142845713Y-98284923D01*
X142833938Y-98278493D01*
X142821923Y-98287789D01*
X142786069Y-98338994D01*
X142780586Y-98348489D01*
X142688510Y-98545947D01*
X142684764Y-98556239D01*
X142628375Y-98766688D01*
X142626472Y-98777481D01*
X142607483Y-98994525D01*
X142607483Y-99005475D01*
X136654252Y-99005475D01*
X136657837Y-99002965D01*
X136717635Y-98961094D01*
X136717638Y-98961092D01*
X136722146Y-98957935D01*
X136884044Y-98796037D01*
X136902131Y-98770207D01*
X136950478Y-98701159D01*
X137015369Y-98608486D01*
X137017692Y-98603504D01*
X137017695Y-98603499D01*
X137109807Y-98405962D01*
X137109807Y-98405961D01*
X137112130Y-98400980D01*
X137127960Y-98341904D01*
X137169965Y-98185139D01*
X137169965Y-98185137D01*
X137171389Y-98179824D01*
X137191344Y-97951737D01*
X137187954Y-97912988D01*
X143198576Y-97912988D01*
X143205644Y-97926434D01*
X143907188Y-98627978D01*
X143921132Y-98635592D01*
X143922965Y-98635461D01*
X143929580Y-98631210D01*
X144635077Y-97925713D01*
X144641507Y-97913938D01*
X144632211Y-97901923D01*
X144581006Y-97866069D01*
X144571511Y-97860586D01*
X144374053Y-97768510D01*
X144363761Y-97764764D01*
X144153312Y-97708375D01*
X144142519Y-97706472D01*
X143925475Y-97687483D01*
X143914525Y-97687483D01*
X143697481Y-97706472D01*
X143686688Y-97708375D01*
X143476239Y-97764764D01*
X143465947Y-97768510D01*
X143268489Y-97860586D01*
X143258994Y-97866069D01*
X143206952Y-97902509D01*
X143198576Y-97912988D01*
X137187954Y-97912988D01*
X137182253Y-97847823D01*
X137177091Y-97788824D01*
X137191080Y-97719219D01*
X137213517Y-97688747D01*
X142430291Y-92471973D01*
X142492603Y-92437947D01*
X142563418Y-92443012D01*
X142620254Y-92485559D01*
X142633581Y-92507818D01*
X142700586Y-92651511D01*
X142706069Y-92661007D01*
X142831028Y-92839467D01*
X142838084Y-92847875D01*
X142992125Y-93001916D01*
X143000533Y-93008972D01*
X143178993Y-93133931D01*
X143188489Y-93139414D01*
X143385947Y-93231490D01*
X143396239Y-93235236D01*
X143568503Y-93281394D01*
X143582599Y-93281058D01*
X143586000Y-93273116D01*
X143586000Y-93267967D01*
X144094000Y-93267967D01*
X144097973Y-93281498D01*
X144106522Y-93282727D01*
X144283761Y-93235236D01*
X144294053Y-93231490D01*
X144491511Y-93139414D01*
X144501007Y-93133931D01*
X144679467Y-93008972D01*
X144687875Y-93001916D01*
X144841916Y-92847875D01*
X144848972Y-92839467D01*
X144973931Y-92661007D01*
X144979414Y-92651511D01*
X145071490Y-92454053D01*
X145075236Y-92443761D01*
X145121394Y-92271497D01*
X145121058Y-92257401D01*
X145113116Y-92254000D01*
X144112115Y-92254000D01*
X144096876Y-92258475D01*
X144095671Y-92259865D01*
X144094000Y-92267548D01*
X144094000Y-93267967D01*
X143586000Y-93267967D01*
X143586000Y-91872000D01*
X143606002Y-91803879D01*
X143659658Y-91757386D01*
X143712000Y-91746000D01*
X145107967Y-91746000D01*
X145121498Y-91742027D01*
X145122727Y-91733478D01*
X145078280Y-91567600D01*
X145079970Y-91496624D01*
X145119764Y-91437828D01*
X145185028Y-91409880D01*
X145199987Y-91408989D01*
X152639496Y-91408989D01*
X152707617Y-91428991D01*
X152754110Y-91482647D01*
X152764214Y-91552921D01*
X152761203Y-91567600D01*
X152710350Y-91757386D01*
X152706457Y-91771913D01*
X152686502Y-92000000D01*
X152706457Y-92228087D01*
X152707881Y-92233400D01*
X152707881Y-92233402D01*
X152717031Y-92267548D01*
X152765716Y-92449243D01*
X152768039Y-92454224D01*
X152768039Y-92454225D01*
X152860151Y-92651762D01*
X152860154Y-92651767D01*
X152862477Y-92656749D01*
X152865634Y-92661257D01*
X152983629Y-92829771D01*
X152993802Y-92844300D01*
X153155700Y-93006198D01*
X153160208Y-93009355D01*
X153160211Y-93009357D01*
X153238389Y-93064098D01*
X153343251Y-93137523D01*
X153348233Y-93139846D01*
X153348238Y-93139849D01*
X153544765Y-93231490D01*
X153550757Y-93234284D01*
X153556065Y-93235706D01*
X153556067Y-93235707D01*
X153766598Y-93292119D01*
X153766600Y-93292119D01*
X153771913Y-93293543D01*
X154000000Y-93313498D01*
X154228087Y-93293543D01*
X154233400Y-93292119D01*
X154233402Y-93292119D01*
X154443933Y-93235707D01*
X154443935Y-93235706D01*
X154449243Y-93234284D01*
X154455235Y-93231490D01*
X154651762Y-93139849D01*
X154651767Y-93139846D01*
X154656749Y-93137523D01*
X154761611Y-93064098D01*
X154839789Y-93009357D01*
X154839792Y-93009355D01*
X154844300Y-93006198D01*
X154930093Y-92920405D01*
X154992405Y-92886379D01*
X155019188Y-92883500D01*
X158601852Y-92883500D01*
X158669973Y-92903502D01*
X158690947Y-92920405D01*
X163579595Y-97809053D01*
X163613621Y-97871365D01*
X163616500Y-97898148D01*
X163616500Y-97955826D01*
X163596498Y-98023947D01*
X163566166Y-98056576D01*
X163563731Y-98058405D01*
X163497251Y-98083319D01*
X163427853Y-98068336D01*
X163377573Y-98018212D01*
X163370085Y-98001885D01*
X163366269Y-97991707D01*
X163366267Y-97991703D01*
X163363115Y-97983295D01*
X163275761Y-97866739D01*
X163159205Y-97779385D01*
X163022816Y-97728255D01*
X162960634Y-97721500D01*
X160959366Y-97721500D01*
X160897184Y-97728255D01*
X160760795Y-97779385D01*
X160644239Y-97866739D01*
X160556885Y-97983295D01*
X160505755Y-98119684D01*
X160499000Y-98181866D01*
X160499000Y-100278134D01*
X160505755Y-100340316D01*
X160556885Y-100476705D01*
X160644239Y-100593261D01*
X160760795Y-100680615D01*
X160897184Y-100731745D01*
X160959366Y-100738500D01*
X162960634Y-100738500D01*
X163022816Y-100731745D01*
X163159205Y-100680615D01*
X163275761Y-100593261D01*
X163363115Y-100476705D01*
X163370573Y-100456811D01*
X163413213Y-100400047D01*
X163479774Y-100375346D01*
X163549123Y-100390553D01*
X163566647Y-100402158D01*
X163684670Y-100495367D01*
X163684675Y-100495370D01*
X163688724Y-100498568D01*
X163693240Y-100501061D01*
X163693243Y-100501063D01*
X163894526Y-100612177D01*
X163894530Y-100612179D01*
X163899050Y-100614674D01*
X163903919Y-100616398D01*
X163903923Y-100616400D01*
X164120640Y-100693144D01*
X164120644Y-100693145D01*
X164125515Y-100694870D01*
X164130608Y-100695777D01*
X164130611Y-100695778D01*
X164356948Y-100736095D01*
X164356954Y-100736096D01*
X164362037Y-100737001D01*
X164449400Y-100738068D01*
X164597093Y-100739873D01*
X164597095Y-100739873D01*
X164602263Y-100739936D01*
X164839744Y-100703596D01*
X164951997Y-100666906D01*
X165063183Y-100630566D01*
X165063189Y-100630563D01*
X165068101Y-100628958D01*
X165072687Y-100626571D01*
X165072691Y-100626569D01*
X165276607Y-100520416D01*
X165281200Y-100518025D01*
X165433477Y-100403692D01*
X165469185Y-100376882D01*
X165469188Y-100376880D01*
X165473320Y-100373777D01*
X165639301Y-100200088D01*
X165664535Y-100163097D01*
X165719444Y-100118096D01*
X165789968Y-100109925D01*
X165853716Y-100141179D01*
X165874411Y-100165660D01*
X165878498Y-100171977D01*
X166040186Y-100349670D01*
X166108238Y-100403414D01*
X166224670Y-100495367D01*
X166224675Y-100495370D01*
X166228724Y-100498568D01*
X166233240Y-100501061D01*
X166233243Y-100501063D01*
X166434526Y-100612177D01*
X166434530Y-100612179D01*
X166439050Y-100614674D01*
X166443919Y-100616398D01*
X166443923Y-100616400D01*
X166660640Y-100693144D01*
X166660644Y-100693145D01*
X166665515Y-100694870D01*
X166670608Y-100695777D01*
X166670611Y-100695778D01*
X166896948Y-100736095D01*
X166896954Y-100736096D01*
X166902037Y-100737001D01*
X166989400Y-100738068D01*
X167137093Y-100739873D01*
X167137095Y-100739873D01*
X167142263Y-100739936D01*
X167379744Y-100703596D01*
X167491997Y-100666906D01*
X167603183Y-100630566D01*
X167603189Y-100630563D01*
X167608101Y-100628958D01*
X167612687Y-100626571D01*
X167612691Y-100626569D01*
X167816607Y-100520416D01*
X167821200Y-100518025D01*
X167973477Y-100403692D01*
X168009185Y-100376882D01*
X168009188Y-100376880D01*
X168013320Y-100373777D01*
X168179301Y-100200088D01*
X168302703Y-100019188D01*
X168311774Y-100005891D01*
X168311775Y-100005890D01*
X168314686Y-100001622D01*
X168318965Y-99992405D01*
X168413658Y-99788405D01*
X168413659Y-99788401D01*
X168415837Y-99783710D01*
X168480040Y-99552202D01*
X168491043Y-99449243D01*
X168500644Y-99359407D01*
X168500644Y-99359399D01*
X168501000Y-99356072D01*
X168501000Y-99121598D01*
X168498855Y-99095500D01*
X168488317Y-98967334D01*
X168486322Y-98943063D01*
X168427794Y-98710056D01*
X168331997Y-98489737D01*
X168221426Y-98318821D01*
X168204310Y-98292363D01*
X168204308Y-98292360D01*
X168201502Y-98288023D01*
X168039814Y-98110330D01*
X167930434Y-98023947D01*
X167855330Y-97964633D01*
X167855325Y-97964630D01*
X167851276Y-97961432D01*
X167846760Y-97958939D01*
X167846757Y-97958937D01*
X167645474Y-97847823D01*
X167645470Y-97847821D01*
X167640950Y-97845326D01*
X167636081Y-97843602D01*
X167636077Y-97843600D01*
X167419360Y-97766856D01*
X167419356Y-97766855D01*
X167414485Y-97765130D01*
X167409392Y-97764223D01*
X167409389Y-97764222D01*
X167183052Y-97723905D01*
X167183046Y-97723904D01*
X167177963Y-97722999D01*
X167085474Y-97721869D01*
X166942907Y-97720127D01*
X166942905Y-97720127D01*
X166937737Y-97720064D01*
X166700256Y-97756404D01*
X166601066Y-97788824D01*
X166476817Y-97829434D01*
X166476811Y-97829437D01*
X166471899Y-97831042D01*
X166467313Y-97833429D01*
X166467309Y-97833431D01*
X166334613Y-97902509D01*
X166258800Y-97941975D01*
X166254657Y-97945085D01*
X166254658Y-97945085D01*
X166090514Y-98068328D01*
X166066680Y-98086223D01*
X165900699Y-98259912D01*
X165875465Y-98296903D01*
X165820556Y-98341904D01*
X165750032Y-98350075D01*
X165686284Y-98318821D01*
X165665589Y-98294340D01*
X165664311Y-98292365D01*
X165661502Y-98288023D01*
X165499814Y-98110330D01*
X165495760Y-98107128D01*
X165495759Y-98107127D01*
X165431408Y-98056306D01*
X165390345Y-97998389D01*
X165383500Y-97957424D01*
X165383500Y-97559450D01*
X165385051Y-97539739D01*
X165386117Y-97533009D01*
X165387149Y-97526493D01*
X165386219Y-97508734D01*
X165383673Y-97460169D01*
X165383500Y-97453574D01*
X165383500Y-97433694D01*
X165381421Y-97413912D01*
X165380905Y-97407348D01*
X165377775Y-97347627D01*
X165377775Y-97347625D01*
X165377429Y-97341029D01*
X165373958Y-97328074D01*
X165370358Y-97308645D01*
X165369646Y-97301874D01*
X165369644Y-97301867D01*
X165368954Y-97295298D01*
X165348424Y-97232112D01*
X165346558Y-97225813D01*
X165331069Y-97168008D01*
X165329362Y-97161637D01*
X165326365Y-97155755D01*
X165323272Y-97149683D01*
X165315708Y-97131421D01*
X165313608Y-97124957D01*
X165313605Y-97124949D01*
X165311564Y-97118669D01*
X165308262Y-97112950D01*
X165308260Y-97112945D01*
X165278346Y-97061133D01*
X165275213Y-97055363D01*
X165245047Y-96996161D01*
X165236609Y-96985741D01*
X165225411Y-96969448D01*
X165225209Y-96969097D01*
X165218704Y-96957831D01*
X165214287Y-96952925D01*
X165214283Y-96952920D01*
X165174253Y-96908462D01*
X165169969Y-96903446D01*
X165159559Y-96890591D01*
X165159556Y-96890588D01*
X165157472Y-96888014D01*
X165143427Y-96873969D01*
X165138886Y-96869184D01*
X165098856Y-96824726D01*
X165098855Y-96824725D01*
X165094434Y-96819815D01*
X165083574Y-96811925D01*
X165068546Y-96799088D01*
X163572592Y-95303134D01*
X187011500Y-95303134D01*
X187018255Y-95365316D01*
X187069385Y-95501705D01*
X187156739Y-95618261D01*
X187273295Y-95705615D01*
X187409684Y-95756745D01*
X187471866Y-95763500D01*
X191528134Y-95763500D01*
X191590316Y-95756745D01*
X191726705Y-95705615D01*
X191843261Y-95618261D01*
X191930615Y-95501705D01*
X191981745Y-95365316D01*
X191988500Y-95303134D01*
X191988500Y-93226866D01*
X191981745Y-93164684D01*
X191930615Y-93028295D01*
X191843261Y-92911739D01*
X191726705Y-92824385D01*
X191590316Y-92773255D01*
X191528134Y-92766500D01*
X187471866Y-92766500D01*
X187409684Y-92773255D01*
X187273295Y-92824385D01*
X187156739Y-92911739D01*
X187069385Y-93028295D01*
X187018255Y-93164684D01*
X187011500Y-93226866D01*
X187011500Y-95303134D01*
X163572592Y-95303134D01*
X159893542Y-91624084D01*
X159859516Y-91561772D01*
X159864581Y-91490957D01*
X159907128Y-91434121D01*
X159973648Y-91409310D01*
X159982637Y-91408989D01*
X177282441Y-91408989D01*
X177301391Y-91410422D01*
X177315626Y-91412588D01*
X177315630Y-91412588D01*
X177322860Y-91413688D01*
X177330152Y-91413095D01*
X177330155Y-91413095D01*
X177375529Y-91409404D01*
X177385744Y-91408989D01*
X177393804Y-91408989D01*
X177407094Y-91407440D01*
X177422018Y-91405700D01*
X177426393Y-91405267D01*
X177491850Y-91399943D01*
X177491853Y-91399942D01*
X177499148Y-91399349D01*
X177506112Y-91397093D01*
X177512071Y-91395902D01*
X177517926Y-91394518D01*
X177525192Y-91393671D01*
X177593838Y-91368754D01*
X177597966Y-91367337D01*
X177660447Y-91347096D01*
X177660449Y-91347095D01*
X177667410Y-91344840D01*
X177673665Y-91341044D01*
X177679139Y-91338538D01*
X177684569Y-91335819D01*
X177691448Y-91333322D01*
X177752487Y-91293303D01*
X177756191Y-91290966D01*
X177818618Y-91253084D01*
X177826995Y-91245686D01*
X177827019Y-91245713D01*
X177830011Y-91243060D01*
X177833244Y-91240357D01*
X177839363Y-91236345D01*
X177892639Y-91180106D01*
X177895017Y-91177664D01*
X179535487Y-89537194D01*
X187036135Y-89537194D01*
X187047006Y-89608236D01*
X187049395Y-89618263D01*
X187122709Y-89842570D01*
X187126706Y-89852079D01*
X187235669Y-90061395D01*
X187241163Y-90070120D01*
X187382854Y-90258835D01*
X187389697Y-90266542D01*
X187560310Y-90429584D01*
X187568316Y-90436067D01*
X187763274Y-90569057D01*
X187772226Y-90574143D01*
X187986285Y-90673506D01*
X187995945Y-90677060D01*
X188223369Y-90740130D01*
X188233473Y-90742057D01*
X188426102Y-90762644D01*
X188432794Y-90763000D01*
X189227885Y-90763000D01*
X189243124Y-90758525D01*
X189244329Y-90757135D01*
X189246000Y-90749452D01*
X189246000Y-90744885D01*
X189754000Y-90744885D01*
X189758475Y-90760124D01*
X189759865Y-90761329D01*
X189767548Y-90763000D01*
X190549857Y-90763000D01*
X190555030Y-90762788D01*
X190730350Y-90748374D01*
X190740512Y-90746691D01*
X190969396Y-90689200D01*
X190979151Y-90685879D01*
X191195557Y-90591782D01*
X191204655Y-90586904D01*
X191402787Y-90458727D01*
X191410956Y-90452437D01*
X191585501Y-90293613D01*
X191592526Y-90286080D01*
X191738787Y-90100880D01*
X191744492Y-90092293D01*
X191858536Y-89885703D01*
X191862766Y-89876291D01*
X191941539Y-89653844D01*
X191944173Y-89643873D01*
X191963239Y-89536837D01*
X191961779Y-89523540D01*
X191947222Y-89519000D01*
X189772115Y-89519000D01*
X189756876Y-89523475D01*
X189755671Y-89524865D01*
X189754000Y-89532548D01*
X189754000Y-90744885D01*
X189246000Y-90744885D01*
X189246000Y-89537115D01*
X189241525Y-89521876D01*
X189240135Y-89520671D01*
X189232452Y-89519000D01*
X187051466Y-89519000D01*
X187038122Y-89522918D01*
X187036135Y-89537194D01*
X179535487Y-89537194D01*
X180079518Y-88993163D01*
X187036761Y-88993163D01*
X187038221Y-89006460D01*
X187052778Y-89011000D01*
X189227885Y-89011000D01*
X189243124Y-89006525D01*
X189244329Y-89005135D01*
X189246000Y-88997452D01*
X189246000Y-88992885D01*
X189754000Y-88992885D01*
X189758475Y-89008124D01*
X189759865Y-89009329D01*
X189767548Y-89011000D01*
X191948534Y-89011000D01*
X191961878Y-89007082D01*
X191963865Y-88992806D01*
X191952994Y-88921764D01*
X191950605Y-88911737D01*
X191877291Y-88687430D01*
X191873294Y-88677921D01*
X191764331Y-88468605D01*
X191758837Y-88459880D01*
X191617146Y-88271165D01*
X191610303Y-88263458D01*
X191439690Y-88100416D01*
X191431684Y-88093933D01*
X191236726Y-87960943D01*
X191227774Y-87955857D01*
X191013715Y-87856494D01*
X191004055Y-87852940D01*
X190776631Y-87789870D01*
X190766527Y-87787943D01*
X190573898Y-87767356D01*
X190567206Y-87767000D01*
X189772115Y-87767000D01*
X189756876Y-87771475D01*
X189755671Y-87772865D01*
X189754000Y-87780548D01*
X189754000Y-88992885D01*
X189246000Y-88992885D01*
X189246000Y-87785115D01*
X189241525Y-87769876D01*
X189240135Y-87768671D01*
X189232452Y-87767000D01*
X188450143Y-87767000D01*
X188444970Y-87767212D01*
X188269650Y-87781626D01*
X188259488Y-87783309D01*
X188030604Y-87840800D01*
X188020849Y-87844121D01*
X187804443Y-87938218D01*
X187795345Y-87943096D01*
X187597213Y-88071273D01*
X187589044Y-88077563D01*
X187414499Y-88236387D01*
X187407474Y-88243920D01*
X187261213Y-88429120D01*
X187255508Y-88437707D01*
X187141464Y-88644297D01*
X187137234Y-88653709D01*
X187058461Y-88876156D01*
X187055827Y-88886127D01*
X187036761Y-88993163D01*
X180079518Y-88993163D01*
X193238431Y-75834250D01*
X193252843Y-75821864D01*
X193264438Y-75813331D01*
X193264443Y-75813326D01*
X193270338Y-75808988D01*
X193275077Y-75803410D01*
X193275080Y-75803407D01*
X193304555Y-75768712D01*
X193311485Y-75761196D01*
X193317181Y-75755500D01*
X193319444Y-75752639D01*
X193319449Y-75752634D01*
X193334805Y-75733224D01*
X193337594Y-75729822D01*
X193380116Y-75679771D01*
X193380117Y-75679770D01*
X193384853Y-75674195D01*
X193388181Y-75667678D01*
X193391547Y-75662630D01*
X193394710Y-75657508D01*
X193399255Y-75651764D01*
X193430184Y-75585585D01*
X193432083Y-75581701D01*
X193465289Y-75516672D01*
X193467030Y-75509557D01*
X193469133Y-75503902D01*
X193471042Y-75498163D01*
X193474142Y-75491530D01*
X193489011Y-75420045D01*
X193489981Y-75415762D01*
X193507328Y-75344870D01*
X193508020Y-75333716D01*
X193508055Y-75333718D01*
X193508295Y-75329746D01*
X193508672Y-75325525D01*
X193510161Y-75318365D01*
X193508066Y-75240938D01*
X193508020Y-75237530D01*
X193508020Y-67574484D01*
X193509453Y-67555534D01*
X193511619Y-67541299D01*
X193511619Y-67541295D01*
X193512719Y-67534065D01*
X193511133Y-67514559D01*
X193508435Y-67481396D01*
X193508020Y-67471181D01*
X193508020Y-67463121D01*
X193504729Y-67434894D01*
X193504298Y-67430535D01*
X193498973Y-67365074D01*
X193498380Y-67357778D01*
X193496125Y-67350817D01*
X193494938Y-67344877D01*
X193493549Y-67339002D01*
X193492702Y-67331733D01*
X193467784Y-67263084D01*
X193466367Y-67258956D01*
X193446127Y-67196478D01*
X193446126Y-67196476D01*
X193443871Y-67189515D01*
X193440075Y-67183260D01*
X193437569Y-67177786D01*
X193434850Y-67172356D01*
X193432353Y-67165477D01*
X193392334Y-67104438D01*
X193389987Y-67100719D01*
X193387783Y-67097087D01*
X193352115Y-67038307D01*
X193344717Y-67029930D01*
X193344744Y-67029906D01*
X193342091Y-67026914D01*
X193339388Y-67023681D01*
X193335376Y-67017562D01*
X193279137Y-66964286D01*
X193276695Y-66961908D01*
X191865876Y-65551089D01*
X191853490Y-65536677D01*
X191844957Y-65525082D01*
X191844952Y-65525077D01*
X191840614Y-65519182D01*
X191835036Y-65514443D01*
X191835033Y-65514440D01*
X191800338Y-65484965D01*
X191792822Y-65478035D01*
X191787127Y-65472340D01*
X191780986Y-65467482D01*
X191764855Y-65454719D01*
X191761451Y-65451928D01*
X191711403Y-65409409D01*
X191711401Y-65409408D01*
X191705821Y-65404667D01*
X191699305Y-65401339D01*
X191694256Y-65397972D01*
X191689127Y-65394805D01*
X191683390Y-65390266D01*
X191617231Y-65359345D01*
X191613330Y-65357438D01*
X191563712Y-65332101D01*
X191512140Y-65283307D01*
X191495134Y-65214377D01*
X191501456Y-65180113D01*
X191561250Y-65000365D01*
X191563197Y-64994513D01*
X191587985Y-64798295D01*
X191588380Y-64770000D01*
X191569080Y-64573167D01*
X191511916Y-64383831D01*
X191419066Y-64209204D01*
X191415167Y-64204424D01*
X191414715Y-64203743D01*
X191393676Y-64135935D01*
X191410105Y-64071775D01*
X191497723Y-63917542D01*
X191497725Y-63917537D01*
X191500769Y-63912179D01*
X191563197Y-63724513D01*
X191587985Y-63528295D01*
X191588380Y-63500000D01*
X191569080Y-63303167D01*
X191511916Y-63113831D01*
X191419066Y-62939204D01*
X191415167Y-62934424D01*
X191414715Y-62933743D01*
X191393676Y-62865935D01*
X191410105Y-62801775D01*
X191411148Y-62799940D01*
X191457179Y-62718911D01*
X191497723Y-62647542D01*
X191497725Y-62647537D01*
X191500769Y-62642179D01*
X191563197Y-62454513D01*
X191587985Y-62258295D01*
X191588380Y-62230000D01*
X191569080Y-62033167D01*
X191561299Y-62007393D01*
X191513697Y-61849731D01*
X191511916Y-61843831D01*
X191419066Y-61669204D01*
X191415167Y-61664424D01*
X191414715Y-61663743D01*
X191393676Y-61595935D01*
X191410105Y-61531775D01*
X191497723Y-61377542D01*
X191497725Y-61377537D01*
X191500769Y-61372179D01*
X191563197Y-61184513D01*
X191587985Y-60988295D01*
X191588380Y-60960000D01*
X191569080Y-60763167D01*
X191511916Y-60573831D01*
X191509024Y-60568391D01*
X191507195Y-60563954D01*
X191499731Y-60493350D01*
X191517512Y-60452631D01*
X191515921Y-60451760D01*
X191520229Y-60443891D01*
X191525615Y-60436705D01*
X191576745Y-60300316D01*
X191583500Y-60238134D01*
X191583500Y-59141866D01*
X191576745Y-59079684D01*
X191525615Y-58943295D01*
X191438261Y-58826739D01*
X191321705Y-58739385D01*
X191185316Y-58688255D01*
X191123134Y-58681500D01*
X190026866Y-58681500D01*
X189964684Y-58688255D01*
X189828295Y-58739385D01*
X189711739Y-58826739D01*
X189624385Y-58943295D01*
X189573255Y-59079684D01*
X189566500Y-59141866D01*
X189566500Y-60238134D01*
X189573255Y-60300316D01*
X189624385Y-60436705D01*
X189629771Y-60443892D01*
X189634079Y-60451760D01*
X189631858Y-60452976D01*
X189652013Y-60506910D01*
X189642993Y-60560605D01*
X189643567Y-60560787D01*
X189641706Y-60566654D01*
X189641705Y-60566656D01*
X189599684Y-60699123D01*
X189568677Y-60750119D01*
X186088498Y-64230298D01*
X186074086Y-64242684D01*
X186062491Y-64251217D01*
X186062486Y-64251222D01*
X186056591Y-64255560D01*
X186051852Y-64261138D01*
X186051849Y-64261141D01*
X186022374Y-64295836D01*
X186015444Y-64303352D01*
X186009749Y-64309047D01*
X186007469Y-64311929D01*
X185992128Y-64331319D01*
X185989337Y-64334723D01*
X185947617Y-64383831D01*
X185942076Y-64390353D01*
X185938748Y-64396869D01*
X185935381Y-64401918D01*
X185932214Y-64407047D01*
X185927675Y-64412784D01*
X185896754Y-64478943D01*
X185894851Y-64482837D01*
X185861640Y-64547876D01*
X185859901Y-64554984D01*
X185857802Y-64560627D01*
X185855885Y-64566390D01*
X185852787Y-64573018D01*
X185851297Y-64580180D01*
X185851297Y-64580181D01*
X185837923Y-64644480D01*
X185836953Y-64648764D01*
X185819601Y-64719678D01*
X185818909Y-64730832D01*
X185818873Y-64730830D01*
X185818634Y-64734823D01*
X185818260Y-64739015D01*
X185816769Y-64746183D01*
X185817413Y-64770000D01*
X185818863Y-64823589D01*
X185818909Y-64826996D01*
X185818909Y-70996238D01*
X185798907Y-71064359D01*
X185782004Y-71085333D01*
X181492253Y-75375084D01*
X181429941Y-75409110D01*
X181403158Y-75411989D01*
X158846581Y-75411989D01*
X158827631Y-75410556D01*
X158813396Y-75408390D01*
X158813392Y-75408390D01*
X158806162Y-75407290D01*
X158798870Y-75407883D01*
X158798867Y-75407883D01*
X158753493Y-75411574D01*
X158743278Y-75411989D01*
X158735218Y-75411989D01*
X158721928Y-75413538D01*
X158707004Y-75415278D01*
X158702629Y-75415711D01*
X158637172Y-75421035D01*
X158637169Y-75421036D01*
X158629874Y-75421629D01*
X158622910Y-75423885D01*
X158616951Y-75425076D01*
X158611096Y-75426460D01*
X158603830Y-75427307D01*
X158535184Y-75452224D01*
X158531056Y-75453641D01*
X158468575Y-75473882D01*
X158468573Y-75473883D01*
X158461612Y-75476138D01*
X158455357Y-75479934D01*
X158449883Y-75482440D01*
X158444453Y-75485159D01*
X158437574Y-75487656D01*
X158431454Y-75491669D01*
X158431453Y-75491669D01*
X158376535Y-75527675D01*
X158372831Y-75530012D01*
X158310404Y-75567894D01*
X158302027Y-75575292D01*
X158302003Y-75575265D01*
X158299011Y-75577918D01*
X158295778Y-75580621D01*
X158289659Y-75584633D01*
X158284627Y-75589945D01*
X158236383Y-75640872D01*
X158234005Y-75643314D01*
X157742990Y-76134329D01*
X157680678Y-76168355D01*
X157642913Y-76170755D01*
X157485475Y-76156981D01*
X157480000Y-76156502D01*
X157251913Y-76176457D01*
X157246600Y-76177881D01*
X157246598Y-76177881D01*
X157036067Y-76234293D01*
X157036065Y-76234294D01*
X157030757Y-76235716D01*
X157025776Y-76238039D01*
X157025775Y-76238039D01*
X156828238Y-76330151D01*
X156828233Y-76330154D01*
X156823251Y-76332477D01*
X156779784Y-76362913D01*
X156640211Y-76460643D01*
X156640208Y-76460645D01*
X156635700Y-76463802D01*
X156473802Y-76625700D01*
X156470645Y-76630208D01*
X156470643Y-76630211D01*
X156415902Y-76708389D01*
X156342477Y-76813251D01*
X156340154Y-76818233D01*
X156340151Y-76818238D01*
X156288508Y-76928989D01*
X156245716Y-77020757D01*
X156244294Y-77026065D01*
X156244293Y-77026067D01*
X156227805Y-77087600D01*
X156186457Y-77241913D01*
X156166502Y-77470000D01*
X156186457Y-77698087D01*
X156187881Y-77703400D01*
X156187881Y-77703402D01*
X156244293Y-77913931D01*
X156245716Y-77919243D01*
X156248039Y-77924224D01*
X156248039Y-77924225D01*
X156340151Y-78121762D01*
X156340154Y-78121767D01*
X156342477Y-78126749D01*
X156473802Y-78314300D01*
X156635700Y-78476198D01*
X156640208Y-78479355D01*
X156640211Y-78479357D01*
X156718389Y-78534098D01*
X156823251Y-78607523D01*
X156828233Y-78609846D01*
X156828238Y-78609849D01*
X157025775Y-78701961D01*
X157030757Y-78704284D01*
X157036065Y-78705706D01*
X157036067Y-78705707D01*
X157246598Y-78762119D01*
X157246600Y-78762119D01*
X157251913Y-78763543D01*
X157480000Y-78783498D01*
X157708087Y-78763543D01*
X157713400Y-78762119D01*
X157713402Y-78762119D01*
X157923933Y-78705707D01*
X157923935Y-78705706D01*
X157929243Y-78704284D01*
X157934225Y-78701961D01*
X158131762Y-78609849D01*
X158131767Y-78609846D01*
X158136749Y-78607523D01*
X158241611Y-78534098D01*
X158319789Y-78479357D01*
X158319792Y-78479355D01*
X158324300Y-78476198D01*
X158486198Y-78314300D01*
X158617523Y-78126749D01*
X158619846Y-78121767D01*
X158619849Y-78121762D01*
X158711961Y-77924225D01*
X158711961Y-77924224D01*
X158714284Y-77919243D01*
X158715708Y-77913931D01*
X158772119Y-77703402D01*
X158772119Y-77703400D01*
X158773543Y-77698087D01*
X158793498Y-77470000D01*
X158781908Y-77337523D01*
X158779245Y-77307087D01*
X158793234Y-77237482D01*
X158815671Y-77207010D01*
X159056787Y-76965894D01*
X159119099Y-76931868D01*
X159145882Y-76928989D01*
X166266098Y-76928989D01*
X166334219Y-76948991D01*
X166380712Y-77002647D01*
X166390816Y-77072921D01*
X166387805Y-77087600D01*
X166346457Y-77241913D01*
X166326502Y-77470000D01*
X166346457Y-77698087D01*
X166347881Y-77703400D01*
X166347881Y-77703402D01*
X166404293Y-77913931D01*
X166405716Y-77919243D01*
X166408039Y-77924224D01*
X166408039Y-77924225D01*
X166500151Y-78121762D01*
X166500154Y-78121767D01*
X166502477Y-78126749D01*
X166633802Y-78314300D01*
X166795700Y-78476198D01*
X166800208Y-78479355D01*
X166800211Y-78479357D01*
X166878389Y-78534098D01*
X166983251Y-78607523D01*
X166988233Y-78609846D01*
X166988238Y-78609849D01*
X167185775Y-78701961D01*
X167190757Y-78704284D01*
X167196065Y-78705706D01*
X167196067Y-78705707D01*
X167406598Y-78762119D01*
X167406600Y-78762119D01*
X167411913Y-78763543D01*
X167640000Y-78783498D01*
X167868087Y-78763543D01*
X167873400Y-78762119D01*
X167873402Y-78762119D01*
X168083933Y-78705707D01*
X168083935Y-78705706D01*
X168089243Y-78704284D01*
X168094225Y-78701961D01*
X168291762Y-78609849D01*
X168291767Y-78609846D01*
X168296749Y-78607523D01*
X168401611Y-78534098D01*
X168479789Y-78479357D01*
X168479792Y-78479355D01*
X168484300Y-78476198D01*
X168646198Y-78314300D01*
X168777523Y-78126749D01*
X168779846Y-78121767D01*
X168779849Y-78121762D01*
X168871961Y-77924225D01*
X168871961Y-77924224D01*
X168874284Y-77919243D01*
X168875707Y-77913933D01*
X168875708Y-77913931D01*
X168892331Y-77851890D01*
X168929282Y-77791267D01*
X168993143Y-77760245D01*
X169014038Y-77758500D01*
X181864629Y-77758500D01*
X181932750Y-77778502D01*
X181979243Y-77832158D01*
X181989347Y-77902432D01*
X181959853Y-77967012D01*
X181953724Y-77973595D01*
X179722724Y-80204595D01*
X179660412Y-80238621D01*
X179633629Y-80241500D01*
X177977675Y-80241500D01*
X177909554Y-80221498D01*
X177888580Y-80204595D01*
X177515553Y-79831568D01*
X177503167Y-79817156D01*
X177494634Y-79805561D01*
X177494629Y-79805556D01*
X177490291Y-79799661D01*
X177484713Y-79794922D01*
X177484710Y-79794919D01*
X177450015Y-79765444D01*
X177442499Y-79758514D01*
X177436804Y-79752819D01*
X177420519Y-79739935D01*
X177414532Y-79735198D01*
X177411128Y-79732407D01*
X177361080Y-79689888D01*
X177361078Y-79689887D01*
X177355498Y-79685146D01*
X177348982Y-79681818D01*
X177343933Y-79678451D01*
X177338804Y-79675284D01*
X177333067Y-79670745D01*
X177266908Y-79639824D01*
X177263008Y-79637918D01*
X177197975Y-79604710D01*
X177190867Y-79602971D01*
X177185224Y-79600872D01*
X177179461Y-79598955D01*
X177172833Y-79595857D01*
X177101366Y-79580992D01*
X177097082Y-79580022D01*
X177026173Y-79562671D01*
X177020571Y-79562323D01*
X177020568Y-79562323D01*
X177015019Y-79561979D01*
X177015021Y-79561943D01*
X177011028Y-79561704D01*
X177006836Y-79561330D01*
X176999668Y-79559839D01*
X176935903Y-79561564D01*
X176922262Y-79561933D01*
X176918855Y-79561979D01*
X175135287Y-79561979D01*
X175116337Y-79560546D01*
X175102102Y-79558380D01*
X175102098Y-79558380D01*
X175094868Y-79557280D01*
X175087576Y-79557873D01*
X175087573Y-79557873D01*
X175042199Y-79561564D01*
X175031984Y-79561979D01*
X175023924Y-79561979D01*
X175020290Y-79562403D01*
X175020284Y-79562403D01*
X175007259Y-79563922D01*
X174995697Y-79565270D01*
X174991349Y-79565700D01*
X174918581Y-79571619D01*
X174911620Y-79573874D01*
X174905680Y-79575061D01*
X174899805Y-79576450D01*
X174892536Y-79577297D01*
X174823887Y-79602215D01*
X174819759Y-79603632D01*
X174757281Y-79623872D01*
X174757279Y-79623873D01*
X174750318Y-79626128D01*
X174744063Y-79629924D01*
X174738589Y-79632430D01*
X174733159Y-79635149D01*
X174726280Y-79637646D01*
X174720160Y-79641659D01*
X174720159Y-79641659D01*
X174665241Y-79677665D01*
X174661537Y-79680002D01*
X174599110Y-79717884D01*
X174590733Y-79725282D01*
X174590709Y-79725255D01*
X174587717Y-79727908D01*
X174584484Y-79730611D01*
X174578365Y-79734623D01*
X174549168Y-79765444D01*
X174525089Y-79790862D01*
X174522711Y-79793304D01*
X174111420Y-80204595D01*
X174049108Y-80238621D01*
X174022325Y-80241500D01*
X166477675Y-80241500D01*
X166409554Y-80221498D01*
X166388580Y-80204595D01*
X166015553Y-79831568D01*
X166003167Y-79817156D01*
X165994634Y-79805561D01*
X165994629Y-79805556D01*
X165990291Y-79799661D01*
X165984713Y-79794922D01*
X165984710Y-79794919D01*
X165950015Y-79765444D01*
X165942499Y-79758514D01*
X165936804Y-79752819D01*
X165920519Y-79739935D01*
X165914532Y-79735198D01*
X165911128Y-79732407D01*
X165861080Y-79689888D01*
X165861078Y-79689887D01*
X165855498Y-79685146D01*
X165848982Y-79681818D01*
X165843933Y-79678451D01*
X165838804Y-79675284D01*
X165833067Y-79670745D01*
X165766908Y-79639824D01*
X165763008Y-79637918D01*
X165697975Y-79604710D01*
X165690867Y-79602971D01*
X165685224Y-79600872D01*
X165679461Y-79598955D01*
X165672833Y-79595857D01*
X165601366Y-79580992D01*
X165597082Y-79580022D01*
X165526173Y-79562671D01*
X165520571Y-79562323D01*
X165520568Y-79562323D01*
X165515019Y-79561979D01*
X165515021Y-79561943D01*
X165511028Y-79561704D01*
X165506836Y-79561330D01*
X165499668Y-79559839D01*
X165435903Y-79561564D01*
X165422262Y-79561933D01*
X165418855Y-79561979D01*
X163635287Y-79561979D01*
X163616337Y-79560546D01*
X163602102Y-79558380D01*
X163602098Y-79558380D01*
X163594868Y-79557280D01*
X163587576Y-79557873D01*
X163587573Y-79557873D01*
X163542199Y-79561564D01*
X163531984Y-79561979D01*
X163523924Y-79561979D01*
X163520290Y-79562403D01*
X163520284Y-79562403D01*
X163507259Y-79563922D01*
X163495697Y-79565270D01*
X163491349Y-79565700D01*
X163418581Y-79571619D01*
X163411620Y-79573874D01*
X163405680Y-79575061D01*
X163399805Y-79576450D01*
X163392536Y-79577297D01*
X163323887Y-79602215D01*
X163319759Y-79603632D01*
X163257281Y-79623872D01*
X163257279Y-79623873D01*
X163250318Y-79626128D01*
X163244063Y-79629924D01*
X163238589Y-79632430D01*
X163233159Y-79635149D01*
X163226280Y-79637646D01*
X163220160Y-79641659D01*
X163220159Y-79641659D01*
X163165241Y-79677665D01*
X163161537Y-79680002D01*
X163099110Y-79717884D01*
X163090733Y-79725282D01*
X163090709Y-79725255D01*
X163087717Y-79727908D01*
X163084484Y-79730611D01*
X163078365Y-79734623D01*
X163049168Y-79765444D01*
X163025089Y-79790862D01*
X163022711Y-79793304D01*
X162611420Y-80204595D01*
X162549108Y-80238621D01*
X162522325Y-80241500D01*
X156296371Y-80241500D01*
X156228250Y-80221498D01*
X156207276Y-80204595D01*
X152465671Y-76462990D01*
X152431645Y-76400678D01*
X152429245Y-76362913D01*
X152443019Y-76205475D01*
X152443498Y-76200000D01*
X152423543Y-75971913D01*
X152369095Y-75768712D01*
X152365707Y-75756067D01*
X152365706Y-75756065D01*
X152364284Y-75750757D01*
X152289297Y-75589945D01*
X152269849Y-75548238D01*
X152269846Y-75548233D01*
X152267523Y-75543251D01*
X152136198Y-75355700D01*
X151974300Y-75193802D01*
X151969792Y-75190645D01*
X151969789Y-75190643D01*
X151891611Y-75135902D01*
X151786749Y-75062477D01*
X151781767Y-75060154D01*
X151781762Y-75060151D01*
X151584225Y-74968039D01*
X151584224Y-74968039D01*
X151579243Y-74965716D01*
X151573935Y-74964294D01*
X151573933Y-74964293D01*
X151363402Y-74907881D01*
X151363400Y-74907881D01*
X151358087Y-74906457D01*
X151130000Y-74886502D01*
X150901913Y-74906457D01*
X150896600Y-74907881D01*
X150896598Y-74907881D01*
X150686067Y-74964293D01*
X150686065Y-74964294D01*
X150680757Y-74965716D01*
X150675776Y-74968039D01*
X150675775Y-74968039D01*
X150478238Y-75060151D01*
X150478233Y-75060154D01*
X150473251Y-75062477D01*
X150368389Y-75135902D01*
X150290211Y-75190643D01*
X150290208Y-75190645D01*
X150285700Y-75193802D01*
X150123802Y-75355700D01*
X149992477Y-75543251D01*
X149990154Y-75548233D01*
X149990151Y-75548238D01*
X149970703Y-75589945D01*
X149895716Y-75750757D01*
X149894294Y-75756065D01*
X149894293Y-75756067D01*
X149890905Y-75768712D01*
X149836457Y-75971913D01*
X149816502Y-76200000D01*
X149836457Y-76428087D01*
X149837881Y-76433400D01*
X149837881Y-76433402D01*
X149889408Y-76625700D01*
X149895716Y-76649243D01*
X149898039Y-76654224D01*
X149898039Y-76654225D01*
X149990151Y-76851762D01*
X149990154Y-76851767D01*
X149992477Y-76856749D01*
X149995634Y-76861257D01*
X150103829Y-77015775D01*
X150123802Y-77044300D01*
X150285700Y-77206198D01*
X150290208Y-77209355D01*
X150290211Y-77209357D01*
X150330378Y-77237482D01*
X150473251Y-77337523D01*
X150478233Y-77339846D01*
X150478238Y-77339849D01*
X150675775Y-77431961D01*
X150680757Y-77434284D01*
X150686065Y-77435706D01*
X150686067Y-77435707D01*
X150896598Y-77492119D01*
X150896600Y-77492119D01*
X150901913Y-77493543D01*
X151130000Y-77513498D01*
X151135475Y-77513019D01*
X151292913Y-77499245D01*
X151362518Y-77513234D01*
X151392990Y-77535671D01*
X155346230Y-81488911D01*
X155358616Y-81503323D01*
X155367149Y-81514918D01*
X155367154Y-81514923D01*
X155371492Y-81520818D01*
X155377070Y-81525557D01*
X155377073Y-81525560D01*
X155411768Y-81555035D01*
X155419284Y-81561965D01*
X155424979Y-81567660D01*
X155427861Y-81569940D01*
X155447251Y-81585281D01*
X155450655Y-81588072D01*
X155500703Y-81630591D01*
X155506285Y-81635333D01*
X155512801Y-81638661D01*
X155517850Y-81642028D01*
X155522979Y-81645195D01*
X155528716Y-81649734D01*
X155594875Y-81680655D01*
X155598769Y-81682558D01*
X155663808Y-81715769D01*
X155670916Y-81717508D01*
X155676559Y-81719607D01*
X155682322Y-81721524D01*
X155688950Y-81724622D01*
X155696112Y-81726112D01*
X155696113Y-81726112D01*
X155760412Y-81739486D01*
X155764696Y-81740456D01*
X155835610Y-81757808D01*
X155841212Y-81758156D01*
X155841215Y-81758156D01*
X155846764Y-81758500D01*
X155846762Y-81758536D01*
X155850755Y-81758775D01*
X155854947Y-81759149D01*
X155862115Y-81760640D01*
X155939520Y-81758546D01*
X155942928Y-81758500D01*
X162214559Y-81758500D01*
X162282680Y-81778502D01*
X162329173Y-81832158D01*
X162339277Y-81902432D01*
X162333872Y-81925001D01*
X162315104Y-81980289D01*
X162315102Y-81980298D01*
X162313776Y-81984203D01*
X162312972Y-81988247D01*
X162312970Y-81988253D01*
X162290592Y-82100757D01*
X162256017Y-82274574D01*
X162255748Y-82278679D01*
X162255747Y-82278686D01*
X162252914Y-82321913D01*
X162236654Y-82570000D01*
X162236924Y-82574119D01*
X162250293Y-82778087D01*
X162256017Y-82865426D01*
X162256819Y-82869459D01*
X162256820Y-82869465D01*
X162282635Y-82999243D01*
X162313776Y-83155797D01*
X162315103Y-83159706D01*
X162315104Y-83159710D01*
X162396059Y-83398197D01*
X162408941Y-83436145D01*
X162539885Y-83701673D01*
X162542179Y-83705106D01*
X162635068Y-83844124D01*
X162704367Y-83947838D01*
X162707081Y-83950932D01*
X162707085Y-83950938D01*
X162896864Y-84167338D01*
X162899573Y-84170427D01*
X162902662Y-84173136D01*
X163119062Y-84362915D01*
X163119068Y-84362919D01*
X163122162Y-84365633D01*
X163125588Y-84367922D01*
X163125593Y-84367926D01*
X163309405Y-84490744D01*
X163368327Y-84530115D01*
X163372026Y-84531939D01*
X163372031Y-84531942D01*
X163508313Y-84599148D01*
X163633855Y-84661059D01*
X163637760Y-84662384D01*
X163637761Y-84662385D01*
X163910290Y-84754896D01*
X163910294Y-84754897D01*
X163914203Y-84756224D01*
X163918247Y-84757028D01*
X163918253Y-84757030D01*
X164200535Y-84813180D01*
X164200541Y-84813181D01*
X164204574Y-84813983D01*
X164208679Y-84814252D01*
X164208686Y-84814253D01*
X164495881Y-84833076D01*
X164500000Y-84833346D01*
X164504119Y-84833076D01*
X164791314Y-84814253D01*
X164791321Y-84814252D01*
X164795426Y-84813983D01*
X164799459Y-84813181D01*
X164799465Y-84813180D01*
X165081747Y-84757030D01*
X165081753Y-84757028D01*
X165085797Y-84756224D01*
X165089706Y-84754897D01*
X165089710Y-84754896D01*
X165362239Y-84662385D01*
X165362240Y-84662384D01*
X165366145Y-84661059D01*
X165491687Y-84599148D01*
X165627969Y-84531942D01*
X165627974Y-84531939D01*
X165631673Y-84530115D01*
X165690595Y-84490744D01*
X165874407Y-84367926D01*
X165874412Y-84367922D01*
X165877838Y-84365633D01*
X165880932Y-84362919D01*
X165880938Y-84362915D01*
X166097338Y-84173136D01*
X166100427Y-84170427D01*
X166103136Y-84167338D01*
X166292915Y-83950938D01*
X166292919Y-83950932D01*
X166295633Y-83947838D01*
X166364933Y-83844124D01*
X166457821Y-83705106D01*
X166460115Y-83701673D01*
X166591059Y-83436145D01*
X166603941Y-83398197D01*
X166684896Y-83159710D01*
X166684897Y-83159706D01*
X166686224Y-83155797D01*
X166717365Y-82999243D01*
X166743180Y-82869465D01*
X166743181Y-82869459D01*
X166743983Y-82865426D01*
X166749708Y-82778087D01*
X166763076Y-82574119D01*
X166763346Y-82570000D01*
X166747086Y-82321913D01*
X166744253Y-82278686D01*
X166744252Y-82278679D01*
X166743983Y-82274574D01*
X166709409Y-82100757D01*
X166687030Y-81988253D01*
X166687028Y-81988247D01*
X166686224Y-81984203D01*
X166684898Y-81980298D01*
X166684896Y-81980289D01*
X166666128Y-81925001D01*
X166663172Y-81854066D01*
X166699036Y-81792793D01*
X166762333Y-81760637D01*
X166785441Y-81758500D01*
X173714559Y-81758500D01*
X173782680Y-81778502D01*
X173829173Y-81832158D01*
X173839277Y-81902432D01*
X173833872Y-81925001D01*
X173815104Y-81980289D01*
X173815102Y-81980298D01*
X173813776Y-81984203D01*
X173812972Y-81988247D01*
X173812970Y-81988253D01*
X173790592Y-82100757D01*
X173756017Y-82274574D01*
X173755748Y-82278679D01*
X173755747Y-82278686D01*
X173752914Y-82321913D01*
X173736654Y-82570000D01*
X173736924Y-82574119D01*
X173750293Y-82778087D01*
X173756017Y-82865426D01*
X173756819Y-82869459D01*
X173756820Y-82869465D01*
X173782635Y-82999243D01*
X173813776Y-83155797D01*
X173815103Y-83159706D01*
X173815104Y-83159710D01*
X173896059Y-83398197D01*
X173908941Y-83436145D01*
X174039885Y-83701673D01*
X174042179Y-83705106D01*
X174135068Y-83844124D01*
X174204367Y-83947838D01*
X174207081Y-83950932D01*
X174207085Y-83950938D01*
X174396864Y-84167338D01*
X174399573Y-84170427D01*
X174402662Y-84173136D01*
X174619062Y-84362915D01*
X174619068Y-84362919D01*
X174622162Y-84365633D01*
X174625588Y-84367922D01*
X174625593Y-84367926D01*
X174809405Y-84490744D01*
X174868327Y-84530115D01*
X174872026Y-84531939D01*
X174872031Y-84531942D01*
X175008313Y-84599148D01*
X175133855Y-84661059D01*
X175137760Y-84662384D01*
X175137761Y-84662385D01*
X175410290Y-84754896D01*
X175410294Y-84754897D01*
X175414203Y-84756224D01*
X175418247Y-84757028D01*
X175418253Y-84757030D01*
X175700535Y-84813180D01*
X175700541Y-84813181D01*
X175704574Y-84813983D01*
X175708679Y-84814252D01*
X175708686Y-84814253D01*
X175995881Y-84833076D01*
X176000000Y-84833346D01*
X176004119Y-84833076D01*
X176291314Y-84814253D01*
X176291321Y-84814252D01*
X176295426Y-84813983D01*
X176299459Y-84813181D01*
X176299465Y-84813180D01*
X176581747Y-84757030D01*
X176581753Y-84757028D01*
X176585797Y-84756224D01*
X176589706Y-84754897D01*
X176589710Y-84754896D01*
X176862239Y-84662385D01*
X176862240Y-84662384D01*
X176866145Y-84661059D01*
X176991687Y-84599148D01*
X177127969Y-84531942D01*
X177127974Y-84531939D01*
X177131673Y-84530115D01*
X177190595Y-84490744D01*
X177374407Y-84367926D01*
X177374412Y-84367922D01*
X177377838Y-84365633D01*
X177380932Y-84362919D01*
X177380938Y-84362915D01*
X177597338Y-84173136D01*
X177600427Y-84170427D01*
X177603136Y-84167338D01*
X177792915Y-83950938D01*
X177792919Y-83950932D01*
X177795633Y-83947838D01*
X177864933Y-83844124D01*
X177957821Y-83705106D01*
X177960115Y-83701673D01*
X178091059Y-83436145D01*
X178103941Y-83398197D01*
X178184896Y-83159710D01*
X178184897Y-83159706D01*
X178186224Y-83155797D01*
X178217365Y-82999243D01*
X178243180Y-82869465D01*
X178243181Y-82869459D01*
X178243983Y-82865426D01*
X178249708Y-82778087D01*
X178263076Y-82574119D01*
X178263346Y-82570000D01*
X178247086Y-82321913D01*
X178244253Y-82278686D01*
X178244252Y-82278679D01*
X178243983Y-82274574D01*
X178209409Y-82100757D01*
X178187030Y-81988253D01*
X178187028Y-81988247D01*
X178186224Y-81984203D01*
X178184898Y-81980298D01*
X178184896Y-81980289D01*
X178166128Y-81925001D01*
X178163172Y-81854066D01*
X178199036Y-81792793D01*
X178262333Y-81760637D01*
X178285441Y-81758500D01*
X179932930Y-81758500D01*
X179951880Y-81759933D01*
X179966115Y-81762099D01*
X179966119Y-81762099D01*
X179973349Y-81763199D01*
X179980641Y-81762606D01*
X179980644Y-81762606D01*
X180026018Y-81758915D01*
X180036233Y-81758500D01*
X180044293Y-81758500D01*
X180061680Y-81756473D01*
X180072507Y-81755211D01*
X180076882Y-81754778D01*
X180142339Y-81749454D01*
X180142342Y-81749453D01*
X180149637Y-81748860D01*
X180156601Y-81746604D01*
X180162560Y-81745413D01*
X180168415Y-81744029D01*
X180175681Y-81743182D01*
X180244327Y-81718265D01*
X180248455Y-81716848D01*
X180310936Y-81696607D01*
X180310938Y-81696606D01*
X180317899Y-81694351D01*
X180324154Y-81690555D01*
X180329628Y-81688049D01*
X180335058Y-81685330D01*
X180341937Y-81682833D01*
X180348058Y-81678820D01*
X180402976Y-81642814D01*
X180406680Y-81640477D01*
X180469107Y-81602595D01*
X180473310Y-81598884D01*
X180476236Y-81596730D01*
X180542957Y-81572466D01*
X180612205Y-81588125D01*
X180661994Y-81638737D01*
X180676516Y-81708233D01*
X180651161Y-81774547D01*
X180640010Y-81787309D01*
X177222724Y-85204595D01*
X177160412Y-85238621D01*
X177133629Y-85241500D01*
X138436371Y-85241500D01*
X138368250Y-85221498D01*
X138347276Y-85204595D01*
X135955671Y-82812990D01*
X135921645Y-82750678D01*
X135919245Y-82712913D01*
X135933019Y-82555475D01*
X135933498Y-82550000D01*
X135913543Y-82321913D01*
X135901960Y-82278686D01*
X135855707Y-82106067D01*
X135855706Y-82106065D01*
X135854284Y-82100757D01*
X135801823Y-81988253D01*
X135759849Y-81898238D01*
X135759846Y-81898233D01*
X135757523Y-81893251D01*
X135664668Y-81760640D01*
X135629357Y-81710211D01*
X135629355Y-81710208D01*
X135626198Y-81705700D01*
X135464300Y-81543802D01*
X135459792Y-81540645D01*
X135459789Y-81540643D01*
X135381611Y-81485902D01*
X135276749Y-81412477D01*
X135271767Y-81410154D01*
X135271762Y-81410151D01*
X135074225Y-81318039D01*
X135074224Y-81318039D01*
X135069243Y-81315716D01*
X135063935Y-81314294D01*
X135063933Y-81314293D01*
X134853402Y-81257881D01*
X134853400Y-81257881D01*
X134848087Y-81256457D01*
X134620000Y-81236502D01*
X134391913Y-81256457D01*
X134386600Y-81257881D01*
X134386598Y-81257881D01*
X134176067Y-81314293D01*
X134176065Y-81314294D01*
X134170757Y-81315716D01*
X134165776Y-81318039D01*
X134165775Y-81318039D01*
X133968238Y-81410151D01*
X133968233Y-81410154D01*
X133963251Y-81412477D01*
X133858389Y-81485902D01*
X133780211Y-81540643D01*
X133780208Y-81540645D01*
X133775700Y-81543802D01*
X133613802Y-81705700D01*
X133610645Y-81710208D01*
X133610643Y-81710211D01*
X133575332Y-81760640D01*
X133482477Y-81893251D01*
X133480154Y-81898233D01*
X133480151Y-81898238D01*
X133438177Y-81988253D01*
X133385716Y-82100757D01*
X133384294Y-82106065D01*
X133384293Y-82106067D01*
X133338040Y-82278686D01*
X133326457Y-82321913D01*
X133306502Y-82550000D01*
X133326457Y-82778087D01*
X133327881Y-82783400D01*
X133327881Y-82783402D01*
X133349860Y-82865426D01*
X133385716Y-82999243D01*
X133388039Y-83004224D01*
X133388039Y-83004225D01*
X133480151Y-83201762D01*
X133480154Y-83201767D01*
X133482477Y-83206749D01*
X133613802Y-83394300D01*
X133775700Y-83556198D01*
X133780208Y-83559355D01*
X133780211Y-83559357D01*
X133858389Y-83614098D01*
X133963251Y-83687523D01*
X133968233Y-83689846D01*
X133968238Y-83689849D01*
X134165775Y-83781961D01*
X134170757Y-83784284D01*
X134176065Y-83785706D01*
X134176067Y-83785707D01*
X134386598Y-83842119D01*
X134386600Y-83842119D01*
X134391913Y-83843543D01*
X134620000Y-83863498D01*
X134625475Y-83863019D01*
X134782913Y-83849245D01*
X134852518Y-83863234D01*
X134882990Y-83885671D01*
X137486230Y-86488911D01*
X137498616Y-86503323D01*
X137507149Y-86514918D01*
X137507154Y-86514923D01*
X137511492Y-86520818D01*
X137517070Y-86525557D01*
X137517073Y-86525560D01*
X137551768Y-86555035D01*
X137559284Y-86561965D01*
X137564980Y-86567661D01*
X137567841Y-86569924D01*
X137567846Y-86569929D01*
X137587266Y-86585293D01*
X137590667Y-86588082D01*
X137646285Y-86635333D01*
X137652798Y-86638659D01*
X137657837Y-86642020D01*
X137662979Y-86645196D01*
X137668716Y-86649734D01*
X137734875Y-86680655D01*
X137738769Y-86682558D01*
X137803808Y-86715769D01*
X137810917Y-86717508D01*
X137816551Y-86719604D01*
X137822321Y-86721523D01*
X137828950Y-86724622D01*
X137836113Y-86726112D01*
X137836116Y-86726113D01*
X137886830Y-86736661D01*
X137900435Y-86739491D01*
X137904701Y-86740457D01*
X137975610Y-86757808D01*
X137981212Y-86758156D01*
X137981215Y-86758156D01*
X137986764Y-86758500D01*
X137986762Y-86758535D01*
X137990734Y-86758775D01*
X137994955Y-86759152D01*
X138002115Y-86760641D01*
X138079542Y-86758546D01*
X138082950Y-86758500D01*
X177432930Y-86758500D01*
X177451880Y-86759933D01*
X177466115Y-86762099D01*
X177466119Y-86762099D01*
X177473349Y-86763199D01*
X177480641Y-86762606D01*
X177480644Y-86762606D01*
X177526018Y-86758915D01*
X177536233Y-86758500D01*
X177544293Y-86758500D01*
X177561680Y-86756473D01*
X177572507Y-86755211D01*
X177576882Y-86754778D01*
X177642339Y-86749454D01*
X177642342Y-86749453D01*
X177649637Y-86748860D01*
X177656601Y-86746604D01*
X177662560Y-86745413D01*
X177668415Y-86744029D01*
X177675681Y-86743182D01*
X177744327Y-86718265D01*
X177748443Y-86716852D01*
X177756098Y-86714372D01*
X177827067Y-86712410D01*
X177887831Y-86749128D01*
X177919098Y-86812869D01*
X177910941Y-86883395D01*
X177884019Y-86923336D01*
X176451311Y-88356044D01*
X176388999Y-88390070D01*
X176362216Y-88392949D01*
X137594988Y-88392949D01*
X137576039Y-88391516D01*
X137575832Y-88391485D01*
X137554576Y-88388251D01*
X137547284Y-88388844D01*
X137547281Y-88388844D01*
X137501916Y-88392534D01*
X137491702Y-88392949D01*
X137483632Y-88392949D01*
X137480012Y-88393371D01*
X137479994Y-88393372D01*
X137455386Y-88396241D01*
X137451025Y-88396673D01*
X137425906Y-88398716D01*
X137385586Y-88401995D01*
X137385583Y-88401996D01*
X137378288Y-88402589D01*
X137371324Y-88404845D01*
X137365365Y-88406036D01*
X137359510Y-88407420D01*
X137352244Y-88408267D01*
X137283598Y-88433184D01*
X137279503Y-88434590D01*
X137251346Y-88443712D01*
X137180380Y-88445678D01*
X137119613Y-88408963D01*
X137088343Y-88345224D01*
X137098320Y-88270597D01*
X137109807Y-88245963D01*
X137109809Y-88245957D01*
X137112130Y-88240980D01*
X137151532Y-88093933D01*
X137169965Y-88025139D01*
X137169965Y-88025137D01*
X137171389Y-88019824D01*
X137191344Y-87791737D01*
X137171389Y-87563650D01*
X137112130Y-87342494D01*
X137109807Y-87337512D01*
X137017695Y-87139975D01*
X137017692Y-87139970D01*
X137015369Y-87134988D01*
X136891572Y-86958188D01*
X136887203Y-86951948D01*
X136887201Y-86951945D01*
X136884044Y-86947437D01*
X136722146Y-86785539D01*
X136717638Y-86782382D01*
X136717635Y-86782380D01*
X136625014Y-86717526D01*
X136534595Y-86654214D01*
X136529613Y-86651891D01*
X136529608Y-86651888D01*
X136332071Y-86559776D01*
X136332070Y-86559776D01*
X136327089Y-86557453D01*
X136321781Y-86556031D01*
X136321779Y-86556030D01*
X136111248Y-86499618D01*
X136111246Y-86499618D01*
X136105933Y-86498194D01*
X135877846Y-86478239D01*
X135649759Y-86498194D01*
X135644446Y-86499618D01*
X135644444Y-86499618D01*
X135433913Y-86556030D01*
X135433911Y-86556031D01*
X135428603Y-86557453D01*
X135423622Y-86559776D01*
X135423621Y-86559776D01*
X135226084Y-86651888D01*
X135226079Y-86651891D01*
X135221097Y-86654214D01*
X135130678Y-86717526D01*
X135038057Y-86782380D01*
X135038054Y-86782382D01*
X135033546Y-86785539D01*
X134871648Y-86947437D01*
X134868491Y-86951945D01*
X134868489Y-86951948D01*
X134864120Y-86958188D01*
X134740323Y-87134988D01*
X134738000Y-87139970D01*
X134737997Y-87139975D01*
X134645885Y-87337512D01*
X134643562Y-87342494D01*
X134584303Y-87563650D01*
X134564348Y-87791737D01*
X134584303Y-88019824D01*
X134585727Y-88025137D01*
X134585727Y-88025139D01*
X134604161Y-88093933D01*
X134643562Y-88240980D01*
X134645885Y-88245961D01*
X134645885Y-88245962D01*
X134737997Y-88443499D01*
X134738000Y-88443504D01*
X134740323Y-88448486D01*
X134871648Y-88636037D01*
X135033546Y-88797935D01*
X135038054Y-88801092D01*
X135038057Y-88801094D01*
X135046969Y-88807334D01*
X135221097Y-88929260D01*
X135226079Y-88931583D01*
X135226084Y-88931586D01*
X135396390Y-89011000D01*
X135428603Y-89026021D01*
X135433911Y-89027443D01*
X135433913Y-89027444D01*
X135644444Y-89083856D01*
X135644446Y-89083856D01*
X135649759Y-89085280D01*
X135877846Y-89105235D01*
X136105933Y-89085280D01*
X136111246Y-89083856D01*
X136111248Y-89083856D01*
X136219275Y-89054910D01*
X136290251Y-89056600D01*
X136349047Y-89096394D01*
X136376995Y-89161658D01*
X136365222Y-89231672D01*
X136340981Y-89265712D01*
X133352692Y-92254000D01*
X130402097Y-95204595D01*
X130339785Y-95238621D01*
X130313002Y-95241500D01*
X127067070Y-95241500D01*
X127048120Y-95240067D01*
X127033885Y-95237901D01*
X127033881Y-95237901D01*
X127026651Y-95236801D01*
X127019359Y-95237394D01*
X127019356Y-95237394D01*
X126973982Y-95241085D01*
X126963767Y-95241500D01*
X126955707Y-95241500D01*
X126952073Y-95241924D01*
X126952067Y-95241924D01*
X126939042Y-95243443D01*
X126927480Y-95244791D01*
X126923132Y-95245221D01*
X126901059Y-95247016D01*
X126857662Y-95250546D01*
X126857659Y-95250547D01*
X126850364Y-95251140D01*
X126843400Y-95253396D01*
X126837461Y-95254583D01*
X126831590Y-95255970D01*
X126824319Y-95256818D01*
X126817443Y-95259314D01*
X126817434Y-95259316D01*
X126755702Y-95281725D01*
X126751598Y-95283135D01*
X126682101Y-95305648D01*
X126675846Y-95309444D01*
X126670387Y-95311943D01*
X126664939Y-95314671D01*
X126658063Y-95317167D01*
X126597010Y-95357195D01*
X126593327Y-95359519D01*
X126535686Y-95394496D01*
X126535682Y-95394499D01*
X126530893Y-95397405D01*
X126522517Y-95404803D01*
X126522493Y-95404776D01*
X126519511Y-95407421D01*
X126516274Y-95410128D01*
X126510148Y-95414144D01*
X126505112Y-95419460D01*
X126505111Y-95419461D01*
X126456855Y-95470401D01*
X126454477Y-95472843D01*
X124819033Y-97108286D01*
X124756723Y-97142311D01*
X124685908Y-97137246D01*
X124640845Y-97108285D01*
X124484339Y-96951779D01*
X124479831Y-96948622D01*
X124479828Y-96948620D01*
X124366381Y-96869184D01*
X124296788Y-96820454D01*
X124291806Y-96818131D01*
X124291801Y-96818128D01*
X124094264Y-96726016D01*
X124094263Y-96726016D01*
X124089282Y-96723693D01*
X124083974Y-96722271D01*
X124083972Y-96722270D01*
X123873441Y-96665858D01*
X123873439Y-96665858D01*
X123868126Y-96664434D01*
X123640039Y-96644479D01*
X123411952Y-96664434D01*
X123406639Y-96665858D01*
X123406637Y-96665858D01*
X123196106Y-96722270D01*
X123196104Y-96722271D01*
X123190796Y-96723693D01*
X123185815Y-96726016D01*
X123185814Y-96726016D01*
X122988277Y-96818128D01*
X122988272Y-96818131D01*
X122983290Y-96820454D01*
X122913697Y-96869184D01*
X122800250Y-96948620D01*
X122800247Y-96948622D01*
X122795739Y-96951779D01*
X122633841Y-97113677D01*
X122630684Y-97118185D01*
X122630682Y-97118188D01*
X122600259Y-97161637D01*
X122502516Y-97301228D01*
X122500193Y-97306210D01*
X122500190Y-97306215D01*
X122440746Y-97433694D01*
X122405755Y-97508734D01*
X122404333Y-97514042D01*
X122404332Y-97514044D01*
X122357859Y-97687483D01*
X122346496Y-97729890D01*
X122326541Y-97957977D01*
X121008500Y-97957977D01*
X121008500Y-87797977D01*
X122326541Y-87797977D01*
X122346496Y-88026064D01*
X122347920Y-88031377D01*
X122347920Y-88031379D01*
X122364682Y-88093933D01*
X122405755Y-88247220D01*
X122408078Y-88252201D01*
X122408078Y-88252202D01*
X122500190Y-88449739D01*
X122500193Y-88449744D01*
X122502516Y-88454726D01*
X122512242Y-88468616D01*
X122629472Y-88636037D01*
X122633841Y-88642277D01*
X122795739Y-88804175D01*
X122800247Y-88807332D01*
X122800250Y-88807334D01*
X122878428Y-88862075D01*
X122983290Y-88935500D01*
X122988272Y-88937823D01*
X122988277Y-88937826D01*
X123145201Y-89011000D01*
X123190796Y-89032261D01*
X123196104Y-89033683D01*
X123196106Y-89033684D01*
X123406637Y-89090096D01*
X123406639Y-89090096D01*
X123411952Y-89091520D01*
X123640039Y-89111475D01*
X123868126Y-89091520D01*
X123873439Y-89090096D01*
X123873441Y-89090096D01*
X124083972Y-89033684D01*
X124083974Y-89033683D01*
X124089282Y-89032261D01*
X124134877Y-89011000D01*
X124291801Y-88937826D01*
X124291806Y-88937823D01*
X124296788Y-88935500D01*
X124401650Y-88862075D01*
X124479828Y-88807334D01*
X124479831Y-88807332D01*
X124484339Y-88804175D01*
X124646237Y-88642277D01*
X124650607Y-88636037D01*
X124767836Y-88468616D01*
X124777562Y-88454726D01*
X124779885Y-88449744D01*
X124779888Y-88449739D01*
X124872000Y-88252202D01*
X124872000Y-88252201D01*
X124874323Y-88247220D01*
X124915397Y-88093933D01*
X124932158Y-88031379D01*
X124932158Y-88031377D01*
X124933582Y-88026064D01*
X124953537Y-87797977D01*
X124952991Y-87791737D01*
X128474120Y-87791737D01*
X128494075Y-88019824D01*
X128495499Y-88025137D01*
X128495499Y-88025139D01*
X128513933Y-88093933D01*
X128553334Y-88240980D01*
X128555657Y-88245961D01*
X128555657Y-88245962D01*
X128647769Y-88443499D01*
X128647772Y-88443504D01*
X128650095Y-88448486D01*
X128781420Y-88636037D01*
X128943318Y-88797935D01*
X128947826Y-88801092D01*
X128947829Y-88801094D01*
X128956741Y-88807334D01*
X129130869Y-88929260D01*
X129135851Y-88931583D01*
X129135856Y-88931586D01*
X129306162Y-89011000D01*
X129338375Y-89026021D01*
X129343683Y-89027443D01*
X129343685Y-89027444D01*
X129554216Y-89083856D01*
X129554218Y-89083856D01*
X129559531Y-89085280D01*
X129787618Y-89105235D01*
X130015705Y-89085280D01*
X130021018Y-89083856D01*
X130021020Y-89083856D01*
X130231551Y-89027444D01*
X130231553Y-89027443D01*
X130236861Y-89026021D01*
X130269074Y-89011000D01*
X130439380Y-88931586D01*
X130439385Y-88931583D01*
X130444367Y-88929260D01*
X130618495Y-88807334D01*
X130627407Y-88801094D01*
X130627410Y-88801092D01*
X130631918Y-88797935D01*
X130793816Y-88636037D01*
X130925141Y-88448486D01*
X130927464Y-88443504D01*
X130927467Y-88443499D01*
X131019579Y-88245962D01*
X131019579Y-88245961D01*
X131021902Y-88240980D01*
X131061304Y-88093933D01*
X131079737Y-88025139D01*
X131079737Y-88025137D01*
X131081161Y-88019824D01*
X131101116Y-87791737D01*
X131081161Y-87563650D01*
X131021902Y-87342494D01*
X131019579Y-87337512D01*
X130927467Y-87139975D01*
X130927464Y-87139970D01*
X130925141Y-87134988D01*
X130801344Y-86958188D01*
X130796975Y-86951948D01*
X130796973Y-86951945D01*
X130793816Y-86947437D01*
X130631918Y-86785539D01*
X130627410Y-86782382D01*
X130627407Y-86782380D01*
X130534786Y-86717526D01*
X130444367Y-86654214D01*
X130439385Y-86651891D01*
X130439380Y-86651888D01*
X130241843Y-86559776D01*
X130241842Y-86559776D01*
X130236861Y-86557453D01*
X130231553Y-86556031D01*
X130231551Y-86556030D01*
X130021020Y-86499618D01*
X130021018Y-86499618D01*
X130015705Y-86498194D01*
X129787618Y-86478239D01*
X129559531Y-86498194D01*
X129554218Y-86499618D01*
X129554216Y-86499618D01*
X129343685Y-86556030D01*
X129343683Y-86556031D01*
X129338375Y-86557453D01*
X129333394Y-86559776D01*
X129333393Y-86559776D01*
X129135856Y-86651888D01*
X129135851Y-86651891D01*
X129130869Y-86654214D01*
X129040450Y-86717526D01*
X128947829Y-86782380D01*
X128947826Y-86782382D01*
X128943318Y-86785539D01*
X128781420Y-86947437D01*
X128778263Y-86951945D01*
X128778261Y-86951948D01*
X128773892Y-86958188D01*
X128650095Y-87134988D01*
X128647772Y-87139970D01*
X128647769Y-87139975D01*
X128555657Y-87337512D01*
X128553334Y-87342494D01*
X128494075Y-87563650D01*
X128474120Y-87791737D01*
X124952991Y-87791737D01*
X124933582Y-87569890D01*
X124874323Y-87348734D01*
X124869090Y-87337512D01*
X124779888Y-87146215D01*
X124779885Y-87146210D01*
X124777562Y-87141228D01*
X124646237Y-86953677D01*
X124484339Y-86791779D01*
X124479831Y-86788622D01*
X124479828Y-86788620D01*
X124401650Y-86733879D01*
X124296788Y-86660454D01*
X124291806Y-86658131D01*
X124291801Y-86658128D01*
X124094264Y-86566016D01*
X124094263Y-86566016D01*
X124089282Y-86563693D01*
X124083974Y-86562271D01*
X124083972Y-86562270D01*
X123873441Y-86505858D01*
X123873439Y-86505858D01*
X123868126Y-86504434D01*
X123640039Y-86484479D01*
X123411952Y-86504434D01*
X123406639Y-86505858D01*
X123406637Y-86505858D01*
X123196106Y-86562270D01*
X123196104Y-86562271D01*
X123190796Y-86563693D01*
X123185815Y-86566016D01*
X123185814Y-86566016D01*
X122988277Y-86658128D01*
X122988272Y-86658131D01*
X122983290Y-86660454D01*
X122878428Y-86733879D01*
X122800250Y-86788620D01*
X122800247Y-86788622D01*
X122795739Y-86791779D01*
X122633841Y-86953677D01*
X122502516Y-87141228D01*
X122500193Y-87146210D01*
X122500190Y-87146215D01*
X122410988Y-87337512D01*
X122405755Y-87348734D01*
X122346496Y-87569890D01*
X122326541Y-87797977D01*
X121008500Y-87797977D01*
X121008500Y-82550000D01*
X123146502Y-82550000D01*
X123166457Y-82778087D01*
X123167881Y-82783400D01*
X123167881Y-82783402D01*
X123189860Y-82865426D01*
X123225716Y-82999243D01*
X123228039Y-83004224D01*
X123228039Y-83004225D01*
X123320151Y-83201762D01*
X123320154Y-83201767D01*
X123322477Y-83206749D01*
X123453802Y-83394300D01*
X123615700Y-83556198D01*
X123620208Y-83559355D01*
X123620211Y-83559357D01*
X123698389Y-83614098D01*
X123803251Y-83687523D01*
X123808233Y-83689846D01*
X123808238Y-83689849D01*
X124005775Y-83781961D01*
X124010757Y-83784284D01*
X124016065Y-83785706D01*
X124016067Y-83785707D01*
X124226598Y-83842119D01*
X124226600Y-83842119D01*
X124231913Y-83843543D01*
X124460000Y-83863498D01*
X124688087Y-83843543D01*
X124693400Y-83842119D01*
X124693402Y-83842119D01*
X124903933Y-83785707D01*
X124903935Y-83785706D01*
X124909243Y-83784284D01*
X124914225Y-83781961D01*
X125111762Y-83689849D01*
X125111767Y-83689846D01*
X125116749Y-83687523D01*
X125221611Y-83614098D01*
X125299789Y-83559357D01*
X125299792Y-83559355D01*
X125304300Y-83556198D01*
X125466198Y-83394300D01*
X125597523Y-83206749D01*
X125599846Y-83201767D01*
X125599849Y-83201762D01*
X125691961Y-83004225D01*
X125691961Y-83004224D01*
X125694284Y-82999243D01*
X125730141Y-82865426D01*
X125752119Y-82783402D01*
X125752119Y-82783400D01*
X125753543Y-82778087D01*
X125773498Y-82550000D01*
X125753543Y-82321913D01*
X125741960Y-82278686D01*
X125695707Y-82106067D01*
X125695706Y-82106065D01*
X125694284Y-82100757D01*
X125641823Y-81988253D01*
X125599849Y-81898238D01*
X125599846Y-81898233D01*
X125597523Y-81893251D01*
X125504668Y-81760640D01*
X125469357Y-81710211D01*
X125469355Y-81710208D01*
X125466198Y-81705700D01*
X125304300Y-81543802D01*
X125299792Y-81540645D01*
X125299789Y-81540643D01*
X125221611Y-81485902D01*
X125116749Y-81412477D01*
X125111767Y-81410154D01*
X125111762Y-81410151D01*
X124914225Y-81318039D01*
X124914224Y-81318039D01*
X124909243Y-81315716D01*
X124903935Y-81314294D01*
X124903933Y-81314293D01*
X124693402Y-81257881D01*
X124693400Y-81257881D01*
X124688087Y-81256457D01*
X124460000Y-81236502D01*
X124231913Y-81256457D01*
X124226600Y-81257881D01*
X124226598Y-81257881D01*
X124016067Y-81314293D01*
X124016065Y-81314294D01*
X124010757Y-81315716D01*
X124005776Y-81318039D01*
X124005775Y-81318039D01*
X123808238Y-81410151D01*
X123808233Y-81410154D01*
X123803251Y-81412477D01*
X123698389Y-81485902D01*
X123620211Y-81540643D01*
X123620208Y-81540645D01*
X123615700Y-81543802D01*
X123453802Y-81705700D01*
X123450645Y-81710208D01*
X123450643Y-81710211D01*
X123415332Y-81760640D01*
X123322477Y-81893251D01*
X123320154Y-81898233D01*
X123320151Y-81898238D01*
X123278177Y-81988253D01*
X123225716Y-82100757D01*
X123224294Y-82106065D01*
X123224293Y-82106067D01*
X123178040Y-82278686D01*
X123166457Y-82321913D01*
X123146502Y-82550000D01*
X121008500Y-82550000D01*
X121008500Y-76200000D01*
X139656502Y-76200000D01*
X139676457Y-76428087D01*
X139677881Y-76433400D01*
X139677881Y-76433402D01*
X139729408Y-76625700D01*
X139735716Y-76649243D01*
X139738039Y-76654224D01*
X139738039Y-76654225D01*
X139830151Y-76851762D01*
X139830154Y-76851767D01*
X139832477Y-76856749D01*
X139835634Y-76861257D01*
X139943829Y-77015775D01*
X139963802Y-77044300D01*
X140125700Y-77206198D01*
X140130208Y-77209355D01*
X140130211Y-77209357D01*
X140170378Y-77237482D01*
X140313251Y-77337523D01*
X140318233Y-77339846D01*
X140318238Y-77339849D01*
X140515775Y-77431961D01*
X140520757Y-77434284D01*
X140526065Y-77435706D01*
X140526067Y-77435707D01*
X140736598Y-77492119D01*
X140736600Y-77492119D01*
X140741913Y-77493543D01*
X140970000Y-77513498D01*
X141198087Y-77493543D01*
X141203400Y-77492119D01*
X141203402Y-77492119D01*
X141413933Y-77435707D01*
X141413935Y-77435706D01*
X141419243Y-77434284D01*
X141424225Y-77431961D01*
X141621762Y-77339849D01*
X141621767Y-77339846D01*
X141626749Y-77337523D01*
X141769622Y-77237482D01*
X141809789Y-77209357D01*
X141809792Y-77209355D01*
X141814300Y-77206198D01*
X141976198Y-77044300D01*
X141996172Y-77015775D01*
X142104366Y-76861257D01*
X142107523Y-76856749D01*
X142109846Y-76851767D01*
X142109849Y-76851762D01*
X142201961Y-76654225D01*
X142201961Y-76654224D01*
X142204284Y-76649243D01*
X142210593Y-76625700D01*
X142262119Y-76433402D01*
X142262119Y-76433400D01*
X142263543Y-76428087D01*
X142283498Y-76200000D01*
X142263543Y-75971913D01*
X142209095Y-75768712D01*
X142205707Y-75756067D01*
X142205706Y-75756065D01*
X142204284Y-75750757D01*
X142129297Y-75589945D01*
X142109849Y-75548238D01*
X142109846Y-75548233D01*
X142107523Y-75543251D01*
X141976198Y-75355700D01*
X141814300Y-75193802D01*
X141809792Y-75190645D01*
X141809789Y-75190643D01*
X141731611Y-75135902D01*
X141626749Y-75062477D01*
X141621767Y-75060154D01*
X141621762Y-75060151D01*
X141424225Y-74968039D01*
X141424224Y-74968039D01*
X141419243Y-74965716D01*
X141413935Y-74964294D01*
X141413933Y-74964293D01*
X141203402Y-74907881D01*
X141203400Y-74907881D01*
X141198087Y-74906457D01*
X140970000Y-74886502D01*
X140741913Y-74906457D01*
X140736600Y-74907881D01*
X140736598Y-74907881D01*
X140526067Y-74964293D01*
X140526065Y-74964294D01*
X140520757Y-74965716D01*
X140515776Y-74968039D01*
X140515775Y-74968039D01*
X140318238Y-75060151D01*
X140318233Y-75060154D01*
X140313251Y-75062477D01*
X140208389Y-75135902D01*
X140130211Y-75190643D01*
X140130208Y-75190645D01*
X140125700Y-75193802D01*
X139963802Y-75355700D01*
X139832477Y-75543251D01*
X139830154Y-75548233D01*
X139830151Y-75548238D01*
X139810703Y-75589945D01*
X139735716Y-75750757D01*
X139734294Y-75756065D01*
X139734293Y-75756067D01*
X139730905Y-75768712D01*
X139676457Y-75971913D01*
X139656502Y-76200000D01*
X121008500Y-76200000D01*
X121008500Y-72390000D01*
X133306502Y-72390000D01*
X133326457Y-72618087D01*
X133385716Y-72839243D01*
X133388039Y-72844224D01*
X133388039Y-72844225D01*
X133480151Y-73041762D01*
X133480154Y-73041767D01*
X133482477Y-73046749D01*
X133613802Y-73234300D01*
X133775700Y-73396198D01*
X133780208Y-73399355D01*
X133780211Y-73399357D01*
X133858389Y-73454098D01*
X133963251Y-73527523D01*
X133968233Y-73529846D01*
X133968238Y-73529849D01*
X134165775Y-73621961D01*
X134170757Y-73624284D01*
X134176065Y-73625706D01*
X134176067Y-73625707D01*
X134386598Y-73682119D01*
X134386600Y-73682119D01*
X134391913Y-73683543D01*
X134620000Y-73703498D01*
X134848087Y-73683543D01*
X134853400Y-73682119D01*
X134853402Y-73682119D01*
X135063933Y-73625707D01*
X135063935Y-73625706D01*
X135069243Y-73624284D01*
X135074225Y-73621961D01*
X135271762Y-73529849D01*
X135271767Y-73529846D01*
X135276749Y-73527523D01*
X135381611Y-73454098D01*
X135459789Y-73399357D01*
X135459792Y-73399355D01*
X135464300Y-73396198D01*
X135626198Y-73234300D01*
X135757523Y-73046749D01*
X135759846Y-73041767D01*
X135759849Y-73041762D01*
X135851961Y-72844225D01*
X135851961Y-72844224D01*
X135854284Y-72839243D01*
X135913543Y-72618087D01*
X135933498Y-72390000D01*
X139656502Y-72390000D01*
X139676457Y-72618087D01*
X139735716Y-72839243D01*
X139738039Y-72844224D01*
X139738039Y-72844225D01*
X139830151Y-73041762D01*
X139830154Y-73041767D01*
X139832477Y-73046749D01*
X139963802Y-73234300D01*
X140125700Y-73396198D01*
X140130208Y-73399355D01*
X140130211Y-73399357D01*
X140208389Y-73454098D01*
X140313251Y-73527523D01*
X140318233Y-73529846D01*
X140318238Y-73529849D01*
X140515775Y-73621961D01*
X140520757Y-73624284D01*
X140526065Y-73625706D01*
X140526067Y-73625707D01*
X140736598Y-73682119D01*
X140736600Y-73682119D01*
X140741913Y-73683543D01*
X140970000Y-73703498D01*
X141198087Y-73683543D01*
X141203400Y-73682119D01*
X141203402Y-73682119D01*
X141413933Y-73625707D01*
X141413935Y-73625706D01*
X141419243Y-73624284D01*
X141424225Y-73621961D01*
X141621762Y-73529849D01*
X141621767Y-73529846D01*
X141626749Y-73527523D01*
X141731611Y-73454098D01*
X141809789Y-73399357D01*
X141809792Y-73399355D01*
X141814300Y-73396198D01*
X141976198Y-73234300D01*
X142107523Y-73046749D01*
X142109846Y-73041767D01*
X142109849Y-73041762D01*
X142201961Y-72844225D01*
X142201961Y-72844224D01*
X142204284Y-72839243D01*
X142263543Y-72618087D01*
X142283498Y-72390000D01*
X147054770Y-72390000D01*
X147074725Y-72618087D01*
X147133984Y-72839243D01*
X147136307Y-72844224D01*
X147136307Y-72844225D01*
X147228419Y-73041762D01*
X147228422Y-73041767D01*
X147230745Y-73046749D01*
X147362070Y-73234300D01*
X147523968Y-73396198D01*
X147528476Y-73399355D01*
X147528479Y-73399357D01*
X147606657Y-73454098D01*
X147711519Y-73527523D01*
X147716501Y-73529846D01*
X147716506Y-73529849D01*
X147914043Y-73621961D01*
X147919025Y-73624284D01*
X147924333Y-73625706D01*
X147924335Y-73625707D01*
X148134866Y-73682119D01*
X148134868Y-73682119D01*
X148140181Y-73683543D01*
X148368268Y-73703498D01*
X148596355Y-73683543D01*
X148601668Y-73682119D01*
X148601670Y-73682119D01*
X148812201Y-73625707D01*
X148812203Y-73625706D01*
X148817511Y-73624284D01*
X148822493Y-73621961D01*
X149020030Y-73529849D01*
X149020035Y-73529846D01*
X149025017Y-73527523D01*
X149129879Y-73454098D01*
X149208057Y-73399357D01*
X149208060Y-73399355D01*
X149212568Y-73396198D01*
X149374466Y-73234300D01*
X149505791Y-73046749D01*
X149508114Y-73041767D01*
X149508117Y-73041762D01*
X149600229Y-72844225D01*
X149600229Y-72844224D01*
X149602552Y-72839243D01*
X149661811Y-72618087D01*
X149681766Y-72390000D01*
X153626502Y-72390000D01*
X153646457Y-72618087D01*
X153705716Y-72839243D01*
X153708039Y-72844224D01*
X153708039Y-72844225D01*
X153800151Y-73041762D01*
X153800154Y-73041767D01*
X153802477Y-73046749D01*
X153933802Y-73234300D01*
X154095700Y-73396198D01*
X154100208Y-73399355D01*
X154100211Y-73399357D01*
X154178389Y-73454098D01*
X154283251Y-73527523D01*
X154288233Y-73529846D01*
X154288238Y-73529849D01*
X154485775Y-73621961D01*
X154490757Y-73624284D01*
X154496065Y-73625706D01*
X154496067Y-73625707D01*
X154706598Y-73682119D01*
X154706600Y-73682119D01*
X154711913Y-73683543D01*
X154940000Y-73703498D01*
X155168087Y-73683543D01*
X155173400Y-73682119D01*
X155173402Y-73682119D01*
X155383933Y-73625707D01*
X155383935Y-73625706D01*
X155389243Y-73624284D01*
X155394225Y-73621961D01*
X155591762Y-73529849D01*
X155591767Y-73529846D01*
X155596749Y-73527523D01*
X155701611Y-73454098D01*
X155779789Y-73399357D01*
X155779792Y-73399355D01*
X155784300Y-73396198D01*
X155946198Y-73234300D01*
X156077523Y-73046749D01*
X156079846Y-73041767D01*
X156079849Y-73041762D01*
X156171961Y-72844225D01*
X156171961Y-72844224D01*
X156174284Y-72839243D01*
X156233543Y-72618087D01*
X156253498Y-72390000D01*
X159976502Y-72390000D01*
X159996457Y-72618087D01*
X160055716Y-72839243D01*
X160058039Y-72844224D01*
X160058039Y-72844225D01*
X160150151Y-73041762D01*
X160150154Y-73041767D01*
X160152477Y-73046749D01*
X160283802Y-73234300D01*
X160445700Y-73396198D01*
X160450208Y-73399355D01*
X160450211Y-73399357D01*
X160528389Y-73454098D01*
X160633251Y-73527523D01*
X160638233Y-73529846D01*
X160638238Y-73529849D01*
X160835775Y-73621961D01*
X160840757Y-73624284D01*
X160846065Y-73625706D01*
X160846067Y-73625707D01*
X161056598Y-73682119D01*
X161056600Y-73682119D01*
X161061913Y-73683543D01*
X161290000Y-73703498D01*
X161518087Y-73683543D01*
X161523400Y-73682119D01*
X161523402Y-73682119D01*
X161733933Y-73625707D01*
X161733935Y-73625706D01*
X161739243Y-73624284D01*
X161744225Y-73621961D01*
X161941762Y-73529849D01*
X161941767Y-73529846D01*
X161946749Y-73527523D01*
X162051611Y-73454098D01*
X162129789Y-73399357D01*
X162129792Y-73399355D01*
X162134300Y-73396198D01*
X162296198Y-73234300D01*
X162427523Y-73046749D01*
X162429846Y-73041767D01*
X162429849Y-73041762D01*
X162521961Y-72844225D01*
X162521961Y-72844224D01*
X162524284Y-72839243D01*
X162583543Y-72618087D01*
X162603498Y-72390000D01*
X166326502Y-72390000D01*
X166346457Y-72618087D01*
X166405716Y-72839243D01*
X166408039Y-72844224D01*
X166408039Y-72844225D01*
X166500151Y-73041762D01*
X166500154Y-73041767D01*
X166502477Y-73046749D01*
X166633802Y-73234300D01*
X166795700Y-73396198D01*
X166800208Y-73399355D01*
X166800211Y-73399357D01*
X166878389Y-73454098D01*
X166983251Y-73527523D01*
X166988233Y-73529846D01*
X166988238Y-73529849D01*
X167185775Y-73621961D01*
X167190757Y-73624284D01*
X167196065Y-73625706D01*
X167196067Y-73625707D01*
X167406598Y-73682119D01*
X167406600Y-73682119D01*
X167411913Y-73683543D01*
X167640000Y-73703498D01*
X167868087Y-73683543D01*
X167873400Y-73682119D01*
X167873402Y-73682119D01*
X168083933Y-73625707D01*
X168083935Y-73625706D01*
X168089243Y-73624284D01*
X168094225Y-73621961D01*
X168291762Y-73529849D01*
X168291767Y-73529846D01*
X168296749Y-73527523D01*
X168401611Y-73454098D01*
X168479789Y-73399357D01*
X168479792Y-73399355D01*
X168484300Y-73396198D01*
X168646198Y-73234300D01*
X168777523Y-73046749D01*
X168779846Y-73041767D01*
X168779849Y-73041762D01*
X168871961Y-72844225D01*
X168871961Y-72844224D01*
X168874284Y-72839243D01*
X168933543Y-72618087D01*
X168953498Y-72390000D01*
X168933543Y-72161913D01*
X168931959Y-72156002D01*
X168875707Y-71946067D01*
X168875706Y-71946065D01*
X168874284Y-71940757D01*
X168871961Y-71935775D01*
X168779849Y-71738238D01*
X168779846Y-71738233D01*
X168777523Y-71733251D01*
X168646198Y-71545700D01*
X168484300Y-71383802D01*
X168479792Y-71380645D01*
X168479789Y-71380643D01*
X168401611Y-71325902D01*
X168296749Y-71252477D01*
X168291767Y-71250154D01*
X168291762Y-71250151D01*
X168094225Y-71158039D01*
X168094224Y-71158039D01*
X168089243Y-71155716D01*
X168083935Y-71154294D01*
X168083933Y-71154293D01*
X167873402Y-71097881D01*
X167873400Y-71097881D01*
X167868087Y-71096457D01*
X167640000Y-71076502D01*
X167411913Y-71096457D01*
X167406600Y-71097881D01*
X167406598Y-71097881D01*
X167196067Y-71154293D01*
X167196065Y-71154294D01*
X167190757Y-71155716D01*
X167185776Y-71158039D01*
X167185775Y-71158039D01*
X166988238Y-71250151D01*
X166988233Y-71250154D01*
X166983251Y-71252477D01*
X166878389Y-71325902D01*
X166800211Y-71380643D01*
X166800208Y-71380645D01*
X166795700Y-71383802D01*
X166633802Y-71545700D01*
X166502477Y-71733251D01*
X166500154Y-71738233D01*
X166500151Y-71738238D01*
X166408039Y-71935775D01*
X166405716Y-71940757D01*
X166404294Y-71946065D01*
X166404293Y-71946067D01*
X166348041Y-72156002D01*
X166346457Y-72161913D01*
X166326502Y-72390000D01*
X162603498Y-72390000D01*
X162583543Y-72161913D01*
X162581959Y-72156002D01*
X162525707Y-71946067D01*
X162525706Y-71946065D01*
X162524284Y-71940757D01*
X162521961Y-71935775D01*
X162429849Y-71738238D01*
X162429846Y-71738233D01*
X162427523Y-71733251D01*
X162296198Y-71545700D01*
X162134300Y-71383802D01*
X162129792Y-71380645D01*
X162129789Y-71380643D01*
X162051611Y-71325902D01*
X161946749Y-71252477D01*
X161941767Y-71250154D01*
X161941762Y-71250151D01*
X161744225Y-71158039D01*
X161744224Y-71158039D01*
X161739243Y-71155716D01*
X161733935Y-71154294D01*
X161733933Y-71154293D01*
X161523402Y-71097881D01*
X161523400Y-71097881D01*
X161518087Y-71096457D01*
X161290000Y-71076502D01*
X161061913Y-71096457D01*
X161056600Y-71097881D01*
X161056598Y-71097881D01*
X160846067Y-71154293D01*
X160846065Y-71154294D01*
X160840757Y-71155716D01*
X160835776Y-71158039D01*
X160835775Y-71158039D01*
X160638238Y-71250151D01*
X160638233Y-71250154D01*
X160633251Y-71252477D01*
X160528389Y-71325902D01*
X160450211Y-71380643D01*
X160450208Y-71380645D01*
X160445700Y-71383802D01*
X160283802Y-71545700D01*
X160152477Y-71733251D01*
X160150154Y-71738233D01*
X160150151Y-71738238D01*
X160058039Y-71935775D01*
X160055716Y-71940757D01*
X160054294Y-71946065D01*
X160054293Y-71946067D01*
X159998041Y-72156002D01*
X159996457Y-72161913D01*
X159976502Y-72390000D01*
X156253498Y-72390000D01*
X156233543Y-72161913D01*
X156231959Y-72156002D01*
X156175707Y-71946067D01*
X156175706Y-71946065D01*
X156174284Y-71940757D01*
X156171961Y-71935775D01*
X156079849Y-71738238D01*
X156079846Y-71738233D01*
X156077523Y-71733251D01*
X155946198Y-71545700D01*
X155784300Y-71383802D01*
X155779792Y-71380645D01*
X155779789Y-71380643D01*
X155701611Y-71325902D01*
X155596749Y-71252477D01*
X155591767Y-71250154D01*
X155591762Y-71250151D01*
X155394225Y-71158039D01*
X155394224Y-71158039D01*
X155389243Y-71155716D01*
X155383935Y-71154294D01*
X155383933Y-71154293D01*
X155173402Y-71097881D01*
X155173400Y-71097881D01*
X155168087Y-71096457D01*
X154940000Y-71076502D01*
X154711913Y-71096457D01*
X154706600Y-71097881D01*
X154706598Y-71097881D01*
X154496067Y-71154293D01*
X154496065Y-71154294D01*
X154490757Y-71155716D01*
X154485776Y-71158039D01*
X154485775Y-71158039D01*
X154288238Y-71250151D01*
X154288233Y-71250154D01*
X154283251Y-71252477D01*
X154178389Y-71325902D01*
X154100211Y-71380643D01*
X154100208Y-71380645D01*
X154095700Y-71383802D01*
X153933802Y-71545700D01*
X153802477Y-71733251D01*
X153800154Y-71738233D01*
X153800151Y-71738238D01*
X153708039Y-71935775D01*
X153705716Y-71940757D01*
X153704294Y-71946065D01*
X153704293Y-71946067D01*
X153648041Y-72156002D01*
X153646457Y-72161913D01*
X153626502Y-72390000D01*
X149681766Y-72390000D01*
X149661811Y-72161913D01*
X149660227Y-72156002D01*
X149603975Y-71946067D01*
X149603974Y-71946065D01*
X149602552Y-71940757D01*
X149600229Y-71935775D01*
X149508117Y-71738238D01*
X149508114Y-71738233D01*
X149505791Y-71733251D01*
X149374466Y-71545700D01*
X149212568Y-71383802D01*
X149208060Y-71380645D01*
X149208057Y-71380643D01*
X149129879Y-71325902D01*
X149025017Y-71252477D01*
X149020035Y-71250154D01*
X149020030Y-71250151D01*
X148822493Y-71158039D01*
X148822492Y-71158039D01*
X148817511Y-71155716D01*
X148812203Y-71154294D01*
X148812201Y-71154293D01*
X148601670Y-71097881D01*
X148601668Y-71097881D01*
X148596355Y-71096457D01*
X148368268Y-71076502D01*
X148140181Y-71096457D01*
X148134868Y-71097881D01*
X148134866Y-71097881D01*
X147924335Y-71154293D01*
X147924333Y-71154294D01*
X147919025Y-71155716D01*
X147914044Y-71158039D01*
X147914043Y-71158039D01*
X147716506Y-71250151D01*
X147716501Y-71250154D01*
X147711519Y-71252477D01*
X147606657Y-71325902D01*
X147528479Y-71380643D01*
X147528476Y-71380645D01*
X147523968Y-71383802D01*
X147362070Y-71545700D01*
X147230745Y-71733251D01*
X147228422Y-71738233D01*
X147228419Y-71738238D01*
X147136307Y-71935775D01*
X147133984Y-71940757D01*
X147132562Y-71946065D01*
X147132561Y-71946067D01*
X147076309Y-72156002D01*
X147074725Y-72161913D01*
X147054770Y-72390000D01*
X142283498Y-72390000D01*
X142263543Y-72161913D01*
X142261959Y-72156002D01*
X142205707Y-71946067D01*
X142205706Y-71946065D01*
X142204284Y-71940757D01*
X142201961Y-71935775D01*
X142109849Y-71738238D01*
X142109846Y-71738233D01*
X142107523Y-71733251D01*
X141976198Y-71545700D01*
X141814300Y-71383802D01*
X141809792Y-71380645D01*
X141809789Y-71380643D01*
X141731611Y-71325902D01*
X141626749Y-71252477D01*
X141621767Y-71250154D01*
X141621762Y-71250151D01*
X141424225Y-71158039D01*
X141424224Y-71158039D01*
X141419243Y-71155716D01*
X141413935Y-71154294D01*
X141413933Y-71154293D01*
X141203402Y-71097881D01*
X141203400Y-71097881D01*
X141198087Y-71096457D01*
X140970000Y-71076502D01*
X140741913Y-71096457D01*
X140736600Y-71097881D01*
X140736598Y-71097881D01*
X140526067Y-71154293D01*
X140526065Y-71154294D01*
X140520757Y-71155716D01*
X140515776Y-71158039D01*
X140515775Y-71158039D01*
X140318238Y-71250151D01*
X140318233Y-71250154D01*
X140313251Y-71252477D01*
X140208389Y-71325902D01*
X140130211Y-71380643D01*
X140130208Y-71380645D01*
X140125700Y-71383802D01*
X139963802Y-71545700D01*
X139832477Y-71733251D01*
X139830154Y-71738233D01*
X139830151Y-71738238D01*
X139738039Y-71935775D01*
X139735716Y-71940757D01*
X139734294Y-71946065D01*
X139734293Y-71946067D01*
X139678041Y-72156002D01*
X139676457Y-72161913D01*
X139656502Y-72390000D01*
X135933498Y-72390000D01*
X135913543Y-72161913D01*
X135911959Y-72156002D01*
X135855707Y-71946067D01*
X135855706Y-71946065D01*
X135854284Y-71940757D01*
X135851961Y-71935775D01*
X135759849Y-71738238D01*
X135759846Y-71738233D01*
X135757523Y-71733251D01*
X135626198Y-71545700D01*
X135464300Y-71383802D01*
X135459792Y-71380645D01*
X135459789Y-71380643D01*
X135381611Y-71325902D01*
X135276749Y-71252477D01*
X135271767Y-71250154D01*
X135271762Y-71250151D01*
X135074225Y-71158039D01*
X135074224Y-71158039D01*
X135069243Y-71155716D01*
X135063935Y-71154294D01*
X135063933Y-71154293D01*
X134853402Y-71097881D01*
X134853400Y-71097881D01*
X134848087Y-71096457D01*
X134620000Y-71076502D01*
X134391913Y-71096457D01*
X134386600Y-71097881D01*
X134386598Y-71097881D01*
X134176067Y-71154293D01*
X134176065Y-71154294D01*
X134170757Y-71155716D01*
X134165776Y-71158039D01*
X134165775Y-71158039D01*
X133968238Y-71250151D01*
X133968233Y-71250154D01*
X133963251Y-71252477D01*
X133858389Y-71325902D01*
X133780211Y-71380643D01*
X133780208Y-71380645D01*
X133775700Y-71383802D01*
X133613802Y-71545700D01*
X133482477Y-71733251D01*
X133480154Y-71738233D01*
X133480151Y-71738238D01*
X133388039Y-71935775D01*
X133385716Y-71940757D01*
X133384294Y-71946065D01*
X133384293Y-71946067D01*
X133328041Y-72156002D01*
X133326457Y-72161913D01*
X133306502Y-72390000D01*
X121008500Y-72390000D01*
X121008500Y-62230000D01*
X133306502Y-62230000D01*
X133326457Y-62458087D01*
X133327881Y-62463400D01*
X133327881Y-62463402D01*
X133375785Y-62642179D01*
X133385716Y-62679243D01*
X133388039Y-62684224D01*
X133388039Y-62684225D01*
X133480151Y-62881762D01*
X133480154Y-62881767D01*
X133482477Y-62886749D01*
X133613802Y-63074300D01*
X133775700Y-63236198D01*
X133780208Y-63239355D01*
X133780211Y-63239357D01*
X133858389Y-63294098D01*
X133963251Y-63367523D01*
X133968233Y-63369846D01*
X133968238Y-63369849D01*
X134165775Y-63461961D01*
X134170757Y-63464284D01*
X134176065Y-63465706D01*
X134176067Y-63465707D01*
X134386598Y-63522119D01*
X134386600Y-63522119D01*
X134391913Y-63523543D01*
X134620000Y-63543498D01*
X134848087Y-63523543D01*
X134853400Y-63522119D01*
X134853402Y-63522119D01*
X135063933Y-63465707D01*
X135063935Y-63465706D01*
X135069243Y-63464284D01*
X135074225Y-63461961D01*
X135271762Y-63369849D01*
X135271767Y-63369846D01*
X135276749Y-63367523D01*
X135381611Y-63294098D01*
X135459789Y-63239357D01*
X135459792Y-63239355D01*
X135464300Y-63236198D01*
X135626198Y-63074300D01*
X135757523Y-62886749D01*
X135759846Y-62881767D01*
X135759849Y-62881762D01*
X135851961Y-62684225D01*
X135851961Y-62684224D01*
X135854284Y-62679243D01*
X135864216Y-62642179D01*
X135912119Y-62463402D01*
X135912119Y-62463400D01*
X135913543Y-62458087D01*
X135933498Y-62230000D01*
X139656502Y-62230000D01*
X139676457Y-62458087D01*
X139677881Y-62463400D01*
X139677881Y-62463402D01*
X139725785Y-62642179D01*
X139735716Y-62679243D01*
X139738039Y-62684224D01*
X139738039Y-62684225D01*
X139830151Y-62881762D01*
X139830154Y-62881767D01*
X139832477Y-62886749D01*
X139963802Y-63074300D01*
X140125700Y-63236198D01*
X140130208Y-63239355D01*
X140130211Y-63239357D01*
X140208389Y-63294098D01*
X140313251Y-63367523D01*
X140318233Y-63369846D01*
X140318238Y-63369849D01*
X140515775Y-63461961D01*
X140520757Y-63464284D01*
X140526065Y-63465706D01*
X140526067Y-63465707D01*
X140736598Y-63522119D01*
X140736600Y-63522119D01*
X140741913Y-63523543D01*
X140970000Y-63543498D01*
X141198087Y-63523543D01*
X141203400Y-63522119D01*
X141203402Y-63522119D01*
X141413933Y-63465707D01*
X141413935Y-63465706D01*
X141419243Y-63464284D01*
X141424225Y-63461961D01*
X141621762Y-63369849D01*
X141621767Y-63369846D01*
X141626749Y-63367523D01*
X141731611Y-63294098D01*
X141809789Y-63239357D01*
X141809792Y-63239355D01*
X141814300Y-63236198D01*
X141976198Y-63074300D01*
X142107523Y-62886749D01*
X142109846Y-62881767D01*
X142109849Y-62881762D01*
X142201961Y-62684225D01*
X142201961Y-62684224D01*
X142204284Y-62679243D01*
X142214216Y-62642179D01*
X142262119Y-62463402D01*
X142262119Y-62463400D01*
X142263543Y-62458087D01*
X142283498Y-62230000D01*
X147054770Y-62230000D01*
X147074725Y-62458087D01*
X147076149Y-62463400D01*
X147076149Y-62463402D01*
X147124053Y-62642179D01*
X147133984Y-62679243D01*
X147136307Y-62684224D01*
X147136307Y-62684225D01*
X147228419Y-62881762D01*
X147228422Y-62881767D01*
X147230745Y-62886749D01*
X147362070Y-63074300D01*
X147523968Y-63236198D01*
X147528476Y-63239355D01*
X147528479Y-63239357D01*
X147606657Y-63294098D01*
X147711519Y-63367523D01*
X147716501Y-63369846D01*
X147716506Y-63369849D01*
X147914043Y-63461961D01*
X147919025Y-63464284D01*
X147924333Y-63465706D01*
X147924335Y-63465707D01*
X148134866Y-63522119D01*
X148134868Y-63522119D01*
X148140181Y-63523543D01*
X148368268Y-63543498D01*
X148596355Y-63523543D01*
X148601668Y-63522119D01*
X148601670Y-63522119D01*
X148812201Y-63465707D01*
X148812203Y-63465706D01*
X148817511Y-63464284D01*
X148822493Y-63461961D01*
X149020030Y-63369849D01*
X149020035Y-63369846D01*
X149025017Y-63367523D01*
X149129879Y-63294098D01*
X149208057Y-63239357D01*
X149208060Y-63239355D01*
X149212568Y-63236198D01*
X149374466Y-63074300D01*
X149505791Y-62886749D01*
X149508114Y-62881767D01*
X149508117Y-62881762D01*
X149600229Y-62684225D01*
X149600229Y-62684224D01*
X149602552Y-62679243D01*
X149612484Y-62642179D01*
X149660387Y-62463402D01*
X149660387Y-62463400D01*
X149661811Y-62458087D01*
X149681766Y-62230000D01*
X149664917Y-62037415D01*
X149678906Y-61967810D01*
X149701343Y-61937338D01*
X155026405Y-56612276D01*
X155088717Y-56578250D01*
X155159532Y-56583315D01*
X155216368Y-56625862D01*
X155241179Y-56692382D01*
X155241500Y-56701371D01*
X155241500Y-56993629D01*
X155221498Y-57061750D01*
X155204595Y-57082724D01*
X154451089Y-57836230D01*
X154436677Y-57848616D01*
X154425082Y-57857149D01*
X154425077Y-57857154D01*
X154419182Y-57861492D01*
X154414443Y-57867070D01*
X154414440Y-57867073D01*
X154384965Y-57901768D01*
X154378035Y-57909284D01*
X154372340Y-57914979D01*
X154370060Y-57917861D01*
X154354719Y-57937251D01*
X154351928Y-57940655D01*
X154349282Y-57943770D01*
X154304667Y-57996285D01*
X154301339Y-58002801D01*
X154297972Y-58007850D01*
X154294805Y-58012979D01*
X154290266Y-58018716D01*
X154259345Y-58084875D01*
X154257442Y-58088769D01*
X154224231Y-58153808D01*
X154222492Y-58160916D01*
X154220393Y-58166559D01*
X154218476Y-58172322D01*
X154215378Y-58178950D01*
X154213888Y-58186112D01*
X154213888Y-58186113D01*
X154200514Y-58250412D01*
X154199544Y-58254696D01*
X154182192Y-58325610D01*
X154181500Y-58336764D01*
X154181464Y-58336762D01*
X154181225Y-58340755D01*
X154180851Y-58344947D01*
X154179360Y-58352115D01*
X154179558Y-58359432D01*
X154181454Y-58429521D01*
X154181500Y-58432928D01*
X154181500Y-61098133D01*
X154161498Y-61166254D01*
X154127772Y-61201345D01*
X154095700Y-61223802D01*
X153933802Y-61385700D01*
X153802477Y-61573251D01*
X153800154Y-61578233D01*
X153800151Y-61578238D01*
X153708039Y-61775775D01*
X153705716Y-61780757D01*
X153704294Y-61786065D01*
X153704293Y-61786067D01*
X153688815Y-61843831D01*
X153646457Y-62001913D01*
X153626502Y-62230000D01*
X153646457Y-62458087D01*
X153647881Y-62463400D01*
X153647881Y-62463402D01*
X153695785Y-62642179D01*
X153705716Y-62679243D01*
X153708039Y-62684224D01*
X153708039Y-62684225D01*
X153800151Y-62881762D01*
X153800154Y-62881767D01*
X153802477Y-62886749D01*
X153933802Y-63074300D01*
X154095700Y-63236198D01*
X154100208Y-63239355D01*
X154100211Y-63239357D01*
X154178389Y-63294098D01*
X154283251Y-63367523D01*
X154288233Y-63369846D01*
X154288238Y-63369849D01*
X154485775Y-63461961D01*
X154490757Y-63464284D01*
X154496065Y-63465706D01*
X154496067Y-63465707D01*
X154706598Y-63522119D01*
X154706600Y-63522119D01*
X154711913Y-63523543D01*
X154940000Y-63543498D01*
X155168087Y-63523543D01*
X155173400Y-63522119D01*
X155173402Y-63522119D01*
X155383933Y-63465707D01*
X155383935Y-63465706D01*
X155389243Y-63464284D01*
X155394225Y-63461961D01*
X155591762Y-63369849D01*
X155591767Y-63369846D01*
X155596749Y-63367523D01*
X155701611Y-63294098D01*
X155779789Y-63239357D01*
X155779792Y-63239355D01*
X155784300Y-63236198D01*
X155946198Y-63074300D01*
X156077523Y-62886749D01*
X156079846Y-62881767D01*
X156079849Y-62881762D01*
X156171961Y-62684225D01*
X156171961Y-62684224D01*
X156174284Y-62679243D01*
X156184216Y-62642179D01*
X156232119Y-62463402D01*
X156232119Y-62463400D01*
X156233543Y-62458087D01*
X156253498Y-62230000D01*
X156233543Y-62001913D01*
X156191185Y-61843831D01*
X156175707Y-61786067D01*
X156175706Y-61786065D01*
X156174284Y-61780757D01*
X156171961Y-61775775D01*
X156079849Y-61578238D01*
X156079846Y-61578233D01*
X156077523Y-61573251D01*
X155946198Y-61385700D01*
X155784300Y-61223802D01*
X155752229Y-61201345D01*
X155707901Y-61145890D01*
X155698500Y-61098133D01*
X155698500Y-58786371D01*
X155718502Y-58718250D01*
X155735405Y-58697276D01*
X156488911Y-57943770D01*
X156503323Y-57931384D01*
X156514918Y-57922851D01*
X156514923Y-57922846D01*
X156520818Y-57918508D01*
X156525557Y-57912930D01*
X156525560Y-57912927D01*
X156555035Y-57878232D01*
X156561965Y-57870716D01*
X156567660Y-57865021D01*
X156585281Y-57842749D01*
X156588072Y-57839345D01*
X156630591Y-57789297D01*
X156630592Y-57789295D01*
X156635333Y-57783715D01*
X156638661Y-57777199D01*
X156642028Y-57772150D01*
X156645195Y-57767021D01*
X156649734Y-57761284D01*
X156680655Y-57695125D01*
X156682561Y-57691225D01*
X156715769Y-57626192D01*
X156717508Y-57619084D01*
X156719607Y-57613441D01*
X156721524Y-57607678D01*
X156724622Y-57601050D01*
X156739487Y-57529583D01*
X156740457Y-57525299D01*
X156756473Y-57459845D01*
X156757808Y-57454390D01*
X156758500Y-57443236D01*
X156758536Y-57443238D01*
X156758775Y-57439245D01*
X156759149Y-57435053D01*
X156760640Y-57427885D01*
X156758546Y-57350479D01*
X156758500Y-57347072D01*
X156758500Y-56408371D01*
X156778502Y-56340250D01*
X156832158Y-56293757D01*
X156902432Y-56283653D01*
X156967012Y-56313147D01*
X156973595Y-56319276D01*
X160494595Y-59840276D01*
X160528621Y-59902588D01*
X160531500Y-59929371D01*
X160531500Y-61098133D01*
X160511498Y-61166254D01*
X160477772Y-61201345D01*
X160445700Y-61223802D01*
X160283802Y-61385700D01*
X160152477Y-61573251D01*
X160150154Y-61578233D01*
X160150151Y-61578238D01*
X160058039Y-61775775D01*
X160055716Y-61780757D01*
X160054294Y-61786065D01*
X160054293Y-61786067D01*
X160038815Y-61843831D01*
X159996457Y-62001913D01*
X159976502Y-62230000D01*
X159996457Y-62458087D01*
X159997881Y-62463400D01*
X159997881Y-62463402D01*
X160045785Y-62642179D01*
X160055716Y-62679243D01*
X160058039Y-62684224D01*
X160058039Y-62684225D01*
X160150151Y-62881762D01*
X160150154Y-62881767D01*
X160152477Y-62886749D01*
X160283802Y-63074300D01*
X160445700Y-63236198D01*
X160450208Y-63239355D01*
X160450211Y-63239357D01*
X160528389Y-63294098D01*
X160633251Y-63367523D01*
X160638233Y-63369846D01*
X160638238Y-63369849D01*
X160835775Y-63461961D01*
X160840757Y-63464284D01*
X160846065Y-63465706D01*
X160846067Y-63465707D01*
X161056598Y-63522119D01*
X161056600Y-63522119D01*
X161061913Y-63523543D01*
X161290000Y-63543498D01*
X161518087Y-63523543D01*
X161523400Y-63522119D01*
X161523402Y-63522119D01*
X161733933Y-63465707D01*
X161733935Y-63465706D01*
X161739243Y-63464284D01*
X161744225Y-63461961D01*
X161941762Y-63369849D01*
X161941767Y-63369846D01*
X161946749Y-63367523D01*
X162051611Y-63294098D01*
X162129789Y-63239357D01*
X162129792Y-63239355D01*
X162134300Y-63236198D01*
X162296198Y-63074300D01*
X162427523Y-62886749D01*
X162429846Y-62881767D01*
X162429849Y-62881762D01*
X162521961Y-62684225D01*
X162521961Y-62684224D01*
X162524284Y-62679243D01*
X162534216Y-62642179D01*
X162582119Y-62463402D01*
X162582119Y-62463400D01*
X162583543Y-62458087D01*
X162603498Y-62230000D01*
X162583543Y-62001913D01*
X162541185Y-61843831D01*
X162525707Y-61786067D01*
X162525706Y-61786065D01*
X162524284Y-61780757D01*
X162521961Y-61775775D01*
X162429849Y-61578238D01*
X162429846Y-61578233D01*
X162427523Y-61573251D01*
X162296198Y-61385700D01*
X162134300Y-61223802D01*
X162102229Y-61201345D01*
X162057901Y-61145890D01*
X162048500Y-61098133D01*
X162048500Y-60174371D01*
X162068502Y-60106250D01*
X162122158Y-60059757D01*
X162192432Y-60049653D01*
X162257012Y-60079147D01*
X162263595Y-60085276D01*
X164897230Y-62718911D01*
X164909616Y-62733323D01*
X164918149Y-62744918D01*
X164918154Y-62744923D01*
X164922492Y-62750818D01*
X164928070Y-62755557D01*
X164928073Y-62755560D01*
X164962768Y-62785035D01*
X164970284Y-62791965D01*
X164975979Y-62797660D01*
X164978861Y-62799940D01*
X164998251Y-62815281D01*
X165001655Y-62818072D01*
X165051703Y-62860591D01*
X165057285Y-62865333D01*
X165063801Y-62868661D01*
X165068850Y-62872028D01*
X165073979Y-62875195D01*
X165079716Y-62879734D01*
X165145875Y-62910655D01*
X165149769Y-62912558D01*
X165214808Y-62945769D01*
X165221916Y-62947508D01*
X165227559Y-62949607D01*
X165233322Y-62951524D01*
X165239950Y-62954622D01*
X165247112Y-62956112D01*
X165247113Y-62956112D01*
X165311412Y-62969486D01*
X165315696Y-62970456D01*
X165386610Y-62987808D01*
X165392212Y-62988156D01*
X165392215Y-62988156D01*
X165397764Y-62988500D01*
X165397762Y-62988536D01*
X165401755Y-62988775D01*
X165405947Y-62989149D01*
X165413115Y-62990640D01*
X165490520Y-62988546D01*
X165493928Y-62988500D01*
X166508133Y-62988500D01*
X166576254Y-63008502D01*
X166611345Y-63042228D01*
X166633802Y-63074300D01*
X166795700Y-63236198D01*
X166800208Y-63239355D01*
X166800211Y-63239357D01*
X166878389Y-63294098D01*
X166983251Y-63367523D01*
X166988233Y-63369846D01*
X166988238Y-63369849D01*
X167185775Y-63461961D01*
X167190757Y-63464284D01*
X167196065Y-63465706D01*
X167196067Y-63465707D01*
X167406598Y-63522119D01*
X167406600Y-63522119D01*
X167411913Y-63523543D01*
X167640000Y-63543498D01*
X167868087Y-63523543D01*
X167873400Y-63522119D01*
X167873402Y-63522119D01*
X168083933Y-63465707D01*
X168083935Y-63465706D01*
X168089243Y-63464284D01*
X168094225Y-63461961D01*
X168291762Y-63369849D01*
X168291767Y-63369846D01*
X168296749Y-63367523D01*
X168401611Y-63294098D01*
X168479789Y-63239357D01*
X168479792Y-63239355D01*
X168484300Y-63236198D01*
X168646198Y-63074300D01*
X168777523Y-62886749D01*
X168779846Y-62881767D01*
X168779849Y-62881762D01*
X168871961Y-62684225D01*
X168871961Y-62684224D01*
X168874284Y-62679243D01*
X168884216Y-62642179D01*
X168932119Y-62463402D01*
X168932119Y-62463400D01*
X168933543Y-62458087D01*
X168953498Y-62230000D01*
X168933543Y-62001913D01*
X168891185Y-61843831D01*
X168875707Y-61786067D01*
X168875706Y-61786065D01*
X168874284Y-61780757D01*
X168871961Y-61775775D01*
X168779849Y-61578238D01*
X168779846Y-61578233D01*
X168777523Y-61573251D01*
X168646198Y-61385700D01*
X168484300Y-61223802D01*
X168479792Y-61220645D01*
X168479789Y-61220643D01*
X168373030Y-61145890D01*
X168296749Y-61092477D01*
X168291767Y-61090154D01*
X168291762Y-61090151D01*
X168094225Y-60998039D01*
X168094224Y-60998039D01*
X168089243Y-60995716D01*
X168083935Y-60994294D01*
X168083933Y-60994293D01*
X167873402Y-60937881D01*
X167873400Y-60937881D01*
X167868087Y-60936457D01*
X167640000Y-60916502D01*
X167411913Y-60936457D01*
X167406600Y-60937881D01*
X167406598Y-60937881D01*
X167196067Y-60994293D01*
X167196065Y-60994294D01*
X167190757Y-60995716D01*
X167185776Y-60998039D01*
X167185775Y-60998039D01*
X166988238Y-61090151D01*
X166988233Y-61090154D01*
X166983251Y-61092477D01*
X166906970Y-61145890D01*
X166800211Y-61220643D01*
X166800208Y-61220645D01*
X166795700Y-61223802D01*
X166633802Y-61385700D01*
X166611345Y-61417771D01*
X166555890Y-61462099D01*
X166508133Y-61471500D01*
X165847371Y-61471500D01*
X165779250Y-61451498D01*
X165758276Y-61434595D01*
X159450838Y-55127157D01*
X159416812Y-55064845D01*
X159413933Y-55038062D01*
X159413933Y-52999312D01*
X159433935Y-52931191D01*
X159487591Y-52884698D01*
X159557865Y-52874594D01*
X159578867Y-52879479D01*
X159687392Y-52914740D01*
X159883777Y-52938158D01*
X159889912Y-52937686D01*
X159889914Y-52937686D01*
X160074830Y-52923457D01*
X160074834Y-52923456D01*
X160080972Y-52922984D01*
X160271463Y-52869798D01*
X160276967Y-52867018D01*
X160276969Y-52867017D01*
X160442493Y-52783405D01*
X160442495Y-52783404D01*
X160447996Y-52780625D01*
X160461973Y-52769705D01*
X160527967Y-52743525D01*
X160601020Y-52759004D01*
X160764121Y-52850159D01*
X160775356Y-52855067D01*
X160903768Y-52896790D01*
X160917867Y-52897193D01*
X160921000Y-52890821D01*
X160921000Y-52882564D01*
X161429000Y-52882564D01*
X161432973Y-52896095D01*
X161441188Y-52897276D01*
X161535337Y-52870989D01*
X161546787Y-52866548D01*
X161712226Y-52782979D01*
X161722585Y-52776404D01*
X161868639Y-52662295D01*
X161877527Y-52653831D01*
X161998643Y-52513517D01*
X162005711Y-52503497D01*
X162097262Y-52342337D01*
X162102256Y-52331121D01*
X162147142Y-52196190D01*
X162147643Y-52182097D01*
X162141454Y-52179000D01*
X161447115Y-52179000D01*
X161431876Y-52183475D01*
X161430671Y-52184865D01*
X161429000Y-52192548D01*
X161429000Y-52882564D01*
X160921000Y-52882564D01*
X160921000Y-51652885D01*
X161429000Y-51652885D01*
X161433475Y-51668124D01*
X161434865Y-51669329D01*
X161442548Y-51671000D01*
X162133183Y-51671000D01*
X162146714Y-51667027D01*
X162147806Y-51659433D01*
X162113231Y-51544919D01*
X162108560Y-51533586D01*
X162021540Y-51369923D01*
X162014751Y-51359706D01*
X161897603Y-51216067D01*
X161888959Y-51207363D01*
X161746144Y-51089216D01*
X161735973Y-51082356D01*
X161572924Y-50994196D01*
X161561619Y-50989444D01*
X161446308Y-50953750D01*
X161432205Y-50953544D01*
X161429000Y-50960299D01*
X161429000Y-51652885D01*
X160921000Y-51652885D01*
X160921000Y-50967076D01*
X160917027Y-50953545D01*
X160909232Y-50952425D01*
X160801479Y-50984138D01*
X160790111Y-50988731D01*
X160625846Y-51074607D01*
X160610426Y-51084697D01*
X160609003Y-51082522D01*
X160553864Y-51105314D01*
X160484005Y-51092657D01*
X160474055Y-51086839D01*
X160471675Y-51084870D01*
X160297701Y-50990802D01*
X160108768Y-50932318D01*
X160102643Y-50931674D01*
X160102642Y-50931674D01*
X159918204Y-50912289D01*
X159918202Y-50912289D01*
X159912075Y-50911645D01*
X159829576Y-50919153D01*
X159721251Y-50929011D01*
X159721248Y-50929012D01*
X159715112Y-50929570D01*
X159709206Y-50931308D01*
X159709202Y-50931309D01*
X159613179Y-50959570D01*
X159525381Y-50985410D01*
X159519923Y-50988263D01*
X159519919Y-50988265D01*
X159449410Y-51025127D01*
X159350110Y-51077040D01*
X159345310Y-51080900D01*
X159340153Y-51084274D01*
X159338769Y-51082158D01*
X159283365Y-51105027D01*
X159213512Y-51092334D01*
X159203898Y-51086709D01*
X159201675Y-51084870D01*
X159027701Y-50990802D01*
X158838768Y-50932318D01*
X158832643Y-50931674D01*
X158832642Y-50931674D01*
X158648204Y-50912289D01*
X158648202Y-50912289D01*
X158642075Y-50911645D01*
X158559576Y-50919153D01*
X158451251Y-50929011D01*
X158451248Y-50929012D01*
X158445112Y-50929570D01*
X158439206Y-50931308D01*
X158439202Y-50931309D01*
X158343179Y-50959570D01*
X158255381Y-50985410D01*
X158249923Y-50988263D01*
X158249919Y-50988265D01*
X158179410Y-51025127D01*
X158080110Y-51077040D01*
X158075310Y-51080900D01*
X158070153Y-51084274D01*
X158068769Y-51082158D01*
X158013365Y-51105027D01*
X157943512Y-51092334D01*
X157933898Y-51086709D01*
X157931675Y-51084870D01*
X157757701Y-50990802D01*
X157568768Y-50932318D01*
X157562643Y-50931674D01*
X157562642Y-50931674D01*
X157378204Y-50912289D01*
X157378202Y-50912289D01*
X157372075Y-50911645D01*
X157289576Y-50919153D01*
X157181251Y-50929011D01*
X157181248Y-50929012D01*
X157175112Y-50929570D01*
X157169206Y-50931308D01*
X157169202Y-50931309D01*
X157073179Y-50959570D01*
X156985381Y-50985410D01*
X156979923Y-50988263D01*
X156979919Y-50988265D01*
X156909410Y-51025127D01*
X156810110Y-51077040D01*
X156805310Y-51080900D01*
X156800153Y-51084274D01*
X156798769Y-51082158D01*
X156743365Y-51105027D01*
X156673512Y-51092334D01*
X156663898Y-51086709D01*
X156661675Y-51084870D01*
X156487701Y-50990802D01*
X156298768Y-50932318D01*
X156292643Y-50931674D01*
X156292642Y-50931674D01*
X156108204Y-50912289D01*
X156108202Y-50912289D01*
X156102075Y-50911645D01*
X156019576Y-50919153D01*
X155911251Y-50929011D01*
X155911248Y-50929012D01*
X155905112Y-50929570D01*
X155899206Y-50931308D01*
X155899202Y-50931309D01*
X155763551Y-50971233D01*
X155715381Y-50985410D01*
X155709797Y-50988329D01*
X155709727Y-50988343D01*
X155704209Y-50990573D01*
X155703785Y-50989524D01*
X155640164Y-51002165D01*
X155587846Y-50982096D01*
X155586760Y-50984079D01*
X155578892Y-50979771D01*
X155571705Y-50974385D01*
X155435316Y-50923255D01*
X155373134Y-50916500D01*
X154276866Y-50916500D01*
X154214684Y-50923255D01*
X154078295Y-50974385D01*
X153961739Y-51061739D01*
X153874385Y-51178295D01*
X153823255Y-51314684D01*
X153816500Y-51376866D01*
X153816500Y-52473134D01*
X153823255Y-52535316D01*
X153874385Y-52671705D01*
X153961739Y-52788261D01*
X154078295Y-52875615D01*
X154086703Y-52878767D01*
X154159730Y-52906144D01*
X154216494Y-52948786D01*
X154241194Y-53015348D01*
X154241500Y-53024126D01*
X154241500Y-55199629D01*
X154221498Y-55267750D01*
X154204595Y-55288724D01*
X148601586Y-60891733D01*
X148539274Y-60925759D01*
X148501509Y-60928159D01*
X148373743Y-60916981D01*
X148368268Y-60916502D01*
X148140181Y-60936457D01*
X148134868Y-60937881D01*
X148134866Y-60937881D01*
X147924335Y-60994293D01*
X147924333Y-60994294D01*
X147919025Y-60995716D01*
X147914044Y-60998039D01*
X147914043Y-60998039D01*
X147716506Y-61090151D01*
X147716501Y-61090154D01*
X147711519Y-61092477D01*
X147635238Y-61145890D01*
X147528479Y-61220643D01*
X147528476Y-61220645D01*
X147523968Y-61223802D01*
X147362070Y-61385700D01*
X147230745Y-61573251D01*
X147228422Y-61578233D01*
X147228419Y-61578238D01*
X147136307Y-61775775D01*
X147133984Y-61780757D01*
X147132562Y-61786065D01*
X147132561Y-61786067D01*
X147117083Y-61843831D01*
X147074725Y-62001913D01*
X147054770Y-62230000D01*
X142283498Y-62230000D01*
X142263543Y-62001913D01*
X142221185Y-61843831D01*
X142205707Y-61786067D01*
X142205706Y-61786065D01*
X142204284Y-61780757D01*
X142201961Y-61775775D01*
X142109849Y-61578238D01*
X142109846Y-61578233D01*
X142107523Y-61573251D01*
X141976198Y-61385700D01*
X141814300Y-61223802D01*
X141809792Y-61220645D01*
X141809789Y-61220643D01*
X141703030Y-61145890D01*
X141626749Y-61092477D01*
X141621767Y-61090154D01*
X141621762Y-61090151D01*
X141424225Y-60998039D01*
X141424224Y-60998039D01*
X141419243Y-60995716D01*
X141413935Y-60994294D01*
X141413933Y-60994293D01*
X141203402Y-60937881D01*
X141203400Y-60937881D01*
X141198087Y-60936457D01*
X140970000Y-60916502D01*
X140741913Y-60936457D01*
X140736600Y-60937881D01*
X140736598Y-60937881D01*
X140526067Y-60994293D01*
X140526065Y-60994294D01*
X140520757Y-60995716D01*
X140515776Y-60998039D01*
X140515775Y-60998039D01*
X140318238Y-61090151D01*
X140318233Y-61090154D01*
X140313251Y-61092477D01*
X140236970Y-61145890D01*
X140130211Y-61220643D01*
X140130208Y-61220645D01*
X140125700Y-61223802D01*
X139963802Y-61385700D01*
X139832477Y-61573251D01*
X139830154Y-61578233D01*
X139830151Y-61578238D01*
X139738039Y-61775775D01*
X139735716Y-61780757D01*
X139734294Y-61786065D01*
X139734293Y-61786067D01*
X139718815Y-61843831D01*
X139676457Y-62001913D01*
X139656502Y-62230000D01*
X135933498Y-62230000D01*
X135913543Y-62001913D01*
X135871185Y-61843831D01*
X135855707Y-61786067D01*
X135855706Y-61786065D01*
X135854284Y-61780757D01*
X135851961Y-61775775D01*
X135759849Y-61578238D01*
X135759846Y-61578233D01*
X135757523Y-61573251D01*
X135626198Y-61385700D01*
X135464300Y-61223802D01*
X135459792Y-61220645D01*
X135459789Y-61220643D01*
X135353030Y-61145890D01*
X135276749Y-61092477D01*
X135271767Y-61090154D01*
X135271762Y-61090151D01*
X135074225Y-60998039D01*
X135074224Y-60998039D01*
X135069243Y-60995716D01*
X135063935Y-60994294D01*
X135063933Y-60994293D01*
X134853402Y-60937881D01*
X134853400Y-60937881D01*
X134848087Y-60936457D01*
X134620000Y-60916502D01*
X134391913Y-60936457D01*
X134386600Y-60937881D01*
X134386598Y-60937881D01*
X134176067Y-60994293D01*
X134176065Y-60994294D01*
X134170757Y-60995716D01*
X134165776Y-60998039D01*
X134165775Y-60998039D01*
X133968238Y-61090151D01*
X133968233Y-61090154D01*
X133963251Y-61092477D01*
X133886970Y-61145890D01*
X133780211Y-61220643D01*
X133780208Y-61220645D01*
X133775700Y-61223802D01*
X133613802Y-61385700D01*
X133482477Y-61573251D01*
X133480154Y-61578233D01*
X133480151Y-61578238D01*
X133388039Y-61775775D01*
X133385716Y-61780757D01*
X133384294Y-61786065D01*
X133384293Y-61786067D01*
X133368815Y-61843831D01*
X133326457Y-62001913D01*
X133306502Y-62230000D01*
X121008500Y-62230000D01*
X121008500Y-52503134D01*
X134241500Y-52503134D01*
X134248255Y-52565316D01*
X134299385Y-52701705D01*
X134386739Y-52818261D01*
X134503295Y-52905615D01*
X134639684Y-52956745D01*
X134701866Y-52963500D01*
X135798134Y-52963500D01*
X135860316Y-52956745D01*
X135996705Y-52905615D01*
X136003892Y-52900229D01*
X136011760Y-52895921D01*
X136012891Y-52897987D01*
X136067418Y-52877618D01*
X136115408Y-52883459D01*
X136248769Y-52926790D01*
X136262867Y-52927193D01*
X136266000Y-52920821D01*
X136266000Y-52912564D01*
X136774000Y-52912564D01*
X136777973Y-52926095D01*
X136786188Y-52927276D01*
X136880337Y-52900989D01*
X136891787Y-52896548D01*
X137057226Y-52812979D01*
X137067588Y-52806403D01*
X137076074Y-52799773D01*
X137142068Y-52773595D01*
X137215117Y-52789074D01*
X137384294Y-52883624D01*
X137572392Y-52944740D01*
X137768777Y-52968158D01*
X137774912Y-52967686D01*
X137774914Y-52967686D01*
X137959830Y-52953457D01*
X137959834Y-52953456D01*
X137965972Y-52952984D01*
X138156463Y-52899798D01*
X138161967Y-52897018D01*
X138161969Y-52897017D01*
X138327493Y-52813405D01*
X138327495Y-52813404D01*
X138332996Y-52810625D01*
X138337850Y-52806833D01*
X138337859Y-52806827D01*
X138346548Y-52800038D01*
X138412542Y-52773860D01*
X138485592Y-52789339D01*
X138654294Y-52883624D01*
X138842392Y-52944740D01*
X139038777Y-52968158D01*
X139044912Y-52967686D01*
X139044914Y-52967686D01*
X139229830Y-52953457D01*
X139229834Y-52953456D01*
X139235972Y-52952984D01*
X139426463Y-52899798D01*
X139431967Y-52897018D01*
X139431969Y-52897017D01*
X139597493Y-52813405D01*
X139597495Y-52813404D01*
X139602996Y-52810625D01*
X139607850Y-52806833D01*
X139607859Y-52806827D01*
X139616548Y-52800038D01*
X139682542Y-52773860D01*
X139755592Y-52789339D01*
X139924294Y-52883624D01*
X140112392Y-52944740D01*
X140308777Y-52968158D01*
X140314912Y-52967686D01*
X140314914Y-52967686D01*
X140499830Y-52953457D01*
X140499834Y-52953456D01*
X140505972Y-52952984D01*
X140696463Y-52899798D01*
X140701967Y-52897018D01*
X140701969Y-52897017D01*
X140867493Y-52813405D01*
X140867495Y-52813404D01*
X140872996Y-52810625D01*
X140877850Y-52806833D01*
X140877859Y-52806827D01*
X140886548Y-52800038D01*
X140952542Y-52773860D01*
X141025592Y-52789339D01*
X141194294Y-52883624D01*
X141382392Y-52944740D01*
X141578777Y-52968158D01*
X141584912Y-52967686D01*
X141584914Y-52967686D01*
X141769830Y-52953457D01*
X141769834Y-52953456D01*
X141775972Y-52952984D01*
X141966463Y-52899798D01*
X141971967Y-52897018D01*
X141971969Y-52897017D01*
X142137493Y-52813405D01*
X142137495Y-52813404D01*
X142142996Y-52810625D01*
X142147850Y-52806833D01*
X142147859Y-52806827D01*
X142156548Y-52800038D01*
X142222542Y-52773860D01*
X142295592Y-52789339D01*
X142464294Y-52883624D01*
X142652392Y-52944740D01*
X142848777Y-52968158D01*
X142854912Y-52967686D01*
X142854914Y-52967686D01*
X143039830Y-52953457D01*
X143039834Y-52953456D01*
X143045972Y-52952984D01*
X143236463Y-52899798D01*
X143241967Y-52897018D01*
X143241969Y-52897017D01*
X143407493Y-52813405D01*
X143407495Y-52813404D01*
X143412996Y-52810625D01*
X143417850Y-52806833D01*
X143417859Y-52806827D01*
X143426548Y-52800038D01*
X143492542Y-52773860D01*
X143565592Y-52789339D01*
X143734294Y-52883624D01*
X143922392Y-52944740D01*
X144118777Y-52968158D01*
X144124912Y-52967686D01*
X144124914Y-52967686D01*
X144309830Y-52953457D01*
X144309834Y-52953456D01*
X144315972Y-52952984D01*
X144506463Y-52899798D01*
X144511967Y-52897018D01*
X144511969Y-52897017D01*
X144677495Y-52813404D01*
X144677497Y-52813403D01*
X144682996Y-52810625D01*
X144838847Y-52688861D01*
X144968078Y-52539145D01*
X145065769Y-52367179D01*
X145128197Y-52179513D01*
X145152985Y-51983295D01*
X145153380Y-51955000D01*
X145134080Y-51758167D01*
X145125023Y-51728167D01*
X145078697Y-51574731D01*
X145076916Y-51568831D01*
X144984066Y-51394204D01*
X144913176Y-51307285D01*
X144862960Y-51245713D01*
X144862957Y-51245710D01*
X144859065Y-51240938D01*
X144854316Y-51237009D01*
X144711425Y-51118799D01*
X144711421Y-51118797D01*
X144706675Y-51114870D01*
X144532701Y-51020802D01*
X144343768Y-50962318D01*
X144337643Y-50961674D01*
X144337642Y-50961674D01*
X144153204Y-50942289D01*
X144153202Y-50942289D01*
X144147075Y-50941645D01*
X144064576Y-50949153D01*
X143956251Y-50959011D01*
X143956248Y-50959012D01*
X143950112Y-50959570D01*
X143944206Y-50961308D01*
X143944202Y-50961309D01*
X143852613Y-50988265D01*
X143760381Y-51015410D01*
X143754923Y-51018263D01*
X143754919Y-51018265D01*
X143678344Y-51058298D01*
X143585110Y-51107040D01*
X143580310Y-51110900D01*
X143575153Y-51114274D01*
X143573769Y-51112158D01*
X143518365Y-51135027D01*
X143448512Y-51122334D01*
X143438898Y-51116709D01*
X143436675Y-51114870D01*
X143262701Y-51020802D01*
X143073768Y-50962318D01*
X143067643Y-50961674D01*
X143067642Y-50961674D01*
X142883204Y-50942289D01*
X142883202Y-50942289D01*
X142877075Y-50941645D01*
X142794576Y-50949153D01*
X142686251Y-50959011D01*
X142686248Y-50959012D01*
X142680112Y-50959570D01*
X142674206Y-50961308D01*
X142674202Y-50961309D01*
X142582613Y-50988265D01*
X142490381Y-51015410D01*
X142484923Y-51018263D01*
X142484919Y-51018265D01*
X142408344Y-51058298D01*
X142315110Y-51107040D01*
X142310310Y-51110900D01*
X142305153Y-51114274D01*
X142303769Y-51112158D01*
X142248365Y-51135027D01*
X142178512Y-51122334D01*
X142168898Y-51116709D01*
X142166675Y-51114870D01*
X141992701Y-51020802D01*
X141803768Y-50962318D01*
X141797643Y-50961674D01*
X141797642Y-50961674D01*
X141613204Y-50942289D01*
X141613202Y-50942289D01*
X141607075Y-50941645D01*
X141524576Y-50949153D01*
X141416251Y-50959011D01*
X141416248Y-50959012D01*
X141410112Y-50959570D01*
X141404206Y-50961308D01*
X141404202Y-50961309D01*
X141312613Y-50988265D01*
X141220381Y-51015410D01*
X141214923Y-51018263D01*
X141214919Y-51018265D01*
X141138344Y-51058298D01*
X141045110Y-51107040D01*
X141040310Y-51110900D01*
X141035153Y-51114274D01*
X141033769Y-51112158D01*
X140978365Y-51135027D01*
X140908512Y-51122334D01*
X140898898Y-51116709D01*
X140896675Y-51114870D01*
X140722701Y-51020802D01*
X140533768Y-50962318D01*
X140527643Y-50961674D01*
X140527642Y-50961674D01*
X140343204Y-50942289D01*
X140343202Y-50942289D01*
X140337075Y-50941645D01*
X140254576Y-50949153D01*
X140146251Y-50959011D01*
X140146248Y-50959012D01*
X140140112Y-50959570D01*
X140134206Y-50961308D01*
X140134202Y-50961309D01*
X140042613Y-50988265D01*
X139950381Y-51015410D01*
X139944923Y-51018263D01*
X139944919Y-51018265D01*
X139868344Y-51058298D01*
X139775110Y-51107040D01*
X139770310Y-51110900D01*
X139765153Y-51114274D01*
X139763769Y-51112158D01*
X139708365Y-51135027D01*
X139638512Y-51122334D01*
X139628898Y-51116709D01*
X139626675Y-51114870D01*
X139452701Y-51020802D01*
X139263768Y-50962318D01*
X139257643Y-50961674D01*
X139257642Y-50961674D01*
X139073204Y-50942289D01*
X139073202Y-50942289D01*
X139067075Y-50941645D01*
X138984576Y-50949153D01*
X138876251Y-50959011D01*
X138876248Y-50959012D01*
X138870112Y-50959570D01*
X138864206Y-50961308D01*
X138864202Y-50961309D01*
X138772613Y-50988265D01*
X138680381Y-51015410D01*
X138674923Y-51018263D01*
X138674919Y-51018265D01*
X138598344Y-51058298D01*
X138505110Y-51107040D01*
X138500310Y-51110900D01*
X138495153Y-51114274D01*
X138493769Y-51112158D01*
X138438365Y-51135027D01*
X138368512Y-51122334D01*
X138358898Y-51116709D01*
X138356675Y-51114870D01*
X138182701Y-51020802D01*
X137993768Y-50962318D01*
X137987643Y-50961674D01*
X137987642Y-50961674D01*
X137803204Y-50942289D01*
X137803202Y-50942289D01*
X137797075Y-50941645D01*
X137714576Y-50949153D01*
X137606251Y-50959011D01*
X137606248Y-50959012D01*
X137600112Y-50959570D01*
X137594206Y-50961308D01*
X137594202Y-50961309D01*
X137502613Y-50988265D01*
X137410381Y-51015410D01*
X137404923Y-51018263D01*
X137404919Y-51018265D01*
X137328344Y-51058298D01*
X137235110Y-51107040D01*
X137230310Y-51110900D01*
X137225153Y-51114274D01*
X137223849Y-51112281D01*
X137167977Y-51135354D01*
X137098122Y-51122674D01*
X137084186Y-51114522D01*
X137080980Y-51112360D01*
X136917924Y-51024196D01*
X136906619Y-51019444D01*
X136791308Y-50983750D01*
X136777205Y-50983544D01*
X136774000Y-50990299D01*
X136774000Y-52912564D01*
X136266000Y-52912564D01*
X136266000Y-50997076D01*
X136262027Y-50983545D01*
X136254232Y-50982425D01*
X136146479Y-51014138D01*
X136129396Y-51021040D01*
X136128941Y-51019914D01*
X136065604Y-51032498D01*
X136012772Y-51012230D01*
X136011760Y-51014079D01*
X136003892Y-51009771D01*
X135996705Y-51004385D01*
X135860316Y-50953255D01*
X135798134Y-50946500D01*
X134701866Y-50946500D01*
X134639684Y-50953255D01*
X134503295Y-51004385D01*
X134386739Y-51091739D01*
X134299385Y-51208295D01*
X134248255Y-51344684D01*
X134241500Y-51406866D01*
X134241500Y-52503134D01*
X121008500Y-52503134D01*
X121008500Y-49554568D01*
X122937382Y-49554568D01*
X122966208Y-49803699D01*
X122967587Y-49808573D01*
X122967588Y-49808577D01*
X123006526Y-49946181D01*
X123034494Y-50045017D01*
X123036628Y-50049592D01*
X123036630Y-50049599D01*
X123138347Y-50267731D01*
X123140484Y-50272313D01*
X123143326Y-50276494D01*
X123143326Y-50276495D01*
X123278605Y-50475552D01*
X123278608Y-50475556D01*
X123281451Y-50479739D01*
X123284928Y-50483416D01*
X123284929Y-50483417D01*
X123385238Y-50589491D01*
X123453767Y-50661959D01*
X123457793Y-50665037D01*
X123457794Y-50665038D01*
X123648981Y-50811212D01*
X123648985Y-50811215D01*
X123653001Y-50814285D01*
X123874026Y-50932797D01*
X123878807Y-50934443D01*
X123878811Y-50934445D01*
X124050993Y-50993732D01*
X124111156Y-51014448D01*
X124214689Y-51032331D01*
X124354380Y-51056460D01*
X124354386Y-51056461D01*
X124358290Y-51057135D01*
X124362251Y-51057315D01*
X124362252Y-51057315D01*
X124386931Y-51058436D01*
X124386950Y-51058436D01*
X124388350Y-51058500D01*
X124563015Y-51058500D01*
X124565523Y-51058298D01*
X124565528Y-51058298D01*
X124744944Y-51043863D01*
X124744949Y-51043862D01*
X124749985Y-51043457D01*
X124754893Y-51042252D01*
X124754896Y-51042251D01*
X124988625Y-50984841D01*
X124993539Y-50983634D01*
X124998191Y-50981659D01*
X124998195Y-50981658D01*
X125219741Y-50887617D01*
X125219742Y-50887617D01*
X125224396Y-50885641D01*
X125436615Y-50752000D01*
X125624738Y-50586147D01*
X125783924Y-50392351D01*
X125910078Y-50175596D01*
X125999955Y-49941461D01*
X126051241Y-49695967D01*
X126057662Y-49554568D01*
X192437382Y-49554568D01*
X192466208Y-49803699D01*
X192467587Y-49808573D01*
X192467588Y-49808577D01*
X192506526Y-49946181D01*
X192534494Y-50045017D01*
X192536628Y-50049592D01*
X192536630Y-50049599D01*
X192638347Y-50267731D01*
X192640484Y-50272313D01*
X192643326Y-50276494D01*
X192643326Y-50276495D01*
X192778605Y-50475552D01*
X192778608Y-50475556D01*
X192781451Y-50479739D01*
X192784928Y-50483416D01*
X192784929Y-50483417D01*
X192885238Y-50589491D01*
X192953767Y-50661959D01*
X192957793Y-50665037D01*
X192957794Y-50665038D01*
X193148981Y-50811212D01*
X193148985Y-50811215D01*
X193153001Y-50814285D01*
X193374026Y-50932797D01*
X193378807Y-50934443D01*
X193378811Y-50934445D01*
X193550993Y-50993732D01*
X193611156Y-51014448D01*
X193714689Y-51032331D01*
X193854380Y-51056460D01*
X193854386Y-51056461D01*
X193858290Y-51057135D01*
X193862251Y-51057315D01*
X193862252Y-51057315D01*
X193886931Y-51058436D01*
X193886950Y-51058436D01*
X193888350Y-51058500D01*
X194063015Y-51058500D01*
X194065523Y-51058298D01*
X194065528Y-51058298D01*
X194244944Y-51043863D01*
X194244949Y-51043862D01*
X194249985Y-51043457D01*
X194254893Y-51042252D01*
X194254896Y-51042251D01*
X194488625Y-50984841D01*
X194493539Y-50983634D01*
X194498191Y-50981659D01*
X194498195Y-50981658D01*
X194719741Y-50887617D01*
X194719742Y-50887617D01*
X194724396Y-50885641D01*
X194936615Y-50752000D01*
X195124738Y-50586147D01*
X195283924Y-50392351D01*
X195410078Y-50175596D01*
X195499955Y-49941461D01*
X195551241Y-49695967D01*
X195562618Y-49445432D01*
X195533792Y-49196301D01*
X195494810Y-49058539D01*
X195466884Y-48959852D01*
X195466883Y-48959850D01*
X195465506Y-48954983D01*
X195463372Y-48950408D01*
X195463370Y-48950401D01*
X195361653Y-48732269D01*
X195361651Y-48732265D01*
X195359516Y-48727687D01*
X195356674Y-48723505D01*
X195221395Y-48524448D01*
X195221392Y-48524444D01*
X195218549Y-48520261D01*
X195117925Y-48413853D01*
X195049713Y-48341721D01*
X195046233Y-48338041D01*
X195042206Y-48334962D01*
X194851019Y-48188788D01*
X194851015Y-48188785D01*
X194846999Y-48185715D01*
X194625974Y-48067203D01*
X194621193Y-48065557D01*
X194621189Y-48065555D01*
X194393633Y-47987201D01*
X194388844Y-47985552D01*
X194285311Y-47967669D01*
X194145620Y-47943540D01*
X194145614Y-47943539D01*
X194141710Y-47942865D01*
X194137749Y-47942685D01*
X194137748Y-47942685D01*
X194113069Y-47941564D01*
X194113050Y-47941564D01*
X194111650Y-47941500D01*
X193936985Y-47941500D01*
X193934477Y-47941702D01*
X193934472Y-47941702D01*
X193755056Y-47956137D01*
X193755051Y-47956138D01*
X193750015Y-47956543D01*
X193745107Y-47957748D01*
X193745104Y-47957749D01*
X193513326Y-48014680D01*
X193506461Y-48016366D01*
X193501809Y-48018341D01*
X193501805Y-48018342D01*
X193381061Y-48069595D01*
X193275604Y-48114359D01*
X193063385Y-48248000D01*
X192875262Y-48413853D01*
X192716076Y-48607649D01*
X192589922Y-48824404D01*
X192500045Y-49058539D01*
X192448759Y-49304033D01*
X192437382Y-49554568D01*
X126057662Y-49554568D01*
X126062618Y-49445432D01*
X126033792Y-49196301D01*
X125994810Y-49058539D01*
X125966884Y-48959852D01*
X125966883Y-48959850D01*
X125965506Y-48954983D01*
X125963372Y-48950408D01*
X125963370Y-48950401D01*
X125861653Y-48732269D01*
X125861651Y-48732265D01*
X125859516Y-48727687D01*
X125856674Y-48723505D01*
X125721395Y-48524448D01*
X125721392Y-48524444D01*
X125718549Y-48520261D01*
X125617925Y-48413853D01*
X125549713Y-48341721D01*
X125546233Y-48338041D01*
X125542206Y-48334962D01*
X125351019Y-48188788D01*
X125351015Y-48188785D01*
X125346999Y-48185715D01*
X125125974Y-48067203D01*
X125121193Y-48065557D01*
X125121189Y-48065555D01*
X124893633Y-47987201D01*
X124888844Y-47985552D01*
X124785311Y-47967669D01*
X124645620Y-47943540D01*
X124645614Y-47943539D01*
X124641710Y-47942865D01*
X124637749Y-47942685D01*
X124637748Y-47942685D01*
X124613069Y-47941564D01*
X124613050Y-47941564D01*
X124611650Y-47941500D01*
X124436985Y-47941500D01*
X124434477Y-47941702D01*
X124434472Y-47941702D01*
X124255056Y-47956137D01*
X124255051Y-47956138D01*
X124250015Y-47956543D01*
X124245107Y-47957748D01*
X124245104Y-47957749D01*
X124013326Y-48014680D01*
X124006461Y-48016366D01*
X124001809Y-48018341D01*
X124001805Y-48018342D01*
X123881061Y-48069595D01*
X123775604Y-48114359D01*
X123563385Y-48248000D01*
X123375262Y-48413853D01*
X123216076Y-48607649D01*
X123089922Y-48824404D01*
X123000045Y-49058539D01*
X122948759Y-49304033D01*
X122937382Y-49554568D01*
X121008500Y-49554568D01*
X121008500Y-46134500D01*
X121028502Y-46066379D01*
X121082158Y-46019886D01*
X121134500Y-46008500D01*
X197365500Y-46008500D01*
X197433621Y-46028502D01*
G37*
%TD.AperFunction*%
%TA.AperFunction,Conductor*%
G36*
X155172012Y-101341924D02*
G01*
X155178595Y-101348053D01*
X160824565Y-106994022D01*
X160837406Y-107009057D01*
X160841407Y-107014564D01*
X160841412Y-107014570D01*
X160845295Y-107019914D01*
X160850205Y-107024335D01*
X160850206Y-107024336D01*
X160894674Y-107064375D01*
X160899459Y-107068916D01*
X160913495Y-107082952D01*
X160916059Y-107085028D01*
X160928927Y-107095449D01*
X160933942Y-107099733D01*
X160978400Y-107139763D01*
X160978405Y-107139767D01*
X160983311Y-107144184D01*
X160989027Y-107147484D01*
X160989028Y-107147485D01*
X160994929Y-107150892D01*
X161011217Y-107162087D01*
X161021641Y-107170528D01*
X161080847Y-107200694D01*
X161086619Y-107203829D01*
X161138424Y-107233740D01*
X161138434Y-107233745D01*
X161144149Y-107237044D01*
X161150431Y-107239085D01*
X161150435Y-107239087D01*
X161156911Y-107241192D01*
X161175166Y-107248753D01*
X161181236Y-107251846D01*
X161181243Y-107251849D01*
X161187118Y-107254842D01*
X161251325Y-107272047D01*
X161257572Y-107273898D01*
X161320778Y-107294434D01*
X161327345Y-107295124D01*
X161327349Y-107295125D01*
X161334119Y-107295837D01*
X161353554Y-107299439D01*
X161360123Y-107301199D01*
X161360125Y-107301199D01*
X161366509Y-107302910D01*
X161373108Y-107303256D01*
X161373109Y-107303256D01*
X161404776Y-107304916D01*
X161471756Y-107328457D01*
X161515377Y-107384473D01*
X161521788Y-107455179D01*
X161507682Y-107493076D01*
X161467449Y-107563754D01*
X161462987Y-107573412D01*
X161387490Y-107781403D01*
X161384719Y-107791670D01*
X161362747Y-107913174D01*
X161364165Y-107926413D01*
X161378804Y-107931000D01*
X162838000Y-107931000D01*
X162906121Y-107951002D01*
X162952614Y-108004658D01*
X162964000Y-108057000D01*
X162964000Y-108313000D01*
X162943998Y-108381121D01*
X162890342Y-108427614D01*
X162838000Y-108439000D01*
X161374475Y-108439000D01*
X161359795Y-108443310D01*
X161357870Y-108454405D01*
X161359258Y-108462530D01*
X161414848Y-108676708D01*
X161418381Y-108686738D01*
X161509264Y-108888491D01*
X161514433Y-108897777D01*
X161638010Y-109081333D01*
X161644669Y-109089616D01*
X161797402Y-109249722D01*
X161805372Y-109256774D01*
X161982901Y-109388858D01*
X161991931Y-109394457D01*
X162189189Y-109494749D01*
X162192091Y-109495927D01*
X162193129Y-109496752D01*
X162193936Y-109497162D01*
X162193852Y-109497326D01*
X162247681Y-109540089D01*
X162270569Y-109607295D01*
X162253490Y-109676207D01*
X162233779Y-109701763D01*
X158545947Y-113389595D01*
X158483635Y-113423621D01*
X158456852Y-113426500D01*
X151096688Y-113426500D01*
X151028567Y-113406498D01*
X151007593Y-113389595D01*
X150921800Y-113303802D01*
X150917292Y-113300645D01*
X150917289Y-113300643D01*
X150833962Y-113242297D01*
X150734249Y-113172477D01*
X150729267Y-113170154D01*
X150729262Y-113170151D01*
X150695043Y-113154195D01*
X150641758Y-113107278D01*
X150622297Y-113039001D01*
X150642839Y-112971041D01*
X150695043Y-112925805D01*
X150729262Y-112909849D01*
X150729267Y-112909846D01*
X150734249Y-112907523D01*
X150839111Y-112834098D01*
X150917289Y-112779357D01*
X150917292Y-112779355D01*
X150921800Y-112776198D01*
X151083698Y-112614300D01*
X151215023Y-112426749D01*
X151217346Y-112421767D01*
X151217349Y-112421762D01*
X151309461Y-112224225D01*
X151309461Y-112224224D01*
X151311784Y-112219243D01*
X151345066Y-112095036D01*
X151369619Y-112003402D01*
X151369619Y-112003400D01*
X151371043Y-111998087D01*
X151390998Y-111770000D01*
X151371043Y-111541913D01*
X151360744Y-111503478D01*
X151313207Y-111326067D01*
X151313206Y-111326065D01*
X151311784Y-111320757D01*
X151217466Y-111118489D01*
X151217349Y-111118238D01*
X151217346Y-111118233D01*
X151215023Y-111113251D01*
X151083698Y-110925700D01*
X150921800Y-110763802D01*
X150917292Y-110760645D01*
X150917289Y-110760643D01*
X150766926Y-110655358D01*
X150734249Y-110632477D01*
X150729267Y-110630154D01*
X150729262Y-110630151D01*
X150695043Y-110614195D01*
X150641758Y-110567278D01*
X150622297Y-110499001D01*
X150642839Y-110431041D01*
X150695043Y-110385805D01*
X150729262Y-110369849D01*
X150729267Y-110369846D01*
X150734249Y-110367523D01*
X150839111Y-110294098D01*
X150917289Y-110239357D01*
X150917292Y-110239355D01*
X150921800Y-110236198D01*
X151083698Y-110074300D01*
X151215023Y-109886749D01*
X151217346Y-109881767D01*
X151217349Y-109881762D01*
X151309461Y-109684225D01*
X151309461Y-109684224D01*
X151311784Y-109679243D01*
X151336122Y-109588415D01*
X151369619Y-109463402D01*
X151369619Y-109463400D01*
X151371043Y-109458087D01*
X151390998Y-109230000D01*
X151371043Y-109001913D01*
X151369619Y-108996598D01*
X151313207Y-108786067D01*
X151313206Y-108786065D01*
X151311784Y-108780757D01*
X151267943Y-108686738D01*
X151217349Y-108578238D01*
X151217346Y-108578233D01*
X151215023Y-108573251D01*
X151113047Y-108427614D01*
X151086857Y-108390211D01*
X151086855Y-108390208D01*
X151083698Y-108385700D01*
X150921800Y-108223802D01*
X150917292Y-108220645D01*
X150917289Y-108220643D01*
X150815762Y-108149553D01*
X150734249Y-108092477D01*
X150729267Y-108090154D01*
X150729262Y-108090151D01*
X150695043Y-108074195D01*
X150641758Y-108027278D01*
X150622297Y-107959001D01*
X150642839Y-107891041D01*
X150695043Y-107845805D01*
X150729262Y-107829849D01*
X150729267Y-107829846D01*
X150734249Y-107827523D01*
X150853688Y-107743891D01*
X150917289Y-107699357D01*
X150917292Y-107699355D01*
X150921800Y-107696198D01*
X151083698Y-107534300D01*
X151112564Y-107493076D01*
X151175656Y-107402971D01*
X151215023Y-107346749D01*
X151217346Y-107341767D01*
X151217349Y-107341762D01*
X151309461Y-107144225D01*
X151309461Y-107144224D01*
X151311784Y-107139243D01*
X151318624Y-107113718D01*
X151369619Y-106923402D01*
X151369619Y-106923400D01*
X151371043Y-106918087D01*
X151390998Y-106690000D01*
X151371043Y-106461913D01*
X151344225Y-106361827D01*
X151345915Y-106290851D01*
X151376837Y-106240121D01*
X154648546Y-102968412D01*
X154663574Y-102955575D01*
X154674434Y-102947685D01*
X154718886Y-102898316D01*
X154723427Y-102893531D01*
X154737472Y-102879486D01*
X154739559Y-102876909D01*
X154749969Y-102864054D01*
X154754253Y-102859038D01*
X154794283Y-102814580D01*
X154794287Y-102814575D01*
X154798704Y-102809669D01*
X154805411Y-102798052D01*
X154816609Y-102781759D01*
X154820891Y-102776471D01*
X154825047Y-102771339D01*
X154855213Y-102712137D01*
X154858346Y-102706367D01*
X154888260Y-102654555D01*
X154888262Y-102654550D01*
X154891564Y-102648831D01*
X154893605Y-102642551D01*
X154893608Y-102642543D01*
X154895708Y-102636079D01*
X154903272Y-102617817D01*
X154906363Y-102611751D01*
X154906366Y-102611742D01*
X154909362Y-102605863D01*
X154926556Y-102541696D01*
X154928422Y-102535394D01*
X154948954Y-102472202D01*
X154950355Y-102458872D01*
X154953958Y-102439429D01*
X154957430Y-102426471D01*
X154960906Y-102360146D01*
X154961423Y-102353571D01*
X154963156Y-102337079D01*
X154963500Y-102333806D01*
X154963500Y-102313932D01*
X154963673Y-102307338D01*
X154966804Y-102247599D01*
X154966804Y-102247595D01*
X154967149Y-102241007D01*
X154965051Y-102227760D01*
X154963500Y-102208050D01*
X154963500Y-101437148D01*
X154983502Y-101369027D01*
X155037158Y-101322534D01*
X155107432Y-101312430D01*
X155172012Y-101341924D01*
G37*
%TD.AperFunction*%
%TA.AperFunction,Conductor*%
G36*
X190771121Y-72156002D02*
G01*
X190817614Y-72209658D01*
X190829000Y-72262000D01*
X190829000Y-73347564D01*
X190832973Y-73361095D01*
X190841188Y-73362276D01*
X190935337Y-73335989D01*
X190946788Y-73331547D01*
X191058690Y-73275022D01*
X191128512Y-73262162D01*
X191194203Y-73289092D01*
X191234906Y-73347262D01*
X191241500Y-73387488D01*
X191241500Y-74573647D01*
X191221498Y-74641768D01*
X191204595Y-74662742D01*
X190549084Y-75318253D01*
X190486772Y-75352279D01*
X190415957Y-75347214D01*
X190359121Y-75304667D01*
X190334310Y-75238147D01*
X190333989Y-75229158D01*
X190333989Y-72262000D01*
X190353991Y-72193879D01*
X190407647Y-72147386D01*
X190459989Y-72136000D01*
X190703000Y-72136000D01*
X190771121Y-72156002D01*
G37*
%TD.AperFunction*%
%TD*%
M02*
