M48
; DRILL file {KiCad (6.0.4)} date Tue 12 Apr 2022 10:07:39 CEST
; FORMAT={-:-/ absolute / inch / decimal}
; #@! TF.CreationDate,2022-04-12T10:07:39+02:00
; #@! TF.GenerationSoftware,Kicad,Pcbnew,(6.0.4)
; #@! TF.FileFunction,Plated,1,2,PTH
FMAT,2
INCH
; #@! TA.AperFunction,Plated,PTH,ViaDrill
T1C0.0157
; #@! TA.AperFunction,Plated,PTH,ComponentDrill
T2C0.0256
; #@! TA.AperFunction,Plated,PTH,ComponentDrill
T3C0.0315
; #@! TA.AperFunction,Plated,PTH,ComponentDrill
T4C0.0433
; #@! TA.AperFunction,Plated,PTH,ComponentDrill
T5C0.0520
%
G90
G05
T1
X6.9488Y-2.5394
T2
X5.3248Y-2.0455
X5.3748Y-2.0455
X5.4248Y-2.0455
X5.4748Y-2.0455
X5.5248Y-2.0455
X5.5748Y-2.0455
X5.6248Y-2.0455
X5.6748Y-2.0455
X6.0955Y-2.0443
X6.1455Y-2.0443
X6.1955Y-2.0443
X6.2455Y-2.0443
X6.2955Y-2.0443
X6.3455Y-2.0443
X7.503Y-2.35
X7.503Y-2.4
X7.503Y-2.45
X7.503Y-2.5
X7.503Y-2.55
X7.503Y-2.6
X7.503Y-2.65
X7.503Y-2.7
X7.503Y-2.75
X7.503Y-2.8
X7.503Y-2.85
T3
X4.8677Y-3.4566
X4.8677Y-3.8566
X4.9Y-3.25
X5.05Y-4.1
X5.05Y-4.5
X5.1097Y-3.4564
X5.1097Y-3.8564
X5.3Y-2.45
X5.3Y-2.85
X5.3Y-3.25
X5.3Y-4.1
X5.3Y-4.5
X5.3495Y-3.4564
X5.3495Y-3.8564
X5.4928Y-4.2004
X5.4928Y-4.3004
X5.4928Y-4.4004
X5.4928Y-4.5004
X5.55Y-2.45
X5.55Y-2.85
X5.55Y-3.0
X5.663Y-3.622
X5.6661Y-3.8976
X5.8413Y-2.45
X5.8413Y-2.85
X5.8928Y-4.2004
X5.8928Y-4.3004
X5.8928Y-4.4004
X5.8928Y-4.5004
X5.95Y-3.0
X6.063Y-3.622
X6.0661Y-3.8976
X6.1Y-2.45
X6.1Y-2.85
X6.2Y-3.05
X6.35Y-2.45
X6.35Y-2.85
X6.6Y-2.45
X6.6Y-2.85
X6.6Y-3.05
T4
X6.3764Y-3.9067
X6.4059Y-4.2593
X6.4764Y-3.9067
X6.4961Y-4.2593
X6.5764Y-3.9067
X6.5862Y-4.2593
X6.8276Y-4.252
X6.8291Y-3.9067
X6.9177Y-4.252
X6.9291Y-3.9067
X7.0079Y-4.252
X7.0291Y-3.9067
T5
X7.4606Y-3.5144
X7.4606Y-3.7112
X7.4606Y-4.2131
X7.4606Y-4.41
T0
M30
