%TF.GenerationSoftware,KiCad,Pcbnew,6.0.4*%
%TF.CreationDate,2022-04-27T14:32:22+02:00*%
%TF.ProjectId,Antenna-controller,416e7465-6e6e-4612-9d63-6f6e74726f6c,rev?*%
%TF.SameCoordinates,Original*%
%TF.FileFunction,Soldermask,Top*%
%TF.FilePolarity,Negative*%
%FSLAX46Y46*%
G04 Gerber Fmt 4.6, Leading zero omitted, Abs format (unit mm)*
G04 Created by KiCad (PCBNEW 6.0.4) date 2022-04-27 14:32:22*
%MOMM*%
%LPD*%
G01*
G04 APERTURE LIST*
%ADD10O,1.600000X1.600000*%
%ADD11C,1.600000*%
%ADD12R,1.717500X1.800000*%
%ADD13O,1.717500X1.800000*%
%ADD14R,1.905000X2.000000*%
%ADD15O,1.905000X2.000000*%
%ADD16R,2.400000X1.600000*%
%ADD17O,2.400000X1.600000*%
%ADD18R,3.960000X1.980000*%
%ADD19O,3.960000X1.980000*%
%ADD20C,2.100000*%
%ADD21R,1.700000X1.700000*%
%ADD22O,1.700000X1.700000*%
G04 APERTURE END LIST*
D10*
%TO.C,R13*%
X128524000Y-99568000D03*
D11*
X128524000Y-89408000D03*
%TD*%
%TO.C,R11*%
X132080000Y-72644000D03*
D10*
X132080000Y-82804000D03*
%TD*%
D12*
%TO.C,Q4*%
X176276000Y-116586000D03*
D13*
X173986000Y-116586000D03*
X171696000Y-116586000D03*
%TD*%
D14*
%TO.C,Q3*%
X171736000Y-107816000D03*
D15*
X174276000Y-107816000D03*
X176816000Y-107816000D03*
%TD*%
D12*
%TO.C,Q2*%
X165566000Y-116771000D03*
D13*
X163276000Y-116771000D03*
X160986000Y-116771000D03*
%TD*%
D14*
%TO.C,Q1*%
X160236000Y-107816000D03*
D15*
X162776000Y-107816000D03*
X165316000Y-107816000D03*
%TD*%
D10*
%TO.C,R12*%
X124738000Y-82804000D03*
D11*
X124738000Y-72644000D03*
%TD*%
D10*
%TO.C,R15*%
X160274000Y-99568000D03*
D11*
X160274000Y-89408000D03*
%TD*%
D16*
%TO.C,U1*%
X139517500Y-106690000D03*
D17*
X139517500Y-109230000D03*
X139517500Y-111770000D03*
X139517500Y-114310000D03*
X149677500Y-114310000D03*
X149677500Y-111770000D03*
X149677500Y-109230000D03*
X149677500Y-106690000D03*
%TD*%
D18*
%TO.C,M1*%
X189500000Y-112014000D03*
D19*
X189500000Y-107014000D03*
%TD*%
D20*
%TO.C,REF\u002A\u002A*%
X124500000Y-49500000D03*
%TD*%
D21*
%TO.C,s-lite1*%
X186125000Y-55880000D03*
D22*
X186125000Y-58420000D03*
X186125000Y-60960000D03*
X186125000Y-63500000D03*
X186125000Y-66040000D03*
X186125000Y-68580000D03*
X186125000Y-71120000D03*
X186125000Y-73660000D03*
X186125000Y-76200000D03*
X186125000Y-78740000D03*
X186125000Y-81280000D03*
%TD*%
D11*
%TO.C,R17*%
X147828000Y-89408000D03*
D10*
X147828000Y-99568000D03*
%TD*%
D11*
%TO.C,R1*%
X168656000Y-102616000D03*
D10*
X158496000Y-102616000D03*
%TD*%
D21*
%TO.C,U2*%
X133619000Y-56445000D03*
D22*
X136159000Y-56445000D03*
X138699000Y-56445000D03*
X141239000Y-56445000D03*
X143779000Y-56445000D03*
X146319000Y-56445000D03*
X148859000Y-56445000D03*
X151399000Y-56445000D03*
%TD*%
D10*
%TO.C,R16*%
X154178000Y-99568000D03*
D11*
X154178000Y-89408000D03*
%TD*%
D20*
%TO.C,REF\u002A\u002A*%
X124500000Y-118000000D03*
%TD*%
D11*
%TO.C,R10*%
X162306000Y-72419511D03*
D10*
X162306000Y-82579511D03*
%TD*%
%TO.C,R14*%
X134874000Y-99568000D03*
D11*
X134874000Y-89408000D03*
%TD*%
%TO.C,R5*%
X128270000Y-104140000D03*
D10*
X128270000Y-114300000D03*
%TD*%
D20*
%TO.C,REF\u002A\u002A*%
X194000000Y-49500000D03*
%TD*%
D11*
%TO.C,R2*%
X184150000Y-102108000D03*
D10*
X173990000Y-102108000D03*
%TD*%
D11*
%TO.C,R8*%
X147828000Y-72419511D03*
D10*
X147828000Y-82579511D03*
%TD*%
D21*
%TO.C,J2*%
X164592000Y-56388000D03*
D22*
X167132000Y-56388000D03*
X169672000Y-56388000D03*
X172212000Y-56388000D03*
X174752000Y-56388000D03*
X177292000Y-56388000D03*
%TD*%
D11*
%TO.C,R7*%
X140464757Y-72435000D03*
D10*
X140464757Y-82595000D03*
%TD*%
D11*
%TO.C,R18*%
X141478000Y-89408000D03*
D10*
X141478000Y-99568000D03*
%TD*%
D20*
%TO.C,REF\u002A\u002A*%
X194000000Y-118000000D03*
%TD*%
D11*
%TO.C,R9*%
X155956000Y-72419511D03*
D10*
X155956000Y-82579511D03*
%TD*%
D19*
%TO.C,J1*%
X189500000Y-89265000D03*
D18*
X189500000Y-94265000D03*
%TD*%
D11*
%TO.C,R6*%
X134620000Y-104140000D03*
D10*
X134620000Y-114300000D03*
%TD*%
M02*
