M48
; DRILL file {KiCad 6.0.4} date Wed 27 Apr 2022 02:32:14 PM CEST
; FORMAT={-:-/ absolute / inch / decimal}
; #@! TF.CreationDate,2022-04-27T14:32:14+02:00
; #@! TF.GenerationSoftware,Kicad,Pcbnew,6.0.4
; #@! TF.FileFunction,Plated,1,2,PTH
FMAT,2
INCH
; #@! TA.AperFunction,Plated,PTH,ComponentDrill
T1C0.0315
; #@! TA.AperFunction,Plated,PTH,ComponentDrill
T2C0.0394
; #@! TA.AperFunction,Plated,PTH,ComponentDrill
T3C0.0433
; #@! TA.AperFunction,Plated,PTH,ComponentDrill
T4C0.0520
%
G90
G05
T1
X4.9109Y-2.86
X4.9109Y-3.26
X5.05Y-4.1
X5.05Y-4.5
X5.06Y-3.52
X5.06Y-3.92
X5.2Y-2.86
X5.2Y-3.26
X5.3Y-4.1
X5.3Y-4.5
X5.31Y-3.52
X5.31Y-3.92
X5.4928Y-4.2004
X5.4928Y-4.3004
X5.4928Y-4.4004
X5.4928Y-4.5004
X5.5301Y-2.8518
X5.5301Y-3.2518
X5.57Y-3.52
X5.57Y-3.92
X5.82Y-2.8512
X5.82Y-3.2512
X5.82Y-3.52
X5.82Y-3.92
X5.8928Y-4.2004
X5.8928Y-4.3004
X5.8928Y-4.4004
X5.8928Y-4.5004
X6.07Y-3.52
X6.07Y-3.92
X6.14Y-2.8512
X6.14Y-3.2512
X6.24Y-4.04
X6.31Y-3.52
X6.31Y-3.92
X6.39Y-2.8512
X6.39Y-3.2512
X6.64Y-4.04
X6.85Y-4.02
X7.25Y-4.02
T2
X5.2606Y-2.2222
X5.3606Y-2.2222
X5.4606Y-2.2222
X5.5606Y-2.2222
X5.6606Y-2.2222
X5.7606Y-2.2222
X5.8606Y-2.2222
X5.9606Y-2.2222
X6.48Y-2.22
X6.58Y-2.22
X6.68Y-2.22
X6.78Y-2.22
X6.88Y-2.22
X6.98Y-2.22
X7.3278Y-2.2
X7.3278Y-2.3
X7.3278Y-2.4
X7.3278Y-2.5
X7.3278Y-2.6
X7.3278Y-2.7
X7.3278Y-2.8
X7.3278Y-2.9
X7.3278Y-3.0
X7.3278Y-3.1
X7.3278Y-3.2
T3
X6.3085Y-4.2447
X6.338Y-4.5973
X6.4085Y-4.2447
X6.4282Y-4.5973
X6.5085Y-4.2447
X6.5183Y-4.5973
X6.7597Y-4.59
X6.7613Y-4.2447
X6.8498Y-4.59
X6.8613Y-4.2447
X6.94Y-4.59
X6.9613Y-4.2447
T4
X7.4606Y-3.5144
X7.4606Y-3.7112
X7.4606Y-4.2131
X7.4606Y-4.41
T0
M30
